G04 #@! TF.GenerationSoftware,KiCad,Pcbnew,(5.0.1)-4*
G04 #@! TF.CreationDate,2019-03-16T12:44:05-04:00*
G04 #@! TF.ProjectId,Wii reg,576969207265672E6B696361645F7063,rev?*
G04 #@! TF.SameCoordinates,Original*
G04 #@! TF.FileFunction,Soldermask,Top*
G04 #@! TF.FilePolarity,Negative*
%FSLAX46Y46*%
G04 Gerber Fmt 4.6, Leading zero omitted, Abs format (unit mm)*
G04 Created by KiCad (PCBNEW (5.0.1)-4) date 3/16/2019 12:44:05 PM*
%MOMM*%
%LPD*%
G01*
G04 APERTURE LIST*
%ADD10C,0.100000*%
G04 APERTURE END LIST*
D10*
G36*
X215580000Y-117300000D02*
X212680000Y-117300000D01*
X212680000Y-115400000D01*
X215580000Y-115400000D01*
X215580000Y-117300000D01*
X215580000Y-117300000D01*
G37*
G36*
X210110000Y-117300000D02*
X207210000Y-117300000D01*
X207210000Y-115400000D01*
X210110000Y-115400000D01*
X210110000Y-117300000D01*
X210110000Y-117300000D01*
G37*
G36*
X225680000Y-117270000D02*
X222780000Y-117270000D01*
X222780000Y-115370000D01*
X225680000Y-115370000D01*
X225680000Y-117270000D01*
X225680000Y-117270000D01*
G37*
G36*
X195134183Y-115876900D02*
X195260384Y-115929175D01*
X195261574Y-115929668D01*
X195376224Y-116006274D01*
X195473726Y-116103776D01*
X195499145Y-116141819D01*
X195550332Y-116218425D01*
X195601586Y-116342163D01*
X195613137Y-116363774D01*
X195628683Y-116382716D01*
X195647625Y-116398262D01*
X195669235Y-116409813D01*
X195692685Y-116416926D01*
X195717071Y-116419328D01*
X195741457Y-116416926D01*
X195764906Y-116409813D01*
X195786517Y-116398262D01*
X195805459Y-116382716D01*
X195821005Y-116363774D01*
X195832556Y-116342163D01*
X195879668Y-116228425D01*
X195956275Y-116113775D01*
X196053775Y-116016275D01*
X196068743Y-116006274D01*
X196168426Y-115939668D01*
X196193751Y-115929178D01*
X196295817Y-115886900D01*
X196431055Y-115860000D01*
X196568945Y-115860000D01*
X196704183Y-115886900D01*
X196806249Y-115929178D01*
X196831574Y-115939668D01*
X196946224Y-116016274D01*
X197043726Y-116113776D01*
X197072854Y-116157370D01*
X197120332Y-116228426D01*
X197173100Y-116355817D01*
X197200000Y-116491055D01*
X197200000Y-116628945D01*
X197173100Y-116764183D01*
X197124474Y-116881574D01*
X197120332Y-116891574D01*
X197050408Y-116996224D01*
X197043725Y-117006225D01*
X196946225Y-117103725D01*
X196831574Y-117180332D01*
X196704183Y-117233100D01*
X196568945Y-117260000D01*
X196431055Y-117260000D01*
X196295817Y-117233100D01*
X196168426Y-117180332D01*
X196053775Y-117103725D01*
X195956275Y-117006225D01*
X195949593Y-116996224D01*
X195930855Y-116968181D01*
X195879668Y-116891575D01*
X195828414Y-116767837D01*
X195816863Y-116746226D01*
X195801317Y-116727284D01*
X195782375Y-116711738D01*
X195760765Y-116700187D01*
X195737315Y-116693074D01*
X195712929Y-116690672D01*
X195688543Y-116693074D01*
X195665094Y-116700187D01*
X195643483Y-116711738D01*
X195624541Y-116727284D01*
X195608995Y-116746226D01*
X195597444Y-116767837D01*
X195550332Y-116881575D01*
X195543650Y-116891575D01*
X195473726Y-116996224D01*
X195376224Y-117093726D01*
X195261574Y-117170332D01*
X195134183Y-117223100D01*
X194998945Y-117250000D01*
X194861055Y-117250000D01*
X194725817Y-117223100D01*
X194598426Y-117170332D01*
X194483776Y-117093726D01*
X194386274Y-116996224D01*
X194309668Y-116881574D01*
X194256900Y-116754183D01*
X194230000Y-116618945D01*
X194230000Y-116481055D01*
X194246245Y-116399386D01*
X194248647Y-116375000D01*
X194246245Y-116350614D01*
X194239132Y-116327165D01*
X194227581Y-116305554D01*
X194212035Y-116286612D01*
X194197024Y-116274292D01*
X194205000Y-116275078D01*
X194229386Y-116272676D01*
X194252835Y-116265563D01*
X194274446Y-116254012D01*
X194293388Y-116238466D01*
X194308934Y-116219525D01*
X194309669Y-116218425D01*
X194386274Y-116103776D01*
X194483776Y-116006274D01*
X194598426Y-115929668D01*
X194599616Y-115929175D01*
X194725817Y-115876900D01*
X194861055Y-115850000D01*
X194998945Y-115850000D01*
X195134183Y-115876900D01*
X195134183Y-115876900D01*
G37*
G36*
X190529196Y-113989958D02*
X190765780Y-114087954D01*
X190978705Y-114230226D01*
X191159774Y-114411295D01*
X191302046Y-114624220D01*
X191400042Y-114860804D01*
X191450000Y-115111960D01*
X191450000Y-115368040D01*
X191400042Y-115619196D01*
X191302046Y-115855780D01*
X191159774Y-116068705D01*
X190978705Y-116249774D01*
X190765780Y-116392046D01*
X190529196Y-116490042D01*
X190278040Y-116540000D01*
X190021960Y-116540000D01*
X189770804Y-116490042D01*
X189534220Y-116392046D01*
X189321295Y-116249774D01*
X189140226Y-116068705D01*
X188997954Y-115855780D01*
X188899958Y-115619196D01*
X188850000Y-115368040D01*
X188850000Y-115111960D01*
X188899958Y-114860804D01*
X188997954Y-114624220D01*
X189140226Y-114411295D01*
X189321295Y-114230226D01*
X189534220Y-114087954D01*
X189770804Y-113989958D01*
X190021960Y-113940000D01*
X190278040Y-113940000D01*
X190529196Y-113989958D01*
X190529196Y-113989958D01*
G37*
G36*
X229789196Y-113969958D02*
X230025780Y-114067954D01*
X230238705Y-114210226D01*
X230419774Y-114391295D01*
X230562046Y-114604220D01*
X230660042Y-114840804D01*
X230710000Y-115091960D01*
X230710000Y-115348040D01*
X230660042Y-115599196D01*
X230562046Y-115835780D01*
X230419774Y-116048705D01*
X230238705Y-116229774D01*
X230025780Y-116372046D01*
X229789196Y-116470042D01*
X229538040Y-116520000D01*
X229281960Y-116520000D01*
X229030804Y-116470042D01*
X228794220Y-116372046D01*
X228581295Y-116229774D01*
X228400226Y-116048705D01*
X228257954Y-115835780D01*
X228159958Y-115599196D01*
X228110000Y-115348040D01*
X228110000Y-115091960D01*
X228159958Y-114840804D01*
X228257954Y-114604220D01*
X228400226Y-114391295D01*
X228581295Y-114210226D01*
X228794220Y-114067954D01*
X229030804Y-113969958D01*
X229281960Y-113920000D01*
X229538040Y-113920000D01*
X229789196Y-113969958D01*
X229789196Y-113969958D01*
G37*
G36*
X200950000Y-114962400D02*
X200952402Y-114986786D01*
X200959515Y-115010235D01*
X200971066Y-115031846D01*
X200986612Y-115050788D01*
X201005554Y-115066334D01*
X201027165Y-115077885D01*
X201050614Y-115084998D01*
X201075000Y-115087400D01*
X201099386Y-115084998D01*
X201133924Y-115072640D01*
X201174806Y-115050788D01*
X201250825Y-115010155D01*
X201382776Y-114970128D01*
X201485610Y-114960000D01*
X201554390Y-114960000D01*
X201657224Y-114970128D01*
X201789175Y-115010155D01*
X201910781Y-115075155D01*
X202017370Y-115162630D01*
X202058380Y-115212601D01*
X202075701Y-115229922D01*
X202096076Y-115243536D01*
X202118715Y-115252914D01*
X202142748Y-115257694D01*
X202167252Y-115257694D01*
X202191286Y-115252913D01*
X202213925Y-115243536D01*
X202234299Y-115229922D01*
X202251620Y-115212601D01*
X202292630Y-115162630D01*
X202399219Y-115075155D01*
X202520825Y-115010155D01*
X202652776Y-114970128D01*
X202755610Y-114960000D01*
X202824390Y-114960000D01*
X202927224Y-114970128D01*
X203059175Y-115010155D01*
X203180781Y-115075155D01*
X203287370Y-115162630D01*
X203328380Y-115212601D01*
X203345701Y-115229922D01*
X203366076Y-115243536D01*
X203388715Y-115252914D01*
X203412748Y-115257694D01*
X203437252Y-115257694D01*
X203461286Y-115252913D01*
X203483925Y-115243536D01*
X203504299Y-115229922D01*
X203521620Y-115212601D01*
X203562630Y-115162630D01*
X203669219Y-115075155D01*
X203790825Y-115010155D01*
X203922776Y-114970128D01*
X204025610Y-114960000D01*
X204094390Y-114960000D01*
X204197224Y-114970128D01*
X204329175Y-115010155D01*
X204450781Y-115075155D01*
X204557370Y-115162630D01*
X204598380Y-115212601D01*
X204615701Y-115229922D01*
X204636076Y-115243536D01*
X204658715Y-115252914D01*
X204682748Y-115257694D01*
X204707252Y-115257694D01*
X204731286Y-115252913D01*
X204753925Y-115243536D01*
X204774299Y-115229922D01*
X204791620Y-115212601D01*
X204832630Y-115162630D01*
X204939219Y-115075155D01*
X205060825Y-115010155D01*
X205192776Y-114970128D01*
X205295610Y-114960000D01*
X205364390Y-114960000D01*
X205467224Y-114970128D01*
X205599175Y-115010155D01*
X205720781Y-115075155D01*
X205827370Y-115162630D01*
X205914845Y-115269219D01*
X205979845Y-115390825D01*
X206019872Y-115522776D01*
X206033387Y-115660000D01*
X206019872Y-115797224D01*
X205979845Y-115929175D01*
X205914845Y-116050781D01*
X205827370Y-116157370D01*
X205720781Y-116244845D01*
X205599175Y-116309845D01*
X205467224Y-116349872D01*
X205364390Y-116360000D01*
X205295610Y-116360000D01*
X205192776Y-116349872D01*
X205060825Y-116309845D01*
X204939219Y-116244845D01*
X204832630Y-116157370D01*
X204791620Y-116107399D01*
X204774299Y-116090078D01*
X204753924Y-116076464D01*
X204731285Y-116067086D01*
X204707252Y-116062306D01*
X204682748Y-116062306D01*
X204658714Y-116067087D01*
X204636075Y-116076464D01*
X204615701Y-116090078D01*
X204598380Y-116107399D01*
X204557370Y-116157370D01*
X204450781Y-116244845D01*
X204329175Y-116309845D01*
X204197224Y-116349872D01*
X204094390Y-116360000D01*
X204025610Y-116360000D01*
X203922776Y-116349872D01*
X203790825Y-116309845D01*
X203669219Y-116244845D01*
X203562630Y-116157370D01*
X203521620Y-116107399D01*
X203504299Y-116090078D01*
X203483924Y-116076464D01*
X203461285Y-116067086D01*
X203437252Y-116062306D01*
X203412748Y-116062306D01*
X203388714Y-116067087D01*
X203366075Y-116076464D01*
X203345701Y-116090078D01*
X203328380Y-116107399D01*
X203287370Y-116157370D01*
X203180781Y-116244845D01*
X203059175Y-116309845D01*
X202927224Y-116349872D01*
X202824390Y-116360000D01*
X202755610Y-116360000D01*
X202652776Y-116349872D01*
X202520825Y-116309845D01*
X202399219Y-116244845D01*
X202292630Y-116157370D01*
X202251620Y-116107399D01*
X202234299Y-116090078D01*
X202213924Y-116076464D01*
X202191285Y-116067086D01*
X202167252Y-116062306D01*
X202142748Y-116062306D01*
X202118714Y-116067087D01*
X202096075Y-116076464D01*
X202075701Y-116090078D01*
X202058380Y-116107399D01*
X202017370Y-116157370D01*
X201910781Y-116244845D01*
X201789175Y-116309845D01*
X201657224Y-116349872D01*
X201554390Y-116360000D01*
X201485610Y-116360000D01*
X201382776Y-116349872D01*
X201250825Y-116309845D01*
X201133925Y-116247360D01*
X201111285Y-116237982D01*
X201087252Y-116233202D01*
X201062747Y-116233202D01*
X201038714Y-116237983D01*
X201016075Y-116247360D01*
X200995700Y-116260974D01*
X200978373Y-116278301D01*
X200964760Y-116298676D01*
X200955382Y-116321315D01*
X200950000Y-116357600D01*
X200950000Y-116360000D01*
X199550000Y-116360000D01*
X199550000Y-114960000D01*
X200950000Y-114960000D01*
X200950000Y-114962400D01*
X200950000Y-114962400D01*
G37*
G36*
X198790000Y-116310000D02*
X197490000Y-116310000D01*
X197490000Y-115410000D01*
X198790000Y-115410000D01*
X198790000Y-116310000D01*
X198790000Y-116310000D01*
G37*
G36*
X194080000Y-116150078D02*
X194082402Y-116174464D01*
X194089515Y-116197913D01*
X194101066Y-116219524D01*
X194116612Y-116238466D01*
X194131623Y-116250786D01*
X194123647Y-116250000D01*
X192780000Y-116250000D01*
X192780000Y-115350000D01*
X194080000Y-115350000D01*
X194080000Y-116150078D01*
X194080000Y-116150078D01*
G37*
G36*
X219370000Y-115735000D02*
X217970000Y-115735000D01*
X217970000Y-112385000D01*
X219370000Y-112385000D01*
X219370000Y-115735000D01*
X219370000Y-115735000D01*
G37*
G36*
X221370000Y-115735000D02*
X219970000Y-115735000D01*
X219970000Y-112385000D01*
X221370000Y-112385000D01*
X221370000Y-115735000D01*
X221370000Y-115735000D01*
G37*
G36*
X198790000Y-114810000D02*
X197490000Y-114810000D01*
X197490000Y-113910000D01*
X198790000Y-113910000D01*
X198790000Y-114810000D01*
X198790000Y-114810000D01*
G37*
G36*
X194080000Y-114750000D02*
X192780000Y-114750000D01*
X192780000Y-113850000D01*
X194080000Y-113850000D01*
X194080000Y-114750000D01*
X194080000Y-114750000D01*
G37*
G36*
X226560000Y-114690000D02*
X222460000Y-114690000D01*
X222460000Y-113090000D01*
X226560000Y-113090000D01*
X226560000Y-114690000D01*
X226560000Y-114690000D01*
G37*
G36*
X196978512Y-108315426D02*
X197030808Y-108331290D01*
X197049203Y-108336870D01*
X197114343Y-108371688D01*
X197150701Y-108401526D01*
X197171448Y-108418552D01*
X197218309Y-108475653D01*
X197218310Y-108475655D01*
X197253131Y-108540799D01*
X197253209Y-108541056D01*
X197274574Y-108611487D01*
X197277337Y-108639539D01*
X197280000Y-108666580D01*
X197280000Y-109153419D01*
X197273572Y-109218682D01*
X197272768Y-109222721D01*
X197272762Y-109247226D01*
X197277538Y-109271260D01*
X197286910Y-109293901D01*
X197300520Y-109314278D01*
X197317843Y-109331609D01*
X197338215Y-109345228D01*
X197360852Y-109354610D01*
X197384884Y-109359395D01*
X197397163Y-109360000D01*
X197480000Y-109360000D01*
X197480000Y-109442837D01*
X197482402Y-109467223D01*
X197489515Y-109490672D01*
X197501066Y-109512283D01*
X197516612Y-109531225D01*
X197535554Y-109546771D01*
X197557165Y-109558322D01*
X197580614Y-109565435D01*
X197605000Y-109567837D01*
X197619216Y-109566437D01*
X197619235Y-109566633D01*
X197631486Y-109565426D01*
X197631487Y-109565426D01*
X197671685Y-109561467D01*
X197686580Y-109560000D01*
X198173420Y-109560000D01*
X198191784Y-109561809D01*
X198228513Y-109565426D01*
X198273075Y-109578944D01*
X198299201Y-109586869D01*
X198326105Y-109601250D01*
X198364347Y-109621691D01*
X198421448Y-109668552D01*
X198468309Y-109725653D01*
X198468310Y-109725655D01*
X198503131Y-109790799D01*
X198506605Y-109802252D01*
X198524574Y-109861487D01*
X198531814Y-109935000D01*
X198524574Y-110008513D01*
X198515963Y-110036900D01*
X198503131Y-110079201D01*
X198497536Y-110089668D01*
X198468309Y-110144347D01*
X198438474Y-110180701D01*
X198424861Y-110201076D01*
X198415483Y-110223715D01*
X198410703Y-110247748D01*
X198410703Y-110272253D01*
X198415484Y-110296286D01*
X198424861Y-110318925D01*
X198438472Y-110339296D01*
X198468309Y-110375653D01*
X198468310Y-110375655D01*
X198503131Y-110440799D01*
X198503131Y-110440800D01*
X198524574Y-110511487D01*
X198531814Y-110585000D01*
X198524574Y-110658513D01*
X198519698Y-110674587D01*
X198503131Y-110729201D01*
X198499822Y-110735391D01*
X198468309Y-110794347D01*
X198438474Y-110830701D01*
X198424861Y-110851076D01*
X198415483Y-110873715D01*
X198410703Y-110897748D01*
X198410703Y-110922253D01*
X198415484Y-110946286D01*
X198424861Y-110968925D01*
X198438472Y-110989296D01*
X198468309Y-111025653D01*
X198468310Y-111025655D01*
X198503131Y-111090799D01*
X198503131Y-111090800D01*
X198524574Y-111161487D01*
X198531814Y-111235000D01*
X198524574Y-111308513D01*
X198514533Y-111341612D01*
X198503131Y-111379201D01*
X198487102Y-111409188D01*
X198468309Y-111444347D01*
X198438474Y-111480701D01*
X198424861Y-111501076D01*
X198415483Y-111523715D01*
X198410703Y-111547748D01*
X198410703Y-111572253D01*
X198415484Y-111596286D01*
X198424861Y-111618925D01*
X198438472Y-111639296D01*
X198468309Y-111675653D01*
X198468310Y-111675655D01*
X198503131Y-111740799D01*
X198503131Y-111740800D01*
X198524574Y-111811487D01*
X198531814Y-111885000D01*
X198524574Y-111958513D01*
X198510279Y-112005638D01*
X198503131Y-112029201D01*
X198475414Y-112081055D01*
X198468309Y-112094347D01*
X198421448Y-112151448D01*
X198364347Y-112198309D01*
X198364345Y-112198310D01*
X198299201Y-112233131D01*
X198275638Y-112240279D01*
X198228513Y-112254574D01*
X198198417Y-112257538D01*
X198173420Y-112260000D01*
X197686580Y-112260000D01*
X197675724Y-112258931D01*
X197631487Y-112254574D01*
X197631485Y-112254573D01*
X197621318Y-112253572D01*
X197617279Y-112252768D01*
X197592774Y-112252762D01*
X197568740Y-112257538D01*
X197546099Y-112266910D01*
X197525722Y-112280520D01*
X197508391Y-112297843D01*
X197494772Y-112318215D01*
X197485390Y-112340852D01*
X197480605Y-112364884D01*
X197480000Y-112377163D01*
X197480000Y-112460000D01*
X197397163Y-112460000D01*
X197372777Y-112462402D01*
X197349328Y-112469515D01*
X197327717Y-112481066D01*
X197308775Y-112496612D01*
X197293229Y-112515554D01*
X197281678Y-112537165D01*
X197274565Y-112560614D01*
X197272163Y-112585000D01*
X197273563Y-112599216D01*
X197273367Y-112599235D01*
X197274574Y-112611486D01*
X197274574Y-112611487D01*
X197280000Y-112666581D01*
X197280000Y-113153419D01*
X197274574Y-113208513D01*
X197260279Y-113255638D01*
X197253131Y-113279201D01*
X197222293Y-113336894D01*
X197218309Y-113344347D01*
X197171448Y-113401448D01*
X197114347Y-113448309D01*
X197114345Y-113448310D01*
X197049201Y-113483131D01*
X197025638Y-113490279D01*
X196978513Y-113504574D01*
X196905000Y-113511814D01*
X196831488Y-113504574D01*
X196784363Y-113490279D01*
X196760800Y-113483131D01*
X196695656Y-113448310D01*
X196695654Y-113448309D01*
X196659293Y-113418469D01*
X196638927Y-113404860D01*
X196616288Y-113395483D01*
X196592254Y-113390702D01*
X196567750Y-113390702D01*
X196543716Y-113395482D01*
X196521077Y-113404859D01*
X196500702Y-113418474D01*
X196464347Y-113448309D01*
X196434023Y-113464518D01*
X196399201Y-113483131D01*
X196375638Y-113490279D01*
X196328513Y-113504574D01*
X196255000Y-113511814D01*
X196181488Y-113504574D01*
X196134363Y-113490279D01*
X196110800Y-113483131D01*
X196045656Y-113448310D01*
X196045654Y-113448309D01*
X196009293Y-113418469D01*
X195988927Y-113404860D01*
X195966288Y-113395483D01*
X195942254Y-113390702D01*
X195917750Y-113390702D01*
X195893716Y-113395482D01*
X195871077Y-113404859D01*
X195850702Y-113418474D01*
X195814347Y-113448309D01*
X195784023Y-113464518D01*
X195749201Y-113483131D01*
X195725638Y-113490279D01*
X195678513Y-113504574D01*
X195605000Y-113511814D01*
X195531488Y-113504574D01*
X195484363Y-113490279D01*
X195460800Y-113483131D01*
X195395656Y-113448310D01*
X195395654Y-113448309D01*
X195359293Y-113418469D01*
X195338927Y-113404860D01*
X195316288Y-113395483D01*
X195292254Y-113390702D01*
X195267750Y-113390702D01*
X195243716Y-113395482D01*
X195221077Y-113404859D01*
X195200702Y-113418474D01*
X195164347Y-113448309D01*
X195134023Y-113464518D01*
X195099201Y-113483131D01*
X195075638Y-113490279D01*
X195028513Y-113504574D01*
X194955000Y-113511814D01*
X194881488Y-113504574D01*
X194834363Y-113490279D01*
X194810800Y-113483131D01*
X194745656Y-113448310D01*
X194745654Y-113448309D01*
X194688553Y-113401448D01*
X194641692Y-113344347D01*
X194637708Y-113336894D01*
X194606870Y-113279201D01*
X194599722Y-113255638D01*
X194585427Y-113208513D01*
X194580000Y-113153419D01*
X194580000Y-112666582D01*
X194585426Y-112611488D01*
X194585426Y-112611487D01*
X194586429Y-112601306D01*
X194587234Y-112597261D01*
X194587236Y-112572757D01*
X194582457Y-112548723D01*
X194573082Y-112526084D01*
X194559469Y-112505708D01*
X194542143Y-112488380D01*
X194521770Y-112474764D01*
X194499131Y-112465385D01*
X194475098Y-112460603D01*
X194462837Y-112460000D01*
X194380000Y-112460000D01*
X194380000Y-112377163D01*
X194377598Y-112352777D01*
X194370485Y-112329328D01*
X194358934Y-112307717D01*
X194343388Y-112288775D01*
X194324446Y-112273229D01*
X194302835Y-112261678D01*
X194279386Y-112254565D01*
X194255000Y-112252163D01*
X194240784Y-112253563D01*
X194240765Y-112253367D01*
X194228514Y-112254574D01*
X194228513Y-112254574D01*
X194198417Y-112257538D01*
X194173420Y-112260000D01*
X193686580Y-112260000D01*
X193661583Y-112257538D01*
X193631487Y-112254574D01*
X193584362Y-112240279D01*
X193560799Y-112233131D01*
X193495655Y-112198310D01*
X193495653Y-112198309D01*
X193438552Y-112151448D01*
X193391691Y-112094347D01*
X193384586Y-112081055D01*
X193356869Y-112029201D01*
X193349721Y-112005638D01*
X193335426Y-111958513D01*
X193328186Y-111885000D01*
X193335426Y-111811487D01*
X193356869Y-111740800D01*
X193356869Y-111740799D01*
X193391690Y-111675655D01*
X193391691Y-111675653D01*
X193421528Y-111639296D01*
X193435139Y-111618924D01*
X193444517Y-111596285D01*
X193449297Y-111572252D01*
X193449297Y-111547747D01*
X193444516Y-111523714D01*
X193435139Y-111501075D01*
X193421526Y-111480701D01*
X193391691Y-111444347D01*
X193372898Y-111409188D01*
X193356869Y-111379201D01*
X193345467Y-111341612D01*
X193335426Y-111308513D01*
X193328186Y-111235000D01*
X193335426Y-111161487D01*
X193356869Y-111090800D01*
X193356869Y-111090799D01*
X193391690Y-111025655D01*
X193391691Y-111025653D01*
X193421528Y-110989296D01*
X193435139Y-110968924D01*
X193444517Y-110946285D01*
X193449297Y-110922252D01*
X193449297Y-110897747D01*
X193444516Y-110873714D01*
X193435139Y-110851075D01*
X193421526Y-110830701D01*
X193391691Y-110794347D01*
X193360178Y-110735391D01*
X193356869Y-110729201D01*
X193340302Y-110674587D01*
X193335426Y-110658513D01*
X193328186Y-110585000D01*
X193335426Y-110511487D01*
X193356869Y-110440800D01*
X193356869Y-110440799D01*
X193391690Y-110375655D01*
X193391691Y-110375653D01*
X193421528Y-110339296D01*
X193435139Y-110318924D01*
X193444517Y-110296285D01*
X193449297Y-110272252D01*
X193449297Y-110247747D01*
X193444516Y-110223714D01*
X193435139Y-110201075D01*
X193421526Y-110180701D01*
X193391691Y-110144347D01*
X193362464Y-110089668D01*
X193356869Y-110079201D01*
X193344037Y-110036900D01*
X193335426Y-110008513D01*
X193328186Y-109935000D01*
X193335426Y-109861487D01*
X193353395Y-109802252D01*
X193356869Y-109790799D01*
X193391690Y-109725655D01*
X193391691Y-109725653D01*
X193438552Y-109668552D01*
X193495653Y-109621691D01*
X193533895Y-109601250D01*
X193560799Y-109586869D01*
X193586925Y-109578944D01*
X193631487Y-109565426D01*
X193668216Y-109561809D01*
X193686580Y-109560000D01*
X194173420Y-109560000D01*
X194184276Y-109561069D01*
X194228513Y-109565426D01*
X194228515Y-109565427D01*
X194238682Y-109566428D01*
X194242721Y-109567232D01*
X194267226Y-109567238D01*
X194291260Y-109562462D01*
X194313901Y-109553090D01*
X194334278Y-109539480D01*
X194351609Y-109522157D01*
X194365228Y-109501785D01*
X194374610Y-109479148D01*
X194379395Y-109455116D01*
X194380000Y-109442837D01*
X194380000Y-109360000D01*
X194462838Y-109360000D01*
X194487224Y-109357598D01*
X194510673Y-109350485D01*
X194532284Y-109338934D01*
X194551226Y-109323388D01*
X194566772Y-109304446D01*
X194578323Y-109282835D01*
X194585436Y-109259386D01*
X194587838Y-109235000D01*
X194586438Y-109220782D01*
X194586634Y-109220763D01*
X194584103Y-109195065D01*
X194580000Y-109153419D01*
X194580000Y-108666582D01*
X194580282Y-108663723D01*
X194583642Y-108629607D01*
X194585426Y-108611488D01*
X194601898Y-108557188D01*
X194606870Y-108540797D01*
X194641688Y-108475657D01*
X194688552Y-108418552D01*
X194704070Y-108405817D01*
X194745653Y-108371691D01*
X194758171Y-108365000D01*
X194810799Y-108336869D01*
X194834362Y-108329721D01*
X194881487Y-108315426D01*
X194955000Y-108308186D01*
X195028512Y-108315426D01*
X195080808Y-108331290D01*
X195099203Y-108336870D01*
X195164343Y-108371688D01*
X195200701Y-108401526D01*
X195221076Y-108415139D01*
X195243715Y-108424517D01*
X195267748Y-108429297D01*
X195292253Y-108429297D01*
X195316286Y-108424516D01*
X195338925Y-108415139D01*
X195359296Y-108401528D01*
X195395653Y-108371691D01*
X195408171Y-108365000D01*
X195460799Y-108336869D01*
X195484362Y-108329721D01*
X195531487Y-108315426D01*
X195605000Y-108308186D01*
X195678512Y-108315426D01*
X195730808Y-108331290D01*
X195749203Y-108336870D01*
X195814343Y-108371688D01*
X195850701Y-108401526D01*
X195871076Y-108415139D01*
X195893715Y-108424517D01*
X195917748Y-108429297D01*
X195942253Y-108429297D01*
X195966286Y-108424516D01*
X195988925Y-108415139D01*
X196009296Y-108401528D01*
X196045653Y-108371691D01*
X196058171Y-108365000D01*
X196110799Y-108336869D01*
X196134362Y-108329721D01*
X196181487Y-108315426D01*
X196255000Y-108308186D01*
X196328512Y-108315426D01*
X196380808Y-108331290D01*
X196399203Y-108336870D01*
X196464343Y-108371688D01*
X196500701Y-108401526D01*
X196521076Y-108415139D01*
X196543715Y-108424517D01*
X196567748Y-108429297D01*
X196592253Y-108429297D01*
X196616286Y-108424516D01*
X196638925Y-108415139D01*
X196659296Y-108401528D01*
X196695653Y-108371691D01*
X196708171Y-108365000D01*
X196760799Y-108336869D01*
X196784362Y-108329721D01*
X196831487Y-108315426D01*
X196905000Y-108308186D01*
X196978512Y-108315426D01*
X196978512Y-108315426D01*
G37*
G36*
X206830000Y-113390000D02*
X202530000Y-113390000D01*
X202530000Y-112490000D01*
X206830000Y-112490000D01*
X206830000Y-113390000D01*
X206830000Y-113390000D01*
G37*
G36*
X217065000Y-112910000D02*
X215415000Y-112910000D01*
X215415000Y-111510000D01*
X217065000Y-111510000D01*
X217065000Y-112910000D01*
X217065000Y-112910000D01*
G37*
G36*
X189094183Y-110036900D02*
X189221574Y-110089668D01*
X189336224Y-110166274D01*
X189433726Y-110263776D01*
X189495222Y-110355812D01*
X189510332Y-110378426D01*
X189563100Y-110505817D01*
X189590000Y-110641055D01*
X189590000Y-110778945D01*
X189563100Y-110914183D01*
X189518104Y-111022811D01*
X189510332Y-111041574D01*
X189433726Y-111156224D01*
X189336224Y-111253726D01*
X189227955Y-111326068D01*
X189209016Y-111341612D01*
X189193471Y-111360554D01*
X189181920Y-111382165D01*
X189174807Y-111405614D01*
X189172405Y-111430000D01*
X189174807Y-111454387D01*
X189181920Y-111477836D01*
X189193471Y-111499447D01*
X189209017Y-111518389D01*
X189227955Y-111533932D01*
X189336224Y-111606274D01*
X189433726Y-111703776D01*
X189505696Y-111811487D01*
X189510332Y-111818426D01*
X189563100Y-111945817D01*
X189590000Y-112081055D01*
X189590000Y-112218945D01*
X189563100Y-112354183D01*
X189518273Y-112462402D01*
X189510332Y-112481574D01*
X189441226Y-112585000D01*
X189433725Y-112596225D01*
X189336225Y-112693725D01*
X189221574Y-112770332D01*
X189094183Y-112823100D01*
X188958945Y-112850000D01*
X188821055Y-112850000D01*
X188685817Y-112823100D01*
X188558426Y-112770332D01*
X188443775Y-112693725D01*
X188346275Y-112596225D01*
X188338775Y-112585000D01*
X188269668Y-112481574D01*
X188261727Y-112462402D01*
X188216900Y-112354183D01*
X188190000Y-112218945D01*
X188190000Y-112081055D01*
X188216900Y-111945817D01*
X188269668Y-111818426D01*
X188274304Y-111811487D01*
X188346274Y-111703776D01*
X188443776Y-111606274D01*
X188552045Y-111533932D01*
X188570984Y-111518388D01*
X188586529Y-111499446D01*
X188598080Y-111477835D01*
X188605193Y-111454386D01*
X188607595Y-111430000D01*
X188605193Y-111405613D01*
X188598080Y-111382164D01*
X188586529Y-111360553D01*
X188570983Y-111341611D01*
X188552045Y-111326068D01*
X188443776Y-111253726D01*
X188346274Y-111156224D01*
X188269668Y-111041574D01*
X188261896Y-111022811D01*
X188216900Y-110914183D01*
X188190000Y-110778945D01*
X188190000Y-110641055D01*
X188216900Y-110505817D01*
X188269668Y-110378426D01*
X188284778Y-110355812D01*
X188346274Y-110263776D01*
X188443776Y-110166274D01*
X188558426Y-110089668D01*
X188685817Y-110036900D01*
X188821055Y-110010000D01*
X188958945Y-110010000D01*
X189094183Y-110036900D01*
X189094183Y-110036900D01*
G37*
G36*
X202160000Y-112830000D02*
X199960000Y-112830000D01*
X199960000Y-110930000D01*
X202160000Y-110930000D01*
X202160000Y-112830000D01*
X202160000Y-112830000D01*
G37*
G36*
X192383497Y-111138497D02*
X192436153Y-111154470D01*
X192484665Y-111180400D01*
X192527196Y-111215304D01*
X192562100Y-111257835D01*
X192588030Y-111306347D01*
X192604003Y-111359003D01*
X192610000Y-111419890D01*
X192610000Y-112220110D01*
X192604003Y-112280997D01*
X192588030Y-112333653D01*
X192562100Y-112382165D01*
X192527196Y-112424696D01*
X192484665Y-112459600D01*
X192436153Y-112485530D01*
X192383497Y-112501503D01*
X192322610Y-112507500D01*
X191097390Y-112507500D01*
X191036503Y-112501503D01*
X190983847Y-112485530D01*
X190935335Y-112459600D01*
X190892804Y-112424696D01*
X190857900Y-112382165D01*
X190831970Y-112333653D01*
X190815997Y-112280997D01*
X190810000Y-112220110D01*
X190810000Y-111419890D01*
X190815997Y-111359003D01*
X190831970Y-111306347D01*
X190857900Y-111257835D01*
X190892804Y-111215304D01*
X190935335Y-111180400D01*
X190983847Y-111154470D01*
X191036503Y-111138497D01*
X191097390Y-111132500D01*
X192322610Y-111132500D01*
X192383497Y-111138497D01*
X192383497Y-111138497D01*
G37*
G36*
X206830000Y-111890000D02*
X202530000Y-111890000D01*
X202530000Y-110990000D01*
X206830000Y-110990000D01*
X206830000Y-111890000D01*
X206830000Y-111890000D01*
G37*
G36*
X226560000Y-111890000D02*
X222460000Y-111890000D01*
X222460000Y-110290000D01*
X226560000Y-110290000D01*
X226560000Y-111890000D01*
X226560000Y-111890000D01*
G37*
G36*
X220388608Y-107745064D02*
X220388611Y-107745065D01*
X220388612Y-107745065D01*
X220454587Y-107765078D01*
X220454589Y-107765079D01*
X220454592Y-107765080D01*
X220515391Y-107797577D01*
X220568685Y-107841315D01*
X220612423Y-107894609D01*
X220644920Y-107955408D01*
X220644921Y-107955411D01*
X220644922Y-107955413D01*
X220664935Y-108021388D01*
X220664936Y-108021392D01*
X220670000Y-108072808D01*
X220670000Y-108563332D01*
X220670438Y-108563332D01*
X220670438Y-108565000D01*
X220670000Y-108565000D01*
X220670000Y-108565164D01*
X220670439Y-108569618D01*
X220670440Y-108577273D01*
X220671930Y-108584755D01*
X220672402Y-108589550D01*
X220673806Y-108594178D01*
X220675225Y-108601306D01*
X220677997Y-108607996D01*
X220679515Y-108612999D01*
X220681988Y-108617626D01*
X220684606Y-108623943D01*
X220688392Y-108629607D01*
X220691066Y-108634610D01*
X220694677Y-108639009D01*
X220698223Y-108644315D01*
X220702724Y-108648815D01*
X220706612Y-108653552D01*
X220711363Y-108657451D01*
X220715553Y-108661640D01*
X220720461Y-108664918D01*
X220725554Y-108669098D01*
X220731387Y-108672216D01*
X220735930Y-108675250D01*
X220740961Y-108677333D01*
X220747165Y-108680649D01*
X220753917Y-108682697D01*
X220758571Y-108684624D01*
X220761892Y-108685116D01*
X220770614Y-108687762D01*
X220784274Y-108688434D01*
X220794836Y-108690000D01*
X220795000Y-108690000D01*
X220795000Y-108688962D01*
X220796668Y-108689044D01*
X220796668Y-108690000D01*
X221287192Y-108690000D01*
X221338608Y-108695064D01*
X221338611Y-108695065D01*
X221338612Y-108695065D01*
X221404587Y-108715078D01*
X221404589Y-108715079D01*
X221404592Y-108715080D01*
X221465391Y-108747577D01*
X221518685Y-108791315D01*
X221562423Y-108844609D01*
X221594920Y-108905408D01*
X221594921Y-108905411D01*
X221594922Y-108905413D01*
X221614935Y-108971388D01*
X221614936Y-108971392D01*
X221621693Y-109040000D01*
X221614936Y-109108608D01*
X221614935Y-109108611D01*
X221614935Y-109108612D01*
X221601344Y-109153417D01*
X221594920Y-109174592D01*
X221564729Y-109231076D01*
X221555351Y-109253715D01*
X221550571Y-109277748D01*
X221550571Y-109302252D01*
X221555352Y-109326286D01*
X221564729Y-109348924D01*
X221594920Y-109405408D01*
X221594921Y-109405411D01*
X221594922Y-109405413D01*
X221614424Y-109469703D01*
X221614936Y-109471392D01*
X221621693Y-109540000D01*
X221614936Y-109608608D01*
X221614935Y-109608611D01*
X221614935Y-109608612D01*
X221596753Y-109668552D01*
X221594920Y-109674592D01*
X221564729Y-109731076D01*
X221555351Y-109753715D01*
X221550571Y-109777748D01*
X221550571Y-109802252D01*
X221555352Y-109826286D01*
X221564729Y-109848924D01*
X221594920Y-109905408D01*
X221614936Y-109971392D01*
X221621693Y-110040000D01*
X221614936Y-110108608D01*
X221614935Y-110108611D01*
X221614935Y-110108612D01*
X221597444Y-110166274D01*
X221594920Y-110174592D01*
X221564729Y-110231076D01*
X221555351Y-110253715D01*
X221550571Y-110277748D01*
X221550571Y-110302252D01*
X221555352Y-110326286D01*
X221564729Y-110348924D01*
X221594920Y-110405408D01*
X221614936Y-110471392D01*
X221621693Y-110540000D01*
X221614936Y-110608608D01*
X221614935Y-110608611D01*
X221614935Y-110608612D01*
X221599799Y-110658511D01*
X221594920Y-110674592D01*
X221562423Y-110735391D01*
X221518685Y-110788685D01*
X221465391Y-110832423D01*
X221404592Y-110864920D01*
X221404589Y-110864921D01*
X221404587Y-110864922D01*
X221338612Y-110884935D01*
X221338611Y-110884935D01*
X221338608Y-110884936D01*
X221287192Y-110890000D01*
X220796668Y-110890000D01*
X220796668Y-110890438D01*
X220795000Y-110890438D01*
X220795000Y-110890000D01*
X220794836Y-110890000D01*
X220790382Y-110890439D01*
X220782727Y-110890440D01*
X220775245Y-110891930D01*
X220770450Y-110892402D01*
X220765822Y-110893806D01*
X220758694Y-110895225D01*
X220752004Y-110897997D01*
X220747001Y-110899515D01*
X220742374Y-110901988D01*
X220736057Y-110904606D01*
X220730393Y-110908392D01*
X220725390Y-110911066D01*
X220720991Y-110914677D01*
X220715685Y-110918223D01*
X220711185Y-110922724D01*
X220706448Y-110926612D01*
X220702549Y-110931363D01*
X220698360Y-110935553D01*
X220695082Y-110940461D01*
X220690902Y-110945554D01*
X220687784Y-110951387D01*
X220684750Y-110955930D01*
X220682667Y-110960961D01*
X220679351Y-110967165D01*
X220677303Y-110973917D01*
X220675376Y-110978571D01*
X220674884Y-110981892D01*
X220672238Y-110990614D01*
X220671566Y-111004274D01*
X220670000Y-111014836D01*
X220670000Y-111015000D01*
X220671038Y-111015000D01*
X220670956Y-111016668D01*
X220670000Y-111016668D01*
X220670000Y-111507192D01*
X220664936Y-111558608D01*
X220664935Y-111558611D01*
X220664935Y-111558612D01*
X220646640Y-111618925D01*
X220644920Y-111624592D01*
X220612423Y-111685391D01*
X220568685Y-111738685D01*
X220515394Y-111782420D01*
X220479458Y-111801627D01*
X220454586Y-111814922D01*
X220388611Y-111834935D01*
X220388610Y-111834935D01*
X220388607Y-111834936D01*
X220320000Y-111841693D01*
X220251392Y-111834936D01*
X220251389Y-111834935D01*
X220251388Y-111834935D01*
X220185413Y-111814922D01*
X220185411Y-111814921D01*
X220185408Y-111814920D01*
X220128924Y-111784729D01*
X220106285Y-111775351D01*
X220082252Y-111770571D01*
X220057748Y-111770571D01*
X220033714Y-111775352D01*
X220011076Y-111784728D01*
X219978266Y-111802265D01*
X219954586Y-111814922D01*
X219888611Y-111834935D01*
X219888610Y-111834935D01*
X219888607Y-111834936D01*
X219820000Y-111841693D01*
X219751392Y-111834936D01*
X219751389Y-111834935D01*
X219751388Y-111834935D01*
X219685413Y-111814922D01*
X219685411Y-111814921D01*
X219685408Y-111814920D01*
X219628924Y-111784729D01*
X219606285Y-111775351D01*
X219582252Y-111770571D01*
X219557748Y-111770571D01*
X219533714Y-111775352D01*
X219511076Y-111784728D01*
X219478266Y-111802265D01*
X219454586Y-111814922D01*
X219388611Y-111834935D01*
X219388610Y-111834935D01*
X219388607Y-111834936D01*
X219320000Y-111841693D01*
X219251392Y-111834936D01*
X219251389Y-111834935D01*
X219251388Y-111834935D01*
X219185413Y-111814922D01*
X219185411Y-111814921D01*
X219185408Y-111814920D01*
X219128924Y-111784729D01*
X219106285Y-111775351D01*
X219082252Y-111770571D01*
X219057748Y-111770571D01*
X219033714Y-111775352D01*
X219011076Y-111784728D01*
X218978266Y-111802265D01*
X218954586Y-111814922D01*
X218888611Y-111834935D01*
X218888610Y-111834935D01*
X218888607Y-111834936D01*
X218820000Y-111841693D01*
X218751392Y-111834936D01*
X218751389Y-111834935D01*
X218751388Y-111834935D01*
X218685413Y-111814922D01*
X218685411Y-111814921D01*
X218685408Y-111814920D01*
X218624609Y-111782423D01*
X218571315Y-111738685D01*
X218527580Y-111685394D01*
X218502942Y-111639299D01*
X218495078Y-111624586D01*
X218475065Y-111558611D01*
X218475065Y-111558610D01*
X218475064Y-111558607D01*
X218470000Y-111507191D01*
X218470000Y-111016668D01*
X218469562Y-111016668D01*
X218469562Y-111015000D01*
X218470000Y-111015000D01*
X218470000Y-111014836D01*
X218469561Y-111010382D01*
X218469560Y-111002727D01*
X218468070Y-110995245D01*
X218467598Y-110990450D01*
X218466194Y-110985822D01*
X218464775Y-110978694D01*
X218462003Y-110972004D01*
X218460485Y-110967001D01*
X218458012Y-110962374D01*
X218455394Y-110956057D01*
X218451608Y-110950393D01*
X218448934Y-110945390D01*
X218445323Y-110940991D01*
X218441777Y-110935685D01*
X218437276Y-110931185D01*
X218433388Y-110926448D01*
X218428637Y-110922549D01*
X218424447Y-110918360D01*
X218419539Y-110915082D01*
X218414446Y-110910902D01*
X218408613Y-110907784D01*
X218404070Y-110904750D01*
X218399039Y-110902667D01*
X218392835Y-110899351D01*
X218386083Y-110897303D01*
X218381429Y-110895376D01*
X218378108Y-110894884D01*
X218369386Y-110892238D01*
X218355726Y-110891566D01*
X218345164Y-110890000D01*
X218345000Y-110890000D01*
X218345000Y-110891038D01*
X218343332Y-110890956D01*
X218343332Y-110890000D01*
X217852808Y-110890000D01*
X217801392Y-110884936D01*
X217801389Y-110884935D01*
X217801388Y-110884935D01*
X217735413Y-110864922D01*
X217735411Y-110864921D01*
X217735408Y-110864920D01*
X217674609Y-110832423D01*
X217621315Y-110788685D01*
X217577577Y-110735391D01*
X217545080Y-110674592D01*
X217540202Y-110658511D01*
X217525065Y-110608612D01*
X217525065Y-110608611D01*
X217525064Y-110608608D01*
X217518307Y-110540000D01*
X217525064Y-110471392D01*
X217545080Y-110405408D01*
X217575271Y-110348924D01*
X217584649Y-110326285D01*
X217589429Y-110302252D01*
X217589429Y-110277748D01*
X217584648Y-110253714D01*
X217575271Y-110231076D01*
X217545080Y-110174592D01*
X217542557Y-110166274D01*
X217525065Y-110108612D01*
X217525065Y-110108611D01*
X217525064Y-110108608D01*
X217518307Y-110040000D01*
X217525064Y-109971392D01*
X217545080Y-109905408D01*
X217575271Y-109848924D01*
X217584649Y-109826285D01*
X217589429Y-109802252D01*
X217589429Y-109777748D01*
X217584648Y-109753714D01*
X217575271Y-109731076D01*
X217545080Y-109674592D01*
X217543248Y-109668552D01*
X217525065Y-109608612D01*
X217525065Y-109608611D01*
X217525064Y-109608608D01*
X217518307Y-109540000D01*
X217525064Y-109471392D01*
X217525576Y-109469703D01*
X217545078Y-109405413D01*
X217545079Y-109405411D01*
X217545080Y-109405408D01*
X217575271Y-109348924D01*
X217584649Y-109326285D01*
X217589429Y-109302252D01*
X217589429Y-109277748D01*
X217584648Y-109253714D01*
X217575271Y-109231076D01*
X217545080Y-109174592D01*
X217538657Y-109153417D01*
X217525065Y-109108612D01*
X217525065Y-109108611D01*
X217525064Y-109108608D01*
X217518307Y-109040000D01*
X217525064Y-108971392D01*
X217525065Y-108971388D01*
X217545078Y-108905413D01*
X217545079Y-108905411D01*
X217545080Y-108905408D01*
X217577577Y-108844609D01*
X217621315Y-108791315D01*
X217674609Y-108747577D01*
X217735408Y-108715080D01*
X217735411Y-108715079D01*
X217735413Y-108715078D01*
X217801388Y-108695065D01*
X217801389Y-108695065D01*
X217801392Y-108695064D01*
X217852808Y-108690000D01*
X218343332Y-108690000D01*
X218343332Y-108689562D01*
X218345000Y-108689562D01*
X218345000Y-108690000D01*
X218345164Y-108690000D01*
X218349618Y-108689561D01*
X218357273Y-108689560D01*
X218364755Y-108688070D01*
X218369550Y-108687598D01*
X218374178Y-108686194D01*
X218381306Y-108684775D01*
X218387996Y-108682003D01*
X218392999Y-108680485D01*
X218397626Y-108678012D01*
X218403943Y-108675394D01*
X218409607Y-108671608D01*
X218414610Y-108668934D01*
X218419009Y-108665323D01*
X218424315Y-108661777D01*
X218428815Y-108657276D01*
X218433552Y-108653388D01*
X218437451Y-108648637D01*
X218441640Y-108644447D01*
X218444918Y-108639539D01*
X218449098Y-108634446D01*
X218452216Y-108628613D01*
X218455250Y-108624070D01*
X218457333Y-108619039D01*
X218460649Y-108612835D01*
X218462697Y-108606083D01*
X218464624Y-108601429D01*
X218465116Y-108598108D01*
X218467762Y-108589386D01*
X218468435Y-108575721D01*
X218470000Y-108565164D01*
X218470000Y-108565000D01*
X218468963Y-108565000D01*
X218469045Y-108563331D01*
X218470000Y-108563331D01*
X218470000Y-108072811D01*
X218475065Y-108021391D01*
X218484688Y-107989668D01*
X218495079Y-107955413D01*
X218495080Y-107955411D01*
X218495081Y-107955408D01*
X218527578Y-107894609D01*
X218571316Y-107841315D01*
X218624610Y-107797577D01*
X218685409Y-107765080D01*
X218685412Y-107765079D01*
X218685414Y-107765078D01*
X218751389Y-107745065D01*
X218751390Y-107745065D01*
X218751393Y-107745064D01*
X218820000Y-107738307D01*
X218888608Y-107745064D01*
X218888611Y-107745065D01*
X218888612Y-107745065D01*
X218954587Y-107765078D01*
X218954589Y-107765079D01*
X218954592Y-107765080D01*
X219011076Y-107795271D01*
X219033715Y-107804649D01*
X219057748Y-107809429D01*
X219082252Y-107809429D01*
X219106286Y-107804648D01*
X219128924Y-107795272D01*
X219161734Y-107777735D01*
X219185414Y-107765078D01*
X219251389Y-107745065D01*
X219251390Y-107745065D01*
X219251393Y-107745064D01*
X219320000Y-107738307D01*
X219388608Y-107745064D01*
X219388611Y-107745065D01*
X219388612Y-107745065D01*
X219454587Y-107765078D01*
X219454589Y-107765079D01*
X219454592Y-107765080D01*
X219511076Y-107795271D01*
X219533715Y-107804649D01*
X219557748Y-107809429D01*
X219582252Y-107809429D01*
X219606286Y-107804648D01*
X219628924Y-107795272D01*
X219661734Y-107777735D01*
X219685414Y-107765078D01*
X219751389Y-107745065D01*
X219751390Y-107745065D01*
X219751393Y-107745064D01*
X219820000Y-107738307D01*
X219888608Y-107745064D01*
X219888611Y-107745065D01*
X219888612Y-107745065D01*
X219954587Y-107765078D01*
X219954589Y-107765079D01*
X219954592Y-107765080D01*
X220011076Y-107795271D01*
X220033715Y-107804649D01*
X220057748Y-107809429D01*
X220082252Y-107809429D01*
X220106286Y-107804648D01*
X220128924Y-107795272D01*
X220161734Y-107777735D01*
X220185414Y-107765078D01*
X220251389Y-107745065D01*
X220251390Y-107745065D01*
X220251393Y-107745064D01*
X220320000Y-107738307D01*
X220388608Y-107745064D01*
X220388608Y-107745064D01*
G37*
G36*
X217065000Y-110910000D02*
X215415000Y-110910000D01*
X215415000Y-109510000D01*
X217065000Y-109510000D01*
X217065000Y-110910000D01*
X217065000Y-110910000D01*
G37*
G36*
X192383497Y-109263497D02*
X192436153Y-109279470D01*
X192484665Y-109305400D01*
X192527196Y-109340304D01*
X192562100Y-109382835D01*
X192588030Y-109431347D01*
X192604003Y-109484003D01*
X192610000Y-109544890D01*
X192610000Y-110345110D01*
X192604003Y-110405997D01*
X192588030Y-110458653D01*
X192562100Y-110507165D01*
X192527196Y-110549696D01*
X192484665Y-110584600D01*
X192436153Y-110610530D01*
X192383497Y-110626503D01*
X192322610Y-110632500D01*
X191097390Y-110632500D01*
X191036503Y-110626503D01*
X190983847Y-110610530D01*
X190935335Y-110584600D01*
X190892804Y-110549696D01*
X190857900Y-110507165D01*
X190831970Y-110458653D01*
X190815997Y-110405997D01*
X190810000Y-110345110D01*
X190810000Y-109544890D01*
X190815997Y-109484003D01*
X190831970Y-109431347D01*
X190857900Y-109382835D01*
X190892804Y-109340304D01*
X190935335Y-109305400D01*
X190983847Y-109279470D01*
X191036503Y-109263497D01*
X191097390Y-109257500D01*
X192322610Y-109257500D01*
X192383497Y-109263497D01*
X192383497Y-109263497D01*
G37*
G36*
X200154183Y-107446900D02*
X200281574Y-107499668D01*
X200396224Y-107576274D01*
X200493726Y-107673776D01*
X200554732Y-107765079D01*
X200570332Y-107788426D01*
X200623100Y-107915817D01*
X200650000Y-108051055D01*
X200650000Y-108188945D01*
X200623100Y-108324183D01*
X200570332Y-108451574D01*
X200493726Y-108566224D01*
X200396224Y-108663726D01*
X200340371Y-108701045D01*
X200321432Y-108716589D01*
X200305886Y-108735531D01*
X200294335Y-108757142D01*
X200287222Y-108780591D01*
X200284820Y-108804977D01*
X200287222Y-108829363D01*
X200294335Y-108852813D01*
X200305886Y-108874423D01*
X200321432Y-108893365D01*
X200340373Y-108908910D01*
X200370375Y-108928957D01*
X200426224Y-108966274D01*
X200523726Y-109063776D01*
X200553684Y-109108612D01*
X200600332Y-109178426D01*
X200653100Y-109305817D01*
X200680000Y-109441055D01*
X200680000Y-109578945D01*
X200653100Y-109714183D01*
X200604123Y-109832422D01*
X200600332Y-109841574D01*
X200523726Y-109956224D01*
X200426224Y-110053726D01*
X200311574Y-110130332D01*
X200184183Y-110183100D01*
X200048945Y-110210000D01*
X199911055Y-110210000D01*
X199775817Y-110183100D01*
X199648426Y-110130332D01*
X199533776Y-110053726D01*
X199436274Y-109956224D01*
X199359668Y-109841574D01*
X199355877Y-109832422D01*
X199306900Y-109714183D01*
X199280000Y-109578945D01*
X199280000Y-109441055D01*
X199306900Y-109305817D01*
X199359668Y-109178426D01*
X199406316Y-109108612D01*
X199436274Y-109063776D01*
X199533776Y-108966274D01*
X199589629Y-108928955D01*
X199608568Y-108913411D01*
X199624114Y-108894469D01*
X199635665Y-108872858D01*
X199642778Y-108849409D01*
X199645180Y-108825023D01*
X199642778Y-108800637D01*
X199635665Y-108777187D01*
X199624114Y-108755577D01*
X199608568Y-108736635D01*
X199589627Y-108721090D01*
X199525157Y-108678012D01*
X199503776Y-108663726D01*
X199406274Y-108566224D01*
X199329668Y-108451574D01*
X199276900Y-108324183D01*
X199250000Y-108188945D01*
X199250000Y-108051055D01*
X199276900Y-107915817D01*
X199329668Y-107788426D01*
X199345268Y-107765079D01*
X199406274Y-107673776D01*
X199503776Y-107576274D01*
X199618426Y-107499668D01*
X199745817Y-107446900D01*
X199881055Y-107420000D01*
X200018945Y-107420000D01*
X200154183Y-107446900D01*
X200154183Y-107446900D01*
G37*
G36*
X211740000Y-109735000D02*
X210340000Y-109735000D01*
X210340000Y-108085000D01*
X211740000Y-108085000D01*
X211740000Y-109735000D01*
X211740000Y-109735000D01*
G37*
G36*
X209740000Y-109735000D02*
X208340000Y-109735000D01*
X208340000Y-108085000D01*
X209740000Y-108085000D01*
X209740000Y-109735000D01*
X209740000Y-109735000D01*
G37*
G36*
X214945000Y-109630000D02*
X213295000Y-109630000D01*
X213295000Y-108230000D01*
X214945000Y-108230000D01*
X214945000Y-109630000D01*
X214945000Y-109630000D01*
G37*
G36*
X205640000Y-105315000D02*
X205642402Y-105339386D01*
X205649515Y-105362835D01*
X205661066Y-105384446D01*
X205676612Y-105403388D01*
X205695554Y-105418934D01*
X205717165Y-105430485D01*
X205740614Y-105437598D01*
X205765000Y-105440000D01*
X206615000Y-105440000D01*
X206615000Y-108640000D01*
X205765000Y-108640000D01*
X205740614Y-108642402D01*
X205717165Y-108649515D01*
X205695554Y-108661066D01*
X205676612Y-108676612D01*
X205661066Y-108695554D01*
X205649515Y-108717165D01*
X205642402Y-108740614D01*
X205640000Y-108765000D01*
X205640000Y-109615000D01*
X202440000Y-109615000D01*
X202440000Y-108765000D01*
X202437598Y-108740614D01*
X202430485Y-108717165D01*
X202418934Y-108695554D01*
X202403388Y-108676612D01*
X202384446Y-108661066D01*
X202362835Y-108649515D01*
X202339386Y-108642402D01*
X202315000Y-108640000D01*
X201465000Y-108640000D01*
X201465000Y-105440000D01*
X202315000Y-105440000D01*
X202339386Y-105437598D01*
X202362835Y-105430485D01*
X202384446Y-105418934D01*
X202403388Y-105403388D01*
X202418934Y-105384446D01*
X202430485Y-105362835D01*
X202437598Y-105339386D01*
X202440000Y-105315000D01*
X202440000Y-104465000D01*
X205640000Y-104465000D01*
X205640000Y-105315000D01*
X205640000Y-105315000D01*
G37*
G36*
X225390000Y-109390000D02*
X224090000Y-109390000D01*
X224090000Y-108490000D01*
X225390000Y-108490000D01*
X225390000Y-109390000D01*
X225390000Y-109390000D01*
G37*
G36*
X223790000Y-109390000D02*
X222490000Y-109390000D01*
X222490000Y-108490000D01*
X223790000Y-108490000D01*
X223790000Y-109390000D01*
X223790000Y-109390000D01*
G37*
G36*
X189084183Y-106536900D02*
X189211574Y-106589668D01*
X189326225Y-106666275D01*
X189423725Y-106763775D01*
X189500332Y-106878426D01*
X189553100Y-107005817D01*
X189580000Y-107141055D01*
X189580000Y-107278945D01*
X189553100Y-107414183D01*
X189517690Y-107499668D01*
X189500332Y-107541574D01*
X189423726Y-107656224D01*
X189326224Y-107753726D01*
X189262888Y-107796045D01*
X189243949Y-107811589D01*
X189228403Y-107830531D01*
X189216852Y-107852142D01*
X189209739Y-107875591D01*
X189207337Y-107899977D01*
X189209739Y-107924363D01*
X189216852Y-107947813D01*
X189228403Y-107969423D01*
X189243949Y-107988365D01*
X189262890Y-108003910D01*
X189289053Y-108021392D01*
X189356224Y-108066274D01*
X189453726Y-108163776D01*
X189470543Y-108188945D01*
X189530332Y-108278426D01*
X189583100Y-108405817D01*
X189610000Y-108541055D01*
X189610000Y-108678945D01*
X189583100Y-108814183D01*
X189535558Y-108928957D01*
X189530332Y-108941574D01*
X189453726Y-109056224D01*
X189356224Y-109153726D01*
X189294355Y-109195065D01*
X189241574Y-109230332D01*
X189114183Y-109283100D01*
X188978945Y-109310000D01*
X188841055Y-109310000D01*
X188705817Y-109283100D01*
X188578426Y-109230332D01*
X188525645Y-109195065D01*
X188463776Y-109153726D01*
X188366274Y-109056224D01*
X188289668Y-108941574D01*
X188284442Y-108928957D01*
X188236900Y-108814183D01*
X188210000Y-108678945D01*
X188210000Y-108541055D01*
X188236900Y-108405817D01*
X188289668Y-108278426D01*
X188349457Y-108188945D01*
X188366274Y-108163776D01*
X188463776Y-108066274D01*
X188527112Y-108023955D01*
X188546051Y-108008411D01*
X188561597Y-107989469D01*
X188573148Y-107967858D01*
X188580261Y-107944409D01*
X188582663Y-107920023D01*
X188580261Y-107895637D01*
X188573148Y-107872187D01*
X188561597Y-107850577D01*
X188546051Y-107831635D01*
X188527110Y-107816090D01*
X188433775Y-107753725D01*
X188336275Y-107656225D01*
X188259668Y-107541574D01*
X188206900Y-107414183D01*
X188180000Y-107278945D01*
X188180000Y-107141055D01*
X188206900Y-107005817D01*
X188259668Y-106878426D01*
X188336275Y-106763775D01*
X188433775Y-106666275D01*
X188548426Y-106589668D01*
X188675817Y-106536900D01*
X188811055Y-106510000D01*
X188948945Y-106510000D01*
X189084183Y-106536900D01*
X189084183Y-106536900D01*
G37*
G36*
X231470000Y-108570000D02*
X229570000Y-108570000D01*
X229570000Y-105670000D01*
X231470000Y-105670000D01*
X231470000Y-108570000D01*
X231470000Y-108570000D01*
G37*
G36*
X225390000Y-107890000D02*
X224090000Y-107890000D01*
X224090000Y-106990000D01*
X225390000Y-106990000D01*
X225390000Y-107890000D01*
X225390000Y-107890000D01*
G37*
G36*
X223790000Y-107890000D02*
X222490000Y-107890000D01*
X222490000Y-106990000D01*
X223790000Y-106990000D01*
X223790000Y-107890000D01*
X223790000Y-107890000D01*
G37*
G36*
X213005000Y-107630000D02*
X211355000Y-107630000D01*
X211355000Y-106230000D01*
X213005000Y-106230000D01*
X213005000Y-107630000D01*
X213005000Y-107630000D01*
G37*
G36*
X211025000Y-107630000D02*
X209375000Y-107630000D01*
X209375000Y-106230000D01*
X211025000Y-106230000D01*
X211025000Y-107630000D01*
X211025000Y-107630000D01*
G37*
G36*
X209035000Y-107630000D02*
X207385000Y-107630000D01*
X207385000Y-106230000D01*
X209035000Y-106230000D01*
X209035000Y-107630000D01*
X209035000Y-107630000D01*
G37*
G36*
X214945000Y-107630000D02*
X213295000Y-107630000D01*
X213295000Y-106230000D01*
X214945000Y-106230000D01*
X214945000Y-107630000D01*
X214945000Y-107630000D01*
G37*
G36*
X218920000Y-107165000D02*
X217720000Y-107165000D01*
X217720000Y-106015000D01*
X218920000Y-106015000D01*
X218920000Y-107165000D01*
X218920000Y-107165000D01*
G37*
G36*
X220420000Y-107165000D02*
X219220000Y-107165000D01*
X219220000Y-106015000D01*
X220420000Y-106015000D01*
X220420000Y-107165000D01*
X220420000Y-107165000D01*
G37*
G36*
X190970000Y-106140000D02*
X188070000Y-106140000D01*
X188070000Y-104240000D01*
X190970000Y-104240000D01*
X190970000Y-106140000D01*
X190970000Y-106140000D01*
G37*
G36*
X199925000Y-106070000D02*
X198275000Y-106070000D01*
X198275000Y-104670000D01*
X199925000Y-104670000D01*
X199925000Y-106070000D01*
X199925000Y-106070000D01*
G37*
G36*
X213005000Y-105630000D02*
X211355000Y-105630000D01*
X211355000Y-104230000D01*
X213005000Y-104230000D01*
X213005000Y-105630000D01*
X213005000Y-105630000D01*
G37*
G36*
X209035000Y-105630000D02*
X207385000Y-105630000D01*
X207385000Y-104230000D01*
X209035000Y-104230000D01*
X209035000Y-105630000D01*
X209035000Y-105630000D01*
G37*
G36*
X211025000Y-105630000D02*
X209375000Y-105630000D01*
X209375000Y-104230000D01*
X211025000Y-104230000D01*
X211025000Y-105630000D01*
X211025000Y-105630000D01*
G37*
G36*
X220890000Y-105320000D02*
X219290000Y-105320000D01*
X219290000Y-101220000D01*
X220890000Y-101220000D01*
X220890000Y-105320000D01*
X220890000Y-105320000D01*
G37*
G36*
X223690000Y-105320000D02*
X222090000Y-105320000D01*
X222090000Y-101220000D01*
X223690000Y-101220000D01*
X223690000Y-105320000D01*
X223690000Y-105320000D01*
G37*
G36*
X225722165Y-103130485D02*
X225745614Y-103137598D01*
X225770000Y-103140000D01*
X229045000Y-103140000D01*
X229045000Y-104540000D01*
X225618742Y-104540000D01*
X225617835Y-104539515D01*
X225594386Y-104532402D01*
X225570000Y-104530000D01*
X223995000Y-104530000D01*
X223995000Y-103130000D01*
X225721258Y-103130000D01*
X225722165Y-103130485D01*
X225722165Y-103130485D01*
G37*
G36*
X199925000Y-104070000D02*
X198275000Y-104070000D01*
X198275000Y-102670000D01*
X199925000Y-102670000D01*
X199925000Y-104070000D01*
X199925000Y-104070000D01*
G37*
G36*
X190990000Y-103190000D02*
X188090000Y-103190000D01*
X188090000Y-101290000D01*
X190990000Y-101290000D01*
X190990000Y-103190000D01*
X190990000Y-103190000D01*
G37*
G36*
X202775000Y-102820000D02*
X201625000Y-102820000D01*
X201625000Y-101620000D01*
X202775000Y-101620000D01*
X202775000Y-102820000D01*
X202775000Y-102820000D01*
G37*
G36*
X204475000Y-102810000D02*
X203325000Y-102810000D01*
X203325000Y-101610000D01*
X204475000Y-101610000D01*
X204475000Y-102810000D01*
X204475000Y-102810000D01*
G37*
G36*
X231460000Y-102550000D02*
X229560000Y-102550000D01*
X229560000Y-99650000D01*
X231460000Y-99650000D01*
X231460000Y-102550000D01*
X231460000Y-102550000D01*
G37*
G36*
X225722165Y-101130485D02*
X225745614Y-101137598D01*
X225770000Y-101140000D01*
X229045000Y-101140000D01*
X229045000Y-102540000D01*
X225618742Y-102540000D01*
X225617835Y-102539515D01*
X225594386Y-102532402D01*
X225570000Y-102530000D01*
X223995000Y-102530000D01*
X223995000Y-101130000D01*
X225721258Y-101130000D01*
X225722165Y-101130485D01*
X225722165Y-101130485D01*
G37*
G36*
X199110000Y-100420000D02*
X198665000Y-100420000D01*
X198640614Y-100422402D01*
X198617165Y-100429515D01*
X198595554Y-100441066D01*
X198576612Y-100456612D01*
X198561066Y-100475554D01*
X198549515Y-100497165D01*
X198542402Y-100520614D01*
X198540000Y-100545000D01*
X198540000Y-101940000D01*
X197640000Y-101940000D01*
X197640000Y-100640000D01*
X197785000Y-100640000D01*
X197809386Y-100637598D01*
X197832835Y-100630485D01*
X197854446Y-100618934D01*
X197873388Y-100603388D01*
X197888934Y-100584446D01*
X197900485Y-100562835D01*
X197907598Y-100539386D01*
X197910000Y-100515000D01*
X197910000Y-99120000D01*
X199110000Y-99120000D01*
X199110000Y-100420000D01*
X199110000Y-100420000D01*
G37*
G36*
X197210000Y-100420000D02*
X197165000Y-100420000D01*
X197140614Y-100422402D01*
X197117165Y-100429515D01*
X197095554Y-100441066D01*
X197076612Y-100456612D01*
X197061066Y-100475554D01*
X197049515Y-100497165D01*
X197042402Y-100520614D01*
X197040000Y-100545000D01*
X197040000Y-101940000D01*
X196140000Y-101940000D01*
X196140000Y-100545000D01*
X196137598Y-100520614D01*
X196130485Y-100497165D01*
X196118934Y-100475554D01*
X196103388Y-100456612D01*
X196084446Y-100441066D01*
X196062835Y-100429515D01*
X196039386Y-100422402D01*
X196015000Y-100420000D01*
X196010000Y-100420000D01*
X196010000Y-99120000D01*
X197210000Y-99120000D01*
X197210000Y-100420000D01*
X197210000Y-100420000D01*
G37*
G36*
X193520000Y-100410000D02*
X193495000Y-100410000D01*
X193470614Y-100412402D01*
X193447165Y-100419515D01*
X193425554Y-100431066D01*
X193406612Y-100446612D01*
X193391066Y-100465554D01*
X193379515Y-100487165D01*
X193372402Y-100510614D01*
X193370000Y-100535000D01*
X193370000Y-101920000D01*
X192470000Y-101920000D01*
X192470000Y-100535000D01*
X192467598Y-100510614D01*
X192460485Y-100487165D01*
X192448934Y-100465554D01*
X192433388Y-100446612D01*
X192414446Y-100431066D01*
X192392835Y-100419515D01*
X192369386Y-100412402D01*
X192345000Y-100410000D01*
X192320000Y-100410000D01*
X192320000Y-99110000D01*
X193520000Y-99110000D01*
X193520000Y-100410000D01*
X193520000Y-100410000D01*
G37*
G36*
X195420000Y-100410000D02*
X194995000Y-100410000D01*
X194970614Y-100412402D01*
X194947165Y-100419515D01*
X194925554Y-100431066D01*
X194906612Y-100446612D01*
X194891066Y-100465554D01*
X194879515Y-100487165D01*
X194872402Y-100510614D01*
X194870000Y-100535000D01*
X194870000Y-101920000D01*
X193970000Y-101920000D01*
X193970000Y-100620000D01*
X194095000Y-100620000D01*
X194119386Y-100617598D01*
X194142835Y-100610485D01*
X194164446Y-100598934D01*
X194183388Y-100583388D01*
X194198934Y-100564446D01*
X194210485Y-100542835D01*
X194217598Y-100519386D01*
X194220000Y-100495000D01*
X194220000Y-99110000D01*
X195420000Y-99110000D01*
X195420000Y-100410000D01*
X195420000Y-100410000D01*
G37*
G36*
X208545000Y-101870000D02*
X205795000Y-101870000D01*
X205795000Y-98070000D01*
X208545000Y-98070000D01*
X208545000Y-101870000D01*
X208545000Y-101870000D01*
G37*
G36*
X214645000Y-101870000D02*
X211895000Y-101870000D01*
X211895000Y-98070000D01*
X214645000Y-98070000D01*
X214645000Y-101870000D01*
X214645000Y-101870000D01*
G37*
G36*
X202775000Y-101320000D02*
X201625000Y-101320000D01*
X201625000Y-100120000D01*
X202775000Y-100120000D01*
X202775000Y-101320000D01*
X202775000Y-101320000D01*
G37*
G36*
X204475000Y-101310000D02*
X203325000Y-101310000D01*
X203325000Y-100110000D01*
X204475000Y-100110000D01*
X204475000Y-101310000D01*
X204475000Y-101310000D01*
G37*
G36*
X221325000Y-100720000D02*
X219675000Y-100720000D01*
X219675000Y-99320000D01*
X221325000Y-99320000D01*
X221325000Y-100720000D01*
X221325000Y-100720000D01*
G37*
G36*
X225240000Y-97390000D02*
X225242402Y-97414386D01*
X225249515Y-97437835D01*
X225261066Y-97459446D01*
X225276612Y-97478388D01*
X225295554Y-97493934D01*
X225300000Y-97496310D01*
X225300000Y-97825000D01*
X225302402Y-97849386D01*
X225309515Y-97872835D01*
X225321066Y-97894446D01*
X225336612Y-97913388D01*
X225355554Y-97928934D01*
X225377165Y-97940485D01*
X225400614Y-97947598D01*
X225425000Y-97950000D01*
X226000000Y-97950000D01*
X226000000Y-99130000D01*
X225425000Y-99130000D01*
X225400614Y-99132402D01*
X225377165Y-99139515D01*
X225355554Y-99151066D01*
X225336612Y-99166612D01*
X225321066Y-99185554D01*
X225309515Y-99207165D01*
X225302402Y-99230614D01*
X225300000Y-99255000D01*
X225300000Y-99583690D01*
X225295554Y-99586066D01*
X225276612Y-99601612D01*
X225261066Y-99620554D01*
X225249515Y-99642165D01*
X225242402Y-99665614D01*
X225240000Y-99690000D01*
X225240000Y-100640000D01*
X222560000Y-100640000D01*
X222560000Y-99690000D01*
X222557598Y-99665614D01*
X222550485Y-99642165D01*
X222538934Y-99620554D01*
X222523388Y-99601612D01*
X222504446Y-99586066D01*
X222500000Y-99583690D01*
X222500000Y-99255000D01*
X222497598Y-99230614D01*
X222490485Y-99207165D01*
X222478934Y-99185554D01*
X222463388Y-99166612D01*
X222444446Y-99151066D01*
X222422835Y-99139515D01*
X222399386Y-99132402D01*
X222375000Y-99130000D01*
X221800000Y-99130000D01*
X221800000Y-97950000D01*
X222375000Y-97950000D01*
X222399386Y-97947598D01*
X222422835Y-97940485D01*
X222444446Y-97928934D01*
X222463388Y-97913388D01*
X222478934Y-97894446D01*
X222490485Y-97872835D01*
X222497598Y-97849386D01*
X222500000Y-97825000D01*
X222500000Y-97496310D01*
X222504446Y-97493934D01*
X222523388Y-97478388D01*
X222538934Y-97459446D01*
X222550485Y-97437835D01*
X222557598Y-97414386D01*
X222560000Y-97390000D01*
X222560000Y-96440000D01*
X225240000Y-96440000D01*
X225240000Y-97390000D01*
X225240000Y-97390000D01*
G37*
G36*
X191710000Y-100400000D02*
X190510000Y-100400000D01*
X190510000Y-99100000D01*
X191710000Y-99100000D01*
X191710000Y-100400000D01*
X191710000Y-100400000D01*
G37*
G36*
X189810000Y-100400000D02*
X188610000Y-100400000D01*
X188610000Y-99100000D01*
X189810000Y-99100000D01*
X189810000Y-100400000D01*
X189810000Y-100400000D01*
G37*
G36*
X231470000Y-98770000D02*
X229570000Y-98770000D01*
X229570000Y-95870000D01*
X231470000Y-95870000D01*
X231470000Y-98770000D01*
X231470000Y-98770000D01*
G37*
G36*
X221325000Y-98720000D02*
X219675000Y-98720000D01*
X219675000Y-97320000D01*
X221325000Y-97320000D01*
X221325000Y-98720000D01*
X221325000Y-98720000D01*
G37*
G36*
X198160000Y-98420000D02*
X196960000Y-98420000D01*
X196960000Y-97120000D01*
X198160000Y-97120000D01*
X198160000Y-98420000D01*
X198160000Y-98420000D01*
G37*
G36*
X194470000Y-98410000D02*
X193270000Y-98410000D01*
X193270000Y-97110000D01*
X194470000Y-97110000D01*
X194470000Y-98410000D01*
X194470000Y-98410000D01*
G37*
G36*
X190760000Y-98400000D02*
X189560000Y-98400000D01*
X189560000Y-97100000D01*
X190760000Y-97100000D01*
X190760000Y-98400000D01*
X190760000Y-98400000D01*
G37*
G36*
X194430000Y-96840000D02*
X191590000Y-96840000D01*
X191590000Y-95940000D01*
X194430000Y-95940000D01*
X194430000Y-96840000D01*
X194430000Y-96840000D01*
G37*
G36*
X191330000Y-96820000D02*
X188490000Y-96820000D01*
X188490000Y-95920000D01*
X191330000Y-95920000D01*
X191330000Y-96820000D01*
X191330000Y-96820000D01*
G37*
G36*
X215130000Y-95835000D02*
X213930000Y-95835000D01*
X213930000Y-94685000D01*
X215130000Y-94685000D01*
X215130000Y-95835000D01*
X215130000Y-95835000D01*
G37*
G36*
X201390000Y-95835000D02*
X200190000Y-95835000D01*
X200190000Y-94685000D01*
X201390000Y-94685000D01*
X201390000Y-95835000D01*
X201390000Y-95835000D01*
G37*
G36*
X202890000Y-95835000D02*
X201690000Y-95835000D01*
X201690000Y-94685000D01*
X202890000Y-94685000D01*
X202890000Y-95835000D01*
X202890000Y-95835000D01*
G37*
G36*
X213630000Y-95835000D02*
X212430000Y-95835000D01*
X212430000Y-94685000D01*
X213630000Y-94685000D01*
X213630000Y-95835000D01*
X213630000Y-95835000D01*
G37*
G36*
X227120000Y-95825000D02*
X225920000Y-95825000D01*
X225920000Y-94675000D01*
X227120000Y-94675000D01*
X227120000Y-95825000D01*
X227120000Y-95825000D01*
G37*
G36*
X225620000Y-95825000D02*
X224420000Y-95825000D01*
X224420000Y-94675000D01*
X225620000Y-94675000D01*
X225620000Y-95825000D01*
X225620000Y-95825000D01*
G37*
G36*
X194430000Y-95340000D02*
X191590000Y-95340000D01*
X191590000Y-94440000D01*
X194430000Y-94440000D01*
X194430000Y-95340000D01*
X194430000Y-95340000D01*
G37*
G36*
X191330000Y-95320000D02*
X188490000Y-95320000D01*
X188490000Y-94420000D01*
X191330000Y-94420000D01*
X191330000Y-95320000D01*
X191330000Y-95320000D01*
G37*
G36*
X210500000Y-95070000D02*
X209200000Y-95070000D01*
X209200000Y-94170000D01*
X210500000Y-94170000D01*
X210500000Y-95070000D01*
X210500000Y-95070000D01*
G37*
G36*
X208820000Y-95070000D02*
X207520000Y-95070000D01*
X207520000Y-94170000D01*
X208820000Y-94170000D01*
X208820000Y-95070000D01*
X208820000Y-95070000D01*
G37*
G36*
X198240000Y-95060000D02*
X196940000Y-95060000D01*
X196940000Y-94160000D01*
X198240000Y-94160000D01*
X198240000Y-95060000D01*
X198240000Y-95060000D01*
G37*
G36*
X196580000Y-95060000D02*
X195280000Y-95060000D01*
X195280000Y-94160000D01*
X196580000Y-94160000D01*
X196580000Y-95060000D01*
X196580000Y-95060000D01*
G37*
G36*
X220595000Y-95005000D02*
X219295000Y-95005000D01*
X219295000Y-94105000D01*
X220595000Y-94105000D01*
X220595000Y-95005000D01*
X220595000Y-95005000D01*
G37*
G36*
X222215000Y-95005000D02*
X220915000Y-95005000D01*
X220915000Y-94105000D01*
X222215000Y-94105000D01*
X222215000Y-95005000D01*
X222215000Y-95005000D01*
G37*
G36*
X201848607Y-90115064D02*
X201848610Y-90115065D01*
X201848611Y-90115065D01*
X201914586Y-90135078D01*
X201923794Y-90140000D01*
X201975394Y-90167580D01*
X202028685Y-90211315D01*
X202072423Y-90264609D01*
X202104920Y-90325408D01*
X202104921Y-90325411D01*
X202104922Y-90325413D01*
X202121902Y-90381389D01*
X202124936Y-90391392D01*
X202130000Y-90442808D01*
X202130000Y-90933332D01*
X202130438Y-90933332D01*
X202130438Y-90935000D01*
X202130000Y-90935000D01*
X202130000Y-90935164D01*
X202130439Y-90939618D01*
X202130440Y-90947273D01*
X202131930Y-90954755D01*
X202132402Y-90959550D01*
X202133806Y-90964178D01*
X202135225Y-90971306D01*
X202137997Y-90977996D01*
X202139515Y-90982999D01*
X202141988Y-90987626D01*
X202144606Y-90993943D01*
X202148392Y-90999607D01*
X202151066Y-91004610D01*
X202154677Y-91009009D01*
X202158223Y-91014315D01*
X202162724Y-91018815D01*
X202166612Y-91023552D01*
X202171363Y-91027451D01*
X202175553Y-91031640D01*
X202180461Y-91034918D01*
X202185554Y-91039098D01*
X202191387Y-91042216D01*
X202195930Y-91045250D01*
X202200961Y-91047333D01*
X202207165Y-91050649D01*
X202213917Y-91052697D01*
X202218571Y-91054624D01*
X202221892Y-91055116D01*
X202230614Y-91057762D01*
X202244274Y-91058434D01*
X202254836Y-91060000D01*
X202255000Y-91060000D01*
X202255000Y-91058962D01*
X202256668Y-91059044D01*
X202256668Y-91060000D01*
X202747192Y-91060000D01*
X202798608Y-91065064D01*
X202798611Y-91065065D01*
X202798612Y-91065065D01*
X202864587Y-91085078D01*
X202864589Y-91085079D01*
X202864592Y-91085080D01*
X202925391Y-91117577D01*
X202978685Y-91161315D01*
X203022423Y-91214609D01*
X203054920Y-91275408D01*
X203054921Y-91275411D01*
X203054922Y-91275413D01*
X203071903Y-91331392D01*
X203074936Y-91341392D01*
X203081693Y-91410000D01*
X203074936Y-91478608D01*
X203074935Y-91478611D01*
X203074935Y-91478612D01*
X203057954Y-91534592D01*
X203054920Y-91544592D01*
X203024729Y-91601076D01*
X203015351Y-91623715D01*
X203010571Y-91647748D01*
X203010571Y-91672252D01*
X203015352Y-91696286D01*
X203024729Y-91718924D01*
X203054920Y-91775408D01*
X203054921Y-91775411D01*
X203054922Y-91775413D01*
X203074935Y-91841388D01*
X203074936Y-91841392D01*
X203081693Y-91910000D01*
X203074936Y-91978608D01*
X203074935Y-91978611D01*
X203074935Y-91978612D01*
X203057954Y-92034592D01*
X203054920Y-92044592D01*
X203024729Y-92101076D01*
X203015351Y-92123715D01*
X203010571Y-92147748D01*
X203010571Y-92172252D01*
X203015352Y-92196286D01*
X203024729Y-92218924D01*
X203054920Y-92275408D01*
X203054921Y-92275411D01*
X203054922Y-92275413D01*
X203071903Y-92331392D01*
X203074936Y-92341392D01*
X203081693Y-92410000D01*
X203074936Y-92478608D01*
X203074935Y-92478611D01*
X203074935Y-92478612D01*
X203057954Y-92534592D01*
X203054920Y-92544592D01*
X203024729Y-92601076D01*
X203015351Y-92623715D01*
X203010571Y-92647748D01*
X203010571Y-92672252D01*
X203015352Y-92696286D01*
X203024729Y-92718924D01*
X203054920Y-92775408D01*
X203054921Y-92775411D01*
X203054922Y-92775413D01*
X203071903Y-92831392D01*
X203074936Y-92841392D01*
X203081693Y-92910000D01*
X203074936Y-92978608D01*
X203074935Y-92978611D01*
X203074935Y-92978612D01*
X203057954Y-93034592D01*
X203054920Y-93044592D01*
X203022423Y-93105391D01*
X202978685Y-93158685D01*
X202925391Y-93202423D01*
X202864592Y-93234920D01*
X202864589Y-93234921D01*
X202864587Y-93234922D01*
X202798612Y-93254935D01*
X202798611Y-93254935D01*
X202798608Y-93254936D01*
X202747192Y-93260000D01*
X202256668Y-93260000D01*
X202256668Y-93260438D01*
X202255000Y-93260438D01*
X202255000Y-93260000D01*
X202254836Y-93260000D01*
X202250382Y-93260439D01*
X202242727Y-93260440D01*
X202235245Y-93261930D01*
X202230450Y-93262402D01*
X202225822Y-93263806D01*
X202218694Y-93265225D01*
X202212004Y-93267997D01*
X202207001Y-93269515D01*
X202202374Y-93271988D01*
X202196057Y-93274606D01*
X202190393Y-93278392D01*
X202185390Y-93281066D01*
X202180991Y-93284677D01*
X202175685Y-93288223D01*
X202171185Y-93292724D01*
X202166448Y-93296612D01*
X202162549Y-93301363D01*
X202158360Y-93305553D01*
X202155082Y-93310461D01*
X202150902Y-93315554D01*
X202147784Y-93321387D01*
X202144750Y-93325930D01*
X202142667Y-93330961D01*
X202139351Y-93337165D01*
X202137303Y-93343917D01*
X202135376Y-93348571D01*
X202134884Y-93351892D01*
X202132238Y-93360614D01*
X202131566Y-93374274D01*
X202130000Y-93384836D01*
X202130000Y-93385000D01*
X202131038Y-93385000D01*
X202130956Y-93386668D01*
X202130000Y-93386668D01*
X202130000Y-93877192D01*
X202124936Y-93928608D01*
X202124935Y-93928611D01*
X202124935Y-93928612D01*
X202107954Y-93984592D01*
X202104920Y-93994592D01*
X202072423Y-94055391D01*
X202028685Y-94108685D01*
X201975391Y-94152423D01*
X201914592Y-94184920D01*
X201914589Y-94184921D01*
X201914587Y-94184922D01*
X201848612Y-94204935D01*
X201848611Y-94204935D01*
X201848608Y-94204936D01*
X201780000Y-94211693D01*
X201711393Y-94204936D01*
X201711390Y-94204935D01*
X201711389Y-94204935D01*
X201645414Y-94184922D01*
X201645412Y-94184921D01*
X201645409Y-94184920D01*
X201588925Y-94154729D01*
X201566286Y-94145351D01*
X201542253Y-94140571D01*
X201517749Y-94140571D01*
X201493715Y-94145352D01*
X201471077Y-94154728D01*
X201461213Y-94160000D01*
X201414587Y-94184922D01*
X201348612Y-94204935D01*
X201348611Y-94204935D01*
X201348608Y-94204936D01*
X201280000Y-94211693D01*
X201211393Y-94204936D01*
X201211390Y-94204935D01*
X201211389Y-94204935D01*
X201145414Y-94184922D01*
X201145412Y-94184921D01*
X201145409Y-94184920D01*
X201088925Y-94154729D01*
X201066286Y-94145351D01*
X201042253Y-94140571D01*
X201017749Y-94140571D01*
X200993715Y-94145352D01*
X200971077Y-94154728D01*
X200961213Y-94160000D01*
X200914587Y-94184922D01*
X200848612Y-94204935D01*
X200848611Y-94204935D01*
X200848608Y-94204936D01*
X200780000Y-94211693D01*
X200711393Y-94204936D01*
X200711390Y-94204935D01*
X200711389Y-94204935D01*
X200645414Y-94184922D01*
X200645412Y-94184921D01*
X200645409Y-94184920D01*
X200588925Y-94154729D01*
X200566286Y-94145351D01*
X200542253Y-94140571D01*
X200517749Y-94140571D01*
X200493715Y-94145352D01*
X200471077Y-94154728D01*
X200461213Y-94160000D01*
X200414587Y-94184922D01*
X200348612Y-94204935D01*
X200348611Y-94204935D01*
X200348608Y-94204936D01*
X200280000Y-94211693D01*
X200211393Y-94204936D01*
X200211390Y-94204935D01*
X200211389Y-94204935D01*
X200145414Y-94184922D01*
X200145412Y-94184921D01*
X200145409Y-94184920D01*
X200084610Y-94152423D01*
X200031316Y-94108685D01*
X199987578Y-94055391D01*
X199955081Y-93994592D01*
X199935065Y-93928609D01*
X199930000Y-93877189D01*
X199930000Y-93386669D01*
X199929562Y-93386669D01*
X199929562Y-93385000D01*
X199930000Y-93385000D01*
X199930000Y-93384836D01*
X199929561Y-93380378D01*
X199929559Y-93372720D01*
X199928070Y-93365244D01*
X199927598Y-93360450D01*
X199926193Y-93355819D01*
X199924773Y-93348687D01*
X199922001Y-93341999D01*
X199920485Y-93337001D01*
X199918012Y-93332375D01*
X199915391Y-93326050D01*
X199911604Y-93320386D01*
X199908934Y-93315390D01*
X199905322Y-93310989D01*
X199901772Y-93305679D01*
X199897275Y-93301184D01*
X199893388Y-93296448D01*
X199888630Y-93292543D01*
X199884441Y-93288356D01*
X199879539Y-93285082D01*
X199874446Y-93280902D01*
X199868613Y-93277784D01*
X199864064Y-93274746D01*
X199859031Y-93272663D01*
X199852835Y-93269351D01*
X199846079Y-93267302D01*
X199841422Y-93265374D01*
X199838102Y-93264882D01*
X199829386Y-93262238D01*
X199815729Y-93261566D01*
X199805164Y-93260000D01*
X199805000Y-93260000D01*
X199805000Y-93261038D01*
X199803332Y-93260956D01*
X199803332Y-93260000D01*
X199312808Y-93260000D01*
X199261392Y-93254936D01*
X199261389Y-93254935D01*
X199261388Y-93254935D01*
X199195413Y-93234922D01*
X199195411Y-93234921D01*
X199195408Y-93234920D01*
X199134609Y-93202423D01*
X199081315Y-93158685D01*
X199037577Y-93105391D01*
X199005080Y-93044592D01*
X199002047Y-93034592D01*
X198985065Y-92978612D01*
X198985065Y-92978611D01*
X198985064Y-92978608D01*
X198978307Y-92910000D01*
X198985064Y-92841392D01*
X198988097Y-92831392D01*
X199005078Y-92775413D01*
X199005079Y-92775411D01*
X199005080Y-92775408D01*
X199035271Y-92718924D01*
X199044649Y-92696285D01*
X199049429Y-92672252D01*
X199049429Y-92647748D01*
X199044648Y-92623714D01*
X199035271Y-92601076D01*
X199005080Y-92544592D01*
X199002047Y-92534592D01*
X198985065Y-92478612D01*
X198985065Y-92478611D01*
X198985064Y-92478608D01*
X198978307Y-92410000D01*
X198985064Y-92341392D01*
X198988097Y-92331392D01*
X199005078Y-92275413D01*
X199005079Y-92275411D01*
X199005080Y-92275408D01*
X199035271Y-92218924D01*
X199044649Y-92196285D01*
X199049429Y-92172252D01*
X199049429Y-92147748D01*
X199044648Y-92123714D01*
X199035271Y-92101076D01*
X199005080Y-92044592D01*
X199002047Y-92034592D01*
X198985065Y-91978612D01*
X198985065Y-91978611D01*
X198985064Y-91978608D01*
X198978307Y-91910000D01*
X198985064Y-91841392D01*
X198985065Y-91841388D01*
X199005078Y-91775413D01*
X199005079Y-91775411D01*
X199005080Y-91775408D01*
X199035271Y-91718924D01*
X199044649Y-91696285D01*
X199049429Y-91672252D01*
X199049429Y-91647748D01*
X199044648Y-91623714D01*
X199035271Y-91601076D01*
X199005080Y-91544592D01*
X199002047Y-91534592D01*
X198985065Y-91478612D01*
X198985065Y-91478611D01*
X198985064Y-91478608D01*
X198978307Y-91410000D01*
X198985064Y-91341392D01*
X198988097Y-91331392D01*
X199005078Y-91275413D01*
X199005079Y-91275411D01*
X199005080Y-91275408D01*
X199037577Y-91214609D01*
X199081315Y-91161315D01*
X199134609Y-91117577D01*
X199195408Y-91085080D01*
X199195411Y-91085079D01*
X199195413Y-91085078D01*
X199261388Y-91065065D01*
X199261389Y-91065065D01*
X199261392Y-91065064D01*
X199312808Y-91060000D01*
X199803332Y-91060000D01*
X199803332Y-91059562D01*
X199805000Y-91059562D01*
X199805000Y-91060000D01*
X199805164Y-91060000D01*
X199809618Y-91059561D01*
X199817273Y-91059560D01*
X199824755Y-91058070D01*
X199829550Y-91057598D01*
X199834178Y-91056194D01*
X199841306Y-91054775D01*
X199847996Y-91052003D01*
X199852999Y-91050485D01*
X199857626Y-91048012D01*
X199863943Y-91045394D01*
X199869607Y-91041608D01*
X199874610Y-91038934D01*
X199879009Y-91035323D01*
X199884315Y-91031777D01*
X199888815Y-91027276D01*
X199893552Y-91023388D01*
X199897451Y-91018637D01*
X199901640Y-91014447D01*
X199904918Y-91009539D01*
X199909098Y-91004446D01*
X199912216Y-90998613D01*
X199915250Y-90994070D01*
X199917333Y-90989039D01*
X199920649Y-90982835D01*
X199922697Y-90976083D01*
X199924624Y-90971429D01*
X199925116Y-90968108D01*
X199927762Y-90959386D01*
X199928434Y-90945726D01*
X199930000Y-90935164D01*
X199930000Y-90935000D01*
X199928962Y-90935000D01*
X199929044Y-90933332D01*
X199930000Y-90933332D01*
X199930000Y-90442809D01*
X199935064Y-90391393D01*
X199935065Y-90391389D01*
X199955078Y-90325414D01*
X199977213Y-90284002D01*
X199987580Y-90264606D01*
X200031315Y-90211315D01*
X200084609Y-90167577D01*
X200145408Y-90135080D01*
X200145411Y-90135079D01*
X200145413Y-90135078D01*
X200211388Y-90115065D01*
X200211389Y-90115065D01*
X200211392Y-90115064D01*
X200280000Y-90108307D01*
X200348607Y-90115064D01*
X200348610Y-90115065D01*
X200348611Y-90115065D01*
X200414586Y-90135078D01*
X200423794Y-90140000D01*
X200471076Y-90165272D01*
X200493715Y-90174649D01*
X200517749Y-90179429D01*
X200542253Y-90179429D01*
X200566287Y-90174648D01*
X200588924Y-90165271D01*
X200645408Y-90135080D01*
X200645411Y-90135079D01*
X200645413Y-90135078D01*
X200711388Y-90115065D01*
X200711389Y-90115065D01*
X200711392Y-90115064D01*
X200780000Y-90108307D01*
X200848607Y-90115064D01*
X200848610Y-90115065D01*
X200848611Y-90115065D01*
X200914586Y-90135078D01*
X200923794Y-90140000D01*
X200971076Y-90165272D01*
X200993715Y-90174649D01*
X201017749Y-90179429D01*
X201042253Y-90179429D01*
X201066287Y-90174648D01*
X201088924Y-90165271D01*
X201145408Y-90135080D01*
X201145411Y-90135079D01*
X201145413Y-90135078D01*
X201211388Y-90115065D01*
X201211389Y-90115065D01*
X201211392Y-90115064D01*
X201280000Y-90108307D01*
X201348607Y-90115064D01*
X201348610Y-90115065D01*
X201348611Y-90115065D01*
X201414586Y-90135078D01*
X201423794Y-90140000D01*
X201471076Y-90165272D01*
X201493715Y-90174649D01*
X201517749Y-90179429D01*
X201542253Y-90179429D01*
X201566287Y-90174648D01*
X201588924Y-90165271D01*
X201645408Y-90135080D01*
X201645411Y-90135079D01*
X201645413Y-90135078D01*
X201711388Y-90115065D01*
X201711389Y-90115065D01*
X201711392Y-90115064D01*
X201780000Y-90108307D01*
X201848607Y-90115064D01*
X201848607Y-90115064D01*
G37*
G36*
X214198607Y-90115064D02*
X214198610Y-90115065D01*
X214198611Y-90115065D01*
X214264586Y-90135078D01*
X214273794Y-90140000D01*
X214325394Y-90167580D01*
X214378685Y-90211315D01*
X214422423Y-90264609D01*
X214454920Y-90325408D01*
X214454921Y-90325411D01*
X214454922Y-90325413D01*
X214471902Y-90381389D01*
X214474936Y-90391392D01*
X214480000Y-90442808D01*
X214480000Y-90933332D01*
X214480438Y-90933332D01*
X214480438Y-90935000D01*
X214480000Y-90935000D01*
X214480000Y-90935164D01*
X214480439Y-90939618D01*
X214480440Y-90947273D01*
X214481930Y-90954755D01*
X214482402Y-90959550D01*
X214483806Y-90964178D01*
X214485225Y-90971306D01*
X214487997Y-90977996D01*
X214489515Y-90982999D01*
X214491988Y-90987626D01*
X214494606Y-90993943D01*
X214498392Y-90999607D01*
X214501066Y-91004610D01*
X214504677Y-91009009D01*
X214508223Y-91014315D01*
X214512724Y-91018815D01*
X214516612Y-91023552D01*
X214521363Y-91027451D01*
X214525553Y-91031640D01*
X214530461Y-91034918D01*
X214535554Y-91039098D01*
X214541387Y-91042216D01*
X214545930Y-91045250D01*
X214550961Y-91047333D01*
X214557165Y-91050649D01*
X214563917Y-91052697D01*
X214568571Y-91054624D01*
X214571892Y-91055116D01*
X214580614Y-91057762D01*
X214594274Y-91058434D01*
X214604836Y-91060000D01*
X214605000Y-91060000D01*
X214605000Y-91058962D01*
X214606668Y-91059044D01*
X214606668Y-91060000D01*
X215097192Y-91060000D01*
X215148608Y-91065064D01*
X215148611Y-91065065D01*
X215148612Y-91065065D01*
X215214587Y-91085078D01*
X215214589Y-91085079D01*
X215214592Y-91085080D01*
X215275391Y-91117577D01*
X215328685Y-91161315D01*
X215372423Y-91214609D01*
X215404920Y-91275408D01*
X215404921Y-91275411D01*
X215404922Y-91275413D01*
X215421903Y-91331392D01*
X215424936Y-91341392D01*
X215431693Y-91410000D01*
X215424936Y-91478608D01*
X215424935Y-91478611D01*
X215424935Y-91478612D01*
X215407954Y-91534592D01*
X215404920Y-91544592D01*
X215374729Y-91601076D01*
X215365351Y-91623715D01*
X215360571Y-91647748D01*
X215360571Y-91672252D01*
X215365352Y-91696286D01*
X215374729Y-91718924D01*
X215404920Y-91775408D01*
X215404921Y-91775411D01*
X215404922Y-91775413D01*
X215424935Y-91841388D01*
X215424936Y-91841392D01*
X215431693Y-91910000D01*
X215424936Y-91978608D01*
X215424935Y-91978611D01*
X215424935Y-91978612D01*
X215407954Y-92034592D01*
X215404920Y-92044592D01*
X215374729Y-92101076D01*
X215365351Y-92123715D01*
X215360571Y-92147748D01*
X215360571Y-92172252D01*
X215365352Y-92196286D01*
X215374729Y-92218924D01*
X215404920Y-92275408D01*
X215404921Y-92275411D01*
X215404922Y-92275413D01*
X215421903Y-92331392D01*
X215424936Y-92341392D01*
X215431693Y-92410000D01*
X215424936Y-92478608D01*
X215424935Y-92478611D01*
X215424935Y-92478612D01*
X215407954Y-92534592D01*
X215404920Y-92544592D01*
X215374729Y-92601076D01*
X215365351Y-92623715D01*
X215360571Y-92647748D01*
X215360571Y-92672252D01*
X215365352Y-92696286D01*
X215374729Y-92718924D01*
X215404920Y-92775408D01*
X215404921Y-92775411D01*
X215404922Y-92775413D01*
X215421903Y-92831392D01*
X215424936Y-92841392D01*
X215431693Y-92910000D01*
X215424936Y-92978608D01*
X215424935Y-92978611D01*
X215424935Y-92978612D01*
X215407954Y-93034592D01*
X215404920Y-93044592D01*
X215372423Y-93105391D01*
X215328685Y-93158685D01*
X215275391Y-93202423D01*
X215214592Y-93234920D01*
X215214589Y-93234921D01*
X215214587Y-93234922D01*
X215148612Y-93254935D01*
X215148611Y-93254935D01*
X215148608Y-93254936D01*
X215097192Y-93260000D01*
X214606668Y-93260000D01*
X214606668Y-93260438D01*
X214605000Y-93260438D01*
X214605000Y-93260000D01*
X214604836Y-93260000D01*
X214600382Y-93260439D01*
X214592727Y-93260440D01*
X214585245Y-93261930D01*
X214580450Y-93262402D01*
X214575822Y-93263806D01*
X214568694Y-93265225D01*
X214562004Y-93267997D01*
X214557001Y-93269515D01*
X214552374Y-93271988D01*
X214546057Y-93274606D01*
X214540393Y-93278392D01*
X214535390Y-93281066D01*
X214530991Y-93284677D01*
X214525685Y-93288223D01*
X214521185Y-93292724D01*
X214516448Y-93296612D01*
X214512549Y-93301363D01*
X214508360Y-93305553D01*
X214505082Y-93310461D01*
X214500902Y-93315554D01*
X214497784Y-93321387D01*
X214494750Y-93325930D01*
X214492667Y-93330961D01*
X214489351Y-93337165D01*
X214487303Y-93343917D01*
X214485376Y-93348571D01*
X214484884Y-93351892D01*
X214482238Y-93360614D01*
X214481566Y-93374274D01*
X214480000Y-93384836D01*
X214480000Y-93385000D01*
X214481038Y-93385000D01*
X214480956Y-93386668D01*
X214480000Y-93386668D01*
X214480000Y-93877192D01*
X214474936Y-93928608D01*
X214474935Y-93928611D01*
X214474935Y-93928612D01*
X214457954Y-93984592D01*
X214454920Y-93994592D01*
X214422423Y-94055391D01*
X214378685Y-94108685D01*
X214325391Y-94152423D01*
X214264592Y-94184920D01*
X214264589Y-94184921D01*
X214264587Y-94184922D01*
X214198612Y-94204935D01*
X214198611Y-94204935D01*
X214198608Y-94204936D01*
X214130000Y-94211693D01*
X214061393Y-94204936D01*
X214061390Y-94204935D01*
X214061389Y-94204935D01*
X213995414Y-94184922D01*
X213995412Y-94184921D01*
X213995409Y-94184920D01*
X213938925Y-94154729D01*
X213916286Y-94145351D01*
X213892253Y-94140571D01*
X213867749Y-94140571D01*
X213843715Y-94145352D01*
X213821077Y-94154728D01*
X213811213Y-94160000D01*
X213764587Y-94184922D01*
X213698612Y-94204935D01*
X213698611Y-94204935D01*
X213698608Y-94204936D01*
X213630000Y-94211693D01*
X213561393Y-94204936D01*
X213561390Y-94204935D01*
X213561389Y-94204935D01*
X213495414Y-94184922D01*
X213495412Y-94184921D01*
X213495409Y-94184920D01*
X213438925Y-94154729D01*
X213416286Y-94145351D01*
X213392253Y-94140571D01*
X213367749Y-94140571D01*
X213343715Y-94145352D01*
X213321077Y-94154728D01*
X213311213Y-94160000D01*
X213264587Y-94184922D01*
X213198612Y-94204935D01*
X213198611Y-94204935D01*
X213198608Y-94204936D01*
X213130000Y-94211693D01*
X213061393Y-94204936D01*
X213061390Y-94204935D01*
X213061389Y-94204935D01*
X212995414Y-94184922D01*
X212995412Y-94184921D01*
X212995409Y-94184920D01*
X212938925Y-94154729D01*
X212916286Y-94145351D01*
X212892253Y-94140571D01*
X212867749Y-94140571D01*
X212843715Y-94145352D01*
X212821077Y-94154728D01*
X212811213Y-94160000D01*
X212764587Y-94184922D01*
X212698612Y-94204935D01*
X212698611Y-94204935D01*
X212698608Y-94204936D01*
X212630000Y-94211693D01*
X212561393Y-94204936D01*
X212561390Y-94204935D01*
X212561389Y-94204935D01*
X212495414Y-94184922D01*
X212495412Y-94184921D01*
X212495409Y-94184920D01*
X212434610Y-94152423D01*
X212381316Y-94108685D01*
X212337578Y-94055391D01*
X212305081Y-93994592D01*
X212285065Y-93928609D01*
X212280000Y-93877189D01*
X212280000Y-93386669D01*
X212279562Y-93386669D01*
X212279562Y-93385000D01*
X212280000Y-93385000D01*
X212280000Y-93384836D01*
X212279561Y-93380378D01*
X212279559Y-93372720D01*
X212278070Y-93365244D01*
X212277598Y-93360450D01*
X212276193Y-93355819D01*
X212274773Y-93348687D01*
X212272001Y-93341999D01*
X212270485Y-93337001D01*
X212268012Y-93332375D01*
X212265391Y-93326050D01*
X212261604Y-93320386D01*
X212258934Y-93315390D01*
X212255322Y-93310989D01*
X212251772Y-93305679D01*
X212247275Y-93301184D01*
X212243388Y-93296448D01*
X212238630Y-93292543D01*
X212234441Y-93288356D01*
X212229539Y-93285082D01*
X212224446Y-93280902D01*
X212218613Y-93277784D01*
X212214064Y-93274746D01*
X212209031Y-93272663D01*
X212202835Y-93269351D01*
X212196079Y-93267302D01*
X212191422Y-93265374D01*
X212188102Y-93264882D01*
X212179386Y-93262238D01*
X212165729Y-93261566D01*
X212155164Y-93260000D01*
X212155000Y-93260000D01*
X212155000Y-93261038D01*
X212153332Y-93260956D01*
X212153332Y-93260000D01*
X211662808Y-93260000D01*
X211611392Y-93254936D01*
X211611389Y-93254935D01*
X211611388Y-93254935D01*
X211545413Y-93234922D01*
X211545411Y-93234921D01*
X211545408Y-93234920D01*
X211484609Y-93202423D01*
X211431315Y-93158685D01*
X211387577Y-93105391D01*
X211355080Y-93044592D01*
X211352047Y-93034592D01*
X211335065Y-92978612D01*
X211335065Y-92978611D01*
X211335064Y-92978608D01*
X211328307Y-92910000D01*
X211335064Y-92841392D01*
X211338097Y-92831392D01*
X211355078Y-92775413D01*
X211355079Y-92775411D01*
X211355080Y-92775408D01*
X211385271Y-92718924D01*
X211394649Y-92696285D01*
X211399429Y-92672252D01*
X211399429Y-92647748D01*
X211394648Y-92623714D01*
X211385271Y-92601076D01*
X211355080Y-92544592D01*
X211352047Y-92534592D01*
X211335065Y-92478612D01*
X211335065Y-92478611D01*
X211335064Y-92478608D01*
X211328307Y-92410000D01*
X211335064Y-92341392D01*
X211338097Y-92331392D01*
X211355078Y-92275413D01*
X211355079Y-92275411D01*
X211355080Y-92275408D01*
X211385271Y-92218924D01*
X211394649Y-92196285D01*
X211399429Y-92172252D01*
X211399429Y-92147748D01*
X211394648Y-92123714D01*
X211385271Y-92101076D01*
X211355080Y-92044592D01*
X211352047Y-92034592D01*
X211335065Y-91978612D01*
X211335065Y-91978611D01*
X211335064Y-91978608D01*
X211328307Y-91910000D01*
X211335064Y-91841392D01*
X211335065Y-91841388D01*
X211355078Y-91775413D01*
X211355079Y-91775411D01*
X211355080Y-91775408D01*
X211385271Y-91718924D01*
X211394649Y-91696285D01*
X211399429Y-91672252D01*
X211399429Y-91647748D01*
X211394648Y-91623714D01*
X211385271Y-91601076D01*
X211355080Y-91544592D01*
X211352047Y-91534592D01*
X211335065Y-91478612D01*
X211335065Y-91478611D01*
X211335064Y-91478608D01*
X211328307Y-91410000D01*
X211335064Y-91341392D01*
X211338097Y-91331392D01*
X211355078Y-91275413D01*
X211355079Y-91275411D01*
X211355080Y-91275408D01*
X211387577Y-91214609D01*
X211431315Y-91161315D01*
X211484609Y-91117577D01*
X211545408Y-91085080D01*
X211545411Y-91085079D01*
X211545413Y-91085078D01*
X211611388Y-91065065D01*
X211611389Y-91065065D01*
X211611392Y-91065064D01*
X211662808Y-91060000D01*
X212153332Y-91060000D01*
X212153332Y-91059562D01*
X212155000Y-91059562D01*
X212155000Y-91060000D01*
X212155164Y-91060000D01*
X212159618Y-91059561D01*
X212167273Y-91059560D01*
X212174755Y-91058070D01*
X212179550Y-91057598D01*
X212184178Y-91056194D01*
X212191306Y-91054775D01*
X212197996Y-91052003D01*
X212202999Y-91050485D01*
X212207626Y-91048012D01*
X212213943Y-91045394D01*
X212219607Y-91041608D01*
X212224610Y-91038934D01*
X212229009Y-91035323D01*
X212234315Y-91031777D01*
X212238815Y-91027276D01*
X212243552Y-91023388D01*
X212247451Y-91018637D01*
X212251640Y-91014447D01*
X212254918Y-91009539D01*
X212259098Y-91004446D01*
X212262216Y-90998613D01*
X212265250Y-90994070D01*
X212267333Y-90989039D01*
X212270649Y-90982835D01*
X212272697Y-90976083D01*
X212274624Y-90971429D01*
X212275116Y-90968108D01*
X212277762Y-90959386D01*
X212278434Y-90945726D01*
X212280000Y-90935164D01*
X212280000Y-90935000D01*
X212278962Y-90935000D01*
X212279044Y-90933332D01*
X212280000Y-90933332D01*
X212280000Y-90442809D01*
X212285064Y-90391393D01*
X212285065Y-90391389D01*
X212305078Y-90325414D01*
X212327213Y-90284002D01*
X212337580Y-90264606D01*
X212381315Y-90211315D01*
X212434609Y-90167577D01*
X212495408Y-90135080D01*
X212495411Y-90135079D01*
X212495413Y-90135078D01*
X212561388Y-90115065D01*
X212561389Y-90115065D01*
X212561392Y-90115064D01*
X212630000Y-90108307D01*
X212698607Y-90115064D01*
X212698610Y-90115065D01*
X212698611Y-90115065D01*
X212764586Y-90135078D01*
X212773794Y-90140000D01*
X212821076Y-90165272D01*
X212843715Y-90174649D01*
X212867749Y-90179429D01*
X212892253Y-90179429D01*
X212916287Y-90174648D01*
X212938924Y-90165271D01*
X212995408Y-90135080D01*
X212995411Y-90135079D01*
X212995413Y-90135078D01*
X213061388Y-90115065D01*
X213061389Y-90115065D01*
X213061392Y-90115064D01*
X213130000Y-90108307D01*
X213198607Y-90115064D01*
X213198610Y-90115065D01*
X213198611Y-90115065D01*
X213264586Y-90135078D01*
X213273794Y-90140000D01*
X213321076Y-90165272D01*
X213343715Y-90174649D01*
X213367749Y-90179429D01*
X213392253Y-90179429D01*
X213416287Y-90174648D01*
X213438924Y-90165271D01*
X213495408Y-90135080D01*
X213495411Y-90135079D01*
X213495413Y-90135078D01*
X213561388Y-90115065D01*
X213561389Y-90115065D01*
X213561392Y-90115064D01*
X213630000Y-90108307D01*
X213698607Y-90115064D01*
X213698610Y-90115065D01*
X213698611Y-90115065D01*
X213764586Y-90135078D01*
X213773794Y-90140000D01*
X213821076Y-90165272D01*
X213843715Y-90174649D01*
X213867749Y-90179429D01*
X213892253Y-90179429D01*
X213916287Y-90174648D01*
X213938924Y-90165271D01*
X213995408Y-90135080D01*
X213995411Y-90135079D01*
X213995413Y-90135078D01*
X214061388Y-90115065D01*
X214061389Y-90115065D01*
X214061392Y-90115064D01*
X214130000Y-90108307D01*
X214198607Y-90115064D01*
X214198607Y-90115064D01*
G37*
G36*
X226108607Y-90105064D02*
X226108610Y-90105065D01*
X226108611Y-90105065D01*
X226174586Y-90125078D01*
X226193296Y-90135079D01*
X226235394Y-90157580D01*
X226288685Y-90201315D01*
X226332423Y-90254609D01*
X226364920Y-90315408D01*
X226364921Y-90315411D01*
X226364922Y-90315413D01*
X226376460Y-90353449D01*
X226384936Y-90381392D01*
X226390000Y-90432808D01*
X226390000Y-90923332D01*
X226390438Y-90923332D01*
X226390438Y-90925000D01*
X226390000Y-90925000D01*
X226390000Y-90925164D01*
X226390439Y-90929618D01*
X226390440Y-90937273D01*
X226391930Y-90944755D01*
X226392402Y-90949550D01*
X226393806Y-90954178D01*
X226395225Y-90961306D01*
X226397997Y-90967996D01*
X226399515Y-90972999D01*
X226401988Y-90977626D01*
X226404606Y-90983943D01*
X226408392Y-90989607D01*
X226411066Y-90994610D01*
X226414677Y-90999009D01*
X226418223Y-91004315D01*
X226422724Y-91008815D01*
X226426612Y-91013552D01*
X226431363Y-91017451D01*
X226435553Y-91021640D01*
X226440461Y-91024918D01*
X226445554Y-91029098D01*
X226451387Y-91032216D01*
X226455930Y-91035250D01*
X226460961Y-91037333D01*
X226467165Y-91040649D01*
X226473917Y-91042697D01*
X226478571Y-91044624D01*
X226481892Y-91045116D01*
X226490614Y-91047762D01*
X226504274Y-91048434D01*
X226514836Y-91050000D01*
X226515000Y-91050000D01*
X226515000Y-91048962D01*
X226516668Y-91049044D01*
X226516668Y-91050000D01*
X227007192Y-91050000D01*
X227058608Y-91055064D01*
X227058611Y-91055065D01*
X227058612Y-91055065D01*
X227124587Y-91075078D01*
X227124589Y-91075079D01*
X227124592Y-91075080D01*
X227185391Y-91107577D01*
X227238685Y-91151315D01*
X227282423Y-91204609D01*
X227314920Y-91265408D01*
X227314921Y-91265411D01*
X227314922Y-91265413D01*
X227334935Y-91331388D01*
X227334936Y-91331392D01*
X227341693Y-91400000D01*
X227334936Y-91468608D01*
X227334935Y-91468611D01*
X227334935Y-91468612D01*
X227317459Y-91526225D01*
X227314920Y-91534592D01*
X227284729Y-91591076D01*
X227275351Y-91613715D01*
X227270571Y-91637748D01*
X227270571Y-91662252D01*
X227275352Y-91686286D01*
X227284729Y-91708924D01*
X227314920Y-91765408D01*
X227314921Y-91765411D01*
X227314922Y-91765413D01*
X227334868Y-91831167D01*
X227334936Y-91831392D01*
X227341693Y-91900000D01*
X227334936Y-91968608D01*
X227334935Y-91968611D01*
X227334935Y-91968612D01*
X227323321Y-92006900D01*
X227314920Y-92034592D01*
X227284729Y-92091076D01*
X227275351Y-92113715D01*
X227270571Y-92137748D01*
X227270571Y-92162252D01*
X227275352Y-92186286D01*
X227284729Y-92208924D01*
X227314920Y-92265408D01*
X227314921Y-92265411D01*
X227314922Y-92265413D01*
X227317955Y-92275413D01*
X227334936Y-92331392D01*
X227341693Y-92400000D01*
X227334936Y-92468608D01*
X227334935Y-92468611D01*
X227334935Y-92468612D01*
X227331902Y-92478612D01*
X227314920Y-92534592D01*
X227284729Y-92591076D01*
X227275351Y-92613715D01*
X227270571Y-92637748D01*
X227270571Y-92662252D01*
X227275352Y-92686286D01*
X227284729Y-92708924D01*
X227314920Y-92765408D01*
X227314921Y-92765411D01*
X227314922Y-92765413D01*
X227317955Y-92775413D01*
X227334936Y-92831392D01*
X227341693Y-92900000D01*
X227334936Y-92968608D01*
X227334935Y-92968611D01*
X227334935Y-92968612D01*
X227321903Y-93011574D01*
X227314920Y-93034592D01*
X227282423Y-93095391D01*
X227238685Y-93148685D01*
X227185391Y-93192423D01*
X227124592Y-93224920D01*
X227124589Y-93224921D01*
X227124587Y-93224922D01*
X227058612Y-93244935D01*
X227058611Y-93244935D01*
X227058608Y-93244936D01*
X227007192Y-93250000D01*
X226516668Y-93250000D01*
X226516668Y-93250438D01*
X226515000Y-93250438D01*
X226515000Y-93250000D01*
X226514836Y-93250000D01*
X226510382Y-93250439D01*
X226502727Y-93250440D01*
X226495245Y-93251930D01*
X226490450Y-93252402D01*
X226485822Y-93253806D01*
X226478694Y-93255225D01*
X226472004Y-93257997D01*
X226467001Y-93259515D01*
X226462374Y-93261988D01*
X226456057Y-93264606D01*
X226450393Y-93268392D01*
X226445390Y-93271066D01*
X226440991Y-93274677D01*
X226435685Y-93278223D01*
X226431185Y-93282724D01*
X226426448Y-93286612D01*
X226422549Y-93291363D01*
X226418360Y-93295553D01*
X226415082Y-93300461D01*
X226410902Y-93305554D01*
X226407784Y-93311387D01*
X226404750Y-93315930D01*
X226402667Y-93320961D01*
X226399351Y-93327165D01*
X226397303Y-93333917D01*
X226395376Y-93338571D01*
X226394884Y-93341892D01*
X226392238Y-93350614D01*
X226391566Y-93364274D01*
X226390000Y-93374836D01*
X226390000Y-93375000D01*
X226391038Y-93375000D01*
X226390956Y-93376668D01*
X226390000Y-93376668D01*
X226390000Y-93867192D01*
X226384936Y-93918608D01*
X226384935Y-93918611D01*
X226384935Y-93918612D01*
X226381902Y-93928612D01*
X226364920Y-93984592D01*
X226332423Y-94045391D01*
X226288685Y-94098685D01*
X226235391Y-94142423D01*
X226174592Y-94174920D01*
X226174589Y-94174921D01*
X226174587Y-94174922D01*
X226108612Y-94194935D01*
X226108611Y-94194935D01*
X226108608Y-94194936D01*
X226040000Y-94201693D01*
X225971393Y-94194936D01*
X225971390Y-94194935D01*
X225971389Y-94194935D01*
X225905414Y-94174922D01*
X225877497Y-94160000D01*
X225848924Y-94144728D01*
X225826285Y-94135351D01*
X225802251Y-94130571D01*
X225777747Y-94130571D01*
X225753713Y-94135352D01*
X225731076Y-94144729D01*
X225674592Y-94174920D01*
X225674589Y-94174921D01*
X225674587Y-94174922D01*
X225608612Y-94194935D01*
X225608611Y-94194935D01*
X225608608Y-94194936D01*
X225540000Y-94201693D01*
X225471393Y-94194936D01*
X225471390Y-94194935D01*
X225471389Y-94194935D01*
X225405414Y-94174922D01*
X225377497Y-94160000D01*
X225348924Y-94144728D01*
X225326285Y-94135351D01*
X225302251Y-94130571D01*
X225277747Y-94130571D01*
X225253713Y-94135352D01*
X225231076Y-94144729D01*
X225174592Y-94174920D01*
X225174589Y-94174921D01*
X225174587Y-94174922D01*
X225108612Y-94194935D01*
X225108611Y-94194935D01*
X225108608Y-94194936D01*
X225040000Y-94201693D01*
X224971393Y-94194936D01*
X224971390Y-94194935D01*
X224971389Y-94194935D01*
X224905414Y-94174922D01*
X224877497Y-94160000D01*
X224848924Y-94144728D01*
X224826285Y-94135351D01*
X224802251Y-94130571D01*
X224777747Y-94130571D01*
X224753713Y-94135352D01*
X224731076Y-94144729D01*
X224674592Y-94174920D01*
X224674589Y-94174921D01*
X224674587Y-94174922D01*
X224608612Y-94194935D01*
X224608611Y-94194935D01*
X224608608Y-94194936D01*
X224540000Y-94201693D01*
X224471393Y-94194936D01*
X224471390Y-94194935D01*
X224471389Y-94194935D01*
X224405414Y-94174922D01*
X224405412Y-94174921D01*
X224405409Y-94174920D01*
X224344610Y-94142423D01*
X224291316Y-94098685D01*
X224247578Y-94045391D01*
X224215081Y-93984592D01*
X224195065Y-93918609D01*
X224190000Y-93867189D01*
X224190000Y-93376669D01*
X224189562Y-93376669D01*
X224189562Y-93375000D01*
X224190000Y-93375000D01*
X224190000Y-93374836D01*
X224189561Y-93370378D01*
X224189559Y-93362720D01*
X224188070Y-93355244D01*
X224187598Y-93350450D01*
X224186193Y-93345819D01*
X224184773Y-93338687D01*
X224182001Y-93331999D01*
X224180485Y-93327001D01*
X224178012Y-93322375D01*
X224175391Y-93316050D01*
X224171604Y-93310386D01*
X224168934Y-93305390D01*
X224165322Y-93300989D01*
X224161772Y-93295679D01*
X224157275Y-93291184D01*
X224153388Y-93286448D01*
X224148630Y-93282543D01*
X224144441Y-93278356D01*
X224139539Y-93275082D01*
X224134446Y-93270902D01*
X224128613Y-93267784D01*
X224124064Y-93264746D01*
X224119031Y-93262663D01*
X224112835Y-93259351D01*
X224106079Y-93257302D01*
X224101422Y-93255374D01*
X224098102Y-93254882D01*
X224089386Y-93252238D01*
X224075729Y-93251566D01*
X224065164Y-93250000D01*
X224065000Y-93250000D01*
X224065000Y-93251038D01*
X224063332Y-93250956D01*
X224063332Y-93250000D01*
X223572808Y-93250000D01*
X223521392Y-93244936D01*
X223521389Y-93244935D01*
X223521388Y-93244935D01*
X223455413Y-93224922D01*
X223455411Y-93224921D01*
X223455408Y-93224920D01*
X223394609Y-93192423D01*
X223341315Y-93148685D01*
X223297577Y-93095391D01*
X223265080Y-93034592D01*
X223258098Y-93011574D01*
X223245065Y-92968612D01*
X223245065Y-92968611D01*
X223245064Y-92968608D01*
X223238307Y-92900000D01*
X223245064Y-92831392D01*
X223262045Y-92775413D01*
X223265078Y-92765413D01*
X223265079Y-92765411D01*
X223265080Y-92765408D01*
X223295271Y-92708924D01*
X223304649Y-92686285D01*
X223309429Y-92662252D01*
X223309429Y-92637748D01*
X223304648Y-92613714D01*
X223295271Y-92591076D01*
X223265080Y-92534592D01*
X223248099Y-92478612D01*
X223245065Y-92468612D01*
X223245065Y-92468611D01*
X223245064Y-92468608D01*
X223238307Y-92400000D01*
X223245064Y-92331392D01*
X223262045Y-92275413D01*
X223265078Y-92265413D01*
X223265079Y-92265411D01*
X223265080Y-92265408D01*
X223295271Y-92208924D01*
X223304649Y-92186285D01*
X223309429Y-92162252D01*
X223309429Y-92137748D01*
X223304648Y-92113714D01*
X223295271Y-92091076D01*
X223265080Y-92034592D01*
X223256680Y-92006900D01*
X223245065Y-91968612D01*
X223245065Y-91968611D01*
X223245064Y-91968608D01*
X223238307Y-91900000D01*
X223245064Y-91831392D01*
X223245132Y-91831167D01*
X223265078Y-91765413D01*
X223265079Y-91765411D01*
X223265080Y-91765408D01*
X223295271Y-91708924D01*
X223304649Y-91686285D01*
X223309429Y-91662252D01*
X223309429Y-91637748D01*
X223304648Y-91613714D01*
X223295271Y-91591076D01*
X223265080Y-91534592D01*
X223262542Y-91526225D01*
X223245065Y-91468612D01*
X223245065Y-91468611D01*
X223245064Y-91468608D01*
X223238307Y-91400000D01*
X223245064Y-91331392D01*
X223245065Y-91331388D01*
X223265078Y-91265413D01*
X223265079Y-91265411D01*
X223265080Y-91265408D01*
X223297577Y-91204609D01*
X223341315Y-91151315D01*
X223394609Y-91107577D01*
X223455408Y-91075080D01*
X223455411Y-91075079D01*
X223455413Y-91075078D01*
X223521388Y-91055065D01*
X223521389Y-91055065D01*
X223521392Y-91055064D01*
X223572808Y-91050000D01*
X224063332Y-91050000D01*
X224063332Y-91049562D01*
X224065000Y-91049562D01*
X224065000Y-91050000D01*
X224065164Y-91050000D01*
X224069618Y-91049561D01*
X224077273Y-91049560D01*
X224084755Y-91048070D01*
X224089550Y-91047598D01*
X224094178Y-91046194D01*
X224101306Y-91044775D01*
X224107996Y-91042003D01*
X224112999Y-91040485D01*
X224117626Y-91038012D01*
X224123943Y-91035394D01*
X224129607Y-91031608D01*
X224134610Y-91028934D01*
X224139009Y-91025323D01*
X224144315Y-91021777D01*
X224148815Y-91017276D01*
X224153552Y-91013388D01*
X224157451Y-91008637D01*
X224161640Y-91004447D01*
X224164918Y-90999539D01*
X224169098Y-90994446D01*
X224172216Y-90988613D01*
X224175250Y-90984070D01*
X224177333Y-90979039D01*
X224180649Y-90972835D01*
X224182697Y-90966083D01*
X224184624Y-90961429D01*
X224185116Y-90958108D01*
X224187762Y-90949386D01*
X224188434Y-90935726D01*
X224190000Y-90925164D01*
X224190000Y-90925000D01*
X224188962Y-90925000D01*
X224189044Y-90923332D01*
X224190000Y-90923332D01*
X224190000Y-90432809D01*
X224195064Y-90381393D01*
X224195065Y-90381389D01*
X224215078Y-90315414D01*
X224231868Y-90284002D01*
X224247580Y-90254606D01*
X224291315Y-90201315D01*
X224344609Y-90157577D01*
X224405408Y-90125080D01*
X224405411Y-90125079D01*
X224405413Y-90125078D01*
X224471388Y-90105065D01*
X224471389Y-90105065D01*
X224471392Y-90105064D01*
X224540000Y-90098307D01*
X224608607Y-90105064D01*
X224608610Y-90105065D01*
X224608611Y-90105065D01*
X224674586Y-90125078D01*
X224693296Y-90135079D01*
X224731076Y-90155272D01*
X224753715Y-90164649D01*
X224777749Y-90169429D01*
X224802253Y-90169429D01*
X224826287Y-90164648D01*
X224848924Y-90155271D01*
X224905408Y-90125080D01*
X224905411Y-90125079D01*
X224905413Y-90125078D01*
X224971388Y-90105065D01*
X224971389Y-90105065D01*
X224971392Y-90105064D01*
X225040000Y-90098307D01*
X225108607Y-90105064D01*
X225108610Y-90105065D01*
X225108611Y-90105065D01*
X225174586Y-90125078D01*
X225193296Y-90135079D01*
X225231076Y-90155272D01*
X225253715Y-90164649D01*
X225277749Y-90169429D01*
X225302253Y-90169429D01*
X225326287Y-90164648D01*
X225348924Y-90155271D01*
X225405408Y-90125080D01*
X225405411Y-90125079D01*
X225405413Y-90125078D01*
X225471388Y-90105065D01*
X225471389Y-90105065D01*
X225471392Y-90105064D01*
X225540000Y-90098307D01*
X225608607Y-90105064D01*
X225608610Y-90105065D01*
X225608611Y-90105065D01*
X225674586Y-90125078D01*
X225693296Y-90135079D01*
X225731076Y-90155272D01*
X225753715Y-90164649D01*
X225777749Y-90169429D01*
X225802253Y-90169429D01*
X225826287Y-90164648D01*
X225848924Y-90155271D01*
X225905408Y-90125080D01*
X225905411Y-90125079D01*
X225905413Y-90125078D01*
X225971388Y-90105065D01*
X225971389Y-90105065D01*
X225971392Y-90105064D01*
X226040000Y-90098307D01*
X226108607Y-90105064D01*
X226108607Y-90105064D01*
G37*
G36*
X208820000Y-93570000D02*
X207520000Y-93570000D01*
X207520000Y-92670000D01*
X208820000Y-92670000D01*
X208820000Y-93570000D01*
X208820000Y-93570000D01*
G37*
G36*
X210500000Y-93570000D02*
X209200000Y-93570000D01*
X209200000Y-92670000D01*
X210500000Y-92670000D01*
X210500000Y-93570000D01*
X210500000Y-93570000D01*
G37*
G36*
X196580000Y-93560000D02*
X195280000Y-93560000D01*
X195280000Y-92660000D01*
X196580000Y-92660000D01*
X196580000Y-93560000D01*
X196580000Y-93560000D01*
G37*
G36*
X198240000Y-93560000D02*
X196940000Y-93560000D01*
X196940000Y-92660000D01*
X198240000Y-92660000D01*
X198240000Y-93560000D01*
X198240000Y-93560000D01*
G37*
G36*
X222215000Y-93505000D02*
X220915000Y-93505000D01*
X220915000Y-92605000D01*
X222215000Y-92605000D01*
X222215000Y-93505000D01*
X222215000Y-93505000D01*
G37*
G36*
X220595000Y-93505000D02*
X219295000Y-93505000D01*
X219295000Y-92605000D01*
X220595000Y-92605000D01*
X220595000Y-93505000D01*
X220595000Y-93505000D01*
G37*
G36*
X189124183Y-88816900D02*
X189251574Y-88869668D01*
X189366224Y-88946274D01*
X189463726Y-89043776D01*
X189474566Y-89060000D01*
X189540332Y-89158426D01*
X189593100Y-89285817D01*
X189620000Y-89421055D01*
X189620000Y-89558945D01*
X189593100Y-89694183D01*
X189540332Y-89821574D01*
X189463725Y-89936225D01*
X189366225Y-90033725D01*
X189251574Y-90110332D01*
X189124184Y-90163099D01*
X189122688Y-90163397D01*
X189099239Y-90170511D01*
X189077628Y-90182063D01*
X189058686Y-90197609D01*
X189043142Y-90216551D01*
X189031591Y-90238162D01*
X189024478Y-90261612D01*
X189022077Y-90285998D01*
X189024479Y-90310384D01*
X189031593Y-90333833D01*
X189043145Y-90355444D01*
X189058691Y-90374386D01*
X189077633Y-90389930D01*
X189099244Y-90401481D01*
X189106173Y-90403582D01*
X189241574Y-90459668D01*
X189356225Y-90536275D01*
X189453725Y-90633775D01*
X189530332Y-90748426D01*
X189583100Y-90875817D01*
X189610000Y-91011055D01*
X189610000Y-91148945D01*
X189583100Y-91284183D01*
X189535126Y-91400000D01*
X189530332Y-91411574D01*
X189453726Y-91526224D01*
X189356224Y-91623726D01*
X189253412Y-91692422D01*
X189241574Y-91700332D01*
X189114186Y-91753098D01*
X189114183Y-91753099D01*
X189114182Y-91753099D01*
X189097554Y-91756407D01*
X189074107Y-91763519D01*
X189052496Y-91775070D01*
X189033553Y-91790615D01*
X189018008Y-91809557D01*
X189006456Y-91831167D01*
X188999342Y-91854616D01*
X188996940Y-91879003D01*
X188999341Y-91903389D01*
X189006454Y-91926838D01*
X189018005Y-91948449D01*
X189033550Y-91967392D01*
X189052492Y-91982937D01*
X189074102Y-91994489D01*
X189097553Y-92001603D01*
X189124183Y-92006900D01*
X189251574Y-92059668D01*
X189366224Y-92136274D01*
X189463726Y-92233776D01*
X189528948Y-92331388D01*
X189540332Y-92348426D01*
X189593100Y-92475817D01*
X189620000Y-92611055D01*
X189620000Y-92748945D01*
X189593100Y-92884183D01*
X189540332Y-93011574D01*
X189463726Y-93126224D01*
X189366224Y-93223726D01*
X189265265Y-93291184D01*
X189251574Y-93300332D01*
X189124183Y-93353100D01*
X188988945Y-93380000D01*
X188851055Y-93380000D01*
X188715817Y-93353100D01*
X188588426Y-93300332D01*
X188574735Y-93291184D01*
X188473776Y-93223726D01*
X188376274Y-93126224D01*
X188299668Y-93011574D01*
X188246900Y-92884183D01*
X188220000Y-92748945D01*
X188220000Y-92611055D01*
X188246900Y-92475817D01*
X188299668Y-92348426D01*
X188311052Y-92331388D01*
X188376274Y-92233776D01*
X188473776Y-92136274D01*
X188588426Y-92059668D01*
X188648977Y-92034587D01*
X188715814Y-92006902D01*
X188715817Y-92006901D01*
X188715818Y-92006901D01*
X188732446Y-92003593D01*
X188755893Y-91996481D01*
X188777504Y-91984930D01*
X188796447Y-91969385D01*
X188811992Y-91950443D01*
X188823544Y-91928833D01*
X188830658Y-91905384D01*
X188833060Y-91880997D01*
X188830659Y-91856611D01*
X188823546Y-91833162D01*
X188811995Y-91811551D01*
X188796450Y-91792608D01*
X188777508Y-91777063D01*
X188755898Y-91765511D01*
X188732447Y-91758397D01*
X188705817Y-91753100D01*
X188578426Y-91700332D01*
X188566588Y-91692422D01*
X188463776Y-91623726D01*
X188366274Y-91526224D01*
X188289668Y-91411574D01*
X188284874Y-91400000D01*
X188236900Y-91284183D01*
X188210000Y-91148945D01*
X188210000Y-91011055D01*
X188236900Y-90875817D01*
X188289668Y-90748426D01*
X188366275Y-90633775D01*
X188463775Y-90536275D01*
X188578426Y-90459668D01*
X188705816Y-90406901D01*
X188707312Y-90406603D01*
X188730761Y-90399489D01*
X188752372Y-90387937D01*
X188771314Y-90372391D01*
X188786858Y-90353449D01*
X188798409Y-90331838D01*
X188805522Y-90308388D01*
X188807923Y-90284002D01*
X188805521Y-90259616D01*
X188798407Y-90236167D01*
X188786855Y-90214556D01*
X188771309Y-90195614D01*
X188752367Y-90180070D01*
X188730756Y-90168519D01*
X188723827Y-90166418D01*
X188588426Y-90110332D01*
X188473775Y-90033725D01*
X188376275Y-89936225D01*
X188299668Y-89821574D01*
X188246900Y-89694183D01*
X188220000Y-89558945D01*
X188220000Y-89421055D01*
X188246900Y-89285817D01*
X188299668Y-89158426D01*
X188365434Y-89060000D01*
X188376274Y-89043776D01*
X188473776Y-88946274D01*
X188588426Y-88869668D01*
X188715817Y-88816900D01*
X188851055Y-88790000D01*
X188988945Y-88790000D01*
X189124183Y-88816900D01*
X189124183Y-88816900D01*
G37*
G36*
X217485000Y-92460000D02*
X215835000Y-92460000D01*
X215835000Y-91060000D01*
X217485000Y-91060000D01*
X217485000Y-92460000D01*
X217485000Y-92460000D01*
G37*
G36*
X205285000Y-92460000D02*
X203635000Y-92460000D01*
X203635000Y-91060000D01*
X205285000Y-91060000D01*
X205285000Y-92460000D01*
X205285000Y-92460000D01*
G37*
G36*
X229375000Y-92450000D02*
X227725000Y-92450000D01*
X227725000Y-91050000D01*
X229375000Y-91050000D01*
X229375000Y-92450000D01*
X229375000Y-92450000D01*
G37*
G36*
X210710000Y-91760000D02*
X206610000Y-91760000D01*
X206610000Y-90160000D01*
X210710000Y-90160000D01*
X210710000Y-91760000D01*
X210710000Y-91760000D01*
G37*
G36*
X222600000Y-91740000D02*
X218500000Y-91740000D01*
X218500000Y-90140000D01*
X222600000Y-90140000D01*
X222600000Y-91740000D01*
X222600000Y-91740000D01*
G37*
G36*
X198290000Y-91740000D02*
X194190000Y-91740000D01*
X194190000Y-90140000D01*
X198290000Y-90140000D01*
X198290000Y-91740000D01*
X198290000Y-91740000D01*
G37*
G36*
X217485000Y-90460000D02*
X215835000Y-90460000D01*
X215835000Y-89060000D01*
X217485000Y-89060000D01*
X217485000Y-90460000D01*
X217485000Y-90460000D01*
G37*
G36*
X205285000Y-90460000D02*
X203635000Y-90460000D01*
X203635000Y-89060000D01*
X205285000Y-89060000D01*
X205285000Y-90460000D01*
X205285000Y-90460000D01*
G37*
G36*
X229375000Y-90450000D02*
X227725000Y-90450000D01*
X227725000Y-89050000D01*
X229375000Y-89050000D01*
X229375000Y-90450000D01*
X229375000Y-90450000D01*
G37*
G36*
X205750000Y-86470000D02*
X202755000Y-86470000D01*
X202730614Y-86472402D01*
X202707165Y-86479515D01*
X202685554Y-86491066D01*
X202666612Y-86506612D01*
X202651066Y-86525554D01*
X202639515Y-86547165D01*
X202632402Y-86570614D01*
X202630000Y-86595000D01*
X202630000Y-89475000D01*
X201230000Y-89475000D01*
X201230000Y-86115000D01*
X202725000Y-86115000D01*
X202749386Y-86112598D01*
X202772835Y-86105485D01*
X202794446Y-86093934D01*
X202813388Y-86078388D01*
X202828934Y-86059446D01*
X202840485Y-86037835D01*
X202847598Y-86014386D01*
X202850000Y-85990000D01*
X202850000Y-84570000D01*
X205750000Y-84570000D01*
X205750000Y-86470000D01*
X205750000Y-86470000D01*
G37*
G36*
X218060000Y-86460000D02*
X215095000Y-86460000D01*
X215070614Y-86462402D01*
X215047165Y-86469515D01*
X215025554Y-86481066D01*
X215006612Y-86496612D01*
X214991066Y-86515554D01*
X214979515Y-86537165D01*
X214972402Y-86560614D01*
X214970000Y-86585000D01*
X214970000Y-87700000D01*
X214972402Y-87724386D01*
X214979515Y-87747835D01*
X214980000Y-87748742D01*
X214980000Y-89475000D01*
X213580000Y-89475000D01*
X213580000Y-87900000D01*
X213577598Y-87875614D01*
X213570485Y-87852165D01*
X213570000Y-87851258D01*
X213570000Y-86125000D01*
X215035000Y-86125000D01*
X215059386Y-86122598D01*
X215082835Y-86115485D01*
X215104446Y-86103934D01*
X215123388Y-86088388D01*
X215138934Y-86069446D01*
X215150485Y-86047835D01*
X215157598Y-86024386D01*
X215160000Y-86000000D01*
X215160000Y-84560000D01*
X218060000Y-84560000D01*
X218060000Y-86460000D01*
X218060000Y-86460000D01*
G37*
G36*
X212970000Y-87700000D02*
X212972402Y-87724386D01*
X212979515Y-87747835D01*
X212980000Y-87748742D01*
X212980000Y-89475000D01*
X211580000Y-89475000D01*
X211580000Y-87900000D01*
X211577598Y-87875614D01*
X211570485Y-87852165D01*
X211570000Y-87851258D01*
X211570000Y-86125000D01*
X212970000Y-86125000D01*
X212970000Y-87700000D01*
X212970000Y-87700000D01*
G37*
G36*
X200630000Y-89475000D02*
X199230000Y-89475000D01*
X199230000Y-86115000D01*
X200630000Y-86115000D01*
X200630000Y-89475000D01*
X200630000Y-89475000D01*
G37*
G36*
X224890000Y-89465000D02*
X223490000Y-89465000D01*
X223490000Y-86115000D01*
X224890000Y-86115000D01*
X224890000Y-89465000D01*
X224890000Y-89465000D01*
G37*
G36*
X226890000Y-89465000D02*
X225490000Y-89465000D01*
X225490000Y-86115000D01*
X226890000Y-86115000D01*
X226890000Y-89465000D01*
X226890000Y-89465000D01*
G37*
G36*
X210710000Y-88960000D02*
X206610000Y-88960000D01*
X206610000Y-87360000D01*
X210710000Y-87360000D01*
X210710000Y-88960000D01*
X210710000Y-88960000D01*
G37*
G36*
X198290000Y-88940000D02*
X194190000Y-88940000D01*
X194190000Y-87340000D01*
X198290000Y-87340000D01*
X198290000Y-88940000D01*
X198290000Y-88940000D01*
G37*
G36*
X222600000Y-88940000D02*
X218500000Y-88940000D01*
X218500000Y-87340000D01*
X222600000Y-87340000D01*
X222600000Y-88940000D01*
X222600000Y-88940000D01*
G37*
G36*
X190539196Y-85419958D02*
X190775780Y-85517954D01*
X190988705Y-85660226D01*
X191169774Y-85841295D01*
X191312046Y-86054220D01*
X191410042Y-86290804D01*
X191460000Y-86541960D01*
X191460000Y-86798040D01*
X191410042Y-87049196D01*
X191312046Y-87285780D01*
X191169774Y-87498705D01*
X190988705Y-87679774D01*
X190775780Y-87822046D01*
X190539196Y-87920042D01*
X190288040Y-87970000D01*
X190031960Y-87970000D01*
X189780804Y-87920042D01*
X189544220Y-87822046D01*
X189331295Y-87679774D01*
X189150226Y-87498705D01*
X189007954Y-87285780D01*
X188909958Y-87049196D01*
X188860000Y-86798040D01*
X188860000Y-86541960D01*
X188909958Y-86290804D01*
X189007954Y-86054220D01*
X189150226Y-85841295D01*
X189331295Y-85660226D01*
X189544220Y-85517954D01*
X189780804Y-85419958D01*
X190031960Y-85370000D01*
X190288040Y-85370000D01*
X190539196Y-85419958D01*
X190539196Y-85419958D01*
G37*
G36*
X229779196Y-85399958D02*
X230015780Y-85497954D01*
X230228705Y-85640226D01*
X230409774Y-85821295D01*
X230552046Y-86034220D01*
X230650042Y-86270804D01*
X230700000Y-86521960D01*
X230700000Y-86778040D01*
X230650042Y-87029196D01*
X230552046Y-87265780D01*
X230409774Y-87478705D01*
X230228705Y-87659774D01*
X230015780Y-87802046D01*
X229779196Y-87900042D01*
X229528040Y-87950000D01*
X229271960Y-87950000D01*
X229020804Y-87900042D01*
X228784220Y-87802046D01*
X228571295Y-87659774D01*
X228390226Y-87478705D01*
X228247954Y-87265780D01*
X228149958Y-87029196D01*
X228100000Y-86778040D01*
X228100000Y-86521960D01*
X228149958Y-86270804D01*
X228247954Y-86034220D01*
X228390226Y-85821295D01*
X228571295Y-85640226D01*
X228784220Y-85497954D01*
X229020804Y-85399958D01*
X229271960Y-85350000D01*
X229528040Y-85350000D01*
X229779196Y-85399958D01*
X229779196Y-85399958D01*
G37*
G36*
X197690000Y-86460000D02*
X194790000Y-86460000D01*
X194790000Y-84560000D01*
X197690000Y-84560000D01*
X197690000Y-86460000D01*
X197690000Y-86460000D01*
G37*
G36*
X222000000Y-86450000D02*
X219100000Y-86450000D01*
X219100000Y-84550000D01*
X222000000Y-84550000D01*
X222000000Y-86450000D01*
X222000000Y-86450000D01*
G37*
G36*
X210110000Y-86450000D02*
X207210000Y-86450000D01*
X207210000Y-84550000D01*
X210110000Y-84550000D01*
X210110000Y-86450000D01*
X210110000Y-86450000D01*
G37*
M02*
