G04 #@! TF.GenerationSoftware,KiCad,Pcbnew,(5.0.1)-4*
G04 #@! TF.CreationDate,2019-03-16T12:44:05-04:00*
G04 #@! TF.ProjectId,Wii reg,576969207265672E6B696361645F7063,rev?*
G04 #@! TF.SameCoordinates,Original*
G04 #@! TF.FileFunction,Copper,L4,Bot,Signal*
G04 #@! TF.FilePolarity,Positive*
%FSLAX46Y46*%
G04 Gerber Fmt 4.6, Leading zero omitted, Abs format (unit mm)*
G04 Created by KiCad (PCBNEW (5.0.1)-4) date 3/16/2019 12:44:05 PM*
%MOMM*%
%LPD*%
G01*
G04 APERTURE LIST*
G04 #@! TA.AperFunction,ComponentPad*
%ADD10R,1.000000X1.000000*%
G04 #@! TD*
G04 #@! TA.AperFunction,ComponentPad*
%ADD11O,1.000000X1.000000*%
G04 #@! TD*
G04 #@! TA.AperFunction,ViaPad*
%ADD12C,0.600000*%
G04 #@! TD*
G04 #@! TA.AperFunction,ComponentPad*
%ADD13C,0.600000*%
G04 #@! TD*
G04 #@! TA.AperFunction,Conductor*
%ADD14C,0.250000*%
G04 #@! TD*
G04 #@! TA.AperFunction,Conductor*
%ADD15C,0.230000*%
G04 #@! TD*
G04 APERTURE END LIST*
D10*
G04 #@! TO.P,J25,1*
G04 #@! TO.N,MCLR*
X200250000Y-115660000D03*
D11*
G04 #@! TO.P,J25,2*
G04 #@! TO.N,VSYS*
X201520000Y-115660000D03*
G04 #@! TO.P,J25,3*
G04 #@! TO.N,GND*
X202790000Y-115660000D03*
G04 #@! TO.P,J25,4*
G04 #@! TO.N,Net-(J25-Pad4)*
X204060000Y-115660000D03*
G04 #@! TO.P,J25,5*
G04 #@! TO.N,Net-(J25-Pad5)*
X205330000Y-115660000D03*
G04 #@! TD*
D12*
G04 #@! TO.N,GND*
G04 #@! TO.C,U1*
X201030000Y-92160000D03*
X200530000Y-91660000D03*
X201530000Y-91660000D03*
X201530000Y-92660000D03*
X200530000Y-92660000D03*
G04 #@! TD*
G04 #@! TO.N,GND*
G04 #@! TO.C,U2*
X219570000Y-109790000D03*
X220070000Y-110290000D03*
X219070000Y-110290000D03*
X219070000Y-109290000D03*
X220070000Y-109290000D03*
G04 #@! TD*
D13*
G04 #@! TO.P,U3,11*
G04 #@! TO.N,GND*
X223150000Y-99040000D03*
X224650000Y-99040000D03*
X223150000Y-98040000D03*
X224650000Y-98040000D03*
X223900000Y-98540000D03*
G04 #@! TD*
D12*
G04 #@! TO.N,GND*
G04 #@! TO.C,U4*
X225290000Y-92150000D03*
X224790000Y-91650000D03*
X225790000Y-91650000D03*
X225790000Y-92650000D03*
X224790000Y-92650000D03*
G04 #@! TD*
G04 #@! TO.N,GND*
G04 #@! TO.C,U5*
X213380000Y-92160000D03*
X212880000Y-91660000D03*
X213880000Y-91660000D03*
X213880000Y-92660000D03*
X212880000Y-92660000D03*
G04 #@! TD*
G04 #@! TO.N,5v*
X223890000Y-95880000D03*
X226810000Y-100530000D03*
G04 #@! TO.N,GND*
X198140000Y-116570000D03*
X216360000Y-87780000D03*
X215550000Y-88580000D03*
X216360000Y-88580000D03*
X215560000Y-87780000D03*
X218230000Y-95720000D03*
X217430000Y-94920000D03*
X218230000Y-94920000D03*
X217430000Y-95720000D03*
X191640000Y-102080000D03*
X191640000Y-101290000D03*
X227700000Y-88390000D03*
X227700000Y-87590000D03*
X227940000Y-97420000D03*
X227940000Y-98220000D03*
X227150000Y-97420000D03*
X227140000Y-98220000D03*
X207020000Y-104730000D03*
X207020000Y-105530000D03*
X204100000Y-88560000D03*
X203300000Y-87770000D03*
X203300000Y-88560000D03*
X204100000Y-87760000D03*
X227250000Y-107080000D03*
X228040000Y-107890000D03*
X228040000Y-106310000D03*
X228040000Y-107100000D03*
X227250000Y-107890000D03*
X227250000Y-106280000D03*
X213360000Y-113680000D03*
X213360000Y-112890000D03*
X212560000Y-113680000D03*
X212560000Y-112890000D03*
X211760000Y-113680000D03*
X211760000Y-112880000D03*
X201600000Y-113140000D03*
X203390000Y-106390000D03*
X203390000Y-107690000D03*
X204690000Y-107690000D03*
X204690000Y-106390000D03*
X195255000Y-110235000D03*
X196605000Y-110235000D03*
X195255000Y-111585000D03*
X196605000Y-111585000D03*
X208210000Y-103920000D03*
X210200000Y-103920000D03*
X212180000Y-103920000D03*
X193430000Y-113570000D03*
X192900000Y-109935000D03*
X199590000Y-102240000D03*
G04 #@! TO.N,1v*
X195350000Y-86790000D03*
X195930000Y-95300000D03*
G04 #@! TO.N,3v3*
X225290000Y-115020000D03*
X224740000Y-106700000D03*
G04 #@! TO.N,VSYS*
X221990000Y-109540000D03*
X216550000Y-98780000D03*
X195830000Y-115750000D03*
X216550000Y-99580000D03*
X215750000Y-98780000D03*
X214950000Y-98780000D03*
X216550000Y-100380000D03*
X215750000Y-99580000D03*
X214950000Y-99580000D03*
X215750000Y-100370000D03*
X227900000Y-93540000D03*
X228700000Y-92750000D03*
X228700000Y-93540000D03*
X227900000Y-92740000D03*
X222880000Y-92400000D03*
X210830000Y-92410000D03*
X198510000Y-92410000D03*
X216030000Y-93550000D03*
X216830000Y-92760000D03*
X216830000Y-93550000D03*
X216030000Y-92750000D03*
X203830000Y-93550000D03*
X204620000Y-92760000D03*
X204620000Y-93550000D03*
X203830000Y-92750000D03*
X200560000Y-113110000D03*
X193025000Y-111885000D03*
X214950000Y-100380000D03*
G04 #@! TO.N,1v8*
X219920000Y-86920000D03*
X219940000Y-95280000D03*
G04 #@! TO.N,1v15*
X207980000Y-86950000D03*
X208170000Y-95320000D03*
G04 #@! TO.N,REGN*
X203580000Y-103360000D03*
X206190000Y-113690000D03*
G04 #@! TO.N,SCL*
X200030000Y-110710000D03*
X198970000Y-108870000D03*
G04 #@! TO.N,Net-(J24-Pad1)*
X189550000Y-109720000D03*
X196490000Y-107740000D03*
G04 #@! TO.N,Net-(J25-Pad4)*
X194070000Y-108540000D03*
G04 #@! TO.N,Net-(J25-Pad5)*
X195350000Y-107830000D03*
G04 #@! TO.N,RED*
X199150000Y-112690000D03*
X189140000Y-94170000D03*
G04 #@! TO.N,GREEN*
X199160000Y-111730000D03*
X195080000Y-101320000D03*
G04 #@! TO.N,BLUE*
X199130000Y-110790000D03*
X198750000Y-101340000D03*
G04 #@! TO.N,EN*
X223000000Y-95890000D03*
X217960000Y-111580000D03*
X226620000Y-90050000D03*
X214740000Y-90110000D03*
X202410000Y-90160000D03*
X197790000Y-112990000D03*
G04 #@! TD*
D14*
G04 #@! TO.N,5v*
X223890000Y-95880000D02*
X224970000Y-95880000D01*
X226310000Y-100030000D02*
X226810000Y-100530000D01*
X226310000Y-97220000D02*
X226310000Y-100030000D01*
X224970000Y-95880000D02*
X226310000Y-97220000D01*
G04 #@! TO.N,GND*
X195255000Y-110235000D02*
X195250000Y-110230000D01*
X196605000Y-110235000D02*
X196600000Y-110230000D01*
X195255000Y-111585000D02*
X195250000Y-111580000D01*
X196605000Y-111585000D02*
X196600000Y-111580000D01*
G04 #@! TO.N,1v*
X194170000Y-86790000D02*
X195350000Y-86790000D01*
X193350000Y-87610000D02*
X194170000Y-86790000D01*
X193350000Y-92720000D02*
X193350000Y-87610000D01*
X195930000Y-95300000D02*
X193350000Y-92720000D01*
G04 #@! TO.N,3v3*
X226590000Y-115020000D02*
X225290000Y-115020000D01*
X227270000Y-114340000D02*
X226590000Y-115020000D01*
X227270000Y-109230000D02*
X227270000Y-114340000D01*
X224740000Y-106700000D02*
X227270000Y-109230000D01*
G04 #@! TO.N,VSYS*
X198520000Y-92420000D02*
X198540000Y-92420000D01*
X198510000Y-92410000D02*
X198520000Y-92420000D01*
X193025000Y-111885000D02*
X193020000Y-111890000D01*
G04 #@! TO.N,1v8*
X218620000Y-86920000D02*
X219920000Y-86920000D01*
X217930000Y-87610000D02*
X218620000Y-86920000D01*
X217930000Y-93270000D02*
X217930000Y-87610000D01*
X219940000Y-95280000D02*
X217930000Y-93270000D01*
G04 #@! TO.N,1v15*
X206760000Y-86950000D02*
X207980000Y-86950000D01*
X206010000Y-87700000D02*
X206760000Y-86950000D01*
X206010000Y-93160000D02*
X206010000Y-87700000D01*
X208170000Y-95320000D02*
X206010000Y-93160000D01*
G04 #@! TO.N,REGN*
X201800000Y-105140000D02*
X203580000Y-103360000D01*
X201800000Y-109300000D02*
X201800000Y-105140000D01*
X206190000Y-113690000D02*
X201800000Y-109300000D01*
G04 #@! TO.N,SCL*
X198970000Y-109650000D02*
X198970000Y-108870000D01*
X200030000Y-110710000D02*
X198970000Y-109650000D01*
G04 #@! TO.N,Net-(J24-Pad1)*
X189550000Y-109720000D02*
X192090000Y-107180000D01*
X192090000Y-107180000D02*
X195930000Y-107180000D01*
X195930000Y-107180000D02*
X196490000Y-107740000D01*
G04 #@! TO.N,Net-(J25-Pad4)*
X204060000Y-115660000D02*
X204060000Y-115260000D01*
X204060000Y-115260000D02*
X203270000Y-114470000D01*
X203270000Y-114470000D02*
X195850000Y-114470000D01*
X195850000Y-114470000D02*
X193720000Y-112340000D01*
X193720000Y-112340000D02*
X193720000Y-108890000D01*
X193720000Y-108890000D02*
X194070000Y-108540000D01*
G04 #@! TO.N,Net-(J25-Pad5)*
X203690000Y-114020000D02*
X205330000Y-115660000D01*
X203456398Y-114020000D02*
X203690000Y-114020000D01*
X203456396Y-114019998D02*
X203456398Y-114020000D01*
X196036396Y-114019998D02*
X203456396Y-114019998D01*
X194170002Y-112153604D02*
X196036396Y-114019998D01*
X194170002Y-109439998D02*
X194170002Y-112153604D01*
X195320000Y-108290000D02*
X194170002Y-109439998D01*
X195320000Y-107860000D02*
X195320000Y-108290000D01*
X195350000Y-107830000D02*
X195320000Y-107860000D01*
G04 #@! TO.N,RED*
X199150000Y-112690000D02*
X199150000Y-112630000D01*
X189140000Y-96270000D02*
X189140000Y-94170000D01*
X197439996Y-104569996D02*
X189140000Y-96270000D01*
X197439996Y-110919996D02*
X197439996Y-104569996D01*
X199150000Y-112630000D02*
X197439996Y-110919996D01*
G04 #@! TO.N,GREEN*
X199160000Y-111730000D02*
X199110000Y-111730000D01*
X197889998Y-104129998D02*
X195080000Y-101320000D01*
X197889998Y-110509998D02*
X197889998Y-104129998D01*
X199110000Y-111730000D02*
X197889998Y-110509998D01*
G04 #@! TO.N,BLUE*
X199130000Y-110790000D02*
X199070000Y-110790000D01*
X198340000Y-101750000D02*
X198750000Y-101340000D01*
X198340000Y-110060000D02*
X198340000Y-101750000D01*
X199070000Y-110790000D02*
X198340000Y-110060000D01*
G04 #@! TD*
D15*
G04 #@! TO.N,GND*
G36*
X231180000Y-117000000D02*
X188380000Y-117000000D01*
X188380000Y-114958539D01*
X188735000Y-114958539D01*
X188735000Y-115521461D01*
X188950421Y-116041533D01*
X189348467Y-116439579D01*
X189868539Y-116655000D01*
X190431461Y-116655000D01*
X190951533Y-116439579D01*
X191349579Y-116041533D01*
X191521007Y-115627669D01*
X195215000Y-115627669D01*
X195215000Y-115872331D01*
X195308628Y-116098370D01*
X195481630Y-116271372D01*
X195707669Y-116365000D01*
X195952331Y-116365000D01*
X196178370Y-116271372D01*
X196351372Y-116098370D01*
X196445000Y-115872331D01*
X196445000Y-115627669D01*
X196351372Y-115401630D01*
X196178370Y-115228628D01*
X195952331Y-115135000D01*
X195707669Y-115135000D01*
X195481630Y-115228628D01*
X195308628Y-115401630D01*
X195215000Y-115627669D01*
X191521007Y-115627669D01*
X191565000Y-115521461D01*
X191565000Y-114958539D01*
X191349579Y-114438467D01*
X190951533Y-114040421D01*
X190431461Y-113825000D01*
X189868539Y-113825000D01*
X189348467Y-114040421D01*
X188950421Y-114438467D01*
X188735000Y-114958539D01*
X188380000Y-114958539D01*
X188380000Y-94047669D01*
X188525000Y-94047669D01*
X188525000Y-94292331D01*
X188618628Y-94518370D01*
X188700001Y-94599743D01*
X188700000Y-96226669D01*
X188691381Y-96270000D01*
X188700000Y-96313331D01*
X188700000Y-96313335D01*
X188725529Y-96441678D01*
X188822778Y-96587222D01*
X188859518Y-96611771D01*
X196999997Y-104752251D01*
X196999997Y-107380255D01*
X196838370Y-107218628D01*
X196612331Y-107125000D01*
X196497253Y-107125000D01*
X196271771Y-106899518D01*
X196247222Y-106862778D01*
X196101679Y-106765529D01*
X195973336Y-106740000D01*
X195973331Y-106740000D01*
X195930000Y-106731381D01*
X195886669Y-106740000D01*
X192133330Y-106740000D01*
X192089999Y-106731381D01*
X192046668Y-106740000D01*
X192046664Y-106740000D01*
X191918321Y-106765529D01*
X191918320Y-106765530D01*
X191918319Y-106765530D01*
X191809515Y-106838231D01*
X191772778Y-106862778D01*
X191748231Y-106899515D01*
X189542747Y-109105000D01*
X189427669Y-109105000D01*
X189201630Y-109198628D01*
X189028628Y-109371630D01*
X188935000Y-109597669D01*
X188935000Y-109842331D01*
X189028628Y-110068370D01*
X189201630Y-110241372D01*
X189427669Y-110335000D01*
X189672331Y-110335000D01*
X189898370Y-110241372D01*
X190071372Y-110068370D01*
X190165000Y-109842331D01*
X190165000Y-109727253D01*
X192272254Y-107620000D01*
X194771314Y-107620000D01*
X194735000Y-107707669D01*
X194735000Y-107952331D01*
X194822989Y-108164757D01*
X194651340Y-108336406D01*
X194591372Y-108191630D01*
X194418370Y-108018628D01*
X194192331Y-107925000D01*
X193947669Y-107925000D01*
X193721630Y-108018628D01*
X193548628Y-108191630D01*
X193455000Y-108417669D01*
X193455000Y-108532747D01*
X193439515Y-108548231D01*
X193402779Y-108572778D01*
X193378232Y-108609515D01*
X193378230Y-108609517D01*
X193305530Y-108718321D01*
X193271381Y-108890000D01*
X193280001Y-108933336D01*
X193280000Y-111324953D01*
X193147331Y-111270000D01*
X192902669Y-111270000D01*
X192676630Y-111363628D01*
X192503628Y-111536630D01*
X192410000Y-111762669D01*
X192410000Y-112007331D01*
X192503628Y-112233370D01*
X192676630Y-112406372D01*
X192902669Y-112500000D01*
X193147331Y-112500000D01*
X193291341Y-112440349D01*
X193305529Y-112511678D01*
X193402778Y-112657222D01*
X193439518Y-112681771D01*
X195508231Y-114750485D01*
X195532778Y-114787222D01*
X195569515Y-114811769D01*
X195569516Y-114811770D01*
X195610013Y-114838829D01*
X195678321Y-114884471D01*
X195806664Y-114910000D01*
X195806669Y-114910000D01*
X195850000Y-114918619D01*
X195893331Y-114910000D01*
X199557167Y-114910000D01*
X199522898Y-114932898D01*
X199453277Y-115037093D01*
X199428829Y-115160000D01*
X199428829Y-116160000D01*
X199453277Y-116282907D01*
X199522898Y-116387102D01*
X199627093Y-116456723D01*
X199750000Y-116481171D01*
X200750000Y-116481171D01*
X200872907Y-116456723D01*
X200977102Y-116387102D01*
X201027760Y-116311287D01*
X201202003Y-116427712D01*
X201439734Y-116475000D01*
X201600266Y-116475000D01*
X201837997Y-116427712D01*
X202107582Y-116247582D01*
X202287712Y-115977997D01*
X202350966Y-115660000D01*
X202287712Y-115342003D01*
X202107582Y-115072418D01*
X201864505Y-114910000D01*
X203087747Y-114910000D01*
X203383396Y-115205650D01*
X203292288Y-115342003D01*
X203229034Y-115660000D01*
X203292288Y-115977997D01*
X203472418Y-116247582D01*
X203742003Y-116427712D01*
X203979734Y-116475000D01*
X204140266Y-116475000D01*
X204377997Y-116427712D01*
X204647582Y-116247582D01*
X204695000Y-116176616D01*
X204742418Y-116247582D01*
X205012003Y-116427712D01*
X205249734Y-116475000D01*
X205410266Y-116475000D01*
X205647997Y-116427712D01*
X205917582Y-116247582D01*
X206097712Y-115977997D01*
X206160966Y-115660000D01*
X206097712Y-115342003D01*
X205917582Y-115072418D01*
X205647997Y-114892288D01*
X205410266Y-114845000D01*
X205249734Y-114845000D01*
X205155915Y-114863662D01*
X204031770Y-113739517D01*
X204007222Y-113702778D01*
X203861679Y-113605529D01*
X203733336Y-113580000D01*
X203733331Y-113580000D01*
X203690000Y-113571381D01*
X203646669Y-113580000D01*
X203499742Y-113580000D01*
X203499732Y-113579998D01*
X203499727Y-113579998D01*
X203456396Y-113571379D01*
X203413065Y-113579998D01*
X200959744Y-113579998D01*
X201081372Y-113458370D01*
X201175000Y-113232331D01*
X201175000Y-112987669D01*
X201081372Y-112761630D01*
X200908370Y-112588628D01*
X200682331Y-112495000D01*
X200437669Y-112495000D01*
X200211630Y-112588628D01*
X200038628Y-112761630D01*
X199945000Y-112987669D01*
X199945000Y-113232331D01*
X200038628Y-113458370D01*
X200160256Y-113579998D01*
X197972691Y-113579998D01*
X198138370Y-113511372D01*
X198311372Y-113338370D01*
X198405000Y-113112331D01*
X198405000Y-112867669D01*
X198311372Y-112641630D01*
X198138370Y-112468628D01*
X197912331Y-112375000D01*
X197667669Y-112375000D01*
X197441630Y-112468628D01*
X197268628Y-112641630D01*
X197175000Y-112867669D01*
X197175000Y-113112331D01*
X197268628Y-113338370D01*
X197441630Y-113511372D01*
X197607309Y-113579998D01*
X196218650Y-113579998D01*
X194610002Y-111971351D01*
X194610002Y-109622251D01*
X195600485Y-108631769D01*
X195637222Y-108607222D01*
X195673601Y-108552778D01*
X195700742Y-108512158D01*
X195734471Y-108461679D01*
X195760000Y-108333336D01*
X195760000Y-108333331D01*
X195768619Y-108290000D01*
X195767146Y-108282596D01*
X195871372Y-108178370D01*
X195938640Y-108015971D01*
X195968628Y-108088370D01*
X196141630Y-108261372D01*
X196367669Y-108355000D01*
X196612331Y-108355000D01*
X196838370Y-108261372D01*
X196999996Y-108099746D01*
X196999996Y-110876665D01*
X196991377Y-110919996D01*
X196999996Y-110963327D01*
X196999996Y-110963331D01*
X197025525Y-111091674D01*
X197122774Y-111237218D01*
X197159514Y-111261767D01*
X198535000Y-112637254D01*
X198535000Y-112812331D01*
X198628628Y-113038370D01*
X198801630Y-113211372D01*
X199027669Y-113305000D01*
X199272331Y-113305000D01*
X199498370Y-113211372D01*
X199671372Y-113038370D01*
X199765000Y-112812331D01*
X199765000Y-112567669D01*
X199671372Y-112341630D01*
X199544742Y-112215000D01*
X199681372Y-112078370D01*
X199775000Y-111852331D01*
X199775000Y-111607669D01*
X199681372Y-111381630D01*
X199544742Y-111245000D01*
X199620000Y-111169742D01*
X199681630Y-111231372D01*
X199907669Y-111325000D01*
X200152331Y-111325000D01*
X200378370Y-111231372D01*
X200551372Y-111058370D01*
X200645000Y-110832331D01*
X200645000Y-110587669D01*
X200551372Y-110361630D01*
X200378370Y-110188628D01*
X200152331Y-110095000D01*
X200037254Y-110095000D01*
X199410000Y-109467747D01*
X199410000Y-109299742D01*
X199491372Y-109218370D01*
X199585000Y-108992331D01*
X199585000Y-108747669D01*
X199491372Y-108521630D01*
X199318370Y-108348628D01*
X199092331Y-108255000D01*
X198847669Y-108255000D01*
X198780000Y-108283029D01*
X198780000Y-105140000D01*
X201351381Y-105140000D01*
X201360001Y-105183336D01*
X201360000Y-109256669D01*
X201351381Y-109300000D01*
X201360000Y-109343331D01*
X201360000Y-109343335D01*
X201385529Y-109471678D01*
X201482778Y-109617222D01*
X201519518Y-109641771D01*
X205575000Y-113697254D01*
X205575000Y-113812331D01*
X205668628Y-114038370D01*
X205841630Y-114211372D01*
X206067669Y-114305000D01*
X206312331Y-114305000D01*
X206538370Y-114211372D01*
X206711372Y-114038370D01*
X206805000Y-113812331D01*
X206805000Y-113567669D01*
X206711372Y-113341630D01*
X206538370Y-113168628D01*
X206312331Y-113075000D01*
X206197254Y-113075000D01*
X204579923Y-111457669D01*
X217345000Y-111457669D01*
X217345000Y-111702331D01*
X217438628Y-111928370D01*
X217611630Y-112101372D01*
X217837669Y-112195000D01*
X218082331Y-112195000D01*
X218308370Y-112101372D01*
X218481372Y-111928370D01*
X218575000Y-111702331D01*
X218575000Y-111457669D01*
X218481372Y-111231630D01*
X218308370Y-111058628D01*
X218082331Y-110965000D01*
X217837669Y-110965000D01*
X217611630Y-111058628D01*
X217438628Y-111231630D01*
X217345000Y-111457669D01*
X204579923Y-111457669D01*
X202539923Y-109417669D01*
X221375000Y-109417669D01*
X221375000Y-109662331D01*
X221468628Y-109888370D01*
X221641630Y-110061372D01*
X221867669Y-110155000D01*
X222112331Y-110155000D01*
X222338370Y-110061372D01*
X222511372Y-109888370D01*
X222605000Y-109662331D01*
X222605000Y-109417669D01*
X222511372Y-109191630D01*
X222338370Y-109018628D01*
X222112331Y-108925000D01*
X221867669Y-108925000D01*
X221641630Y-109018628D01*
X221468628Y-109191630D01*
X221375000Y-109417669D01*
X202539923Y-109417669D01*
X202240000Y-109117747D01*
X202240000Y-106577669D01*
X224125000Y-106577669D01*
X224125000Y-106822331D01*
X224218628Y-107048370D01*
X224391630Y-107221372D01*
X224617669Y-107315000D01*
X224732747Y-107315000D01*
X226830000Y-109412254D01*
X226830001Y-114157745D01*
X226407747Y-114580000D01*
X225719742Y-114580000D01*
X225638370Y-114498628D01*
X225412331Y-114405000D01*
X225167669Y-114405000D01*
X224941630Y-114498628D01*
X224768628Y-114671630D01*
X224675000Y-114897669D01*
X224675000Y-115142331D01*
X224768628Y-115368370D01*
X224941630Y-115541372D01*
X225167669Y-115635000D01*
X225412331Y-115635000D01*
X225638370Y-115541372D01*
X225719742Y-115460000D01*
X226546669Y-115460000D01*
X226590000Y-115468619D01*
X226633331Y-115460000D01*
X226633336Y-115460000D01*
X226761679Y-115434471D01*
X226907222Y-115337222D01*
X226931771Y-115300482D01*
X227293714Y-114938539D01*
X227995000Y-114938539D01*
X227995000Y-115501461D01*
X228210421Y-116021533D01*
X228608467Y-116419579D01*
X229128539Y-116635000D01*
X229691461Y-116635000D01*
X230211533Y-116419579D01*
X230609579Y-116021533D01*
X230825000Y-115501461D01*
X230825000Y-114938539D01*
X230609579Y-114418467D01*
X230211533Y-114020421D01*
X229691461Y-113805000D01*
X229128539Y-113805000D01*
X228608467Y-114020421D01*
X228210421Y-114418467D01*
X227995000Y-114938539D01*
X227293714Y-114938539D01*
X227550485Y-114681769D01*
X227587222Y-114657222D01*
X227621763Y-114605529D01*
X227684470Y-114511681D01*
X227684470Y-114511680D01*
X227684471Y-114511679D01*
X227710000Y-114383336D01*
X227710000Y-114383332D01*
X227718619Y-114340001D01*
X227710000Y-114296670D01*
X227710000Y-109273330D01*
X227718619Y-109229999D01*
X227710000Y-109186668D01*
X227710000Y-109186664D01*
X227684471Y-109058321D01*
X227587222Y-108912778D01*
X227550486Y-108888232D01*
X225355000Y-106692747D01*
X225355000Y-106577669D01*
X225261372Y-106351630D01*
X225088370Y-106178628D01*
X224862331Y-106085000D01*
X224617669Y-106085000D01*
X224391630Y-106178628D01*
X224218628Y-106351630D01*
X224125000Y-106577669D01*
X202240000Y-106577669D01*
X202240000Y-105322253D01*
X203587254Y-103975000D01*
X203702331Y-103975000D01*
X203928370Y-103881372D01*
X204101372Y-103708370D01*
X204195000Y-103482331D01*
X204195000Y-103237669D01*
X204101372Y-103011630D01*
X203928370Y-102838628D01*
X203702331Y-102745000D01*
X203457669Y-102745000D01*
X203231630Y-102838628D01*
X203058628Y-103011630D01*
X202965000Y-103237669D01*
X202965000Y-103352746D01*
X201519516Y-104798231D01*
X201482779Y-104822778D01*
X201458232Y-104859515D01*
X201458230Y-104859517D01*
X201385530Y-104968321D01*
X201351381Y-105140000D01*
X198780000Y-105140000D01*
X198780000Y-101955000D01*
X198872331Y-101955000D01*
X199098370Y-101861372D01*
X199271372Y-101688370D01*
X199365000Y-101462331D01*
X199365000Y-101217669D01*
X199271372Y-100991630D01*
X199098370Y-100818628D01*
X198872331Y-100725000D01*
X198627669Y-100725000D01*
X198401630Y-100818628D01*
X198228628Y-100991630D01*
X198135000Y-101217669D01*
X198135000Y-101332747D01*
X198059515Y-101408231D01*
X198022779Y-101432778D01*
X197998232Y-101469515D01*
X197998230Y-101469517D01*
X197925530Y-101578321D01*
X197891381Y-101750000D01*
X197900001Y-101793336D01*
X197900001Y-103517747D01*
X195695000Y-101312747D01*
X195695000Y-101197669D01*
X195601372Y-100971630D01*
X195428370Y-100798628D01*
X195202331Y-100705000D01*
X194957669Y-100705000D01*
X194731630Y-100798628D01*
X194558628Y-100971630D01*
X194530878Y-101038624D01*
X192149923Y-98657669D01*
X214335000Y-98657669D01*
X214335000Y-98902331D01*
X214428628Y-99128370D01*
X214480258Y-99180000D01*
X214428628Y-99231630D01*
X214335000Y-99457669D01*
X214335000Y-99702331D01*
X214428628Y-99928370D01*
X214480258Y-99980000D01*
X214428628Y-100031630D01*
X214335000Y-100257669D01*
X214335000Y-100502331D01*
X214428628Y-100728370D01*
X214601630Y-100901372D01*
X214827669Y-100995000D01*
X215072331Y-100995000D01*
X215298370Y-100901372D01*
X215355000Y-100844742D01*
X215401630Y-100891372D01*
X215627669Y-100985000D01*
X215872331Y-100985000D01*
X216098370Y-100891372D01*
X216145000Y-100844742D01*
X216201630Y-100901372D01*
X216427669Y-100995000D01*
X216672331Y-100995000D01*
X216898370Y-100901372D01*
X217071372Y-100728370D01*
X217165000Y-100502331D01*
X217165000Y-100257669D01*
X217071372Y-100031630D01*
X217019742Y-99980000D01*
X217071372Y-99928370D01*
X217165000Y-99702331D01*
X217165000Y-99457669D01*
X217071372Y-99231630D01*
X217019742Y-99180000D01*
X217071372Y-99128370D01*
X217165000Y-98902331D01*
X217165000Y-98657669D01*
X217071372Y-98431630D01*
X216898370Y-98258628D01*
X216672331Y-98165000D01*
X216427669Y-98165000D01*
X216201630Y-98258628D01*
X216150000Y-98310258D01*
X216098370Y-98258628D01*
X215872331Y-98165000D01*
X215627669Y-98165000D01*
X215401630Y-98258628D01*
X215350000Y-98310258D01*
X215298370Y-98258628D01*
X215072331Y-98165000D01*
X214827669Y-98165000D01*
X214601630Y-98258628D01*
X214428628Y-98431630D01*
X214335000Y-98657669D01*
X192149923Y-98657669D01*
X189580000Y-96087747D01*
X189580000Y-94599742D01*
X189661372Y-94518370D01*
X189755000Y-94292331D01*
X189755000Y-94047669D01*
X189661372Y-93821630D01*
X189488370Y-93648628D01*
X189262331Y-93555000D01*
X189017669Y-93555000D01*
X188791630Y-93648628D01*
X188618628Y-93821630D01*
X188525000Y-94047669D01*
X188380000Y-94047669D01*
X188380000Y-86388539D01*
X188745000Y-86388539D01*
X188745000Y-86951461D01*
X188960421Y-87471533D01*
X189358467Y-87869579D01*
X189878539Y-88085000D01*
X190441461Y-88085000D01*
X190961533Y-87869579D01*
X191221112Y-87610000D01*
X192901381Y-87610000D01*
X192910001Y-87653336D01*
X192910000Y-92676669D01*
X192901381Y-92720000D01*
X192910000Y-92763331D01*
X192910000Y-92763335D01*
X192935529Y-92891678D01*
X193032778Y-93037222D01*
X193069518Y-93061771D01*
X195315000Y-95307254D01*
X195315000Y-95422331D01*
X195408628Y-95648370D01*
X195581630Y-95821372D01*
X195807669Y-95915000D01*
X196052331Y-95915000D01*
X196278370Y-95821372D01*
X196451372Y-95648370D01*
X196545000Y-95422331D01*
X196545000Y-95177669D01*
X196451372Y-94951630D01*
X196278370Y-94778628D01*
X196052331Y-94685000D01*
X195937254Y-94685000D01*
X193790000Y-92537747D01*
X193790000Y-92287669D01*
X197895000Y-92287669D01*
X197895000Y-92532331D01*
X197988628Y-92758370D01*
X198161630Y-92931372D01*
X198387669Y-93025000D01*
X198632331Y-93025000D01*
X198858370Y-92931372D01*
X199031372Y-92758370D01*
X199085509Y-92627669D01*
X203215000Y-92627669D01*
X203215000Y-92872331D01*
X203308628Y-93098370D01*
X203360258Y-93150000D01*
X203308628Y-93201630D01*
X203215000Y-93427669D01*
X203215000Y-93672331D01*
X203308628Y-93898370D01*
X203481630Y-94071372D01*
X203707669Y-94165000D01*
X203952331Y-94165000D01*
X204178370Y-94071372D01*
X204225000Y-94024742D01*
X204271630Y-94071372D01*
X204497669Y-94165000D01*
X204742331Y-94165000D01*
X204968370Y-94071372D01*
X205141372Y-93898370D01*
X205235000Y-93672331D01*
X205235000Y-93427669D01*
X205141372Y-93201630D01*
X205094742Y-93155000D01*
X205141372Y-93108370D01*
X205235000Y-92882331D01*
X205235000Y-92637669D01*
X205141372Y-92411630D01*
X204968370Y-92238628D01*
X204742331Y-92145000D01*
X204497669Y-92145000D01*
X204271630Y-92238628D01*
X204230000Y-92280258D01*
X204178370Y-92228628D01*
X203952331Y-92135000D01*
X203707669Y-92135000D01*
X203481630Y-92228628D01*
X203308628Y-92401630D01*
X203215000Y-92627669D01*
X199085509Y-92627669D01*
X199125000Y-92532331D01*
X199125000Y-92287669D01*
X199031372Y-92061630D01*
X198858370Y-91888628D01*
X198632331Y-91795000D01*
X198387669Y-91795000D01*
X198161630Y-91888628D01*
X197988628Y-92061630D01*
X197895000Y-92287669D01*
X193790000Y-92287669D01*
X193790000Y-90037669D01*
X201795000Y-90037669D01*
X201795000Y-90282331D01*
X201888628Y-90508370D01*
X202061630Y-90681372D01*
X202287669Y-90775000D01*
X202532331Y-90775000D01*
X202758370Y-90681372D01*
X202931372Y-90508370D01*
X203025000Y-90282331D01*
X203025000Y-90037669D01*
X202931372Y-89811630D01*
X202758370Y-89638628D01*
X202532331Y-89545000D01*
X202287669Y-89545000D01*
X202061630Y-89638628D01*
X201888628Y-89811630D01*
X201795000Y-90037669D01*
X193790000Y-90037669D01*
X193790000Y-87792253D01*
X193882253Y-87700000D01*
X205561381Y-87700000D01*
X205570001Y-87743336D01*
X205570000Y-93116669D01*
X205561381Y-93160000D01*
X205570000Y-93203331D01*
X205570000Y-93203335D01*
X205595529Y-93331678D01*
X205692778Y-93477222D01*
X205729518Y-93501771D01*
X207555000Y-95327254D01*
X207555000Y-95442331D01*
X207648628Y-95668370D01*
X207821630Y-95841372D01*
X208047669Y-95935000D01*
X208292331Y-95935000D01*
X208518370Y-95841372D01*
X208691372Y-95668370D01*
X208785000Y-95442331D01*
X208785000Y-95197669D01*
X208691372Y-94971630D01*
X208518370Y-94798628D01*
X208292331Y-94705000D01*
X208177254Y-94705000D01*
X206450000Y-92977747D01*
X206450000Y-92287669D01*
X210215000Y-92287669D01*
X210215000Y-92532331D01*
X210308628Y-92758370D01*
X210481630Y-92931372D01*
X210707669Y-93025000D01*
X210952331Y-93025000D01*
X211178370Y-92931372D01*
X211351372Y-92758370D01*
X211405509Y-92627669D01*
X215415000Y-92627669D01*
X215415000Y-92872331D01*
X215508628Y-93098370D01*
X215560258Y-93150000D01*
X215508628Y-93201630D01*
X215415000Y-93427669D01*
X215415000Y-93672331D01*
X215508628Y-93898370D01*
X215681630Y-94071372D01*
X215907669Y-94165000D01*
X216152331Y-94165000D01*
X216378370Y-94071372D01*
X216430000Y-94019742D01*
X216481630Y-94071372D01*
X216707669Y-94165000D01*
X216952331Y-94165000D01*
X217178370Y-94071372D01*
X217351372Y-93898370D01*
X217445000Y-93672331D01*
X217445000Y-93427669D01*
X217351372Y-93201630D01*
X217304742Y-93155000D01*
X217351372Y-93108370D01*
X217445000Y-92882331D01*
X217445000Y-92637669D01*
X217351372Y-92411630D01*
X217178370Y-92238628D01*
X216952331Y-92145000D01*
X216707669Y-92145000D01*
X216481630Y-92238628D01*
X216435000Y-92285258D01*
X216378370Y-92228628D01*
X216152331Y-92135000D01*
X215907669Y-92135000D01*
X215681630Y-92228628D01*
X215508628Y-92401630D01*
X215415000Y-92627669D01*
X211405509Y-92627669D01*
X211445000Y-92532331D01*
X211445000Y-92287669D01*
X211351372Y-92061630D01*
X211178370Y-91888628D01*
X210952331Y-91795000D01*
X210707669Y-91795000D01*
X210481630Y-91888628D01*
X210308628Y-92061630D01*
X210215000Y-92287669D01*
X206450000Y-92287669D01*
X206450000Y-89987669D01*
X214125000Y-89987669D01*
X214125000Y-90232331D01*
X214218628Y-90458370D01*
X214391630Y-90631372D01*
X214617669Y-90725000D01*
X214862331Y-90725000D01*
X215088370Y-90631372D01*
X215261372Y-90458370D01*
X215355000Y-90232331D01*
X215355000Y-89987669D01*
X215261372Y-89761630D01*
X215088370Y-89588628D01*
X214862331Y-89495000D01*
X214617669Y-89495000D01*
X214391630Y-89588628D01*
X214218628Y-89761630D01*
X214125000Y-89987669D01*
X206450000Y-89987669D01*
X206450000Y-87882253D01*
X206722253Y-87610000D01*
X217481381Y-87610000D01*
X217490001Y-87653336D01*
X217490000Y-93226669D01*
X217481381Y-93270000D01*
X217490000Y-93313331D01*
X217490000Y-93313335D01*
X217515529Y-93441678D01*
X217612778Y-93587222D01*
X217649518Y-93611771D01*
X219325000Y-95287253D01*
X219325000Y-95402331D01*
X219418628Y-95628370D01*
X219591630Y-95801372D01*
X219817669Y-95895000D01*
X220062331Y-95895000D01*
X220288370Y-95801372D01*
X220322073Y-95767669D01*
X222385000Y-95767669D01*
X222385000Y-96012331D01*
X222478628Y-96238370D01*
X222651630Y-96411372D01*
X222877669Y-96505000D01*
X223122331Y-96505000D01*
X223348370Y-96411372D01*
X223450000Y-96309742D01*
X223541630Y-96401372D01*
X223767669Y-96495000D01*
X224012331Y-96495000D01*
X224238370Y-96401372D01*
X224319742Y-96320000D01*
X224787747Y-96320000D01*
X225870000Y-97402254D01*
X225870001Y-99986664D01*
X225861381Y-100030000D01*
X225895530Y-100201679D01*
X225968230Y-100310483D01*
X225968232Y-100310485D01*
X225992779Y-100347222D01*
X226029516Y-100371769D01*
X226195000Y-100537253D01*
X226195000Y-100652331D01*
X226288628Y-100878370D01*
X226461630Y-101051372D01*
X226687669Y-101145000D01*
X226932331Y-101145000D01*
X227158370Y-101051372D01*
X227331372Y-100878370D01*
X227425000Y-100652331D01*
X227425000Y-100407669D01*
X227331372Y-100181630D01*
X227158370Y-100008628D01*
X226932331Y-99915000D01*
X226817253Y-99915000D01*
X226750000Y-99847747D01*
X226750000Y-97263330D01*
X226758619Y-97219999D01*
X226750000Y-97176668D01*
X226750000Y-97176664D01*
X226724471Y-97048321D01*
X226627222Y-96902778D01*
X226590486Y-96878232D01*
X225311771Y-95599518D01*
X225287222Y-95562778D01*
X225141679Y-95465529D01*
X225013336Y-95440000D01*
X225013331Y-95440000D01*
X224970000Y-95431381D01*
X224926669Y-95440000D01*
X224319742Y-95440000D01*
X224238370Y-95358628D01*
X224012331Y-95265000D01*
X223767669Y-95265000D01*
X223541630Y-95358628D01*
X223440000Y-95460258D01*
X223348370Y-95368628D01*
X223122331Y-95275000D01*
X222877669Y-95275000D01*
X222651630Y-95368628D01*
X222478628Y-95541630D01*
X222385000Y-95767669D01*
X220322073Y-95767669D01*
X220461372Y-95628370D01*
X220555000Y-95402331D01*
X220555000Y-95157669D01*
X220461372Y-94931630D01*
X220288370Y-94758628D01*
X220062331Y-94665000D01*
X219947253Y-94665000D01*
X218370000Y-93087747D01*
X218370000Y-92277669D01*
X222265000Y-92277669D01*
X222265000Y-92522331D01*
X222358628Y-92748370D01*
X222531630Y-92921372D01*
X222757669Y-93015000D01*
X223002331Y-93015000D01*
X223228370Y-92921372D01*
X223401372Y-92748370D01*
X223455509Y-92617669D01*
X227285000Y-92617669D01*
X227285000Y-92862331D01*
X227378628Y-93088370D01*
X227430258Y-93140000D01*
X227378628Y-93191630D01*
X227285000Y-93417669D01*
X227285000Y-93662331D01*
X227378628Y-93888370D01*
X227551630Y-94061372D01*
X227777669Y-94155000D01*
X228022331Y-94155000D01*
X228248370Y-94061372D01*
X228300000Y-94009742D01*
X228351630Y-94061372D01*
X228577669Y-94155000D01*
X228822331Y-94155000D01*
X229048370Y-94061372D01*
X229221372Y-93888370D01*
X229315000Y-93662331D01*
X229315000Y-93417669D01*
X229221372Y-93191630D01*
X229174742Y-93145000D01*
X229221372Y-93098370D01*
X229315000Y-92872331D01*
X229315000Y-92627669D01*
X229221372Y-92401630D01*
X229048370Y-92228628D01*
X228822331Y-92135000D01*
X228577669Y-92135000D01*
X228351630Y-92228628D01*
X228305000Y-92275258D01*
X228248370Y-92218628D01*
X228022331Y-92125000D01*
X227777669Y-92125000D01*
X227551630Y-92218628D01*
X227378628Y-92391630D01*
X227285000Y-92617669D01*
X223455509Y-92617669D01*
X223495000Y-92522331D01*
X223495000Y-92277669D01*
X223401372Y-92051630D01*
X223228370Y-91878628D01*
X223002331Y-91785000D01*
X222757669Y-91785000D01*
X222531630Y-91878628D01*
X222358628Y-92051630D01*
X222265000Y-92277669D01*
X218370000Y-92277669D01*
X218370000Y-89927669D01*
X226005000Y-89927669D01*
X226005000Y-90172331D01*
X226098628Y-90398370D01*
X226271630Y-90571372D01*
X226497669Y-90665000D01*
X226742331Y-90665000D01*
X226968370Y-90571372D01*
X227141372Y-90398370D01*
X227235000Y-90172331D01*
X227235000Y-89927669D01*
X227141372Y-89701630D01*
X226968370Y-89528628D01*
X226742331Y-89435000D01*
X226497669Y-89435000D01*
X226271630Y-89528628D01*
X226098628Y-89701630D01*
X226005000Y-89927669D01*
X218370000Y-89927669D01*
X218370000Y-87792253D01*
X218802254Y-87360000D01*
X219490258Y-87360000D01*
X219571630Y-87441372D01*
X219797669Y-87535000D01*
X220042331Y-87535000D01*
X220268370Y-87441372D01*
X220441372Y-87268370D01*
X220535000Y-87042331D01*
X220535000Y-86797669D01*
X220441372Y-86571630D01*
X220268370Y-86398628D01*
X220195729Y-86368539D01*
X227985000Y-86368539D01*
X227985000Y-86931461D01*
X228200421Y-87451533D01*
X228598467Y-87849579D01*
X229118539Y-88065000D01*
X229681461Y-88065000D01*
X230201533Y-87849579D01*
X230599579Y-87451533D01*
X230815000Y-86931461D01*
X230815000Y-86368539D01*
X230599579Y-85848467D01*
X230201533Y-85450421D01*
X229681461Y-85235000D01*
X229118539Y-85235000D01*
X228598467Y-85450421D01*
X228200421Y-85848467D01*
X227985000Y-86368539D01*
X220195729Y-86368539D01*
X220042331Y-86305000D01*
X219797669Y-86305000D01*
X219571630Y-86398628D01*
X219490258Y-86480000D01*
X218663330Y-86480000D01*
X218619999Y-86471381D01*
X218576668Y-86480000D01*
X218576664Y-86480000D01*
X218448321Y-86505529D01*
X218448320Y-86505530D01*
X218448319Y-86505530D01*
X218403423Y-86535529D01*
X218302778Y-86602778D01*
X218278231Y-86639515D01*
X217649516Y-87268231D01*
X217612779Y-87292778D01*
X217588232Y-87329515D01*
X217588230Y-87329517D01*
X217515530Y-87438321D01*
X217481381Y-87610000D01*
X206722253Y-87610000D01*
X206942254Y-87390000D01*
X207550258Y-87390000D01*
X207631630Y-87471372D01*
X207857669Y-87565000D01*
X208102331Y-87565000D01*
X208328370Y-87471372D01*
X208501372Y-87298370D01*
X208595000Y-87072331D01*
X208595000Y-86827669D01*
X208501372Y-86601630D01*
X208328370Y-86428628D01*
X208102331Y-86335000D01*
X207857669Y-86335000D01*
X207631630Y-86428628D01*
X207550258Y-86510000D01*
X206803330Y-86510000D01*
X206759999Y-86501381D01*
X206716668Y-86510000D01*
X206716664Y-86510000D01*
X206588321Y-86535529D01*
X206588319Y-86535530D01*
X206588320Y-86535530D01*
X206479516Y-86608230D01*
X206479515Y-86608231D01*
X206442778Y-86632778D01*
X206418231Y-86669515D01*
X205729516Y-87358231D01*
X205692779Y-87382778D01*
X205668232Y-87419515D01*
X205668230Y-87419517D01*
X205595530Y-87528321D01*
X205561381Y-87700000D01*
X193882253Y-87700000D01*
X194352254Y-87230000D01*
X194920258Y-87230000D01*
X195001630Y-87311372D01*
X195227669Y-87405000D01*
X195472331Y-87405000D01*
X195698370Y-87311372D01*
X195871372Y-87138370D01*
X195965000Y-86912331D01*
X195965000Y-86667669D01*
X195871372Y-86441630D01*
X195698370Y-86268628D01*
X195472331Y-86175000D01*
X195227669Y-86175000D01*
X195001630Y-86268628D01*
X194920258Y-86350000D01*
X194213330Y-86350000D01*
X194169999Y-86341381D01*
X194126668Y-86350000D01*
X194126664Y-86350000D01*
X193998321Y-86375529D01*
X193963751Y-86398628D01*
X193889516Y-86448230D01*
X193889515Y-86448231D01*
X193852778Y-86472778D01*
X193828231Y-86509515D01*
X193069516Y-87268231D01*
X193032779Y-87292778D01*
X193008232Y-87329515D01*
X193008230Y-87329517D01*
X192935530Y-87438321D01*
X192901381Y-87610000D01*
X191221112Y-87610000D01*
X191359579Y-87471533D01*
X191575000Y-86951461D01*
X191575000Y-86388539D01*
X191359579Y-85868467D01*
X190961533Y-85470421D01*
X190441461Y-85255000D01*
X189878539Y-85255000D01*
X189358467Y-85470421D01*
X188960421Y-85868467D01*
X188745000Y-86388539D01*
X188380000Y-86388539D01*
X188380000Y-84880000D01*
X231180001Y-84880000D01*
X231180000Y-117000000D01*
X231180000Y-117000000D01*
G37*
X231180000Y-117000000D02*
X188380000Y-117000000D01*
X188380000Y-114958539D01*
X188735000Y-114958539D01*
X188735000Y-115521461D01*
X188950421Y-116041533D01*
X189348467Y-116439579D01*
X189868539Y-116655000D01*
X190431461Y-116655000D01*
X190951533Y-116439579D01*
X191349579Y-116041533D01*
X191521007Y-115627669D01*
X195215000Y-115627669D01*
X195215000Y-115872331D01*
X195308628Y-116098370D01*
X195481630Y-116271372D01*
X195707669Y-116365000D01*
X195952331Y-116365000D01*
X196178370Y-116271372D01*
X196351372Y-116098370D01*
X196445000Y-115872331D01*
X196445000Y-115627669D01*
X196351372Y-115401630D01*
X196178370Y-115228628D01*
X195952331Y-115135000D01*
X195707669Y-115135000D01*
X195481630Y-115228628D01*
X195308628Y-115401630D01*
X195215000Y-115627669D01*
X191521007Y-115627669D01*
X191565000Y-115521461D01*
X191565000Y-114958539D01*
X191349579Y-114438467D01*
X190951533Y-114040421D01*
X190431461Y-113825000D01*
X189868539Y-113825000D01*
X189348467Y-114040421D01*
X188950421Y-114438467D01*
X188735000Y-114958539D01*
X188380000Y-114958539D01*
X188380000Y-94047669D01*
X188525000Y-94047669D01*
X188525000Y-94292331D01*
X188618628Y-94518370D01*
X188700001Y-94599743D01*
X188700000Y-96226669D01*
X188691381Y-96270000D01*
X188700000Y-96313331D01*
X188700000Y-96313335D01*
X188725529Y-96441678D01*
X188822778Y-96587222D01*
X188859518Y-96611771D01*
X196999997Y-104752251D01*
X196999997Y-107380255D01*
X196838370Y-107218628D01*
X196612331Y-107125000D01*
X196497253Y-107125000D01*
X196271771Y-106899518D01*
X196247222Y-106862778D01*
X196101679Y-106765529D01*
X195973336Y-106740000D01*
X195973331Y-106740000D01*
X195930000Y-106731381D01*
X195886669Y-106740000D01*
X192133330Y-106740000D01*
X192089999Y-106731381D01*
X192046668Y-106740000D01*
X192046664Y-106740000D01*
X191918321Y-106765529D01*
X191918320Y-106765530D01*
X191918319Y-106765530D01*
X191809515Y-106838231D01*
X191772778Y-106862778D01*
X191748231Y-106899515D01*
X189542747Y-109105000D01*
X189427669Y-109105000D01*
X189201630Y-109198628D01*
X189028628Y-109371630D01*
X188935000Y-109597669D01*
X188935000Y-109842331D01*
X189028628Y-110068370D01*
X189201630Y-110241372D01*
X189427669Y-110335000D01*
X189672331Y-110335000D01*
X189898370Y-110241372D01*
X190071372Y-110068370D01*
X190165000Y-109842331D01*
X190165000Y-109727253D01*
X192272254Y-107620000D01*
X194771314Y-107620000D01*
X194735000Y-107707669D01*
X194735000Y-107952331D01*
X194822989Y-108164757D01*
X194651340Y-108336406D01*
X194591372Y-108191630D01*
X194418370Y-108018628D01*
X194192331Y-107925000D01*
X193947669Y-107925000D01*
X193721630Y-108018628D01*
X193548628Y-108191630D01*
X193455000Y-108417669D01*
X193455000Y-108532747D01*
X193439515Y-108548231D01*
X193402779Y-108572778D01*
X193378232Y-108609515D01*
X193378230Y-108609517D01*
X193305530Y-108718321D01*
X193271381Y-108890000D01*
X193280001Y-108933336D01*
X193280000Y-111324953D01*
X193147331Y-111270000D01*
X192902669Y-111270000D01*
X192676630Y-111363628D01*
X192503628Y-111536630D01*
X192410000Y-111762669D01*
X192410000Y-112007331D01*
X192503628Y-112233370D01*
X192676630Y-112406372D01*
X192902669Y-112500000D01*
X193147331Y-112500000D01*
X193291341Y-112440349D01*
X193305529Y-112511678D01*
X193402778Y-112657222D01*
X193439518Y-112681771D01*
X195508231Y-114750485D01*
X195532778Y-114787222D01*
X195569515Y-114811769D01*
X195569516Y-114811770D01*
X195610013Y-114838829D01*
X195678321Y-114884471D01*
X195806664Y-114910000D01*
X195806669Y-114910000D01*
X195850000Y-114918619D01*
X195893331Y-114910000D01*
X199557167Y-114910000D01*
X199522898Y-114932898D01*
X199453277Y-115037093D01*
X199428829Y-115160000D01*
X199428829Y-116160000D01*
X199453277Y-116282907D01*
X199522898Y-116387102D01*
X199627093Y-116456723D01*
X199750000Y-116481171D01*
X200750000Y-116481171D01*
X200872907Y-116456723D01*
X200977102Y-116387102D01*
X201027760Y-116311287D01*
X201202003Y-116427712D01*
X201439734Y-116475000D01*
X201600266Y-116475000D01*
X201837997Y-116427712D01*
X202107582Y-116247582D01*
X202287712Y-115977997D01*
X202350966Y-115660000D01*
X202287712Y-115342003D01*
X202107582Y-115072418D01*
X201864505Y-114910000D01*
X203087747Y-114910000D01*
X203383396Y-115205650D01*
X203292288Y-115342003D01*
X203229034Y-115660000D01*
X203292288Y-115977997D01*
X203472418Y-116247582D01*
X203742003Y-116427712D01*
X203979734Y-116475000D01*
X204140266Y-116475000D01*
X204377997Y-116427712D01*
X204647582Y-116247582D01*
X204695000Y-116176616D01*
X204742418Y-116247582D01*
X205012003Y-116427712D01*
X205249734Y-116475000D01*
X205410266Y-116475000D01*
X205647997Y-116427712D01*
X205917582Y-116247582D01*
X206097712Y-115977997D01*
X206160966Y-115660000D01*
X206097712Y-115342003D01*
X205917582Y-115072418D01*
X205647997Y-114892288D01*
X205410266Y-114845000D01*
X205249734Y-114845000D01*
X205155915Y-114863662D01*
X204031770Y-113739517D01*
X204007222Y-113702778D01*
X203861679Y-113605529D01*
X203733336Y-113580000D01*
X203733331Y-113580000D01*
X203690000Y-113571381D01*
X203646669Y-113580000D01*
X203499742Y-113580000D01*
X203499732Y-113579998D01*
X203499727Y-113579998D01*
X203456396Y-113571379D01*
X203413065Y-113579998D01*
X200959744Y-113579998D01*
X201081372Y-113458370D01*
X201175000Y-113232331D01*
X201175000Y-112987669D01*
X201081372Y-112761630D01*
X200908370Y-112588628D01*
X200682331Y-112495000D01*
X200437669Y-112495000D01*
X200211630Y-112588628D01*
X200038628Y-112761630D01*
X199945000Y-112987669D01*
X199945000Y-113232331D01*
X200038628Y-113458370D01*
X200160256Y-113579998D01*
X197972691Y-113579998D01*
X198138370Y-113511372D01*
X198311372Y-113338370D01*
X198405000Y-113112331D01*
X198405000Y-112867669D01*
X198311372Y-112641630D01*
X198138370Y-112468628D01*
X197912331Y-112375000D01*
X197667669Y-112375000D01*
X197441630Y-112468628D01*
X197268628Y-112641630D01*
X197175000Y-112867669D01*
X197175000Y-113112331D01*
X197268628Y-113338370D01*
X197441630Y-113511372D01*
X197607309Y-113579998D01*
X196218650Y-113579998D01*
X194610002Y-111971351D01*
X194610002Y-109622251D01*
X195600485Y-108631769D01*
X195637222Y-108607222D01*
X195673601Y-108552778D01*
X195700742Y-108512158D01*
X195734471Y-108461679D01*
X195760000Y-108333336D01*
X195760000Y-108333331D01*
X195768619Y-108290000D01*
X195767146Y-108282596D01*
X195871372Y-108178370D01*
X195938640Y-108015971D01*
X195968628Y-108088370D01*
X196141630Y-108261372D01*
X196367669Y-108355000D01*
X196612331Y-108355000D01*
X196838370Y-108261372D01*
X196999996Y-108099746D01*
X196999996Y-110876665D01*
X196991377Y-110919996D01*
X196999996Y-110963327D01*
X196999996Y-110963331D01*
X197025525Y-111091674D01*
X197122774Y-111237218D01*
X197159514Y-111261767D01*
X198535000Y-112637254D01*
X198535000Y-112812331D01*
X198628628Y-113038370D01*
X198801630Y-113211372D01*
X199027669Y-113305000D01*
X199272331Y-113305000D01*
X199498370Y-113211372D01*
X199671372Y-113038370D01*
X199765000Y-112812331D01*
X199765000Y-112567669D01*
X199671372Y-112341630D01*
X199544742Y-112215000D01*
X199681372Y-112078370D01*
X199775000Y-111852331D01*
X199775000Y-111607669D01*
X199681372Y-111381630D01*
X199544742Y-111245000D01*
X199620000Y-111169742D01*
X199681630Y-111231372D01*
X199907669Y-111325000D01*
X200152331Y-111325000D01*
X200378370Y-111231372D01*
X200551372Y-111058370D01*
X200645000Y-110832331D01*
X200645000Y-110587669D01*
X200551372Y-110361630D01*
X200378370Y-110188628D01*
X200152331Y-110095000D01*
X200037254Y-110095000D01*
X199410000Y-109467747D01*
X199410000Y-109299742D01*
X199491372Y-109218370D01*
X199585000Y-108992331D01*
X199585000Y-108747669D01*
X199491372Y-108521630D01*
X199318370Y-108348628D01*
X199092331Y-108255000D01*
X198847669Y-108255000D01*
X198780000Y-108283029D01*
X198780000Y-105140000D01*
X201351381Y-105140000D01*
X201360001Y-105183336D01*
X201360000Y-109256669D01*
X201351381Y-109300000D01*
X201360000Y-109343331D01*
X201360000Y-109343335D01*
X201385529Y-109471678D01*
X201482778Y-109617222D01*
X201519518Y-109641771D01*
X205575000Y-113697254D01*
X205575000Y-113812331D01*
X205668628Y-114038370D01*
X205841630Y-114211372D01*
X206067669Y-114305000D01*
X206312331Y-114305000D01*
X206538370Y-114211372D01*
X206711372Y-114038370D01*
X206805000Y-113812331D01*
X206805000Y-113567669D01*
X206711372Y-113341630D01*
X206538370Y-113168628D01*
X206312331Y-113075000D01*
X206197254Y-113075000D01*
X204579923Y-111457669D01*
X217345000Y-111457669D01*
X217345000Y-111702331D01*
X217438628Y-111928370D01*
X217611630Y-112101372D01*
X217837669Y-112195000D01*
X218082331Y-112195000D01*
X218308370Y-112101372D01*
X218481372Y-111928370D01*
X218575000Y-111702331D01*
X218575000Y-111457669D01*
X218481372Y-111231630D01*
X218308370Y-111058628D01*
X218082331Y-110965000D01*
X217837669Y-110965000D01*
X217611630Y-111058628D01*
X217438628Y-111231630D01*
X217345000Y-111457669D01*
X204579923Y-111457669D01*
X202539923Y-109417669D01*
X221375000Y-109417669D01*
X221375000Y-109662331D01*
X221468628Y-109888370D01*
X221641630Y-110061372D01*
X221867669Y-110155000D01*
X222112331Y-110155000D01*
X222338370Y-110061372D01*
X222511372Y-109888370D01*
X222605000Y-109662331D01*
X222605000Y-109417669D01*
X222511372Y-109191630D01*
X222338370Y-109018628D01*
X222112331Y-108925000D01*
X221867669Y-108925000D01*
X221641630Y-109018628D01*
X221468628Y-109191630D01*
X221375000Y-109417669D01*
X202539923Y-109417669D01*
X202240000Y-109117747D01*
X202240000Y-106577669D01*
X224125000Y-106577669D01*
X224125000Y-106822331D01*
X224218628Y-107048370D01*
X224391630Y-107221372D01*
X224617669Y-107315000D01*
X224732747Y-107315000D01*
X226830000Y-109412254D01*
X226830001Y-114157745D01*
X226407747Y-114580000D01*
X225719742Y-114580000D01*
X225638370Y-114498628D01*
X225412331Y-114405000D01*
X225167669Y-114405000D01*
X224941630Y-114498628D01*
X224768628Y-114671630D01*
X224675000Y-114897669D01*
X224675000Y-115142331D01*
X224768628Y-115368370D01*
X224941630Y-115541372D01*
X225167669Y-115635000D01*
X225412331Y-115635000D01*
X225638370Y-115541372D01*
X225719742Y-115460000D01*
X226546669Y-115460000D01*
X226590000Y-115468619D01*
X226633331Y-115460000D01*
X226633336Y-115460000D01*
X226761679Y-115434471D01*
X226907222Y-115337222D01*
X226931771Y-115300482D01*
X227293714Y-114938539D01*
X227995000Y-114938539D01*
X227995000Y-115501461D01*
X228210421Y-116021533D01*
X228608467Y-116419579D01*
X229128539Y-116635000D01*
X229691461Y-116635000D01*
X230211533Y-116419579D01*
X230609579Y-116021533D01*
X230825000Y-115501461D01*
X230825000Y-114938539D01*
X230609579Y-114418467D01*
X230211533Y-114020421D01*
X229691461Y-113805000D01*
X229128539Y-113805000D01*
X228608467Y-114020421D01*
X228210421Y-114418467D01*
X227995000Y-114938539D01*
X227293714Y-114938539D01*
X227550485Y-114681769D01*
X227587222Y-114657222D01*
X227621763Y-114605529D01*
X227684470Y-114511681D01*
X227684470Y-114511680D01*
X227684471Y-114511679D01*
X227710000Y-114383336D01*
X227710000Y-114383332D01*
X227718619Y-114340001D01*
X227710000Y-114296670D01*
X227710000Y-109273330D01*
X227718619Y-109229999D01*
X227710000Y-109186668D01*
X227710000Y-109186664D01*
X227684471Y-109058321D01*
X227587222Y-108912778D01*
X227550486Y-108888232D01*
X225355000Y-106692747D01*
X225355000Y-106577669D01*
X225261372Y-106351630D01*
X225088370Y-106178628D01*
X224862331Y-106085000D01*
X224617669Y-106085000D01*
X224391630Y-106178628D01*
X224218628Y-106351630D01*
X224125000Y-106577669D01*
X202240000Y-106577669D01*
X202240000Y-105322253D01*
X203587254Y-103975000D01*
X203702331Y-103975000D01*
X203928370Y-103881372D01*
X204101372Y-103708370D01*
X204195000Y-103482331D01*
X204195000Y-103237669D01*
X204101372Y-103011630D01*
X203928370Y-102838628D01*
X203702331Y-102745000D01*
X203457669Y-102745000D01*
X203231630Y-102838628D01*
X203058628Y-103011630D01*
X202965000Y-103237669D01*
X202965000Y-103352746D01*
X201519516Y-104798231D01*
X201482779Y-104822778D01*
X201458232Y-104859515D01*
X201458230Y-104859517D01*
X201385530Y-104968321D01*
X201351381Y-105140000D01*
X198780000Y-105140000D01*
X198780000Y-101955000D01*
X198872331Y-101955000D01*
X199098370Y-101861372D01*
X199271372Y-101688370D01*
X199365000Y-101462331D01*
X199365000Y-101217669D01*
X199271372Y-100991630D01*
X199098370Y-100818628D01*
X198872331Y-100725000D01*
X198627669Y-100725000D01*
X198401630Y-100818628D01*
X198228628Y-100991630D01*
X198135000Y-101217669D01*
X198135000Y-101332747D01*
X198059515Y-101408231D01*
X198022779Y-101432778D01*
X197998232Y-101469515D01*
X197998230Y-101469517D01*
X197925530Y-101578321D01*
X197891381Y-101750000D01*
X197900001Y-101793336D01*
X197900001Y-103517747D01*
X195695000Y-101312747D01*
X195695000Y-101197669D01*
X195601372Y-100971630D01*
X195428370Y-100798628D01*
X195202331Y-100705000D01*
X194957669Y-100705000D01*
X194731630Y-100798628D01*
X194558628Y-100971630D01*
X194530878Y-101038624D01*
X192149923Y-98657669D01*
X214335000Y-98657669D01*
X214335000Y-98902331D01*
X214428628Y-99128370D01*
X214480258Y-99180000D01*
X214428628Y-99231630D01*
X214335000Y-99457669D01*
X214335000Y-99702331D01*
X214428628Y-99928370D01*
X214480258Y-99980000D01*
X214428628Y-100031630D01*
X214335000Y-100257669D01*
X214335000Y-100502331D01*
X214428628Y-100728370D01*
X214601630Y-100901372D01*
X214827669Y-100995000D01*
X215072331Y-100995000D01*
X215298370Y-100901372D01*
X215355000Y-100844742D01*
X215401630Y-100891372D01*
X215627669Y-100985000D01*
X215872331Y-100985000D01*
X216098370Y-100891372D01*
X216145000Y-100844742D01*
X216201630Y-100901372D01*
X216427669Y-100995000D01*
X216672331Y-100995000D01*
X216898370Y-100901372D01*
X217071372Y-100728370D01*
X217165000Y-100502331D01*
X217165000Y-100257669D01*
X217071372Y-100031630D01*
X217019742Y-99980000D01*
X217071372Y-99928370D01*
X217165000Y-99702331D01*
X217165000Y-99457669D01*
X217071372Y-99231630D01*
X217019742Y-99180000D01*
X217071372Y-99128370D01*
X217165000Y-98902331D01*
X217165000Y-98657669D01*
X217071372Y-98431630D01*
X216898370Y-98258628D01*
X216672331Y-98165000D01*
X216427669Y-98165000D01*
X216201630Y-98258628D01*
X216150000Y-98310258D01*
X216098370Y-98258628D01*
X215872331Y-98165000D01*
X215627669Y-98165000D01*
X215401630Y-98258628D01*
X215350000Y-98310258D01*
X215298370Y-98258628D01*
X215072331Y-98165000D01*
X214827669Y-98165000D01*
X214601630Y-98258628D01*
X214428628Y-98431630D01*
X214335000Y-98657669D01*
X192149923Y-98657669D01*
X189580000Y-96087747D01*
X189580000Y-94599742D01*
X189661372Y-94518370D01*
X189755000Y-94292331D01*
X189755000Y-94047669D01*
X189661372Y-93821630D01*
X189488370Y-93648628D01*
X189262331Y-93555000D01*
X189017669Y-93555000D01*
X188791630Y-93648628D01*
X188618628Y-93821630D01*
X188525000Y-94047669D01*
X188380000Y-94047669D01*
X188380000Y-86388539D01*
X188745000Y-86388539D01*
X188745000Y-86951461D01*
X188960421Y-87471533D01*
X189358467Y-87869579D01*
X189878539Y-88085000D01*
X190441461Y-88085000D01*
X190961533Y-87869579D01*
X191221112Y-87610000D01*
X192901381Y-87610000D01*
X192910001Y-87653336D01*
X192910000Y-92676669D01*
X192901381Y-92720000D01*
X192910000Y-92763331D01*
X192910000Y-92763335D01*
X192935529Y-92891678D01*
X193032778Y-93037222D01*
X193069518Y-93061771D01*
X195315000Y-95307254D01*
X195315000Y-95422331D01*
X195408628Y-95648370D01*
X195581630Y-95821372D01*
X195807669Y-95915000D01*
X196052331Y-95915000D01*
X196278370Y-95821372D01*
X196451372Y-95648370D01*
X196545000Y-95422331D01*
X196545000Y-95177669D01*
X196451372Y-94951630D01*
X196278370Y-94778628D01*
X196052331Y-94685000D01*
X195937254Y-94685000D01*
X193790000Y-92537747D01*
X193790000Y-92287669D01*
X197895000Y-92287669D01*
X197895000Y-92532331D01*
X197988628Y-92758370D01*
X198161630Y-92931372D01*
X198387669Y-93025000D01*
X198632331Y-93025000D01*
X198858370Y-92931372D01*
X199031372Y-92758370D01*
X199085509Y-92627669D01*
X203215000Y-92627669D01*
X203215000Y-92872331D01*
X203308628Y-93098370D01*
X203360258Y-93150000D01*
X203308628Y-93201630D01*
X203215000Y-93427669D01*
X203215000Y-93672331D01*
X203308628Y-93898370D01*
X203481630Y-94071372D01*
X203707669Y-94165000D01*
X203952331Y-94165000D01*
X204178370Y-94071372D01*
X204225000Y-94024742D01*
X204271630Y-94071372D01*
X204497669Y-94165000D01*
X204742331Y-94165000D01*
X204968370Y-94071372D01*
X205141372Y-93898370D01*
X205235000Y-93672331D01*
X205235000Y-93427669D01*
X205141372Y-93201630D01*
X205094742Y-93155000D01*
X205141372Y-93108370D01*
X205235000Y-92882331D01*
X205235000Y-92637669D01*
X205141372Y-92411630D01*
X204968370Y-92238628D01*
X204742331Y-92145000D01*
X204497669Y-92145000D01*
X204271630Y-92238628D01*
X204230000Y-92280258D01*
X204178370Y-92228628D01*
X203952331Y-92135000D01*
X203707669Y-92135000D01*
X203481630Y-92228628D01*
X203308628Y-92401630D01*
X203215000Y-92627669D01*
X199085509Y-92627669D01*
X199125000Y-92532331D01*
X199125000Y-92287669D01*
X199031372Y-92061630D01*
X198858370Y-91888628D01*
X198632331Y-91795000D01*
X198387669Y-91795000D01*
X198161630Y-91888628D01*
X197988628Y-92061630D01*
X197895000Y-92287669D01*
X193790000Y-92287669D01*
X193790000Y-90037669D01*
X201795000Y-90037669D01*
X201795000Y-90282331D01*
X201888628Y-90508370D01*
X202061630Y-90681372D01*
X202287669Y-90775000D01*
X202532331Y-90775000D01*
X202758370Y-90681372D01*
X202931372Y-90508370D01*
X203025000Y-90282331D01*
X203025000Y-90037669D01*
X202931372Y-89811630D01*
X202758370Y-89638628D01*
X202532331Y-89545000D01*
X202287669Y-89545000D01*
X202061630Y-89638628D01*
X201888628Y-89811630D01*
X201795000Y-90037669D01*
X193790000Y-90037669D01*
X193790000Y-87792253D01*
X193882253Y-87700000D01*
X205561381Y-87700000D01*
X205570001Y-87743336D01*
X205570000Y-93116669D01*
X205561381Y-93160000D01*
X205570000Y-93203331D01*
X205570000Y-93203335D01*
X205595529Y-93331678D01*
X205692778Y-93477222D01*
X205729518Y-93501771D01*
X207555000Y-95327254D01*
X207555000Y-95442331D01*
X207648628Y-95668370D01*
X207821630Y-95841372D01*
X208047669Y-95935000D01*
X208292331Y-95935000D01*
X208518370Y-95841372D01*
X208691372Y-95668370D01*
X208785000Y-95442331D01*
X208785000Y-95197669D01*
X208691372Y-94971630D01*
X208518370Y-94798628D01*
X208292331Y-94705000D01*
X208177254Y-94705000D01*
X206450000Y-92977747D01*
X206450000Y-92287669D01*
X210215000Y-92287669D01*
X210215000Y-92532331D01*
X210308628Y-92758370D01*
X210481630Y-92931372D01*
X210707669Y-93025000D01*
X210952331Y-93025000D01*
X211178370Y-92931372D01*
X211351372Y-92758370D01*
X211405509Y-92627669D01*
X215415000Y-92627669D01*
X215415000Y-92872331D01*
X215508628Y-93098370D01*
X215560258Y-93150000D01*
X215508628Y-93201630D01*
X215415000Y-93427669D01*
X215415000Y-93672331D01*
X215508628Y-93898370D01*
X215681630Y-94071372D01*
X215907669Y-94165000D01*
X216152331Y-94165000D01*
X216378370Y-94071372D01*
X216430000Y-94019742D01*
X216481630Y-94071372D01*
X216707669Y-94165000D01*
X216952331Y-94165000D01*
X217178370Y-94071372D01*
X217351372Y-93898370D01*
X217445000Y-93672331D01*
X217445000Y-93427669D01*
X217351372Y-93201630D01*
X217304742Y-93155000D01*
X217351372Y-93108370D01*
X217445000Y-92882331D01*
X217445000Y-92637669D01*
X217351372Y-92411630D01*
X217178370Y-92238628D01*
X216952331Y-92145000D01*
X216707669Y-92145000D01*
X216481630Y-92238628D01*
X216435000Y-92285258D01*
X216378370Y-92228628D01*
X216152331Y-92135000D01*
X215907669Y-92135000D01*
X215681630Y-92228628D01*
X215508628Y-92401630D01*
X215415000Y-92627669D01*
X211405509Y-92627669D01*
X211445000Y-92532331D01*
X211445000Y-92287669D01*
X211351372Y-92061630D01*
X211178370Y-91888628D01*
X210952331Y-91795000D01*
X210707669Y-91795000D01*
X210481630Y-91888628D01*
X210308628Y-92061630D01*
X210215000Y-92287669D01*
X206450000Y-92287669D01*
X206450000Y-89987669D01*
X214125000Y-89987669D01*
X214125000Y-90232331D01*
X214218628Y-90458370D01*
X214391630Y-90631372D01*
X214617669Y-90725000D01*
X214862331Y-90725000D01*
X215088370Y-90631372D01*
X215261372Y-90458370D01*
X215355000Y-90232331D01*
X215355000Y-89987669D01*
X215261372Y-89761630D01*
X215088370Y-89588628D01*
X214862331Y-89495000D01*
X214617669Y-89495000D01*
X214391630Y-89588628D01*
X214218628Y-89761630D01*
X214125000Y-89987669D01*
X206450000Y-89987669D01*
X206450000Y-87882253D01*
X206722253Y-87610000D01*
X217481381Y-87610000D01*
X217490001Y-87653336D01*
X217490000Y-93226669D01*
X217481381Y-93270000D01*
X217490000Y-93313331D01*
X217490000Y-93313335D01*
X217515529Y-93441678D01*
X217612778Y-93587222D01*
X217649518Y-93611771D01*
X219325000Y-95287253D01*
X219325000Y-95402331D01*
X219418628Y-95628370D01*
X219591630Y-95801372D01*
X219817669Y-95895000D01*
X220062331Y-95895000D01*
X220288370Y-95801372D01*
X220322073Y-95767669D01*
X222385000Y-95767669D01*
X222385000Y-96012331D01*
X222478628Y-96238370D01*
X222651630Y-96411372D01*
X222877669Y-96505000D01*
X223122331Y-96505000D01*
X223348370Y-96411372D01*
X223450000Y-96309742D01*
X223541630Y-96401372D01*
X223767669Y-96495000D01*
X224012331Y-96495000D01*
X224238370Y-96401372D01*
X224319742Y-96320000D01*
X224787747Y-96320000D01*
X225870000Y-97402254D01*
X225870001Y-99986664D01*
X225861381Y-100030000D01*
X225895530Y-100201679D01*
X225968230Y-100310483D01*
X225968232Y-100310485D01*
X225992779Y-100347222D01*
X226029516Y-100371769D01*
X226195000Y-100537253D01*
X226195000Y-100652331D01*
X226288628Y-100878370D01*
X226461630Y-101051372D01*
X226687669Y-101145000D01*
X226932331Y-101145000D01*
X227158370Y-101051372D01*
X227331372Y-100878370D01*
X227425000Y-100652331D01*
X227425000Y-100407669D01*
X227331372Y-100181630D01*
X227158370Y-100008628D01*
X226932331Y-99915000D01*
X226817253Y-99915000D01*
X226750000Y-99847747D01*
X226750000Y-97263330D01*
X226758619Y-97219999D01*
X226750000Y-97176668D01*
X226750000Y-97176664D01*
X226724471Y-97048321D01*
X226627222Y-96902778D01*
X226590486Y-96878232D01*
X225311771Y-95599518D01*
X225287222Y-95562778D01*
X225141679Y-95465529D01*
X225013336Y-95440000D01*
X225013331Y-95440000D01*
X224970000Y-95431381D01*
X224926669Y-95440000D01*
X224319742Y-95440000D01*
X224238370Y-95358628D01*
X224012331Y-95265000D01*
X223767669Y-95265000D01*
X223541630Y-95358628D01*
X223440000Y-95460258D01*
X223348370Y-95368628D01*
X223122331Y-95275000D01*
X222877669Y-95275000D01*
X222651630Y-95368628D01*
X222478628Y-95541630D01*
X222385000Y-95767669D01*
X220322073Y-95767669D01*
X220461372Y-95628370D01*
X220555000Y-95402331D01*
X220555000Y-95157669D01*
X220461372Y-94931630D01*
X220288370Y-94758628D01*
X220062331Y-94665000D01*
X219947253Y-94665000D01*
X218370000Y-93087747D01*
X218370000Y-92277669D01*
X222265000Y-92277669D01*
X222265000Y-92522331D01*
X222358628Y-92748370D01*
X222531630Y-92921372D01*
X222757669Y-93015000D01*
X223002331Y-93015000D01*
X223228370Y-92921372D01*
X223401372Y-92748370D01*
X223455509Y-92617669D01*
X227285000Y-92617669D01*
X227285000Y-92862331D01*
X227378628Y-93088370D01*
X227430258Y-93140000D01*
X227378628Y-93191630D01*
X227285000Y-93417669D01*
X227285000Y-93662331D01*
X227378628Y-93888370D01*
X227551630Y-94061372D01*
X227777669Y-94155000D01*
X228022331Y-94155000D01*
X228248370Y-94061372D01*
X228300000Y-94009742D01*
X228351630Y-94061372D01*
X228577669Y-94155000D01*
X228822331Y-94155000D01*
X229048370Y-94061372D01*
X229221372Y-93888370D01*
X229315000Y-93662331D01*
X229315000Y-93417669D01*
X229221372Y-93191630D01*
X229174742Y-93145000D01*
X229221372Y-93098370D01*
X229315000Y-92872331D01*
X229315000Y-92627669D01*
X229221372Y-92401630D01*
X229048370Y-92228628D01*
X228822331Y-92135000D01*
X228577669Y-92135000D01*
X228351630Y-92228628D01*
X228305000Y-92275258D01*
X228248370Y-92218628D01*
X228022331Y-92125000D01*
X227777669Y-92125000D01*
X227551630Y-92218628D01*
X227378628Y-92391630D01*
X227285000Y-92617669D01*
X223455509Y-92617669D01*
X223495000Y-92522331D01*
X223495000Y-92277669D01*
X223401372Y-92051630D01*
X223228370Y-91878628D01*
X223002331Y-91785000D01*
X222757669Y-91785000D01*
X222531630Y-91878628D01*
X222358628Y-92051630D01*
X222265000Y-92277669D01*
X218370000Y-92277669D01*
X218370000Y-89927669D01*
X226005000Y-89927669D01*
X226005000Y-90172331D01*
X226098628Y-90398370D01*
X226271630Y-90571372D01*
X226497669Y-90665000D01*
X226742331Y-90665000D01*
X226968370Y-90571372D01*
X227141372Y-90398370D01*
X227235000Y-90172331D01*
X227235000Y-89927669D01*
X227141372Y-89701630D01*
X226968370Y-89528628D01*
X226742331Y-89435000D01*
X226497669Y-89435000D01*
X226271630Y-89528628D01*
X226098628Y-89701630D01*
X226005000Y-89927669D01*
X218370000Y-89927669D01*
X218370000Y-87792253D01*
X218802254Y-87360000D01*
X219490258Y-87360000D01*
X219571630Y-87441372D01*
X219797669Y-87535000D01*
X220042331Y-87535000D01*
X220268370Y-87441372D01*
X220441372Y-87268370D01*
X220535000Y-87042331D01*
X220535000Y-86797669D01*
X220441372Y-86571630D01*
X220268370Y-86398628D01*
X220195729Y-86368539D01*
X227985000Y-86368539D01*
X227985000Y-86931461D01*
X228200421Y-87451533D01*
X228598467Y-87849579D01*
X229118539Y-88065000D01*
X229681461Y-88065000D01*
X230201533Y-87849579D01*
X230599579Y-87451533D01*
X230815000Y-86931461D01*
X230815000Y-86368539D01*
X230599579Y-85848467D01*
X230201533Y-85450421D01*
X229681461Y-85235000D01*
X229118539Y-85235000D01*
X228598467Y-85450421D01*
X228200421Y-85848467D01*
X227985000Y-86368539D01*
X220195729Y-86368539D01*
X220042331Y-86305000D01*
X219797669Y-86305000D01*
X219571630Y-86398628D01*
X219490258Y-86480000D01*
X218663330Y-86480000D01*
X218619999Y-86471381D01*
X218576668Y-86480000D01*
X218576664Y-86480000D01*
X218448321Y-86505529D01*
X218448320Y-86505530D01*
X218448319Y-86505530D01*
X218403423Y-86535529D01*
X218302778Y-86602778D01*
X218278231Y-86639515D01*
X217649516Y-87268231D01*
X217612779Y-87292778D01*
X217588232Y-87329515D01*
X217588230Y-87329517D01*
X217515530Y-87438321D01*
X217481381Y-87610000D01*
X206722253Y-87610000D01*
X206942254Y-87390000D01*
X207550258Y-87390000D01*
X207631630Y-87471372D01*
X207857669Y-87565000D01*
X208102331Y-87565000D01*
X208328370Y-87471372D01*
X208501372Y-87298370D01*
X208595000Y-87072331D01*
X208595000Y-86827669D01*
X208501372Y-86601630D01*
X208328370Y-86428628D01*
X208102331Y-86335000D01*
X207857669Y-86335000D01*
X207631630Y-86428628D01*
X207550258Y-86510000D01*
X206803330Y-86510000D01*
X206759999Y-86501381D01*
X206716668Y-86510000D01*
X206716664Y-86510000D01*
X206588321Y-86535529D01*
X206588319Y-86535530D01*
X206588320Y-86535530D01*
X206479516Y-86608230D01*
X206479515Y-86608231D01*
X206442778Y-86632778D01*
X206418231Y-86669515D01*
X205729516Y-87358231D01*
X205692779Y-87382778D01*
X205668232Y-87419515D01*
X205668230Y-87419517D01*
X205595530Y-87528321D01*
X205561381Y-87700000D01*
X193882253Y-87700000D01*
X194352254Y-87230000D01*
X194920258Y-87230000D01*
X195001630Y-87311372D01*
X195227669Y-87405000D01*
X195472331Y-87405000D01*
X195698370Y-87311372D01*
X195871372Y-87138370D01*
X195965000Y-86912331D01*
X195965000Y-86667669D01*
X195871372Y-86441630D01*
X195698370Y-86268628D01*
X195472331Y-86175000D01*
X195227669Y-86175000D01*
X195001630Y-86268628D01*
X194920258Y-86350000D01*
X194213330Y-86350000D01*
X194169999Y-86341381D01*
X194126668Y-86350000D01*
X194126664Y-86350000D01*
X193998321Y-86375529D01*
X193963751Y-86398628D01*
X193889516Y-86448230D01*
X193889515Y-86448231D01*
X193852778Y-86472778D01*
X193828231Y-86509515D01*
X193069516Y-87268231D01*
X193032779Y-87292778D01*
X193008232Y-87329515D01*
X193008230Y-87329517D01*
X192935530Y-87438321D01*
X192901381Y-87610000D01*
X191221112Y-87610000D01*
X191359579Y-87471533D01*
X191575000Y-86951461D01*
X191575000Y-86388539D01*
X191359579Y-85868467D01*
X190961533Y-85470421D01*
X190441461Y-85255000D01*
X189878539Y-85255000D01*
X189358467Y-85470421D01*
X188960421Y-85868467D01*
X188745000Y-86388539D01*
X188380000Y-86388539D01*
X188380000Y-84880000D01*
X231180001Y-84880000D01*
X231180000Y-117000000D01*
G04 #@! TD*
M02*
