G04 #@! TF.GenerationSoftware,KiCad,Pcbnew,(5.0.1)-4*
G04 #@! TF.CreationDate,2019-03-16T12:44:05-04:00*
G04 #@! TF.ProjectId,Wii reg,576969207265672E6B696361645F7063,rev?*
G04 #@! TF.SameCoordinates,Original*
G04 #@! TF.FileFunction,Legend,Top*
G04 #@! TF.FilePolarity,Positive*
%FSLAX46Y46*%
G04 Gerber Fmt 4.6, Leading zero omitted, Abs format (unit mm)*
G04 Created by KiCad (PCBNEW (5.0.1)-4) date 3/16/2019 12:44:05 PM*
%MOMM*%
%LPD*%
G01*
G04 APERTURE LIST*
%ADD10C,0.125000*%
%ADD11C,0.120000*%
%ADD12C,0.150000*%
G04 APERTURE END LIST*
D10*
X214952857Y-100996190D02*
X215119523Y-101496190D01*
X215286190Y-100996190D01*
X215429047Y-101472380D02*
X215500476Y-101496190D01*
X215619523Y-101496190D01*
X215667142Y-101472380D01*
X215690952Y-101448571D01*
X215714761Y-101400952D01*
X215714761Y-101353333D01*
X215690952Y-101305714D01*
X215667142Y-101281904D01*
X215619523Y-101258095D01*
X215524285Y-101234285D01*
X215476666Y-101210476D01*
X215452857Y-101186666D01*
X215429047Y-101139047D01*
X215429047Y-101091428D01*
X215452857Y-101043809D01*
X215476666Y-101020000D01*
X215524285Y-100996190D01*
X215643333Y-100996190D01*
X215714761Y-101020000D01*
X216024285Y-101258095D02*
X216024285Y-101496190D01*
X215857619Y-100996190D02*
X216024285Y-101258095D01*
X216190952Y-100996190D01*
X216333809Y-101472380D02*
X216405238Y-101496190D01*
X216524285Y-101496190D01*
X216571904Y-101472380D01*
X216595714Y-101448571D01*
X216619523Y-101400952D01*
X216619523Y-101353333D01*
X216595714Y-101305714D01*
X216571904Y-101281904D01*
X216524285Y-101258095D01*
X216429047Y-101234285D01*
X216381428Y-101210476D01*
X216357619Y-101186666D01*
X216333809Y-101139047D01*
X216333809Y-101091428D01*
X216357619Y-101043809D01*
X216381428Y-101020000D01*
X216429047Y-100996190D01*
X216548095Y-100996190D01*
X216619523Y-101020000D01*
X210853333Y-111048690D02*
X210972380Y-111548690D01*
X211067619Y-111191547D01*
X211162857Y-111548690D01*
X211281904Y-111048690D01*
X211472380Y-111548690D02*
X211472380Y-111215357D01*
X211472380Y-111048690D02*
X211448571Y-111072500D01*
X211472380Y-111096309D01*
X211496190Y-111072500D01*
X211472380Y-111048690D01*
X211472380Y-111096309D01*
X211710476Y-111548690D02*
X211710476Y-111215357D01*
X211710476Y-111048690D02*
X211686666Y-111072500D01*
X211710476Y-111096309D01*
X211734285Y-111072500D01*
X211710476Y-111048690D01*
X211710476Y-111096309D01*
X212329523Y-111548690D02*
X212329523Y-111048690D01*
X212520000Y-111048690D01*
X212567619Y-111072500D01*
X212591428Y-111096309D01*
X212615238Y-111143928D01*
X212615238Y-111215357D01*
X212591428Y-111262976D01*
X212567619Y-111286785D01*
X212520000Y-111310595D01*
X212329523Y-111310595D01*
X212829523Y-111548690D02*
X212829523Y-111048690D01*
X212996190Y-111405833D01*
X213162857Y-111048690D01*
X213162857Y-111548690D01*
X213377142Y-111524880D02*
X213448571Y-111548690D01*
X213567619Y-111548690D01*
X213615238Y-111524880D01*
X213639047Y-111501071D01*
X213662857Y-111453452D01*
X213662857Y-111405833D01*
X213639047Y-111358214D01*
X213615238Y-111334404D01*
X213567619Y-111310595D01*
X213472380Y-111286785D01*
X213424761Y-111262976D01*
X213400952Y-111239166D01*
X213377142Y-111191547D01*
X213377142Y-111143928D01*
X213400952Y-111096309D01*
X213424761Y-111072500D01*
X213472380Y-111048690D01*
X213591428Y-111048690D01*
X213662857Y-111072500D01*
X211615238Y-111947500D02*
X211567619Y-111923690D01*
X211496190Y-111923690D01*
X211424761Y-111947500D01*
X211377142Y-111995119D01*
X211353333Y-112042738D01*
X211329523Y-112137976D01*
X211329523Y-112209404D01*
X211353333Y-112304642D01*
X211377142Y-112352261D01*
X211424761Y-112399880D01*
X211496190Y-112423690D01*
X211543809Y-112423690D01*
X211615238Y-112399880D01*
X211639047Y-112376071D01*
X211639047Y-112209404D01*
X211543809Y-112209404D01*
X211853333Y-112423690D02*
X211853333Y-112090357D01*
X211853333Y-112137976D02*
X211877142Y-112114166D01*
X211924761Y-112090357D01*
X211996190Y-112090357D01*
X212043809Y-112114166D01*
X212067619Y-112161785D01*
X212067619Y-112423690D01*
X212067619Y-112161785D02*
X212091428Y-112114166D01*
X212139047Y-112090357D01*
X212210476Y-112090357D01*
X212258095Y-112114166D01*
X212281904Y-112161785D01*
X212281904Y-112423690D01*
X212734285Y-112423690D02*
X212734285Y-112161785D01*
X212710476Y-112114166D01*
X212662857Y-112090357D01*
X212567619Y-112090357D01*
X212520000Y-112114166D01*
X212734285Y-112399880D02*
X212686666Y-112423690D01*
X212567619Y-112423690D01*
X212520000Y-112399880D01*
X212496190Y-112352261D01*
X212496190Y-112304642D01*
X212520000Y-112257023D01*
X212567619Y-112233214D01*
X212686666Y-112233214D01*
X212734285Y-112209404D01*
X212972380Y-112090357D02*
X212972380Y-112423690D01*
X212972380Y-112137976D02*
X212996190Y-112114166D01*
X213043809Y-112090357D01*
X213115238Y-112090357D01*
X213162857Y-112114166D01*
X213186666Y-112161785D01*
X213186666Y-112423690D01*
X198054761Y-107622380D02*
X198126190Y-107646190D01*
X198245238Y-107646190D01*
X198292857Y-107622380D01*
X198316666Y-107598571D01*
X198340476Y-107550952D01*
X198340476Y-107503333D01*
X198316666Y-107455714D01*
X198292857Y-107431904D01*
X198245238Y-107408095D01*
X198150000Y-107384285D01*
X198102380Y-107360476D01*
X198078571Y-107336666D01*
X198054761Y-107289047D01*
X198054761Y-107241428D01*
X198078571Y-107193809D01*
X198102380Y-107170000D01*
X198150000Y-107146190D01*
X198269047Y-107146190D01*
X198340476Y-107170000D01*
X198840476Y-107598571D02*
X198816666Y-107622380D01*
X198745238Y-107646190D01*
X198697619Y-107646190D01*
X198626190Y-107622380D01*
X198578571Y-107574761D01*
X198554761Y-107527142D01*
X198530952Y-107431904D01*
X198530952Y-107360476D01*
X198554761Y-107265238D01*
X198578571Y-107217619D01*
X198626190Y-107170000D01*
X198697619Y-107146190D01*
X198745238Y-107146190D01*
X198816666Y-107170000D01*
X198840476Y-107193809D01*
X199292857Y-107646190D02*
X199054761Y-107646190D01*
X199054761Y-107146190D01*
X200632857Y-110312380D02*
X200704285Y-110336190D01*
X200823333Y-110336190D01*
X200870952Y-110312380D01*
X200894761Y-110288571D01*
X200918571Y-110240952D01*
X200918571Y-110193333D01*
X200894761Y-110145714D01*
X200870952Y-110121904D01*
X200823333Y-110098095D01*
X200728095Y-110074285D01*
X200680476Y-110050476D01*
X200656666Y-110026666D01*
X200632857Y-109979047D01*
X200632857Y-109931428D01*
X200656666Y-109883809D01*
X200680476Y-109860000D01*
X200728095Y-109836190D01*
X200847142Y-109836190D01*
X200918571Y-109860000D01*
X201132857Y-110336190D02*
X201132857Y-109836190D01*
X201251904Y-109836190D01*
X201323333Y-109860000D01*
X201370952Y-109907619D01*
X201394761Y-109955238D01*
X201418571Y-110050476D01*
X201418571Y-110121904D01*
X201394761Y-110217142D01*
X201370952Y-110264761D01*
X201323333Y-110312380D01*
X201251904Y-110336190D01*
X201132857Y-110336190D01*
X201609047Y-110193333D02*
X201847142Y-110193333D01*
X201561428Y-110336190D02*
X201728095Y-109836190D01*
X201894761Y-110336190D01*
X189670952Y-110773333D02*
X189909047Y-110773333D01*
X189623333Y-110916190D02*
X189790000Y-110416190D01*
X189956666Y-110916190D01*
X189679523Y-108886190D02*
X189679523Y-108386190D01*
X189798571Y-108386190D01*
X189870000Y-108410000D01*
X189917619Y-108457619D01*
X189941428Y-108505238D01*
X189965238Y-108600476D01*
X189965238Y-108671904D01*
X189941428Y-108767142D01*
X189917619Y-108814761D01*
X189870000Y-108862380D01*
X189798571Y-108886190D01*
X189679523Y-108886190D01*
X190179523Y-108695714D02*
X190560476Y-108695714D01*
X189639523Y-107416190D02*
X189639523Y-106916190D01*
X189758571Y-106916190D01*
X189830000Y-106940000D01*
X189877619Y-106987619D01*
X189901428Y-107035238D01*
X189925238Y-107130476D01*
X189925238Y-107201904D01*
X189901428Y-107297142D01*
X189877619Y-107344761D01*
X189830000Y-107392380D01*
X189758571Y-107416190D01*
X189639523Y-107416190D01*
X190139523Y-107225714D02*
X190520476Y-107225714D01*
X190330000Y-107416190D02*
X190330000Y-107035238D01*
X189856190Y-89484285D02*
X189927619Y-89508095D01*
X189951428Y-89531904D01*
X189975238Y-89579523D01*
X189975238Y-89650952D01*
X189951428Y-89698571D01*
X189927619Y-89722380D01*
X189880000Y-89746190D01*
X189689523Y-89746190D01*
X189689523Y-89246190D01*
X189856190Y-89246190D01*
X189903809Y-89270000D01*
X189927619Y-89293809D01*
X189951428Y-89341428D01*
X189951428Y-89389047D01*
X189927619Y-89436666D01*
X189903809Y-89460476D01*
X189856190Y-89484285D01*
X189689523Y-89484285D01*
X190189523Y-89555714D02*
X190570476Y-89555714D01*
X189951428Y-90850000D02*
X189903809Y-90826190D01*
X189832380Y-90826190D01*
X189760952Y-90850000D01*
X189713333Y-90897619D01*
X189689523Y-90945238D01*
X189665714Y-91040476D01*
X189665714Y-91111904D01*
X189689523Y-91207142D01*
X189713333Y-91254761D01*
X189760952Y-91302380D01*
X189832380Y-91326190D01*
X189880000Y-91326190D01*
X189951428Y-91302380D01*
X189975238Y-91278571D01*
X189975238Y-91111904D01*
X189880000Y-91111904D01*
X190189523Y-91135714D02*
X190570476Y-91135714D01*
X189965238Y-92916190D02*
X189798571Y-92678095D01*
X189679523Y-92916190D02*
X189679523Y-92416190D01*
X189870000Y-92416190D01*
X189917619Y-92440000D01*
X189941428Y-92463809D01*
X189965238Y-92511428D01*
X189965238Y-92582857D01*
X189941428Y-92630476D01*
X189917619Y-92654285D01*
X189870000Y-92678095D01*
X189679523Y-92678095D01*
X190179523Y-92725714D02*
X190560476Y-92725714D01*
X189663809Y-112366190D02*
X189663809Y-111866190D01*
X189663809Y-112056666D02*
X189711428Y-112032857D01*
X189806666Y-112032857D01*
X189854285Y-112056666D01*
X189878095Y-112080476D01*
X189901904Y-112128095D01*
X189901904Y-112270952D01*
X189878095Y-112318571D01*
X189854285Y-112342380D01*
X189806666Y-112366190D01*
X189711428Y-112366190D01*
X189663809Y-112342380D01*
X190044761Y-112032857D02*
X190235238Y-112032857D01*
X190116190Y-111866190D02*
X190116190Y-112294761D01*
X190140000Y-112342380D01*
X190187619Y-112366190D01*
X190235238Y-112366190D01*
X190401904Y-112032857D02*
X190401904Y-112366190D01*
X190401904Y-112080476D02*
X190425714Y-112056666D01*
X190473333Y-112032857D01*
X190544761Y-112032857D01*
X190592380Y-112056666D01*
X190616190Y-112104285D01*
X190616190Y-112366190D01*
X194557619Y-115106190D02*
X194843333Y-115106190D01*
X194700476Y-115606190D02*
X194700476Y-115106190D01*
X195010000Y-115415714D02*
X195390952Y-115415714D01*
X196147619Y-115046190D02*
X196433333Y-115046190D01*
X196290476Y-115546190D02*
X196290476Y-115046190D01*
X196600000Y-115355714D02*
X196980952Y-115355714D01*
X196790476Y-115546190D02*
X196790476Y-115165238D01*
D11*
G04 #@! TO.C,C1*
X225670000Y-103330000D02*
X225670000Y-102330000D01*
X223970000Y-102330000D02*
X223970000Y-103330000D01*
G04 #@! TO.C,C2*
X227370000Y-103340000D02*
X227370000Y-102340000D01*
X225670000Y-102340000D02*
X225670000Y-103340000D01*
G04 #@! TO.C,C3*
X229070000Y-103340000D02*
X229070000Y-102340000D01*
X227370000Y-102340000D02*
X227370000Y-103340000D01*
G04 #@! TO.C,C4*
X201430000Y-87800000D02*
X200430000Y-87800000D01*
X200430000Y-89500000D02*
X201430000Y-89500000D01*
G04 #@! TO.C,C5*
X201430000Y-86090000D02*
X200430000Y-86090000D01*
X200430000Y-87790000D02*
X201430000Y-87790000D01*
G04 #@! TO.C,C6*
X219170000Y-114060000D02*
X220170000Y-114060000D01*
X220170000Y-112360000D02*
X219170000Y-112360000D01*
G04 #@! TO.C,C7*
X219170000Y-115760000D02*
X220170000Y-115760000D01*
X220170000Y-114060000D02*
X219170000Y-114060000D01*
G04 #@! TO.C,C8*
X201190000Y-94660000D02*
X201890000Y-94660000D01*
X201890000Y-95860000D02*
X201190000Y-95860000D01*
G04 #@! TO.C,C9*
X219420000Y-107190000D02*
X218720000Y-107190000D01*
X218720000Y-105990000D02*
X219420000Y-105990000D01*
G04 #@! TO.C,C10*
X205310000Y-91260000D02*
X205310000Y-90260000D01*
X203610000Y-90260000D02*
X203610000Y-91260000D01*
G04 #@! TO.C,C11*
X215390000Y-110710000D02*
X215390000Y-111710000D01*
X217090000Y-111710000D02*
X217090000Y-110710000D01*
G04 #@! TO.C,C12*
X219650000Y-98520000D02*
X219650000Y-99520000D01*
X221350000Y-99520000D02*
X221350000Y-98520000D01*
G04 #@! TO.C,C13*
X225690000Y-87790000D02*
X224690000Y-87790000D01*
X224690000Y-89490000D02*
X225690000Y-89490000D01*
G04 #@! TO.C,C14*
X225690000Y-86090000D02*
X224690000Y-86090000D01*
X224690000Y-87790000D02*
X225690000Y-87790000D01*
G04 #@! TO.C,C15*
X213780000Y-87800000D02*
X212780000Y-87800000D01*
X212780000Y-89500000D02*
X213780000Y-89500000D01*
G04 #@! TO.C,C16*
X213770000Y-86100000D02*
X212770000Y-86100000D01*
X212770000Y-87800000D02*
X213770000Y-87800000D01*
G04 #@! TO.C,C17*
X225420000Y-94650000D02*
X226120000Y-94650000D01*
X226120000Y-95850000D02*
X225420000Y-95850000D01*
G04 #@! TO.C,C18*
X213430000Y-94660000D02*
X214130000Y-94660000D01*
X214130000Y-95860000D02*
X213430000Y-95860000D01*
G04 #@! TO.C,C19*
X229400000Y-91250000D02*
X229400000Y-90250000D01*
X227700000Y-90250000D02*
X227700000Y-91250000D01*
G04 #@! TO.C,C20*
X217510000Y-91260000D02*
X217510000Y-90260000D01*
X215810000Y-90260000D02*
X215810000Y-91260000D01*
G04 #@! TO.C,C21*
X199950000Y-104870000D02*
X199950000Y-103870000D01*
X198250000Y-103870000D02*
X198250000Y-104870000D01*
G04 #@! TO.C,C23*
X201600000Y-101820000D02*
X201600000Y-101120000D01*
X202800000Y-101120000D02*
X202800000Y-101820000D01*
G04 #@! TO.C,C24*
X203300000Y-101810000D02*
X203300000Y-101110000D01*
X204500000Y-101110000D02*
X204500000Y-101810000D01*
G04 #@! TO.C,C25*
X207360000Y-105430000D02*
X207360000Y-106430000D01*
X209060000Y-106430000D02*
X209060000Y-105430000D01*
G04 #@! TO.C,C27*
X209350000Y-105430000D02*
X209350000Y-106430000D01*
X211050000Y-106430000D02*
X211050000Y-105430000D01*
G04 #@! TO.C,C28*
X211330000Y-105430000D02*
X211330000Y-106430000D01*
X213030000Y-106430000D02*
X213030000Y-105430000D01*
G04 #@! TO.C,J25*
X206025000Y-116770000D02*
X206025000Y-115967530D01*
X206025000Y-115352470D02*
X206025000Y-114550000D01*
X201010000Y-116770000D02*
X206025000Y-116770000D01*
X201010000Y-114550000D02*
X206025000Y-114550000D01*
X201010000Y-116770000D02*
X201010000Y-116223471D01*
X201010000Y-115096529D02*
X201010000Y-114550000D01*
X200250000Y-116770000D02*
X199490000Y-116770000D01*
X199490000Y-116770000D02*
X199490000Y-115660000D01*
G04 #@! TO.C,L1*
X219490000Y-101170000D02*
X223490000Y-101170000D01*
X219490000Y-105370000D02*
X223490000Y-105370000D01*
G04 #@! TO.C,L2*
X198340000Y-87540000D02*
X198340000Y-91540000D01*
X194140000Y-87540000D02*
X194140000Y-91540000D01*
G04 #@! TO.C,L3*
X222410000Y-114490000D02*
X222410000Y-110490000D01*
X226610000Y-114490000D02*
X226610000Y-110490000D01*
G04 #@! TO.C,L4*
X222650000Y-87540000D02*
X222650000Y-91540000D01*
X218450000Y-87540000D02*
X218450000Y-91540000D01*
G04 #@! TO.C,L5*
X210760000Y-87560000D02*
X210760000Y-91560000D01*
X206560000Y-87560000D02*
X206560000Y-91560000D01*
D12*
G04 #@! TO.C,L6*
X213820000Y-96670000D02*
X213820000Y-98170000D01*
X213820000Y-96670000D02*
X206620000Y-96670000D01*
X206620000Y-96670000D02*
X206620000Y-98170000D01*
X213770000Y-103270000D02*
X213770000Y-101770000D01*
X213770000Y-103270000D02*
X206620000Y-103270000D01*
X206620000Y-103270000D02*
X206620000Y-101770000D01*
D11*
G04 #@! TO.C,Q1*
X191740000Y-97990000D02*
X190810000Y-97990000D01*
X188580000Y-97990000D02*
X189510000Y-97990000D01*
X188580000Y-97990000D02*
X188580000Y-100150000D01*
X191740000Y-97990000D02*
X191740000Y-99450000D01*
G04 #@! TO.C,Q2*
X195450000Y-98000000D02*
X194520000Y-98000000D01*
X192290000Y-98000000D02*
X193220000Y-98000000D01*
X192290000Y-98000000D02*
X192290000Y-100160000D01*
X195450000Y-98000000D02*
X195450000Y-99460000D01*
G04 #@! TO.C,Q3*
X199140000Y-98010000D02*
X198210000Y-98010000D01*
X195980000Y-98010000D02*
X196910000Y-98010000D01*
X195980000Y-98010000D02*
X195980000Y-100170000D01*
X199140000Y-98010000D02*
X199140000Y-99470000D01*
G04 #@! TO.C,R1*
X196910000Y-94360000D02*
X196910000Y-93360000D01*
X198270000Y-93360000D02*
X198270000Y-94360000D01*
G04 #@! TO.C,R2*
X223820000Y-107690000D02*
X223820000Y-108690000D01*
X222460000Y-108690000D02*
X222460000Y-107690000D01*
G04 #@! TO.C,R3*
X195250000Y-94360000D02*
X195250000Y-93360000D01*
X196610000Y-93360000D02*
X196610000Y-94360000D01*
G04 #@! TO.C,R4*
X225420000Y-107690000D02*
X225420000Y-108690000D01*
X224060000Y-108690000D02*
X224060000Y-107690000D01*
G04 #@! TO.C,R5*
X188460000Y-96120000D02*
X188460000Y-95120000D01*
X189820000Y-95120000D02*
X189820000Y-96120000D01*
G04 #@! TO.C,R6*
X190000000Y-96120000D02*
X190000000Y-95120000D01*
X191360000Y-95120000D02*
X191360000Y-96120000D01*
G04 #@! TO.C,R7*
X193170000Y-100590000D02*
X194170000Y-100590000D01*
X194170000Y-101950000D02*
X193170000Y-101950000D01*
G04 #@! TO.C,R8*
X220885000Y-94305000D02*
X220885000Y-93305000D01*
X222245000Y-93305000D02*
X222245000Y-94305000D01*
G04 #@! TO.C,R9*
X209170000Y-94370000D02*
X209170000Y-93370000D01*
X210530000Y-93370000D02*
X210530000Y-94370000D01*
G04 #@! TO.C,R10*
X191560000Y-96140000D02*
X191560000Y-95140000D01*
X192920000Y-95140000D02*
X192920000Y-96140000D01*
G04 #@! TO.C,R11*
X219265000Y-94305000D02*
X219265000Y-93305000D01*
X220625000Y-93305000D02*
X220625000Y-94305000D01*
G04 #@! TO.C,R12*
X207490000Y-94370000D02*
X207490000Y-93370000D01*
X208850000Y-93370000D02*
X208850000Y-94370000D01*
G04 #@! TO.C,R13*
X197840000Y-101970000D02*
X196840000Y-101970000D01*
X196840000Y-100610000D02*
X197840000Y-100610000D01*
G04 #@! TO.C,R14*
X193100000Y-96140000D02*
X193100000Y-95140000D01*
X194460000Y-95140000D02*
X194460000Y-96140000D01*
G04 #@! TO.C,R15*
X194110000Y-114550000D02*
X194110000Y-115550000D01*
X192750000Y-115550000D02*
X192750000Y-114550000D01*
G04 #@! TO.C,R16*
X202500000Y-112690000D02*
X202500000Y-111690000D01*
X203860000Y-111690000D02*
X203860000Y-112690000D01*
G04 #@! TO.C,R17*
X205360000Y-111690000D02*
X205360000Y-112690000D01*
X204000000Y-112690000D02*
X204000000Y-111690000D01*
G04 #@! TO.C,R18*
X206860000Y-111690000D02*
X206860000Y-112690000D01*
X205500000Y-112690000D02*
X205500000Y-111690000D01*
D12*
G04 #@! TO.C,U1*
X202655000Y-90535000D02*
X202655000Y-91035000D01*
X199405000Y-93785000D02*
X199405000Y-93285000D01*
X202655000Y-93785000D02*
X202655000Y-93285000D01*
X199405000Y-90535000D02*
X199905000Y-90535000D01*
X199405000Y-93785000D02*
X199905000Y-93785000D01*
X202655000Y-93785000D02*
X202155000Y-93785000D01*
X202655000Y-90535000D02*
X202155000Y-90535000D01*
G04 #@! TO.C,U2*
X217945000Y-111415000D02*
X217945000Y-110915000D01*
X221195000Y-108165000D02*
X221195000Y-108665000D01*
X217945000Y-108165000D02*
X217945000Y-108665000D01*
X221195000Y-111415000D02*
X220695000Y-111415000D01*
X221195000Y-108165000D02*
X220695000Y-108165000D01*
X217945000Y-108165000D02*
X218445000Y-108165000D01*
X217945000Y-111415000D02*
X218445000Y-111415000D01*
D11*
G04 #@! TO.C,U3*
X222400000Y-100140000D02*
X222400000Y-100540000D01*
X225500000Y-96940000D02*
X225400000Y-96940000D01*
X225500000Y-97740000D02*
X225500000Y-96940000D01*
X225500000Y-100140000D02*
X225500000Y-99340000D01*
X225400000Y-100140000D02*
X225500000Y-100140000D01*
X222300000Y-96940000D02*
X222400000Y-96940000D01*
X222300000Y-97740000D02*
X222300000Y-96940000D01*
X222300000Y-100140000D02*
X222400000Y-100140000D01*
X222300000Y-99340000D02*
X222300000Y-100140000D01*
D12*
G04 #@! TO.C,U4*
X226915000Y-90525000D02*
X226915000Y-91025000D01*
X223665000Y-93775000D02*
X223665000Y-93275000D01*
X226915000Y-93775000D02*
X226915000Y-93275000D01*
X223665000Y-90525000D02*
X224165000Y-90525000D01*
X223665000Y-93775000D02*
X224165000Y-93775000D01*
X226915000Y-93775000D02*
X226415000Y-93775000D01*
X226915000Y-90525000D02*
X226415000Y-90525000D01*
G04 #@! TO.C,U5*
X215005000Y-90535000D02*
X215005000Y-91035000D01*
X211755000Y-93785000D02*
X211755000Y-93285000D01*
X215005000Y-93785000D02*
X215005000Y-93285000D01*
X211755000Y-90535000D02*
X212255000Y-90535000D01*
X211755000Y-93785000D02*
X212255000Y-93785000D01*
X215005000Y-93785000D02*
X214505000Y-93785000D01*
X215005000Y-90535000D02*
X214505000Y-90535000D01*
G04 #@! TO.C,U6*
X193755000Y-108735000D02*
X194555000Y-108735000D01*
X198105000Y-113085000D02*
X197305000Y-113085000D01*
X198105000Y-108735000D02*
X197305000Y-108735000D01*
X193755000Y-113085000D02*
X193755000Y-112285000D01*
X198105000Y-113085000D02*
X198105000Y-112285000D01*
X198105000Y-108735000D02*
X198105000Y-109535000D01*
X193755000Y-108735000D02*
X193755000Y-109535000D01*
G04 #@! TO.C,U7*
X206190000Y-104890000D02*
X206190000Y-105415000D01*
X201890000Y-109190000D02*
X201890000Y-108665000D01*
X206190000Y-109190000D02*
X206190000Y-108665000D01*
X201890000Y-104890000D02*
X202415000Y-104890000D01*
X201890000Y-109190000D02*
X202415000Y-109190000D01*
X206190000Y-109190000D02*
X205665000Y-109190000D01*
X206190000Y-104890000D02*
X205665000Y-104890000D01*
D11*
G04 #@! TO.C,C29*
X210540000Y-108060000D02*
X209540000Y-108060000D01*
X209540000Y-109760000D02*
X210540000Y-109760000D01*
G04 #@! TO.C,R19*
X197460000Y-115610000D02*
X197460000Y-114610000D01*
X198820000Y-114610000D02*
X198820000Y-115610000D01*
G04 #@! TO.C,C26*
X213270000Y-107430000D02*
X213270000Y-108430000D01*
X214970000Y-108430000D02*
X214970000Y-107430000D01*
G04 #@! TO.C,C22*
X192420000Y-110623922D02*
X192420000Y-111141078D01*
X191000000Y-110623922D02*
X191000000Y-111141078D01*
G04 #@! TO.C,C1*
D10*
X224938571Y-105103333D02*
X224962380Y-105127142D01*
X224986190Y-105198571D01*
X224986190Y-105246190D01*
X224962380Y-105317619D01*
X224914761Y-105365238D01*
X224867142Y-105389047D01*
X224771904Y-105412857D01*
X224700476Y-105412857D01*
X224605238Y-105389047D01*
X224557619Y-105365238D01*
X224510000Y-105317619D01*
X224486190Y-105246190D01*
X224486190Y-105198571D01*
X224510000Y-105127142D01*
X224533809Y-105103333D01*
X224986190Y-104627142D02*
X224986190Y-104912857D01*
X224986190Y-104770000D02*
X224486190Y-104770000D01*
X224557619Y-104817619D01*
X224605238Y-104865238D01*
X224629047Y-104912857D01*
G04 #@! TO.C,C2*
X226678571Y-105133333D02*
X226702380Y-105157142D01*
X226726190Y-105228571D01*
X226726190Y-105276190D01*
X226702380Y-105347619D01*
X226654761Y-105395238D01*
X226607142Y-105419047D01*
X226511904Y-105442857D01*
X226440476Y-105442857D01*
X226345238Y-105419047D01*
X226297619Y-105395238D01*
X226250000Y-105347619D01*
X226226190Y-105276190D01*
X226226190Y-105228571D01*
X226250000Y-105157142D01*
X226273809Y-105133333D01*
X226273809Y-104942857D02*
X226250000Y-104919047D01*
X226226190Y-104871428D01*
X226226190Y-104752380D01*
X226250000Y-104704761D01*
X226273809Y-104680952D01*
X226321428Y-104657142D01*
X226369047Y-104657142D01*
X226440476Y-104680952D01*
X226726190Y-104966666D01*
X226726190Y-104657142D01*
G04 #@! TO.C,C3*
X228378571Y-105153333D02*
X228402380Y-105177142D01*
X228426190Y-105248571D01*
X228426190Y-105296190D01*
X228402380Y-105367619D01*
X228354761Y-105415238D01*
X228307142Y-105439047D01*
X228211904Y-105462857D01*
X228140476Y-105462857D01*
X228045238Y-105439047D01*
X227997619Y-105415238D01*
X227950000Y-105367619D01*
X227926190Y-105296190D01*
X227926190Y-105248571D01*
X227950000Y-105177142D01*
X227973809Y-105153333D01*
X227926190Y-104986666D02*
X227926190Y-104677142D01*
X228116666Y-104843809D01*
X228116666Y-104772380D01*
X228140476Y-104724761D01*
X228164285Y-104700952D01*
X228211904Y-104677142D01*
X228330952Y-104677142D01*
X228378571Y-104700952D01*
X228402380Y-104724761D01*
X228426190Y-104772380D01*
X228426190Y-104915238D01*
X228402380Y-104962857D01*
X228378571Y-104986666D01*
G04 #@! TO.C,C4*
X200846666Y-85828571D02*
X200822857Y-85852380D01*
X200751428Y-85876190D01*
X200703809Y-85876190D01*
X200632380Y-85852380D01*
X200584761Y-85804761D01*
X200560952Y-85757142D01*
X200537142Y-85661904D01*
X200537142Y-85590476D01*
X200560952Y-85495238D01*
X200584761Y-85447619D01*
X200632380Y-85400000D01*
X200703809Y-85376190D01*
X200751428Y-85376190D01*
X200822857Y-85400000D01*
X200846666Y-85423809D01*
X201275238Y-85542857D02*
X201275238Y-85876190D01*
X201156190Y-85352380D02*
X201037142Y-85709523D01*
X201346666Y-85709523D01*
G04 #@! TO.C,C5*
X200866666Y-85128571D02*
X200842857Y-85152380D01*
X200771428Y-85176190D01*
X200723809Y-85176190D01*
X200652380Y-85152380D01*
X200604761Y-85104761D01*
X200580952Y-85057142D01*
X200557142Y-84961904D01*
X200557142Y-84890476D01*
X200580952Y-84795238D01*
X200604761Y-84747619D01*
X200652380Y-84700000D01*
X200723809Y-84676190D01*
X200771428Y-84676190D01*
X200842857Y-84700000D01*
X200866666Y-84723809D01*
X201319047Y-84676190D02*
X201080952Y-84676190D01*
X201057142Y-84914285D01*
X201080952Y-84890476D01*
X201128571Y-84866666D01*
X201247619Y-84866666D01*
X201295238Y-84890476D01*
X201319047Y-84914285D01*
X201342857Y-84961904D01*
X201342857Y-85080952D01*
X201319047Y-85128571D01*
X201295238Y-85152380D01*
X201247619Y-85176190D01*
X201128571Y-85176190D01*
X201080952Y-85152380D01*
X201057142Y-85128571D01*
G04 #@! TO.C,C6*
X217386666Y-113448571D02*
X217362857Y-113472380D01*
X217291428Y-113496190D01*
X217243809Y-113496190D01*
X217172380Y-113472380D01*
X217124761Y-113424761D01*
X217100952Y-113377142D01*
X217077142Y-113281904D01*
X217077142Y-113210476D01*
X217100952Y-113115238D01*
X217124761Y-113067619D01*
X217172380Y-113020000D01*
X217243809Y-112996190D01*
X217291428Y-112996190D01*
X217362857Y-113020000D01*
X217386666Y-113043809D01*
X217815238Y-112996190D02*
X217720000Y-112996190D01*
X217672380Y-113020000D01*
X217648571Y-113043809D01*
X217600952Y-113115238D01*
X217577142Y-113210476D01*
X217577142Y-113400952D01*
X217600952Y-113448571D01*
X217624761Y-113472380D01*
X217672380Y-113496190D01*
X217767619Y-113496190D01*
X217815238Y-113472380D01*
X217839047Y-113448571D01*
X217862857Y-113400952D01*
X217862857Y-113281904D01*
X217839047Y-113234285D01*
X217815238Y-113210476D01*
X217767619Y-113186666D01*
X217672380Y-113186666D01*
X217624761Y-113210476D01*
X217600952Y-113234285D01*
X217577142Y-113281904D01*
G04 #@! TO.C,C7*
X217386666Y-115178571D02*
X217362857Y-115202380D01*
X217291428Y-115226190D01*
X217243809Y-115226190D01*
X217172380Y-115202380D01*
X217124761Y-115154761D01*
X217100952Y-115107142D01*
X217077142Y-115011904D01*
X217077142Y-114940476D01*
X217100952Y-114845238D01*
X217124761Y-114797619D01*
X217172380Y-114750000D01*
X217243809Y-114726190D01*
X217291428Y-114726190D01*
X217362857Y-114750000D01*
X217386666Y-114773809D01*
X217553333Y-114726190D02*
X217886666Y-114726190D01*
X217672380Y-115226190D01*
G04 #@! TO.C,C8*
X203276666Y-95428571D02*
X203252857Y-95452380D01*
X203181428Y-95476190D01*
X203133809Y-95476190D01*
X203062380Y-95452380D01*
X203014761Y-95404761D01*
X202990952Y-95357142D01*
X202967142Y-95261904D01*
X202967142Y-95190476D01*
X202990952Y-95095238D01*
X203014761Y-95047619D01*
X203062380Y-95000000D01*
X203133809Y-94976190D01*
X203181428Y-94976190D01*
X203252857Y-95000000D01*
X203276666Y-95023809D01*
X203562380Y-95190476D02*
X203514761Y-95166666D01*
X203490952Y-95142857D01*
X203467142Y-95095238D01*
X203467142Y-95071428D01*
X203490952Y-95023809D01*
X203514761Y-95000000D01*
X203562380Y-94976190D01*
X203657619Y-94976190D01*
X203705238Y-95000000D01*
X203729047Y-95023809D01*
X203752857Y-95071428D01*
X203752857Y-95095238D01*
X203729047Y-95142857D01*
X203705238Y-95166666D01*
X203657619Y-95190476D01*
X203562380Y-95190476D01*
X203514761Y-95214285D01*
X203490952Y-95238095D01*
X203467142Y-95285714D01*
X203467142Y-95380952D01*
X203490952Y-95428571D01*
X203514761Y-95452380D01*
X203562380Y-95476190D01*
X203657619Y-95476190D01*
X203705238Y-95452380D01*
X203729047Y-95428571D01*
X203752857Y-95380952D01*
X203752857Y-95285714D01*
X203729047Y-95238095D01*
X203705238Y-95214285D01*
X203657619Y-95190476D01*
G04 #@! TO.C,C9*
X218226666Y-105738571D02*
X218202857Y-105762380D01*
X218131428Y-105786190D01*
X218083809Y-105786190D01*
X218012380Y-105762380D01*
X217964761Y-105714761D01*
X217940952Y-105667142D01*
X217917142Y-105571904D01*
X217917142Y-105500476D01*
X217940952Y-105405238D01*
X217964761Y-105357619D01*
X218012380Y-105310000D01*
X218083809Y-105286190D01*
X218131428Y-105286190D01*
X218202857Y-105310000D01*
X218226666Y-105333809D01*
X218464761Y-105786190D02*
X218560000Y-105786190D01*
X218607619Y-105762380D01*
X218631428Y-105738571D01*
X218679047Y-105667142D01*
X218702857Y-105571904D01*
X218702857Y-105381428D01*
X218679047Y-105333809D01*
X218655238Y-105310000D01*
X218607619Y-105286190D01*
X218512380Y-105286190D01*
X218464761Y-105310000D01*
X218440952Y-105333809D01*
X218417142Y-105381428D01*
X218417142Y-105500476D01*
X218440952Y-105548095D01*
X218464761Y-105571904D01*
X218512380Y-105595714D01*
X218607619Y-105595714D01*
X218655238Y-105571904D01*
X218679047Y-105548095D01*
X218702857Y-105500476D01*
G04 #@! TO.C,C10*
X205998571Y-91101428D02*
X206022380Y-91125238D01*
X206046190Y-91196666D01*
X206046190Y-91244285D01*
X206022380Y-91315714D01*
X205974761Y-91363333D01*
X205927142Y-91387142D01*
X205831904Y-91410952D01*
X205760476Y-91410952D01*
X205665238Y-91387142D01*
X205617619Y-91363333D01*
X205570000Y-91315714D01*
X205546190Y-91244285D01*
X205546190Y-91196666D01*
X205570000Y-91125238D01*
X205593809Y-91101428D01*
X206046190Y-90625238D02*
X206046190Y-90910952D01*
X206046190Y-90768095D02*
X205546190Y-90768095D01*
X205617619Y-90815714D01*
X205665238Y-90863333D01*
X205689047Y-90910952D01*
X205546190Y-90315714D02*
X205546190Y-90268095D01*
X205570000Y-90220476D01*
X205593809Y-90196666D01*
X205641428Y-90172857D01*
X205736666Y-90149047D01*
X205855714Y-90149047D01*
X205950952Y-90172857D01*
X205998571Y-90196666D01*
X206022380Y-90220476D01*
X206046190Y-90268095D01*
X206046190Y-90315714D01*
X206022380Y-90363333D01*
X205998571Y-90387142D01*
X205950952Y-90410952D01*
X205855714Y-90434761D01*
X205736666Y-90434761D01*
X205641428Y-90410952D01*
X205593809Y-90387142D01*
X205570000Y-90363333D01*
X205546190Y-90315714D01*
G04 #@! TO.C,C11*
X215088571Y-111541428D02*
X215112380Y-111565238D01*
X215136190Y-111636666D01*
X215136190Y-111684285D01*
X215112380Y-111755714D01*
X215064761Y-111803333D01*
X215017142Y-111827142D01*
X214921904Y-111850952D01*
X214850476Y-111850952D01*
X214755238Y-111827142D01*
X214707619Y-111803333D01*
X214660000Y-111755714D01*
X214636190Y-111684285D01*
X214636190Y-111636666D01*
X214660000Y-111565238D01*
X214683809Y-111541428D01*
X215136190Y-111065238D02*
X215136190Y-111350952D01*
X215136190Y-111208095D02*
X214636190Y-111208095D01*
X214707619Y-111255714D01*
X214755238Y-111303333D01*
X214779047Y-111350952D01*
X215136190Y-110589047D02*
X215136190Y-110874761D01*
X215136190Y-110731904D02*
X214636190Y-110731904D01*
X214707619Y-110779523D01*
X214755238Y-110827142D01*
X214779047Y-110874761D01*
G04 #@! TO.C,C12*
X219358571Y-99321428D02*
X219382380Y-99345238D01*
X219406190Y-99416666D01*
X219406190Y-99464285D01*
X219382380Y-99535714D01*
X219334761Y-99583333D01*
X219287142Y-99607142D01*
X219191904Y-99630952D01*
X219120476Y-99630952D01*
X219025238Y-99607142D01*
X218977619Y-99583333D01*
X218930000Y-99535714D01*
X218906190Y-99464285D01*
X218906190Y-99416666D01*
X218930000Y-99345238D01*
X218953809Y-99321428D01*
X219406190Y-98845238D02*
X219406190Y-99130952D01*
X219406190Y-98988095D02*
X218906190Y-98988095D01*
X218977619Y-99035714D01*
X219025238Y-99083333D01*
X219049047Y-99130952D01*
X218953809Y-98654761D02*
X218930000Y-98630952D01*
X218906190Y-98583333D01*
X218906190Y-98464285D01*
X218930000Y-98416666D01*
X218953809Y-98392857D01*
X219001428Y-98369047D01*
X219049047Y-98369047D01*
X219120476Y-98392857D01*
X219406190Y-98678571D01*
X219406190Y-98369047D01*
G04 #@! TO.C,C13*
X224908571Y-85858571D02*
X224884761Y-85882380D01*
X224813333Y-85906190D01*
X224765714Y-85906190D01*
X224694285Y-85882380D01*
X224646666Y-85834761D01*
X224622857Y-85787142D01*
X224599047Y-85691904D01*
X224599047Y-85620476D01*
X224622857Y-85525238D01*
X224646666Y-85477619D01*
X224694285Y-85430000D01*
X224765714Y-85406190D01*
X224813333Y-85406190D01*
X224884761Y-85430000D01*
X224908571Y-85453809D01*
X225384761Y-85906190D02*
X225099047Y-85906190D01*
X225241904Y-85906190D02*
X225241904Y-85406190D01*
X225194285Y-85477619D01*
X225146666Y-85525238D01*
X225099047Y-85549047D01*
X225551428Y-85406190D02*
X225860952Y-85406190D01*
X225694285Y-85596666D01*
X225765714Y-85596666D01*
X225813333Y-85620476D01*
X225837142Y-85644285D01*
X225860952Y-85691904D01*
X225860952Y-85810952D01*
X225837142Y-85858571D01*
X225813333Y-85882380D01*
X225765714Y-85906190D01*
X225622857Y-85906190D01*
X225575238Y-85882380D01*
X225551428Y-85858571D01*
G04 #@! TO.C,C14*
X224898571Y-85138571D02*
X224874761Y-85162380D01*
X224803333Y-85186190D01*
X224755714Y-85186190D01*
X224684285Y-85162380D01*
X224636666Y-85114761D01*
X224612857Y-85067142D01*
X224589047Y-84971904D01*
X224589047Y-84900476D01*
X224612857Y-84805238D01*
X224636666Y-84757619D01*
X224684285Y-84710000D01*
X224755714Y-84686190D01*
X224803333Y-84686190D01*
X224874761Y-84710000D01*
X224898571Y-84733809D01*
X225374761Y-85186190D02*
X225089047Y-85186190D01*
X225231904Y-85186190D02*
X225231904Y-84686190D01*
X225184285Y-84757619D01*
X225136666Y-84805238D01*
X225089047Y-84829047D01*
X225803333Y-84852857D02*
X225803333Y-85186190D01*
X225684285Y-84662380D02*
X225565238Y-85019523D01*
X225874761Y-85019523D01*
G04 #@! TO.C,C15*
X213798571Y-85868571D02*
X213774761Y-85892380D01*
X213703333Y-85916190D01*
X213655714Y-85916190D01*
X213584285Y-85892380D01*
X213536666Y-85844761D01*
X213512857Y-85797142D01*
X213489047Y-85701904D01*
X213489047Y-85630476D01*
X213512857Y-85535238D01*
X213536666Y-85487619D01*
X213584285Y-85440000D01*
X213655714Y-85416190D01*
X213703333Y-85416190D01*
X213774761Y-85440000D01*
X213798571Y-85463809D01*
X214274761Y-85916190D02*
X213989047Y-85916190D01*
X214131904Y-85916190D02*
X214131904Y-85416190D01*
X214084285Y-85487619D01*
X214036666Y-85535238D01*
X213989047Y-85559047D01*
X214727142Y-85416190D02*
X214489047Y-85416190D01*
X214465238Y-85654285D01*
X214489047Y-85630476D01*
X214536666Y-85606666D01*
X214655714Y-85606666D01*
X214703333Y-85630476D01*
X214727142Y-85654285D01*
X214750952Y-85701904D01*
X214750952Y-85820952D01*
X214727142Y-85868571D01*
X214703333Y-85892380D01*
X214655714Y-85916190D01*
X214536666Y-85916190D01*
X214489047Y-85892380D01*
X214465238Y-85868571D01*
G04 #@! TO.C,C16*
X213808571Y-85118571D02*
X213784761Y-85142380D01*
X213713333Y-85166190D01*
X213665714Y-85166190D01*
X213594285Y-85142380D01*
X213546666Y-85094761D01*
X213522857Y-85047142D01*
X213499047Y-84951904D01*
X213499047Y-84880476D01*
X213522857Y-84785238D01*
X213546666Y-84737619D01*
X213594285Y-84690000D01*
X213665714Y-84666190D01*
X213713333Y-84666190D01*
X213784761Y-84690000D01*
X213808571Y-84713809D01*
X214284761Y-85166190D02*
X213999047Y-85166190D01*
X214141904Y-85166190D02*
X214141904Y-84666190D01*
X214094285Y-84737619D01*
X214046666Y-84785238D01*
X213999047Y-84809047D01*
X214713333Y-84666190D02*
X214618095Y-84666190D01*
X214570476Y-84690000D01*
X214546666Y-84713809D01*
X214499047Y-84785238D01*
X214475238Y-84880476D01*
X214475238Y-85070952D01*
X214499047Y-85118571D01*
X214522857Y-85142380D01*
X214570476Y-85166190D01*
X214665714Y-85166190D01*
X214713333Y-85142380D01*
X214737142Y-85118571D01*
X214760952Y-85070952D01*
X214760952Y-84951904D01*
X214737142Y-84904285D01*
X214713333Y-84880476D01*
X214665714Y-84856666D01*
X214570476Y-84856666D01*
X214522857Y-84880476D01*
X214499047Y-84904285D01*
X214475238Y-84951904D01*
G04 #@! TO.C,C17*
X227538571Y-95438571D02*
X227514761Y-95462380D01*
X227443333Y-95486190D01*
X227395714Y-95486190D01*
X227324285Y-95462380D01*
X227276666Y-95414761D01*
X227252857Y-95367142D01*
X227229047Y-95271904D01*
X227229047Y-95200476D01*
X227252857Y-95105238D01*
X227276666Y-95057619D01*
X227324285Y-95010000D01*
X227395714Y-94986190D01*
X227443333Y-94986190D01*
X227514761Y-95010000D01*
X227538571Y-95033809D01*
X228014761Y-95486190D02*
X227729047Y-95486190D01*
X227871904Y-95486190D02*
X227871904Y-94986190D01*
X227824285Y-95057619D01*
X227776666Y-95105238D01*
X227729047Y-95129047D01*
X228181428Y-94986190D02*
X228514761Y-94986190D01*
X228300476Y-95486190D01*
G04 #@! TO.C,C18*
X215498571Y-95418571D02*
X215474761Y-95442380D01*
X215403333Y-95466190D01*
X215355714Y-95466190D01*
X215284285Y-95442380D01*
X215236666Y-95394761D01*
X215212857Y-95347142D01*
X215189047Y-95251904D01*
X215189047Y-95180476D01*
X215212857Y-95085238D01*
X215236666Y-95037619D01*
X215284285Y-94990000D01*
X215355714Y-94966190D01*
X215403333Y-94966190D01*
X215474761Y-94990000D01*
X215498571Y-95013809D01*
X215974761Y-95466190D02*
X215689047Y-95466190D01*
X215831904Y-95466190D02*
X215831904Y-94966190D01*
X215784285Y-95037619D01*
X215736666Y-95085238D01*
X215689047Y-95109047D01*
X216260476Y-95180476D02*
X216212857Y-95156666D01*
X216189047Y-95132857D01*
X216165238Y-95085238D01*
X216165238Y-95061428D01*
X216189047Y-95013809D01*
X216212857Y-94990000D01*
X216260476Y-94966190D01*
X216355714Y-94966190D01*
X216403333Y-94990000D01*
X216427142Y-95013809D01*
X216450952Y-95061428D01*
X216450952Y-95085238D01*
X216427142Y-95132857D01*
X216403333Y-95156666D01*
X216355714Y-95180476D01*
X216260476Y-95180476D01*
X216212857Y-95204285D01*
X216189047Y-95228095D01*
X216165238Y-95275714D01*
X216165238Y-95370952D01*
X216189047Y-95418571D01*
X216212857Y-95442380D01*
X216260476Y-95466190D01*
X216355714Y-95466190D01*
X216403333Y-95442380D01*
X216427142Y-95418571D01*
X216450952Y-95370952D01*
X216450952Y-95275714D01*
X216427142Y-95228095D01*
X216403333Y-95204285D01*
X216355714Y-95180476D01*
G04 #@! TO.C,C19*
X230128571Y-91061428D02*
X230152380Y-91085238D01*
X230176190Y-91156666D01*
X230176190Y-91204285D01*
X230152380Y-91275714D01*
X230104761Y-91323333D01*
X230057142Y-91347142D01*
X229961904Y-91370952D01*
X229890476Y-91370952D01*
X229795238Y-91347142D01*
X229747619Y-91323333D01*
X229700000Y-91275714D01*
X229676190Y-91204285D01*
X229676190Y-91156666D01*
X229700000Y-91085238D01*
X229723809Y-91061428D01*
X230176190Y-90585238D02*
X230176190Y-90870952D01*
X230176190Y-90728095D02*
X229676190Y-90728095D01*
X229747619Y-90775714D01*
X229795238Y-90823333D01*
X229819047Y-90870952D01*
X230176190Y-90347142D02*
X230176190Y-90251904D01*
X230152380Y-90204285D01*
X230128571Y-90180476D01*
X230057142Y-90132857D01*
X229961904Y-90109047D01*
X229771428Y-90109047D01*
X229723809Y-90132857D01*
X229700000Y-90156666D01*
X229676190Y-90204285D01*
X229676190Y-90299523D01*
X229700000Y-90347142D01*
X229723809Y-90370952D01*
X229771428Y-90394761D01*
X229890476Y-90394761D01*
X229938095Y-90370952D01*
X229961904Y-90347142D01*
X229985714Y-90299523D01*
X229985714Y-90204285D01*
X229961904Y-90156666D01*
X229938095Y-90132857D01*
X229890476Y-90109047D01*
G04 #@! TO.C,C20*
X217438571Y-88661428D02*
X217462380Y-88685238D01*
X217486190Y-88756666D01*
X217486190Y-88804285D01*
X217462380Y-88875714D01*
X217414761Y-88923333D01*
X217367142Y-88947142D01*
X217271904Y-88970952D01*
X217200476Y-88970952D01*
X217105238Y-88947142D01*
X217057619Y-88923333D01*
X217010000Y-88875714D01*
X216986190Y-88804285D01*
X216986190Y-88756666D01*
X217010000Y-88685238D01*
X217033809Y-88661428D01*
X217033809Y-88470952D02*
X217010000Y-88447142D01*
X216986190Y-88399523D01*
X216986190Y-88280476D01*
X217010000Y-88232857D01*
X217033809Y-88209047D01*
X217081428Y-88185238D01*
X217129047Y-88185238D01*
X217200476Y-88209047D01*
X217486190Y-88494761D01*
X217486190Y-88185238D01*
X216986190Y-87875714D02*
X216986190Y-87828095D01*
X217010000Y-87780476D01*
X217033809Y-87756666D01*
X217081428Y-87732857D01*
X217176666Y-87709047D01*
X217295714Y-87709047D01*
X217390952Y-87732857D01*
X217438571Y-87756666D01*
X217462380Y-87780476D01*
X217486190Y-87828095D01*
X217486190Y-87875714D01*
X217462380Y-87923333D01*
X217438571Y-87947142D01*
X217390952Y-87970952D01*
X217295714Y-87994761D01*
X217176666Y-87994761D01*
X217081428Y-87970952D01*
X217033809Y-87947142D01*
X217010000Y-87923333D01*
X216986190Y-87875714D01*
G04 #@! TO.C,C21*
X197968571Y-104701428D02*
X197992380Y-104725238D01*
X198016190Y-104796666D01*
X198016190Y-104844285D01*
X197992380Y-104915714D01*
X197944761Y-104963333D01*
X197897142Y-104987142D01*
X197801904Y-105010952D01*
X197730476Y-105010952D01*
X197635238Y-104987142D01*
X197587619Y-104963333D01*
X197540000Y-104915714D01*
X197516190Y-104844285D01*
X197516190Y-104796666D01*
X197540000Y-104725238D01*
X197563809Y-104701428D01*
X197563809Y-104510952D02*
X197540000Y-104487142D01*
X197516190Y-104439523D01*
X197516190Y-104320476D01*
X197540000Y-104272857D01*
X197563809Y-104249047D01*
X197611428Y-104225238D01*
X197659047Y-104225238D01*
X197730476Y-104249047D01*
X198016190Y-104534761D01*
X198016190Y-104225238D01*
X198016190Y-103749047D02*
X198016190Y-104034761D01*
X198016190Y-103891904D02*
X197516190Y-103891904D01*
X197587619Y-103939523D01*
X197635238Y-103987142D01*
X197659047Y-104034761D01*
G04 #@! TO.C,C23*
X202368571Y-99711428D02*
X202392380Y-99735238D01*
X202416190Y-99806666D01*
X202416190Y-99854285D01*
X202392380Y-99925714D01*
X202344761Y-99973333D01*
X202297142Y-99997142D01*
X202201904Y-100020952D01*
X202130476Y-100020952D01*
X202035238Y-99997142D01*
X201987619Y-99973333D01*
X201940000Y-99925714D01*
X201916190Y-99854285D01*
X201916190Y-99806666D01*
X201940000Y-99735238D01*
X201963809Y-99711428D01*
X201963809Y-99520952D02*
X201940000Y-99497142D01*
X201916190Y-99449523D01*
X201916190Y-99330476D01*
X201940000Y-99282857D01*
X201963809Y-99259047D01*
X202011428Y-99235238D01*
X202059047Y-99235238D01*
X202130476Y-99259047D01*
X202416190Y-99544761D01*
X202416190Y-99235238D01*
X201916190Y-99068571D02*
X201916190Y-98759047D01*
X202106666Y-98925714D01*
X202106666Y-98854285D01*
X202130476Y-98806666D01*
X202154285Y-98782857D01*
X202201904Y-98759047D01*
X202320952Y-98759047D01*
X202368571Y-98782857D01*
X202392380Y-98806666D01*
X202416190Y-98854285D01*
X202416190Y-98997142D01*
X202392380Y-99044761D01*
X202368571Y-99068571D01*
G04 #@! TO.C,C24*
X204108571Y-99641428D02*
X204132380Y-99665238D01*
X204156190Y-99736666D01*
X204156190Y-99784285D01*
X204132380Y-99855714D01*
X204084761Y-99903333D01*
X204037142Y-99927142D01*
X203941904Y-99950952D01*
X203870476Y-99950952D01*
X203775238Y-99927142D01*
X203727619Y-99903333D01*
X203680000Y-99855714D01*
X203656190Y-99784285D01*
X203656190Y-99736666D01*
X203680000Y-99665238D01*
X203703809Y-99641428D01*
X203703809Y-99450952D02*
X203680000Y-99427142D01*
X203656190Y-99379523D01*
X203656190Y-99260476D01*
X203680000Y-99212857D01*
X203703809Y-99189047D01*
X203751428Y-99165238D01*
X203799047Y-99165238D01*
X203870476Y-99189047D01*
X204156190Y-99474761D01*
X204156190Y-99165238D01*
X203822857Y-98736666D02*
X204156190Y-98736666D01*
X203632380Y-98855714D02*
X203989523Y-98974761D01*
X203989523Y-98665238D01*
G04 #@! TO.C,C25*
X206778571Y-103998571D02*
X206754761Y-104022380D01*
X206683333Y-104046190D01*
X206635714Y-104046190D01*
X206564285Y-104022380D01*
X206516666Y-103974761D01*
X206492857Y-103927142D01*
X206469047Y-103831904D01*
X206469047Y-103760476D01*
X206492857Y-103665238D01*
X206516666Y-103617619D01*
X206564285Y-103570000D01*
X206635714Y-103546190D01*
X206683333Y-103546190D01*
X206754761Y-103570000D01*
X206778571Y-103593809D01*
X206969047Y-103593809D02*
X206992857Y-103570000D01*
X207040476Y-103546190D01*
X207159523Y-103546190D01*
X207207142Y-103570000D01*
X207230952Y-103593809D01*
X207254761Y-103641428D01*
X207254761Y-103689047D01*
X207230952Y-103760476D01*
X206945238Y-104046190D01*
X207254761Y-104046190D01*
X207707142Y-103546190D02*
X207469047Y-103546190D01*
X207445238Y-103784285D01*
X207469047Y-103760476D01*
X207516666Y-103736666D01*
X207635714Y-103736666D01*
X207683333Y-103760476D01*
X207707142Y-103784285D01*
X207730952Y-103831904D01*
X207730952Y-103950952D01*
X207707142Y-103998571D01*
X207683333Y-104022380D01*
X207635714Y-104046190D01*
X207516666Y-104046190D01*
X207469047Y-104022380D01*
X207445238Y-103998571D01*
G04 #@! TO.C,C27*
X208928571Y-104048571D02*
X208904761Y-104072380D01*
X208833333Y-104096190D01*
X208785714Y-104096190D01*
X208714285Y-104072380D01*
X208666666Y-104024761D01*
X208642857Y-103977142D01*
X208619047Y-103881904D01*
X208619047Y-103810476D01*
X208642857Y-103715238D01*
X208666666Y-103667619D01*
X208714285Y-103620000D01*
X208785714Y-103596190D01*
X208833333Y-103596190D01*
X208904761Y-103620000D01*
X208928571Y-103643809D01*
X209119047Y-103643809D02*
X209142857Y-103620000D01*
X209190476Y-103596190D01*
X209309523Y-103596190D01*
X209357142Y-103620000D01*
X209380952Y-103643809D01*
X209404761Y-103691428D01*
X209404761Y-103739047D01*
X209380952Y-103810476D01*
X209095238Y-104096190D01*
X209404761Y-104096190D01*
X209571428Y-103596190D02*
X209904761Y-103596190D01*
X209690476Y-104096190D01*
G04 #@! TO.C,C28*
X210878571Y-104018571D02*
X210854761Y-104042380D01*
X210783333Y-104066190D01*
X210735714Y-104066190D01*
X210664285Y-104042380D01*
X210616666Y-103994761D01*
X210592857Y-103947142D01*
X210569047Y-103851904D01*
X210569047Y-103780476D01*
X210592857Y-103685238D01*
X210616666Y-103637619D01*
X210664285Y-103590000D01*
X210735714Y-103566190D01*
X210783333Y-103566190D01*
X210854761Y-103590000D01*
X210878571Y-103613809D01*
X211069047Y-103613809D02*
X211092857Y-103590000D01*
X211140476Y-103566190D01*
X211259523Y-103566190D01*
X211307142Y-103590000D01*
X211330952Y-103613809D01*
X211354761Y-103661428D01*
X211354761Y-103709047D01*
X211330952Y-103780476D01*
X211045238Y-104066190D01*
X211354761Y-104066190D01*
X211640476Y-103780476D02*
X211592857Y-103756666D01*
X211569047Y-103732857D01*
X211545238Y-103685238D01*
X211545238Y-103661428D01*
X211569047Y-103613809D01*
X211592857Y-103590000D01*
X211640476Y-103566190D01*
X211735714Y-103566190D01*
X211783333Y-103590000D01*
X211807142Y-103613809D01*
X211830952Y-103661428D01*
X211830952Y-103685238D01*
X211807142Y-103732857D01*
X211783333Y-103756666D01*
X211735714Y-103780476D01*
X211640476Y-103780476D01*
X211592857Y-103804285D01*
X211569047Y-103828095D01*
X211545238Y-103875714D01*
X211545238Y-103970952D01*
X211569047Y-104018571D01*
X211592857Y-104042380D01*
X211640476Y-104066190D01*
X211735714Y-104066190D01*
X211783333Y-104042380D01*
X211807142Y-104018571D01*
X211830952Y-103970952D01*
X211830952Y-103875714D01*
X211807142Y-103828095D01*
X211783333Y-103804285D01*
X211735714Y-103780476D01*
G04 #@! TO.C,5v*
D12*
X228794047Y-100612857D02*
X228794047Y-100922380D01*
X229103571Y-100953333D01*
X229072619Y-100922380D01*
X229041666Y-100860476D01*
X229041666Y-100705714D01*
X229072619Y-100643809D01*
X229103571Y-100612857D01*
X229165476Y-100581904D01*
X229320238Y-100581904D01*
X229382142Y-100612857D01*
X229413095Y-100643809D01*
X229444047Y-100705714D01*
X229444047Y-100860476D01*
X229413095Y-100922380D01*
X229382142Y-100953333D01*
X229010714Y-100365238D02*
X229444047Y-100210476D01*
X229010714Y-100055714D01*
G04 #@! TO.C,1v*
X198188095Y-85794047D02*
X197816666Y-85794047D01*
X198002380Y-85794047D02*
X198002380Y-85144047D01*
X197940476Y-85236904D01*
X197878571Y-85298809D01*
X197816666Y-85329761D01*
X198404761Y-85360714D02*
X198559523Y-85794047D01*
X198714285Y-85360714D01*
G04 #@! TO.C,3v3*
X221176190Y-115944047D02*
X221578571Y-115944047D01*
X221361904Y-116191666D01*
X221454761Y-116191666D01*
X221516666Y-116222619D01*
X221547619Y-116253571D01*
X221578571Y-116315476D01*
X221578571Y-116470238D01*
X221547619Y-116532142D01*
X221516666Y-116563095D01*
X221454761Y-116594047D01*
X221269047Y-116594047D01*
X221207142Y-116563095D01*
X221176190Y-116532142D01*
X221795238Y-116160714D02*
X221950000Y-116594047D01*
X222104761Y-116160714D01*
X222290476Y-115944047D02*
X222692857Y-115944047D01*
X222476190Y-116191666D01*
X222569047Y-116191666D01*
X222630952Y-116222619D01*
X222661904Y-116253571D01*
X222692857Y-116315476D01*
X222692857Y-116470238D01*
X222661904Y-116532142D01*
X222630952Y-116563095D01*
X222569047Y-116594047D01*
X222383333Y-116594047D01*
X222321428Y-116563095D01*
X222290476Y-116532142D01*
G04 #@! TO.C,1v8*
X222458571Y-85774047D02*
X222087142Y-85774047D01*
X222272857Y-85774047D02*
X222272857Y-85124047D01*
X222210952Y-85216904D01*
X222149047Y-85278809D01*
X222087142Y-85309761D01*
X222675238Y-85340714D02*
X222830000Y-85774047D01*
X222984761Y-85340714D01*
X223325238Y-85402619D02*
X223263333Y-85371666D01*
X223232380Y-85340714D01*
X223201428Y-85278809D01*
X223201428Y-85247857D01*
X223232380Y-85185952D01*
X223263333Y-85155000D01*
X223325238Y-85124047D01*
X223449047Y-85124047D01*
X223510952Y-85155000D01*
X223541904Y-85185952D01*
X223572857Y-85247857D01*
X223572857Y-85278809D01*
X223541904Y-85340714D01*
X223510952Y-85371666D01*
X223449047Y-85402619D01*
X223325238Y-85402619D01*
X223263333Y-85433571D01*
X223232380Y-85464523D01*
X223201428Y-85526428D01*
X223201428Y-85650238D01*
X223232380Y-85712142D01*
X223263333Y-85743095D01*
X223325238Y-85774047D01*
X223449047Y-85774047D01*
X223510952Y-85743095D01*
X223541904Y-85712142D01*
X223572857Y-85650238D01*
X223572857Y-85526428D01*
X223541904Y-85464523D01*
X223510952Y-85433571D01*
X223449047Y-85402619D01*
G04 #@! TO.C,1v15*
X210539047Y-85814047D02*
X210167619Y-85814047D01*
X210353333Y-85814047D02*
X210353333Y-85164047D01*
X210291428Y-85256904D01*
X210229523Y-85318809D01*
X210167619Y-85349761D01*
X210755714Y-85380714D02*
X210910476Y-85814047D01*
X211065238Y-85380714D01*
X211653333Y-85814047D02*
X211281904Y-85814047D01*
X211467619Y-85814047D02*
X211467619Y-85164047D01*
X211405714Y-85256904D01*
X211343809Y-85318809D01*
X211281904Y-85349761D01*
X212241428Y-85164047D02*
X211931904Y-85164047D01*
X211900952Y-85473571D01*
X211931904Y-85442619D01*
X211993809Y-85411666D01*
X212148571Y-85411666D01*
X212210476Y-85442619D01*
X212241428Y-85473571D01*
X212272380Y-85535476D01*
X212272380Y-85690238D01*
X212241428Y-85752142D01*
X212210476Y-85783095D01*
X212148571Y-85814047D01*
X211993809Y-85814047D01*
X211931904Y-85783095D01*
X211900952Y-85752142D01*
G04 #@! TO.C,GND*
X213614761Y-114695000D02*
X213552857Y-114664047D01*
X213460000Y-114664047D01*
X213367142Y-114695000D01*
X213305238Y-114756904D01*
X213274285Y-114818809D01*
X213243333Y-114942619D01*
X213243333Y-115035476D01*
X213274285Y-115159285D01*
X213305238Y-115221190D01*
X213367142Y-115283095D01*
X213460000Y-115314047D01*
X213521904Y-115314047D01*
X213614761Y-115283095D01*
X213645714Y-115252142D01*
X213645714Y-115035476D01*
X213521904Y-115035476D01*
X213924285Y-115314047D02*
X213924285Y-114664047D01*
X214295714Y-115314047D01*
X214295714Y-114664047D01*
X214605238Y-115314047D02*
X214605238Y-114664047D01*
X214760000Y-114664047D01*
X214852857Y-114695000D01*
X214914761Y-114756904D01*
X214945714Y-114818809D01*
X214976666Y-114942619D01*
X214976666Y-115035476D01*
X214945714Y-115159285D01*
X214914761Y-115221190D01*
X214852857Y-115283095D01*
X214760000Y-115314047D01*
X214605238Y-115314047D01*
X203904761Y-86545000D02*
X203842857Y-86514047D01*
X203750000Y-86514047D01*
X203657142Y-86545000D01*
X203595238Y-86606904D01*
X203564285Y-86668809D01*
X203533333Y-86792619D01*
X203533333Y-86885476D01*
X203564285Y-87009285D01*
X203595238Y-87071190D01*
X203657142Y-87133095D01*
X203750000Y-87164047D01*
X203811904Y-87164047D01*
X203904761Y-87133095D01*
X203935714Y-87102142D01*
X203935714Y-86885476D01*
X203811904Y-86885476D01*
X204214285Y-87164047D02*
X204214285Y-86514047D01*
X204585714Y-87164047D01*
X204585714Y-86514047D01*
X204895238Y-87164047D02*
X204895238Y-86514047D01*
X205050000Y-86514047D01*
X205142857Y-86545000D01*
X205204761Y-86606904D01*
X205235714Y-86668809D01*
X205266666Y-86792619D01*
X205266666Y-86885476D01*
X205235714Y-87009285D01*
X205204761Y-87071190D01*
X205142857Y-87133095D01*
X205050000Y-87164047D01*
X204895238Y-87164047D01*
X216214761Y-86535000D02*
X216152857Y-86504047D01*
X216060000Y-86504047D01*
X215967142Y-86535000D01*
X215905238Y-86596904D01*
X215874285Y-86658809D01*
X215843333Y-86782619D01*
X215843333Y-86875476D01*
X215874285Y-86999285D01*
X215905238Y-87061190D01*
X215967142Y-87123095D01*
X216060000Y-87154047D01*
X216121904Y-87154047D01*
X216214761Y-87123095D01*
X216245714Y-87092142D01*
X216245714Y-86875476D01*
X216121904Y-86875476D01*
X216524285Y-87154047D02*
X216524285Y-86504047D01*
X216895714Y-87154047D01*
X216895714Y-86504047D01*
X217205238Y-87154047D02*
X217205238Y-86504047D01*
X217360000Y-86504047D01*
X217452857Y-86535000D01*
X217514761Y-86596904D01*
X217545714Y-86658809D01*
X217576666Y-86782619D01*
X217576666Y-86875476D01*
X217545714Y-86999285D01*
X217514761Y-87061190D01*
X217452857Y-87123095D01*
X217360000Y-87154047D01*
X217205238Y-87154047D01*
X228835000Y-107595238D02*
X228804047Y-107657142D01*
X228804047Y-107750000D01*
X228835000Y-107842857D01*
X228896904Y-107904761D01*
X228958809Y-107935714D01*
X229082619Y-107966666D01*
X229175476Y-107966666D01*
X229299285Y-107935714D01*
X229361190Y-107904761D01*
X229423095Y-107842857D01*
X229454047Y-107750000D01*
X229454047Y-107688095D01*
X229423095Y-107595238D01*
X229392142Y-107564285D01*
X229175476Y-107564285D01*
X229175476Y-107688095D01*
X229454047Y-107285714D02*
X228804047Y-107285714D01*
X229454047Y-106914285D01*
X228804047Y-106914285D01*
X229454047Y-106604761D02*
X228804047Y-106604761D01*
X228804047Y-106450000D01*
X228835000Y-106357142D01*
X228896904Y-106295238D01*
X228958809Y-106264285D01*
X229082619Y-106233333D01*
X229175476Y-106233333D01*
X229299285Y-106264285D01*
X229361190Y-106295238D01*
X229423095Y-106357142D01*
X229454047Y-106450000D01*
X229454047Y-106604761D01*
X191464761Y-102745000D02*
X191402857Y-102714047D01*
X191310000Y-102714047D01*
X191217142Y-102745000D01*
X191155238Y-102806904D01*
X191124285Y-102868809D01*
X191093333Y-102992619D01*
X191093333Y-103085476D01*
X191124285Y-103209285D01*
X191155238Y-103271190D01*
X191217142Y-103333095D01*
X191310000Y-103364047D01*
X191371904Y-103364047D01*
X191464761Y-103333095D01*
X191495714Y-103302142D01*
X191495714Y-103085476D01*
X191371904Y-103085476D01*
X191774285Y-103364047D02*
X191774285Y-102714047D01*
X192145714Y-103364047D01*
X192145714Y-102714047D01*
X192455238Y-103364047D02*
X192455238Y-102714047D01*
X192610000Y-102714047D01*
X192702857Y-102745000D01*
X192764761Y-102806904D01*
X192795714Y-102868809D01*
X192826666Y-102992619D01*
X192826666Y-103085476D01*
X192795714Y-103209285D01*
X192764761Y-103271190D01*
X192702857Y-103333095D01*
X192610000Y-103364047D01*
X192455238Y-103364047D01*
G04 #@! TO.C,CHRG*
X191450714Y-105502142D02*
X191419761Y-105533095D01*
X191326904Y-105564047D01*
X191265000Y-105564047D01*
X191172142Y-105533095D01*
X191110238Y-105471190D01*
X191079285Y-105409285D01*
X191048333Y-105285476D01*
X191048333Y-105192619D01*
X191079285Y-105068809D01*
X191110238Y-105006904D01*
X191172142Y-104945000D01*
X191265000Y-104914047D01*
X191326904Y-104914047D01*
X191419761Y-104945000D01*
X191450714Y-104975952D01*
X191729285Y-105564047D02*
X191729285Y-104914047D01*
X191729285Y-105223571D02*
X192100714Y-105223571D01*
X192100714Y-105564047D02*
X192100714Y-104914047D01*
X192781666Y-105564047D02*
X192565000Y-105254523D01*
X192410238Y-105564047D02*
X192410238Y-104914047D01*
X192657857Y-104914047D01*
X192719761Y-104945000D01*
X192750714Y-104975952D01*
X192781666Y-105037857D01*
X192781666Y-105130714D01*
X192750714Y-105192619D01*
X192719761Y-105223571D01*
X192657857Y-105254523D01*
X192410238Y-105254523D01*
X193400714Y-104945000D02*
X193338809Y-104914047D01*
X193245952Y-104914047D01*
X193153095Y-104945000D01*
X193091190Y-105006904D01*
X193060238Y-105068809D01*
X193029285Y-105192619D01*
X193029285Y-105285476D01*
X193060238Y-105409285D01*
X193091190Y-105471190D01*
X193153095Y-105533095D01*
X193245952Y-105564047D01*
X193307857Y-105564047D01*
X193400714Y-105533095D01*
X193431666Y-105502142D01*
X193431666Y-105285476D01*
X193307857Y-105285476D01*
G04 #@! TO.C,GND*
X228865000Y-97775238D02*
X228834047Y-97837142D01*
X228834047Y-97930000D01*
X228865000Y-98022857D01*
X228926904Y-98084761D01*
X228988809Y-98115714D01*
X229112619Y-98146666D01*
X229205476Y-98146666D01*
X229329285Y-98115714D01*
X229391190Y-98084761D01*
X229453095Y-98022857D01*
X229484047Y-97930000D01*
X229484047Y-97868095D01*
X229453095Y-97775238D01*
X229422142Y-97744285D01*
X229205476Y-97744285D01*
X229205476Y-97868095D01*
X229484047Y-97465714D02*
X228834047Y-97465714D01*
X229484047Y-97094285D01*
X228834047Y-97094285D01*
X229484047Y-96784761D02*
X228834047Y-96784761D01*
X228834047Y-96630000D01*
X228865000Y-96537142D01*
X228926904Y-96475238D01*
X228988809Y-96444285D01*
X229112619Y-96413333D01*
X229205476Y-96413333D01*
X229329285Y-96444285D01*
X229391190Y-96475238D01*
X229453095Y-96537142D01*
X229484047Y-96630000D01*
X229484047Y-96784761D01*
G04 #@! TO.C,B+*
X208304047Y-114973571D02*
X208396904Y-115004523D01*
X208427857Y-115035476D01*
X208458809Y-115097380D01*
X208458809Y-115190238D01*
X208427857Y-115252142D01*
X208396904Y-115283095D01*
X208335000Y-115314047D01*
X208087380Y-115314047D01*
X208087380Y-114664047D01*
X208304047Y-114664047D01*
X208365952Y-114695000D01*
X208396904Y-114725952D01*
X208427857Y-114787857D01*
X208427857Y-114849761D01*
X208396904Y-114911666D01*
X208365952Y-114942619D01*
X208304047Y-114973571D01*
X208087380Y-114973571D01*
X208737380Y-115066428D02*
X209232619Y-115066428D01*
X208985000Y-115314047D02*
X208985000Y-114818809D01*
G04 #@! TO.C,L1*
D10*
X218676666Y-101646190D02*
X218438571Y-101646190D01*
X218438571Y-101146190D01*
X219105238Y-101646190D02*
X218819523Y-101646190D01*
X218962380Y-101646190D02*
X218962380Y-101146190D01*
X218914761Y-101217619D01*
X218867142Y-101265238D01*
X218819523Y-101289047D01*
G04 #@! TO.C,L2*
X193716666Y-87186190D02*
X193478571Y-87186190D01*
X193478571Y-86686190D01*
X193859523Y-86733809D02*
X193883333Y-86710000D01*
X193930952Y-86686190D01*
X194050000Y-86686190D01*
X194097619Y-86710000D01*
X194121428Y-86733809D01*
X194145238Y-86781428D01*
X194145238Y-86829047D01*
X194121428Y-86900476D01*
X193835714Y-87186190D01*
X194145238Y-87186190D01*
G04 #@! TO.C,L3*
X226286666Y-110106190D02*
X226048571Y-110106190D01*
X226048571Y-109606190D01*
X226405714Y-109606190D02*
X226715238Y-109606190D01*
X226548571Y-109796666D01*
X226620000Y-109796666D01*
X226667619Y-109820476D01*
X226691428Y-109844285D01*
X226715238Y-109891904D01*
X226715238Y-110010952D01*
X226691428Y-110058571D01*
X226667619Y-110082380D01*
X226620000Y-110106190D01*
X226477142Y-110106190D01*
X226429523Y-110082380D01*
X226405714Y-110058571D01*
G04 #@! TO.C,L4*
X222376666Y-87196190D02*
X222138571Y-87196190D01*
X222138571Y-86696190D01*
X222757619Y-86862857D02*
X222757619Y-87196190D01*
X222638571Y-86672380D02*
X222519523Y-87029523D01*
X222829047Y-87029523D01*
G04 #@! TO.C,L5*
X210506666Y-87296190D02*
X210268571Y-87296190D01*
X210268571Y-86796190D01*
X210911428Y-86796190D02*
X210673333Y-86796190D01*
X210649523Y-87034285D01*
X210673333Y-87010476D01*
X210720952Y-86986666D01*
X210840000Y-86986666D01*
X210887619Y-87010476D01*
X210911428Y-87034285D01*
X210935238Y-87081904D01*
X210935238Y-87200952D01*
X210911428Y-87248571D01*
X210887619Y-87272380D01*
X210840000Y-87296190D01*
X210720952Y-87296190D01*
X210673333Y-87272380D01*
X210649523Y-87248571D01*
G04 #@! TO.C,L6*
X205856666Y-97766190D02*
X205618571Y-97766190D01*
X205618571Y-97266190D01*
X206237619Y-97266190D02*
X206142380Y-97266190D01*
X206094761Y-97290000D01*
X206070952Y-97313809D01*
X206023333Y-97385238D01*
X205999523Y-97480476D01*
X205999523Y-97670952D01*
X206023333Y-97718571D01*
X206047142Y-97742380D01*
X206094761Y-97766190D01*
X206190000Y-97766190D01*
X206237619Y-97742380D01*
X206261428Y-97718571D01*
X206285238Y-97670952D01*
X206285238Y-97551904D01*
X206261428Y-97504285D01*
X206237619Y-97480476D01*
X206190000Y-97456666D01*
X206094761Y-97456666D01*
X206047142Y-97480476D01*
X206023333Y-97504285D01*
X205999523Y-97551904D01*
G04 #@! TO.C,Q1*
X191312380Y-97753809D02*
X191264761Y-97730000D01*
X191217142Y-97682380D01*
X191145714Y-97610952D01*
X191098095Y-97587142D01*
X191050476Y-97587142D01*
X191074285Y-97706190D02*
X191026666Y-97682380D01*
X190979047Y-97634761D01*
X190955238Y-97539523D01*
X190955238Y-97372857D01*
X190979047Y-97277619D01*
X191026666Y-97230000D01*
X191074285Y-97206190D01*
X191169523Y-97206190D01*
X191217142Y-97230000D01*
X191264761Y-97277619D01*
X191288571Y-97372857D01*
X191288571Y-97539523D01*
X191264761Y-97634761D01*
X191217142Y-97682380D01*
X191169523Y-97706190D01*
X191074285Y-97706190D01*
X191764761Y-97706190D02*
X191479047Y-97706190D01*
X191621904Y-97706190D02*
X191621904Y-97206190D01*
X191574285Y-97277619D01*
X191526666Y-97325238D01*
X191479047Y-97349047D01*
G04 #@! TO.C,Q2*
X194972380Y-97783809D02*
X194924761Y-97760000D01*
X194877142Y-97712380D01*
X194805714Y-97640952D01*
X194758095Y-97617142D01*
X194710476Y-97617142D01*
X194734285Y-97736190D02*
X194686666Y-97712380D01*
X194639047Y-97664761D01*
X194615238Y-97569523D01*
X194615238Y-97402857D01*
X194639047Y-97307619D01*
X194686666Y-97260000D01*
X194734285Y-97236190D01*
X194829523Y-97236190D01*
X194877142Y-97260000D01*
X194924761Y-97307619D01*
X194948571Y-97402857D01*
X194948571Y-97569523D01*
X194924761Y-97664761D01*
X194877142Y-97712380D01*
X194829523Y-97736190D01*
X194734285Y-97736190D01*
X195139047Y-97283809D02*
X195162857Y-97260000D01*
X195210476Y-97236190D01*
X195329523Y-97236190D01*
X195377142Y-97260000D01*
X195400952Y-97283809D01*
X195424761Y-97331428D01*
X195424761Y-97379047D01*
X195400952Y-97450476D01*
X195115238Y-97736190D01*
X195424761Y-97736190D01*
G04 #@! TO.C,Q3*
X198722380Y-97783809D02*
X198674761Y-97760000D01*
X198627142Y-97712380D01*
X198555714Y-97640952D01*
X198508095Y-97617142D01*
X198460476Y-97617142D01*
X198484285Y-97736190D02*
X198436666Y-97712380D01*
X198389047Y-97664761D01*
X198365238Y-97569523D01*
X198365238Y-97402857D01*
X198389047Y-97307619D01*
X198436666Y-97260000D01*
X198484285Y-97236190D01*
X198579523Y-97236190D01*
X198627142Y-97260000D01*
X198674761Y-97307619D01*
X198698571Y-97402857D01*
X198698571Y-97569523D01*
X198674761Y-97664761D01*
X198627142Y-97712380D01*
X198579523Y-97736190D01*
X198484285Y-97736190D01*
X198865238Y-97236190D02*
X199174761Y-97236190D01*
X199008095Y-97426666D01*
X199079523Y-97426666D01*
X199127142Y-97450476D01*
X199150952Y-97474285D01*
X199174761Y-97521904D01*
X199174761Y-97640952D01*
X199150952Y-97688571D01*
X199127142Y-97712380D01*
X199079523Y-97736190D01*
X198936666Y-97736190D01*
X198889047Y-97712380D01*
X198865238Y-97688571D01*
G04 #@! TO.C,R1*
X197496666Y-92526190D02*
X197330000Y-92288095D01*
X197210952Y-92526190D02*
X197210952Y-92026190D01*
X197401428Y-92026190D01*
X197449047Y-92050000D01*
X197472857Y-92073809D01*
X197496666Y-92121428D01*
X197496666Y-92192857D01*
X197472857Y-92240476D01*
X197449047Y-92264285D01*
X197401428Y-92288095D01*
X197210952Y-92288095D01*
X197972857Y-92526190D02*
X197687142Y-92526190D01*
X197830000Y-92526190D02*
X197830000Y-92026190D01*
X197782380Y-92097619D01*
X197734761Y-92145238D01*
X197687142Y-92169047D01*
G04 #@! TO.C,R2*
X223076666Y-109956190D02*
X222910000Y-109718095D01*
X222790952Y-109956190D02*
X222790952Y-109456190D01*
X222981428Y-109456190D01*
X223029047Y-109480000D01*
X223052857Y-109503809D01*
X223076666Y-109551428D01*
X223076666Y-109622857D01*
X223052857Y-109670476D01*
X223029047Y-109694285D01*
X222981428Y-109718095D01*
X222790952Y-109718095D01*
X223267142Y-109503809D02*
X223290952Y-109480000D01*
X223338571Y-109456190D01*
X223457619Y-109456190D01*
X223505238Y-109480000D01*
X223529047Y-109503809D01*
X223552857Y-109551428D01*
X223552857Y-109599047D01*
X223529047Y-109670476D01*
X223243333Y-109956190D01*
X223552857Y-109956190D01*
G04 #@! TO.C,R3*
X195876666Y-92566190D02*
X195710000Y-92328095D01*
X195590952Y-92566190D02*
X195590952Y-92066190D01*
X195781428Y-92066190D01*
X195829047Y-92090000D01*
X195852857Y-92113809D01*
X195876666Y-92161428D01*
X195876666Y-92232857D01*
X195852857Y-92280476D01*
X195829047Y-92304285D01*
X195781428Y-92328095D01*
X195590952Y-92328095D01*
X196043333Y-92066190D02*
X196352857Y-92066190D01*
X196186190Y-92256666D01*
X196257619Y-92256666D01*
X196305238Y-92280476D01*
X196329047Y-92304285D01*
X196352857Y-92351904D01*
X196352857Y-92470952D01*
X196329047Y-92518571D01*
X196305238Y-92542380D01*
X196257619Y-92566190D01*
X196114761Y-92566190D01*
X196067142Y-92542380D01*
X196043333Y-92518571D01*
G04 #@! TO.C,R4*
X224676666Y-109966190D02*
X224510000Y-109728095D01*
X224390952Y-109966190D02*
X224390952Y-109466190D01*
X224581428Y-109466190D01*
X224629047Y-109490000D01*
X224652857Y-109513809D01*
X224676666Y-109561428D01*
X224676666Y-109632857D01*
X224652857Y-109680476D01*
X224629047Y-109704285D01*
X224581428Y-109728095D01*
X224390952Y-109728095D01*
X225105238Y-109632857D02*
X225105238Y-109966190D01*
X224986190Y-109442380D02*
X224867142Y-109799523D01*
X225176666Y-109799523D01*
G04 #@! TO.C,R5*
X190076190Y-93973333D02*
X189838095Y-94140000D01*
X190076190Y-94259047D02*
X189576190Y-94259047D01*
X189576190Y-94068571D01*
X189600000Y-94020952D01*
X189623809Y-93997142D01*
X189671428Y-93973333D01*
X189742857Y-93973333D01*
X189790476Y-93997142D01*
X189814285Y-94020952D01*
X189838095Y-94068571D01*
X189838095Y-94259047D01*
X189576190Y-93520952D02*
X189576190Y-93759047D01*
X189814285Y-93782857D01*
X189790476Y-93759047D01*
X189766666Y-93711428D01*
X189766666Y-93592380D01*
X189790476Y-93544761D01*
X189814285Y-93520952D01*
X189861904Y-93497142D01*
X189980952Y-93497142D01*
X190028571Y-93520952D01*
X190052380Y-93544761D01*
X190076190Y-93592380D01*
X190076190Y-93711428D01*
X190052380Y-93759047D01*
X190028571Y-93782857D01*
G04 #@! TO.C,R6*
X190996190Y-94013333D02*
X190758095Y-94180000D01*
X190996190Y-94299047D02*
X190496190Y-94299047D01*
X190496190Y-94108571D01*
X190520000Y-94060952D01*
X190543809Y-94037142D01*
X190591428Y-94013333D01*
X190662857Y-94013333D01*
X190710476Y-94037142D01*
X190734285Y-94060952D01*
X190758095Y-94108571D01*
X190758095Y-94299047D01*
X190496190Y-93584761D02*
X190496190Y-93680000D01*
X190520000Y-93727619D01*
X190543809Y-93751428D01*
X190615238Y-93799047D01*
X190710476Y-93822857D01*
X190900952Y-93822857D01*
X190948571Y-93799047D01*
X190972380Y-93775238D01*
X190996190Y-93727619D01*
X190996190Y-93632380D01*
X190972380Y-93584761D01*
X190948571Y-93560952D01*
X190900952Y-93537142D01*
X190781904Y-93537142D01*
X190734285Y-93560952D01*
X190710476Y-93584761D01*
X190686666Y-93632380D01*
X190686666Y-93727619D01*
X190710476Y-93775238D01*
X190734285Y-93799047D01*
X190781904Y-93822857D01*
G04 #@! TO.C,R7*
X193586666Y-102666190D02*
X193420000Y-102428095D01*
X193300952Y-102666190D02*
X193300952Y-102166190D01*
X193491428Y-102166190D01*
X193539047Y-102190000D01*
X193562857Y-102213809D01*
X193586666Y-102261428D01*
X193586666Y-102332857D01*
X193562857Y-102380476D01*
X193539047Y-102404285D01*
X193491428Y-102428095D01*
X193300952Y-102428095D01*
X193753333Y-102166190D02*
X194086666Y-102166190D01*
X193872380Y-102666190D01*
G04 #@! TO.C,R8*
X221486666Y-92536190D02*
X221320000Y-92298095D01*
X221200952Y-92536190D02*
X221200952Y-92036190D01*
X221391428Y-92036190D01*
X221439047Y-92060000D01*
X221462857Y-92083809D01*
X221486666Y-92131428D01*
X221486666Y-92202857D01*
X221462857Y-92250476D01*
X221439047Y-92274285D01*
X221391428Y-92298095D01*
X221200952Y-92298095D01*
X221772380Y-92250476D02*
X221724761Y-92226666D01*
X221700952Y-92202857D01*
X221677142Y-92155238D01*
X221677142Y-92131428D01*
X221700952Y-92083809D01*
X221724761Y-92060000D01*
X221772380Y-92036190D01*
X221867619Y-92036190D01*
X221915238Y-92060000D01*
X221939047Y-92083809D01*
X221962857Y-92131428D01*
X221962857Y-92155238D01*
X221939047Y-92202857D01*
X221915238Y-92226666D01*
X221867619Y-92250476D01*
X221772380Y-92250476D01*
X221724761Y-92274285D01*
X221700952Y-92298095D01*
X221677142Y-92345714D01*
X221677142Y-92440952D01*
X221700952Y-92488571D01*
X221724761Y-92512380D01*
X221772380Y-92536190D01*
X221867619Y-92536190D01*
X221915238Y-92512380D01*
X221939047Y-92488571D01*
X221962857Y-92440952D01*
X221962857Y-92345714D01*
X221939047Y-92298095D01*
X221915238Y-92274285D01*
X221867619Y-92250476D01*
G04 #@! TO.C,R9*
X209776666Y-92536190D02*
X209610000Y-92298095D01*
X209490952Y-92536190D02*
X209490952Y-92036190D01*
X209681428Y-92036190D01*
X209729047Y-92060000D01*
X209752857Y-92083809D01*
X209776666Y-92131428D01*
X209776666Y-92202857D01*
X209752857Y-92250476D01*
X209729047Y-92274285D01*
X209681428Y-92298095D01*
X209490952Y-92298095D01*
X210014761Y-92536190D02*
X210110000Y-92536190D01*
X210157619Y-92512380D01*
X210181428Y-92488571D01*
X210229047Y-92417142D01*
X210252857Y-92321904D01*
X210252857Y-92131428D01*
X210229047Y-92083809D01*
X210205238Y-92060000D01*
X210157619Y-92036190D01*
X210062380Y-92036190D01*
X210014761Y-92060000D01*
X209990952Y-92083809D01*
X209967142Y-92131428D01*
X209967142Y-92250476D01*
X209990952Y-92298095D01*
X210014761Y-92321904D01*
X210062380Y-92345714D01*
X210157619Y-92345714D01*
X210205238Y-92321904D01*
X210229047Y-92298095D01*
X210252857Y-92250476D01*
G04 #@! TO.C,R10*
X192476190Y-94001428D02*
X192238095Y-94168095D01*
X192476190Y-94287142D02*
X191976190Y-94287142D01*
X191976190Y-94096666D01*
X192000000Y-94049047D01*
X192023809Y-94025238D01*
X192071428Y-94001428D01*
X192142857Y-94001428D01*
X192190476Y-94025238D01*
X192214285Y-94049047D01*
X192238095Y-94096666D01*
X192238095Y-94287142D01*
X192476190Y-93525238D02*
X192476190Y-93810952D01*
X192476190Y-93668095D02*
X191976190Y-93668095D01*
X192047619Y-93715714D01*
X192095238Y-93763333D01*
X192119047Y-93810952D01*
X191976190Y-93215714D02*
X191976190Y-93168095D01*
X192000000Y-93120476D01*
X192023809Y-93096666D01*
X192071428Y-93072857D01*
X192166666Y-93049047D01*
X192285714Y-93049047D01*
X192380952Y-93072857D01*
X192428571Y-93096666D01*
X192452380Y-93120476D01*
X192476190Y-93168095D01*
X192476190Y-93215714D01*
X192452380Y-93263333D01*
X192428571Y-93287142D01*
X192380952Y-93310952D01*
X192285714Y-93334761D01*
X192166666Y-93334761D01*
X192071428Y-93310952D01*
X192023809Y-93287142D01*
X192000000Y-93263333D01*
X191976190Y-93215714D01*
G04 #@! TO.C,R11*
X219678571Y-92506190D02*
X219511904Y-92268095D01*
X219392857Y-92506190D02*
X219392857Y-92006190D01*
X219583333Y-92006190D01*
X219630952Y-92030000D01*
X219654761Y-92053809D01*
X219678571Y-92101428D01*
X219678571Y-92172857D01*
X219654761Y-92220476D01*
X219630952Y-92244285D01*
X219583333Y-92268095D01*
X219392857Y-92268095D01*
X220154761Y-92506190D02*
X219869047Y-92506190D01*
X220011904Y-92506190D02*
X220011904Y-92006190D01*
X219964285Y-92077619D01*
X219916666Y-92125238D01*
X219869047Y-92149047D01*
X220630952Y-92506190D02*
X220345238Y-92506190D01*
X220488095Y-92506190D02*
X220488095Y-92006190D01*
X220440476Y-92077619D01*
X220392857Y-92125238D01*
X220345238Y-92149047D01*
G04 #@! TO.C,R12*
X207848571Y-92546190D02*
X207681904Y-92308095D01*
X207562857Y-92546190D02*
X207562857Y-92046190D01*
X207753333Y-92046190D01*
X207800952Y-92070000D01*
X207824761Y-92093809D01*
X207848571Y-92141428D01*
X207848571Y-92212857D01*
X207824761Y-92260476D01*
X207800952Y-92284285D01*
X207753333Y-92308095D01*
X207562857Y-92308095D01*
X208324761Y-92546190D02*
X208039047Y-92546190D01*
X208181904Y-92546190D02*
X208181904Y-92046190D01*
X208134285Y-92117619D01*
X208086666Y-92165238D01*
X208039047Y-92189047D01*
X208515238Y-92093809D02*
X208539047Y-92070000D01*
X208586666Y-92046190D01*
X208705714Y-92046190D01*
X208753333Y-92070000D01*
X208777142Y-92093809D01*
X208800952Y-92141428D01*
X208800952Y-92189047D01*
X208777142Y-92260476D01*
X208491428Y-92546190D01*
X208800952Y-92546190D01*
G04 #@! TO.C,R13*
X197018571Y-102656190D02*
X196851904Y-102418095D01*
X196732857Y-102656190D02*
X196732857Y-102156190D01*
X196923333Y-102156190D01*
X196970952Y-102180000D01*
X196994761Y-102203809D01*
X197018571Y-102251428D01*
X197018571Y-102322857D01*
X196994761Y-102370476D01*
X196970952Y-102394285D01*
X196923333Y-102418095D01*
X196732857Y-102418095D01*
X197494761Y-102656190D02*
X197209047Y-102656190D01*
X197351904Y-102656190D02*
X197351904Y-102156190D01*
X197304285Y-102227619D01*
X197256666Y-102275238D01*
X197209047Y-102299047D01*
X197661428Y-102156190D02*
X197970952Y-102156190D01*
X197804285Y-102346666D01*
X197875714Y-102346666D01*
X197923333Y-102370476D01*
X197947142Y-102394285D01*
X197970952Y-102441904D01*
X197970952Y-102560952D01*
X197947142Y-102608571D01*
X197923333Y-102632380D01*
X197875714Y-102656190D01*
X197732857Y-102656190D01*
X197685238Y-102632380D01*
X197661428Y-102608571D01*
G04 #@! TO.C,R14*
X194006190Y-93961428D02*
X193768095Y-94128095D01*
X194006190Y-94247142D02*
X193506190Y-94247142D01*
X193506190Y-94056666D01*
X193530000Y-94009047D01*
X193553809Y-93985238D01*
X193601428Y-93961428D01*
X193672857Y-93961428D01*
X193720476Y-93985238D01*
X193744285Y-94009047D01*
X193768095Y-94056666D01*
X193768095Y-94247142D01*
X194006190Y-93485238D02*
X194006190Y-93770952D01*
X194006190Y-93628095D02*
X193506190Y-93628095D01*
X193577619Y-93675714D01*
X193625238Y-93723333D01*
X193649047Y-93770952D01*
X193672857Y-93056666D02*
X194006190Y-93056666D01*
X193482380Y-93175714D02*
X193839523Y-93294761D01*
X193839523Y-92985238D01*
G04 #@! TO.C,R15*
X192516190Y-115341428D02*
X192278095Y-115508095D01*
X192516190Y-115627142D02*
X192016190Y-115627142D01*
X192016190Y-115436666D01*
X192040000Y-115389047D01*
X192063809Y-115365238D01*
X192111428Y-115341428D01*
X192182857Y-115341428D01*
X192230476Y-115365238D01*
X192254285Y-115389047D01*
X192278095Y-115436666D01*
X192278095Y-115627142D01*
X192516190Y-114865238D02*
X192516190Y-115150952D01*
X192516190Y-115008095D02*
X192016190Y-115008095D01*
X192087619Y-115055714D01*
X192135238Y-115103333D01*
X192159047Y-115150952D01*
X192016190Y-114412857D02*
X192016190Y-114650952D01*
X192254285Y-114674761D01*
X192230476Y-114650952D01*
X192206666Y-114603333D01*
X192206666Y-114484285D01*
X192230476Y-114436666D01*
X192254285Y-114412857D01*
X192301904Y-114389047D01*
X192420952Y-114389047D01*
X192468571Y-114412857D01*
X192492380Y-114436666D01*
X192516190Y-114484285D01*
X192516190Y-114603333D01*
X192492380Y-114650952D01*
X192468571Y-114674761D01*
G04 #@! TO.C,R16*
X203416190Y-110601428D02*
X203178095Y-110768095D01*
X203416190Y-110887142D02*
X202916190Y-110887142D01*
X202916190Y-110696666D01*
X202940000Y-110649047D01*
X202963809Y-110625238D01*
X203011428Y-110601428D01*
X203082857Y-110601428D01*
X203130476Y-110625238D01*
X203154285Y-110649047D01*
X203178095Y-110696666D01*
X203178095Y-110887142D01*
X203416190Y-110125238D02*
X203416190Y-110410952D01*
X203416190Y-110268095D02*
X202916190Y-110268095D01*
X202987619Y-110315714D01*
X203035238Y-110363333D01*
X203059047Y-110410952D01*
X202916190Y-109696666D02*
X202916190Y-109791904D01*
X202940000Y-109839523D01*
X202963809Y-109863333D01*
X203035238Y-109910952D01*
X203130476Y-109934761D01*
X203320952Y-109934761D01*
X203368571Y-109910952D01*
X203392380Y-109887142D01*
X203416190Y-109839523D01*
X203416190Y-109744285D01*
X203392380Y-109696666D01*
X203368571Y-109672857D01*
X203320952Y-109649047D01*
X203201904Y-109649047D01*
X203154285Y-109672857D01*
X203130476Y-109696666D01*
X203106666Y-109744285D01*
X203106666Y-109839523D01*
X203130476Y-109887142D01*
X203154285Y-109910952D01*
X203201904Y-109934761D01*
G04 #@! TO.C,R17*
X204906190Y-110601428D02*
X204668095Y-110768095D01*
X204906190Y-110887142D02*
X204406190Y-110887142D01*
X204406190Y-110696666D01*
X204430000Y-110649047D01*
X204453809Y-110625238D01*
X204501428Y-110601428D01*
X204572857Y-110601428D01*
X204620476Y-110625238D01*
X204644285Y-110649047D01*
X204668095Y-110696666D01*
X204668095Y-110887142D01*
X204906190Y-110125238D02*
X204906190Y-110410952D01*
X204906190Y-110268095D02*
X204406190Y-110268095D01*
X204477619Y-110315714D01*
X204525238Y-110363333D01*
X204549047Y-110410952D01*
X204406190Y-109958571D02*
X204406190Y-109625238D01*
X204906190Y-109839523D01*
G04 #@! TO.C,R18*
X206436190Y-110631428D02*
X206198095Y-110798095D01*
X206436190Y-110917142D02*
X205936190Y-110917142D01*
X205936190Y-110726666D01*
X205960000Y-110679047D01*
X205983809Y-110655238D01*
X206031428Y-110631428D01*
X206102857Y-110631428D01*
X206150476Y-110655238D01*
X206174285Y-110679047D01*
X206198095Y-110726666D01*
X206198095Y-110917142D01*
X206436190Y-110155238D02*
X206436190Y-110440952D01*
X206436190Y-110298095D02*
X205936190Y-110298095D01*
X206007619Y-110345714D01*
X206055238Y-110393333D01*
X206079047Y-110440952D01*
X206150476Y-109869523D02*
X206126666Y-109917142D01*
X206102857Y-109940952D01*
X206055238Y-109964761D01*
X206031428Y-109964761D01*
X205983809Y-109940952D01*
X205960000Y-109917142D01*
X205936190Y-109869523D01*
X205936190Y-109774285D01*
X205960000Y-109726666D01*
X205983809Y-109702857D01*
X206031428Y-109679047D01*
X206055238Y-109679047D01*
X206102857Y-109702857D01*
X206126666Y-109726666D01*
X206150476Y-109774285D01*
X206150476Y-109869523D01*
X206174285Y-109917142D01*
X206198095Y-109940952D01*
X206245714Y-109964761D01*
X206340952Y-109964761D01*
X206388571Y-109940952D01*
X206412380Y-109917142D01*
X206436190Y-109869523D01*
X206436190Y-109774285D01*
X206412380Y-109726666D01*
X206388571Y-109702857D01*
X206340952Y-109679047D01*
X206245714Y-109679047D01*
X206198095Y-109702857D01*
X206174285Y-109726666D01*
X206150476Y-109774285D01*
G04 #@! TO.C,RN1*
X199224761Y-113636190D02*
X199058095Y-113398095D01*
X198939047Y-113636190D02*
X198939047Y-113136190D01*
X199129523Y-113136190D01*
X199177142Y-113160000D01*
X199200952Y-113183809D01*
X199224761Y-113231428D01*
X199224761Y-113302857D01*
X199200952Y-113350476D01*
X199177142Y-113374285D01*
X199129523Y-113398095D01*
X198939047Y-113398095D01*
X199439047Y-113636190D02*
X199439047Y-113136190D01*
X199724761Y-113636190D01*
X199724761Y-113136190D01*
X200224761Y-113636190D02*
X199939047Y-113636190D01*
X200081904Y-113636190D02*
X200081904Y-113136190D01*
X200034285Y-113207619D01*
X199986666Y-113255238D01*
X199939047Y-113279047D01*
G04 #@! TO.C,U1*
X198559047Y-89526190D02*
X198559047Y-89930952D01*
X198582857Y-89978571D01*
X198606666Y-90002380D01*
X198654285Y-90026190D01*
X198749523Y-90026190D01*
X198797142Y-90002380D01*
X198820952Y-89978571D01*
X198844761Y-89930952D01*
X198844761Y-89526190D01*
X199344761Y-90026190D02*
X199059047Y-90026190D01*
X199201904Y-90026190D02*
X199201904Y-89526190D01*
X199154285Y-89597619D01*
X199106666Y-89645238D01*
X199059047Y-89669047D01*
G04 #@! TO.C,U2*
X216939047Y-107526190D02*
X216939047Y-107930952D01*
X216962857Y-107978571D01*
X216986666Y-108002380D01*
X217034285Y-108026190D01*
X217129523Y-108026190D01*
X217177142Y-108002380D01*
X217200952Y-107978571D01*
X217224761Y-107930952D01*
X217224761Y-107526190D01*
X217439047Y-107573809D02*
X217462857Y-107550000D01*
X217510476Y-107526190D01*
X217629523Y-107526190D01*
X217677142Y-107550000D01*
X217700952Y-107573809D01*
X217724761Y-107621428D01*
X217724761Y-107669047D01*
X217700952Y-107740476D01*
X217415238Y-108026190D01*
X217724761Y-108026190D01*
G04 #@! TO.C,U3*
X221299047Y-96316190D02*
X221299047Y-96720952D01*
X221322857Y-96768571D01*
X221346666Y-96792380D01*
X221394285Y-96816190D01*
X221489523Y-96816190D01*
X221537142Y-96792380D01*
X221560952Y-96768571D01*
X221584761Y-96720952D01*
X221584761Y-96316190D01*
X221775238Y-96316190D02*
X222084761Y-96316190D01*
X221918095Y-96506666D01*
X221989523Y-96506666D01*
X222037142Y-96530476D01*
X222060952Y-96554285D01*
X222084761Y-96601904D01*
X222084761Y-96720952D01*
X222060952Y-96768571D01*
X222037142Y-96792380D01*
X221989523Y-96816190D01*
X221846666Y-96816190D01*
X221799047Y-96792380D01*
X221775238Y-96768571D01*
G04 #@! TO.C,U4*
X222989047Y-89716190D02*
X222989047Y-90120952D01*
X223012857Y-90168571D01*
X223036666Y-90192380D01*
X223084285Y-90216190D01*
X223179523Y-90216190D01*
X223227142Y-90192380D01*
X223250952Y-90168571D01*
X223274761Y-90120952D01*
X223274761Y-89716190D01*
X223727142Y-89882857D02*
X223727142Y-90216190D01*
X223608095Y-89692380D02*
X223489047Y-90049523D01*
X223798571Y-90049523D01*
G04 #@! TO.C,U5*
X210989047Y-89716190D02*
X210989047Y-90120952D01*
X211012857Y-90168571D01*
X211036666Y-90192380D01*
X211084285Y-90216190D01*
X211179523Y-90216190D01*
X211227142Y-90192380D01*
X211250952Y-90168571D01*
X211274761Y-90120952D01*
X211274761Y-89716190D01*
X211750952Y-89716190D02*
X211512857Y-89716190D01*
X211489047Y-89954285D01*
X211512857Y-89930476D01*
X211560476Y-89906666D01*
X211679523Y-89906666D01*
X211727142Y-89930476D01*
X211750952Y-89954285D01*
X211774761Y-90001904D01*
X211774761Y-90120952D01*
X211750952Y-90168571D01*
X211727142Y-90192380D01*
X211679523Y-90216190D01*
X211560476Y-90216190D01*
X211512857Y-90192380D01*
X211489047Y-90168571D01*
G04 #@! TO.C,U6*
X193299047Y-107666190D02*
X193299047Y-108070952D01*
X193322857Y-108118571D01*
X193346666Y-108142380D01*
X193394285Y-108166190D01*
X193489523Y-108166190D01*
X193537142Y-108142380D01*
X193560952Y-108118571D01*
X193584761Y-108070952D01*
X193584761Y-107666190D01*
X194037142Y-107666190D02*
X193941904Y-107666190D01*
X193894285Y-107690000D01*
X193870476Y-107713809D01*
X193822857Y-107785238D01*
X193799047Y-107880476D01*
X193799047Y-108070952D01*
X193822857Y-108118571D01*
X193846666Y-108142380D01*
X193894285Y-108166190D01*
X193989523Y-108166190D01*
X194037142Y-108142380D01*
X194060952Y-108118571D01*
X194084761Y-108070952D01*
X194084761Y-107951904D01*
X194060952Y-107904285D01*
X194037142Y-107880476D01*
X193989523Y-107856666D01*
X193894285Y-107856666D01*
X193846666Y-107880476D01*
X193822857Y-107904285D01*
X193799047Y-107951904D01*
G04 #@! TO.C,U7*
X201649047Y-103816190D02*
X201649047Y-104220952D01*
X201672857Y-104268571D01*
X201696666Y-104292380D01*
X201744285Y-104316190D01*
X201839523Y-104316190D01*
X201887142Y-104292380D01*
X201910952Y-104268571D01*
X201934761Y-104220952D01*
X201934761Y-103816190D01*
X202125238Y-103816190D02*
X202458571Y-103816190D01*
X202244285Y-104316190D01*
G04 #@! TO.C,C29*
X209688571Y-110468571D02*
X209664761Y-110492380D01*
X209593333Y-110516190D01*
X209545714Y-110516190D01*
X209474285Y-110492380D01*
X209426666Y-110444761D01*
X209402857Y-110397142D01*
X209379047Y-110301904D01*
X209379047Y-110230476D01*
X209402857Y-110135238D01*
X209426666Y-110087619D01*
X209474285Y-110040000D01*
X209545714Y-110016190D01*
X209593333Y-110016190D01*
X209664761Y-110040000D01*
X209688571Y-110063809D01*
X209879047Y-110063809D02*
X209902857Y-110040000D01*
X209950476Y-110016190D01*
X210069523Y-110016190D01*
X210117142Y-110040000D01*
X210140952Y-110063809D01*
X210164761Y-110111428D01*
X210164761Y-110159047D01*
X210140952Y-110230476D01*
X209855238Y-110516190D01*
X210164761Y-110516190D01*
X210402857Y-110516190D02*
X210498095Y-110516190D01*
X210545714Y-110492380D01*
X210569523Y-110468571D01*
X210617142Y-110397142D01*
X210640952Y-110301904D01*
X210640952Y-110111428D01*
X210617142Y-110063809D01*
X210593333Y-110040000D01*
X210545714Y-110016190D01*
X210450476Y-110016190D01*
X210402857Y-110040000D01*
X210379047Y-110063809D01*
X210355238Y-110111428D01*
X210355238Y-110230476D01*
X210379047Y-110278095D01*
X210402857Y-110301904D01*
X210450476Y-110325714D01*
X210545714Y-110325714D01*
X210593333Y-110301904D01*
X210617142Y-110278095D01*
X210640952Y-110230476D01*
G04 #@! TO.C,R19*
X196358571Y-114396190D02*
X196191904Y-114158095D01*
X196072857Y-114396190D02*
X196072857Y-113896190D01*
X196263333Y-113896190D01*
X196310952Y-113920000D01*
X196334761Y-113943809D01*
X196358571Y-113991428D01*
X196358571Y-114062857D01*
X196334761Y-114110476D01*
X196310952Y-114134285D01*
X196263333Y-114158095D01*
X196072857Y-114158095D01*
X196834761Y-114396190D02*
X196549047Y-114396190D01*
X196691904Y-114396190D02*
X196691904Y-113896190D01*
X196644285Y-113967619D01*
X196596666Y-114015238D01*
X196549047Y-114039047D01*
X197072857Y-114396190D02*
X197168095Y-114396190D01*
X197215714Y-114372380D01*
X197239523Y-114348571D01*
X197287142Y-114277142D01*
X197310952Y-114181904D01*
X197310952Y-113991428D01*
X197287142Y-113943809D01*
X197263333Y-113920000D01*
X197215714Y-113896190D01*
X197120476Y-113896190D01*
X197072857Y-113920000D01*
X197049047Y-113943809D01*
X197025238Y-113991428D01*
X197025238Y-114110476D01*
X197049047Y-114158095D01*
X197072857Y-114181904D01*
X197120476Y-114205714D01*
X197215714Y-114205714D01*
X197263333Y-114181904D01*
X197287142Y-114158095D01*
X197310952Y-114110476D01*
G04 #@! TO.C,C26*
X213828571Y-106008571D02*
X213804761Y-106032380D01*
X213733333Y-106056190D01*
X213685714Y-106056190D01*
X213614285Y-106032380D01*
X213566666Y-105984761D01*
X213542857Y-105937142D01*
X213519047Y-105841904D01*
X213519047Y-105770476D01*
X213542857Y-105675238D01*
X213566666Y-105627619D01*
X213614285Y-105580000D01*
X213685714Y-105556190D01*
X213733333Y-105556190D01*
X213804761Y-105580000D01*
X213828571Y-105603809D01*
X214019047Y-105603809D02*
X214042857Y-105580000D01*
X214090476Y-105556190D01*
X214209523Y-105556190D01*
X214257142Y-105580000D01*
X214280952Y-105603809D01*
X214304761Y-105651428D01*
X214304761Y-105699047D01*
X214280952Y-105770476D01*
X213995238Y-106056190D01*
X214304761Y-106056190D01*
X214733333Y-105556190D02*
X214638095Y-105556190D01*
X214590476Y-105580000D01*
X214566666Y-105603809D01*
X214519047Y-105675238D01*
X214495238Y-105770476D01*
X214495238Y-105960952D01*
X214519047Y-106008571D01*
X214542857Y-106032380D01*
X214590476Y-106056190D01*
X214685714Y-106056190D01*
X214733333Y-106032380D01*
X214757142Y-106008571D01*
X214780952Y-105960952D01*
X214780952Y-105841904D01*
X214757142Y-105794285D01*
X214733333Y-105770476D01*
X214685714Y-105746666D01*
X214590476Y-105746666D01*
X214542857Y-105770476D01*
X214519047Y-105794285D01*
X214495238Y-105841904D01*
G04 #@! TO.C,C22*
X191938571Y-113711428D02*
X191962380Y-113735238D01*
X191986190Y-113806666D01*
X191986190Y-113854285D01*
X191962380Y-113925714D01*
X191914761Y-113973333D01*
X191867142Y-113997142D01*
X191771904Y-114020952D01*
X191700476Y-114020952D01*
X191605238Y-113997142D01*
X191557619Y-113973333D01*
X191510000Y-113925714D01*
X191486190Y-113854285D01*
X191486190Y-113806666D01*
X191510000Y-113735238D01*
X191533809Y-113711428D01*
X191533809Y-113520952D02*
X191510000Y-113497142D01*
X191486190Y-113449523D01*
X191486190Y-113330476D01*
X191510000Y-113282857D01*
X191533809Y-113259047D01*
X191581428Y-113235238D01*
X191629047Y-113235238D01*
X191700476Y-113259047D01*
X191986190Y-113544761D01*
X191986190Y-113235238D01*
X191533809Y-113044761D02*
X191510000Y-113020952D01*
X191486190Y-112973333D01*
X191486190Y-112854285D01*
X191510000Y-112806666D01*
X191533809Y-112782857D01*
X191581428Y-112759047D01*
X191629047Y-112759047D01*
X191700476Y-112782857D01*
X191986190Y-113068571D01*
X191986190Y-112759047D01*
G04 #@! TD*
M02*
