M48
;DRILL file {KiCad (5.0.1)-4} date 3/16/2019 12:44:09 PM
;FORMAT={-:-/ absolute / inch / decimal}
FMAT,2
INCH,TZ
T1C0.0118
T2C0.0157
T3C0.0256
T4C0.0866
%
G90
G05
M72
T1
X8.7854Y-3.8598
X8.7854Y-3.8992
X8.815Y-3.8795
X8.8445Y-3.8598
X8.8445Y-3.8992
X8.6248Y-4.3028
X8.6248Y-4.3421
X8.6445Y-4.3224
X8.6642Y-4.3028
X8.6642Y-4.3421
X7.8949Y-3.6087
X7.8949Y-3.648
X7.9146Y-3.6283
X7.9343Y-3.6087
X7.9343Y-3.648
X8.85Y-3.6083
X8.85Y-3.6476
X8.8697Y-3.628
X8.8894Y-3.6083
X8.8894Y-3.6476
X8.3811Y-3.6087
X8.3811Y-3.648
X8.4008Y-3.6283
X8.4205Y-3.6087
X8.4205Y-3.648
T2
X7.4465Y-3.7075
X7.4626Y-4.3197
X7.5449Y-3.9878
X7.5449Y-4.0189
X7.5945Y-4.3281
X7.5994Y-4.4049
X7.6154Y-4.4713
X7.6406Y-4.2732
X7.6803Y-3.989
X7.6872Y-4.34
X7.6872Y-4.3931
X7.6909Y-3.4169
X7.6909Y-4.2453
X7.7098Y-4.5571
X7.7138Y-3.752
X7.7358Y-4.2417
X7.7404Y-4.34
X7.7404Y-4.3931
X7.787Y-4.4484
X7.8008Y-4.5894
X7.8154Y-3.6382
X7.8248Y-3.9898
X7.8335Y-4.2862
X7.8398Y-4.3618
X7.8406Y-4.4366
X7.8409Y-4.3988
X7.8579Y-4.0252
X7.8752Y-4.3587
X7.8961Y-4.4531
X7.937Y-4.4543
X7.9689Y-3.5496
X8.0039Y-3.4555
X8.0039Y-3.4866
X8.0075Y-4.1886
X8.0075Y-4.2398
X8.015Y-4.0693
X8.0248Y-3.6516
X8.0248Y-3.6831
X8.0354Y-3.4551
X8.0354Y-3.4866
X8.0559Y-3.652
X8.0559Y-3.6831
X8.0587Y-4.1886
X8.0587Y-4.2398
X8.1177Y-4.476
X8.1504Y-4.1232
X8.1504Y-4.1547
X8.1882Y-3.4232
X8.1957Y-3.7528
X8.1972Y-4.0913
X8.2756Y-4.0913
X8.3004Y-3.6382
X8.337Y-4.4441
X8.337Y-4.4756
X8.3535Y-4.0913
X8.3685Y-4.4445
X8.3685Y-4.4756
X8.4Y-4.4445
X8.4Y-4.4756
X8.4543Y-3.5476
X8.4626Y-3.889
X8.4626Y-3.9205
X8.4626Y-3.952
X8.4862Y-3.4874
X8.4866Y-3.4559
X8.4941Y-3.889
X8.4941Y-3.9205
X8.4941Y-3.9516
X8.5051Y-3.6516
X8.5051Y-3.6831
X8.5181Y-3.4559
X8.5181Y-3.4874
X8.5256Y-3.889
X8.5256Y-3.9205
X8.5256Y-3.952
X8.5366Y-3.652
X8.5366Y-3.6831
X8.5602Y-3.737
X8.5602Y-3.7685
X8.5811Y-4.3929
X8.5917Y-3.737
X8.5917Y-3.7685
X8.6583Y-3.422
X8.6591Y-3.7512
X8.7398Y-4.3126
X8.7748Y-3.6378
X8.7795Y-3.7752
X8.8146Y-3.7748
X8.848Y-4.2008
X8.8697Y-4.5283
X8.922Y-3.5453
X8.9295Y-3.9579
X8.9425Y-3.8669
X8.9429Y-3.8354
X8.9469Y-4.1843
X8.9469Y-4.2157
X8.9469Y-4.2476
X8.9646Y-3.4484
X8.9646Y-3.4799
X8.9724Y-3.6512
X8.9724Y-3.6827
X8.974Y-3.8354
X8.974Y-3.8669
X8.978Y-4.1854
X8.978Y-4.2165
X8.978Y-4.2476
X9.0039Y-3.6516
X9.0039Y-3.6827
T3
X7.8839Y-4.5535
X7.9339Y-4.5535
X7.9839Y-4.5535
X8.0339Y-4.5535
X8.0839Y-4.5535
T4
X9.0315Y-3.4114
X9.0319Y-4.5362
X7.4862Y-4.537
X7.4866Y-3.4122
T0
M30
