G04 #@! TF.GenerationSoftware,KiCad,Pcbnew,(5.0.1)-4*
G04 #@! TF.CreationDate,2019-03-16T12:44:05-04:00*
G04 #@! TF.ProjectId,Wii reg,576969207265672E6B696361645F7063,rev?*
G04 #@! TF.SameCoordinates,Original*
G04 #@! TF.FileFunction,Copper,L1,Top,Signal*
G04 #@! TF.FilePolarity,Positive*
%FSLAX46Y46*%
G04 Gerber Fmt 4.6, Leading zero omitted, Abs format (unit mm)*
G04 Created by KiCad (PCBNEW (5.0.1)-4) date 3/16/2019 12:44:05 PM*
%MOMM*%
%LPD*%
G01*
G04 APERTURE LIST*
G04 #@! TA.AperFunction,SMDPad,CuDef*
%ADD10R,1.250000X1.000000*%
G04 #@! TD*
G04 #@! TA.AperFunction,SMDPad,CuDef*
%ADD11R,1.000000X1.250000*%
G04 #@! TD*
G04 #@! TA.AperFunction,SMDPad,CuDef*
%ADD12R,0.800000X0.750000*%
G04 #@! TD*
G04 #@! TA.AperFunction,SMDPad,CuDef*
%ADD13R,0.750000X0.800000*%
G04 #@! TD*
G04 #@! TA.AperFunction,SMDPad,CuDef*
%ADD14R,1.500000X2.500000*%
G04 #@! TD*
G04 #@! TA.AperFunction,SMDPad,CuDef*
%ADD15R,2.500000X1.500000*%
G04 #@! TD*
G04 #@! TA.AperFunction,BGAPad,CuDef*
%ADD16C,1.000000*%
G04 #@! TD*
G04 #@! TA.AperFunction,ComponentPad*
%ADD17R,1.000000X1.000000*%
G04 #@! TD*
G04 #@! TA.AperFunction,ComponentPad*
%ADD18O,1.000000X1.000000*%
G04 #@! TD*
G04 #@! TA.AperFunction,SMDPad,CuDef*
%ADD19R,1.200000X3.700000*%
G04 #@! TD*
G04 #@! TA.AperFunction,SMDPad,CuDef*
%ADD20R,3.700000X1.200000*%
G04 #@! TD*
G04 #@! TA.AperFunction,SMDPad,CuDef*
%ADD21R,2.350000X3.400000*%
G04 #@! TD*
G04 #@! TA.AperFunction,SMDPad,CuDef*
%ADD22R,0.800000X0.900000*%
G04 #@! TD*
G04 #@! TA.AperFunction,SMDPad,CuDef*
%ADD23R,0.900000X0.500000*%
G04 #@! TD*
G04 #@! TA.AperFunction,SMDPad,CuDef*
%ADD24R,0.500000X0.900000*%
G04 #@! TD*
G04 #@! TA.AperFunction,SMDPad,CuDef*
%ADD25R,0.300000X0.500000*%
G04 #@! TD*
G04 #@! TA.AperFunction,SMDPad,CuDef*
%ADD26O,0.750000X0.300000*%
G04 #@! TD*
G04 #@! TA.AperFunction,SMDPad,CuDef*
%ADD27O,0.300000X0.750000*%
G04 #@! TD*
G04 #@! TA.AperFunction,SMDPad,CuDef*
%ADD28R,0.900000X0.900000*%
G04 #@! TD*
G04 #@! TA.AperFunction,ViaPad*
%ADD29C,0.600000*%
G04 #@! TD*
G04 #@! TA.AperFunction,SMDPad,CuDef*
%ADD30R,0.280000X0.850000*%
G04 #@! TD*
G04 #@! TA.AperFunction,SMDPad,CuDef*
%ADD31R,1.200000X0.825000*%
G04 #@! TD*
G04 #@! TA.AperFunction,SMDPad,CuDef*
%ADD32R,0.700000X0.280000*%
G04 #@! TD*
G04 #@! TA.AperFunction,ComponentPad*
%ADD33C,0.600000*%
G04 #@! TD*
G04 #@! TA.AperFunction,SMDPad,CuDef*
%ADD34O,0.350000X0.800000*%
G04 #@! TD*
G04 #@! TA.AperFunction,SMDPad,CuDef*
%ADD35O,0.800000X0.350000*%
G04 #@! TD*
G04 #@! TA.AperFunction,SMDPad,CuDef*
%ADD36R,1.350000X1.350000*%
G04 #@! TD*
G04 #@! TA.AperFunction,SMDPad,CuDef*
%ADD37R,0.850000X0.300000*%
G04 #@! TD*
G04 #@! TA.AperFunction,SMDPad,CuDef*
%ADD38R,0.300000X0.850000*%
G04 #@! TD*
G04 #@! TA.AperFunction,SMDPad,CuDef*
%ADD39R,1.300000X1.300000*%
G04 #@! TD*
G04 #@! TA.AperFunction,Conductor*
%ADD40C,0.100000*%
G04 #@! TD*
G04 #@! TA.AperFunction,SMDPad,CuDef*
%ADD41C,0.975000*%
G04 #@! TD*
G04 #@! TA.AperFunction,Conductor*
%ADD42C,0.250000*%
G04 #@! TD*
G04 #@! TA.AperFunction,Conductor*
%ADD43C,0.230000*%
G04 #@! TD*
G04 APERTURE END LIST*
D10*
G04 #@! TO.P,C1,1*
G04 #@! TO.N,5v*
X224820000Y-101830000D03*
G04 #@! TO.P,C1,2*
G04 #@! TO.N,GND*
X224820000Y-103830000D03*
G04 #@! TD*
G04 #@! TO.P,C2,1*
G04 #@! TO.N,5v*
X226520000Y-101840000D03*
G04 #@! TO.P,C2,2*
G04 #@! TO.N,GND*
X226520000Y-103840000D03*
G04 #@! TD*
G04 #@! TO.P,C3,1*
G04 #@! TO.N,5v*
X228220000Y-101840000D03*
G04 #@! TO.P,C3,2*
G04 #@! TO.N,GND*
X228220000Y-103840000D03*
G04 #@! TD*
D11*
G04 #@! TO.P,C4,1*
G04 #@! TO.N,1v*
X199930000Y-88650000D03*
G04 #@! TO.P,C4,2*
G04 #@! TO.N,GND*
X201930000Y-88650000D03*
G04 #@! TD*
G04 #@! TO.P,C5,1*
G04 #@! TO.N,1v*
X199930000Y-86940000D03*
G04 #@! TO.P,C5,2*
G04 #@! TO.N,GND*
X201930000Y-86940000D03*
G04 #@! TD*
G04 #@! TO.P,C6,1*
G04 #@! TO.N,3v3*
X220670000Y-113210000D03*
G04 #@! TO.P,C6,2*
G04 #@! TO.N,GND*
X218670000Y-113210000D03*
G04 #@! TD*
G04 #@! TO.P,C7,1*
G04 #@! TO.N,3v3*
X220670000Y-114910000D03*
G04 #@! TO.P,C7,2*
G04 #@! TO.N,GND*
X218670000Y-114910000D03*
G04 #@! TD*
D12*
G04 #@! TO.P,C8,2*
G04 #@! TO.N,Net-(C8-Pad2)*
X200790000Y-95260000D03*
G04 #@! TO.P,C8,1*
G04 #@! TO.N,Net-(C8-Pad1)*
X202290000Y-95260000D03*
G04 #@! TD*
G04 #@! TO.P,C9,2*
G04 #@! TO.N,Net-(C9-Pad2)*
X219820000Y-106590000D03*
G04 #@! TO.P,C9,1*
G04 #@! TO.N,Net-(C9-Pad1)*
X218320000Y-106590000D03*
G04 #@! TD*
D10*
G04 #@! TO.P,C10,1*
G04 #@! TO.N,GND*
X204460000Y-89760000D03*
G04 #@! TO.P,C10,2*
G04 #@! TO.N,VSYS*
X204460000Y-91760000D03*
G04 #@! TD*
G04 #@! TO.P,C11,1*
G04 #@! TO.N,GND*
X216240000Y-112210000D03*
G04 #@! TO.P,C11,2*
G04 #@! TO.N,VSYS*
X216240000Y-110210000D03*
G04 #@! TD*
G04 #@! TO.P,C12,1*
G04 #@! TO.N,GND*
X220500000Y-100020000D03*
G04 #@! TO.P,C12,2*
G04 #@! TO.N,VSYS*
X220500000Y-98020000D03*
G04 #@! TD*
D11*
G04 #@! TO.P,C13,1*
G04 #@! TO.N,1v8*
X224190000Y-88640000D03*
G04 #@! TO.P,C13,2*
G04 #@! TO.N,GND*
X226190000Y-88640000D03*
G04 #@! TD*
G04 #@! TO.P,C14,1*
G04 #@! TO.N,1v8*
X224190000Y-86940000D03*
G04 #@! TO.P,C14,2*
G04 #@! TO.N,GND*
X226190000Y-86940000D03*
G04 #@! TD*
G04 #@! TO.P,C15,1*
G04 #@! TO.N,1v15*
X212280000Y-88650000D03*
G04 #@! TO.P,C15,2*
G04 #@! TO.N,GND*
X214280000Y-88650000D03*
G04 #@! TD*
G04 #@! TO.P,C16,1*
G04 #@! TO.N,1v15*
X212270000Y-86950000D03*
G04 #@! TO.P,C16,2*
G04 #@! TO.N,GND*
X214270000Y-86950000D03*
G04 #@! TD*
D12*
G04 #@! TO.P,C17,2*
G04 #@! TO.N,Net-(C17-Pad2)*
X225020000Y-95250000D03*
G04 #@! TO.P,C17,1*
G04 #@! TO.N,Net-(C17-Pad1)*
X226520000Y-95250000D03*
G04 #@! TD*
G04 #@! TO.P,C18,2*
G04 #@! TO.N,Net-(C18-Pad2)*
X213030000Y-95260000D03*
G04 #@! TO.P,C18,1*
G04 #@! TO.N,Net-(C18-Pad1)*
X214530000Y-95260000D03*
G04 #@! TD*
D10*
G04 #@! TO.P,C19,1*
G04 #@! TO.N,GND*
X228550000Y-89750000D03*
G04 #@! TO.P,C19,2*
G04 #@! TO.N,VSYS*
X228550000Y-91750000D03*
G04 #@! TD*
G04 #@! TO.P,C20,1*
G04 #@! TO.N,GND*
X216660000Y-89760000D03*
G04 #@! TO.P,C20,2*
G04 #@! TO.N,VSYS*
X216660000Y-91760000D03*
G04 #@! TD*
G04 #@! TO.P,C21,1*
G04 #@! TO.N,GND*
X199100000Y-103370000D03*
G04 #@! TO.P,C21,2*
G04 #@! TO.N,Net-(C21-Pad2)*
X199100000Y-105370000D03*
G04 #@! TD*
D13*
G04 #@! TO.P,C23,2*
G04 #@! TO.N,REGN*
X202200000Y-102220000D03*
G04 #@! TO.P,C23,1*
G04 #@! TO.N,GND*
X202200000Y-100720000D03*
G04 #@! TD*
G04 #@! TO.P,C24,2*
G04 #@! TO.N,Net-(C24-Pad2)*
X203900000Y-102210000D03*
G04 #@! TO.P,C24,1*
G04 #@! TO.N,Net-(C24-Pad1)*
X203900000Y-100710000D03*
G04 #@! TD*
D10*
G04 #@! TO.P,C25,1*
G04 #@! TO.N,VSYS*
X208210000Y-106930000D03*
G04 #@! TO.P,C25,2*
G04 #@! TO.N,GND*
X208210000Y-104930000D03*
G04 #@! TD*
G04 #@! TO.P,C27,1*
G04 #@! TO.N,VSYS*
X210200000Y-106930000D03*
G04 #@! TO.P,C27,2*
G04 #@! TO.N,GND*
X210200000Y-104930000D03*
G04 #@! TD*
G04 #@! TO.P,C28,1*
G04 #@! TO.N,VSYS*
X212180000Y-106930000D03*
G04 #@! TO.P,C28,2*
G04 #@! TO.N,GND*
X212180000Y-104930000D03*
G04 #@! TD*
D14*
G04 #@! TO.P,5v,1*
G04 #@! TO.N,5v*
X230510000Y-101100000D03*
G04 #@! TD*
D15*
G04 #@! TO.P,1v,1*
G04 #@! TO.N,1v*
X196240000Y-85510000D03*
G04 #@! TD*
G04 #@! TO.P,3v3,1*
G04 #@! TO.N,3v3*
X224230000Y-116320000D03*
G04 #@! TD*
D16*
G04 #@! TO.P,J4,1*
G04 #@! TO.N,Net-(J4-Pad1)*
X188920000Y-92680000D03*
G04 #@! TD*
G04 #@! TO.P,J5,1*
G04 #@! TO.N,Net-(J5-Pad1)*
X188910000Y-91080000D03*
G04 #@! TD*
D15*
G04 #@! TO.P,1v8,1*
G04 #@! TO.N,1v8*
X220550000Y-85500000D03*
G04 #@! TD*
G04 #@! TO.P,1v15,1*
G04 #@! TO.N,1v15*
X208660000Y-85500000D03*
G04 #@! TD*
D16*
G04 #@! TO.P,J8,1*
G04 #@! TO.N,Net-(J8-Pad1)*
X188920000Y-89490000D03*
G04 #@! TD*
D15*
G04 #@! TO.P,GND,1*
G04 #@! TO.N,GND*
X214130000Y-116350000D03*
G04 #@! TD*
G04 #@! TO.P,GND,1*
G04 #@! TO.N,GND*
X204300000Y-85520000D03*
G04 #@! TD*
D16*
G04 #@! TO.P,J11,1*
G04 #@! TO.N,Vtemp*
X194930000Y-116550000D03*
G04 #@! TD*
G04 #@! TO.P,J12,1*
G04 #@! TO.N,VSYS*
X196500000Y-116560000D03*
G04 #@! TD*
D15*
G04 #@! TO.P,GND,1*
G04 #@! TO.N,GND*
X216610000Y-85510000D03*
G04 #@! TD*
D16*
G04 #@! TO.P,J14,1*
G04 #@! TO.N,SCL*
X199950000Y-108120000D03*
G04 #@! TD*
D14*
G04 #@! TO.P,GND,1*
G04 #@! TO.N,GND*
X230520000Y-107120000D03*
G04 #@! TD*
D16*
G04 #@! TO.P,J16,1*
G04 #@! TO.N,SDA*
X199980000Y-109510000D03*
G04 #@! TD*
G04 #@! TO.P,J17,1*
G04 #@! TO.N,Net-(J17-Pad1)*
X188880000Y-107210000D03*
G04 #@! TD*
G04 #@! TO.P,J18,1*
G04 #@! TO.N,Net-(J18-Pad1)*
X188910000Y-108610000D03*
G04 #@! TD*
D15*
G04 #@! TO.P,GND,1*
G04 #@! TO.N,GND*
X189540000Y-102240000D03*
G04 #@! TD*
G04 #@! TO.P,CHRG,1*
G04 #@! TO.N,Net-(C21-Pad2)*
X189520000Y-105190000D03*
G04 #@! TD*
D14*
G04 #@! TO.P,GND,1*
G04 #@! TO.N,GND*
X230520000Y-97320000D03*
G04 #@! TD*
D15*
G04 #@! TO.P,B+,1*
G04 #@! TO.N,Net-(C29-Pad1)*
X208660000Y-116350000D03*
G04 #@! TD*
D16*
G04 #@! TO.P,J24,1*
G04 #@! TO.N,Net-(J24-Pad1)*
X188890000Y-110710000D03*
G04 #@! TD*
D17*
G04 #@! TO.P,J25,1*
G04 #@! TO.N,MCLR*
X200250000Y-115660000D03*
D18*
G04 #@! TO.P,J25,2*
G04 #@! TO.N,VSYS*
X201520000Y-115660000D03*
G04 #@! TO.P,J25,3*
G04 #@! TO.N,GND*
X202790000Y-115660000D03*
G04 #@! TO.P,J25,4*
G04 #@! TO.N,Net-(J25-Pad4)*
X204060000Y-115660000D03*
G04 #@! TO.P,J25,5*
G04 #@! TO.N,Net-(J25-Pad5)*
X205330000Y-115660000D03*
G04 #@! TD*
D19*
G04 #@! TO.P,L1,1*
G04 #@! TO.N,VSYS*
X220090000Y-103270000D03*
G04 #@! TO.P,L1,2*
G04 #@! TO.N,Net-(L1-Pad2)*
X222890000Y-103270000D03*
G04 #@! TD*
D20*
G04 #@! TO.P,L2,1*
G04 #@! TO.N,1v*
X196240000Y-88140000D03*
G04 #@! TO.P,L2,2*
G04 #@! TO.N,Net-(L2-Pad2)*
X196240000Y-90940000D03*
G04 #@! TD*
G04 #@! TO.P,L3,1*
G04 #@! TO.N,3v3*
X224510000Y-113890000D03*
G04 #@! TO.P,L3,2*
G04 #@! TO.N,Net-(L3-Pad2)*
X224510000Y-111090000D03*
G04 #@! TD*
G04 #@! TO.P,L4,1*
G04 #@! TO.N,1v8*
X220550000Y-88140000D03*
G04 #@! TO.P,L4,2*
G04 #@! TO.N,Net-(L4-Pad2)*
X220550000Y-90940000D03*
G04 #@! TD*
G04 #@! TO.P,L5,1*
G04 #@! TO.N,1v15*
X208660000Y-88160000D03*
G04 #@! TO.P,L5,2*
G04 #@! TO.N,Net-(L5-Pad2)*
X208660000Y-90960000D03*
G04 #@! TD*
D21*
G04 #@! TO.P,L6,1*
G04 #@! TO.N,VSYS*
X213270000Y-99970000D03*
G04 #@! TO.P,L6,2*
G04 #@! TO.N,Net-(C24-Pad1)*
X207170000Y-99970000D03*
G04 #@! TD*
D22*
G04 #@! TO.P,Q1,2*
G04 #@! TO.N,Net-(Q1-Pad2)*
X189210000Y-99750000D03*
G04 #@! TO.P,Q1,1*
G04 #@! TO.N,GND*
X191110000Y-99750000D03*
G04 #@! TO.P,Q1,3*
G04 #@! TO.N,Net-(Q1-Pad3)*
X190160000Y-97750000D03*
G04 #@! TD*
G04 #@! TO.P,Q2,2*
G04 #@! TO.N,Net-(Q2-Pad2)*
X192920000Y-99760000D03*
G04 #@! TO.P,Q2,1*
G04 #@! TO.N,GND*
X194820000Y-99760000D03*
G04 #@! TO.P,Q2,3*
G04 #@! TO.N,Net-(Q2-Pad3)*
X193870000Y-97760000D03*
G04 #@! TD*
G04 #@! TO.P,Q3,2*
G04 #@! TO.N,Net-(Q3-Pad2)*
X196610000Y-99770000D03*
G04 #@! TO.P,Q3,1*
G04 #@! TO.N,GND*
X198510000Y-99770000D03*
G04 #@! TO.P,Q3,3*
G04 #@! TO.N,Net-(Q3-Pad3)*
X197560000Y-97770000D03*
G04 #@! TD*
D23*
G04 #@! TO.P,R1,1*
G04 #@! TO.N,Net-(R1-Pad1)*
X197590000Y-93110000D03*
G04 #@! TO.P,R1,2*
G04 #@! TO.N,GND*
X197590000Y-94610000D03*
G04 #@! TD*
G04 #@! TO.P,R2,1*
G04 #@! TO.N,Net-(R2-Pad1)*
X223140000Y-108940000D03*
G04 #@! TO.P,R2,2*
G04 #@! TO.N,GND*
X223140000Y-107440000D03*
G04 #@! TD*
G04 #@! TO.P,R3,1*
G04 #@! TO.N,Net-(R1-Pad1)*
X195930000Y-93110000D03*
G04 #@! TO.P,R3,2*
G04 #@! TO.N,1v*
X195930000Y-94610000D03*
G04 #@! TD*
G04 #@! TO.P,R4,1*
G04 #@! TO.N,Net-(R2-Pad1)*
X224740000Y-108940000D03*
G04 #@! TO.P,R4,2*
G04 #@! TO.N,3v3*
X224740000Y-107440000D03*
G04 #@! TD*
G04 #@! TO.P,R5,1*
G04 #@! TO.N,RED*
X189140000Y-94870000D03*
G04 #@! TO.P,R5,2*
G04 #@! TO.N,Net-(Q1-Pad2)*
X189140000Y-96370000D03*
G04 #@! TD*
G04 #@! TO.P,R6,1*
G04 #@! TO.N,Net-(J4-Pad1)*
X190680000Y-94870000D03*
G04 #@! TO.P,R6,2*
G04 #@! TO.N,Net-(Q1-Pad3)*
X190680000Y-96370000D03*
G04 #@! TD*
D24*
G04 #@! TO.P,R7,1*
G04 #@! TO.N,GREEN*
X194420000Y-101270000D03*
G04 #@! TO.P,R7,2*
G04 #@! TO.N,Net-(Q2-Pad2)*
X192920000Y-101270000D03*
G04 #@! TD*
D23*
G04 #@! TO.P,R8,1*
G04 #@! TO.N,Net-(R11-Pad1)*
X221565000Y-93055000D03*
G04 #@! TO.P,R8,2*
G04 #@! TO.N,GND*
X221565000Y-94555000D03*
G04 #@! TD*
G04 #@! TO.P,R9,1*
G04 #@! TO.N,Net-(R12-Pad1)*
X209850000Y-93120000D03*
G04 #@! TO.P,R9,2*
G04 #@! TO.N,GND*
X209850000Y-94620000D03*
G04 #@! TD*
G04 #@! TO.P,R10,1*
G04 #@! TO.N,Net-(J5-Pad1)*
X192240000Y-94890000D03*
G04 #@! TO.P,R10,2*
G04 #@! TO.N,Net-(Q2-Pad3)*
X192240000Y-96390000D03*
G04 #@! TD*
G04 #@! TO.P,R11,1*
G04 #@! TO.N,Net-(R11-Pad1)*
X219945000Y-93055000D03*
G04 #@! TO.P,R11,2*
G04 #@! TO.N,1v8*
X219945000Y-94555000D03*
G04 #@! TD*
G04 #@! TO.P,R12,1*
G04 #@! TO.N,Net-(R12-Pad1)*
X208170000Y-93120000D03*
G04 #@! TO.P,R12,2*
G04 #@! TO.N,1v15*
X208170000Y-94620000D03*
G04 #@! TD*
D24*
G04 #@! TO.P,R13,1*
G04 #@! TO.N,Net-(Q3-Pad2)*
X196590000Y-101290000D03*
G04 #@! TO.P,R13,2*
G04 #@! TO.N,BLUE*
X198090000Y-101290000D03*
G04 #@! TD*
D23*
G04 #@! TO.P,R14,1*
G04 #@! TO.N,Net-(J8-Pad1)*
X193780000Y-94890000D03*
G04 #@! TO.P,R14,2*
G04 #@! TO.N,Net-(Q3-Pad3)*
X193780000Y-96390000D03*
G04 #@! TD*
G04 #@! TO.P,R15,1*
G04 #@! TO.N,Vtemp*
X193430000Y-115800000D03*
G04 #@! TO.P,R15,2*
G04 #@! TO.N,GND*
X193430000Y-114300000D03*
G04 #@! TD*
G04 #@! TO.P,R16,1*
G04 #@! TO.N,Net-(R16-Pad1)*
X203180000Y-111440000D03*
G04 #@! TO.P,R16,2*
G04 #@! TO.N,GND*
X203180000Y-112940000D03*
G04 #@! TD*
G04 #@! TO.P,R17,1*
G04 #@! TO.N,GND*
X204680000Y-112940000D03*
G04 #@! TO.P,R17,2*
G04 #@! TO.N,Net-(R17-Pad2)*
X204680000Y-111440000D03*
G04 #@! TD*
G04 #@! TO.P,R18,1*
G04 #@! TO.N,REGN*
X206180000Y-112940000D03*
G04 #@! TO.P,R18,2*
G04 #@! TO.N,Net-(R17-Pad2)*
X206180000Y-111440000D03*
G04 #@! TD*
D25*
G04 #@! TO.P,RN1,1*
G04 #@! TO.N,GND*
X201810000Y-112380000D03*
G04 #@! TO.P,RN1,2*
X201310000Y-112380000D03*
G04 #@! TO.P,RN1,3*
G04 #@! TO.N,VSYS*
X200810000Y-112380000D03*
G04 #@! TO.P,RN1,4*
X200310000Y-112380000D03*
G04 #@! TO.P,RN1,5*
G04 #@! TO.N,SCL*
X200310000Y-111380000D03*
G04 #@! TO.P,RN1,6*
G04 #@! TO.N,SDA*
X200810000Y-111380000D03*
G04 #@! TO.P,RN1,7*
G04 #@! TO.N,OTG*
X201310000Y-111380000D03*
G04 #@! TO.P,RN1,8*
G04 #@! TO.N,CE*
X201810000Y-111380000D03*
G04 #@! TD*
D26*
G04 #@! TO.P,U1,1*
G04 #@! TO.N,Net-(L2-Pad2)*
X199555000Y-91410000D03*
G04 #@! TO.P,U1,2*
X199555000Y-91910000D03*
G04 #@! TO.P,U1,3*
G04 #@! TO.N,VSYS*
X199555000Y-92410000D03*
G04 #@! TO.P,U1,4*
G04 #@! TO.N,Net-(U1-Pad4)*
X199555000Y-92910000D03*
D27*
G04 #@! TO.P,U1,5*
G04 #@! TO.N,Net-(R1-Pad1)*
X200280000Y-93635000D03*
G04 #@! TO.P,U1,6*
G04 #@! TO.N,GND*
X200780000Y-93635000D03*
G04 #@! TO.P,U1,7*
G04 #@! TO.N,Net-(C8-Pad2)*
X201280000Y-93635000D03*
G04 #@! TO.P,U1,8*
G04 #@! TO.N,Net-(C8-Pad1)*
X201780000Y-93635000D03*
D26*
G04 #@! TO.P,U1,9*
G04 #@! TO.N,Net-(U1-Pad9)*
X202505000Y-92910000D03*
G04 #@! TO.P,U1,10*
G04 #@! TO.N,VSYS*
X202505000Y-92410000D03*
G04 #@! TO.P,U1,11*
X202505000Y-91910000D03*
G04 #@! TO.P,U1,12*
X202505000Y-91410000D03*
D27*
G04 #@! TO.P,U1,13*
G04 #@! TO.N,EN*
X201780000Y-90685000D03*
G04 #@! TO.P,U1,14*
G04 #@! TO.N,GND*
X201280000Y-90685000D03*
G04 #@! TO.P,U1,15*
X200780000Y-90685000D03*
G04 #@! TO.P,U1,16*
G04 #@! TO.N,1v*
X200280000Y-90685000D03*
D28*
G04 #@! TO.P,U1,17*
G04 #@! TO.N,GND*
X201480000Y-92610000D03*
X201480000Y-91710000D03*
X200580000Y-92610000D03*
X200580000Y-91710000D03*
D29*
G04 #@! TD*
G04 #@! TO.N,GND*
G04 #@! TO.C,U1*
X201030000Y-92160000D03*
G04 #@! TO.N,GND*
G04 #@! TO.C,U1*
X200530000Y-91660000D03*
X201530000Y-91660000D03*
X201530000Y-92660000D03*
X200530000Y-92660000D03*
G04 #@! TD*
D26*
G04 #@! TO.P,U2,1*
G04 #@! TO.N,Net-(L3-Pad2)*
X221045000Y-110540000D03*
G04 #@! TO.P,U2,2*
X221045000Y-110040000D03*
G04 #@! TO.P,U2,3*
G04 #@! TO.N,VSYS*
X221045000Y-109540000D03*
G04 #@! TO.P,U2,4*
G04 #@! TO.N,Net-(U2-Pad4)*
X221045000Y-109040000D03*
D27*
G04 #@! TO.P,U2,5*
G04 #@! TO.N,Net-(R2-Pad1)*
X220320000Y-108315000D03*
G04 #@! TO.P,U2,6*
G04 #@! TO.N,GND*
X219820000Y-108315000D03*
G04 #@! TO.P,U2,7*
G04 #@! TO.N,Net-(C9-Pad2)*
X219320000Y-108315000D03*
G04 #@! TO.P,U2,8*
G04 #@! TO.N,Net-(C9-Pad1)*
X218820000Y-108315000D03*
D26*
G04 #@! TO.P,U2,9*
G04 #@! TO.N,Net-(U2-Pad9)*
X218095000Y-109040000D03*
G04 #@! TO.P,U2,10*
G04 #@! TO.N,VSYS*
X218095000Y-109540000D03*
G04 #@! TO.P,U2,11*
X218095000Y-110040000D03*
G04 #@! TO.P,U2,12*
X218095000Y-110540000D03*
D27*
G04 #@! TO.P,U2,13*
G04 #@! TO.N,EN*
X218820000Y-111265000D03*
G04 #@! TO.P,U2,14*
G04 #@! TO.N,GND*
X219320000Y-111265000D03*
G04 #@! TO.P,U2,15*
X219820000Y-111265000D03*
G04 #@! TO.P,U2,16*
G04 #@! TO.N,3v3*
X220320000Y-111265000D03*
D28*
G04 #@! TO.P,U2,17*
G04 #@! TO.N,GND*
X219120000Y-109340000D03*
X219120000Y-110240000D03*
X220020000Y-109340000D03*
X220020000Y-110240000D03*
D29*
G04 #@! TD*
G04 #@! TO.N,GND*
G04 #@! TO.C,U2*
X219570000Y-109790000D03*
G04 #@! TO.N,GND*
G04 #@! TO.C,U2*
X220070000Y-110290000D03*
X219070000Y-110290000D03*
X219070000Y-109290000D03*
X220070000Y-109290000D03*
G04 #@! TD*
D30*
G04 #@! TO.P,U3,1*
G04 #@! TO.N,Net-(L1-Pad2)*
X222900000Y-100015000D03*
G04 #@! TO.P,U3,2*
X223400000Y-100015000D03*
G04 #@! TO.P,U3,3*
G04 #@! TO.N,5v*
X223900000Y-100015000D03*
G04 #@! TO.P,U3,4*
X224400000Y-100015000D03*
G04 #@! TO.P,U3,5*
G04 #@! TO.N,Net-(U3-Pad5)*
X224900000Y-100015000D03*
G04 #@! TO.P,U3,6*
G04 #@! TO.N,Net-(U3-Pad6)*
X224900000Y-97065000D03*
G04 #@! TO.P,U3,7*
G04 #@! TO.N,5v*
X224400000Y-97065000D03*
G04 #@! TO.P,U3,8*
G04 #@! TO.N,Net-(U3-Pad8)*
X223900000Y-97065000D03*
G04 #@! TO.P,U3,9*
G04 #@! TO.N,EN*
X223400000Y-97065000D03*
G04 #@! TO.P,U3,10*
G04 #@! TO.N,VSYS*
X222900000Y-97065000D03*
D31*
G04 #@! TO.P,U3,11*
G04 #@! TO.N,GND*
X223300000Y-98952500D03*
X224500000Y-98952500D03*
X223300000Y-98127500D03*
X224500000Y-98127500D03*
D32*
X222350000Y-98790000D03*
X225450000Y-98790000D03*
X222350000Y-98290000D03*
X225450000Y-98290000D03*
D33*
X223150000Y-99040000D03*
X224650000Y-99040000D03*
X223150000Y-98040000D03*
X224650000Y-98040000D03*
X223900000Y-98540000D03*
G04 #@! TD*
D26*
G04 #@! TO.P,U4,1*
G04 #@! TO.N,Net-(L4-Pad2)*
X223815000Y-91400000D03*
G04 #@! TO.P,U4,2*
X223815000Y-91900000D03*
G04 #@! TO.P,U4,3*
G04 #@! TO.N,VSYS*
X223815000Y-92400000D03*
G04 #@! TO.P,U4,4*
G04 #@! TO.N,Net-(U4-Pad4)*
X223815000Y-92900000D03*
D27*
G04 #@! TO.P,U4,5*
G04 #@! TO.N,Net-(R11-Pad1)*
X224540000Y-93625000D03*
G04 #@! TO.P,U4,6*
G04 #@! TO.N,GND*
X225040000Y-93625000D03*
G04 #@! TO.P,U4,7*
G04 #@! TO.N,Net-(C17-Pad2)*
X225540000Y-93625000D03*
G04 #@! TO.P,U4,8*
G04 #@! TO.N,Net-(C17-Pad1)*
X226040000Y-93625000D03*
D26*
G04 #@! TO.P,U4,9*
G04 #@! TO.N,Net-(U4-Pad9)*
X226765000Y-92900000D03*
G04 #@! TO.P,U4,10*
G04 #@! TO.N,VSYS*
X226765000Y-92400000D03*
G04 #@! TO.P,U4,11*
X226765000Y-91900000D03*
G04 #@! TO.P,U4,12*
X226765000Y-91400000D03*
D27*
G04 #@! TO.P,U4,13*
G04 #@! TO.N,EN*
X226040000Y-90675000D03*
G04 #@! TO.P,U4,14*
G04 #@! TO.N,GND*
X225540000Y-90675000D03*
G04 #@! TO.P,U4,15*
X225040000Y-90675000D03*
G04 #@! TO.P,U4,16*
G04 #@! TO.N,1v8*
X224540000Y-90675000D03*
D28*
G04 #@! TO.P,U4,17*
G04 #@! TO.N,GND*
X225740000Y-92600000D03*
X225740000Y-91700000D03*
X224840000Y-92600000D03*
X224840000Y-91700000D03*
D29*
G04 #@! TD*
G04 #@! TO.N,GND*
G04 #@! TO.C,U4*
X225290000Y-92150000D03*
G04 #@! TO.N,GND*
G04 #@! TO.C,U4*
X224790000Y-91650000D03*
X225790000Y-91650000D03*
X225790000Y-92650000D03*
X224790000Y-92650000D03*
G04 #@! TD*
D26*
G04 #@! TO.P,U5,1*
G04 #@! TO.N,Net-(L5-Pad2)*
X211905000Y-91410000D03*
G04 #@! TO.P,U5,2*
X211905000Y-91910000D03*
G04 #@! TO.P,U5,3*
G04 #@! TO.N,VSYS*
X211905000Y-92410000D03*
G04 #@! TO.P,U5,4*
G04 #@! TO.N,Net-(U5-Pad4)*
X211905000Y-92910000D03*
D27*
G04 #@! TO.P,U5,5*
G04 #@! TO.N,Net-(R12-Pad1)*
X212630000Y-93635000D03*
G04 #@! TO.P,U5,6*
G04 #@! TO.N,GND*
X213130000Y-93635000D03*
G04 #@! TO.P,U5,7*
G04 #@! TO.N,Net-(C18-Pad2)*
X213630000Y-93635000D03*
G04 #@! TO.P,U5,8*
G04 #@! TO.N,Net-(C18-Pad1)*
X214130000Y-93635000D03*
D26*
G04 #@! TO.P,U5,9*
G04 #@! TO.N,Net-(U5-Pad9)*
X214855000Y-92910000D03*
G04 #@! TO.P,U5,10*
G04 #@! TO.N,VSYS*
X214855000Y-92410000D03*
G04 #@! TO.P,U5,11*
X214855000Y-91910000D03*
G04 #@! TO.P,U5,12*
X214855000Y-91410000D03*
D27*
G04 #@! TO.P,U5,13*
G04 #@! TO.N,EN*
X214130000Y-90685000D03*
G04 #@! TO.P,U5,14*
G04 #@! TO.N,GND*
X213630000Y-90685000D03*
G04 #@! TO.P,U5,15*
X213130000Y-90685000D03*
G04 #@! TO.P,U5,16*
G04 #@! TO.N,1v15*
X212630000Y-90685000D03*
D28*
G04 #@! TO.P,U5,17*
G04 #@! TO.N,GND*
X213830000Y-92610000D03*
X213830000Y-91710000D03*
X212930000Y-92610000D03*
X212930000Y-91710000D03*
D29*
G04 #@! TD*
G04 #@! TO.N,GND*
G04 #@! TO.C,U5*
X213380000Y-92160000D03*
G04 #@! TO.N,GND*
G04 #@! TO.C,U5*
X212880000Y-91660000D03*
X213880000Y-91660000D03*
X213880000Y-92660000D03*
X212880000Y-92660000D03*
G04 #@! TD*
D34*
G04 #@! TO.P,U6,1*
G04 #@! TO.N,button*
X194955000Y-112910000D03*
G04 #@! TO.P,U6,2*
G04 #@! TO.N,Vtemp*
X195605000Y-112910000D03*
G04 #@! TO.P,U6,3*
G04 #@! TO.N,MCLR*
X196255000Y-112910000D03*
G04 #@! TO.P,U6,4*
G04 #@! TO.N,EN*
X196905000Y-112910000D03*
D35*
G04 #@! TO.P,U6,5*
G04 #@! TO.N,RED*
X197930000Y-111885000D03*
G04 #@! TO.P,U6,6*
G04 #@! TO.N,GREEN*
X197930000Y-111235000D03*
G04 #@! TO.P,U6,7*
G04 #@! TO.N,BLUE*
X197930000Y-110585000D03*
G04 #@! TO.P,U6,8*
G04 #@! TO.N,SDA*
X197930000Y-109935000D03*
D34*
G04 #@! TO.P,U6,9*
G04 #@! TO.N,SCL*
X196905000Y-108910000D03*
G04 #@! TO.P,U6,10*
G04 #@! TO.N,Net-(J24-Pad1)*
X196255000Y-108910000D03*
G04 #@! TO.P,U6,11*
G04 #@! TO.N,Net-(J25-Pad5)*
X195605000Y-108910000D03*
G04 #@! TO.P,U6,12*
G04 #@! TO.N,Net-(J25-Pad4)*
X194955000Y-108910000D03*
D35*
G04 #@! TO.P,U6,13*
G04 #@! TO.N,GND*
X193930000Y-109935000D03*
G04 #@! TO.P,U6,14*
G04 #@! TO.N,Net-(U6-Pad14)*
X193930000Y-110585000D03*
G04 #@! TO.P,U6,15*
G04 #@! TO.N,Net-(U6-Pad15)*
X193930000Y-111235000D03*
G04 #@! TO.P,U6,16*
G04 #@! TO.N,VSYS*
X193930000Y-111885000D03*
D36*
G04 #@! TO.P,U6,17*
G04 #@! TO.N,GND*
X196605000Y-110235000D03*
X195255000Y-110235000D03*
X196605000Y-111585000D03*
X195255000Y-111585000D03*
G04 #@! TD*
D37*
G04 #@! TO.P,U7,1*
G04 #@! TO.N,Net-(C21-Pad2)*
X202090000Y-105790000D03*
G04 #@! TO.P,U7,2*
G04 #@! TO.N,Net-(J17-Pad1)*
X202090000Y-106290000D03*
G04 #@! TO.P,U7,3*
G04 #@! TO.N,Net-(J18-Pad1)*
X202090000Y-106790000D03*
G04 #@! TO.P,U7,4*
G04 #@! TO.N,Net-(U7-Pad4)*
X202090000Y-107290000D03*
G04 #@! TO.P,U7,5*
G04 #@! TO.N,SCL*
X202090000Y-107790000D03*
G04 #@! TO.P,U7,6*
G04 #@! TO.N,SDA*
X202090000Y-108290000D03*
D38*
G04 #@! TO.P,U7,7*
G04 #@! TO.N,Net-(U7-Pad7)*
X202790000Y-108990000D03*
G04 #@! TO.P,U7,8*
G04 #@! TO.N,OTG*
X203290000Y-108990000D03*
G04 #@! TO.P,U7,9*
G04 #@! TO.N,CE*
X203790000Y-108990000D03*
G04 #@! TO.P,U7,10*
G04 #@! TO.N,Net-(R16-Pad1)*
X204290000Y-108990000D03*
G04 #@! TO.P,U7,11*
G04 #@! TO.N,Net-(R17-Pad2)*
X204790000Y-108990000D03*
G04 #@! TO.P,U7,12*
G04 #@! TO.N,Net-(U7-Pad12)*
X205290000Y-108990000D03*
D37*
G04 #@! TO.P,U7,13*
G04 #@! TO.N,Net-(C29-Pad1)*
X205990000Y-108290000D03*
G04 #@! TO.P,U7,14*
X205990000Y-107790000D03*
G04 #@! TO.P,U7,15*
G04 #@! TO.N,VSYS*
X205990000Y-107290000D03*
G04 #@! TO.P,U7,16*
X205990000Y-106790000D03*
G04 #@! TO.P,U7,17*
G04 #@! TO.N,GND*
X205990000Y-106290000D03*
G04 #@! TO.P,U7,18*
X205990000Y-105790000D03*
D38*
G04 #@! TO.P,U7,19*
G04 #@! TO.N,Net-(C24-Pad1)*
X205290000Y-105090000D03*
G04 #@! TO.P,U7,20*
X204790000Y-105090000D03*
G04 #@! TO.P,U7,21*
G04 #@! TO.N,Net-(C24-Pad2)*
X204290000Y-105090000D03*
G04 #@! TO.P,U7,22*
G04 #@! TO.N,REGN*
X203790000Y-105090000D03*
G04 #@! TO.P,U7,23*
G04 #@! TO.N,Net-(U7-Pad23)*
X203290000Y-105090000D03*
G04 #@! TO.P,U7,24*
G04 #@! TO.N,Net-(U7-Pad24)*
X202790000Y-105090000D03*
D39*
G04 #@! TO.P,U7,25*
G04 #@! TO.N,GND*
X204690000Y-107690000D03*
X204690000Y-106390000D03*
X203390000Y-107690000D03*
X203390000Y-106390000D03*
G04 #@! TD*
D11*
G04 #@! TO.P,C29,1*
G04 #@! TO.N,Net-(C29-Pad1)*
X209040000Y-108910000D03*
G04 #@! TO.P,C29,2*
G04 #@! TO.N,GND*
X211040000Y-108910000D03*
G04 #@! TD*
D16*
G04 #@! TO.P,J26,1*
G04 #@! TO.N,button*
X188890000Y-112150000D03*
G04 #@! TD*
D23*
G04 #@! TO.P,R19,1*
G04 #@! TO.N,EN*
X198140000Y-114360000D03*
G04 #@! TO.P,R19,2*
G04 #@! TO.N,GND*
X198140000Y-115860000D03*
G04 #@! TD*
D10*
G04 #@! TO.P,C26,1*
G04 #@! TO.N,GND*
X214120000Y-108930000D03*
G04 #@! TO.P,C26,2*
G04 #@! TO.N,VSYS*
X214120000Y-106930000D03*
G04 #@! TD*
D40*
G04 #@! TO.N,GND*
G04 #@! TO.C,C22*
G36*
X192190142Y-109458674D02*
X192213803Y-109462184D01*
X192237007Y-109467996D01*
X192259529Y-109476054D01*
X192281153Y-109486282D01*
X192301670Y-109498579D01*
X192320883Y-109512829D01*
X192338607Y-109528893D01*
X192354671Y-109546617D01*
X192368921Y-109565830D01*
X192381218Y-109586347D01*
X192391446Y-109607971D01*
X192399504Y-109630493D01*
X192405316Y-109653697D01*
X192408826Y-109677358D01*
X192410000Y-109701250D01*
X192410000Y-110188750D01*
X192408826Y-110212642D01*
X192405316Y-110236303D01*
X192399504Y-110259507D01*
X192391446Y-110282029D01*
X192381218Y-110303653D01*
X192368921Y-110324170D01*
X192354671Y-110343383D01*
X192338607Y-110361107D01*
X192320883Y-110377171D01*
X192301670Y-110391421D01*
X192281153Y-110403718D01*
X192259529Y-110413946D01*
X192237007Y-110422004D01*
X192213803Y-110427816D01*
X192190142Y-110431326D01*
X192166250Y-110432500D01*
X191253750Y-110432500D01*
X191229858Y-110431326D01*
X191206197Y-110427816D01*
X191182993Y-110422004D01*
X191160471Y-110413946D01*
X191138847Y-110403718D01*
X191118330Y-110391421D01*
X191099117Y-110377171D01*
X191081393Y-110361107D01*
X191065329Y-110343383D01*
X191051079Y-110324170D01*
X191038782Y-110303653D01*
X191028554Y-110282029D01*
X191020496Y-110259507D01*
X191014684Y-110236303D01*
X191011174Y-110212642D01*
X191010000Y-110188750D01*
X191010000Y-109701250D01*
X191011174Y-109677358D01*
X191014684Y-109653697D01*
X191020496Y-109630493D01*
X191028554Y-109607971D01*
X191038782Y-109586347D01*
X191051079Y-109565830D01*
X191065329Y-109546617D01*
X191081393Y-109528893D01*
X191099117Y-109512829D01*
X191118330Y-109498579D01*
X191138847Y-109486282D01*
X191160471Y-109476054D01*
X191182993Y-109467996D01*
X191206197Y-109462184D01*
X191229858Y-109458674D01*
X191253750Y-109457500D01*
X192166250Y-109457500D01*
X192190142Y-109458674D01*
X192190142Y-109458674D01*
G37*
D41*
G04 #@! TD*
G04 #@! TO.P,C22,1*
G04 #@! TO.N,GND*
X191710000Y-109945000D03*
D40*
G04 #@! TO.N,VSYS*
G04 #@! TO.C,C22*
G36*
X192190142Y-111333674D02*
X192213803Y-111337184D01*
X192237007Y-111342996D01*
X192259529Y-111351054D01*
X192281153Y-111361282D01*
X192301670Y-111373579D01*
X192320883Y-111387829D01*
X192338607Y-111403893D01*
X192354671Y-111421617D01*
X192368921Y-111440830D01*
X192381218Y-111461347D01*
X192391446Y-111482971D01*
X192399504Y-111505493D01*
X192405316Y-111528697D01*
X192408826Y-111552358D01*
X192410000Y-111576250D01*
X192410000Y-112063750D01*
X192408826Y-112087642D01*
X192405316Y-112111303D01*
X192399504Y-112134507D01*
X192391446Y-112157029D01*
X192381218Y-112178653D01*
X192368921Y-112199170D01*
X192354671Y-112218383D01*
X192338607Y-112236107D01*
X192320883Y-112252171D01*
X192301670Y-112266421D01*
X192281153Y-112278718D01*
X192259529Y-112288946D01*
X192237007Y-112297004D01*
X192213803Y-112302816D01*
X192190142Y-112306326D01*
X192166250Y-112307500D01*
X191253750Y-112307500D01*
X191229858Y-112306326D01*
X191206197Y-112302816D01*
X191182993Y-112297004D01*
X191160471Y-112288946D01*
X191138847Y-112278718D01*
X191118330Y-112266421D01*
X191099117Y-112252171D01*
X191081393Y-112236107D01*
X191065329Y-112218383D01*
X191051079Y-112199170D01*
X191038782Y-112178653D01*
X191028554Y-112157029D01*
X191020496Y-112134507D01*
X191014684Y-112111303D01*
X191011174Y-112087642D01*
X191010000Y-112063750D01*
X191010000Y-111576250D01*
X191011174Y-111552358D01*
X191014684Y-111528697D01*
X191020496Y-111505493D01*
X191028554Y-111482971D01*
X191038782Y-111461347D01*
X191051079Y-111440830D01*
X191065329Y-111421617D01*
X191081393Y-111403893D01*
X191099117Y-111387829D01*
X191118330Y-111373579D01*
X191138847Y-111361282D01*
X191160471Y-111351054D01*
X191182993Y-111342996D01*
X191206197Y-111337184D01*
X191229858Y-111333674D01*
X191253750Y-111332500D01*
X192166250Y-111332500D01*
X192190142Y-111333674D01*
X192190142Y-111333674D01*
G37*
D41*
G04 #@! TD*
G04 #@! TO.P,C22,2*
G04 #@! TO.N,VSYS*
X191710000Y-111820000D03*
D29*
G04 #@! TO.N,5v*
X223890000Y-95880000D03*
X226810000Y-100530000D03*
G04 #@! TO.N,GND*
X198140000Y-116570000D03*
X216360000Y-87780000D03*
X215550000Y-88580000D03*
X216360000Y-88580000D03*
X215560000Y-87780000D03*
X218230000Y-95720000D03*
X217430000Y-94920000D03*
X218230000Y-94920000D03*
X217430000Y-95720000D03*
X191640000Y-102080000D03*
X191640000Y-101290000D03*
X227700000Y-88390000D03*
X227700000Y-87590000D03*
X227940000Y-97420000D03*
X227940000Y-98220000D03*
X227150000Y-97420000D03*
X227140000Y-98220000D03*
X207020000Y-104730000D03*
X207020000Y-105530000D03*
X204100000Y-88560000D03*
X203300000Y-87770000D03*
X203300000Y-88560000D03*
X204100000Y-87760000D03*
X227250000Y-107080000D03*
X228040000Y-107890000D03*
X228040000Y-106310000D03*
X228040000Y-107100000D03*
X227250000Y-107890000D03*
X227250000Y-106280000D03*
X213360000Y-113680000D03*
X213360000Y-112890000D03*
X212560000Y-113680000D03*
X212560000Y-112890000D03*
X211760000Y-113680000D03*
X211760000Y-112880000D03*
X201600000Y-113140000D03*
X203390000Y-106390000D03*
X203390000Y-107690000D03*
X204690000Y-107690000D03*
X204690000Y-106390000D03*
X195255000Y-110235000D03*
X196605000Y-110235000D03*
X195255000Y-111585000D03*
X196605000Y-111585000D03*
X208210000Y-103920000D03*
X210200000Y-103920000D03*
X212180000Y-103920000D03*
X193430000Y-113570000D03*
X192900000Y-109935000D03*
X199590000Y-102240000D03*
G04 #@! TO.N,1v*
X195350000Y-86790000D03*
X195930000Y-95300000D03*
G04 #@! TO.N,3v3*
X225290000Y-115020000D03*
X224740000Y-106700000D03*
G04 #@! TO.N,VSYS*
X221990000Y-109540000D03*
X216550000Y-98780000D03*
X195830000Y-115750000D03*
X216550000Y-99580000D03*
X215750000Y-98780000D03*
X214950000Y-98780000D03*
X216550000Y-100380000D03*
X215750000Y-99580000D03*
X214950000Y-99580000D03*
X215750000Y-100370000D03*
X227900000Y-93540000D03*
X228700000Y-92750000D03*
X228700000Y-93540000D03*
X227900000Y-92740000D03*
X222880000Y-92400000D03*
X210830000Y-92410000D03*
X198510000Y-92410000D03*
X216030000Y-93550000D03*
X216830000Y-92760000D03*
X216830000Y-93550000D03*
X216030000Y-92750000D03*
X203830000Y-93550000D03*
X204620000Y-92760000D03*
X204620000Y-93550000D03*
X203830000Y-92750000D03*
X200560000Y-113110000D03*
X193025000Y-111885000D03*
X214950000Y-100380000D03*
G04 #@! TO.N,1v8*
X219920000Y-86920000D03*
X219940000Y-95280000D03*
G04 #@! TO.N,1v15*
X207980000Y-86950000D03*
X208170000Y-95320000D03*
G04 #@! TO.N,REGN*
X203580000Y-103360000D03*
X206190000Y-113690000D03*
G04 #@! TO.N,SCL*
X200030000Y-110710000D03*
X198970000Y-108870000D03*
G04 #@! TO.N,Net-(J24-Pad1)*
X189550000Y-109720000D03*
X196490000Y-107740000D03*
G04 #@! TO.N,Net-(J25-Pad4)*
X194070000Y-108540000D03*
G04 #@! TO.N,Net-(J25-Pad5)*
X195350000Y-107830000D03*
G04 #@! TO.N,RED*
X199150000Y-112690000D03*
X189140000Y-94170000D03*
G04 #@! TO.N,GREEN*
X199160000Y-111730000D03*
X195080000Y-101320000D03*
G04 #@! TO.N,BLUE*
X199130000Y-110790000D03*
X198750000Y-101340000D03*
G04 #@! TO.N,EN*
X223000000Y-95890000D03*
X217960000Y-111580000D03*
X226620000Y-90050000D03*
X214740000Y-90110000D03*
X202410000Y-90160000D03*
X197790000Y-112990000D03*
G04 #@! TD*
D42*
G04 #@! TO.N,5v*
X224400000Y-96390000D02*
X223890000Y-95880000D01*
X224400000Y-97065000D02*
X224400000Y-96390000D01*
X226520000Y-100820000D02*
X226520000Y-101840000D01*
X226810000Y-100530000D02*
X226520000Y-100820000D01*
G04 #@! TO.N,GND*
X198140000Y-115860000D02*
X198140000Y-116570000D01*
X215560000Y-87780000D02*
X216360000Y-87780000D01*
X216360000Y-88580000D02*
X215550000Y-88580000D01*
X215550000Y-88580000D02*
X216660000Y-89690000D01*
X216360000Y-87780000D02*
X216360000Y-88580000D01*
X216660000Y-89760000D02*
X216660000Y-89690000D01*
X217430000Y-95720000D02*
X218230000Y-95720000D01*
X218230000Y-94920000D02*
X217430000Y-94920000D01*
X217980000Y-94370000D02*
X217430000Y-94920000D01*
X217980000Y-90770000D02*
X217980000Y-94370000D01*
X217980000Y-90770000D02*
X216970000Y-89760000D01*
X218230000Y-95720000D02*
X218230000Y-94920000D01*
X216660000Y-89760000D02*
X216970000Y-89760000D01*
X191640000Y-101290000D02*
X191640000Y-102080000D01*
X191480000Y-102240000D02*
X191640000Y-102080000D01*
X191480000Y-102240000D02*
X189540000Y-102240000D01*
X227700000Y-87590000D02*
X227700000Y-88390000D01*
X228550000Y-89240000D02*
X227700000Y-88390000D01*
X228550000Y-89240000D02*
X228550000Y-89750000D01*
X227150000Y-97420000D02*
X227940000Y-97420000D01*
X227940000Y-97420000D02*
X227940000Y-98220000D01*
X227140000Y-98220000D02*
X227940000Y-98220000D01*
X228840000Y-97320000D02*
X227940000Y-98220000D01*
X228840000Y-97320000D02*
X230520000Y-97320000D01*
X207020000Y-105530000D02*
X207020000Y-104730000D01*
X207220000Y-104930000D02*
X207020000Y-104730000D01*
X207220000Y-104930000D02*
X208210000Y-104930000D01*
X204100000Y-87760000D02*
X204100000Y-88560000D01*
X203300000Y-88560000D02*
X203300000Y-87770000D01*
X204300000Y-86770000D02*
X203300000Y-87770000D01*
X204300000Y-86770000D02*
X204300000Y-85520000D01*
X204100000Y-88560000D02*
X203300000Y-88560000D01*
X227250000Y-106280000D02*
X227250000Y-107080000D01*
X227250000Y-107890000D02*
X228040000Y-107890000D01*
X228040000Y-107100000D02*
X228040000Y-106310000D01*
X228220000Y-106130000D02*
X228040000Y-106310000D01*
X228220000Y-106130000D02*
X228220000Y-103840000D01*
X228040000Y-107890000D02*
X228040000Y-107100000D01*
X227250000Y-107080000D02*
X227250000Y-107890000D01*
X213360000Y-113680000D02*
X213360000Y-112890000D01*
X212560000Y-113680000D02*
X212560000Y-112890000D01*
X211760000Y-112880000D02*
X211760000Y-113680000D01*
X212560000Y-113680000D02*
X213360000Y-113680000D01*
X214130000Y-114450000D02*
X213360000Y-113680000D01*
X214130000Y-114450000D02*
X214130000Y-116350000D01*
X211760000Y-113680000D02*
X212560000Y-113680000D01*
X201810000Y-112380000D02*
X201810000Y-112930000D01*
X201810000Y-112930000D02*
X201600000Y-113140000D01*
X194955000Y-109935000D02*
X195255000Y-110235000D01*
X208210000Y-104930000D02*
X208210000Y-103920000D01*
X210200000Y-104930000D02*
X210200000Y-103920000D01*
X212180000Y-104930000D02*
X212180000Y-103920000D01*
X219320000Y-111265000D02*
X219320000Y-110440000D01*
X219320000Y-110440000D02*
X219120000Y-110240000D01*
X219820000Y-111265000D02*
X219820000Y-110440000D01*
X219820000Y-110440000D02*
X220020000Y-110240000D01*
X219820000Y-108315000D02*
X219820000Y-109140000D01*
X219820000Y-109140000D02*
X220020000Y-109340000D01*
X225540000Y-90675000D02*
X225540000Y-91500000D01*
X225540000Y-91500000D02*
X225740000Y-91700000D01*
X225040000Y-90675000D02*
X225040000Y-91500000D01*
X225040000Y-91500000D02*
X224840000Y-91700000D01*
X225040000Y-93625000D02*
X225040000Y-92800000D01*
X225040000Y-92800000D02*
X224840000Y-92600000D01*
X213630000Y-90685000D02*
X213630000Y-91510000D01*
X213630000Y-91510000D02*
X213830000Y-91710000D01*
X213130000Y-90685000D02*
X213130000Y-91510000D01*
X213130000Y-91510000D02*
X212930000Y-91710000D01*
X201280000Y-90685000D02*
X201280000Y-91510000D01*
X201280000Y-91510000D02*
X201480000Y-91710000D01*
X200780000Y-90685000D02*
X200780000Y-91510000D01*
X200780000Y-91510000D02*
X200580000Y-91710000D01*
X213130000Y-93635000D02*
X213130000Y-92810000D01*
X213130000Y-92810000D02*
X212930000Y-92610000D01*
X200780000Y-93635000D02*
X200780000Y-92810000D01*
X200780000Y-92810000D02*
X200580000Y-92610000D01*
X193430000Y-114300000D02*
X193430000Y-113570000D01*
X193930000Y-109935000D02*
X194955000Y-109935000D01*
X192802500Y-110032500D02*
X192900000Y-109935000D01*
X191770000Y-110032500D02*
X192802500Y-110032500D01*
X193930000Y-109935000D02*
X192900000Y-109935000D01*
X199100000Y-103370000D02*
X199100000Y-102730000D01*
X199100000Y-102730000D02*
X199590000Y-102240000D01*
G04 #@! TO.N,1v*
X195930000Y-94610000D02*
X195930000Y-95300000D01*
X195350000Y-86790000D02*
X196240000Y-85900000D01*
X196240000Y-85900000D02*
X196240000Y-85510000D01*
G04 #@! TO.N,3v3*
X224740000Y-107440000D02*
X224740000Y-106700000D01*
X225290000Y-115020000D02*
X224230000Y-116080000D01*
X224230000Y-116080000D02*
X224230000Y-116320000D01*
G04 #@! TO.N,Net-(C8-Pad2)*
X201280000Y-93635000D02*
X201280000Y-94770000D01*
X201280000Y-94770000D02*
X200790000Y-95260000D01*
G04 #@! TO.N,Net-(C8-Pad1)*
X201780000Y-93635000D02*
X201780000Y-94750000D01*
X201780000Y-94750000D02*
X202290000Y-95260000D01*
G04 #@! TO.N,Net-(C9-Pad2)*
X219320000Y-108315000D02*
X219320000Y-107090000D01*
X219320000Y-107090000D02*
X219820000Y-106590000D01*
G04 #@! TO.N,Net-(C9-Pad1)*
X218820000Y-108315000D02*
X218820000Y-107090000D01*
X218820000Y-107090000D02*
X218320000Y-106590000D01*
G04 #@! TO.N,VSYS*
X221045000Y-109540000D02*
X221990000Y-109540000D01*
X196500000Y-116560000D02*
X196500000Y-116420000D01*
X196500000Y-116420000D02*
X195830000Y-115750000D01*
X216550000Y-100380000D02*
X216550000Y-99580000D01*
X216550000Y-98780000D02*
X215750000Y-98780000D01*
X215750000Y-98780000D02*
X214950000Y-98780000D01*
X216550000Y-99580000D02*
X216550000Y-98780000D01*
X215750000Y-100370000D02*
X215750000Y-99580000D01*
X215750000Y-99580000D02*
X214950000Y-99580000D01*
X227900000Y-92740000D02*
X227900000Y-93540000D01*
X228700000Y-93540000D02*
X228700000Y-92750000D01*
X228550000Y-92600000D02*
X228700000Y-92750000D01*
X228550000Y-92600000D02*
X228550000Y-91750000D01*
X227900000Y-93540000D02*
X228700000Y-93540000D01*
X223815000Y-92400000D02*
X222880000Y-92400000D01*
X211905000Y-92410000D02*
X210830000Y-92410000D01*
X199555000Y-92410000D02*
X198510000Y-92410000D01*
X216030000Y-92750000D02*
X216030000Y-93550000D01*
X216830000Y-93550000D02*
X216830000Y-92760000D01*
X216660000Y-92590000D02*
X216830000Y-92760000D01*
X216660000Y-92590000D02*
X216660000Y-91760000D01*
X216030000Y-93550000D02*
X216830000Y-93550000D01*
X203830000Y-92750000D02*
X203830000Y-93550000D01*
X204620000Y-93550000D02*
X204620000Y-92760000D01*
X204460000Y-92600000D02*
X204620000Y-92760000D01*
X204460000Y-92600000D02*
X204460000Y-91760000D01*
X203830000Y-93550000D02*
X204620000Y-93550000D01*
X200810000Y-112380000D02*
X200560000Y-112630000D01*
X200810000Y-112380000D02*
X200310000Y-112380000D01*
X200310000Y-112380000D02*
X200560000Y-112630000D01*
X200560000Y-112630000D02*
X200560000Y-113110000D01*
X192200000Y-111640000D02*
X192780000Y-111640000D01*
X192780000Y-111640000D02*
X193025000Y-111885000D01*
X193930000Y-111885000D02*
X192445000Y-111885000D01*
X192445000Y-111885000D02*
X192200000Y-111640000D01*
X214950000Y-100380000D02*
X214950000Y-99580000D01*
X214950000Y-99580000D02*
X214950000Y-98780000D01*
X214950000Y-98780000D02*
X213760000Y-99970000D01*
X213270000Y-99970000D02*
X213760000Y-99970000D01*
G04 #@! TO.N,1v8*
X219945000Y-94555000D02*
X219945000Y-95275000D01*
X220550000Y-86290000D02*
X220550000Y-85500000D01*
X219920000Y-86920000D02*
X220550000Y-86290000D01*
X219945000Y-95275000D02*
X219940000Y-95280000D01*
G04 #@! TO.N,1v15*
X208170000Y-94620000D02*
X208170000Y-95320000D01*
X208660000Y-86270000D02*
X208660000Y-85500000D01*
X207980000Y-86950000D02*
X208660000Y-86270000D01*
G04 #@! TO.N,Net-(C17-Pad2)*
X225540000Y-93625000D02*
X225540000Y-94730000D01*
X225540000Y-94730000D02*
X225020000Y-95250000D01*
G04 #@! TO.N,Net-(C17-Pad1)*
X226040000Y-93625000D02*
X226040000Y-94770000D01*
X226040000Y-94770000D02*
X226520000Y-95250000D01*
G04 #@! TO.N,Net-(C18-Pad2)*
X213630000Y-93635000D02*
X213630000Y-94660000D01*
X213630000Y-94660000D02*
X213030000Y-95260000D01*
G04 #@! TO.N,Net-(C18-Pad1)*
X214130000Y-93635000D02*
X214130000Y-94860000D01*
X214130000Y-94860000D02*
X214530000Y-95260000D01*
G04 #@! TO.N,REGN*
X206180000Y-112940000D02*
X206180000Y-113680000D01*
X206180000Y-113680000D02*
X206190000Y-113690000D01*
X203790000Y-105090000D02*
X203790000Y-103570000D01*
X202200000Y-102245000D02*
X203195000Y-103240000D01*
X202200000Y-102220000D02*
X202200000Y-102245000D01*
X203460000Y-103240000D02*
X203580000Y-103360000D01*
X203195000Y-103240000D02*
X203460000Y-103240000D01*
G04 #@! TO.N,Net-(C24-Pad2)*
X204290000Y-105090000D02*
X204290000Y-102600000D01*
X204290000Y-102600000D02*
X203900000Y-102210000D01*
G04 #@! TO.N,Net-(J4-Pad1)*
X190680000Y-94870000D02*
X190680000Y-94440000D01*
X190680000Y-94440000D02*
X188920000Y-92680000D01*
G04 #@! TO.N,Net-(J5-Pad1)*
X192240000Y-94890000D02*
X192240000Y-94410000D01*
X192240000Y-94410000D02*
X188910000Y-91080000D01*
G04 #@! TO.N,Net-(J8-Pad1)*
X193780000Y-94890000D02*
X193780000Y-94350000D01*
X193780000Y-94350000D02*
X188920000Y-89490000D01*
G04 #@! TO.N,Vtemp*
X193430000Y-115800000D02*
X194180000Y-115800000D01*
X194180000Y-115800000D02*
X194930000Y-116550000D01*
X195605000Y-112910000D02*
X195605000Y-113635000D01*
X194930000Y-114310000D02*
X194930000Y-116550000D01*
X195605000Y-113635000D02*
X194930000Y-114310000D01*
G04 #@! TO.N,SCL*
X200310000Y-110990000D02*
X200030000Y-110710000D01*
X200310000Y-111380000D02*
X200310000Y-110990000D01*
X198970000Y-108870000D02*
X198970000Y-108910000D01*
X198970000Y-108910000D02*
X198970000Y-108870000D01*
X198970000Y-108870000D02*
X198970000Y-108910000D01*
X196905000Y-108910000D02*
X198970000Y-108910000D01*
X198970000Y-108910000D02*
X199160000Y-108910000D01*
X199160000Y-108910000D02*
X200280000Y-107790000D01*
X200280000Y-107790000D02*
X202090000Y-107790000D01*
G04 #@! TO.N,SDA*
X200810000Y-111380000D02*
X200810000Y-110340000D01*
X200810000Y-110340000D02*
X199980000Y-109510000D01*
X197930000Y-109935000D02*
X199555000Y-109935000D01*
X201200000Y-108290000D02*
X202090000Y-108290000D01*
X199555000Y-109935000D02*
X201200000Y-108290000D01*
G04 #@! TO.N,Net-(J17-Pad1)*
X202090000Y-106290000D02*
X201133602Y-106290000D01*
X192223602Y-107210000D02*
X188880000Y-107210000D01*
X192793604Y-106639998D02*
X192223602Y-107210000D01*
X200783604Y-106639998D02*
X192793604Y-106639998D01*
X201133602Y-106290000D02*
X200783604Y-106639998D01*
G04 #@! TO.N,Net-(J18-Pad1)*
X202090000Y-106790000D02*
X201270000Y-106790000D01*
X191460000Y-108610000D02*
X188910000Y-108610000D01*
X192980000Y-107090000D02*
X191460000Y-108610000D01*
X200970000Y-107090000D02*
X192980000Y-107090000D01*
X201270000Y-106790000D02*
X200970000Y-107090000D01*
G04 #@! TO.N,Net-(J24-Pad1)*
X188890000Y-110710000D02*
X188890000Y-110380000D01*
X188890000Y-110380000D02*
X189550000Y-109720000D01*
X196490000Y-107740000D02*
X196255000Y-107975000D01*
X196255000Y-107975000D02*
X196255000Y-108910000D01*
G04 #@! TO.N,MCLR*
X196255000Y-112910000D02*
X196255000Y-114435000D01*
X199700000Y-115110000D02*
X200250000Y-115660000D01*
X196930000Y-115110000D02*
X199700000Y-115110000D01*
X196255000Y-114435000D02*
X196930000Y-115110000D01*
G04 #@! TO.N,Net-(J25-Pad4)*
X194070000Y-108540000D02*
X194440000Y-108910000D01*
X194440000Y-108910000D02*
X194955000Y-108910000D01*
G04 #@! TO.N,Net-(J25-Pad5)*
X195605000Y-108910000D02*
X195605000Y-108085000D01*
X195605000Y-108085000D02*
X195350000Y-107830000D01*
G04 #@! TO.N,Net-(Q1-Pad2)*
X189140000Y-96370000D02*
X189140000Y-99680000D01*
X189140000Y-99680000D02*
X189210000Y-99750000D01*
G04 #@! TO.N,Net-(Q1-Pad3)*
X190680000Y-96370000D02*
X190680000Y-97230000D01*
X190680000Y-97230000D02*
X190160000Y-97750000D01*
G04 #@! TO.N,Net-(Q2-Pad2)*
X192920000Y-101270000D02*
X192920000Y-99760000D01*
G04 #@! TO.N,Net-(Q2-Pad3)*
X193870000Y-97760000D02*
X193610000Y-97760000D01*
X193610000Y-97760000D02*
X192240000Y-96390000D01*
G04 #@! TO.N,Net-(Q3-Pad2)*
X196590000Y-101290000D02*
X196590000Y-99790000D01*
X196590000Y-99790000D02*
X196610000Y-99770000D01*
G04 #@! TO.N,Net-(Q3-Pad3)*
X193780000Y-96390000D02*
X194150000Y-96390000D01*
X194150000Y-96390000D02*
X195530000Y-97770000D01*
X195530000Y-97770000D02*
X197560000Y-97770000D01*
G04 #@! TO.N,Net-(R1-Pad1)*
X197590000Y-93110000D02*
X195930000Y-93110000D01*
X200280000Y-93635000D02*
X198115000Y-93635000D01*
X198115000Y-93635000D02*
X197590000Y-93110000D01*
G04 #@! TO.N,Net-(R2-Pad1)*
X220320000Y-108315000D02*
X222515000Y-108315000D01*
X222515000Y-108315000D02*
X223140000Y-108940000D01*
X223140000Y-108940000D02*
X224740000Y-108940000D01*
G04 #@! TO.N,RED*
X198345000Y-111885000D02*
X199150000Y-112690000D01*
X197930000Y-111885000D02*
X198345000Y-111885000D01*
X189140000Y-94170000D02*
X189140000Y-94870000D01*
G04 #@! TO.N,GREEN*
X197930000Y-111235000D02*
X198665000Y-111235000D01*
X198665000Y-111235000D02*
X199160000Y-111730000D01*
X195030000Y-101270000D02*
X194420000Y-101270000D01*
X195080000Y-101320000D02*
X195030000Y-101270000D01*
G04 #@! TO.N,Net-(R11-Pad1)*
X224540000Y-93625000D02*
X222135000Y-93625000D01*
X222135000Y-93625000D02*
X221565000Y-93055000D01*
X221565000Y-93055000D02*
X219945000Y-93055000D01*
G04 #@! TO.N,Net-(R12-Pad1)*
X212630000Y-93635000D02*
X210365000Y-93635000D01*
X210365000Y-93635000D02*
X209850000Y-93120000D01*
X209850000Y-93120000D02*
X208170000Y-93120000D01*
G04 #@! TO.N,BLUE*
X197930000Y-110585000D02*
X198925000Y-110585000D01*
X198925000Y-110585000D02*
X199130000Y-110790000D01*
X198700000Y-101290000D02*
X198090000Y-101290000D01*
X198750000Y-101340000D02*
X198700000Y-101290000D01*
G04 #@! TO.N,Net-(R16-Pad1)*
X204290000Y-108990000D02*
X204290000Y-110330000D01*
X204290000Y-110330000D02*
X203180000Y-111440000D01*
G04 #@! TO.N,Net-(R17-Pad2)*
X204790000Y-108990000D02*
X204790000Y-111330000D01*
X204790000Y-111330000D02*
X204900000Y-111440000D01*
X204900000Y-111440000D02*
X206180000Y-111440000D01*
G04 #@! TO.N,CE*
X201810000Y-111380000D02*
X201810000Y-111130000D01*
X201810000Y-111130000D02*
X202360000Y-110580000D01*
X202360000Y-110580000D02*
X203350000Y-110580000D01*
X203350000Y-110580000D02*
X203790000Y-110140000D01*
X203790000Y-110140000D02*
X203790000Y-108990000D01*
G04 #@! TO.N,OTG*
X201310000Y-111380000D02*
X201310000Y-110980000D01*
X203290000Y-109950000D02*
X203290000Y-108990000D01*
X203110002Y-110129998D02*
X203290000Y-109950000D01*
X202160002Y-110129998D02*
X203110002Y-110129998D01*
X201310000Y-110980000D02*
X202160002Y-110129998D01*
G04 #@! TO.N,EN*
X196905000Y-112910000D02*
X196905000Y-113905000D01*
X197360000Y-114360000D02*
X198140000Y-114360000D01*
X196905000Y-113905000D02*
X197360000Y-114360000D01*
X223400000Y-96290000D02*
X223000000Y-95890000D01*
X223400000Y-97065000D02*
X223400000Y-96290000D01*
X218275000Y-111265000D02*
X217960000Y-111580000D01*
X218275000Y-111265000D02*
X218820000Y-111265000D01*
X226620000Y-90050000D02*
X226040000Y-90630000D01*
X214740000Y-90110000D02*
X214165000Y-90685000D01*
X201885000Y-90685000D02*
X202410000Y-90160000D01*
X197710000Y-112910000D02*
X197790000Y-112990000D01*
X197710000Y-112910000D02*
X196905000Y-112910000D01*
X226040000Y-90675000D02*
X226040000Y-90630000D01*
X214130000Y-90685000D02*
X214165000Y-90685000D01*
X201780000Y-90685000D02*
X201885000Y-90685000D01*
G04 #@! TO.N,button*
X194955000Y-112910000D02*
X189650000Y-112910000D01*
X189650000Y-112910000D02*
X188890000Y-112150000D01*
G04 #@! TD*
D43*
G04 #@! TO.N,VSYS*
G36*
X216995000Y-107325000D02*
X206446023Y-107325000D01*
X206415000Y-107318829D01*
X205675000Y-107318829D01*
X205675000Y-106761171D01*
X206415000Y-106761171D01*
X206446023Y-106755000D01*
X207220000Y-106755000D01*
X207264009Y-106746246D01*
X207301317Y-106721317D01*
X207967634Y-106055000D01*
X213760000Y-106055000D01*
X213804009Y-106046246D01*
X213841317Y-106021317D01*
X213866246Y-105984009D01*
X213875000Y-105940000D01*
X213875000Y-98385000D01*
X216995000Y-98385000D01*
X216995000Y-107325000D01*
X216995000Y-107325000D01*
G37*
X216995000Y-107325000D02*
X206446023Y-107325000D01*
X206415000Y-107318829D01*
X205675000Y-107318829D01*
X205675000Y-106761171D01*
X206415000Y-106761171D01*
X206446023Y-106755000D01*
X207220000Y-106755000D01*
X207264009Y-106746246D01*
X207301317Y-106721317D01*
X207967634Y-106055000D01*
X213760000Y-106055000D01*
X213804009Y-106046246D01*
X213841317Y-106021317D01*
X213866246Y-105984009D01*
X213875000Y-105940000D01*
X213875000Y-98385000D01*
X216995000Y-98385000D01*
X216995000Y-107325000D01*
G04 #@! TO.N,Net-(C24-Pad1)*
G36*
X206445000Y-103272366D02*
X205358683Y-104358683D01*
X205333754Y-104395991D01*
X205325000Y-104440000D01*
X205325000Y-105405000D01*
X204761171Y-105405000D01*
X204761171Y-104665000D01*
X204755000Y-104633977D01*
X204755000Y-101110000D01*
X204746246Y-101065991D01*
X204721317Y-101028683D01*
X204684009Y-101003754D01*
X204640000Y-100995000D01*
X203635000Y-100995000D01*
X203635000Y-100357634D01*
X205607634Y-98385000D01*
X206445000Y-98385000D01*
X206445000Y-103272366D01*
X206445000Y-103272366D01*
G37*
X206445000Y-103272366D02*
X205358683Y-104358683D01*
X205333754Y-104395991D01*
X205325000Y-104440000D01*
X205325000Y-105405000D01*
X204761171Y-105405000D01*
X204761171Y-104665000D01*
X204755000Y-104633977D01*
X204755000Y-101110000D01*
X204746246Y-101065991D01*
X204721317Y-101028683D01*
X204684009Y-101003754D01*
X204640000Y-100995000D01*
X203635000Y-100995000D01*
X203635000Y-100357634D01*
X205607634Y-98385000D01*
X206445000Y-98385000D01*
X206445000Y-103272366D01*
G04 #@! TO.N,Net-(C29-Pad1)*
G36*
X209435000Y-116145000D02*
X207525000Y-116145000D01*
X207525000Y-109300000D01*
X207516246Y-109255991D01*
X207491317Y-109218683D01*
X206631317Y-108358683D01*
X206594009Y-108333754D01*
X206550000Y-108325000D01*
X205675000Y-108325000D01*
X205675000Y-107761171D01*
X206415000Y-107761171D01*
X206446023Y-107755000D01*
X209435000Y-107755000D01*
X209435000Y-116145000D01*
X209435000Y-116145000D01*
G37*
X209435000Y-116145000D02*
X207525000Y-116145000D01*
X207525000Y-109300000D01*
X207516246Y-109255991D01*
X207491317Y-109218683D01*
X206631317Y-108358683D01*
X206594009Y-108333754D01*
X206550000Y-108325000D01*
X205675000Y-108325000D01*
X205675000Y-107761171D01*
X206415000Y-107761171D01*
X206446023Y-107755000D01*
X209435000Y-107755000D01*
X209435000Y-116145000D01*
G04 #@! TO.N,Net-(C21-Pad2)*
G36*
X202395000Y-105737634D02*
X202395000Y-105818829D01*
X201665000Y-105818829D01*
X201633977Y-105825000D01*
X189835000Y-105825000D01*
X189835000Y-104555000D01*
X201212366Y-104555000D01*
X202395000Y-105737634D01*
X202395000Y-105737634D01*
G37*
X202395000Y-105737634D02*
X202395000Y-105818829D01*
X201665000Y-105818829D01*
X201633977Y-105825000D01*
X189835000Y-105825000D01*
X189835000Y-104555000D01*
X201212366Y-104555000D01*
X202395000Y-105737634D01*
G04 #@! TO.N,VSYS*
G36*
X204975000Y-93915000D02*
X203255000Y-93915000D01*
X203255000Y-92560000D01*
X203246246Y-92515991D01*
X203221317Y-92478683D01*
X203184009Y-92453754D01*
X203140000Y-92445000D01*
X202251171Y-92445000D01*
X202251171Y-91375000D01*
X204975000Y-91375000D01*
X204975000Y-93915000D01*
X204975000Y-93915000D01*
G37*
X204975000Y-93915000D02*
X203255000Y-93915000D01*
X203255000Y-92560000D01*
X203246246Y-92515991D01*
X203221317Y-92478683D01*
X203184009Y-92453754D01*
X203140000Y-92445000D01*
X202251171Y-92445000D01*
X202251171Y-91375000D01*
X204975000Y-91375000D01*
X204975000Y-93915000D01*
G04 #@! TO.N,Net-(L2-Pad2)*
G36*
X199815000Y-91177634D02*
X199815000Y-91228977D01*
X199808829Y-91260000D01*
X199808829Y-91445000D01*
X194505000Y-91445000D01*
X194505000Y-90455000D01*
X199092366Y-90455000D01*
X199815000Y-91177634D01*
X199815000Y-91177634D01*
G37*
X199815000Y-91177634D02*
X199815000Y-91228977D01*
X199808829Y-91260000D01*
X199808829Y-91445000D01*
X194505000Y-91445000D01*
X194505000Y-90455000D01*
X199092366Y-90455000D01*
X199815000Y-91177634D01*
G04 #@! TO.N,1v*
G36*
X200325000Y-90363932D02*
X200315000Y-90414206D01*
X200315001Y-90782367D01*
X198405000Y-88872366D01*
X198405000Y-88825805D01*
X198426246Y-88794009D01*
X198435000Y-88750000D01*
X198435000Y-88740000D01*
X198426246Y-88695991D01*
X198401317Y-88658683D01*
X198364009Y-88633754D01*
X198320000Y-88625000D01*
X194505000Y-88625000D01*
X194505000Y-84880000D01*
X200325000Y-84880000D01*
X200325000Y-90363932D01*
X200325000Y-90363932D01*
G37*
X200325000Y-90363932D02*
X200315000Y-90414206D01*
X200315001Y-90782367D01*
X198405000Y-88872366D01*
X198405000Y-88825805D01*
X198426246Y-88794009D01*
X198435000Y-88750000D01*
X198435000Y-88740000D01*
X198426246Y-88695991D01*
X198401317Y-88658683D01*
X198364009Y-88633754D01*
X198320000Y-88625000D01*
X194505000Y-88625000D01*
X194505000Y-84880000D01*
X200325000Y-84880000D01*
X200325000Y-90363932D01*
G04 #@! TO.N,VSYS*
G36*
X217175000Y-93855000D02*
X215615000Y-93855000D01*
X215615000Y-92560000D01*
X215606246Y-92515991D01*
X215581317Y-92478683D01*
X215544009Y-92453754D01*
X215500000Y-92445000D01*
X214601171Y-92445000D01*
X214601171Y-91375000D01*
X217175000Y-91375000D01*
X217175000Y-93855000D01*
X217175000Y-93855000D01*
G37*
X217175000Y-93855000D02*
X215615000Y-93855000D01*
X215615000Y-92560000D01*
X215606246Y-92515991D01*
X215581317Y-92478683D01*
X215544009Y-92453754D01*
X215500000Y-92445000D01*
X214601171Y-92445000D01*
X214601171Y-91375000D01*
X217175000Y-91375000D01*
X217175000Y-93855000D01*
G04 #@! TO.N,Net-(L5-Pad2)*
G36*
X212160245Y-91252879D02*
X212158829Y-91260000D01*
X212158829Y-91445000D01*
X206925000Y-91445000D01*
X206925000Y-90485000D01*
X210700000Y-90485000D01*
X210744009Y-90476246D01*
X210745874Y-90475000D01*
X211382366Y-90475000D01*
X212160245Y-91252879D01*
X212160245Y-91252879D01*
G37*
X212160245Y-91252879D02*
X212158829Y-91260000D01*
X212158829Y-91445000D01*
X206925000Y-91445000D01*
X206925000Y-90485000D01*
X210700000Y-90485000D01*
X210744009Y-90476246D01*
X210745874Y-90475000D01*
X211382366Y-90475000D01*
X212160245Y-91252879D01*
G04 #@! TO.N,1v15*
G36*
X212655000Y-90938829D02*
X212595000Y-90938829D01*
X212595000Y-90670000D01*
X212586246Y-90625991D01*
X212561317Y-90588683D01*
X210815000Y-88842366D01*
X210815000Y-88750000D01*
X210806246Y-88705991D01*
X210781317Y-88668683D01*
X210744009Y-88643754D01*
X210700000Y-88635000D01*
X206925000Y-88635000D01*
X206925000Y-84880000D01*
X212655000Y-84880000D01*
X212655000Y-90938829D01*
X212655000Y-90938829D01*
G37*
X212655000Y-90938829D02*
X212595000Y-90938829D01*
X212595000Y-90670000D01*
X212586246Y-90625991D01*
X212561317Y-90588683D01*
X210815000Y-88842366D01*
X210815000Y-88750000D01*
X210806246Y-88705991D01*
X210781317Y-88668683D01*
X210744009Y-88643754D01*
X210700000Y-88635000D01*
X206925000Y-88635000D01*
X206925000Y-84880000D01*
X212655000Y-84880000D01*
X212655000Y-90938829D01*
G04 #@! TO.N,VSYS*
G36*
X229065000Y-93895000D02*
X227515000Y-93895000D01*
X227515000Y-92550000D01*
X227506246Y-92505991D01*
X227481317Y-92468683D01*
X227444009Y-92443754D01*
X227400000Y-92435000D01*
X226511171Y-92435000D01*
X226511171Y-91365000D01*
X229065000Y-91365000D01*
X229065000Y-93895000D01*
X229065000Y-93895000D01*
G37*
X229065000Y-93895000D02*
X227515000Y-93895000D01*
X227515000Y-92550000D01*
X227506246Y-92505991D01*
X227481317Y-92468683D01*
X227444009Y-92443754D01*
X227400000Y-92435000D01*
X226511171Y-92435000D01*
X226511171Y-91365000D01*
X229065000Y-91365000D01*
X229065000Y-93895000D01*
G04 #@! TO.N,Net-(L4-Pad2)*
G36*
X224068829Y-91331463D02*
X224068829Y-91435000D01*
X218815000Y-91435000D01*
X218815000Y-90455000D01*
X223192366Y-90455000D01*
X224068829Y-91331463D01*
X224068829Y-91331463D01*
G37*
X224068829Y-91331463D02*
X224068829Y-91435000D01*
X218815000Y-91435000D01*
X218815000Y-90455000D01*
X223192366Y-90455000D01*
X224068829Y-91331463D01*
G04 #@! TO.N,1v8*
G36*
X224575000Y-90928829D02*
X224505000Y-90928829D01*
X224505000Y-90730000D01*
X224496246Y-90685991D01*
X224471317Y-90648683D01*
X222715000Y-88892366D01*
X222715000Y-88730000D01*
X222706246Y-88685991D01*
X222681317Y-88648683D01*
X222644009Y-88623754D01*
X222600000Y-88615000D01*
X222437634Y-88615000D01*
X222431317Y-88608683D01*
X222394009Y-88583754D01*
X222350000Y-88575000D01*
X218815000Y-88575000D01*
X218815000Y-84880000D01*
X224575000Y-84880000D01*
X224575000Y-90928829D01*
X224575000Y-90928829D01*
G37*
X224575000Y-90928829D02*
X224505000Y-90928829D01*
X224505000Y-90730000D01*
X224496246Y-90685991D01*
X224471317Y-90648683D01*
X222715000Y-88892366D01*
X222715000Y-88730000D01*
X222706246Y-88685991D01*
X222681317Y-88648683D01*
X222644009Y-88623754D01*
X222600000Y-88615000D01*
X222437634Y-88615000D01*
X222431317Y-88608683D01*
X222394009Y-88583754D01*
X222350000Y-88575000D01*
X218815000Y-88575000D01*
X218815000Y-84880000D01*
X224575000Y-84880000D01*
X224575000Y-90928829D01*
G04 #@! TO.N,3v3*
G36*
X220355000Y-111150000D02*
X220363754Y-111194009D01*
X220388683Y-111231317D01*
X222345000Y-113187634D01*
X222345000Y-113290000D01*
X222353754Y-113334009D01*
X222378683Y-113371317D01*
X222415991Y-113396246D01*
X222460000Y-113405000D01*
X226245000Y-113405000D01*
X226245000Y-116955000D01*
X220285000Y-116955000D01*
X220285000Y-111011171D01*
X220355000Y-111011171D01*
X220355000Y-111150000D01*
X220355000Y-111150000D01*
G37*
X220355000Y-111150000D02*
X220363754Y-111194009D01*
X220388683Y-111231317D01*
X222345000Y-113187634D01*
X222345000Y-113290000D01*
X222353754Y-113334009D01*
X222378683Y-113371317D01*
X222415991Y-113396246D01*
X222460000Y-113405000D01*
X226245000Y-113405000D01*
X226245000Y-116955000D01*
X220285000Y-116955000D01*
X220285000Y-111011171D01*
X220355000Y-111011171D01*
X220355000Y-111150000D01*
G04 #@! TO.N,Net-(L3-Pad2)*
G36*
X226245000Y-111575000D02*
X221847634Y-111575000D01*
X220791171Y-110518537D01*
X220791171Y-110505000D01*
X226245000Y-110505000D01*
X226245000Y-111575000D01*
X226245000Y-111575000D01*
G37*
X226245000Y-111575000D02*
X221847634Y-111575000D01*
X220791171Y-110518537D01*
X220791171Y-110505000D01*
X226245000Y-110505000D01*
X226245000Y-111575000D01*
G04 #@! TO.N,Net-(L1-Pad2)*
G36*
X223425000Y-105005000D02*
X222405000Y-105005000D01*
X222405000Y-100097634D01*
X222797634Y-99705000D01*
X223425000Y-99705000D01*
X223425000Y-105005000D01*
X223425000Y-105005000D01*
G37*
X223425000Y-105005000D02*
X222405000Y-105005000D01*
X222405000Y-100097634D01*
X222797634Y-99705000D01*
X223425000Y-99705000D01*
X223425000Y-105005000D01*
G04 #@! TO.N,5v*
G36*
X224425000Y-100690000D02*
X224433754Y-100734009D01*
X224458683Y-100771317D01*
X224495991Y-100796246D01*
X224540000Y-100805000D01*
X231145000Y-100805000D01*
X231145000Y-102225000D01*
X223875000Y-102225000D01*
X223875000Y-99705000D01*
X224425000Y-99705000D01*
X224425000Y-100690000D01*
X224425000Y-100690000D01*
G37*
X224425000Y-100690000D02*
X224433754Y-100734009D01*
X224458683Y-100771317D01*
X224495991Y-100796246D01*
X224540000Y-100805000D01*
X231145000Y-100805000D01*
X231145000Y-102225000D01*
X223875000Y-102225000D01*
X223875000Y-99705000D01*
X224425000Y-99705000D01*
X224425000Y-100690000D01*
G04 #@! TO.N,GND*
G36*
X225895000Y-102661171D02*
X227145000Y-102661171D01*
X227176023Y-102655000D01*
X227563977Y-102655000D01*
X227595000Y-102661171D01*
X228845000Y-102661171D01*
X228876023Y-102655000D01*
X229678704Y-102655000D01*
X229760000Y-102671171D01*
X231180000Y-102671171D01*
X231180000Y-117000000D01*
X226675000Y-117000000D01*
X226675000Y-114938539D01*
X227995000Y-114938539D01*
X227995000Y-115501461D01*
X228210421Y-116021533D01*
X228608467Y-116419579D01*
X229128539Y-116635000D01*
X229691461Y-116635000D01*
X230211533Y-116419579D01*
X230609579Y-116021533D01*
X230825000Y-115501461D01*
X230825000Y-114938539D01*
X230609579Y-114418467D01*
X230211533Y-114020421D01*
X229691461Y-113805000D01*
X229128539Y-113805000D01*
X228608467Y-114020421D01*
X228210421Y-114418467D01*
X227995000Y-114938539D01*
X226675000Y-114938539D01*
X226675000Y-114521023D01*
X226681171Y-114490000D01*
X226681171Y-113309250D01*
X226685000Y-113290000D01*
X226685000Y-111690000D01*
X226681171Y-111670750D01*
X226681171Y-110490000D01*
X226675000Y-110458977D01*
X226675000Y-110390000D01*
X226651022Y-110269455D01*
X226582739Y-110167261D01*
X226480545Y-110098978D01*
X226360000Y-110075000D01*
X222305469Y-110075000D01*
X222338370Y-110061372D01*
X222511372Y-109888370D01*
X222605000Y-109662331D01*
X222605000Y-109494263D01*
X222690000Y-109511171D01*
X223590000Y-109511171D01*
X223712907Y-109486723D01*
X223817102Y-109417102D01*
X223841893Y-109380000D01*
X224038107Y-109380000D01*
X224062898Y-109417102D01*
X224167093Y-109486723D01*
X224290000Y-109511171D01*
X225190000Y-109511171D01*
X225312907Y-109486723D01*
X225417102Y-109417102D01*
X225486723Y-109312907D01*
X225511171Y-109190000D01*
X225511171Y-108690000D01*
X225486723Y-108567093D01*
X225417102Y-108462898D01*
X225312907Y-108393277D01*
X225190000Y-108368829D01*
X224290000Y-108368829D01*
X224167093Y-108393277D01*
X224062898Y-108462898D01*
X224038107Y-108500000D01*
X223841893Y-108500000D01*
X223817102Y-108462898D01*
X223712907Y-108393277D01*
X223590000Y-108368829D01*
X223191083Y-108368829D01*
X222856771Y-108034518D01*
X222832222Y-107997778D01*
X222686679Y-107900529D01*
X222558336Y-107875000D01*
X222558331Y-107875000D01*
X222515000Y-107866381D01*
X222471669Y-107875000D01*
X220735592Y-107875000D01*
X220655246Y-107754754D01*
X220501434Y-107651980D01*
X220320000Y-107615891D01*
X220138567Y-107651980D01*
X219984755Y-107754754D01*
X219881981Y-107908566D01*
X219855001Y-108044205D01*
X219855000Y-108585794D01*
X219881980Y-108721433D01*
X219984754Y-108875246D01*
X220138566Y-108978020D01*
X220320000Y-109014109D01*
X220352320Y-109007680D01*
X220345891Y-109040000D01*
X220381980Y-109221434D01*
X220427794Y-109290000D01*
X220381980Y-109358566D01*
X220345891Y-109540000D01*
X220381980Y-109721434D01*
X220427794Y-109790000D01*
X220381980Y-109858566D01*
X220345891Y-110040000D01*
X220381980Y-110221434D01*
X220396522Y-110243198D01*
X220378978Y-110269455D01*
X220355000Y-110390000D01*
X220355000Y-110494205D01*
X220345891Y-110540000D01*
X220352320Y-110572320D01*
X220320000Y-110565891D01*
X220274206Y-110575000D01*
X220170000Y-110575000D01*
X220049455Y-110598978D01*
X219947261Y-110667261D01*
X219878978Y-110769455D01*
X219855000Y-110890000D01*
X219855000Y-112553977D01*
X219848829Y-112585000D01*
X219848829Y-113835000D01*
X219855000Y-113866023D01*
X219855000Y-114253977D01*
X219848829Y-114285000D01*
X219848829Y-115535000D01*
X219855000Y-115566023D01*
X219855000Y-117000000D01*
X212995000Y-117000000D01*
X212995000Y-114260000D01*
X212986246Y-114215991D01*
X212961317Y-114178683D01*
X212924009Y-114153754D01*
X212880000Y-114145000D01*
X209865000Y-114145000D01*
X209865000Y-107755000D01*
X215295000Y-107755000D01*
X215295000Y-109704113D01*
X215293829Y-109710000D01*
X215293829Y-110710000D01*
X215318277Y-110832907D01*
X215387898Y-110937102D01*
X215492093Y-111006723D01*
X215615000Y-111031171D01*
X216865000Y-111031171D01*
X216987907Y-111006723D01*
X216990486Y-111005000D01*
X217741100Y-111005000D01*
X217611630Y-111058628D01*
X217438628Y-111231630D01*
X217345000Y-111457669D01*
X217345000Y-111702331D01*
X217438628Y-111928370D01*
X217611630Y-112101372D01*
X217837669Y-112195000D01*
X218082331Y-112195000D01*
X218308370Y-112101372D01*
X218481372Y-111928370D01*
X218515561Y-111845830D01*
X218638566Y-111928020D01*
X218820000Y-111964109D01*
X219001433Y-111928020D01*
X219155246Y-111825246D01*
X219258020Y-111671434D01*
X219285000Y-111535795D01*
X219285000Y-110994205D01*
X219258020Y-110858566D01*
X219155246Y-110704754D01*
X219001434Y-110601980D01*
X218820000Y-110565891D01*
X218787680Y-110572320D01*
X218794109Y-110540000D01*
X218785000Y-110494205D01*
X218785000Y-110085795D01*
X218794109Y-110040000D01*
X218785000Y-109994205D01*
X218785000Y-109585795D01*
X218794109Y-109540000D01*
X218785000Y-109494205D01*
X218785000Y-109390000D01*
X218761022Y-109269455D01*
X218743478Y-109243198D01*
X218758020Y-109221434D01*
X218794109Y-109040000D01*
X218787680Y-109007680D01*
X218820000Y-109014109D01*
X219001433Y-108978020D01*
X219070000Y-108932205D01*
X219138566Y-108978020D01*
X219320000Y-109014109D01*
X219501433Y-108978020D01*
X219655246Y-108875246D01*
X219758020Y-108721434D01*
X219785000Y-108585795D01*
X219785000Y-108044205D01*
X219760000Y-107918520D01*
X219760000Y-107286171D01*
X220220000Y-107286171D01*
X220342907Y-107261723D01*
X220447102Y-107192102D01*
X220448506Y-107190000D01*
X223968829Y-107190000D01*
X223968829Y-107690000D01*
X223993277Y-107812907D01*
X224062898Y-107917102D01*
X224167093Y-107986723D01*
X224290000Y-108011171D01*
X225190000Y-108011171D01*
X225312907Y-107986723D01*
X225417102Y-107917102D01*
X225486723Y-107812907D01*
X225511171Y-107690000D01*
X225511171Y-107190000D01*
X225486723Y-107067093D01*
X225417102Y-106962898D01*
X225322859Y-106899927D01*
X225355000Y-106822331D01*
X225355000Y-106577669D01*
X225261372Y-106351630D01*
X225088370Y-106178628D01*
X224862331Y-106085000D01*
X224617669Y-106085000D01*
X224391630Y-106178628D01*
X224218628Y-106351630D01*
X224125000Y-106577669D01*
X224125000Y-106822331D01*
X224157141Y-106899927D01*
X224062898Y-106962898D01*
X223993277Y-107067093D01*
X223968829Y-107190000D01*
X220448506Y-107190000D01*
X220516723Y-107087907D01*
X220541171Y-106965000D01*
X220541171Y-106215000D01*
X220516723Y-106092093D01*
X220447102Y-105987898D01*
X220342907Y-105918277D01*
X220220000Y-105893829D01*
X219420000Y-105893829D01*
X219297093Y-105918277D01*
X219192898Y-105987898D01*
X219123277Y-106092093D01*
X219098829Y-106215000D01*
X219098829Y-106688918D01*
X219070000Y-106717746D01*
X219041171Y-106688917D01*
X219041171Y-106215000D01*
X219016723Y-106092093D01*
X218947102Y-105987898D01*
X218842907Y-105918277D01*
X218720000Y-105893829D01*
X217920000Y-105893829D01*
X217797093Y-105918277D01*
X217692898Y-105987898D01*
X217623277Y-106092093D01*
X217598829Y-106215000D01*
X217598829Y-106965000D01*
X217623277Y-107087907D01*
X217692898Y-107192102D01*
X217797093Y-107261723D01*
X217920000Y-107286171D01*
X218380001Y-107286171D01*
X218380000Y-107918524D01*
X218355001Y-108044205D01*
X218355000Y-108575000D01*
X217824205Y-108575000D01*
X217688566Y-108601980D01*
X217534754Y-108704754D01*
X217431980Y-108858566D01*
X217425000Y-108893657D01*
X217425000Y-105465000D01*
X220690000Y-105465000D01*
X220790546Y-105445000D01*
X222290000Y-105445000D01*
X222309250Y-105441171D01*
X223490000Y-105441171D01*
X223521023Y-105435000D01*
X223540000Y-105435000D01*
X223660545Y-105411022D01*
X223762739Y-105342739D01*
X223831022Y-105240545D01*
X223855000Y-105120000D01*
X223855000Y-102655000D01*
X225863977Y-102655000D01*
X225895000Y-102661171D01*
X225895000Y-102661171D01*
G37*
X225895000Y-102661171D02*
X227145000Y-102661171D01*
X227176023Y-102655000D01*
X227563977Y-102655000D01*
X227595000Y-102661171D01*
X228845000Y-102661171D01*
X228876023Y-102655000D01*
X229678704Y-102655000D01*
X229760000Y-102671171D01*
X231180000Y-102671171D01*
X231180000Y-117000000D01*
X226675000Y-117000000D01*
X226675000Y-114938539D01*
X227995000Y-114938539D01*
X227995000Y-115501461D01*
X228210421Y-116021533D01*
X228608467Y-116419579D01*
X229128539Y-116635000D01*
X229691461Y-116635000D01*
X230211533Y-116419579D01*
X230609579Y-116021533D01*
X230825000Y-115501461D01*
X230825000Y-114938539D01*
X230609579Y-114418467D01*
X230211533Y-114020421D01*
X229691461Y-113805000D01*
X229128539Y-113805000D01*
X228608467Y-114020421D01*
X228210421Y-114418467D01*
X227995000Y-114938539D01*
X226675000Y-114938539D01*
X226675000Y-114521023D01*
X226681171Y-114490000D01*
X226681171Y-113309250D01*
X226685000Y-113290000D01*
X226685000Y-111690000D01*
X226681171Y-111670750D01*
X226681171Y-110490000D01*
X226675000Y-110458977D01*
X226675000Y-110390000D01*
X226651022Y-110269455D01*
X226582739Y-110167261D01*
X226480545Y-110098978D01*
X226360000Y-110075000D01*
X222305469Y-110075000D01*
X222338370Y-110061372D01*
X222511372Y-109888370D01*
X222605000Y-109662331D01*
X222605000Y-109494263D01*
X222690000Y-109511171D01*
X223590000Y-109511171D01*
X223712907Y-109486723D01*
X223817102Y-109417102D01*
X223841893Y-109380000D01*
X224038107Y-109380000D01*
X224062898Y-109417102D01*
X224167093Y-109486723D01*
X224290000Y-109511171D01*
X225190000Y-109511171D01*
X225312907Y-109486723D01*
X225417102Y-109417102D01*
X225486723Y-109312907D01*
X225511171Y-109190000D01*
X225511171Y-108690000D01*
X225486723Y-108567093D01*
X225417102Y-108462898D01*
X225312907Y-108393277D01*
X225190000Y-108368829D01*
X224290000Y-108368829D01*
X224167093Y-108393277D01*
X224062898Y-108462898D01*
X224038107Y-108500000D01*
X223841893Y-108500000D01*
X223817102Y-108462898D01*
X223712907Y-108393277D01*
X223590000Y-108368829D01*
X223191083Y-108368829D01*
X222856771Y-108034518D01*
X222832222Y-107997778D01*
X222686679Y-107900529D01*
X222558336Y-107875000D01*
X222558331Y-107875000D01*
X222515000Y-107866381D01*
X222471669Y-107875000D01*
X220735592Y-107875000D01*
X220655246Y-107754754D01*
X220501434Y-107651980D01*
X220320000Y-107615891D01*
X220138567Y-107651980D01*
X219984755Y-107754754D01*
X219881981Y-107908566D01*
X219855001Y-108044205D01*
X219855000Y-108585794D01*
X219881980Y-108721433D01*
X219984754Y-108875246D01*
X220138566Y-108978020D01*
X220320000Y-109014109D01*
X220352320Y-109007680D01*
X220345891Y-109040000D01*
X220381980Y-109221434D01*
X220427794Y-109290000D01*
X220381980Y-109358566D01*
X220345891Y-109540000D01*
X220381980Y-109721434D01*
X220427794Y-109790000D01*
X220381980Y-109858566D01*
X220345891Y-110040000D01*
X220381980Y-110221434D01*
X220396522Y-110243198D01*
X220378978Y-110269455D01*
X220355000Y-110390000D01*
X220355000Y-110494205D01*
X220345891Y-110540000D01*
X220352320Y-110572320D01*
X220320000Y-110565891D01*
X220274206Y-110575000D01*
X220170000Y-110575000D01*
X220049455Y-110598978D01*
X219947261Y-110667261D01*
X219878978Y-110769455D01*
X219855000Y-110890000D01*
X219855000Y-112553977D01*
X219848829Y-112585000D01*
X219848829Y-113835000D01*
X219855000Y-113866023D01*
X219855000Y-114253977D01*
X219848829Y-114285000D01*
X219848829Y-115535000D01*
X219855000Y-115566023D01*
X219855000Y-117000000D01*
X212995000Y-117000000D01*
X212995000Y-114260000D01*
X212986246Y-114215991D01*
X212961317Y-114178683D01*
X212924009Y-114153754D01*
X212880000Y-114145000D01*
X209865000Y-114145000D01*
X209865000Y-107755000D01*
X215295000Y-107755000D01*
X215295000Y-109704113D01*
X215293829Y-109710000D01*
X215293829Y-110710000D01*
X215318277Y-110832907D01*
X215387898Y-110937102D01*
X215492093Y-111006723D01*
X215615000Y-111031171D01*
X216865000Y-111031171D01*
X216987907Y-111006723D01*
X216990486Y-111005000D01*
X217741100Y-111005000D01*
X217611630Y-111058628D01*
X217438628Y-111231630D01*
X217345000Y-111457669D01*
X217345000Y-111702331D01*
X217438628Y-111928370D01*
X217611630Y-112101372D01*
X217837669Y-112195000D01*
X218082331Y-112195000D01*
X218308370Y-112101372D01*
X218481372Y-111928370D01*
X218515561Y-111845830D01*
X218638566Y-111928020D01*
X218820000Y-111964109D01*
X219001433Y-111928020D01*
X219155246Y-111825246D01*
X219258020Y-111671434D01*
X219285000Y-111535795D01*
X219285000Y-110994205D01*
X219258020Y-110858566D01*
X219155246Y-110704754D01*
X219001434Y-110601980D01*
X218820000Y-110565891D01*
X218787680Y-110572320D01*
X218794109Y-110540000D01*
X218785000Y-110494205D01*
X218785000Y-110085795D01*
X218794109Y-110040000D01*
X218785000Y-109994205D01*
X218785000Y-109585795D01*
X218794109Y-109540000D01*
X218785000Y-109494205D01*
X218785000Y-109390000D01*
X218761022Y-109269455D01*
X218743478Y-109243198D01*
X218758020Y-109221434D01*
X218794109Y-109040000D01*
X218787680Y-109007680D01*
X218820000Y-109014109D01*
X219001433Y-108978020D01*
X219070000Y-108932205D01*
X219138566Y-108978020D01*
X219320000Y-109014109D01*
X219501433Y-108978020D01*
X219655246Y-108875246D01*
X219758020Y-108721434D01*
X219785000Y-108585795D01*
X219785000Y-108044205D01*
X219760000Y-107918520D01*
X219760000Y-107286171D01*
X220220000Y-107286171D01*
X220342907Y-107261723D01*
X220447102Y-107192102D01*
X220448506Y-107190000D01*
X223968829Y-107190000D01*
X223968829Y-107690000D01*
X223993277Y-107812907D01*
X224062898Y-107917102D01*
X224167093Y-107986723D01*
X224290000Y-108011171D01*
X225190000Y-108011171D01*
X225312907Y-107986723D01*
X225417102Y-107917102D01*
X225486723Y-107812907D01*
X225511171Y-107690000D01*
X225511171Y-107190000D01*
X225486723Y-107067093D01*
X225417102Y-106962898D01*
X225322859Y-106899927D01*
X225355000Y-106822331D01*
X225355000Y-106577669D01*
X225261372Y-106351630D01*
X225088370Y-106178628D01*
X224862331Y-106085000D01*
X224617669Y-106085000D01*
X224391630Y-106178628D01*
X224218628Y-106351630D01*
X224125000Y-106577669D01*
X224125000Y-106822331D01*
X224157141Y-106899927D01*
X224062898Y-106962898D01*
X223993277Y-107067093D01*
X223968829Y-107190000D01*
X220448506Y-107190000D01*
X220516723Y-107087907D01*
X220541171Y-106965000D01*
X220541171Y-106215000D01*
X220516723Y-106092093D01*
X220447102Y-105987898D01*
X220342907Y-105918277D01*
X220220000Y-105893829D01*
X219420000Y-105893829D01*
X219297093Y-105918277D01*
X219192898Y-105987898D01*
X219123277Y-106092093D01*
X219098829Y-106215000D01*
X219098829Y-106688918D01*
X219070000Y-106717746D01*
X219041171Y-106688917D01*
X219041171Y-106215000D01*
X219016723Y-106092093D01*
X218947102Y-105987898D01*
X218842907Y-105918277D01*
X218720000Y-105893829D01*
X217920000Y-105893829D01*
X217797093Y-105918277D01*
X217692898Y-105987898D01*
X217623277Y-106092093D01*
X217598829Y-106215000D01*
X217598829Y-106965000D01*
X217623277Y-107087907D01*
X217692898Y-107192102D01*
X217797093Y-107261723D01*
X217920000Y-107286171D01*
X218380001Y-107286171D01*
X218380000Y-107918524D01*
X218355001Y-108044205D01*
X218355000Y-108575000D01*
X217824205Y-108575000D01*
X217688566Y-108601980D01*
X217534754Y-108704754D01*
X217431980Y-108858566D01*
X217425000Y-108893657D01*
X217425000Y-105465000D01*
X220690000Y-105465000D01*
X220790546Y-105445000D01*
X222290000Y-105445000D01*
X222309250Y-105441171D01*
X223490000Y-105441171D01*
X223521023Y-105435000D01*
X223540000Y-105435000D01*
X223660545Y-105411022D01*
X223762739Y-105342739D01*
X223831022Y-105240545D01*
X223855000Y-105120000D01*
X223855000Y-102655000D01*
X225863977Y-102655000D01*
X225895000Y-102661171D01*
G36*
X207095000Y-109430478D02*
X207095000Y-115568977D01*
X207088829Y-115600000D01*
X207088829Y-117000000D01*
X197199896Y-117000000D01*
X197315000Y-116722114D01*
X197315000Y-116397886D01*
X197190924Y-116098339D01*
X196961661Y-115869076D01*
X196662114Y-115745000D01*
X196447253Y-115745000D01*
X196445000Y-115742747D01*
X196445000Y-115627669D01*
X196351372Y-115401630D01*
X196178370Y-115228628D01*
X195952331Y-115135000D01*
X195707669Y-115135000D01*
X195481630Y-115228628D01*
X195370000Y-115340258D01*
X195370000Y-114492253D01*
X195815001Y-114047253D01*
X195815001Y-114391665D01*
X195806381Y-114435000D01*
X195840530Y-114606679D01*
X195913230Y-114715483D01*
X195913232Y-114715485D01*
X195937779Y-114752222D01*
X195974516Y-114776769D01*
X196588231Y-115390485D01*
X196612778Y-115427222D01*
X196649515Y-115451769D01*
X196649516Y-115451770D01*
X196687415Y-115477093D01*
X196758321Y-115524471D01*
X196886664Y-115550000D01*
X196886668Y-115550000D01*
X196929999Y-115558619D01*
X196973330Y-115550000D01*
X199428829Y-115550000D01*
X199428829Y-116160000D01*
X199453277Y-116282907D01*
X199522898Y-116387102D01*
X199627093Y-116456723D01*
X199750000Y-116481171D01*
X200750000Y-116481171D01*
X200872907Y-116456723D01*
X200977102Y-116387102D01*
X201027760Y-116311287D01*
X201202003Y-116427712D01*
X201439734Y-116475000D01*
X201600266Y-116475000D01*
X201837997Y-116427712D01*
X202107582Y-116247582D01*
X202287712Y-115977997D01*
X202350966Y-115660000D01*
X203229034Y-115660000D01*
X203292288Y-115977997D01*
X203472418Y-116247582D01*
X203742003Y-116427712D01*
X203979734Y-116475000D01*
X204140266Y-116475000D01*
X204377997Y-116427712D01*
X204647582Y-116247582D01*
X204695000Y-116176616D01*
X204742418Y-116247582D01*
X205012003Y-116427712D01*
X205249734Y-116475000D01*
X205410266Y-116475000D01*
X205647997Y-116427712D01*
X205917582Y-116247582D01*
X206097712Y-115977997D01*
X206160966Y-115660000D01*
X206097712Y-115342003D01*
X205917582Y-115072418D01*
X205647997Y-114892288D01*
X205410266Y-114845000D01*
X205249734Y-114845000D01*
X205012003Y-114892288D01*
X204742418Y-115072418D01*
X204695000Y-115143384D01*
X204647582Y-115072418D01*
X204377997Y-114892288D01*
X204140266Y-114845000D01*
X203979734Y-114845000D01*
X203742003Y-114892288D01*
X203472418Y-115072418D01*
X203292288Y-115342003D01*
X203229034Y-115660000D01*
X202350966Y-115660000D01*
X202287712Y-115342003D01*
X202107582Y-115072418D01*
X201837997Y-114892288D01*
X201600266Y-114845000D01*
X201439734Y-114845000D01*
X201202003Y-114892288D01*
X201027760Y-115008713D01*
X200977102Y-114932898D01*
X200872907Y-114863277D01*
X200750000Y-114838829D01*
X200051082Y-114838829D01*
X200041771Y-114829518D01*
X200017222Y-114792778D01*
X199871679Y-114695529D01*
X199743336Y-114670000D01*
X199743331Y-114670000D01*
X199700000Y-114661381D01*
X199656669Y-114670000D01*
X198899236Y-114670000D01*
X198911171Y-114610000D01*
X198911171Y-114110000D01*
X198886723Y-113987093D01*
X198817102Y-113882898D01*
X198712907Y-113813277D01*
X198590000Y-113788829D01*
X197690000Y-113788829D01*
X197567093Y-113813277D01*
X197488227Y-113865974D01*
X197345000Y-113722747D01*
X197345000Y-113414742D01*
X197441630Y-113511372D01*
X197667669Y-113605000D01*
X197912331Y-113605000D01*
X198138370Y-113511372D01*
X198311372Y-113338370D01*
X198405000Y-113112331D01*
X198405000Y-112867669D01*
X198311372Y-112641630D01*
X198138370Y-112468628D01*
X197912331Y-112375000D01*
X198203257Y-112375000D01*
X198211172Y-112373426D01*
X198535000Y-112697254D01*
X198535000Y-112812331D01*
X198628628Y-113038370D01*
X198801630Y-113211372D01*
X199027669Y-113305000D01*
X199272331Y-113305000D01*
X199498370Y-113211372D01*
X199671372Y-113038370D01*
X199765000Y-112812331D01*
X199765000Y-112567669D01*
X199671372Y-112341630D01*
X199544742Y-112215000D01*
X199681372Y-112078370D01*
X199775000Y-111852331D01*
X199775000Y-111607669D01*
X199681372Y-111381630D01*
X199544742Y-111245000D01*
X199620000Y-111169742D01*
X199681630Y-111231372D01*
X199838829Y-111296486D01*
X199838829Y-111630000D01*
X199863277Y-111752907D01*
X199932898Y-111857102D01*
X199967167Y-111880000D01*
X199932898Y-111902898D01*
X199863277Y-112007093D01*
X199838829Y-112130000D01*
X199838829Y-112630000D01*
X199863277Y-112752907D01*
X199932898Y-112857102D01*
X199984735Y-112891739D01*
X199945000Y-112987669D01*
X199945000Y-113232331D01*
X200038628Y-113458370D01*
X200211630Y-113631372D01*
X200437669Y-113725000D01*
X200682331Y-113725000D01*
X200908370Y-113631372D01*
X201081372Y-113458370D01*
X201175000Y-113232331D01*
X201175000Y-112987669D01*
X201135265Y-112891739D01*
X201187102Y-112857102D01*
X201256723Y-112752907D01*
X201269236Y-112690000D01*
X205408829Y-112690000D01*
X205408829Y-113190000D01*
X205433277Y-113312907D01*
X205502898Y-113417102D01*
X205607093Y-113486723D01*
X205608419Y-113486987D01*
X205575000Y-113567669D01*
X205575000Y-113812331D01*
X205668628Y-114038370D01*
X205841630Y-114211372D01*
X206067669Y-114305000D01*
X206312331Y-114305000D01*
X206538370Y-114211372D01*
X206711372Y-114038370D01*
X206805000Y-113812331D01*
X206805000Y-113567669D01*
X206767447Y-113477008D01*
X206857102Y-113417102D01*
X206926723Y-113312907D01*
X206951171Y-113190000D01*
X206951171Y-112690000D01*
X206926723Y-112567093D01*
X206857102Y-112462898D01*
X206752907Y-112393277D01*
X206630000Y-112368829D01*
X205730000Y-112368829D01*
X205607093Y-112393277D01*
X205502898Y-112462898D01*
X205433277Y-112567093D01*
X205408829Y-112690000D01*
X201269236Y-112690000D01*
X201281171Y-112630000D01*
X201281171Y-112130000D01*
X201256723Y-112007093D01*
X201219357Y-111951171D01*
X201460000Y-111951171D01*
X201560000Y-111931280D01*
X201660000Y-111951171D01*
X201960000Y-111951171D01*
X202082907Y-111926723D01*
X202187102Y-111857102D01*
X202256723Y-111752907D01*
X202281171Y-111630000D01*
X202281171Y-111281082D01*
X202417911Y-111144343D01*
X202408829Y-111190000D01*
X202408829Y-111690000D01*
X202433277Y-111812907D01*
X202502898Y-111917102D01*
X202607093Y-111986723D01*
X202730000Y-112011171D01*
X203630000Y-112011171D01*
X203752907Y-111986723D01*
X203857102Y-111917102D01*
X203926723Y-111812907D01*
X203930000Y-111796433D01*
X203933277Y-111812907D01*
X204002898Y-111917102D01*
X204107093Y-111986723D01*
X204230000Y-112011171D01*
X205130000Y-112011171D01*
X205252907Y-111986723D01*
X205357102Y-111917102D01*
X205381893Y-111880000D01*
X205478107Y-111880000D01*
X205502898Y-111917102D01*
X205607093Y-111986723D01*
X205730000Y-112011171D01*
X206630000Y-112011171D01*
X206752907Y-111986723D01*
X206857102Y-111917102D01*
X206926723Y-111812907D01*
X206951171Y-111690000D01*
X206951171Y-111190000D01*
X206926723Y-111067093D01*
X206857102Y-110962898D01*
X206752907Y-110893277D01*
X206630000Y-110868829D01*
X205730000Y-110868829D01*
X205607093Y-110893277D01*
X205502898Y-110962898D01*
X205478107Y-111000000D01*
X205381893Y-111000000D01*
X205357102Y-110962898D01*
X205252907Y-110893277D01*
X205230000Y-110888720D01*
X205230000Y-109736171D01*
X205440000Y-109736171D01*
X205562907Y-109711723D01*
X205667102Y-109642102D01*
X205736723Y-109537907D01*
X205761171Y-109415000D01*
X205761171Y-108761171D01*
X206415000Y-108761171D01*
X206423919Y-108759397D01*
X207095000Y-109430478D01*
X207095000Y-109430478D01*
G37*
X207095000Y-109430478D02*
X207095000Y-115568977D01*
X207088829Y-115600000D01*
X207088829Y-117000000D01*
X197199896Y-117000000D01*
X197315000Y-116722114D01*
X197315000Y-116397886D01*
X197190924Y-116098339D01*
X196961661Y-115869076D01*
X196662114Y-115745000D01*
X196447253Y-115745000D01*
X196445000Y-115742747D01*
X196445000Y-115627669D01*
X196351372Y-115401630D01*
X196178370Y-115228628D01*
X195952331Y-115135000D01*
X195707669Y-115135000D01*
X195481630Y-115228628D01*
X195370000Y-115340258D01*
X195370000Y-114492253D01*
X195815001Y-114047253D01*
X195815001Y-114391665D01*
X195806381Y-114435000D01*
X195840530Y-114606679D01*
X195913230Y-114715483D01*
X195913232Y-114715485D01*
X195937779Y-114752222D01*
X195974516Y-114776769D01*
X196588231Y-115390485D01*
X196612778Y-115427222D01*
X196649515Y-115451769D01*
X196649516Y-115451770D01*
X196687415Y-115477093D01*
X196758321Y-115524471D01*
X196886664Y-115550000D01*
X196886668Y-115550000D01*
X196929999Y-115558619D01*
X196973330Y-115550000D01*
X199428829Y-115550000D01*
X199428829Y-116160000D01*
X199453277Y-116282907D01*
X199522898Y-116387102D01*
X199627093Y-116456723D01*
X199750000Y-116481171D01*
X200750000Y-116481171D01*
X200872907Y-116456723D01*
X200977102Y-116387102D01*
X201027760Y-116311287D01*
X201202003Y-116427712D01*
X201439734Y-116475000D01*
X201600266Y-116475000D01*
X201837997Y-116427712D01*
X202107582Y-116247582D01*
X202287712Y-115977997D01*
X202350966Y-115660000D01*
X203229034Y-115660000D01*
X203292288Y-115977997D01*
X203472418Y-116247582D01*
X203742003Y-116427712D01*
X203979734Y-116475000D01*
X204140266Y-116475000D01*
X204377997Y-116427712D01*
X204647582Y-116247582D01*
X204695000Y-116176616D01*
X204742418Y-116247582D01*
X205012003Y-116427712D01*
X205249734Y-116475000D01*
X205410266Y-116475000D01*
X205647997Y-116427712D01*
X205917582Y-116247582D01*
X206097712Y-115977997D01*
X206160966Y-115660000D01*
X206097712Y-115342003D01*
X205917582Y-115072418D01*
X205647997Y-114892288D01*
X205410266Y-114845000D01*
X205249734Y-114845000D01*
X205012003Y-114892288D01*
X204742418Y-115072418D01*
X204695000Y-115143384D01*
X204647582Y-115072418D01*
X204377997Y-114892288D01*
X204140266Y-114845000D01*
X203979734Y-114845000D01*
X203742003Y-114892288D01*
X203472418Y-115072418D01*
X203292288Y-115342003D01*
X203229034Y-115660000D01*
X202350966Y-115660000D01*
X202287712Y-115342003D01*
X202107582Y-115072418D01*
X201837997Y-114892288D01*
X201600266Y-114845000D01*
X201439734Y-114845000D01*
X201202003Y-114892288D01*
X201027760Y-115008713D01*
X200977102Y-114932898D01*
X200872907Y-114863277D01*
X200750000Y-114838829D01*
X200051082Y-114838829D01*
X200041771Y-114829518D01*
X200017222Y-114792778D01*
X199871679Y-114695529D01*
X199743336Y-114670000D01*
X199743331Y-114670000D01*
X199700000Y-114661381D01*
X199656669Y-114670000D01*
X198899236Y-114670000D01*
X198911171Y-114610000D01*
X198911171Y-114110000D01*
X198886723Y-113987093D01*
X198817102Y-113882898D01*
X198712907Y-113813277D01*
X198590000Y-113788829D01*
X197690000Y-113788829D01*
X197567093Y-113813277D01*
X197488227Y-113865974D01*
X197345000Y-113722747D01*
X197345000Y-113414742D01*
X197441630Y-113511372D01*
X197667669Y-113605000D01*
X197912331Y-113605000D01*
X198138370Y-113511372D01*
X198311372Y-113338370D01*
X198405000Y-113112331D01*
X198405000Y-112867669D01*
X198311372Y-112641630D01*
X198138370Y-112468628D01*
X197912331Y-112375000D01*
X198203257Y-112375000D01*
X198211172Y-112373426D01*
X198535000Y-112697254D01*
X198535000Y-112812331D01*
X198628628Y-113038370D01*
X198801630Y-113211372D01*
X199027669Y-113305000D01*
X199272331Y-113305000D01*
X199498370Y-113211372D01*
X199671372Y-113038370D01*
X199765000Y-112812331D01*
X199765000Y-112567669D01*
X199671372Y-112341630D01*
X199544742Y-112215000D01*
X199681372Y-112078370D01*
X199775000Y-111852331D01*
X199775000Y-111607669D01*
X199681372Y-111381630D01*
X199544742Y-111245000D01*
X199620000Y-111169742D01*
X199681630Y-111231372D01*
X199838829Y-111296486D01*
X199838829Y-111630000D01*
X199863277Y-111752907D01*
X199932898Y-111857102D01*
X199967167Y-111880000D01*
X199932898Y-111902898D01*
X199863277Y-112007093D01*
X199838829Y-112130000D01*
X199838829Y-112630000D01*
X199863277Y-112752907D01*
X199932898Y-112857102D01*
X199984735Y-112891739D01*
X199945000Y-112987669D01*
X199945000Y-113232331D01*
X200038628Y-113458370D01*
X200211630Y-113631372D01*
X200437669Y-113725000D01*
X200682331Y-113725000D01*
X200908370Y-113631372D01*
X201081372Y-113458370D01*
X201175000Y-113232331D01*
X201175000Y-112987669D01*
X201135265Y-112891739D01*
X201187102Y-112857102D01*
X201256723Y-112752907D01*
X201269236Y-112690000D01*
X205408829Y-112690000D01*
X205408829Y-113190000D01*
X205433277Y-113312907D01*
X205502898Y-113417102D01*
X205607093Y-113486723D01*
X205608419Y-113486987D01*
X205575000Y-113567669D01*
X205575000Y-113812331D01*
X205668628Y-114038370D01*
X205841630Y-114211372D01*
X206067669Y-114305000D01*
X206312331Y-114305000D01*
X206538370Y-114211372D01*
X206711372Y-114038370D01*
X206805000Y-113812331D01*
X206805000Y-113567669D01*
X206767447Y-113477008D01*
X206857102Y-113417102D01*
X206926723Y-113312907D01*
X206951171Y-113190000D01*
X206951171Y-112690000D01*
X206926723Y-112567093D01*
X206857102Y-112462898D01*
X206752907Y-112393277D01*
X206630000Y-112368829D01*
X205730000Y-112368829D01*
X205607093Y-112393277D01*
X205502898Y-112462898D01*
X205433277Y-112567093D01*
X205408829Y-112690000D01*
X201269236Y-112690000D01*
X201281171Y-112630000D01*
X201281171Y-112130000D01*
X201256723Y-112007093D01*
X201219357Y-111951171D01*
X201460000Y-111951171D01*
X201560000Y-111931280D01*
X201660000Y-111951171D01*
X201960000Y-111951171D01*
X202082907Y-111926723D01*
X202187102Y-111857102D01*
X202256723Y-111752907D01*
X202281171Y-111630000D01*
X202281171Y-111281082D01*
X202417911Y-111144343D01*
X202408829Y-111190000D01*
X202408829Y-111690000D01*
X202433277Y-111812907D01*
X202502898Y-111917102D01*
X202607093Y-111986723D01*
X202730000Y-112011171D01*
X203630000Y-112011171D01*
X203752907Y-111986723D01*
X203857102Y-111917102D01*
X203926723Y-111812907D01*
X203930000Y-111796433D01*
X203933277Y-111812907D01*
X204002898Y-111917102D01*
X204107093Y-111986723D01*
X204230000Y-112011171D01*
X205130000Y-112011171D01*
X205252907Y-111986723D01*
X205357102Y-111917102D01*
X205381893Y-111880000D01*
X205478107Y-111880000D01*
X205502898Y-111917102D01*
X205607093Y-111986723D01*
X205730000Y-112011171D01*
X206630000Y-112011171D01*
X206752907Y-111986723D01*
X206857102Y-111917102D01*
X206926723Y-111812907D01*
X206951171Y-111690000D01*
X206951171Y-111190000D01*
X206926723Y-111067093D01*
X206857102Y-110962898D01*
X206752907Y-110893277D01*
X206630000Y-110868829D01*
X205730000Y-110868829D01*
X205607093Y-110893277D01*
X205502898Y-110962898D01*
X205478107Y-111000000D01*
X205381893Y-111000000D01*
X205357102Y-110962898D01*
X205252907Y-110893277D01*
X205230000Y-110888720D01*
X205230000Y-109736171D01*
X205440000Y-109736171D01*
X205562907Y-109711723D01*
X205667102Y-109642102D01*
X205736723Y-109537907D01*
X205761171Y-109415000D01*
X205761171Y-108761171D01*
X206415000Y-108761171D01*
X206423919Y-108759397D01*
X207095000Y-109430478D01*
G36*
X188428339Y-112840924D02*
X188727886Y-112965000D01*
X189052114Y-112965000D01*
X189073774Y-112956028D01*
X189308231Y-113190485D01*
X189332778Y-113227222D01*
X189369515Y-113251769D01*
X189478319Y-113324470D01*
X189478320Y-113324470D01*
X189478321Y-113324471D01*
X189606664Y-113350000D01*
X189606668Y-113350000D01*
X189649999Y-113358619D01*
X189693330Y-113350000D01*
X194509343Y-113350000D01*
X194601731Y-113488270D01*
X194763813Y-113596569D01*
X194955000Y-113634599D01*
X194990137Y-113627610D01*
X194649518Y-113968229D01*
X194612778Y-113992778D01*
X194515529Y-114138322D01*
X194490000Y-114266665D01*
X194490000Y-114266669D01*
X194481381Y-114310000D01*
X194490000Y-114353331D01*
X194490001Y-115477953D01*
X194351679Y-115385529D01*
X194223336Y-115360000D01*
X194223331Y-115360000D01*
X194180000Y-115351381D01*
X194136669Y-115360000D01*
X194131893Y-115360000D01*
X194107102Y-115322898D01*
X194002907Y-115253277D01*
X193880000Y-115228829D01*
X192980000Y-115228829D01*
X192857093Y-115253277D01*
X192752898Y-115322898D01*
X192683277Y-115427093D01*
X192658829Y-115550000D01*
X192658829Y-116050000D01*
X192683277Y-116172907D01*
X192752898Y-116277102D01*
X192857093Y-116346723D01*
X192980000Y-116371171D01*
X193880000Y-116371171D01*
X194002907Y-116346723D01*
X194063789Y-116306043D01*
X194123972Y-116366225D01*
X194115000Y-116387886D01*
X194115000Y-116712114D01*
X194234246Y-117000000D01*
X188380000Y-117000000D01*
X188380000Y-114958539D01*
X188735000Y-114958539D01*
X188735000Y-115521461D01*
X188950421Y-116041533D01*
X189348467Y-116439579D01*
X189868539Y-116655000D01*
X190431461Y-116655000D01*
X190951533Y-116439579D01*
X191349579Y-116041533D01*
X191565000Y-115521461D01*
X191565000Y-114958539D01*
X191349579Y-114438467D01*
X190951533Y-114040421D01*
X190431461Y-113825000D01*
X189868539Y-113825000D01*
X189348467Y-114040421D01*
X188950421Y-114438467D01*
X188735000Y-114958539D01*
X188380000Y-114958539D01*
X188380000Y-112792585D01*
X188428339Y-112840924D01*
X188428339Y-112840924D01*
G37*
X188428339Y-112840924D02*
X188727886Y-112965000D01*
X189052114Y-112965000D01*
X189073774Y-112956028D01*
X189308231Y-113190485D01*
X189332778Y-113227222D01*
X189369515Y-113251769D01*
X189478319Y-113324470D01*
X189478320Y-113324470D01*
X189478321Y-113324471D01*
X189606664Y-113350000D01*
X189606668Y-113350000D01*
X189649999Y-113358619D01*
X189693330Y-113350000D01*
X194509343Y-113350000D01*
X194601731Y-113488270D01*
X194763813Y-113596569D01*
X194955000Y-113634599D01*
X194990137Y-113627610D01*
X194649518Y-113968229D01*
X194612778Y-113992778D01*
X194515529Y-114138322D01*
X194490000Y-114266665D01*
X194490000Y-114266669D01*
X194481381Y-114310000D01*
X194490000Y-114353331D01*
X194490001Y-115477953D01*
X194351679Y-115385529D01*
X194223336Y-115360000D01*
X194223331Y-115360000D01*
X194180000Y-115351381D01*
X194136669Y-115360000D01*
X194131893Y-115360000D01*
X194107102Y-115322898D01*
X194002907Y-115253277D01*
X193880000Y-115228829D01*
X192980000Y-115228829D01*
X192857093Y-115253277D01*
X192752898Y-115322898D01*
X192683277Y-115427093D01*
X192658829Y-115550000D01*
X192658829Y-116050000D01*
X192683277Y-116172907D01*
X192752898Y-116277102D01*
X192857093Y-116346723D01*
X192980000Y-116371171D01*
X193880000Y-116371171D01*
X194002907Y-116346723D01*
X194063789Y-116306043D01*
X194123972Y-116366225D01*
X194115000Y-116387886D01*
X194115000Y-116712114D01*
X194234246Y-117000000D01*
X188380000Y-117000000D01*
X188380000Y-114958539D01*
X188735000Y-114958539D01*
X188735000Y-115521461D01*
X188950421Y-116041533D01*
X189348467Y-116439579D01*
X189868539Y-116655000D01*
X190431461Y-116655000D01*
X190951533Y-116439579D01*
X191349579Y-116041533D01*
X191565000Y-115521461D01*
X191565000Y-114958539D01*
X191349579Y-114438467D01*
X190951533Y-114040421D01*
X190431461Y-113825000D01*
X189868539Y-113825000D01*
X189348467Y-114040421D01*
X188950421Y-114438467D01*
X188735000Y-114958539D01*
X188380000Y-114958539D01*
X188380000Y-112792585D01*
X188428339Y-112840924D01*
G36*
X194735000Y-107707669D02*
X194735000Y-107952331D01*
X194828628Y-108178370D01*
X194855459Y-108205201D01*
X194763812Y-108223431D01*
X194639069Y-108306781D01*
X194591372Y-108191630D01*
X194418370Y-108018628D01*
X194192331Y-107925000D01*
X193947669Y-107925000D01*
X193721630Y-108018628D01*
X193548628Y-108191630D01*
X193455000Y-108417669D01*
X193455000Y-108662331D01*
X193548628Y-108888370D01*
X193721630Y-109061372D01*
X193947669Y-109155000D01*
X194062746Y-109155000D01*
X194098231Y-109190485D01*
X194122778Y-109227222D01*
X194159515Y-109251769D01*
X194159516Y-109251770D01*
X194167676Y-109257222D01*
X194268321Y-109324471D01*
X194396664Y-109350000D01*
X194396668Y-109350000D01*
X194439999Y-109358619D01*
X194483330Y-109350000D01*
X194509343Y-109350000D01*
X194601731Y-109488270D01*
X194763813Y-109596569D01*
X194955000Y-109634599D01*
X195146188Y-109596569D01*
X195280001Y-109507159D01*
X195413813Y-109596569D01*
X195605000Y-109634599D01*
X195796188Y-109596569D01*
X195930001Y-109507159D01*
X196063813Y-109596569D01*
X196255000Y-109634599D01*
X196446188Y-109596569D01*
X196580001Y-109507159D01*
X196713813Y-109596569D01*
X196905000Y-109634599D01*
X197096188Y-109596569D01*
X197258270Y-109488270D01*
X197350658Y-109350000D01*
X198580258Y-109350000D01*
X198621630Y-109391372D01*
X198847669Y-109485000D01*
X199092331Y-109485000D01*
X199165000Y-109454900D01*
X199165000Y-109495000D01*
X198378469Y-109495000D01*
X198346188Y-109473431D01*
X198203257Y-109445000D01*
X197656743Y-109445000D01*
X197513812Y-109473431D01*
X197351730Y-109581730D01*
X197243431Y-109743812D01*
X197205401Y-109935000D01*
X197243431Y-110126188D01*
X197332841Y-110260000D01*
X197243431Y-110393812D01*
X197205401Y-110585000D01*
X197243431Y-110776188D01*
X197332841Y-110910000D01*
X197243431Y-111043812D01*
X197205401Y-111235000D01*
X197243431Y-111426188D01*
X197332841Y-111560000D01*
X197243431Y-111693812D01*
X197205401Y-111885000D01*
X197243431Y-112076188D01*
X197351730Y-112238270D01*
X197513812Y-112346569D01*
X197656743Y-112375000D01*
X197667669Y-112375000D01*
X197441630Y-112468628D01*
X197440258Y-112470000D01*
X197350658Y-112470000D01*
X197258270Y-112331730D01*
X197096187Y-112223431D01*
X196905000Y-112185401D01*
X196713812Y-112223431D01*
X196580000Y-112312841D01*
X196446187Y-112223431D01*
X196255000Y-112185401D01*
X196063812Y-112223431D01*
X195930000Y-112312841D01*
X195796187Y-112223431D01*
X195605000Y-112185401D01*
X195413812Y-112223431D01*
X195280000Y-112312841D01*
X195146187Y-112223431D01*
X194955000Y-112185401D01*
X194763812Y-112223431D01*
X194601730Y-112331730D01*
X194509342Y-112470000D01*
X193219758Y-112470000D01*
X193373370Y-112406372D01*
X193454742Y-112325000D01*
X193481531Y-112325000D01*
X193513812Y-112346569D01*
X193656743Y-112375000D01*
X194203257Y-112375000D01*
X194346188Y-112346569D01*
X194508270Y-112238270D01*
X194616569Y-112076188D01*
X194654599Y-111885000D01*
X194616569Y-111693812D01*
X194527159Y-111560000D01*
X194616569Y-111426188D01*
X194654599Y-111235000D01*
X194616569Y-111043812D01*
X194527159Y-110910000D01*
X194616569Y-110776188D01*
X194654599Y-110585000D01*
X194616569Y-110393812D01*
X194508270Y-110231730D01*
X194346188Y-110123431D01*
X194203257Y-110095000D01*
X193656743Y-110095000D01*
X193513812Y-110123431D01*
X193351730Y-110231730D01*
X193243431Y-110393812D01*
X193205401Y-110585000D01*
X193243431Y-110776188D01*
X193332841Y-110910000D01*
X193243431Y-111043812D01*
X193205401Y-111235000D01*
X193218202Y-111299356D01*
X193147331Y-111270000D01*
X193018234Y-111270000D01*
X192951679Y-111225529D01*
X192823336Y-111200000D01*
X192823331Y-111200000D01*
X192780000Y-111191381D01*
X192736669Y-111200000D01*
X192581217Y-111200000D01*
X192565709Y-111176791D01*
X192382436Y-111054331D01*
X192166250Y-111011329D01*
X191253750Y-111011329D01*
X191037564Y-111054331D01*
X190854291Y-111176791D01*
X190731831Y-111360064D01*
X190688829Y-111576250D01*
X190688829Y-112063750D01*
X190731831Y-112279936D01*
X190854291Y-112463209D01*
X190864454Y-112470000D01*
X189832254Y-112470000D01*
X189696028Y-112333774D01*
X189705000Y-112312114D01*
X189705000Y-111987886D01*
X189580924Y-111688339D01*
X189351661Y-111459076D01*
X189281465Y-111430000D01*
X189351661Y-111400924D01*
X189580924Y-111171661D01*
X189705000Y-110872114D01*
X189705000Y-110547886D01*
X189616820Y-110335000D01*
X189672331Y-110335000D01*
X189898370Y-110241372D01*
X190071372Y-110068370D01*
X190165000Y-109842331D01*
X190165000Y-109597669D01*
X190071372Y-109371630D01*
X189898370Y-109198628D01*
X189672331Y-109105000D01*
X189567585Y-109105000D01*
X189600924Y-109071661D01*
X189609896Y-109050000D01*
X191416669Y-109050000D01*
X191460000Y-109058619D01*
X191503331Y-109050000D01*
X191503336Y-109050000D01*
X191631679Y-109024471D01*
X191777222Y-108927222D01*
X191801771Y-108890482D01*
X193162254Y-107530000D01*
X194808593Y-107530000D01*
X194735000Y-107707669D01*
X194735000Y-107707669D01*
G37*
X194735000Y-107707669D02*
X194735000Y-107952331D01*
X194828628Y-108178370D01*
X194855459Y-108205201D01*
X194763812Y-108223431D01*
X194639069Y-108306781D01*
X194591372Y-108191630D01*
X194418370Y-108018628D01*
X194192331Y-107925000D01*
X193947669Y-107925000D01*
X193721630Y-108018628D01*
X193548628Y-108191630D01*
X193455000Y-108417669D01*
X193455000Y-108662331D01*
X193548628Y-108888370D01*
X193721630Y-109061372D01*
X193947669Y-109155000D01*
X194062746Y-109155000D01*
X194098231Y-109190485D01*
X194122778Y-109227222D01*
X194159515Y-109251769D01*
X194159516Y-109251770D01*
X194167676Y-109257222D01*
X194268321Y-109324471D01*
X194396664Y-109350000D01*
X194396668Y-109350000D01*
X194439999Y-109358619D01*
X194483330Y-109350000D01*
X194509343Y-109350000D01*
X194601731Y-109488270D01*
X194763813Y-109596569D01*
X194955000Y-109634599D01*
X195146188Y-109596569D01*
X195280001Y-109507159D01*
X195413813Y-109596569D01*
X195605000Y-109634599D01*
X195796188Y-109596569D01*
X195930001Y-109507159D01*
X196063813Y-109596569D01*
X196255000Y-109634599D01*
X196446188Y-109596569D01*
X196580001Y-109507159D01*
X196713813Y-109596569D01*
X196905000Y-109634599D01*
X197096188Y-109596569D01*
X197258270Y-109488270D01*
X197350658Y-109350000D01*
X198580258Y-109350000D01*
X198621630Y-109391372D01*
X198847669Y-109485000D01*
X199092331Y-109485000D01*
X199165000Y-109454900D01*
X199165000Y-109495000D01*
X198378469Y-109495000D01*
X198346188Y-109473431D01*
X198203257Y-109445000D01*
X197656743Y-109445000D01*
X197513812Y-109473431D01*
X197351730Y-109581730D01*
X197243431Y-109743812D01*
X197205401Y-109935000D01*
X197243431Y-110126188D01*
X197332841Y-110260000D01*
X197243431Y-110393812D01*
X197205401Y-110585000D01*
X197243431Y-110776188D01*
X197332841Y-110910000D01*
X197243431Y-111043812D01*
X197205401Y-111235000D01*
X197243431Y-111426188D01*
X197332841Y-111560000D01*
X197243431Y-111693812D01*
X197205401Y-111885000D01*
X197243431Y-112076188D01*
X197351730Y-112238270D01*
X197513812Y-112346569D01*
X197656743Y-112375000D01*
X197667669Y-112375000D01*
X197441630Y-112468628D01*
X197440258Y-112470000D01*
X197350658Y-112470000D01*
X197258270Y-112331730D01*
X197096187Y-112223431D01*
X196905000Y-112185401D01*
X196713812Y-112223431D01*
X196580000Y-112312841D01*
X196446187Y-112223431D01*
X196255000Y-112185401D01*
X196063812Y-112223431D01*
X195930000Y-112312841D01*
X195796187Y-112223431D01*
X195605000Y-112185401D01*
X195413812Y-112223431D01*
X195280000Y-112312841D01*
X195146187Y-112223431D01*
X194955000Y-112185401D01*
X194763812Y-112223431D01*
X194601730Y-112331730D01*
X194509342Y-112470000D01*
X193219758Y-112470000D01*
X193373370Y-112406372D01*
X193454742Y-112325000D01*
X193481531Y-112325000D01*
X193513812Y-112346569D01*
X193656743Y-112375000D01*
X194203257Y-112375000D01*
X194346188Y-112346569D01*
X194508270Y-112238270D01*
X194616569Y-112076188D01*
X194654599Y-111885000D01*
X194616569Y-111693812D01*
X194527159Y-111560000D01*
X194616569Y-111426188D01*
X194654599Y-111235000D01*
X194616569Y-111043812D01*
X194527159Y-110910000D01*
X194616569Y-110776188D01*
X194654599Y-110585000D01*
X194616569Y-110393812D01*
X194508270Y-110231730D01*
X194346188Y-110123431D01*
X194203257Y-110095000D01*
X193656743Y-110095000D01*
X193513812Y-110123431D01*
X193351730Y-110231730D01*
X193243431Y-110393812D01*
X193205401Y-110585000D01*
X193243431Y-110776188D01*
X193332841Y-110910000D01*
X193243431Y-111043812D01*
X193205401Y-111235000D01*
X193218202Y-111299356D01*
X193147331Y-111270000D01*
X193018234Y-111270000D01*
X192951679Y-111225529D01*
X192823336Y-111200000D01*
X192823331Y-111200000D01*
X192780000Y-111191381D01*
X192736669Y-111200000D01*
X192581217Y-111200000D01*
X192565709Y-111176791D01*
X192382436Y-111054331D01*
X192166250Y-111011329D01*
X191253750Y-111011329D01*
X191037564Y-111054331D01*
X190854291Y-111176791D01*
X190731831Y-111360064D01*
X190688829Y-111576250D01*
X190688829Y-112063750D01*
X190731831Y-112279936D01*
X190854291Y-112463209D01*
X190864454Y-112470000D01*
X189832254Y-112470000D01*
X189696028Y-112333774D01*
X189705000Y-112312114D01*
X189705000Y-111987886D01*
X189580924Y-111688339D01*
X189351661Y-111459076D01*
X189281465Y-111430000D01*
X189351661Y-111400924D01*
X189580924Y-111171661D01*
X189705000Y-110872114D01*
X189705000Y-110547886D01*
X189616820Y-110335000D01*
X189672331Y-110335000D01*
X189898370Y-110241372D01*
X190071372Y-110068370D01*
X190165000Y-109842331D01*
X190165000Y-109597669D01*
X190071372Y-109371630D01*
X189898370Y-109198628D01*
X189672331Y-109105000D01*
X189567585Y-109105000D01*
X189600924Y-109071661D01*
X189609896Y-109050000D01*
X191416669Y-109050000D01*
X191460000Y-109058619D01*
X191503331Y-109050000D01*
X191503336Y-109050000D01*
X191631679Y-109024471D01*
X191777222Y-108927222D01*
X191801771Y-108890482D01*
X193162254Y-107530000D01*
X194808593Y-107530000D01*
X194735000Y-107707669D01*
G36*
X213445000Y-105625000D02*
X207920000Y-105625000D01*
X207799455Y-105648978D01*
X207697261Y-105717261D01*
X207089522Y-106325000D01*
X206446023Y-106325000D01*
X206415000Y-106318829D01*
X205565000Y-106318829D01*
X205442093Y-106343277D01*
X205337898Y-106412898D01*
X205268277Y-106517093D01*
X205243829Y-106640000D01*
X205243829Y-106940000D01*
X205245000Y-106945887D01*
X205245000Y-107134113D01*
X205243829Y-107140000D01*
X205243829Y-107440000D01*
X205263720Y-107540000D01*
X205243829Y-107640000D01*
X205243829Y-107940000D01*
X205245000Y-107945887D01*
X205245000Y-108134113D01*
X205243829Y-108140000D01*
X205243829Y-108243829D01*
X205140000Y-108243829D01*
X205040000Y-108263720D01*
X204940000Y-108243829D01*
X204640000Y-108243829D01*
X204540000Y-108263720D01*
X204440000Y-108243829D01*
X204140000Y-108243829D01*
X204040000Y-108263720D01*
X203940000Y-108243829D01*
X203640000Y-108243829D01*
X203540000Y-108263720D01*
X203440000Y-108243829D01*
X203140000Y-108243829D01*
X203040000Y-108263720D01*
X202940000Y-108243829D01*
X202836171Y-108243829D01*
X202836171Y-108140000D01*
X202816280Y-108040000D01*
X202836171Y-107940000D01*
X202836171Y-107640000D01*
X202816280Y-107540000D01*
X202836171Y-107440000D01*
X202836171Y-107140000D01*
X202816280Y-107040000D01*
X202836171Y-106940000D01*
X202836171Y-106640000D01*
X202816280Y-106540000D01*
X202836171Y-106440000D01*
X202836171Y-106140000D01*
X202816280Y-106040000D01*
X202836171Y-105940000D01*
X202836171Y-105836171D01*
X202940000Y-105836171D01*
X203040000Y-105816280D01*
X203140000Y-105836171D01*
X203440000Y-105836171D01*
X203540000Y-105816280D01*
X203640000Y-105836171D01*
X203940000Y-105836171D01*
X204040000Y-105816280D01*
X204140000Y-105836171D01*
X204440000Y-105836171D01*
X204540000Y-105816280D01*
X204640000Y-105836171D01*
X204940000Y-105836171D01*
X204945887Y-105835000D01*
X205134113Y-105835000D01*
X205140000Y-105836171D01*
X205440000Y-105836171D01*
X205562907Y-105811723D01*
X205667102Y-105742102D01*
X205736723Y-105637907D01*
X205761171Y-105515000D01*
X205761171Y-104665000D01*
X205755000Y-104633977D01*
X205755000Y-104570478D01*
X206782739Y-103542739D01*
X206851022Y-103440545D01*
X206875000Y-103320000D01*
X206875000Y-103315000D01*
X213445000Y-103315000D01*
X213445000Y-105625000D01*
X213445000Y-105625000D01*
G37*
X213445000Y-105625000D02*
X207920000Y-105625000D01*
X207799455Y-105648978D01*
X207697261Y-105717261D01*
X207089522Y-106325000D01*
X206446023Y-106325000D01*
X206415000Y-106318829D01*
X205565000Y-106318829D01*
X205442093Y-106343277D01*
X205337898Y-106412898D01*
X205268277Y-106517093D01*
X205243829Y-106640000D01*
X205243829Y-106940000D01*
X205245000Y-106945887D01*
X205245000Y-107134113D01*
X205243829Y-107140000D01*
X205243829Y-107440000D01*
X205263720Y-107540000D01*
X205243829Y-107640000D01*
X205243829Y-107940000D01*
X205245000Y-107945887D01*
X205245000Y-108134113D01*
X205243829Y-108140000D01*
X205243829Y-108243829D01*
X205140000Y-108243829D01*
X205040000Y-108263720D01*
X204940000Y-108243829D01*
X204640000Y-108243829D01*
X204540000Y-108263720D01*
X204440000Y-108243829D01*
X204140000Y-108243829D01*
X204040000Y-108263720D01*
X203940000Y-108243829D01*
X203640000Y-108243829D01*
X203540000Y-108263720D01*
X203440000Y-108243829D01*
X203140000Y-108243829D01*
X203040000Y-108263720D01*
X202940000Y-108243829D01*
X202836171Y-108243829D01*
X202836171Y-108140000D01*
X202816280Y-108040000D01*
X202836171Y-107940000D01*
X202836171Y-107640000D01*
X202816280Y-107540000D01*
X202836171Y-107440000D01*
X202836171Y-107140000D01*
X202816280Y-107040000D01*
X202836171Y-106940000D01*
X202836171Y-106640000D01*
X202816280Y-106540000D01*
X202836171Y-106440000D01*
X202836171Y-106140000D01*
X202816280Y-106040000D01*
X202836171Y-105940000D01*
X202836171Y-105836171D01*
X202940000Y-105836171D01*
X203040000Y-105816280D01*
X203140000Y-105836171D01*
X203440000Y-105836171D01*
X203540000Y-105816280D01*
X203640000Y-105836171D01*
X203940000Y-105836171D01*
X204040000Y-105816280D01*
X204140000Y-105836171D01*
X204440000Y-105836171D01*
X204540000Y-105816280D01*
X204640000Y-105836171D01*
X204940000Y-105836171D01*
X204945887Y-105835000D01*
X205134113Y-105835000D01*
X205140000Y-105836171D01*
X205440000Y-105836171D01*
X205562907Y-105811723D01*
X205667102Y-105742102D01*
X205736723Y-105637907D01*
X205761171Y-105515000D01*
X205761171Y-104665000D01*
X205755000Y-104633977D01*
X205755000Y-104570478D01*
X206782739Y-103542739D01*
X206851022Y-103440545D01*
X206875000Y-103320000D01*
X206875000Y-103315000D01*
X213445000Y-103315000D01*
X213445000Y-105625000D01*
G36*
X194075000Y-87508977D02*
X194068829Y-87540000D01*
X194068829Y-88720750D01*
X194065000Y-88740000D01*
X194065000Y-90340000D01*
X194068829Y-90359250D01*
X194068829Y-91540000D01*
X194093277Y-91662907D01*
X194096399Y-91667579D01*
X194098978Y-91680545D01*
X194167261Y-91782739D01*
X194269455Y-91851022D01*
X194390000Y-91875000D01*
X198194531Y-91875000D01*
X198161630Y-91888628D01*
X197988628Y-92061630D01*
X197895000Y-92287669D01*
X197895000Y-92532331D01*
X197897692Y-92538829D01*
X197140000Y-92538829D01*
X197017093Y-92563277D01*
X196912898Y-92632898D01*
X196888107Y-92670000D01*
X196631893Y-92670000D01*
X196607102Y-92632898D01*
X196502907Y-92563277D01*
X196380000Y-92538829D01*
X195480000Y-92538829D01*
X195357093Y-92563277D01*
X195252898Y-92632898D01*
X195183277Y-92737093D01*
X195158829Y-92860000D01*
X195158829Y-93360000D01*
X195183277Y-93482907D01*
X195252898Y-93587102D01*
X195357093Y-93656723D01*
X195480000Y-93681171D01*
X196380000Y-93681171D01*
X196502907Y-93656723D01*
X196607102Y-93587102D01*
X196631893Y-93550000D01*
X196888107Y-93550000D01*
X196912898Y-93587102D01*
X197017093Y-93656723D01*
X197140000Y-93681171D01*
X197538918Y-93681171D01*
X197773231Y-93915485D01*
X197797778Y-93952222D01*
X197834515Y-93976769D01*
X197834516Y-93976770D01*
X197856382Y-93991380D01*
X197943321Y-94049471D01*
X198071664Y-94075000D01*
X198071668Y-94075000D01*
X198114999Y-94083619D01*
X198158330Y-94075000D01*
X199864409Y-94075000D01*
X199944755Y-94195246D01*
X200098567Y-94298020D01*
X200280000Y-94334109D01*
X200461434Y-94298020D01*
X200615246Y-94195246D01*
X200718020Y-94041434D01*
X200745000Y-93905795D01*
X200745000Y-93364205D01*
X200718020Y-93228566D01*
X200615246Y-93074754D01*
X200461433Y-92971980D01*
X200280000Y-92935891D01*
X200247680Y-92942320D01*
X200254109Y-92910000D01*
X200218020Y-92728566D01*
X200172206Y-92660000D01*
X200218020Y-92591434D01*
X200254109Y-92410000D01*
X200218020Y-92228566D01*
X200172206Y-92160000D01*
X200218020Y-92091434D01*
X200254109Y-91910000D01*
X200218020Y-91728566D01*
X200203478Y-91706802D01*
X200221022Y-91680545D01*
X200245000Y-91560000D01*
X200245000Y-91455795D01*
X200254109Y-91410000D01*
X200247680Y-91377680D01*
X200280000Y-91384109D01*
X200377898Y-91364636D01*
X200430000Y-91375000D01*
X200550545Y-91351022D01*
X200652739Y-91282739D01*
X200662739Y-91272739D01*
X200731022Y-91170545D01*
X200755000Y-91050000D01*
X200755000Y-84880000D01*
X206495000Y-84880000D01*
X206495000Y-87528977D01*
X206488829Y-87560000D01*
X206488829Y-88760000D01*
X206495000Y-88791023D01*
X206495000Y-90328977D01*
X206488829Y-90360000D01*
X206488829Y-91560000D01*
X206513277Y-91682907D01*
X206582898Y-91787102D01*
X206687093Y-91856723D01*
X206810000Y-91881171D01*
X210499633Y-91881171D01*
X210481630Y-91888628D01*
X210308628Y-92061630D01*
X210215000Y-92287669D01*
X210215000Y-92532331D01*
X210221834Y-92548829D01*
X209400000Y-92548829D01*
X209277093Y-92573277D01*
X209172898Y-92642898D01*
X209148107Y-92680000D01*
X208871893Y-92680000D01*
X208847102Y-92642898D01*
X208742907Y-92573277D01*
X208620000Y-92548829D01*
X207720000Y-92548829D01*
X207597093Y-92573277D01*
X207492898Y-92642898D01*
X207423277Y-92747093D01*
X207398829Y-92870000D01*
X207398829Y-93370000D01*
X207423277Y-93492907D01*
X207492898Y-93597102D01*
X207597093Y-93666723D01*
X207720000Y-93691171D01*
X208620000Y-93691171D01*
X208742907Y-93666723D01*
X208847102Y-93597102D01*
X208871893Y-93560000D01*
X209148107Y-93560000D01*
X209172898Y-93597102D01*
X209277093Y-93666723D01*
X209400000Y-93691171D01*
X209798917Y-93691171D01*
X210023231Y-93915485D01*
X210047778Y-93952222D01*
X210084515Y-93976769D01*
X210084516Y-93976770D01*
X210106382Y-93991380D01*
X210193321Y-94049471D01*
X210321664Y-94075000D01*
X210321669Y-94075000D01*
X210365000Y-94083619D01*
X210408331Y-94075000D01*
X212214409Y-94075000D01*
X212294755Y-94195246D01*
X212448567Y-94298020D01*
X212630000Y-94334109D01*
X212811434Y-94298020D01*
X212965246Y-94195246D01*
X213068020Y-94041434D01*
X213095000Y-93905795D01*
X213095000Y-93364205D01*
X213068020Y-93228566D01*
X212965246Y-93074754D01*
X212811433Y-92971980D01*
X212630000Y-92935891D01*
X212597680Y-92942320D01*
X212604109Y-92910000D01*
X212568020Y-92728566D01*
X212522206Y-92660000D01*
X212568020Y-92591434D01*
X212604109Y-92410000D01*
X212568020Y-92228566D01*
X212522206Y-92160000D01*
X212568020Y-92091434D01*
X212604109Y-91910000D01*
X212568020Y-91728566D01*
X212553478Y-91706802D01*
X212571022Y-91680545D01*
X212595000Y-91560000D01*
X212595000Y-91455795D01*
X212604109Y-91410000D01*
X212597680Y-91377680D01*
X212630000Y-91384109D01*
X212675795Y-91375000D01*
X212770000Y-91375000D01*
X212890545Y-91351022D01*
X212992739Y-91282739D01*
X213061022Y-91180545D01*
X213085000Y-91060000D01*
X213085000Y-91006069D01*
X213095000Y-90955795D01*
X213095000Y-90414205D01*
X213085000Y-90363931D01*
X213085000Y-89356296D01*
X213101171Y-89275000D01*
X213101171Y-88025000D01*
X213085000Y-87943704D01*
X213085000Y-87606023D01*
X213091171Y-87575000D01*
X213091171Y-86325000D01*
X213085000Y-86293977D01*
X213085000Y-84880000D01*
X218385000Y-84880000D01*
X218385000Y-87508977D01*
X218378829Y-87540000D01*
X218378829Y-88730750D01*
X218375000Y-88750000D01*
X218375000Y-90340000D01*
X218378829Y-90359250D01*
X218378829Y-91540000D01*
X218403277Y-91662907D01*
X218472898Y-91767102D01*
X218473976Y-91767822D01*
X218477261Y-91772739D01*
X218579455Y-91841022D01*
X218700000Y-91865000D01*
X222564531Y-91865000D01*
X222531630Y-91878628D01*
X222358628Y-92051630D01*
X222265000Y-92277669D01*
X222265000Y-92522331D01*
X222358628Y-92748370D01*
X222531630Y-92921372D01*
X222757669Y-93015000D01*
X223002331Y-93015000D01*
X223128380Y-92962789D01*
X223151980Y-93081434D01*
X223221181Y-93185000D01*
X222336171Y-93185000D01*
X222336171Y-92805000D01*
X222311723Y-92682093D01*
X222242102Y-92577898D01*
X222137907Y-92508277D01*
X222015000Y-92483829D01*
X221115000Y-92483829D01*
X220992093Y-92508277D01*
X220887898Y-92577898D01*
X220863107Y-92615000D01*
X220646893Y-92615000D01*
X220622102Y-92577898D01*
X220517907Y-92508277D01*
X220395000Y-92483829D01*
X219495000Y-92483829D01*
X219372093Y-92508277D01*
X219267898Y-92577898D01*
X219198277Y-92682093D01*
X219173829Y-92805000D01*
X219173829Y-93305000D01*
X219198277Y-93427907D01*
X219267898Y-93532102D01*
X219372093Y-93601723D01*
X219495000Y-93626171D01*
X220395000Y-93626171D01*
X220517907Y-93601723D01*
X220622102Y-93532102D01*
X220646893Y-93495000D01*
X220863107Y-93495000D01*
X220887898Y-93532102D01*
X220992093Y-93601723D01*
X221115000Y-93626171D01*
X221513918Y-93626171D01*
X221793231Y-93905485D01*
X221817778Y-93942222D01*
X221854515Y-93966769D01*
X221854516Y-93966770D01*
X221891348Y-93991380D01*
X221963321Y-94039471D01*
X222091664Y-94065000D01*
X222091669Y-94065000D01*
X222135000Y-94073619D01*
X222178331Y-94065000D01*
X224124409Y-94065000D01*
X224204755Y-94185246D01*
X224358567Y-94288020D01*
X224540000Y-94324109D01*
X224721434Y-94288020D01*
X224875246Y-94185246D01*
X224978020Y-94031434D01*
X225005000Y-93895795D01*
X225005000Y-93354205D01*
X224978020Y-93218566D01*
X224875246Y-93064754D01*
X224721433Y-92961980D01*
X224540000Y-92925891D01*
X224507680Y-92932320D01*
X224514109Y-92900000D01*
X224478020Y-92718566D01*
X224432206Y-92650000D01*
X224478020Y-92581434D01*
X224514109Y-92400000D01*
X224478020Y-92218566D01*
X224432206Y-92150000D01*
X224478020Y-92081434D01*
X224514109Y-91900000D01*
X224478020Y-91718566D01*
X224463478Y-91696802D01*
X224481022Y-91670545D01*
X224505000Y-91550000D01*
X224505000Y-91445795D01*
X224514109Y-91400000D01*
X224507680Y-91367680D01*
X224540000Y-91374109D01*
X224585795Y-91365000D01*
X224690000Y-91365000D01*
X224810545Y-91341022D01*
X224912739Y-91272739D01*
X224981022Y-91170545D01*
X225005000Y-91050000D01*
X225005000Y-89296023D01*
X225011171Y-89265000D01*
X225011171Y-88015000D01*
X225005000Y-87983977D01*
X225005000Y-87596023D01*
X225011171Y-87565000D01*
X225011171Y-86368539D01*
X227985000Y-86368539D01*
X227985000Y-86931461D01*
X228200421Y-87451533D01*
X228598467Y-87849579D01*
X229118539Y-88065000D01*
X229681461Y-88065000D01*
X230201533Y-87849579D01*
X230599579Y-87451533D01*
X230815000Y-86931461D01*
X230815000Y-86368539D01*
X230599579Y-85848467D01*
X230201533Y-85450421D01*
X229681461Y-85235000D01*
X229118539Y-85235000D01*
X228598467Y-85450421D01*
X228200421Y-85848467D01*
X227985000Y-86368539D01*
X225011171Y-86368539D01*
X225011171Y-86315000D01*
X225005000Y-86283977D01*
X225005000Y-84880000D01*
X231180001Y-84880000D01*
X231180001Y-99528829D01*
X229760000Y-99528829D01*
X229637093Y-99553277D01*
X229532898Y-99622898D01*
X229463277Y-99727093D01*
X229438829Y-99850000D01*
X229438829Y-100375000D01*
X227411468Y-100375000D01*
X227331372Y-100181630D01*
X227158370Y-100008628D01*
X226932331Y-99915000D01*
X226687669Y-99915000D01*
X226461630Y-100008628D01*
X226288628Y-100181630D01*
X226208532Y-100375000D01*
X225361171Y-100375000D01*
X225361171Y-99590000D01*
X225336723Y-99467093D01*
X225267102Y-99362898D01*
X225162907Y-99293277D01*
X225040000Y-99268829D01*
X224760000Y-99268829D01*
X224650000Y-99290710D01*
X224540000Y-99268829D01*
X224260000Y-99268829D01*
X224228977Y-99275000D01*
X224071023Y-99275000D01*
X224040000Y-99268829D01*
X223760000Y-99268829D01*
X223650000Y-99290710D01*
X223540000Y-99268829D01*
X223260000Y-99268829D01*
X223228977Y-99275000D01*
X223071023Y-99275000D01*
X223040000Y-99268829D01*
X222760000Y-99268829D01*
X222637093Y-99293277D01*
X222532898Y-99362898D01*
X222532178Y-99363976D01*
X222527261Y-99367261D01*
X222067261Y-99827261D01*
X221998978Y-99929455D01*
X221975000Y-100050000D01*
X221975000Y-101105000D01*
X220750273Y-101105000D01*
X220700000Y-101095000D01*
X220690000Y-101095000D01*
X220670750Y-101098829D01*
X219775000Y-101098829D01*
X219775000Y-98845000D01*
X221220000Y-98845000D01*
X221340545Y-98821022D01*
X221442739Y-98752739D01*
X222390478Y-97805000D01*
X222728977Y-97805000D01*
X222760000Y-97811171D01*
X223040000Y-97811171D01*
X223150000Y-97789290D01*
X223260000Y-97811171D01*
X223540000Y-97811171D01*
X223650000Y-97789290D01*
X223760000Y-97811171D01*
X224040000Y-97811171D01*
X224150000Y-97789290D01*
X224260000Y-97811171D01*
X224540000Y-97811171D01*
X224650000Y-97789290D01*
X224760000Y-97811171D01*
X225040000Y-97811171D01*
X225162907Y-97786723D01*
X225267102Y-97717102D01*
X225336723Y-97612907D01*
X225361171Y-97490000D01*
X225361171Y-96640000D01*
X225336723Y-96517093D01*
X225267102Y-96412898D01*
X225162907Y-96343277D01*
X225040000Y-96318829D01*
X224834463Y-96318829D01*
X224814471Y-96218321D01*
X224775825Y-96160483D01*
X224741770Y-96109516D01*
X224741769Y-96109515D01*
X224717222Y-96072778D01*
X224680485Y-96048231D01*
X224568101Y-95935848D01*
X224620000Y-95946171D01*
X225420000Y-95946171D01*
X225542907Y-95921723D01*
X225647102Y-95852102D01*
X225716723Y-95747907D01*
X225741171Y-95625000D01*
X225741171Y-95151083D01*
X225770000Y-95122253D01*
X225798829Y-95151082D01*
X225798829Y-95625000D01*
X225823277Y-95747907D01*
X225892898Y-95852102D01*
X225997093Y-95921723D01*
X226120000Y-95946171D01*
X226920000Y-95946171D01*
X227042907Y-95921723D01*
X227147102Y-95852102D01*
X227216723Y-95747907D01*
X227241171Y-95625000D01*
X227241171Y-94875000D01*
X227216723Y-94752093D01*
X227147102Y-94647898D01*
X227042907Y-94578277D01*
X226920000Y-94553829D01*
X226480000Y-94553829D01*
X226480000Y-94021480D01*
X226505000Y-93895795D01*
X226505000Y-93365000D01*
X227035795Y-93365000D01*
X227085000Y-93355213D01*
X227085000Y-94010000D01*
X227108978Y-94130545D01*
X227177261Y-94232739D01*
X227279455Y-94301022D01*
X227400000Y-94325000D01*
X229180000Y-94325000D01*
X229300545Y-94301022D01*
X229402739Y-94232739D01*
X229471022Y-94130545D01*
X229495000Y-94010000D01*
X229495000Y-92255887D01*
X229496171Y-92250000D01*
X229496171Y-91250000D01*
X229471723Y-91127093D01*
X229402102Y-91022898D01*
X229297907Y-90953277D01*
X229175000Y-90928829D01*
X227925000Y-90928829D01*
X227893977Y-90935000D01*
X226505000Y-90935000D01*
X226505000Y-90787253D01*
X226627253Y-90665000D01*
X226742331Y-90665000D01*
X226968370Y-90571372D01*
X227141372Y-90398370D01*
X227235000Y-90172331D01*
X227235000Y-89927669D01*
X227141372Y-89701630D01*
X226968370Y-89528628D01*
X226742331Y-89435000D01*
X226497669Y-89435000D01*
X226271630Y-89528628D01*
X226098628Y-89701630D01*
X226005000Y-89927669D01*
X226005000Y-89982853D01*
X225858566Y-90011980D01*
X225704754Y-90114754D01*
X225601980Y-90268567D01*
X225575000Y-90404206D01*
X225575001Y-90945795D01*
X225601981Y-91081434D01*
X225704755Y-91235246D01*
X225858567Y-91338020D01*
X226040000Y-91374109D01*
X226072320Y-91367680D01*
X226065891Y-91400000D01*
X226075000Y-91445795D01*
X226075000Y-91854205D01*
X226065891Y-91900000D01*
X226075000Y-91945795D01*
X226075000Y-92354205D01*
X226065891Y-92400000D01*
X226075000Y-92445795D01*
X226075000Y-92550000D01*
X226098978Y-92670545D01*
X226116522Y-92696802D01*
X226101980Y-92718566D01*
X226065891Y-92900000D01*
X226072320Y-92932320D01*
X226040000Y-92925891D01*
X225858566Y-92961980D01*
X225790000Y-93007795D01*
X225721433Y-92961980D01*
X225540000Y-92925891D01*
X225358566Y-92961980D01*
X225204754Y-93064754D01*
X225101980Y-93218567D01*
X225075000Y-93354206D01*
X225075001Y-93895795D01*
X225100000Y-94021477D01*
X225100001Y-94547745D01*
X225093917Y-94553829D01*
X224620000Y-94553829D01*
X224497093Y-94578277D01*
X224392898Y-94647898D01*
X224323277Y-94752093D01*
X224298829Y-94875000D01*
X224298829Y-95419087D01*
X224238370Y-95358628D01*
X224012331Y-95265000D01*
X223767669Y-95265000D01*
X223541630Y-95358628D01*
X223440000Y-95460258D01*
X223348370Y-95368628D01*
X223122331Y-95275000D01*
X222877669Y-95275000D01*
X222651630Y-95368628D01*
X222478628Y-95541630D01*
X222385000Y-95767669D01*
X222385000Y-96012331D01*
X222478628Y-96238370D01*
X222565258Y-96325000D01*
X219160000Y-96325000D01*
X219039455Y-96348978D01*
X218937261Y-96417261D01*
X218177261Y-97177261D01*
X218108978Y-97279455D01*
X218085000Y-97400000D01*
X218085000Y-101105000D01*
X217425000Y-101105000D01*
X217425000Y-98270000D01*
X217401022Y-98149455D01*
X217332739Y-98047261D01*
X217230545Y-97978978D01*
X217110000Y-97955000D01*
X214476023Y-97955000D01*
X214445000Y-97948829D01*
X213865000Y-97948829D01*
X213865000Y-96710000D01*
X213856246Y-96665991D01*
X213831317Y-96628683D01*
X213794009Y-96603754D01*
X213750000Y-96595000D01*
X206660000Y-96595000D01*
X206615991Y-96603754D01*
X206578683Y-96628683D01*
X206553754Y-96665991D01*
X206545000Y-96710000D01*
X206545000Y-96730000D01*
X206550901Y-96766366D01*
X206573123Y-96805348D01*
X206585000Y-96814566D01*
X206585000Y-97948829D01*
X205995000Y-97948829D01*
X205963977Y-97955000D01*
X205560000Y-97955000D01*
X205439455Y-97978978D01*
X205337261Y-98047261D01*
X203309127Y-100075395D01*
X203297898Y-100082898D01*
X203228277Y-100187093D01*
X203203829Y-100310000D01*
X203203829Y-101110000D01*
X203228277Y-101232907D01*
X203297898Y-101337102D01*
X203402093Y-101406723D01*
X203525000Y-101431171D01*
X204275000Y-101431171D01*
X204306023Y-101425000D01*
X204325000Y-101425000D01*
X204325000Y-101498775D01*
X204275000Y-101488829D01*
X203525000Y-101488829D01*
X203402093Y-101513277D01*
X203297898Y-101582898D01*
X203228277Y-101687093D01*
X203203829Y-101810000D01*
X203203829Y-102610000D01*
X203207945Y-102630691D01*
X202896171Y-102318918D01*
X202896171Y-101820000D01*
X202871723Y-101697093D01*
X202802102Y-101592898D01*
X202697907Y-101523277D01*
X202575000Y-101498829D01*
X201825000Y-101498829D01*
X201702093Y-101523277D01*
X201597898Y-101592898D01*
X201528277Y-101697093D01*
X201503829Y-101820000D01*
X201503829Y-102620000D01*
X201528277Y-102742907D01*
X201597898Y-102847102D01*
X201702093Y-102916723D01*
X201825000Y-102941171D01*
X202273918Y-102941171D01*
X202853231Y-103520485D01*
X202877778Y-103557222D01*
X202914515Y-103581769D01*
X203023319Y-103654470D01*
X203023320Y-103654470D01*
X203023321Y-103654471D01*
X203037468Y-103657285D01*
X203058628Y-103708370D01*
X203231630Y-103881372D01*
X203350001Y-103930403D01*
X203350000Y-104343829D01*
X203140000Y-104343829D01*
X203040000Y-104363720D01*
X202940000Y-104343829D01*
X202640000Y-104343829D01*
X202517093Y-104368277D01*
X202412898Y-104437898D01*
X202343277Y-104542093D01*
X202318829Y-104665000D01*
X202318829Y-105053351D01*
X201482739Y-104217261D01*
X201380545Y-104148978D01*
X201260000Y-104125000D01*
X190801023Y-104125000D01*
X190770000Y-104118829D01*
X188380000Y-104118829D01*
X188380000Y-96676160D01*
X188393277Y-96742907D01*
X188462898Y-96847102D01*
X188567093Y-96916723D01*
X188690000Y-96941171D01*
X188700000Y-96941171D01*
X188700001Y-99000709D01*
X188687093Y-99003277D01*
X188582898Y-99072898D01*
X188513277Y-99177093D01*
X188488829Y-99300000D01*
X188488829Y-100200000D01*
X188513277Y-100322907D01*
X188582898Y-100427102D01*
X188687093Y-100496723D01*
X188810000Y-100521171D01*
X189610000Y-100521171D01*
X189732907Y-100496723D01*
X189837102Y-100427102D01*
X189906723Y-100322907D01*
X189931171Y-100200000D01*
X189931171Y-99310000D01*
X192198829Y-99310000D01*
X192198829Y-100210000D01*
X192223277Y-100332907D01*
X192292898Y-100437102D01*
X192397093Y-100506723D01*
X192480000Y-100523215D01*
X192480000Y-100568107D01*
X192442898Y-100592898D01*
X192373277Y-100697093D01*
X192348829Y-100820000D01*
X192348829Y-101720000D01*
X192373277Y-101842907D01*
X192442898Y-101947102D01*
X192547093Y-102016723D01*
X192670000Y-102041171D01*
X193170000Y-102041171D01*
X193292907Y-102016723D01*
X193397102Y-101947102D01*
X193466723Y-101842907D01*
X193491171Y-101720000D01*
X193491171Y-100820000D01*
X193848829Y-100820000D01*
X193848829Y-101720000D01*
X193873277Y-101842907D01*
X193942898Y-101947102D01*
X194047093Y-102016723D01*
X194170000Y-102041171D01*
X194670000Y-102041171D01*
X194792907Y-102016723D01*
X194897102Y-101947102D01*
X194916565Y-101917974D01*
X194957669Y-101935000D01*
X195202331Y-101935000D01*
X195428370Y-101841372D01*
X195601372Y-101668370D01*
X195695000Y-101442331D01*
X195695000Y-101197669D01*
X195601372Y-100971630D01*
X195428370Y-100798628D01*
X195202331Y-100705000D01*
X194968296Y-100705000D01*
X194966723Y-100697093D01*
X194897102Y-100592898D01*
X194792907Y-100523277D01*
X194670000Y-100498829D01*
X194170000Y-100498829D01*
X194047093Y-100523277D01*
X193942898Y-100592898D01*
X193873277Y-100697093D01*
X193848829Y-100820000D01*
X193491171Y-100820000D01*
X193466723Y-100697093D01*
X193397102Y-100592898D01*
X193360000Y-100568107D01*
X193360000Y-100523214D01*
X193442907Y-100506723D01*
X193547102Y-100437102D01*
X193616723Y-100332907D01*
X193641171Y-100210000D01*
X193641171Y-99320000D01*
X195888829Y-99320000D01*
X195888829Y-100220000D01*
X195913277Y-100342907D01*
X195982898Y-100447102D01*
X196087093Y-100516723D01*
X196150001Y-100529236D01*
X196150000Y-100588107D01*
X196112898Y-100612898D01*
X196043277Y-100717093D01*
X196018829Y-100840000D01*
X196018829Y-101740000D01*
X196043277Y-101862907D01*
X196112898Y-101967102D01*
X196217093Y-102036723D01*
X196340000Y-102061171D01*
X196840000Y-102061171D01*
X196962907Y-102036723D01*
X197067102Y-101967102D01*
X197136723Y-101862907D01*
X197161171Y-101740000D01*
X197161171Y-100840000D01*
X197518829Y-100840000D01*
X197518829Y-101740000D01*
X197543277Y-101862907D01*
X197612898Y-101967102D01*
X197717093Y-102036723D01*
X197840000Y-102061171D01*
X198340000Y-102061171D01*
X198462907Y-102036723D01*
X198567102Y-101967102D01*
X198586565Y-101937974D01*
X198627669Y-101955000D01*
X198872331Y-101955000D01*
X199098370Y-101861372D01*
X199271372Y-101688370D01*
X199365000Y-101462331D01*
X199365000Y-101217669D01*
X199271372Y-100991630D01*
X199098370Y-100818628D01*
X198872331Y-100725000D01*
X198638296Y-100725000D01*
X198636723Y-100717093D01*
X198567102Y-100612898D01*
X198462907Y-100543277D01*
X198340000Y-100518829D01*
X197840000Y-100518829D01*
X197717093Y-100543277D01*
X197612898Y-100612898D01*
X197543277Y-100717093D01*
X197518829Y-100840000D01*
X197161171Y-100840000D01*
X197136723Y-100717093D01*
X197067102Y-100612898D01*
X197030000Y-100588107D01*
X197030000Y-100537193D01*
X197132907Y-100516723D01*
X197237102Y-100447102D01*
X197306723Y-100342907D01*
X197331171Y-100220000D01*
X197331171Y-99320000D01*
X197306723Y-99197093D01*
X197237102Y-99092898D01*
X197132907Y-99023277D01*
X197010000Y-98998829D01*
X196210000Y-98998829D01*
X196087093Y-99023277D01*
X195982898Y-99092898D01*
X195913277Y-99197093D01*
X195888829Y-99320000D01*
X193641171Y-99320000D01*
X193641171Y-99310000D01*
X193616723Y-99187093D01*
X193547102Y-99082898D01*
X193442907Y-99013277D01*
X193320000Y-98988829D01*
X192520000Y-98988829D01*
X192397093Y-99013277D01*
X192292898Y-99082898D01*
X192223277Y-99187093D01*
X192198829Y-99310000D01*
X189931171Y-99310000D01*
X189931171Y-99300000D01*
X189906723Y-99177093D01*
X189837102Y-99072898D01*
X189732907Y-99003277D01*
X189610000Y-98978829D01*
X189580000Y-98978829D01*
X189580000Y-98458575D01*
X189637093Y-98496723D01*
X189760000Y-98521171D01*
X190560000Y-98521171D01*
X190682907Y-98496723D01*
X190787102Y-98427102D01*
X190856723Y-98322907D01*
X190881171Y-98200000D01*
X190881171Y-97651083D01*
X190960485Y-97571769D01*
X190997222Y-97547222D01*
X191094471Y-97401679D01*
X191120000Y-97273336D01*
X191120000Y-97273332D01*
X191128619Y-97230001D01*
X191120000Y-97186670D01*
X191120000Y-96941171D01*
X191130000Y-96941171D01*
X191252907Y-96916723D01*
X191357102Y-96847102D01*
X191426723Y-96742907D01*
X191451171Y-96620000D01*
X191451171Y-96140000D01*
X191468829Y-96140000D01*
X191468829Y-96640000D01*
X191493277Y-96762907D01*
X191562898Y-96867102D01*
X191667093Y-96936723D01*
X191790000Y-96961171D01*
X192188918Y-96961171D01*
X193148829Y-97921083D01*
X193148829Y-98210000D01*
X193173277Y-98332907D01*
X193242898Y-98437102D01*
X193347093Y-98506723D01*
X193470000Y-98531171D01*
X194270000Y-98531171D01*
X194392907Y-98506723D01*
X194497102Y-98437102D01*
X194566723Y-98332907D01*
X194591171Y-98210000D01*
X194591171Y-97453425D01*
X195188231Y-98050485D01*
X195212778Y-98087222D01*
X195249515Y-98111769D01*
X195249516Y-98111770D01*
X195302381Y-98147093D01*
X195358321Y-98184471D01*
X195486664Y-98210000D01*
X195486669Y-98210000D01*
X195530000Y-98218619D01*
X195573331Y-98210000D01*
X196838829Y-98210000D01*
X196838829Y-98220000D01*
X196863277Y-98342907D01*
X196932898Y-98447102D01*
X197037093Y-98516723D01*
X197160000Y-98541171D01*
X197960000Y-98541171D01*
X198082907Y-98516723D01*
X198187102Y-98447102D01*
X198256723Y-98342907D01*
X198281171Y-98220000D01*
X198281171Y-97320000D01*
X198256723Y-97197093D01*
X198187102Y-97092898D01*
X198082907Y-97023277D01*
X197960000Y-96998829D01*
X197160000Y-96998829D01*
X197037093Y-97023277D01*
X196932898Y-97092898D01*
X196863277Y-97197093D01*
X196838829Y-97320000D01*
X196838829Y-97330000D01*
X195712254Y-97330000D01*
X194551171Y-96168918D01*
X194551171Y-96140000D01*
X194526723Y-96017093D01*
X194457102Y-95912898D01*
X194352907Y-95843277D01*
X194230000Y-95818829D01*
X193330000Y-95818829D01*
X193207093Y-95843277D01*
X193102898Y-95912898D01*
X193033277Y-96017093D01*
X193010000Y-96134113D01*
X192986723Y-96017093D01*
X192917102Y-95912898D01*
X192812907Y-95843277D01*
X192690000Y-95818829D01*
X191790000Y-95818829D01*
X191667093Y-95843277D01*
X191562898Y-95912898D01*
X191493277Y-96017093D01*
X191468829Y-96140000D01*
X191451171Y-96140000D01*
X191451171Y-96120000D01*
X191426723Y-95997093D01*
X191357102Y-95892898D01*
X191252907Y-95823277D01*
X191130000Y-95798829D01*
X190230000Y-95798829D01*
X190107093Y-95823277D01*
X190002898Y-95892898D01*
X189933277Y-95997093D01*
X189910000Y-96114113D01*
X189886723Y-95997093D01*
X189817102Y-95892898D01*
X189712907Y-95823277D01*
X189590000Y-95798829D01*
X188690000Y-95798829D01*
X188567093Y-95823277D01*
X188462898Y-95892898D01*
X188393277Y-95997093D01*
X188380000Y-96063840D01*
X188380000Y-95176160D01*
X188393277Y-95242907D01*
X188462898Y-95347102D01*
X188567093Y-95416723D01*
X188690000Y-95441171D01*
X189590000Y-95441171D01*
X189712907Y-95416723D01*
X189817102Y-95347102D01*
X189886723Y-95242907D01*
X189910000Y-95125887D01*
X189933277Y-95242907D01*
X190002898Y-95347102D01*
X190107093Y-95416723D01*
X190230000Y-95441171D01*
X191130000Y-95441171D01*
X191252907Y-95416723D01*
X191357102Y-95347102D01*
X191426723Y-95242907D01*
X191451171Y-95120000D01*
X191451171Y-94620000D01*
X191426723Y-94497093D01*
X191357102Y-94392898D01*
X191252907Y-94323277D01*
X191130000Y-94298829D01*
X191100539Y-94298829D01*
X191094471Y-94268321D01*
X190997222Y-94122778D01*
X190960485Y-94098231D01*
X189726028Y-92863775D01*
X189735000Y-92842114D01*
X189735000Y-92527253D01*
X191597514Y-94389768D01*
X191562898Y-94412898D01*
X191493277Y-94517093D01*
X191468829Y-94640000D01*
X191468829Y-95140000D01*
X191493277Y-95262907D01*
X191562898Y-95367102D01*
X191667093Y-95436723D01*
X191790000Y-95461171D01*
X192690000Y-95461171D01*
X192812907Y-95436723D01*
X192917102Y-95367102D01*
X192986723Y-95262907D01*
X193010000Y-95145887D01*
X193033277Y-95262907D01*
X193102898Y-95367102D01*
X193207093Y-95436723D01*
X193330000Y-95461171D01*
X194230000Y-95461171D01*
X194352907Y-95436723D01*
X194457102Y-95367102D01*
X194526723Y-95262907D01*
X194551171Y-95140000D01*
X194551171Y-94640000D01*
X194526723Y-94517093D01*
X194457102Y-94412898D01*
X194377935Y-94360000D01*
X195158829Y-94360000D01*
X195158829Y-94860000D01*
X195183277Y-94982907D01*
X195252898Y-95087102D01*
X195330920Y-95139235D01*
X195315000Y-95177669D01*
X195315000Y-95422331D01*
X195408628Y-95648370D01*
X195581630Y-95821372D01*
X195807669Y-95915000D01*
X196052331Y-95915000D01*
X196278370Y-95821372D01*
X196451372Y-95648370D01*
X196545000Y-95422331D01*
X196545000Y-95177669D01*
X196529080Y-95139235D01*
X196607102Y-95087102D01*
X196676723Y-94982907D01*
X196696198Y-94885000D01*
X200068829Y-94885000D01*
X200068829Y-95635000D01*
X200093277Y-95757907D01*
X200162898Y-95862102D01*
X200267093Y-95931723D01*
X200390000Y-95956171D01*
X201190000Y-95956171D01*
X201312907Y-95931723D01*
X201417102Y-95862102D01*
X201486723Y-95757907D01*
X201511171Y-95635000D01*
X201511171Y-95161083D01*
X201540000Y-95132254D01*
X201568829Y-95161082D01*
X201568829Y-95635000D01*
X201593277Y-95757907D01*
X201662898Y-95862102D01*
X201767093Y-95931723D01*
X201890000Y-95956171D01*
X202690000Y-95956171D01*
X202812907Y-95931723D01*
X202917102Y-95862102D01*
X202986723Y-95757907D01*
X203011171Y-95635000D01*
X203011171Y-94885000D01*
X202986723Y-94762093D01*
X202917102Y-94657898D01*
X202812907Y-94588277D01*
X202690000Y-94563829D01*
X202220000Y-94563829D01*
X202220000Y-94370000D01*
X207398829Y-94370000D01*
X207398829Y-94870000D01*
X207423277Y-94992907D01*
X207492898Y-95097102D01*
X207574164Y-95151402D01*
X207555000Y-95197669D01*
X207555000Y-95442331D01*
X207648628Y-95668370D01*
X207821630Y-95841372D01*
X208047669Y-95935000D01*
X208292331Y-95935000D01*
X208518370Y-95841372D01*
X208691372Y-95668370D01*
X208785000Y-95442331D01*
X208785000Y-95197669D01*
X208765836Y-95151402D01*
X208847102Y-95097102D01*
X208916723Y-94992907D01*
X208938187Y-94885000D01*
X212308829Y-94885000D01*
X212308829Y-95635000D01*
X212333277Y-95757907D01*
X212402898Y-95862102D01*
X212507093Y-95931723D01*
X212630000Y-95956171D01*
X213430000Y-95956171D01*
X213552907Y-95931723D01*
X213657102Y-95862102D01*
X213726723Y-95757907D01*
X213751171Y-95635000D01*
X213751171Y-95161083D01*
X213781637Y-95130616D01*
X213788230Y-95140483D01*
X213788232Y-95140485D01*
X213808829Y-95171310D01*
X213808829Y-95635000D01*
X213833277Y-95757907D01*
X213902898Y-95862102D01*
X214007093Y-95931723D01*
X214130000Y-95956171D01*
X214930000Y-95956171D01*
X215052907Y-95931723D01*
X215157102Y-95862102D01*
X215226723Y-95757907D01*
X215251171Y-95635000D01*
X215251171Y-94885000D01*
X215226723Y-94762093D01*
X215157102Y-94657898D01*
X215052907Y-94588277D01*
X214930000Y-94563829D01*
X214570000Y-94563829D01*
X214570000Y-94305000D01*
X219173829Y-94305000D01*
X219173829Y-94805000D01*
X219198277Y-94927907D01*
X219267898Y-95032102D01*
X219353359Y-95089205D01*
X219325000Y-95157669D01*
X219325000Y-95402331D01*
X219418628Y-95628370D01*
X219591630Y-95801372D01*
X219817669Y-95895000D01*
X220062331Y-95895000D01*
X220288370Y-95801372D01*
X220461372Y-95628370D01*
X220555000Y-95402331D01*
X220555000Y-95157669D01*
X220528809Y-95094438D01*
X220622102Y-95032102D01*
X220691723Y-94927907D01*
X220716171Y-94805000D01*
X220716171Y-94305000D01*
X220691723Y-94182093D01*
X220622102Y-94077898D01*
X220517907Y-94008277D01*
X220395000Y-93983829D01*
X219495000Y-93983829D01*
X219372093Y-94008277D01*
X219267898Y-94077898D01*
X219198277Y-94182093D01*
X219173829Y-94305000D01*
X214570000Y-94305000D01*
X214570000Y-94031480D01*
X214595000Y-93905795D01*
X214595000Y-93375000D01*
X215125795Y-93375000D01*
X215185000Y-93363224D01*
X215185000Y-93970000D01*
X215208978Y-94090545D01*
X215277261Y-94192739D01*
X215379455Y-94261022D01*
X215500000Y-94285000D01*
X217290000Y-94285000D01*
X217410545Y-94261022D01*
X217512739Y-94192739D01*
X217581022Y-94090545D01*
X217605000Y-93970000D01*
X217605000Y-92265887D01*
X217606171Y-92260000D01*
X217606171Y-91260000D01*
X217581723Y-91137093D01*
X217512102Y-91032898D01*
X217407907Y-90963277D01*
X217285000Y-90938829D01*
X216035000Y-90938829D01*
X216003977Y-90945000D01*
X214595000Y-90945000D01*
X214595000Y-90877253D01*
X214747253Y-90725000D01*
X214862331Y-90725000D01*
X215088370Y-90631372D01*
X215261372Y-90458370D01*
X215355000Y-90232331D01*
X215355000Y-89987669D01*
X215261372Y-89761630D01*
X215088370Y-89588628D01*
X214862331Y-89495000D01*
X214617669Y-89495000D01*
X214391630Y-89588628D01*
X214218628Y-89761630D01*
X214125354Y-89986815D01*
X213948566Y-90021980D01*
X213794754Y-90124754D01*
X213691980Y-90278567D01*
X213665000Y-90414206D01*
X213665001Y-90955795D01*
X213691981Y-91091434D01*
X213794755Y-91245246D01*
X213948567Y-91348020D01*
X214130000Y-91384109D01*
X214162320Y-91377680D01*
X214155891Y-91410000D01*
X214165000Y-91455795D01*
X214165000Y-91864205D01*
X214155891Y-91910000D01*
X214165000Y-91955795D01*
X214165000Y-92364205D01*
X214155891Y-92410000D01*
X214165000Y-92455795D01*
X214165000Y-92560000D01*
X214188978Y-92680545D01*
X214206522Y-92706802D01*
X214191980Y-92728566D01*
X214155891Y-92910000D01*
X214162320Y-92942320D01*
X214130000Y-92935891D01*
X213948566Y-92971980D01*
X213880000Y-93017795D01*
X213811433Y-92971980D01*
X213630000Y-92935891D01*
X213448566Y-92971980D01*
X213294754Y-93074754D01*
X213191980Y-93228567D01*
X213165000Y-93364206D01*
X213165001Y-93905795D01*
X213190000Y-94031477D01*
X213190001Y-94477745D01*
X213103917Y-94563829D01*
X212630000Y-94563829D01*
X212507093Y-94588277D01*
X212402898Y-94657898D01*
X212333277Y-94762093D01*
X212308829Y-94885000D01*
X208938187Y-94885000D01*
X208941171Y-94870000D01*
X208941171Y-94370000D01*
X208916723Y-94247093D01*
X208847102Y-94142898D01*
X208742907Y-94073277D01*
X208620000Y-94048829D01*
X207720000Y-94048829D01*
X207597093Y-94073277D01*
X207492898Y-94142898D01*
X207423277Y-94247093D01*
X207398829Y-94370000D01*
X202220000Y-94370000D01*
X202220000Y-94031480D01*
X202245000Y-93905795D01*
X202245000Y-93375000D01*
X202775795Y-93375000D01*
X202825000Y-93365213D01*
X202825000Y-94030000D01*
X202848978Y-94150545D01*
X202917261Y-94252739D01*
X203019455Y-94321022D01*
X203140000Y-94345000D01*
X205090000Y-94345000D01*
X205210545Y-94321022D01*
X205312739Y-94252739D01*
X205381022Y-94150545D01*
X205405000Y-94030000D01*
X205405000Y-92265887D01*
X205406171Y-92260000D01*
X205406171Y-91260000D01*
X205381723Y-91137093D01*
X205312102Y-91032898D01*
X205207907Y-90963277D01*
X205085000Y-90938829D01*
X203835000Y-90938829D01*
X203803977Y-90945000D01*
X202247253Y-90945000D01*
X202417253Y-90775000D01*
X202532331Y-90775000D01*
X202758370Y-90681372D01*
X202931372Y-90508370D01*
X203025000Y-90282331D01*
X203025000Y-90037669D01*
X202931372Y-89811630D01*
X202758370Y-89638628D01*
X202532331Y-89545000D01*
X202287669Y-89545000D01*
X202061630Y-89638628D01*
X201888628Y-89811630D01*
X201813673Y-89992589D01*
X201780000Y-89985891D01*
X201598566Y-90021980D01*
X201444754Y-90124754D01*
X201341980Y-90278567D01*
X201315000Y-90414206D01*
X201315001Y-90955795D01*
X201341981Y-91091434D01*
X201444755Y-91245246D01*
X201598567Y-91348020D01*
X201780000Y-91384109D01*
X201812320Y-91377680D01*
X201805891Y-91410000D01*
X201815000Y-91455795D01*
X201815000Y-91864205D01*
X201805891Y-91910000D01*
X201815000Y-91955795D01*
X201815000Y-92364205D01*
X201805891Y-92410000D01*
X201815000Y-92455795D01*
X201815000Y-92560000D01*
X201838978Y-92680545D01*
X201856522Y-92706802D01*
X201841980Y-92728566D01*
X201805891Y-92910000D01*
X201812320Y-92942320D01*
X201780000Y-92935891D01*
X201598566Y-92971980D01*
X201530000Y-93017795D01*
X201461433Y-92971980D01*
X201280000Y-92935891D01*
X201098566Y-92971980D01*
X200944754Y-93074754D01*
X200841980Y-93228567D01*
X200815000Y-93364206D01*
X200815001Y-93905795D01*
X200840000Y-94031477D01*
X200840001Y-94563829D01*
X200390000Y-94563829D01*
X200267093Y-94588277D01*
X200162898Y-94657898D01*
X200093277Y-94762093D01*
X200068829Y-94885000D01*
X196696198Y-94885000D01*
X196701171Y-94860000D01*
X196701171Y-94360000D01*
X196676723Y-94237093D01*
X196607102Y-94132898D01*
X196502907Y-94063277D01*
X196380000Y-94038829D01*
X195480000Y-94038829D01*
X195357093Y-94063277D01*
X195252898Y-94132898D01*
X195183277Y-94237093D01*
X195158829Y-94360000D01*
X194377935Y-94360000D01*
X194352907Y-94343277D01*
X194230000Y-94318829D01*
X194222419Y-94318829D01*
X194220000Y-94306669D01*
X194220000Y-94306664D01*
X194194471Y-94178321D01*
X194157358Y-94122778D01*
X194121770Y-94069516D01*
X194121769Y-94069515D01*
X194097222Y-94032778D01*
X194060485Y-94008231D01*
X189726028Y-89673775D01*
X189735000Y-89652114D01*
X189735000Y-89327886D01*
X189610924Y-89028339D01*
X189381661Y-88799076D01*
X189082114Y-88675000D01*
X188757886Y-88675000D01*
X188458339Y-88799076D01*
X188380000Y-88877415D01*
X188380000Y-86388539D01*
X188745000Y-86388539D01*
X188745000Y-86951461D01*
X188960421Y-87471533D01*
X189358467Y-87869579D01*
X189878539Y-88085000D01*
X190441461Y-88085000D01*
X190961533Y-87869579D01*
X191359579Y-87471533D01*
X191575000Y-86951461D01*
X191575000Y-86388539D01*
X191359579Y-85868467D01*
X190961533Y-85470421D01*
X190441461Y-85255000D01*
X189878539Y-85255000D01*
X189358467Y-85470421D01*
X188960421Y-85868467D01*
X188745000Y-86388539D01*
X188380000Y-86388539D01*
X188380000Y-84880000D01*
X194075000Y-84880000D01*
X194075000Y-87508977D01*
X194075000Y-87508977D01*
G37*
X194075000Y-87508977D02*
X194068829Y-87540000D01*
X194068829Y-88720750D01*
X194065000Y-88740000D01*
X194065000Y-90340000D01*
X194068829Y-90359250D01*
X194068829Y-91540000D01*
X194093277Y-91662907D01*
X194096399Y-91667579D01*
X194098978Y-91680545D01*
X194167261Y-91782739D01*
X194269455Y-91851022D01*
X194390000Y-91875000D01*
X198194531Y-91875000D01*
X198161630Y-91888628D01*
X197988628Y-92061630D01*
X197895000Y-92287669D01*
X197895000Y-92532331D01*
X197897692Y-92538829D01*
X197140000Y-92538829D01*
X197017093Y-92563277D01*
X196912898Y-92632898D01*
X196888107Y-92670000D01*
X196631893Y-92670000D01*
X196607102Y-92632898D01*
X196502907Y-92563277D01*
X196380000Y-92538829D01*
X195480000Y-92538829D01*
X195357093Y-92563277D01*
X195252898Y-92632898D01*
X195183277Y-92737093D01*
X195158829Y-92860000D01*
X195158829Y-93360000D01*
X195183277Y-93482907D01*
X195252898Y-93587102D01*
X195357093Y-93656723D01*
X195480000Y-93681171D01*
X196380000Y-93681171D01*
X196502907Y-93656723D01*
X196607102Y-93587102D01*
X196631893Y-93550000D01*
X196888107Y-93550000D01*
X196912898Y-93587102D01*
X197017093Y-93656723D01*
X197140000Y-93681171D01*
X197538918Y-93681171D01*
X197773231Y-93915485D01*
X197797778Y-93952222D01*
X197834515Y-93976769D01*
X197834516Y-93976770D01*
X197856382Y-93991380D01*
X197943321Y-94049471D01*
X198071664Y-94075000D01*
X198071668Y-94075000D01*
X198114999Y-94083619D01*
X198158330Y-94075000D01*
X199864409Y-94075000D01*
X199944755Y-94195246D01*
X200098567Y-94298020D01*
X200280000Y-94334109D01*
X200461434Y-94298020D01*
X200615246Y-94195246D01*
X200718020Y-94041434D01*
X200745000Y-93905795D01*
X200745000Y-93364205D01*
X200718020Y-93228566D01*
X200615246Y-93074754D01*
X200461433Y-92971980D01*
X200280000Y-92935891D01*
X200247680Y-92942320D01*
X200254109Y-92910000D01*
X200218020Y-92728566D01*
X200172206Y-92660000D01*
X200218020Y-92591434D01*
X200254109Y-92410000D01*
X200218020Y-92228566D01*
X200172206Y-92160000D01*
X200218020Y-92091434D01*
X200254109Y-91910000D01*
X200218020Y-91728566D01*
X200203478Y-91706802D01*
X200221022Y-91680545D01*
X200245000Y-91560000D01*
X200245000Y-91455795D01*
X200254109Y-91410000D01*
X200247680Y-91377680D01*
X200280000Y-91384109D01*
X200377898Y-91364636D01*
X200430000Y-91375000D01*
X200550545Y-91351022D01*
X200652739Y-91282739D01*
X200662739Y-91272739D01*
X200731022Y-91170545D01*
X200755000Y-91050000D01*
X200755000Y-84880000D01*
X206495000Y-84880000D01*
X206495000Y-87528977D01*
X206488829Y-87560000D01*
X206488829Y-88760000D01*
X206495000Y-88791023D01*
X206495000Y-90328977D01*
X206488829Y-90360000D01*
X206488829Y-91560000D01*
X206513277Y-91682907D01*
X206582898Y-91787102D01*
X206687093Y-91856723D01*
X206810000Y-91881171D01*
X210499633Y-91881171D01*
X210481630Y-91888628D01*
X210308628Y-92061630D01*
X210215000Y-92287669D01*
X210215000Y-92532331D01*
X210221834Y-92548829D01*
X209400000Y-92548829D01*
X209277093Y-92573277D01*
X209172898Y-92642898D01*
X209148107Y-92680000D01*
X208871893Y-92680000D01*
X208847102Y-92642898D01*
X208742907Y-92573277D01*
X208620000Y-92548829D01*
X207720000Y-92548829D01*
X207597093Y-92573277D01*
X207492898Y-92642898D01*
X207423277Y-92747093D01*
X207398829Y-92870000D01*
X207398829Y-93370000D01*
X207423277Y-93492907D01*
X207492898Y-93597102D01*
X207597093Y-93666723D01*
X207720000Y-93691171D01*
X208620000Y-93691171D01*
X208742907Y-93666723D01*
X208847102Y-93597102D01*
X208871893Y-93560000D01*
X209148107Y-93560000D01*
X209172898Y-93597102D01*
X209277093Y-93666723D01*
X209400000Y-93691171D01*
X209798917Y-93691171D01*
X210023231Y-93915485D01*
X210047778Y-93952222D01*
X210084515Y-93976769D01*
X210084516Y-93976770D01*
X210106382Y-93991380D01*
X210193321Y-94049471D01*
X210321664Y-94075000D01*
X210321669Y-94075000D01*
X210365000Y-94083619D01*
X210408331Y-94075000D01*
X212214409Y-94075000D01*
X212294755Y-94195246D01*
X212448567Y-94298020D01*
X212630000Y-94334109D01*
X212811434Y-94298020D01*
X212965246Y-94195246D01*
X213068020Y-94041434D01*
X213095000Y-93905795D01*
X213095000Y-93364205D01*
X213068020Y-93228566D01*
X212965246Y-93074754D01*
X212811433Y-92971980D01*
X212630000Y-92935891D01*
X212597680Y-92942320D01*
X212604109Y-92910000D01*
X212568020Y-92728566D01*
X212522206Y-92660000D01*
X212568020Y-92591434D01*
X212604109Y-92410000D01*
X212568020Y-92228566D01*
X212522206Y-92160000D01*
X212568020Y-92091434D01*
X212604109Y-91910000D01*
X212568020Y-91728566D01*
X212553478Y-91706802D01*
X212571022Y-91680545D01*
X212595000Y-91560000D01*
X212595000Y-91455795D01*
X212604109Y-91410000D01*
X212597680Y-91377680D01*
X212630000Y-91384109D01*
X212675795Y-91375000D01*
X212770000Y-91375000D01*
X212890545Y-91351022D01*
X212992739Y-91282739D01*
X213061022Y-91180545D01*
X213085000Y-91060000D01*
X213085000Y-91006069D01*
X213095000Y-90955795D01*
X213095000Y-90414205D01*
X213085000Y-90363931D01*
X213085000Y-89356296D01*
X213101171Y-89275000D01*
X213101171Y-88025000D01*
X213085000Y-87943704D01*
X213085000Y-87606023D01*
X213091171Y-87575000D01*
X213091171Y-86325000D01*
X213085000Y-86293977D01*
X213085000Y-84880000D01*
X218385000Y-84880000D01*
X218385000Y-87508977D01*
X218378829Y-87540000D01*
X218378829Y-88730750D01*
X218375000Y-88750000D01*
X218375000Y-90340000D01*
X218378829Y-90359250D01*
X218378829Y-91540000D01*
X218403277Y-91662907D01*
X218472898Y-91767102D01*
X218473976Y-91767822D01*
X218477261Y-91772739D01*
X218579455Y-91841022D01*
X218700000Y-91865000D01*
X222564531Y-91865000D01*
X222531630Y-91878628D01*
X222358628Y-92051630D01*
X222265000Y-92277669D01*
X222265000Y-92522331D01*
X222358628Y-92748370D01*
X222531630Y-92921372D01*
X222757669Y-93015000D01*
X223002331Y-93015000D01*
X223128380Y-92962789D01*
X223151980Y-93081434D01*
X223221181Y-93185000D01*
X222336171Y-93185000D01*
X222336171Y-92805000D01*
X222311723Y-92682093D01*
X222242102Y-92577898D01*
X222137907Y-92508277D01*
X222015000Y-92483829D01*
X221115000Y-92483829D01*
X220992093Y-92508277D01*
X220887898Y-92577898D01*
X220863107Y-92615000D01*
X220646893Y-92615000D01*
X220622102Y-92577898D01*
X220517907Y-92508277D01*
X220395000Y-92483829D01*
X219495000Y-92483829D01*
X219372093Y-92508277D01*
X219267898Y-92577898D01*
X219198277Y-92682093D01*
X219173829Y-92805000D01*
X219173829Y-93305000D01*
X219198277Y-93427907D01*
X219267898Y-93532102D01*
X219372093Y-93601723D01*
X219495000Y-93626171D01*
X220395000Y-93626171D01*
X220517907Y-93601723D01*
X220622102Y-93532102D01*
X220646893Y-93495000D01*
X220863107Y-93495000D01*
X220887898Y-93532102D01*
X220992093Y-93601723D01*
X221115000Y-93626171D01*
X221513918Y-93626171D01*
X221793231Y-93905485D01*
X221817778Y-93942222D01*
X221854515Y-93966769D01*
X221854516Y-93966770D01*
X221891348Y-93991380D01*
X221963321Y-94039471D01*
X222091664Y-94065000D01*
X222091669Y-94065000D01*
X222135000Y-94073619D01*
X222178331Y-94065000D01*
X224124409Y-94065000D01*
X224204755Y-94185246D01*
X224358567Y-94288020D01*
X224540000Y-94324109D01*
X224721434Y-94288020D01*
X224875246Y-94185246D01*
X224978020Y-94031434D01*
X225005000Y-93895795D01*
X225005000Y-93354205D01*
X224978020Y-93218566D01*
X224875246Y-93064754D01*
X224721433Y-92961980D01*
X224540000Y-92925891D01*
X224507680Y-92932320D01*
X224514109Y-92900000D01*
X224478020Y-92718566D01*
X224432206Y-92650000D01*
X224478020Y-92581434D01*
X224514109Y-92400000D01*
X224478020Y-92218566D01*
X224432206Y-92150000D01*
X224478020Y-92081434D01*
X224514109Y-91900000D01*
X224478020Y-91718566D01*
X224463478Y-91696802D01*
X224481022Y-91670545D01*
X224505000Y-91550000D01*
X224505000Y-91445795D01*
X224514109Y-91400000D01*
X224507680Y-91367680D01*
X224540000Y-91374109D01*
X224585795Y-91365000D01*
X224690000Y-91365000D01*
X224810545Y-91341022D01*
X224912739Y-91272739D01*
X224981022Y-91170545D01*
X225005000Y-91050000D01*
X225005000Y-89296023D01*
X225011171Y-89265000D01*
X225011171Y-88015000D01*
X225005000Y-87983977D01*
X225005000Y-87596023D01*
X225011171Y-87565000D01*
X225011171Y-86368539D01*
X227985000Y-86368539D01*
X227985000Y-86931461D01*
X228200421Y-87451533D01*
X228598467Y-87849579D01*
X229118539Y-88065000D01*
X229681461Y-88065000D01*
X230201533Y-87849579D01*
X230599579Y-87451533D01*
X230815000Y-86931461D01*
X230815000Y-86368539D01*
X230599579Y-85848467D01*
X230201533Y-85450421D01*
X229681461Y-85235000D01*
X229118539Y-85235000D01*
X228598467Y-85450421D01*
X228200421Y-85848467D01*
X227985000Y-86368539D01*
X225011171Y-86368539D01*
X225011171Y-86315000D01*
X225005000Y-86283977D01*
X225005000Y-84880000D01*
X231180001Y-84880000D01*
X231180001Y-99528829D01*
X229760000Y-99528829D01*
X229637093Y-99553277D01*
X229532898Y-99622898D01*
X229463277Y-99727093D01*
X229438829Y-99850000D01*
X229438829Y-100375000D01*
X227411468Y-100375000D01*
X227331372Y-100181630D01*
X227158370Y-100008628D01*
X226932331Y-99915000D01*
X226687669Y-99915000D01*
X226461630Y-100008628D01*
X226288628Y-100181630D01*
X226208532Y-100375000D01*
X225361171Y-100375000D01*
X225361171Y-99590000D01*
X225336723Y-99467093D01*
X225267102Y-99362898D01*
X225162907Y-99293277D01*
X225040000Y-99268829D01*
X224760000Y-99268829D01*
X224650000Y-99290710D01*
X224540000Y-99268829D01*
X224260000Y-99268829D01*
X224228977Y-99275000D01*
X224071023Y-99275000D01*
X224040000Y-99268829D01*
X223760000Y-99268829D01*
X223650000Y-99290710D01*
X223540000Y-99268829D01*
X223260000Y-99268829D01*
X223228977Y-99275000D01*
X223071023Y-99275000D01*
X223040000Y-99268829D01*
X222760000Y-99268829D01*
X222637093Y-99293277D01*
X222532898Y-99362898D01*
X222532178Y-99363976D01*
X222527261Y-99367261D01*
X222067261Y-99827261D01*
X221998978Y-99929455D01*
X221975000Y-100050000D01*
X221975000Y-101105000D01*
X220750273Y-101105000D01*
X220700000Y-101095000D01*
X220690000Y-101095000D01*
X220670750Y-101098829D01*
X219775000Y-101098829D01*
X219775000Y-98845000D01*
X221220000Y-98845000D01*
X221340545Y-98821022D01*
X221442739Y-98752739D01*
X222390478Y-97805000D01*
X222728977Y-97805000D01*
X222760000Y-97811171D01*
X223040000Y-97811171D01*
X223150000Y-97789290D01*
X223260000Y-97811171D01*
X223540000Y-97811171D01*
X223650000Y-97789290D01*
X223760000Y-97811171D01*
X224040000Y-97811171D01*
X224150000Y-97789290D01*
X224260000Y-97811171D01*
X224540000Y-97811171D01*
X224650000Y-97789290D01*
X224760000Y-97811171D01*
X225040000Y-97811171D01*
X225162907Y-97786723D01*
X225267102Y-97717102D01*
X225336723Y-97612907D01*
X225361171Y-97490000D01*
X225361171Y-96640000D01*
X225336723Y-96517093D01*
X225267102Y-96412898D01*
X225162907Y-96343277D01*
X225040000Y-96318829D01*
X224834463Y-96318829D01*
X224814471Y-96218321D01*
X224775825Y-96160483D01*
X224741770Y-96109516D01*
X224741769Y-96109515D01*
X224717222Y-96072778D01*
X224680485Y-96048231D01*
X224568101Y-95935848D01*
X224620000Y-95946171D01*
X225420000Y-95946171D01*
X225542907Y-95921723D01*
X225647102Y-95852102D01*
X225716723Y-95747907D01*
X225741171Y-95625000D01*
X225741171Y-95151083D01*
X225770000Y-95122253D01*
X225798829Y-95151082D01*
X225798829Y-95625000D01*
X225823277Y-95747907D01*
X225892898Y-95852102D01*
X225997093Y-95921723D01*
X226120000Y-95946171D01*
X226920000Y-95946171D01*
X227042907Y-95921723D01*
X227147102Y-95852102D01*
X227216723Y-95747907D01*
X227241171Y-95625000D01*
X227241171Y-94875000D01*
X227216723Y-94752093D01*
X227147102Y-94647898D01*
X227042907Y-94578277D01*
X226920000Y-94553829D01*
X226480000Y-94553829D01*
X226480000Y-94021480D01*
X226505000Y-93895795D01*
X226505000Y-93365000D01*
X227035795Y-93365000D01*
X227085000Y-93355213D01*
X227085000Y-94010000D01*
X227108978Y-94130545D01*
X227177261Y-94232739D01*
X227279455Y-94301022D01*
X227400000Y-94325000D01*
X229180000Y-94325000D01*
X229300545Y-94301022D01*
X229402739Y-94232739D01*
X229471022Y-94130545D01*
X229495000Y-94010000D01*
X229495000Y-92255887D01*
X229496171Y-92250000D01*
X229496171Y-91250000D01*
X229471723Y-91127093D01*
X229402102Y-91022898D01*
X229297907Y-90953277D01*
X229175000Y-90928829D01*
X227925000Y-90928829D01*
X227893977Y-90935000D01*
X226505000Y-90935000D01*
X226505000Y-90787253D01*
X226627253Y-90665000D01*
X226742331Y-90665000D01*
X226968370Y-90571372D01*
X227141372Y-90398370D01*
X227235000Y-90172331D01*
X227235000Y-89927669D01*
X227141372Y-89701630D01*
X226968370Y-89528628D01*
X226742331Y-89435000D01*
X226497669Y-89435000D01*
X226271630Y-89528628D01*
X226098628Y-89701630D01*
X226005000Y-89927669D01*
X226005000Y-89982853D01*
X225858566Y-90011980D01*
X225704754Y-90114754D01*
X225601980Y-90268567D01*
X225575000Y-90404206D01*
X225575001Y-90945795D01*
X225601981Y-91081434D01*
X225704755Y-91235246D01*
X225858567Y-91338020D01*
X226040000Y-91374109D01*
X226072320Y-91367680D01*
X226065891Y-91400000D01*
X226075000Y-91445795D01*
X226075000Y-91854205D01*
X226065891Y-91900000D01*
X226075000Y-91945795D01*
X226075000Y-92354205D01*
X226065891Y-92400000D01*
X226075000Y-92445795D01*
X226075000Y-92550000D01*
X226098978Y-92670545D01*
X226116522Y-92696802D01*
X226101980Y-92718566D01*
X226065891Y-92900000D01*
X226072320Y-92932320D01*
X226040000Y-92925891D01*
X225858566Y-92961980D01*
X225790000Y-93007795D01*
X225721433Y-92961980D01*
X225540000Y-92925891D01*
X225358566Y-92961980D01*
X225204754Y-93064754D01*
X225101980Y-93218567D01*
X225075000Y-93354206D01*
X225075001Y-93895795D01*
X225100000Y-94021477D01*
X225100001Y-94547745D01*
X225093917Y-94553829D01*
X224620000Y-94553829D01*
X224497093Y-94578277D01*
X224392898Y-94647898D01*
X224323277Y-94752093D01*
X224298829Y-94875000D01*
X224298829Y-95419087D01*
X224238370Y-95358628D01*
X224012331Y-95265000D01*
X223767669Y-95265000D01*
X223541630Y-95358628D01*
X223440000Y-95460258D01*
X223348370Y-95368628D01*
X223122331Y-95275000D01*
X222877669Y-95275000D01*
X222651630Y-95368628D01*
X222478628Y-95541630D01*
X222385000Y-95767669D01*
X222385000Y-96012331D01*
X222478628Y-96238370D01*
X222565258Y-96325000D01*
X219160000Y-96325000D01*
X219039455Y-96348978D01*
X218937261Y-96417261D01*
X218177261Y-97177261D01*
X218108978Y-97279455D01*
X218085000Y-97400000D01*
X218085000Y-101105000D01*
X217425000Y-101105000D01*
X217425000Y-98270000D01*
X217401022Y-98149455D01*
X217332739Y-98047261D01*
X217230545Y-97978978D01*
X217110000Y-97955000D01*
X214476023Y-97955000D01*
X214445000Y-97948829D01*
X213865000Y-97948829D01*
X213865000Y-96710000D01*
X213856246Y-96665991D01*
X213831317Y-96628683D01*
X213794009Y-96603754D01*
X213750000Y-96595000D01*
X206660000Y-96595000D01*
X206615991Y-96603754D01*
X206578683Y-96628683D01*
X206553754Y-96665991D01*
X206545000Y-96710000D01*
X206545000Y-96730000D01*
X206550901Y-96766366D01*
X206573123Y-96805348D01*
X206585000Y-96814566D01*
X206585000Y-97948829D01*
X205995000Y-97948829D01*
X205963977Y-97955000D01*
X205560000Y-97955000D01*
X205439455Y-97978978D01*
X205337261Y-98047261D01*
X203309127Y-100075395D01*
X203297898Y-100082898D01*
X203228277Y-100187093D01*
X203203829Y-100310000D01*
X203203829Y-101110000D01*
X203228277Y-101232907D01*
X203297898Y-101337102D01*
X203402093Y-101406723D01*
X203525000Y-101431171D01*
X204275000Y-101431171D01*
X204306023Y-101425000D01*
X204325000Y-101425000D01*
X204325000Y-101498775D01*
X204275000Y-101488829D01*
X203525000Y-101488829D01*
X203402093Y-101513277D01*
X203297898Y-101582898D01*
X203228277Y-101687093D01*
X203203829Y-101810000D01*
X203203829Y-102610000D01*
X203207945Y-102630691D01*
X202896171Y-102318918D01*
X202896171Y-101820000D01*
X202871723Y-101697093D01*
X202802102Y-101592898D01*
X202697907Y-101523277D01*
X202575000Y-101498829D01*
X201825000Y-101498829D01*
X201702093Y-101523277D01*
X201597898Y-101592898D01*
X201528277Y-101697093D01*
X201503829Y-101820000D01*
X201503829Y-102620000D01*
X201528277Y-102742907D01*
X201597898Y-102847102D01*
X201702093Y-102916723D01*
X201825000Y-102941171D01*
X202273918Y-102941171D01*
X202853231Y-103520485D01*
X202877778Y-103557222D01*
X202914515Y-103581769D01*
X203023319Y-103654470D01*
X203023320Y-103654470D01*
X203023321Y-103654471D01*
X203037468Y-103657285D01*
X203058628Y-103708370D01*
X203231630Y-103881372D01*
X203350001Y-103930403D01*
X203350000Y-104343829D01*
X203140000Y-104343829D01*
X203040000Y-104363720D01*
X202940000Y-104343829D01*
X202640000Y-104343829D01*
X202517093Y-104368277D01*
X202412898Y-104437898D01*
X202343277Y-104542093D01*
X202318829Y-104665000D01*
X202318829Y-105053351D01*
X201482739Y-104217261D01*
X201380545Y-104148978D01*
X201260000Y-104125000D01*
X190801023Y-104125000D01*
X190770000Y-104118829D01*
X188380000Y-104118829D01*
X188380000Y-96676160D01*
X188393277Y-96742907D01*
X188462898Y-96847102D01*
X188567093Y-96916723D01*
X188690000Y-96941171D01*
X188700000Y-96941171D01*
X188700001Y-99000709D01*
X188687093Y-99003277D01*
X188582898Y-99072898D01*
X188513277Y-99177093D01*
X188488829Y-99300000D01*
X188488829Y-100200000D01*
X188513277Y-100322907D01*
X188582898Y-100427102D01*
X188687093Y-100496723D01*
X188810000Y-100521171D01*
X189610000Y-100521171D01*
X189732907Y-100496723D01*
X189837102Y-100427102D01*
X189906723Y-100322907D01*
X189931171Y-100200000D01*
X189931171Y-99310000D01*
X192198829Y-99310000D01*
X192198829Y-100210000D01*
X192223277Y-100332907D01*
X192292898Y-100437102D01*
X192397093Y-100506723D01*
X192480000Y-100523215D01*
X192480000Y-100568107D01*
X192442898Y-100592898D01*
X192373277Y-100697093D01*
X192348829Y-100820000D01*
X192348829Y-101720000D01*
X192373277Y-101842907D01*
X192442898Y-101947102D01*
X192547093Y-102016723D01*
X192670000Y-102041171D01*
X193170000Y-102041171D01*
X193292907Y-102016723D01*
X193397102Y-101947102D01*
X193466723Y-101842907D01*
X193491171Y-101720000D01*
X193491171Y-100820000D01*
X193848829Y-100820000D01*
X193848829Y-101720000D01*
X193873277Y-101842907D01*
X193942898Y-101947102D01*
X194047093Y-102016723D01*
X194170000Y-102041171D01*
X194670000Y-102041171D01*
X194792907Y-102016723D01*
X194897102Y-101947102D01*
X194916565Y-101917974D01*
X194957669Y-101935000D01*
X195202331Y-101935000D01*
X195428370Y-101841372D01*
X195601372Y-101668370D01*
X195695000Y-101442331D01*
X195695000Y-101197669D01*
X195601372Y-100971630D01*
X195428370Y-100798628D01*
X195202331Y-100705000D01*
X194968296Y-100705000D01*
X194966723Y-100697093D01*
X194897102Y-100592898D01*
X194792907Y-100523277D01*
X194670000Y-100498829D01*
X194170000Y-100498829D01*
X194047093Y-100523277D01*
X193942898Y-100592898D01*
X193873277Y-100697093D01*
X193848829Y-100820000D01*
X193491171Y-100820000D01*
X193466723Y-100697093D01*
X193397102Y-100592898D01*
X193360000Y-100568107D01*
X193360000Y-100523214D01*
X193442907Y-100506723D01*
X193547102Y-100437102D01*
X193616723Y-100332907D01*
X193641171Y-100210000D01*
X193641171Y-99320000D01*
X195888829Y-99320000D01*
X195888829Y-100220000D01*
X195913277Y-100342907D01*
X195982898Y-100447102D01*
X196087093Y-100516723D01*
X196150001Y-100529236D01*
X196150000Y-100588107D01*
X196112898Y-100612898D01*
X196043277Y-100717093D01*
X196018829Y-100840000D01*
X196018829Y-101740000D01*
X196043277Y-101862907D01*
X196112898Y-101967102D01*
X196217093Y-102036723D01*
X196340000Y-102061171D01*
X196840000Y-102061171D01*
X196962907Y-102036723D01*
X197067102Y-101967102D01*
X197136723Y-101862907D01*
X197161171Y-101740000D01*
X197161171Y-100840000D01*
X197518829Y-100840000D01*
X197518829Y-101740000D01*
X197543277Y-101862907D01*
X197612898Y-101967102D01*
X197717093Y-102036723D01*
X197840000Y-102061171D01*
X198340000Y-102061171D01*
X198462907Y-102036723D01*
X198567102Y-101967102D01*
X198586565Y-101937974D01*
X198627669Y-101955000D01*
X198872331Y-101955000D01*
X199098370Y-101861372D01*
X199271372Y-101688370D01*
X199365000Y-101462331D01*
X199365000Y-101217669D01*
X199271372Y-100991630D01*
X199098370Y-100818628D01*
X198872331Y-100725000D01*
X198638296Y-100725000D01*
X198636723Y-100717093D01*
X198567102Y-100612898D01*
X198462907Y-100543277D01*
X198340000Y-100518829D01*
X197840000Y-100518829D01*
X197717093Y-100543277D01*
X197612898Y-100612898D01*
X197543277Y-100717093D01*
X197518829Y-100840000D01*
X197161171Y-100840000D01*
X197136723Y-100717093D01*
X197067102Y-100612898D01*
X197030000Y-100588107D01*
X197030000Y-100537193D01*
X197132907Y-100516723D01*
X197237102Y-100447102D01*
X197306723Y-100342907D01*
X197331171Y-100220000D01*
X197331171Y-99320000D01*
X197306723Y-99197093D01*
X197237102Y-99092898D01*
X197132907Y-99023277D01*
X197010000Y-98998829D01*
X196210000Y-98998829D01*
X196087093Y-99023277D01*
X195982898Y-99092898D01*
X195913277Y-99197093D01*
X195888829Y-99320000D01*
X193641171Y-99320000D01*
X193641171Y-99310000D01*
X193616723Y-99187093D01*
X193547102Y-99082898D01*
X193442907Y-99013277D01*
X193320000Y-98988829D01*
X192520000Y-98988829D01*
X192397093Y-99013277D01*
X192292898Y-99082898D01*
X192223277Y-99187093D01*
X192198829Y-99310000D01*
X189931171Y-99310000D01*
X189931171Y-99300000D01*
X189906723Y-99177093D01*
X189837102Y-99072898D01*
X189732907Y-99003277D01*
X189610000Y-98978829D01*
X189580000Y-98978829D01*
X189580000Y-98458575D01*
X189637093Y-98496723D01*
X189760000Y-98521171D01*
X190560000Y-98521171D01*
X190682907Y-98496723D01*
X190787102Y-98427102D01*
X190856723Y-98322907D01*
X190881171Y-98200000D01*
X190881171Y-97651083D01*
X190960485Y-97571769D01*
X190997222Y-97547222D01*
X191094471Y-97401679D01*
X191120000Y-97273336D01*
X191120000Y-97273332D01*
X191128619Y-97230001D01*
X191120000Y-97186670D01*
X191120000Y-96941171D01*
X191130000Y-96941171D01*
X191252907Y-96916723D01*
X191357102Y-96847102D01*
X191426723Y-96742907D01*
X191451171Y-96620000D01*
X191451171Y-96140000D01*
X191468829Y-96140000D01*
X191468829Y-96640000D01*
X191493277Y-96762907D01*
X191562898Y-96867102D01*
X191667093Y-96936723D01*
X191790000Y-96961171D01*
X192188918Y-96961171D01*
X193148829Y-97921083D01*
X193148829Y-98210000D01*
X193173277Y-98332907D01*
X193242898Y-98437102D01*
X193347093Y-98506723D01*
X193470000Y-98531171D01*
X194270000Y-98531171D01*
X194392907Y-98506723D01*
X194497102Y-98437102D01*
X194566723Y-98332907D01*
X194591171Y-98210000D01*
X194591171Y-97453425D01*
X195188231Y-98050485D01*
X195212778Y-98087222D01*
X195249515Y-98111769D01*
X195249516Y-98111770D01*
X195302381Y-98147093D01*
X195358321Y-98184471D01*
X195486664Y-98210000D01*
X195486669Y-98210000D01*
X195530000Y-98218619D01*
X195573331Y-98210000D01*
X196838829Y-98210000D01*
X196838829Y-98220000D01*
X196863277Y-98342907D01*
X196932898Y-98447102D01*
X197037093Y-98516723D01*
X197160000Y-98541171D01*
X197960000Y-98541171D01*
X198082907Y-98516723D01*
X198187102Y-98447102D01*
X198256723Y-98342907D01*
X198281171Y-98220000D01*
X198281171Y-97320000D01*
X198256723Y-97197093D01*
X198187102Y-97092898D01*
X198082907Y-97023277D01*
X197960000Y-96998829D01*
X197160000Y-96998829D01*
X197037093Y-97023277D01*
X196932898Y-97092898D01*
X196863277Y-97197093D01*
X196838829Y-97320000D01*
X196838829Y-97330000D01*
X195712254Y-97330000D01*
X194551171Y-96168918D01*
X194551171Y-96140000D01*
X194526723Y-96017093D01*
X194457102Y-95912898D01*
X194352907Y-95843277D01*
X194230000Y-95818829D01*
X193330000Y-95818829D01*
X193207093Y-95843277D01*
X193102898Y-95912898D01*
X193033277Y-96017093D01*
X193010000Y-96134113D01*
X192986723Y-96017093D01*
X192917102Y-95912898D01*
X192812907Y-95843277D01*
X192690000Y-95818829D01*
X191790000Y-95818829D01*
X191667093Y-95843277D01*
X191562898Y-95912898D01*
X191493277Y-96017093D01*
X191468829Y-96140000D01*
X191451171Y-96140000D01*
X191451171Y-96120000D01*
X191426723Y-95997093D01*
X191357102Y-95892898D01*
X191252907Y-95823277D01*
X191130000Y-95798829D01*
X190230000Y-95798829D01*
X190107093Y-95823277D01*
X190002898Y-95892898D01*
X189933277Y-95997093D01*
X189910000Y-96114113D01*
X189886723Y-95997093D01*
X189817102Y-95892898D01*
X189712907Y-95823277D01*
X189590000Y-95798829D01*
X188690000Y-95798829D01*
X188567093Y-95823277D01*
X188462898Y-95892898D01*
X188393277Y-95997093D01*
X188380000Y-96063840D01*
X188380000Y-95176160D01*
X188393277Y-95242907D01*
X188462898Y-95347102D01*
X188567093Y-95416723D01*
X188690000Y-95441171D01*
X189590000Y-95441171D01*
X189712907Y-95416723D01*
X189817102Y-95347102D01*
X189886723Y-95242907D01*
X189910000Y-95125887D01*
X189933277Y-95242907D01*
X190002898Y-95347102D01*
X190107093Y-95416723D01*
X190230000Y-95441171D01*
X191130000Y-95441171D01*
X191252907Y-95416723D01*
X191357102Y-95347102D01*
X191426723Y-95242907D01*
X191451171Y-95120000D01*
X191451171Y-94620000D01*
X191426723Y-94497093D01*
X191357102Y-94392898D01*
X191252907Y-94323277D01*
X191130000Y-94298829D01*
X191100539Y-94298829D01*
X191094471Y-94268321D01*
X190997222Y-94122778D01*
X190960485Y-94098231D01*
X189726028Y-92863775D01*
X189735000Y-92842114D01*
X189735000Y-92527253D01*
X191597514Y-94389768D01*
X191562898Y-94412898D01*
X191493277Y-94517093D01*
X191468829Y-94640000D01*
X191468829Y-95140000D01*
X191493277Y-95262907D01*
X191562898Y-95367102D01*
X191667093Y-95436723D01*
X191790000Y-95461171D01*
X192690000Y-95461171D01*
X192812907Y-95436723D01*
X192917102Y-95367102D01*
X192986723Y-95262907D01*
X193010000Y-95145887D01*
X193033277Y-95262907D01*
X193102898Y-95367102D01*
X193207093Y-95436723D01*
X193330000Y-95461171D01*
X194230000Y-95461171D01*
X194352907Y-95436723D01*
X194457102Y-95367102D01*
X194526723Y-95262907D01*
X194551171Y-95140000D01*
X194551171Y-94640000D01*
X194526723Y-94517093D01*
X194457102Y-94412898D01*
X194377935Y-94360000D01*
X195158829Y-94360000D01*
X195158829Y-94860000D01*
X195183277Y-94982907D01*
X195252898Y-95087102D01*
X195330920Y-95139235D01*
X195315000Y-95177669D01*
X195315000Y-95422331D01*
X195408628Y-95648370D01*
X195581630Y-95821372D01*
X195807669Y-95915000D01*
X196052331Y-95915000D01*
X196278370Y-95821372D01*
X196451372Y-95648370D01*
X196545000Y-95422331D01*
X196545000Y-95177669D01*
X196529080Y-95139235D01*
X196607102Y-95087102D01*
X196676723Y-94982907D01*
X196696198Y-94885000D01*
X200068829Y-94885000D01*
X200068829Y-95635000D01*
X200093277Y-95757907D01*
X200162898Y-95862102D01*
X200267093Y-95931723D01*
X200390000Y-95956171D01*
X201190000Y-95956171D01*
X201312907Y-95931723D01*
X201417102Y-95862102D01*
X201486723Y-95757907D01*
X201511171Y-95635000D01*
X201511171Y-95161083D01*
X201540000Y-95132254D01*
X201568829Y-95161082D01*
X201568829Y-95635000D01*
X201593277Y-95757907D01*
X201662898Y-95862102D01*
X201767093Y-95931723D01*
X201890000Y-95956171D01*
X202690000Y-95956171D01*
X202812907Y-95931723D01*
X202917102Y-95862102D01*
X202986723Y-95757907D01*
X203011171Y-95635000D01*
X203011171Y-94885000D01*
X202986723Y-94762093D01*
X202917102Y-94657898D01*
X202812907Y-94588277D01*
X202690000Y-94563829D01*
X202220000Y-94563829D01*
X202220000Y-94370000D01*
X207398829Y-94370000D01*
X207398829Y-94870000D01*
X207423277Y-94992907D01*
X207492898Y-95097102D01*
X207574164Y-95151402D01*
X207555000Y-95197669D01*
X207555000Y-95442331D01*
X207648628Y-95668370D01*
X207821630Y-95841372D01*
X208047669Y-95935000D01*
X208292331Y-95935000D01*
X208518370Y-95841372D01*
X208691372Y-95668370D01*
X208785000Y-95442331D01*
X208785000Y-95197669D01*
X208765836Y-95151402D01*
X208847102Y-95097102D01*
X208916723Y-94992907D01*
X208938187Y-94885000D01*
X212308829Y-94885000D01*
X212308829Y-95635000D01*
X212333277Y-95757907D01*
X212402898Y-95862102D01*
X212507093Y-95931723D01*
X212630000Y-95956171D01*
X213430000Y-95956171D01*
X213552907Y-95931723D01*
X213657102Y-95862102D01*
X213726723Y-95757907D01*
X213751171Y-95635000D01*
X213751171Y-95161083D01*
X213781637Y-95130616D01*
X213788230Y-95140483D01*
X213788232Y-95140485D01*
X213808829Y-95171310D01*
X213808829Y-95635000D01*
X213833277Y-95757907D01*
X213902898Y-95862102D01*
X214007093Y-95931723D01*
X214130000Y-95956171D01*
X214930000Y-95956171D01*
X215052907Y-95931723D01*
X215157102Y-95862102D01*
X215226723Y-95757907D01*
X215251171Y-95635000D01*
X215251171Y-94885000D01*
X215226723Y-94762093D01*
X215157102Y-94657898D01*
X215052907Y-94588277D01*
X214930000Y-94563829D01*
X214570000Y-94563829D01*
X214570000Y-94305000D01*
X219173829Y-94305000D01*
X219173829Y-94805000D01*
X219198277Y-94927907D01*
X219267898Y-95032102D01*
X219353359Y-95089205D01*
X219325000Y-95157669D01*
X219325000Y-95402331D01*
X219418628Y-95628370D01*
X219591630Y-95801372D01*
X219817669Y-95895000D01*
X220062331Y-95895000D01*
X220288370Y-95801372D01*
X220461372Y-95628370D01*
X220555000Y-95402331D01*
X220555000Y-95157669D01*
X220528809Y-95094438D01*
X220622102Y-95032102D01*
X220691723Y-94927907D01*
X220716171Y-94805000D01*
X220716171Y-94305000D01*
X220691723Y-94182093D01*
X220622102Y-94077898D01*
X220517907Y-94008277D01*
X220395000Y-93983829D01*
X219495000Y-93983829D01*
X219372093Y-94008277D01*
X219267898Y-94077898D01*
X219198277Y-94182093D01*
X219173829Y-94305000D01*
X214570000Y-94305000D01*
X214570000Y-94031480D01*
X214595000Y-93905795D01*
X214595000Y-93375000D01*
X215125795Y-93375000D01*
X215185000Y-93363224D01*
X215185000Y-93970000D01*
X215208978Y-94090545D01*
X215277261Y-94192739D01*
X215379455Y-94261022D01*
X215500000Y-94285000D01*
X217290000Y-94285000D01*
X217410545Y-94261022D01*
X217512739Y-94192739D01*
X217581022Y-94090545D01*
X217605000Y-93970000D01*
X217605000Y-92265887D01*
X217606171Y-92260000D01*
X217606171Y-91260000D01*
X217581723Y-91137093D01*
X217512102Y-91032898D01*
X217407907Y-90963277D01*
X217285000Y-90938829D01*
X216035000Y-90938829D01*
X216003977Y-90945000D01*
X214595000Y-90945000D01*
X214595000Y-90877253D01*
X214747253Y-90725000D01*
X214862331Y-90725000D01*
X215088370Y-90631372D01*
X215261372Y-90458370D01*
X215355000Y-90232331D01*
X215355000Y-89987669D01*
X215261372Y-89761630D01*
X215088370Y-89588628D01*
X214862331Y-89495000D01*
X214617669Y-89495000D01*
X214391630Y-89588628D01*
X214218628Y-89761630D01*
X214125354Y-89986815D01*
X213948566Y-90021980D01*
X213794754Y-90124754D01*
X213691980Y-90278567D01*
X213665000Y-90414206D01*
X213665001Y-90955795D01*
X213691981Y-91091434D01*
X213794755Y-91245246D01*
X213948567Y-91348020D01*
X214130000Y-91384109D01*
X214162320Y-91377680D01*
X214155891Y-91410000D01*
X214165000Y-91455795D01*
X214165000Y-91864205D01*
X214155891Y-91910000D01*
X214165000Y-91955795D01*
X214165000Y-92364205D01*
X214155891Y-92410000D01*
X214165000Y-92455795D01*
X214165000Y-92560000D01*
X214188978Y-92680545D01*
X214206522Y-92706802D01*
X214191980Y-92728566D01*
X214155891Y-92910000D01*
X214162320Y-92942320D01*
X214130000Y-92935891D01*
X213948566Y-92971980D01*
X213880000Y-93017795D01*
X213811433Y-92971980D01*
X213630000Y-92935891D01*
X213448566Y-92971980D01*
X213294754Y-93074754D01*
X213191980Y-93228567D01*
X213165000Y-93364206D01*
X213165001Y-93905795D01*
X213190000Y-94031477D01*
X213190001Y-94477745D01*
X213103917Y-94563829D01*
X212630000Y-94563829D01*
X212507093Y-94588277D01*
X212402898Y-94657898D01*
X212333277Y-94762093D01*
X212308829Y-94885000D01*
X208938187Y-94885000D01*
X208941171Y-94870000D01*
X208941171Y-94370000D01*
X208916723Y-94247093D01*
X208847102Y-94142898D01*
X208742907Y-94073277D01*
X208620000Y-94048829D01*
X207720000Y-94048829D01*
X207597093Y-94073277D01*
X207492898Y-94142898D01*
X207423277Y-94247093D01*
X207398829Y-94370000D01*
X202220000Y-94370000D01*
X202220000Y-94031480D01*
X202245000Y-93905795D01*
X202245000Y-93375000D01*
X202775795Y-93375000D01*
X202825000Y-93365213D01*
X202825000Y-94030000D01*
X202848978Y-94150545D01*
X202917261Y-94252739D01*
X203019455Y-94321022D01*
X203140000Y-94345000D01*
X205090000Y-94345000D01*
X205210545Y-94321022D01*
X205312739Y-94252739D01*
X205381022Y-94150545D01*
X205405000Y-94030000D01*
X205405000Y-92265887D01*
X205406171Y-92260000D01*
X205406171Y-91260000D01*
X205381723Y-91137093D01*
X205312102Y-91032898D01*
X205207907Y-90963277D01*
X205085000Y-90938829D01*
X203835000Y-90938829D01*
X203803977Y-90945000D01*
X202247253Y-90945000D01*
X202417253Y-90775000D01*
X202532331Y-90775000D01*
X202758370Y-90681372D01*
X202931372Y-90508370D01*
X203025000Y-90282331D01*
X203025000Y-90037669D01*
X202931372Y-89811630D01*
X202758370Y-89638628D01*
X202532331Y-89545000D01*
X202287669Y-89545000D01*
X202061630Y-89638628D01*
X201888628Y-89811630D01*
X201813673Y-89992589D01*
X201780000Y-89985891D01*
X201598566Y-90021980D01*
X201444754Y-90124754D01*
X201341980Y-90278567D01*
X201315000Y-90414206D01*
X201315001Y-90955795D01*
X201341981Y-91091434D01*
X201444755Y-91245246D01*
X201598567Y-91348020D01*
X201780000Y-91384109D01*
X201812320Y-91377680D01*
X201805891Y-91410000D01*
X201815000Y-91455795D01*
X201815000Y-91864205D01*
X201805891Y-91910000D01*
X201815000Y-91955795D01*
X201815000Y-92364205D01*
X201805891Y-92410000D01*
X201815000Y-92455795D01*
X201815000Y-92560000D01*
X201838978Y-92680545D01*
X201856522Y-92706802D01*
X201841980Y-92728566D01*
X201805891Y-92910000D01*
X201812320Y-92942320D01*
X201780000Y-92935891D01*
X201598566Y-92971980D01*
X201530000Y-93017795D01*
X201461433Y-92971980D01*
X201280000Y-92935891D01*
X201098566Y-92971980D01*
X200944754Y-93074754D01*
X200841980Y-93228567D01*
X200815000Y-93364206D01*
X200815001Y-93905795D01*
X200840000Y-94031477D01*
X200840001Y-94563829D01*
X200390000Y-94563829D01*
X200267093Y-94588277D01*
X200162898Y-94657898D01*
X200093277Y-94762093D01*
X200068829Y-94885000D01*
X196696198Y-94885000D01*
X196701171Y-94860000D01*
X196701171Y-94360000D01*
X196676723Y-94237093D01*
X196607102Y-94132898D01*
X196502907Y-94063277D01*
X196380000Y-94038829D01*
X195480000Y-94038829D01*
X195357093Y-94063277D01*
X195252898Y-94132898D01*
X195183277Y-94237093D01*
X195158829Y-94360000D01*
X194377935Y-94360000D01*
X194352907Y-94343277D01*
X194230000Y-94318829D01*
X194222419Y-94318829D01*
X194220000Y-94306669D01*
X194220000Y-94306664D01*
X194194471Y-94178321D01*
X194157358Y-94122778D01*
X194121770Y-94069516D01*
X194121769Y-94069515D01*
X194097222Y-94032778D01*
X194060485Y-94008231D01*
X189726028Y-89673775D01*
X189735000Y-89652114D01*
X189735000Y-89327886D01*
X189610924Y-89028339D01*
X189381661Y-88799076D01*
X189082114Y-88675000D01*
X188757886Y-88675000D01*
X188458339Y-88799076D01*
X188380000Y-88877415D01*
X188380000Y-86388539D01*
X188745000Y-86388539D01*
X188745000Y-86951461D01*
X188960421Y-87471533D01*
X189358467Y-87869579D01*
X189878539Y-88085000D01*
X190441461Y-88085000D01*
X190961533Y-87869579D01*
X191359579Y-87471533D01*
X191575000Y-86951461D01*
X191575000Y-86388539D01*
X191359579Y-85868467D01*
X190961533Y-85470421D01*
X190441461Y-85255000D01*
X189878539Y-85255000D01*
X189358467Y-85470421D01*
X188960421Y-85868467D01*
X188745000Y-86388539D01*
X188380000Y-86388539D01*
X188380000Y-84880000D01*
X194075000Y-84880000D01*
X194075000Y-87508977D01*
G04 #@! TO.N,VSYS*
G36*
X216995000Y-109390000D02*
X217003754Y-109434009D01*
X217028683Y-109471317D01*
X217065991Y-109496246D01*
X217110000Y-109505000D01*
X218348829Y-109505000D01*
X218348829Y-110575000D01*
X215725000Y-110575000D01*
X215725000Y-107555000D01*
X216995000Y-107555000D01*
X216995000Y-109390000D01*
X216995000Y-109390000D01*
G37*
X216995000Y-109390000D02*
X217003754Y-109434009D01*
X217028683Y-109471317D01*
X217065991Y-109496246D01*
X217110000Y-109505000D01*
X218348829Y-109505000D01*
X218348829Y-110575000D01*
X215725000Y-110575000D01*
X215725000Y-107555000D01*
X216995000Y-107555000D01*
X216995000Y-109390000D01*
G36*
X222925000Y-97375000D02*
X222260000Y-97375000D01*
X222215991Y-97383754D01*
X222178683Y-97408683D01*
X221172366Y-98415000D01*
X219460000Y-98415000D01*
X219415991Y-98423754D01*
X219378683Y-98448683D01*
X219353754Y-98485991D01*
X219345000Y-98530000D01*
X219345000Y-101420000D01*
X219353754Y-101464009D01*
X219378683Y-101501317D01*
X219415991Y-101526246D01*
X219460000Y-101535000D01*
X220575000Y-101535000D01*
X220575000Y-105035000D01*
X217225000Y-105035000D01*
X217225000Y-101535000D01*
X218400000Y-101535000D01*
X218444009Y-101526246D01*
X218481317Y-101501317D01*
X218506246Y-101464009D01*
X218515000Y-101420000D01*
X218515000Y-97447634D01*
X219207634Y-96755000D01*
X222925000Y-96755000D01*
X222925000Y-97375000D01*
X222925000Y-97375000D01*
G37*
X222925000Y-97375000D02*
X222260000Y-97375000D01*
X222215991Y-97383754D01*
X222178683Y-97408683D01*
X221172366Y-98415000D01*
X219460000Y-98415000D01*
X219415991Y-98423754D01*
X219378683Y-98448683D01*
X219353754Y-98485991D01*
X219345000Y-98530000D01*
X219345000Y-101420000D01*
X219353754Y-101464009D01*
X219378683Y-101501317D01*
X219415991Y-101526246D01*
X219460000Y-101535000D01*
X220575000Y-101535000D01*
X220575000Y-105035000D01*
X217225000Y-105035000D01*
X217225000Y-101535000D01*
X218400000Y-101535000D01*
X218444009Y-101526246D01*
X218481317Y-101501317D01*
X218506246Y-101464009D01*
X218515000Y-101420000D01*
X218515000Y-97447634D01*
X219207634Y-96755000D01*
X222925000Y-96755000D01*
X222925000Y-97375000D01*
G04 #@! TD*
M02*
