M48
; DRILL file {KiCad (5.1.4)-1} date 9/18/2020 11:06:03 AM
; FORMAT={-:-/ absolute / inch / decimal}
; #@! TF.CreationDate,2020-09-18T11:06:03-04:00
; #@! TF.GenerationSoftware,Kicad,Pcbnew,(5.1.4)-1
; #@! TF.FileFunction,Plated,1,4,PTH
FMAT,2
INCH
T1C0.0079
T2C0.0118
T3C0.0157
T4C0.0256
%
G90
G05
T1
X4.8002Y-2.9715
X5.1886Y-2.397
X5.6323Y-2.399
X5.6323Y-2.4455
X5.6787Y-2.399
X5.6787Y-2.4455
X5.4197Y-3.1264
X5.4197Y-3.1728
X5.4661Y-3.1264
X5.4661Y-3.1728
X4.8002Y-2.9281
X4.8002Y-3.0148
X4.8435Y-2.9281
X4.8435Y-2.9715
X4.8435Y-3.0148
X4.8868Y-2.9281
X4.8868Y-2.9715
X4.8868Y-3.0148
X5.1421Y-2.397
X5.1421Y-2.4435
X5.1886Y-2.4435
X4.648Y-2.3961
X4.648Y-2.4425
X4.6945Y-2.3961
X4.6945Y-2.4425
T2
X5.5921Y-2.6848
X5.5921Y-2.7226
X5.626Y-2.7037
X5.6598Y-2.6848
X5.6598Y-2.7226
T3
X4.2524Y-2.7205
X4.315Y-3.0453
X4.3189Y-2.3583
X4.3376Y-3.1752
X4.3632Y-2.751
X4.3829Y-3.06
X4.3878Y-3.3307
X4.4026Y-3.2628
X4.4065Y-2.751
X4.4193Y-2.5384
X4.4528Y-2.751
X4.4675Y-2.2313
X4.4803Y-3.0226
X4.5207Y-3.1535
X4.5236Y-3.0217
X4.5541Y-2.439
X4.5886Y-2.7028
X4.5886Y-2.7421
X4.6029Y-3.2608
X4.626Y-2.9843
X4.6289Y-2.7028
X4.6289Y-2.7421
X4.6683Y-2.7421
X4.669Y-3.1942
X4.6693Y-2.7028
X4.6713Y-3.1157
X4.6724Y-3.155
X4.7195Y-3.0837
X4.7411Y-2.3356
X4.752Y-2.2431
X4.752Y-2.2825
X4.7628Y-3.189
X4.7854Y-2.4528
X4.7854Y-2.4921
X4.7913Y-2.2431
X4.7913Y-2.2825
X4.8091Y-3.2589
X4.81Y-2.8396
X4.8248Y-2.4528
X4.8248Y-2.4921
X4.9104Y-2.5384
X4.94Y-3.2303
X4.9518Y-2.2293
X4.9537Y-2.8652
X5.0413Y-2.8642
X5.0522Y-2.4419
X5.0823Y-2.5366
X5.1191Y-3.1476
X5.1191Y-3.187
X5.1299Y-2.8652
X5.1594Y-3.1476
X5.1594Y-3.187
X5.1988Y-3.187
X5.1998Y-3.1476
X5.2362Y-2.252
X5.2362Y-2.2913
X5.2382Y-2.3366
X5.2598Y-2.7175
X5.2598Y-2.7569
X5.2598Y-2.7972
X5.2756Y-2.252
X5.2756Y-2.2913
X5.2795Y-2.4557
X5.2795Y-2.4951
X5.2894Y-3.0768
X5.2894Y-3.1161
X5.2992Y-2.7175
X5.2992Y-2.7569
X5.2992Y-2.7972
X5.3189Y-2.4557
X5.3189Y-2.4951
X5.3287Y-3.0768
X5.3287Y-3.1161
X5.3386Y-2.7175
X5.3386Y-2.7569
X5.3386Y-2.7972
X5.3652Y-3.2343
X5.3967Y-2.5463
X5.4409Y-2.2293
X5.5187Y-3.0226
X5.5413Y-2.4429
X5.5571Y-3.1299
X5.5713Y-2.5461
X5.6073Y-2.5994
X5.6516Y-2.5994
X5.6673Y-3.3425
X5.689Y-3.0226
X5.7293Y-2.3337
X5.748Y-2.6132
X5.748Y-2.6526
X5.752Y-3.0049
X5.752Y-3.0443
X5.7687Y-2.4567
X5.7687Y-2.4961
X5.7874Y-2.6132
X5.7874Y-2.6526
X5.7913Y-3.0049
X5.7913Y-3.0443
X5.7925Y-2.7843
X5.8081Y-2.4567
X5.8081Y-2.4961
T4
X4.6191Y-3.3691
X4.6691Y-3.3691
X4.7191Y-3.3691
X4.7691Y-3.3691
X4.8191Y-3.3691
T0
M30
