G04 #@! TF.GenerationSoftware,KiCad,Pcbnew,(5.1.4)-1*
G04 #@! TF.CreationDate,2020-09-18T11:06:02-04:00*
G04 #@! TF.ProjectId,RVL-PMS HW2,52564c2d-504d-4532-9048-57322e6b6963,rev?*
G04 #@! TF.SameCoordinates,Original*
G04 #@! TF.FileFunction,Soldermask,Bot*
G04 #@! TF.FilePolarity,Negative*
%FSLAX46Y46*%
G04 Gerber Fmt 4.6, Leading zero omitted, Abs format (unit mm)*
G04 Created by KiCad (PCBNEW (5.1.4)-1) date 2020-09-18 11:06:02*
%MOMM*%
%LPD*%
G04 APERTURE LIST*
%ADD10C,0.100000*%
G04 APERTURE END LIST*
D10*
G36*
X121243015Y-85031973D02*
G01*
X121346879Y-85063479D01*
X121394740Y-85089062D01*
X121442599Y-85114643D01*
X121442601Y-85114644D01*
X121442600Y-85114644D01*
X121526501Y-85183499D01*
X121595356Y-85267400D01*
X121646521Y-85363121D01*
X121678027Y-85466985D01*
X121688666Y-85575000D01*
X121678027Y-85683015D01*
X121646521Y-85786879D01*
X121646520Y-85786880D01*
X121595357Y-85882599D01*
X121526501Y-85966501D01*
X121442599Y-86035357D01*
X121346879Y-86086521D01*
X121243015Y-86118027D01*
X121162067Y-86126000D01*
X121107933Y-86126000D01*
X121026985Y-86118027D01*
X120923121Y-86086521D01*
X120827401Y-86035357D01*
X120743499Y-85966501D01*
X120674643Y-85882599D01*
X120623480Y-85786880D01*
X120623479Y-85786879D01*
X120591973Y-85683015D01*
X120581334Y-85575000D01*
X120591973Y-85466985D01*
X120623479Y-85363121D01*
X120674644Y-85267400D01*
X120743499Y-85183499D01*
X120827400Y-85114644D01*
X120827399Y-85114644D01*
X120827401Y-85114643D01*
X120875260Y-85089062D01*
X120923121Y-85063479D01*
X121026985Y-85031973D01*
X121107933Y-85024000D01*
X121162067Y-85024000D01*
X121243015Y-85031973D01*
X121243015Y-85031973D01*
G37*
G36*
X122513015Y-85031973D02*
G01*
X122616879Y-85063479D01*
X122664740Y-85089062D01*
X122712599Y-85114643D01*
X122712601Y-85114644D01*
X122712600Y-85114644D01*
X122796501Y-85183499D01*
X122865356Y-85267400D01*
X122916521Y-85363121D01*
X122948027Y-85466985D01*
X122958666Y-85575000D01*
X122948027Y-85683015D01*
X122916521Y-85786879D01*
X122916520Y-85786880D01*
X122865357Y-85882599D01*
X122796501Y-85966501D01*
X122712599Y-86035357D01*
X122616879Y-86086521D01*
X122513015Y-86118027D01*
X122432067Y-86126000D01*
X122377933Y-86126000D01*
X122296985Y-86118027D01*
X122193121Y-86086521D01*
X122097401Y-86035357D01*
X122013499Y-85966501D01*
X121944643Y-85882599D01*
X121893480Y-85786880D01*
X121893479Y-85786879D01*
X121861973Y-85683015D01*
X121851334Y-85575000D01*
X121861973Y-85466985D01*
X121893479Y-85363121D01*
X121944644Y-85267400D01*
X122013499Y-85183499D01*
X122097400Y-85114644D01*
X122097399Y-85114644D01*
X122097401Y-85114643D01*
X122145260Y-85089062D01*
X122193121Y-85063479D01*
X122296985Y-85031973D01*
X122377933Y-85024000D01*
X122432067Y-85024000D01*
X122513015Y-85031973D01*
X122513015Y-85031973D01*
G37*
G36*
X119973015Y-85031973D02*
G01*
X120076879Y-85063479D01*
X120124740Y-85089062D01*
X120172599Y-85114643D01*
X120172601Y-85114644D01*
X120172600Y-85114644D01*
X120256501Y-85183499D01*
X120325356Y-85267400D01*
X120376521Y-85363121D01*
X120408027Y-85466985D01*
X120418666Y-85575000D01*
X120408027Y-85683015D01*
X120376521Y-85786879D01*
X120376520Y-85786880D01*
X120325357Y-85882599D01*
X120256501Y-85966501D01*
X120172599Y-86035357D01*
X120076879Y-86086521D01*
X119973015Y-86118027D01*
X119892067Y-86126000D01*
X119837933Y-86126000D01*
X119756985Y-86118027D01*
X119653121Y-86086521D01*
X119557401Y-86035357D01*
X119473499Y-85966501D01*
X119404643Y-85882599D01*
X119353480Y-85786880D01*
X119353479Y-85786879D01*
X119321973Y-85683015D01*
X119311334Y-85575000D01*
X119321973Y-85466985D01*
X119353479Y-85363121D01*
X119404644Y-85267400D01*
X119473499Y-85183499D01*
X119557400Y-85114644D01*
X119557399Y-85114644D01*
X119557401Y-85114643D01*
X119605260Y-85089062D01*
X119653121Y-85063479D01*
X119756985Y-85031973D01*
X119837933Y-85024000D01*
X119892067Y-85024000D01*
X119973015Y-85031973D01*
X119973015Y-85031973D01*
G37*
G36*
X118703015Y-85031973D02*
G01*
X118806879Y-85063479D01*
X118854740Y-85089062D01*
X118902599Y-85114643D01*
X118902601Y-85114644D01*
X118902600Y-85114644D01*
X118986501Y-85183499D01*
X119055356Y-85267400D01*
X119106521Y-85363121D01*
X119138027Y-85466985D01*
X119148666Y-85575000D01*
X119138027Y-85683015D01*
X119106521Y-85786879D01*
X119106520Y-85786880D01*
X119055357Y-85882599D01*
X118986501Y-85966501D01*
X118902599Y-86035357D01*
X118806879Y-86086521D01*
X118703015Y-86118027D01*
X118622067Y-86126000D01*
X118567933Y-86126000D01*
X118486985Y-86118027D01*
X118383121Y-86086521D01*
X118287401Y-86035357D01*
X118203499Y-85966501D01*
X118134643Y-85882599D01*
X118083480Y-85786880D01*
X118083479Y-85786879D01*
X118051973Y-85683015D01*
X118041334Y-85575000D01*
X118051973Y-85466985D01*
X118083479Y-85363121D01*
X118134644Y-85267400D01*
X118203499Y-85183499D01*
X118287400Y-85114644D01*
X118287399Y-85114644D01*
X118287401Y-85114643D01*
X118335260Y-85089062D01*
X118383121Y-85063479D01*
X118486985Y-85031973D01*
X118567933Y-85024000D01*
X118622067Y-85024000D01*
X118703015Y-85031973D01*
X118703015Y-85031973D01*
G37*
G36*
X117876000Y-86126000D02*
G01*
X116774000Y-86126000D01*
X116774000Y-85024000D01*
X117876000Y-85024000D01*
X117876000Y-86126000D01*
X117876000Y-86126000D01*
G37*
G36*
X109560734Y-83768232D02*
G01*
X109770203Y-83854997D01*
X109958720Y-83980960D01*
X110119040Y-84141280D01*
X110245003Y-84329797D01*
X110331768Y-84539266D01*
X110376000Y-84761636D01*
X110376000Y-84988364D01*
X110331768Y-85210734D01*
X110245003Y-85420203D01*
X110119040Y-85608720D01*
X109958720Y-85769040D01*
X109770203Y-85895003D01*
X109560734Y-85981768D01*
X109338364Y-86026000D01*
X109111636Y-86026000D01*
X108889266Y-85981768D01*
X108679797Y-85895003D01*
X108491280Y-85769040D01*
X108330960Y-85608720D01*
X108204997Y-85420203D01*
X108118232Y-85210734D01*
X108074000Y-84988364D01*
X108074000Y-84761636D01*
X108118232Y-84539266D01*
X108204997Y-84329797D01*
X108330960Y-84141280D01*
X108491280Y-83980960D01*
X108679797Y-83854997D01*
X108889266Y-83768232D01*
X109111636Y-83724000D01*
X109338364Y-83724000D01*
X109560734Y-83768232D01*
X109560734Y-83768232D01*
G37*
G36*
X148685734Y-83768232D02*
G01*
X148895203Y-83854997D01*
X149083720Y-83980960D01*
X149244040Y-84141280D01*
X149370003Y-84329797D01*
X149456768Y-84539266D01*
X149501000Y-84761636D01*
X149501000Y-84988364D01*
X149456768Y-85210734D01*
X149370003Y-85420203D01*
X149244040Y-85608720D01*
X149083720Y-85769040D01*
X148895203Y-85895003D01*
X148685734Y-85981768D01*
X148463364Y-86026000D01*
X148236636Y-86026000D01*
X148014266Y-85981768D01*
X147804797Y-85895003D01*
X147616280Y-85769040D01*
X147455960Y-85608720D01*
X147329997Y-85420203D01*
X147243232Y-85210734D01*
X147199000Y-84988364D01*
X147199000Y-84761636D01*
X147243232Y-84539266D01*
X147329997Y-84329797D01*
X147455960Y-84141280D01*
X147616280Y-83980960D01*
X147804797Y-83854997D01*
X148014266Y-83768232D01*
X148236636Y-83724000D01*
X148463364Y-83724000D01*
X148685734Y-83768232D01*
X148685734Y-83768232D01*
G37*
G36*
X148685734Y-55318232D02*
G01*
X148895203Y-55404997D01*
X149083720Y-55530960D01*
X149244040Y-55691280D01*
X149370003Y-55879797D01*
X149456768Y-56089266D01*
X149501000Y-56311636D01*
X149501000Y-56538364D01*
X149456768Y-56760734D01*
X149370003Y-56970203D01*
X149244040Y-57158720D01*
X149083720Y-57319040D01*
X148895203Y-57445003D01*
X148685734Y-57531768D01*
X148463364Y-57576000D01*
X148236636Y-57576000D01*
X148014266Y-57531768D01*
X147804797Y-57445003D01*
X147616280Y-57319040D01*
X147455960Y-57158720D01*
X147329997Y-56970203D01*
X147243232Y-56760734D01*
X147199000Y-56538364D01*
X147199000Y-56311636D01*
X147243232Y-56089266D01*
X147329997Y-55879797D01*
X147455960Y-55691280D01*
X147616280Y-55530960D01*
X147804797Y-55404997D01*
X148014266Y-55318232D01*
X148236636Y-55274000D01*
X148463364Y-55274000D01*
X148685734Y-55318232D01*
X148685734Y-55318232D01*
G37*
G36*
X109535734Y-55318232D02*
G01*
X109745203Y-55404997D01*
X109933720Y-55530960D01*
X110094040Y-55691280D01*
X110220003Y-55879797D01*
X110306768Y-56089266D01*
X110351000Y-56311636D01*
X110351000Y-56538364D01*
X110306768Y-56760734D01*
X110220003Y-56970203D01*
X110094040Y-57158720D01*
X109933720Y-57319040D01*
X109745203Y-57445003D01*
X109535734Y-57531768D01*
X109313364Y-57576000D01*
X109086636Y-57576000D01*
X108864266Y-57531768D01*
X108654797Y-57445003D01*
X108466280Y-57319040D01*
X108305960Y-57158720D01*
X108179997Y-56970203D01*
X108093232Y-56760734D01*
X108049000Y-56538364D01*
X108049000Y-56311636D01*
X108093232Y-56089266D01*
X108179997Y-55879797D01*
X108305960Y-55691280D01*
X108466280Y-55530960D01*
X108654797Y-55404997D01*
X108864266Y-55318232D01*
X109086636Y-55274000D01*
X109313364Y-55274000D01*
X109535734Y-55318232D01*
X109535734Y-55318232D01*
G37*
M02*
