G04 #@! TF.GenerationSoftware,KiCad,Pcbnew,(5.1.4)-1*
G04 #@! TF.CreationDate,2020-09-18T11:06:02-04:00*
G04 #@! TF.ProjectId,RVL-PMS HW2,52564c2d-504d-4532-9048-57322e6b6963,rev?*
G04 #@! TF.SameCoordinates,Original*
G04 #@! TF.FileFunction,Copper,L4,Bot*
G04 #@! TF.FilePolarity,Positive*
%FSLAX46Y46*%
G04 Gerber Fmt 4.6, Leading zero omitted, Abs format (unit mm)*
G04 Created by KiCad (PCBNEW (5.1.4)-1) date 2020-09-18 11:06:02*
%MOMM*%
%LPD*%
G04 APERTURE LIST*
%ADD10R,1.000000X1.000000*%
%ADD11O,1.000000X1.000000*%
%ADD12C,0.100000*%
%ADD13C,1.680000*%
%ADD14C,0.500000*%
%ADD15C,0.600000*%
%ADD16R,2.400000X1.650000*%
%ADD17C,2.700000*%
%ADD18C,0.800000*%
%ADD19C,0.250000*%
%ADD20C,0.150000*%
G04 APERTURE END LIST*
D10*
X117325000Y-85575000D03*
D11*
X118595000Y-85575000D03*
X119865000Y-85575000D03*
X121135000Y-85575000D03*
X122405000Y-85575000D03*
D12*
G36*
X119264504Y-60611204D02*
G01*
X119288773Y-60614804D01*
X119312571Y-60620765D01*
X119335671Y-60629030D01*
X119357849Y-60639520D01*
X119378893Y-60652133D01*
X119398598Y-60666747D01*
X119416777Y-60683223D01*
X119433253Y-60701402D01*
X119447867Y-60721107D01*
X119460480Y-60742151D01*
X119470970Y-60764329D01*
X119479235Y-60787429D01*
X119485196Y-60811227D01*
X119488796Y-60835496D01*
X119490000Y-60860000D01*
X119490000Y-62040000D01*
X119488796Y-62064504D01*
X119485196Y-62088773D01*
X119479235Y-62112571D01*
X119470970Y-62135671D01*
X119460480Y-62157849D01*
X119447867Y-62178893D01*
X119433253Y-62198598D01*
X119416777Y-62216777D01*
X119398598Y-62233253D01*
X119378893Y-62247867D01*
X119357849Y-62260480D01*
X119335671Y-62270970D01*
X119312571Y-62279235D01*
X119288773Y-62285196D01*
X119264504Y-62288796D01*
X119240000Y-62290000D01*
X118060000Y-62290000D01*
X118035496Y-62288796D01*
X118011227Y-62285196D01*
X117987429Y-62279235D01*
X117964329Y-62270970D01*
X117942151Y-62260480D01*
X117921107Y-62247867D01*
X117901402Y-62233253D01*
X117883223Y-62216777D01*
X117866747Y-62198598D01*
X117852133Y-62178893D01*
X117839520Y-62157849D01*
X117829030Y-62135671D01*
X117820765Y-62112571D01*
X117814804Y-62088773D01*
X117811204Y-62064504D01*
X117810000Y-62040000D01*
X117810000Y-60860000D01*
X117811204Y-60835496D01*
X117814804Y-60811227D01*
X117820765Y-60787429D01*
X117829030Y-60764329D01*
X117839520Y-60742151D01*
X117852133Y-60721107D01*
X117866747Y-60701402D01*
X117883223Y-60683223D01*
X117901402Y-60666747D01*
X117921107Y-60652133D01*
X117942151Y-60639520D01*
X117964329Y-60629030D01*
X117987429Y-60620765D01*
X118011227Y-60614804D01*
X118035496Y-60611204D01*
X118060000Y-60610000D01*
X119240000Y-60610000D01*
X119264504Y-60611204D01*
X119264504Y-60611204D01*
G37*
D13*
X118650000Y-61450000D03*
D14*
X119240000Y-62040000D03*
X118060000Y-62040000D03*
X119240000Y-60860000D03*
X118060000Y-60860000D03*
X130610000Y-60885000D03*
X131790000Y-60885000D03*
X130610000Y-62065000D03*
X131790000Y-62065000D03*
D12*
G36*
X131814504Y-60636204D02*
G01*
X131838773Y-60639804D01*
X131862571Y-60645765D01*
X131885671Y-60654030D01*
X131907849Y-60664520D01*
X131928893Y-60677133D01*
X131948598Y-60691747D01*
X131966777Y-60708223D01*
X131983253Y-60726402D01*
X131997867Y-60746107D01*
X132010480Y-60767151D01*
X132020970Y-60789329D01*
X132029235Y-60812429D01*
X132035196Y-60836227D01*
X132038796Y-60860496D01*
X132040000Y-60885000D01*
X132040000Y-62065000D01*
X132038796Y-62089504D01*
X132035196Y-62113773D01*
X132029235Y-62137571D01*
X132020970Y-62160671D01*
X132010480Y-62182849D01*
X131997867Y-62203893D01*
X131983253Y-62223598D01*
X131966777Y-62241777D01*
X131948598Y-62258253D01*
X131928893Y-62272867D01*
X131907849Y-62285480D01*
X131885671Y-62295970D01*
X131862571Y-62304235D01*
X131838773Y-62310196D01*
X131814504Y-62313796D01*
X131790000Y-62315000D01*
X130610000Y-62315000D01*
X130585496Y-62313796D01*
X130561227Y-62310196D01*
X130537429Y-62304235D01*
X130514329Y-62295970D01*
X130492151Y-62285480D01*
X130471107Y-62272867D01*
X130451402Y-62258253D01*
X130433223Y-62241777D01*
X130416747Y-62223598D01*
X130402133Y-62203893D01*
X130389520Y-62182849D01*
X130379030Y-62160671D01*
X130370765Y-62137571D01*
X130364804Y-62113773D01*
X130361204Y-62089504D01*
X130360000Y-62065000D01*
X130360000Y-60885000D01*
X130361204Y-60860496D01*
X130364804Y-60836227D01*
X130370765Y-60812429D01*
X130379030Y-60789329D01*
X130389520Y-60767151D01*
X130402133Y-60746107D01*
X130416747Y-60726402D01*
X130433223Y-60708223D01*
X130451402Y-60691747D01*
X130471107Y-60677133D01*
X130492151Y-60664520D01*
X130514329Y-60654030D01*
X130537429Y-60645765D01*
X130561227Y-60639804D01*
X130585496Y-60636204D01*
X130610000Y-60635000D01*
X131790000Y-60635000D01*
X131814504Y-60636204D01*
X131814504Y-60636204D01*
G37*
D13*
X131200000Y-61475000D03*
D12*
G36*
X144264504Y-60686204D02*
G01*
X144288773Y-60689804D01*
X144312571Y-60695765D01*
X144335671Y-60704030D01*
X144357849Y-60714520D01*
X144378893Y-60727133D01*
X144398598Y-60741747D01*
X144416777Y-60758223D01*
X144433253Y-60776402D01*
X144447867Y-60796107D01*
X144460480Y-60817151D01*
X144470970Y-60839329D01*
X144479235Y-60862429D01*
X144485196Y-60886227D01*
X144488796Y-60910496D01*
X144490000Y-60935000D01*
X144490000Y-62115000D01*
X144488796Y-62139504D01*
X144485196Y-62163773D01*
X144479235Y-62187571D01*
X144470970Y-62210671D01*
X144460480Y-62232849D01*
X144447867Y-62253893D01*
X144433253Y-62273598D01*
X144416777Y-62291777D01*
X144398598Y-62308253D01*
X144378893Y-62322867D01*
X144357849Y-62335480D01*
X144335671Y-62345970D01*
X144312571Y-62354235D01*
X144288773Y-62360196D01*
X144264504Y-62363796D01*
X144240000Y-62365000D01*
X143060000Y-62365000D01*
X143035496Y-62363796D01*
X143011227Y-62360196D01*
X142987429Y-62354235D01*
X142964329Y-62345970D01*
X142942151Y-62335480D01*
X142921107Y-62322867D01*
X142901402Y-62308253D01*
X142883223Y-62291777D01*
X142866747Y-62273598D01*
X142852133Y-62253893D01*
X142839520Y-62232849D01*
X142829030Y-62210671D01*
X142820765Y-62187571D01*
X142814804Y-62163773D01*
X142811204Y-62139504D01*
X142810000Y-62115000D01*
X142810000Y-60935000D01*
X142811204Y-60910496D01*
X142814804Y-60886227D01*
X142820765Y-60862429D01*
X142829030Y-60839329D01*
X142839520Y-60817151D01*
X142852133Y-60796107D01*
X142866747Y-60776402D01*
X142883223Y-60758223D01*
X142901402Y-60741747D01*
X142921107Y-60727133D01*
X142942151Y-60714520D01*
X142964329Y-60704030D01*
X142987429Y-60695765D01*
X143011227Y-60689804D01*
X143035496Y-60686204D01*
X143060000Y-60685000D01*
X144240000Y-60685000D01*
X144264504Y-60686204D01*
X144264504Y-60686204D01*
G37*
D13*
X143650000Y-61525000D03*
D14*
X144240000Y-62115000D03*
X143060000Y-62115000D03*
X144240000Y-60935000D03*
X143060000Y-60935000D03*
X138840000Y-80590000D03*
X137660000Y-80590000D03*
X138840000Y-79410000D03*
X137660000Y-79410000D03*
D12*
G36*
X138864504Y-79161204D02*
G01*
X138888773Y-79164804D01*
X138912571Y-79170765D01*
X138935671Y-79179030D01*
X138957849Y-79189520D01*
X138978893Y-79202133D01*
X138998598Y-79216747D01*
X139016777Y-79233223D01*
X139033253Y-79251402D01*
X139047867Y-79271107D01*
X139060480Y-79292151D01*
X139070970Y-79314329D01*
X139079235Y-79337429D01*
X139085196Y-79361227D01*
X139088796Y-79385496D01*
X139090000Y-79410000D01*
X139090000Y-80590000D01*
X139088796Y-80614504D01*
X139085196Y-80638773D01*
X139079235Y-80662571D01*
X139070970Y-80685671D01*
X139060480Y-80707849D01*
X139047867Y-80728893D01*
X139033253Y-80748598D01*
X139016777Y-80766777D01*
X138998598Y-80783253D01*
X138978893Y-80797867D01*
X138957849Y-80810480D01*
X138935671Y-80820970D01*
X138912571Y-80829235D01*
X138888773Y-80835196D01*
X138864504Y-80838796D01*
X138840000Y-80840000D01*
X137660000Y-80840000D01*
X137635496Y-80838796D01*
X137611227Y-80835196D01*
X137587429Y-80829235D01*
X137564329Y-80820970D01*
X137542151Y-80810480D01*
X137521107Y-80797867D01*
X137501402Y-80783253D01*
X137483223Y-80766777D01*
X137466747Y-80748598D01*
X137452133Y-80728893D01*
X137439520Y-80707849D01*
X137429030Y-80685671D01*
X137420765Y-80662571D01*
X137414804Y-80638773D01*
X137411204Y-80614504D01*
X137410000Y-80590000D01*
X137410000Y-79410000D01*
X137411204Y-79385496D01*
X137414804Y-79361227D01*
X137420765Y-79337429D01*
X137429030Y-79314329D01*
X137439520Y-79292151D01*
X137452133Y-79271107D01*
X137466747Y-79251402D01*
X137483223Y-79233223D01*
X137501402Y-79216747D01*
X137521107Y-79202133D01*
X137542151Y-79189520D01*
X137564329Y-79179030D01*
X137587429Y-79170765D01*
X137611227Y-79164804D01*
X137635496Y-79161204D01*
X137660000Y-79160000D01*
X138840000Y-79160000D01*
X138864504Y-79161204D01*
X138864504Y-79161204D01*
G37*
D13*
X138250000Y-80000000D03*
D15*
X142040000Y-69155000D03*
X143760000Y-69155000D03*
X142040000Y-68195000D03*
X143760000Y-68195000D03*
X142900000Y-68675000D03*
D16*
X142900000Y-68675000D03*
D14*
X121925000Y-74375000D03*
X123025000Y-74375000D03*
X124125000Y-74375000D03*
X121925000Y-75475000D03*
X123025000Y-75475000D03*
X124125000Y-75475000D03*
X121925000Y-76575000D03*
X123025000Y-76575000D03*
X124125000Y-76575000D03*
D12*
G36*
X124149503Y-74126204D02*
G01*
X124173772Y-74129804D01*
X124197570Y-74135765D01*
X124220670Y-74144030D01*
X124242849Y-74154520D01*
X124263892Y-74167133D01*
X124283598Y-74181748D01*
X124301776Y-74198224D01*
X124318252Y-74216402D01*
X124332867Y-74236108D01*
X124345480Y-74257151D01*
X124355970Y-74279330D01*
X124364235Y-74302430D01*
X124370196Y-74326228D01*
X124373796Y-74350497D01*
X124375000Y-74375001D01*
X124375000Y-76574999D01*
X124373796Y-76599503D01*
X124370196Y-76623772D01*
X124364235Y-76647570D01*
X124355970Y-76670670D01*
X124345480Y-76692849D01*
X124332867Y-76713892D01*
X124318252Y-76733598D01*
X124301776Y-76751776D01*
X124283598Y-76768252D01*
X124263892Y-76782867D01*
X124242849Y-76795480D01*
X124220670Y-76805970D01*
X124197570Y-76814235D01*
X124173772Y-76820196D01*
X124149503Y-76823796D01*
X124124999Y-76825000D01*
X121925001Y-76825000D01*
X121900497Y-76823796D01*
X121876228Y-76820196D01*
X121852430Y-76814235D01*
X121829330Y-76805970D01*
X121807151Y-76795480D01*
X121786108Y-76782867D01*
X121766402Y-76768252D01*
X121748224Y-76751776D01*
X121731748Y-76733598D01*
X121717133Y-76713892D01*
X121704520Y-76692849D01*
X121694030Y-76670670D01*
X121685765Y-76647570D01*
X121679804Y-76623772D01*
X121676204Y-76599503D01*
X121675000Y-76574999D01*
X121675000Y-74375001D01*
X121676204Y-74350497D01*
X121679804Y-74326228D01*
X121685765Y-74302430D01*
X121694030Y-74279330D01*
X121704520Y-74257151D01*
X121717133Y-74236108D01*
X121731748Y-74216402D01*
X121748224Y-74198224D01*
X121766402Y-74181748D01*
X121786108Y-74167133D01*
X121807151Y-74154520D01*
X121829330Y-74144030D01*
X121852430Y-74135765D01*
X121876228Y-74129804D01*
X121900497Y-74126204D01*
X121925001Y-74125000D01*
X124124999Y-74125000D01*
X124149503Y-74126204D01*
X124149503Y-74126204D01*
G37*
D17*
X123025000Y-75475000D03*
D18*
X109700000Y-59900000D03*
X121700000Y-57975000D03*
X120700000Y-56975000D03*
X120700000Y-57975000D03*
X121700000Y-56975000D03*
X134000000Y-58200000D03*
X133000000Y-57200000D03*
X133000000Y-58200000D03*
X134000000Y-57200000D03*
X147000000Y-67375000D03*
X146000000Y-66375000D03*
X146000000Y-67375000D03*
X147000000Y-66375000D03*
X147100000Y-77325000D03*
X146100000Y-76325000D03*
X146100000Y-77325000D03*
X147100000Y-76325000D03*
X130025000Y-79950000D03*
X132050000Y-80950000D03*
X131050000Y-80950000D03*
X131050000Y-79950000D03*
X130025000Y-80950000D03*
X132075000Y-79950000D03*
X111825000Y-82875000D03*
X122150000Y-82775000D03*
X114824868Y-80100132D03*
X111325000Y-77725000D03*
X118575000Y-69650000D03*
X117575000Y-69650000D03*
X116550000Y-69650000D03*
X118600000Y-68650000D03*
X117575000Y-68650000D03*
X116550000Y-68650000D03*
X130300000Y-72775000D03*
X128050000Y-72750000D03*
X125825000Y-72775000D03*
X140175000Y-76775000D03*
X129090000Y-64430000D03*
X141510000Y-64670000D03*
X134100000Y-63375000D03*
X135100000Y-63375000D03*
X146525000Y-62400000D03*
X146525000Y-63400000D03*
X147525000Y-63400000D03*
X135350000Y-79150000D03*
X135350000Y-78150000D03*
X134350000Y-78150000D03*
X134350000Y-79150000D03*
X133600000Y-70025000D03*
X134600000Y-70025000D03*
X133600000Y-69025000D03*
X135600000Y-70025000D03*
X133600000Y-71050000D03*
X134600000Y-71050000D03*
X135600000Y-71050000D03*
X110175000Y-80650000D03*
X111450000Y-84600000D03*
X117500000Y-75800000D03*
X120975000Y-81000000D03*
X121550000Y-62300000D03*
X122550000Y-62300000D03*
X122550000Y-63300000D03*
X121550000Y-63300000D03*
X134600000Y-69025000D03*
X135600000Y-69025000D03*
X140750000Y-62050000D03*
X128325000Y-62025000D03*
X115675000Y-61950000D03*
X141150000Y-79500000D03*
X134100000Y-62375000D03*
X135100000Y-62375000D03*
X147525000Y-62400000D03*
X108010000Y-69100000D03*
X112250000Y-64475000D03*
X113475000Y-56675000D03*
X124725000Y-64475000D03*
X125775000Y-56625000D03*
X137075000Y-64675000D03*
X138200000Y-56625000D03*
X143550000Y-66025000D03*
X147130000Y-70720000D03*
X125475000Y-82050000D03*
X122175000Y-72125000D03*
X113800000Y-76775000D03*
X114900000Y-76750000D03*
X118592719Y-81133266D03*
X110825000Y-69875000D03*
X118679837Y-80137066D03*
X111925000Y-69875000D03*
X118650000Y-79137510D03*
X113100000Y-69875000D03*
X116912500Y-82825000D03*
X120425000Y-59325000D03*
X133050000Y-59350000D03*
X145525000Y-59275000D03*
X136275000Y-82150000D03*
X142425000Y-66025000D03*
X109600000Y-77350000D03*
X119875000Y-78325000D03*
X143950000Y-84900000D03*
X144500000Y-76775000D03*
D19*
X112250000Y-63909315D02*
X111450000Y-63109315D01*
X112250000Y-64475000D02*
X112250000Y-63909315D01*
X111450000Y-63109315D02*
X111450000Y-57400000D01*
X111450000Y-57400000D02*
X111450000Y-57100000D01*
X111450000Y-57100000D02*
X111875000Y-56675000D01*
X111875000Y-56675000D02*
X113475000Y-56675000D01*
X124725000Y-64475000D02*
X124050000Y-63800000D01*
X124050000Y-63800000D02*
X124050000Y-57250000D01*
X124050000Y-57250000D02*
X124675000Y-56625000D01*
X124675000Y-56625000D02*
X125775000Y-56625000D01*
X136675001Y-64275001D02*
X136675001Y-57074999D01*
X137075000Y-64675000D02*
X136675001Y-64275001D01*
X136675001Y-57074999D02*
X137125000Y-56625000D01*
X137125000Y-56625000D02*
X138200000Y-56625000D01*
X143550000Y-66025000D02*
X147130000Y-69605000D01*
X147130000Y-69605000D02*
X147130000Y-70720000D01*
X125475000Y-82050000D02*
X120950000Y-77525000D01*
X120950000Y-73350000D02*
X122175000Y-72125000D01*
X120950000Y-77525000D02*
X120950000Y-73350000D01*
X121135000Y-85575000D02*
X121135000Y-84234304D01*
X121135000Y-84234304D02*
X119275706Y-82375010D01*
X119275706Y-82375010D02*
X118125050Y-82375009D01*
X113800000Y-78049959D02*
X113800000Y-76775000D01*
X118125050Y-82375009D02*
X113800000Y-78049959D01*
X122405000Y-84867894D02*
X119462106Y-81925000D01*
X122405000Y-85575000D02*
X122405000Y-84867894D01*
X114900000Y-77315685D02*
X114900000Y-76750000D01*
X114900000Y-78513549D02*
X114900000Y-77315685D01*
X118311451Y-81925000D02*
X114900000Y-78513549D01*
X119462106Y-81925000D02*
X118311451Y-81925000D01*
X110825000Y-69875000D02*
X115650000Y-74700000D01*
X115650000Y-78190547D02*
X118592719Y-81133266D01*
X115650000Y-74700000D02*
X115650000Y-78190547D01*
X111925000Y-70338590D02*
X111925000Y-69875000D01*
X116100009Y-74513599D02*
X111925000Y-70338590D01*
X116100010Y-78004147D02*
X116100009Y-74513599D01*
X118679837Y-80137066D02*
X118232929Y-80137066D01*
X118232929Y-80137066D02*
X116100010Y-78004147D01*
X118650000Y-79137510D02*
X117869783Y-79137510D01*
X117869783Y-79137510D02*
X116550018Y-77817745D01*
X116550018Y-77817745D02*
X116550018Y-74327198D01*
X113100000Y-70877180D02*
X113100000Y-69875000D01*
X116550018Y-74327198D02*
X113100000Y-70877180D01*
X145525000Y-62925000D02*
X142425000Y-66025000D01*
X145525000Y-59275000D02*
X145525000Y-62925000D01*
X133050000Y-65230000D02*
X133050000Y-59350000D01*
X132960000Y-65320000D02*
X133050000Y-65230000D01*
X132960000Y-65320000D02*
X134990000Y-65320000D01*
X121180000Y-65320000D02*
X132960000Y-65320000D01*
X136674999Y-81750001D02*
X136674999Y-66705001D01*
X136275000Y-82150000D02*
X136674999Y-81750001D01*
X136665000Y-66695002D02*
X136674999Y-66705001D01*
X136665000Y-66025000D02*
X136665000Y-66695002D01*
X136665000Y-66025000D02*
X142425000Y-66025000D01*
X116175000Y-82825000D02*
X112980000Y-79630000D01*
X116912500Y-82825000D02*
X116175000Y-82825000D01*
X112980000Y-79630000D02*
X112980000Y-73780000D01*
X112980000Y-73780000D02*
X110070000Y-70870000D01*
X110070000Y-70870000D02*
X110070000Y-69556998D01*
X114320000Y-65320000D02*
X114313499Y-65313499D01*
X110070000Y-69556998D02*
X114313499Y-65313499D01*
X120425000Y-65295000D02*
X120400000Y-65320000D01*
X120425000Y-59325000D02*
X120425000Y-65295000D01*
X121180000Y-65320000D02*
X120400000Y-65320000D01*
X120400000Y-65320000D02*
X114320000Y-65320000D01*
X136665000Y-66025000D02*
X136665000Y-65985000D01*
X136000000Y-65320000D02*
X134990000Y-65320000D01*
X136665000Y-65985000D02*
X136000000Y-65320000D01*
X145475000Y-77750000D02*
X144500000Y-76775000D01*
X145475000Y-84200000D02*
X145475000Y-77750000D01*
X143950000Y-84900000D02*
X144775000Y-84900000D01*
X144775000Y-84900000D02*
X145475000Y-84200000D01*
D20*
G36*
X150180001Y-86700000D02*
G01*
X107400000Y-86700000D01*
X107400000Y-84729725D01*
X107750000Y-84729725D01*
X107750000Y-85020275D01*
X107806683Y-85305242D01*
X107917872Y-85573675D01*
X108079293Y-85815258D01*
X108284742Y-86020707D01*
X108526325Y-86182128D01*
X108794758Y-86293317D01*
X109079725Y-86350000D01*
X109370275Y-86350000D01*
X109655242Y-86293317D01*
X109923675Y-86182128D01*
X110165258Y-86020707D01*
X110370707Y-85815258D01*
X110532128Y-85573675D01*
X110643317Y-85305242D01*
X110700000Y-85020275D01*
X110700000Y-84802013D01*
X110704783Y-84826059D01*
X110763204Y-84967100D01*
X110848018Y-85094034D01*
X110955966Y-85201982D01*
X111082900Y-85286796D01*
X111223941Y-85345217D01*
X111373669Y-85375000D01*
X111526331Y-85375000D01*
X111676059Y-85345217D01*
X111817100Y-85286796D01*
X111944034Y-85201982D01*
X112051982Y-85094034D01*
X112064700Y-85075000D01*
X116448186Y-85075000D01*
X116448186Y-86075000D01*
X116455426Y-86148513D01*
X116476869Y-86219200D01*
X116511691Y-86284347D01*
X116558552Y-86341448D01*
X116615653Y-86388309D01*
X116680800Y-86423131D01*
X116751487Y-86444574D01*
X116825000Y-86451814D01*
X117825000Y-86451814D01*
X117898513Y-86444574D01*
X117969200Y-86423131D01*
X118034347Y-86388309D01*
X118091448Y-86341448D01*
X118116234Y-86311246D01*
X118258532Y-86387305D01*
X118423470Y-86437339D01*
X118552021Y-86450000D01*
X118637979Y-86450000D01*
X118766530Y-86437339D01*
X118931468Y-86387305D01*
X119083476Y-86306056D01*
X119216712Y-86196712D01*
X119326056Y-86063476D01*
X119407305Y-85911468D01*
X119457339Y-85746530D01*
X119474233Y-85575000D01*
X119457339Y-85403470D01*
X119407305Y-85238532D01*
X119326056Y-85086524D01*
X119216712Y-84953288D01*
X119083476Y-84843944D01*
X118931468Y-84762695D01*
X118766530Y-84712661D01*
X118637979Y-84700000D01*
X118552021Y-84700000D01*
X118423470Y-84712661D01*
X118258532Y-84762695D01*
X118116234Y-84838754D01*
X118091448Y-84808552D01*
X118034347Y-84761691D01*
X117969200Y-84726869D01*
X117898513Y-84705426D01*
X117825000Y-84698186D01*
X116825000Y-84698186D01*
X116751487Y-84705426D01*
X116680800Y-84726869D01*
X116615653Y-84761691D01*
X116558552Y-84808552D01*
X116511691Y-84865653D01*
X116476869Y-84930800D01*
X116455426Y-85001487D01*
X116448186Y-85075000D01*
X112064700Y-85075000D01*
X112136796Y-84967100D01*
X112195217Y-84826059D01*
X112225000Y-84676331D01*
X112225000Y-84523669D01*
X112195217Y-84373941D01*
X112136796Y-84232900D01*
X112051982Y-84105966D01*
X111944034Y-83998018D01*
X111817100Y-83913204D01*
X111676059Y-83854783D01*
X111526331Y-83825000D01*
X111373669Y-83825000D01*
X111223941Y-83854783D01*
X111082900Y-83913204D01*
X110955966Y-83998018D01*
X110848018Y-84105966D01*
X110763204Y-84232900D01*
X110704783Y-84373941D01*
X110675000Y-84523669D01*
X110675000Y-84604040D01*
X110643317Y-84444758D01*
X110532128Y-84176325D01*
X110370707Y-83934742D01*
X110165258Y-83729293D01*
X109923675Y-83567872D01*
X109655242Y-83456683D01*
X109370275Y-83400000D01*
X109079725Y-83400000D01*
X108794758Y-83456683D01*
X108526325Y-83567872D01*
X108284742Y-83729293D01*
X108079293Y-83934742D01*
X107917872Y-84176325D01*
X107806683Y-84444758D01*
X107750000Y-84729725D01*
X107400000Y-84729725D01*
X107400000Y-80573669D01*
X109400000Y-80573669D01*
X109400000Y-80726331D01*
X109429783Y-80876059D01*
X109488204Y-81017100D01*
X109573018Y-81144034D01*
X109680966Y-81251982D01*
X109807900Y-81336796D01*
X109948941Y-81395217D01*
X110098669Y-81425000D01*
X110251331Y-81425000D01*
X110401059Y-81395217D01*
X110542100Y-81336796D01*
X110669034Y-81251982D01*
X110776982Y-81144034D01*
X110861796Y-81017100D01*
X110920217Y-80876059D01*
X110950000Y-80726331D01*
X110950000Y-80573669D01*
X110920217Y-80423941D01*
X110861796Y-80282900D01*
X110776982Y-80155966D01*
X110669034Y-80048018D01*
X110542100Y-79963204D01*
X110401059Y-79904783D01*
X110251331Y-79875000D01*
X110098669Y-79875000D01*
X109948941Y-79904783D01*
X109807900Y-79963204D01*
X109680966Y-80048018D01*
X109573018Y-80155966D01*
X109488204Y-80282900D01*
X109429783Y-80423941D01*
X109400000Y-80573669D01*
X107400000Y-80573669D01*
X107400000Y-77273669D01*
X108825000Y-77273669D01*
X108825000Y-77426331D01*
X108854783Y-77576059D01*
X108913204Y-77717100D01*
X108998018Y-77844034D01*
X109105966Y-77951982D01*
X109232900Y-78036796D01*
X109373941Y-78095217D01*
X109523669Y-78125000D01*
X109676331Y-78125000D01*
X109826059Y-78095217D01*
X109967100Y-78036796D01*
X110094034Y-77951982D01*
X110201982Y-77844034D01*
X110286796Y-77717100D01*
X110345217Y-77576059D01*
X110375000Y-77426331D01*
X110375000Y-77273669D01*
X110345217Y-77123941D01*
X110286796Y-76982900D01*
X110201982Y-76855966D01*
X110094034Y-76748018D01*
X109967100Y-76663204D01*
X109826059Y-76604783D01*
X109676331Y-76575000D01*
X109523669Y-76575000D01*
X109373941Y-76604783D01*
X109232900Y-76663204D01*
X109105966Y-76748018D01*
X108998018Y-76855966D01*
X108913204Y-76982900D01*
X108854783Y-77123941D01*
X108825000Y-77273669D01*
X107400000Y-77273669D01*
X107400000Y-69582034D01*
X107408018Y-69594034D01*
X107515966Y-69701982D01*
X107642900Y-69786796D01*
X107783941Y-69845217D01*
X107933669Y-69875000D01*
X108086331Y-69875000D01*
X108236059Y-69845217D01*
X108377100Y-69786796D01*
X108504034Y-69701982D01*
X108611982Y-69594034D01*
X108636728Y-69556998D01*
X109567581Y-69556998D01*
X109570001Y-69581568D01*
X109570000Y-70845440D01*
X109567581Y-70870000D01*
X109570000Y-70894559D01*
X109577235Y-70968016D01*
X109605825Y-71062266D01*
X109652254Y-71149129D01*
X109714736Y-71225264D01*
X109733824Y-71240929D01*
X112480001Y-73987108D01*
X112480000Y-79605440D01*
X112477581Y-79630000D01*
X112487042Y-79726059D01*
X112487235Y-79728016D01*
X112515825Y-79822266D01*
X112562254Y-79909129D01*
X112624736Y-79985264D01*
X112643824Y-80000929D01*
X115804080Y-83161187D01*
X115819736Y-83180264D01*
X115895871Y-83242746D01*
X115982733Y-83289175D01*
X116076983Y-83317765D01*
X116150440Y-83325000D01*
X116150449Y-83325000D01*
X116174999Y-83327418D01*
X116199549Y-83325000D01*
X116316484Y-83325000D01*
X116418466Y-83426982D01*
X116545400Y-83511796D01*
X116686441Y-83570217D01*
X116836169Y-83600000D01*
X116988831Y-83600000D01*
X117138559Y-83570217D01*
X117279600Y-83511796D01*
X117406534Y-83426982D01*
X117514482Y-83319034D01*
X117599296Y-83192100D01*
X117657717Y-83051059D01*
X117687500Y-82901331D01*
X117687500Y-82748669D01*
X117661651Y-82618717D01*
X117754135Y-82711201D01*
X117769786Y-82730272D01*
X117788857Y-82745923D01*
X117788862Y-82745928D01*
X117845920Y-82792754D01*
X117932781Y-82839183D01*
X118027032Y-82867773D01*
X118125049Y-82877427D01*
X118149608Y-82875008D01*
X119068600Y-82875010D01*
X120635001Y-84441412D01*
X120635001Y-84853401D01*
X120513288Y-84953288D01*
X120403944Y-85086524D01*
X120322695Y-85238532D01*
X120272661Y-85403470D01*
X120255767Y-85575000D01*
X120272661Y-85746530D01*
X120322695Y-85911468D01*
X120403944Y-86063476D01*
X120513288Y-86196712D01*
X120646524Y-86306056D01*
X120798532Y-86387305D01*
X120963470Y-86437339D01*
X121092021Y-86450000D01*
X121177979Y-86450000D01*
X121306530Y-86437339D01*
X121471468Y-86387305D01*
X121623476Y-86306056D01*
X121756712Y-86196712D01*
X121770000Y-86180521D01*
X121783288Y-86196712D01*
X121916524Y-86306056D01*
X122068532Y-86387305D01*
X122233470Y-86437339D01*
X122362021Y-86450000D01*
X122447979Y-86450000D01*
X122576530Y-86437339D01*
X122741468Y-86387305D01*
X122893476Y-86306056D01*
X123026712Y-86196712D01*
X123136056Y-86063476D01*
X123217305Y-85911468D01*
X123267339Y-85746530D01*
X123284233Y-85575000D01*
X123267339Y-85403470D01*
X123217305Y-85238532D01*
X123136056Y-85086524D01*
X123026712Y-84953288D01*
X122906079Y-84854287D01*
X122903064Y-84823669D01*
X143175000Y-84823669D01*
X143175000Y-84976331D01*
X143204783Y-85126059D01*
X143263204Y-85267100D01*
X143348018Y-85394034D01*
X143455966Y-85501982D01*
X143582900Y-85586796D01*
X143723941Y-85645217D01*
X143873669Y-85675000D01*
X144026331Y-85675000D01*
X144176059Y-85645217D01*
X144317100Y-85586796D01*
X144444034Y-85501982D01*
X144546016Y-85400000D01*
X144750440Y-85400000D01*
X144775000Y-85402419D01*
X144799560Y-85400000D01*
X144873017Y-85392765D01*
X144967267Y-85364175D01*
X145054129Y-85317746D01*
X145130264Y-85255264D01*
X145145929Y-85236176D01*
X145652381Y-84729725D01*
X146875000Y-84729725D01*
X146875000Y-85020275D01*
X146931683Y-85305242D01*
X147042872Y-85573675D01*
X147204293Y-85815258D01*
X147409742Y-86020707D01*
X147651325Y-86182128D01*
X147919758Y-86293317D01*
X148204725Y-86350000D01*
X148495275Y-86350000D01*
X148780242Y-86293317D01*
X149048675Y-86182128D01*
X149290258Y-86020707D01*
X149495707Y-85815258D01*
X149657128Y-85573675D01*
X149768317Y-85305242D01*
X149825000Y-85020275D01*
X149825000Y-84729725D01*
X149768317Y-84444758D01*
X149657128Y-84176325D01*
X149495707Y-83934742D01*
X149290258Y-83729293D01*
X149048675Y-83567872D01*
X148780242Y-83456683D01*
X148495275Y-83400000D01*
X148204725Y-83400000D01*
X147919758Y-83456683D01*
X147651325Y-83567872D01*
X147409742Y-83729293D01*
X147204293Y-83934742D01*
X147042872Y-84176325D01*
X146931683Y-84444758D01*
X146875000Y-84729725D01*
X145652381Y-84729725D01*
X145811187Y-84570920D01*
X145830264Y-84555264D01*
X145892746Y-84479129D01*
X145939175Y-84392267D01*
X145967765Y-84298017D01*
X145975000Y-84224560D01*
X145975000Y-84224551D01*
X145977418Y-84200001D01*
X145975000Y-84175451D01*
X145975000Y-77774557D01*
X145977419Y-77749999D01*
X145975000Y-77725440D01*
X145967765Y-77651983D01*
X145939175Y-77557733D01*
X145892746Y-77470871D01*
X145830264Y-77394736D01*
X145811187Y-77379080D01*
X145275000Y-76842894D01*
X145275000Y-76698669D01*
X145245217Y-76548941D01*
X145186796Y-76407900D01*
X145101982Y-76280966D01*
X144994034Y-76173018D01*
X144867100Y-76088204D01*
X144726059Y-76029783D01*
X144576331Y-76000000D01*
X144423669Y-76000000D01*
X144273941Y-76029783D01*
X144132900Y-76088204D01*
X144005966Y-76173018D01*
X143898018Y-76280966D01*
X143813204Y-76407900D01*
X143754783Y-76548941D01*
X143725000Y-76698669D01*
X143725000Y-76851331D01*
X143754783Y-77001059D01*
X143813204Y-77142100D01*
X143898018Y-77269034D01*
X144005966Y-77376982D01*
X144132900Y-77461796D01*
X144273941Y-77520217D01*
X144423669Y-77550000D01*
X144567894Y-77550000D01*
X144975001Y-77957108D01*
X144975000Y-83992893D01*
X144567895Y-84400000D01*
X144546016Y-84400000D01*
X144444034Y-84298018D01*
X144317100Y-84213204D01*
X144176059Y-84154783D01*
X144026331Y-84125000D01*
X143873669Y-84125000D01*
X143723941Y-84154783D01*
X143582900Y-84213204D01*
X143455966Y-84298018D01*
X143348018Y-84405966D01*
X143263204Y-84532900D01*
X143204783Y-84673941D01*
X143175000Y-84823669D01*
X122903064Y-84823669D01*
X122897765Y-84769877D01*
X122885585Y-84729725D01*
X122869175Y-84675627D01*
X122822746Y-84588765D01*
X122760264Y-84512630D01*
X122741187Y-84496974D01*
X119833035Y-81588824D01*
X119817370Y-81569736D01*
X119741235Y-81507254D01*
X119654373Y-81460825D01*
X119560123Y-81432235D01*
X119486666Y-81425000D01*
X119462106Y-81422581D01*
X119437546Y-81425000D01*
X119310733Y-81425000D01*
X119337936Y-81359325D01*
X119367719Y-81209597D01*
X119367719Y-81056935D01*
X119341211Y-80923669D01*
X120200000Y-80923669D01*
X120200000Y-81076331D01*
X120229783Y-81226059D01*
X120288204Y-81367100D01*
X120373018Y-81494034D01*
X120480966Y-81601982D01*
X120607900Y-81686796D01*
X120748941Y-81745217D01*
X120898669Y-81775000D01*
X121051331Y-81775000D01*
X121201059Y-81745217D01*
X121342100Y-81686796D01*
X121469034Y-81601982D01*
X121576982Y-81494034D01*
X121661796Y-81367100D01*
X121720217Y-81226059D01*
X121750000Y-81076331D01*
X121750000Y-80923669D01*
X121720217Y-80773941D01*
X121661796Y-80632900D01*
X121576982Y-80505966D01*
X121469034Y-80398018D01*
X121342100Y-80313204D01*
X121201059Y-80254783D01*
X121051331Y-80225000D01*
X120898669Y-80225000D01*
X120748941Y-80254783D01*
X120607900Y-80313204D01*
X120480966Y-80398018D01*
X120373018Y-80505966D01*
X120288204Y-80632900D01*
X120229783Y-80773941D01*
X120200000Y-80923669D01*
X119341211Y-80923669D01*
X119337936Y-80907207D01*
X119279515Y-80766166D01*
X119226338Y-80686581D01*
X119281819Y-80631100D01*
X119366633Y-80504166D01*
X119425054Y-80363125D01*
X119454837Y-80213397D01*
X119454837Y-80060735D01*
X119425054Y-79911007D01*
X119366633Y-79769966D01*
X119281819Y-79643032D01*
X119259332Y-79620545D01*
X119336796Y-79504610D01*
X119395217Y-79363569D01*
X119425000Y-79213841D01*
X119425000Y-79061179D01*
X119400964Y-78940344D01*
X119507900Y-79011796D01*
X119648941Y-79070217D01*
X119798669Y-79100000D01*
X119951331Y-79100000D01*
X120101059Y-79070217D01*
X120242100Y-79011796D01*
X120369034Y-78926982D01*
X120476982Y-78819034D01*
X120561796Y-78692100D01*
X120620217Y-78551059D01*
X120650000Y-78401331D01*
X120650000Y-78248669D01*
X120620217Y-78098941D01*
X120561796Y-77957900D01*
X120476982Y-77830966D01*
X120369034Y-77723018D01*
X120242100Y-77638204D01*
X120101059Y-77579783D01*
X119951331Y-77550000D01*
X119798669Y-77550000D01*
X119648941Y-77579783D01*
X119507900Y-77638204D01*
X119380966Y-77723018D01*
X119273018Y-77830966D01*
X119188204Y-77957900D01*
X119129783Y-78098941D01*
X119100000Y-78248669D01*
X119100000Y-78401331D01*
X119124036Y-78522166D01*
X119017100Y-78450714D01*
X118876059Y-78392293D01*
X118726331Y-78362510D01*
X118573669Y-78362510D01*
X118423941Y-78392293D01*
X118282900Y-78450714D01*
X118155966Y-78535528D01*
X118065437Y-78626057D01*
X117050018Y-77610640D01*
X117050018Y-76431416D01*
X117132900Y-76486796D01*
X117273941Y-76545217D01*
X117423669Y-76575000D01*
X117576331Y-76575000D01*
X117726059Y-76545217D01*
X117867100Y-76486796D01*
X117994034Y-76401982D01*
X118101982Y-76294034D01*
X118186796Y-76167100D01*
X118245217Y-76026059D01*
X118275000Y-75876331D01*
X118275000Y-75723669D01*
X118245217Y-75573941D01*
X118186796Y-75432900D01*
X118101982Y-75305966D01*
X117994034Y-75198018D01*
X117867100Y-75113204D01*
X117726059Y-75054783D01*
X117576331Y-75025000D01*
X117423669Y-75025000D01*
X117273941Y-75054783D01*
X117132900Y-75113204D01*
X117050018Y-75168584D01*
X117050018Y-74351747D01*
X117052436Y-74327197D01*
X117050018Y-74302647D01*
X117050018Y-74302638D01*
X117042783Y-74229181D01*
X117014193Y-74134931D01*
X116967764Y-74048069D01*
X116905282Y-73971934D01*
X116886205Y-73956278D01*
X116279927Y-73350000D01*
X120447581Y-73350000D01*
X120450001Y-73374570D01*
X120450000Y-77500440D01*
X120447581Y-77525000D01*
X120450000Y-77549559D01*
X120457235Y-77623016D01*
X120485825Y-77717266D01*
X120532254Y-77804129D01*
X120594736Y-77880264D01*
X120613824Y-77895929D01*
X124700000Y-81982107D01*
X124700000Y-82126331D01*
X124729783Y-82276059D01*
X124788204Y-82417100D01*
X124873018Y-82544034D01*
X124980966Y-82651982D01*
X125107900Y-82736796D01*
X125248941Y-82795217D01*
X125398669Y-82825000D01*
X125551331Y-82825000D01*
X125701059Y-82795217D01*
X125842100Y-82736796D01*
X125969034Y-82651982D01*
X126076982Y-82544034D01*
X126161796Y-82417100D01*
X126220217Y-82276059D01*
X126250000Y-82126331D01*
X126250000Y-81973669D01*
X126220217Y-81823941D01*
X126161796Y-81682900D01*
X126076982Y-81555966D01*
X125969034Y-81448018D01*
X125842100Y-81363204D01*
X125701059Y-81304783D01*
X125551331Y-81275000D01*
X125407107Y-81275000D01*
X122205775Y-78073669D01*
X133575000Y-78073669D01*
X133575000Y-78226331D01*
X133604783Y-78376059D01*
X133663204Y-78517100D01*
X133748018Y-78644034D01*
X133753984Y-78650000D01*
X133748018Y-78655966D01*
X133663204Y-78782900D01*
X133604783Y-78923941D01*
X133575000Y-79073669D01*
X133575000Y-79226331D01*
X133604783Y-79376059D01*
X133663204Y-79517100D01*
X133748018Y-79644034D01*
X133855966Y-79751982D01*
X133982900Y-79836796D01*
X134123941Y-79895217D01*
X134273669Y-79925000D01*
X134426331Y-79925000D01*
X134576059Y-79895217D01*
X134717100Y-79836796D01*
X134844034Y-79751982D01*
X134850000Y-79746016D01*
X134855966Y-79751982D01*
X134982900Y-79836796D01*
X135123941Y-79895217D01*
X135273669Y-79925000D01*
X135426331Y-79925000D01*
X135576059Y-79895217D01*
X135717100Y-79836796D01*
X135844034Y-79751982D01*
X135951982Y-79644034D01*
X136036796Y-79517100D01*
X136095217Y-79376059D01*
X136125000Y-79226331D01*
X136125000Y-79073669D01*
X136095217Y-78923941D01*
X136036796Y-78782900D01*
X135951982Y-78655966D01*
X135946016Y-78650000D01*
X135951982Y-78644034D01*
X136036796Y-78517100D01*
X136095217Y-78376059D01*
X136125000Y-78226331D01*
X136125000Y-78073669D01*
X136095217Y-77923941D01*
X136036796Y-77782900D01*
X135951982Y-77655966D01*
X135844034Y-77548018D01*
X135717100Y-77463204D01*
X135576059Y-77404783D01*
X135426331Y-77375000D01*
X135273669Y-77375000D01*
X135123941Y-77404783D01*
X134982900Y-77463204D01*
X134855966Y-77548018D01*
X134850000Y-77553984D01*
X134844034Y-77548018D01*
X134717100Y-77463204D01*
X134576059Y-77404783D01*
X134426331Y-77375000D01*
X134273669Y-77375000D01*
X134123941Y-77404783D01*
X133982900Y-77463204D01*
X133855966Y-77548018D01*
X133748018Y-77655966D01*
X133663204Y-77782900D01*
X133604783Y-77923941D01*
X133575000Y-78073669D01*
X122205775Y-78073669D01*
X121450000Y-77317895D01*
X121450000Y-73557105D01*
X122107106Y-72900000D01*
X122251331Y-72900000D01*
X122401059Y-72870217D01*
X122542100Y-72811796D01*
X122669034Y-72726982D01*
X122776982Y-72619034D01*
X122861796Y-72492100D01*
X122920217Y-72351059D01*
X122950000Y-72201331D01*
X122950000Y-72048669D01*
X122920217Y-71898941D01*
X122861796Y-71757900D01*
X122776982Y-71630966D01*
X122669034Y-71523018D01*
X122542100Y-71438204D01*
X122401059Y-71379783D01*
X122251331Y-71350000D01*
X122098669Y-71350000D01*
X121948941Y-71379783D01*
X121807900Y-71438204D01*
X121680966Y-71523018D01*
X121573018Y-71630966D01*
X121488204Y-71757900D01*
X121429783Y-71898941D01*
X121400000Y-72048669D01*
X121400000Y-72192894D01*
X120613819Y-72979076D01*
X120594737Y-72994736D01*
X120532255Y-73070871D01*
X120485826Y-73157733D01*
X120457235Y-73251983D01*
X120447581Y-73350000D01*
X116279927Y-73350000D01*
X113600000Y-70670075D01*
X113600000Y-70471016D01*
X113701982Y-70369034D01*
X113786796Y-70242100D01*
X113845217Y-70101059D01*
X113875000Y-69951331D01*
X113875000Y-69798669D01*
X113845217Y-69648941D01*
X113786796Y-69507900D01*
X113701982Y-69380966D01*
X113594034Y-69273018D01*
X113467100Y-69188204D01*
X113326059Y-69129783D01*
X113176331Y-69100000D01*
X113023669Y-69100000D01*
X112873941Y-69129783D01*
X112732900Y-69188204D01*
X112605966Y-69273018D01*
X112512500Y-69366484D01*
X112419034Y-69273018D01*
X112292100Y-69188204D01*
X112151059Y-69129783D01*
X112001331Y-69100000D01*
X111848669Y-69100000D01*
X111698941Y-69129783D01*
X111557900Y-69188204D01*
X111430966Y-69273018D01*
X111375000Y-69328984D01*
X111319034Y-69273018D01*
X111192100Y-69188204D01*
X111159431Y-69174672D01*
X114514105Y-65820000D01*
X120375440Y-65820000D01*
X120400000Y-65822419D01*
X120424560Y-65820000D01*
X132935440Y-65820000D01*
X132960000Y-65822419D01*
X132984560Y-65820000D01*
X135792895Y-65820000D01*
X136165000Y-66192106D01*
X136165001Y-66670432D01*
X136162581Y-66695002D01*
X136172235Y-66793019D01*
X136175000Y-66802134D01*
X136175000Y-68503984D01*
X136094034Y-68423018D01*
X135967100Y-68338204D01*
X135826059Y-68279783D01*
X135676331Y-68250000D01*
X135523669Y-68250000D01*
X135373941Y-68279783D01*
X135232900Y-68338204D01*
X135105966Y-68423018D01*
X135100000Y-68428984D01*
X135094034Y-68423018D01*
X134967100Y-68338204D01*
X134826059Y-68279783D01*
X134676331Y-68250000D01*
X134523669Y-68250000D01*
X134373941Y-68279783D01*
X134232900Y-68338204D01*
X134105966Y-68423018D01*
X134100000Y-68428984D01*
X134094034Y-68423018D01*
X133967100Y-68338204D01*
X133826059Y-68279783D01*
X133676331Y-68250000D01*
X133523669Y-68250000D01*
X133373941Y-68279783D01*
X133232900Y-68338204D01*
X133105966Y-68423018D01*
X132998018Y-68530966D01*
X132913204Y-68657900D01*
X132854783Y-68798941D01*
X132825000Y-68948669D01*
X132825000Y-69101331D01*
X132854783Y-69251059D01*
X132913204Y-69392100D01*
X132998018Y-69519034D01*
X133003984Y-69525000D01*
X132998018Y-69530966D01*
X132913204Y-69657900D01*
X132854783Y-69798941D01*
X132825000Y-69948669D01*
X132825000Y-70101331D01*
X132854783Y-70251059D01*
X132913204Y-70392100D01*
X132998018Y-70519034D01*
X133016484Y-70537500D01*
X132998018Y-70555966D01*
X132913204Y-70682900D01*
X132854783Y-70823941D01*
X132825000Y-70973669D01*
X132825000Y-71126331D01*
X132854783Y-71276059D01*
X132913204Y-71417100D01*
X132998018Y-71544034D01*
X133105966Y-71651982D01*
X133232900Y-71736796D01*
X133373941Y-71795217D01*
X133523669Y-71825000D01*
X133676331Y-71825000D01*
X133826059Y-71795217D01*
X133967100Y-71736796D01*
X134094034Y-71651982D01*
X134100000Y-71646016D01*
X134105966Y-71651982D01*
X134232900Y-71736796D01*
X134373941Y-71795217D01*
X134523669Y-71825000D01*
X134676331Y-71825000D01*
X134826059Y-71795217D01*
X134967100Y-71736796D01*
X135094034Y-71651982D01*
X135100000Y-71646016D01*
X135105966Y-71651982D01*
X135232900Y-71736796D01*
X135373941Y-71795217D01*
X135523669Y-71825000D01*
X135676331Y-71825000D01*
X135826059Y-71795217D01*
X135967100Y-71736796D01*
X136094034Y-71651982D01*
X136175000Y-71571016D01*
X136174999Y-81379708D01*
X136048941Y-81404783D01*
X135907900Y-81463204D01*
X135780966Y-81548018D01*
X135673018Y-81655966D01*
X135588204Y-81782900D01*
X135529783Y-81923941D01*
X135500000Y-82073669D01*
X135500000Y-82226331D01*
X135529783Y-82376059D01*
X135588204Y-82517100D01*
X135673018Y-82644034D01*
X135780966Y-82751982D01*
X135907900Y-82836796D01*
X136048941Y-82895217D01*
X136198669Y-82925000D01*
X136351331Y-82925000D01*
X136501059Y-82895217D01*
X136642100Y-82836796D01*
X136769034Y-82751982D01*
X136876982Y-82644034D01*
X136961796Y-82517100D01*
X137020217Y-82376059D01*
X137050000Y-82226331D01*
X137050000Y-82081215D01*
X137092745Y-82029130D01*
X137139174Y-81942268D01*
X137159576Y-81875011D01*
X137167764Y-81848019D01*
X137177418Y-81750002D01*
X137174999Y-81725442D01*
X137174999Y-79423669D01*
X140375000Y-79423669D01*
X140375000Y-79576331D01*
X140404783Y-79726059D01*
X140463204Y-79867100D01*
X140548018Y-79994034D01*
X140655966Y-80101982D01*
X140782900Y-80186796D01*
X140923941Y-80245217D01*
X141073669Y-80275000D01*
X141226331Y-80275000D01*
X141376059Y-80245217D01*
X141517100Y-80186796D01*
X141644034Y-80101982D01*
X141751982Y-79994034D01*
X141836796Y-79867100D01*
X141895217Y-79726059D01*
X141925000Y-79576331D01*
X141925000Y-79423669D01*
X141895217Y-79273941D01*
X141836796Y-79132900D01*
X141751982Y-79005966D01*
X141644034Y-78898018D01*
X141517100Y-78813204D01*
X141376059Y-78754783D01*
X141226331Y-78725000D01*
X141073669Y-78725000D01*
X140923941Y-78754783D01*
X140782900Y-78813204D01*
X140655966Y-78898018D01*
X140548018Y-79005966D01*
X140463204Y-79132900D01*
X140404783Y-79273941D01*
X140375000Y-79423669D01*
X137174999Y-79423669D01*
X137174999Y-66729561D01*
X137177418Y-66705001D01*
X137167764Y-66606985D01*
X137165000Y-66597873D01*
X137165000Y-66525000D01*
X141828984Y-66525000D01*
X141930966Y-66626982D01*
X142057900Y-66711796D01*
X142198941Y-66770217D01*
X142348669Y-66800000D01*
X142501331Y-66800000D01*
X142651059Y-66770217D01*
X142792100Y-66711796D01*
X142919034Y-66626982D01*
X142987500Y-66558516D01*
X143055966Y-66626982D01*
X143182900Y-66711796D01*
X143323941Y-66770217D01*
X143473669Y-66800000D01*
X143617895Y-66800000D01*
X146630000Y-69812107D01*
X146630000Y-70123984D01*
X146528018Y-70225966D01*
X146443204Y-70352900D01*
X146384783Y-70493941D01*
X146355000Y-70643669D01*
X146355000Y-70796331D01*
X146384783Y-70946059D01*
X146443204Y-71087100D01*
X146528018Y-71214034D01*
X146635966Y-71321982D01*
X146762900Y-71406796D01*
X146903941Y-71465217D01*
X147053669Y-71495000D01*
X147206331Y-71495000D01*
X147356059Y-71465217D01*
X147497100Y-71406796D01*
X147624034Y-71321982D01*
X147731982Y-71214034D01*
X147816796Y-71087100D01*
X147875217Y-70946059D01*
X147905000Y-70796331D01*
X147905000Y-70643669D01*
X147875217Y-70493941D01*
X147816796Y-70352900D01*
X147731982Y-70225966D01*
X147630000Y-70123984D01*
X147630000Y-69629560D01*
X147632419Y-69605000D01*
X147622765Y-69506983D01*
X147607680Y-69457254D01*
X147594175Y-69412733D01*
X147547746Y-69325871D01*
X147485264Y-69249736D01*
X147466187Y-69234080D01*
X144325000Y-66092895D01*
X144325000Y-65948669D01*
X144295217Y-65798941D01*
X144236796Y-65657900D01*
X144151982Y-65530966D01*
X144044034Y-65423018D01*
X143917100Y-65338204D01*
X143847663Y-65309442D01*
X145750000Y-63407106D01*
X145750000Y-63476331D01*
X145779783Y-63626059D01*
X145838204Y-63767100D01*
X145923018Y-63894034D01*
X146030966Y-64001982D01*
X146157900Y-64086796D01*
X146298941Y-64145217D01*
X146448669Y-64175000D01*
X146601331Y-64175000D01*
X146751059Y-64145217D01*
X146892100Y-64086796D01*
X147019034Y-64001982D01*
X147025000Y-63996016D01*
X147030966Y-64001982D01*
X147157900Y-64086796D01*
X147298941Y-64145217D01*
X147448669Y-64175000D01*
X147601331Y-64175000D01*
X147751059Y-64145217D01*
X147892100Y-64086796D01*
X148019034Y-64001982D01*
X148126982Y-63894034D01*
X148211796Y-63767100D01*
X148270217Y-63626059D01*
X148300000Y-63476331D01*
X148300000Y-63323669D01*
X148270217Y-63173941D01*
X148211796Y-63032900D01*
X148126982Y-62905966D01*
X148121016Y-62900000D01*
X148126982Y-62894034D01*
X148211796Y-62767100D01*
X148270217Y-62626059D01*
X148300000Y-62476331D01*
X148300000Y-62323669D01*
X148270217Y-62173941D01*
X148211796Y-62032900D01*
X148126982Y-61905966D01*
X148019034Y-61798018D01*
X147892100Y-61713204D01*
X147751059Y-61654783D01*
X147601331Y-61625000D01*
X147448669Y-61625000D01*
X147298941Y-61654783D01*
X147157900Y-61713204D01*
X147030966Y-61798018D01*
X147025000Y-61803984D01*
X147019034Y-61798018D01*
X146892100Y-61713204D01*
X146751059Y-61654783D01*
X146601331Y-61625000D01*
X146448669Y-61625000D01*
X146298941Y-61654783D01*
X146157900Y-61713204D01*
X146030966Y-61798018D01*
X146025000Y-61803984D01*
X146025000Y-59871016D01*
X146126982Y-59769034D01*
X146211796Y-59642100D01*
X146270217Y-59501059D01*
X146300000Y-59351331D01*
X146300000Y-59198669D01*
X146270217Y-59048941D01*
X146211796Y-58907900D01*
X146126982Y-58780966D01*
X146019034Y-58673018D01*
X145892100Y-58588204D01*
X145751059Y-58529783D01*
X145601331Y-58500000D01*
X145448669Y-58500000D01*
X145298941Y-58529783D01*
X145157900Y-58588204D01*
X145030966Y-58673018D01*
X144923018Y-58780966D01*
X144838204Y-58907900D01*
X144779783Y-59048941D01*
X144750000Y-59198669D01*
X144750000Y-59351331D01*
X144779783Y-59501059D01*
X144838204Y-59642100D01*
X144923018Y-59769034D01*
X145025000Y-59871016D01*
X145025001Y-62717893D01*
X142492895Y-65250000D01*
X142348669Y-65250000D01*
X142198941Y-65279783D01*
X142057900Y-65338204D01*
X141930966Y-65423018D01*
X141828984Y-65525000D01*
X136912106Y-65525000D01*
X136777894Y-65390788D01*
X136848941Y-65420217D01*
X136998669Y-65450000D01*
X137151331Y-65450000D01*
X137301059Y-65420217D01*
X137442100Y-65361796D01*
X137569034Y-65276982D01*
X137676982Y-65169034D01*
X137761796Y-65042100D01*
X137820217Y-64901059D01*
X137850000Y-64751331D01*
X137850000Y-64598669D01*
X137820217Y-64448941D01*
X137761796Y-64307900D01*
X137676982Y-64180966D01*
X137569034Y-64073018D01*
X137442100Y-63988204D01*
X137301059Y-63929783D01*
X137175001Y-63904708D01*
X137175001Y-61973669D01*
X139975000Y-61973669D01*
X139975000Y-62126331D01*
X140004783Y-62276059D01*
X140063204Y-62417100D01*
X140148018Y-62544034D01*
X140255966Y-62651982D01*
X140382900Y-62736796D01*
X140523941Y-62795217D01*
X140673669Y-62825000D01*
X140826331Y-62825000D01*
X140976059Y-62795217D01*
X141117100Y-62736796D01*
X141244034Y-62651982D01*
X141351982Y-62544034D01*
X141436796Y-62417100D01*
X141495217Y-62276059D01*
X141525000Y-62126331D01*
X141525000Y-61973669D01*
X141495217Y-61823941D01*
X141436796Y-61682900D01*
X141351982Y-61555966D01*
X141244034Y-61448018D01*
X141117100Y-61363204D01*
X140976059Y-61304783D01*
X140826331Y-61275000D01*
X140673669Y-61275000D01*
X140523941Y-61304783D01*
X140382900Y-61363204D01*
X140255966Y-61448018D01*
X140148018Y-61555966D01*
X140063204Y-61682900D01*
X140004783Y-61823941D01*
X139975000Y-61973669D01*
X137175001Y-61973669D01*
X137175001Y-57282105D01*
X137332106Y-57125000D01*
X137603984Y-57125000D01*
X137705966Y-57226982D01*
X137832900Y-57311796D01*
X137973941Y-57370217D01*
X138123669Y-57400000D01*
X138276331Y-57400000D01*
X138426059Y-57370217D01*
X138567100Y-57311796D01*
X138694034Y-57226982D01*
X138801982Y-57119034D01*
X138886796Y-56992100D01*
X138945217Y-56851059D01*
X138975000Y-56701331D01*
X138975000Y-56548669D01*
X138945217Y-56398941D01*
X138895837Y-56279725D01*
X146875000Y-56279725D01*
X146875000Y-56570275D01*
X146931683Y-56855242D01*
X147042872Y-57123675D01*
X147204293Y-57365258D01*
X147409742Y-57570707D01*
X147651325Y-57732128D01*
X147919758Y-57843317D01*
X148204725Y-57900000D01*
X148495275Y-57900000D01*
X148780242Y-57843317D01*
X149048675Y-57732128D01*
X149290258Y-57570707D01*
X149495707Y-57365258D01*
X149657128Y-57123675D01*
X149768317Y-56855242D01*
X149825000Y-56570275D01*
X149825000Y-56279725D01*
X149768317Y-55994758D01*
X149657128Y-55726325D01*
X149495707Y-55484742D01*
X149290258Y-55279293D01*
X149048675Y-55117872D01*
X148780242Y-55006683D01*
X148495275Y-54950000D01*
X148204725Y-54950000D01*
X147919758Y-55006683D01*
X147651325Y-55117872D01*
X147409742Y-55279293D01*
X147204293Y-55484742D01*
X147042872Y-55726325D01*
X146931683Y-55994758D01*
X146875000Y-56279725D01*
X138895837Y-56279725D01*
X138886796Y-56257900D01*
X138801982Y-56130966D01*
X138694034Y-56023018D01*
X138567100Y-55938204D01*
X138426059Y-55879783D01*
X138276331Y-55850000D01*
X138123669Y-55850000D01*
X137973941Y-55879783D01*
X137832900Y-55938204D01*
X137705966Y-56023018D01*
X137603984Y-56125000D01*
X137149560Y-56125000D01*
X137125000Y-56122581D01*
X137100440Y-56125000D01*
X137026983Y-56132235D01*
X136932733Y-56160825D01*
X136845871Y-56207254D01*
X136769736Y-56269736D01*
X136754079Y-56288814D01*
X136338820Y-56704075D01*
X136319738Y-56719735D01*
X136257256Y-56795870D01*
X136227757Y-56851059D01*
X136210827Y-56882732D01*
X136182236Y-56976982D01*
X136172582Y-57074999D01*
X136175002Y-57099569D01*
X136175001Y-64250441D01*
X136172582Y-64275001D01*
X136182236Y-64373018D01*
X136189169Y-64395871D01*
X136210826Y-64467267D01*
X136257255Y-64554130D01*
X136300000Y-64606215D01*
X136300000Y-64751331D01*
X136329783Y-64901059D01*
X136357071Y-64966938D01*
X136355264Y-64964736D01*
X136279129Y-64902254D01*
X136192267Y-64855825D01*
X136098017Y-64827235D01*
X136024560Y-64820000D01*
X136000000Y-64817581D01*
X135975440Y-64820000D01*
X133550000Y-64820000D01*
X133550000Y-63921016D01*
X133605966Y-63976982D01*
X133732900Y-64061796D01*
X133873941Y-64120217D01*
X134023669Y-64150000D01*
X134176331Y-64150000D01*
X134326059Y-64120217D01*
X134467100Y-64061796D01*
X134594034Y-63976982D01*
X134600000Y-63971016D01*
X134605966Y-63976982D01*
X134732900Y-64061796D01*
X134873941Y-64120217D01*
X135023669Y-64150000D01*
X135176331Y-64150000D01*
X135326059Y-64120217D01*
X135467100Y-64061796D01*
X135594034Y-63976982D01*
X135701982Y-63869034D01*
X135786796Y-63742100D01*
X135845217Y-63601059D01*
X135875000Y-63451331D01*
X135875000Y-63298669D01*
X135845217Y-63148941D01*
X135786796Y-63007900D01*
X135701982Y-62880966D01*
X135696016Y-62875000D01*
X135701982Y-62869034D01*
X135786796Y-62742100D01*
X135845217Y-62601059D01*
X135875000Y-62451331D01*
X135875000Y-62298669D01*
X135845217Y-62148941D01*
X135786796Y-62007900D01*
X135701982Y-61880966D01*
X135594034Y-61773018D01*
X135467100Y-61688204D01*
X135326059Y-61629783D01*
X135176331Y-61600000D01*
X135023669Y-61600000D01*
X134873941Y-61629783D01*
X134732900Y-61688204D01*
X134605966Y-61773018D01*
X134600000Y-61778984D01*
X134594034Y-61773018D01*
X134467100Y-61688204D01*
X134326059Y-61629783D01*
X134176331Y-61600000D01*
X134023669Y-61600000D01*
X133873941Y-61629783D01*
X133732900Y-61688204D01*
X133605966Y-61773018D01*
X133550000Y-61828984D01*
X133550000Y-59946016D01*
X133651982Y-59844034D01*
X133736796Y-59717100D01*
X133795217Y-59576059D01*
X133825000Y-59426331D01*
X133825000Y-59273669D01*
X133795217Y-59123941D01*
X133736796Y-58982900D01*
X133651982Y-58855966D01*
X133544034Y-58748018D01*
X133417100Y-58663204D01*
X133276059Y-58604783D01*
X133126331Y-58575000D01*
X132973669Y-58575000D01*
X132823941Y-58604783D01*
X132682900Y-58663204D01*
X132555966Y-58748018D01*
X132448018Y-58855966D01*
X132363204Y-58982900D01*
X132304783Y-59123941D01*
X132275000Y-59273669D01*
X132275000Y-59426331D01*
X132304783Y-59576059D01*
X132363204Y-59717100D01*
X132448018Y-59844034D01*
X132550001Y-59946017D01*
X132550000Y-64820000D01*
X125420950Y-64820000D01*
X125470217Y-64701059D01*
X125500000Y-64551331D01*
X125500000Y-64398669D01*
X125470217Y-64248941D01*
X125411796Y-64107900D01*
X125326982Y-63980966D01*
X125219034Y-63873018D01*
X125092100Y-63788204D01*
X124951059Y-63729783D01*
X124801331Y-63700000D01*
X124657105Y-63700000D01*
X124550000Y-63592895D01*
X124550000Y-61948669D01*
X127550000Y-61948669D01*
X127550000Y-62101331D01*
X127579783Y-62251059D01*
X127638204Y-62392100D01*
X127723018Y-62519034D01*
X127830966Y-62626982D01*
X127957900Y-62711796D01*
X128098941Y-62770217D01*
X128248669Y-62800000D01*
X128401331Y-62800000D01*
X128551059Y-62770217D01*
X128692100Y-62711796D01*
X128819034Y-62626982D01*
X128926982Y-62519034D01*
X129011796Y-62392100D01*
X129070217Y-62251059D01*
X129100000Y-62101331D01*
X129100000Y-61948669D01*
X129070217Y-61798941D01*
X129011796Y-61657900D01*
X128926982Y-61530966D01*
X128819034Y-61423018D01*
X128692100Y-61338204D01*
X128551059Y-61279783D01*
X128401331Y-61250000D01*
X128248669Y-61250000D01*
X128098941Y-61279783D01*
X127957900Y-61338204D01*
X127830966Y-61423018D01*
X127723018Y-61530966D01*
X127638204Y-61657900D01*
X127579783Y-61798941D01*
X127550000Y-61948669D01*
X124550000Y-61948669D01*
X124550000Y-57457105D01*
X124882107Y-57125000D01*
X125178984Y-57125000D01*
X125280966Y-57226982D01*
X125407900Y-57311796D01*
X125548941Y-57370217D01*
X125698669Y-57400000D01*
X125851331Y-57400000D01*
X126001059Y-57370217D01*
X126142100Y-57311796D01*
X126269034Y-57226982D01*
X126376982Y-57119034D01*
X126461796Y-56992100D01*
X126520217Y-56851059D01*
X126550000Y-56701331D01*
X126550000Y-56548669D01*
X126520217Y-56398941D01*
X126461796Y-56257900D01*
X126376982Y-56130966D01*
X126269034Y-56023018D01*
X126142100Y-55938204D01*
X126001059Y-55879783D01*
X125851331Y-55850000D01*
X125698669Y-55850000D01*
X125548941Y-55879783D01*
X125407900Y-55938204D01*
X125280966Y-56023018D01*
X125178984Y-56125000D01*
X124699549Y-56125000D01*
X124674999Y-56122582D01*
X124650449Y-56125000D01*
X124650440Y-56125000D01*
X124576983Y-56132235D01*
X124482733Y-56160825D01*
X124395871Y-56207254D01*
X124319736Y-56269736D01*
X124304080Y-56288814D01*
X123713819Y-56879076D01*
X123694737Y-56894736D01*
X123632255Y-56970871D01*
X123615625Y-57001984D01*
X123585826Y-57057733D01*
X123557235Y-57151983D01*
X123547581Y-57250000D01*
X123550001Y-57274570D01*
X123550000Y-63775440D01*
X123547581Y-63800000D01*
X123550000Y-63824559D01*
X123557235Y-63898016D01*
X123585825Y-63992266D01*
X123632254Y-64079129D01*
X123694736Y-64155264D01*
X123713824Y-64170929D01*
X123950000Y-64407105D01*
X123950000Y-64551331D01*
X123979783Y-64701059D01*
X124029050Y-64820000D01*
X120925000Y-64820000D01*
X120925000Y-63759585D01*
X120948018Y-63794034D01*
X121055966Y-63901982D01*
X121182900Y-63986796D01*
X121323941Y-64045217D01*
X121473669Y-64075000D01*
X121626331Y-64075000D01*
X121776059Y-64045217D01*
X121917100Y-63986796D01*
X122044034Y-63901982D01*
X122050000Y-63896016D01*
X122055966Y-63901982D01*
X122182900Y-63986796D01*
X122323941Y-64045217D01*
X122473669Y-64075000D01*
X122626331Y-64075000D01*
X122776059Y-64045217D01*
X122917100Y-63986796D01*
X123044034Y-63901982D01*
X123151982Y-63794034D01*
X123236796Y-63667100D01*
X123295217Y-63526059D01*
X123325000Y-63376331D01*
X123325000Y-63223669D01*
X123295217Y-63073941D01*
X123236796Y-62932900D01*
X123151982Y-62805966D01*
X123146016Y-62800000D01*
X123151982Y-62794034D01*
X123236796Y-62667100D01*
X123295217Y-62526059D01*
X123325000Y-62376331D01*
X123325000Y-62223669D01*
X123295217Y-62073941D01*
X123236796Y-61932900D01*
X123151982Y-61805966D01*
X123044034Y-61698018D01*
X122917100Y-61613204D01*
X122776059Y-61554783D01*
X122626331Y-61525000D01*
X122473669Y-61525000D01*
X122323941Y-61554783D01*
X122182900Y-61613204D01*
X122055966Y-61698018D01*
X122050000Y-61703984D01*
X122044034Y-61698018D01*
X121917100Y-61613204D01*
X121776059Y-61554783D01*
X121626331Y-61525000D01*
X121473669Y-61525000D01*
X121323941Y-61554783D01*
X121182900Y-61613204D01*
X121055966Y-61698018D01*
X120948018Y-61805966D01*
X120925000Y-61840415D01*
X120925000Y-59921016D01*
X121026982Y-59819034D01*
X121111796Y-59692100D01*
X121170217Y-59551059D01*
X121200000Y-59401331D01*
X121200000Y-59248669D01*
X121170217Y-59098941D01*
X121111796Y-58957900D01*
X121026982Y-58830966D01*
X120919034Y-58723018D01*
X120792100Y-58638204D01*
X120651059Y-58579783D01*
X120501331Y-58550000D01*
X120348669Y-58550000D01*
X120198941Y-58579783D01*
X120057900Y-58638204D01*
X119930966Y-58723018D01*
X119823018Y-58830966D01*
X119738204Y-58957900D01*
X119679783Y-59098941D01*
X119650000Y-59248669D01*
X119650000Y-59401331D01*
X119679783Y-59551059D01*
X119738204Y-59692100D01*
X119823018Y-59819034D01*
X119925000Y-59921016D01*
X119925001Y-64820000D01*
X114404064Y-64820000D01*
X114313499Y-64811080D01*
X114215482Y-64820734D01*
X114121231Y-64849325D01*
X114034370Y-64895753D01*
X113977312Y-64942579D01*
X113977302Y-64942589D01*
X113958236Y-64958236D01*
X113942589Y-64977302D01*
X109733819Y-69186074D01*
X109714737Y-69201734D01*
X109652255Y-69277869D01*
X109651232Y-69279783D01*
X109605826Y-69364731D01*
X109577235Y-69458981D01*
X109567581Y-69556998D01*
X108636728Y-69556998D01*
X108696796Y-69467100D01*
X108755217Y-69326059D01*
X108785000Y-69176331D01*
X108785000Y-69023669D01*
X108755217Y-68873941D01*
X108696796Y-68732900D01*
X108611982Y-68605966D01*
X108504034Y-68498018D01*
X108377100Y-68413204D01*
X108236059Y-68354783D01*
X108086331Y-68325000D01*
X107933669Y-68325000D01*
X107783941Y-68354783D01*
X107642900Y-68413204D01*
X107515966Y-68498018D01*
X107408018Y-68605966D01*
X107400000Y-68617966D01*
X107400000Y-56279725D01*
X107725000Y-56279725D01*
X107725000Y-56570275D01*
X107781683Y-56855242D01*
X107892872Y-57123675D01*
X108054293Y-57365258D01*
X108259742Y-57570707D01*
X108501325Y-57732128D01*
X108769758Y-57843317D01*
X109054725Y-57900000D01*
X109345275Y-57900000D01*
X109630242Y-57843317D01*
X109898675Y-57732128D01*
X110140258Y-57570707D01*
X110345707Y-57365258D01*
X110507128Y-57123675D01*
X110516934Y-57100000D01*
X110947581Y-57100000D01*
X110950000Y-57124560D01*
X110950000Y-57424559D01*
X110950001Y-57424569D01*
X110950000Y-63084755D01*
X110947581Y-63109315D01*
X110950000Y-63133874D01*
X110957235Y-63207331D01*
X110985825Y-63301581D01*
X111032254Y-63388444D01*
X111094736Y-63464579D01*
X111113824Y-63480244D01*
X111634611Y-64001032D01*
X111563204Y-64107900D01*
X111504783Y-64248941D01*
X111475000Y-64398669D01*
X111475000Y-64551331D01*
X111504783Y-64701059D01*
X111563204Y-64842100D01*
X111648018Y-64969034D01*
X111755966Y-65076982D01*
X111882900Y-65161796D01*
X112023941Y-65220217D01*
X112173669Y-65250000D01*
X112326331Y-65250000D01*
X112476059Y-65220217D01*
X112617100Y-65161796D01*
X112744034Y-65076982D01*
X112851982Y-64969034D01*
X112936796Y-64842100D01*
X112995217Y-64701059D01*
X113025000Y-64551331D01*
X113025000Y-64398669D01*
X112995217Y-64248941D01*
X112936796Y-64107900D01*
X112851982Y-63980966D01*
X112749370Y-63878354D01*
X112742765Y-63811298D01*
X112737528Y-63794034D01*
X112714175Y-63717048D01*
X112667746Y-63630186D01*
X112605264Y-63554051D01*
X112586187Y-63538395D01*
X111950000Y-62902210D01*
X111950000Y-61873669D01*
X114900000Y-61873669D01*
X114900000Y-62026331D01*
X114929783Y-62176059D01*
X114988204Y-62317100D01*
X115073018Y-62444034D01*
X115180966Y-62551982D01*
X115307900Y-62636796D01*
X115448941Y-62695217D01*
X115598669Y-62725000D01*
X115751331Y-62725000D01*
X115901059Y-62695217D01*
X116042100Y-62636796D01*
X116169034Y-62551982D01*
X116276982Y-62444034D01*
X116361796Y-62317100D01*
X116420217Y-62176059D01*
X116450000Y-62026331D01*
X116450000Y-61873669D01*
X116420217Y-61723941D01*
X116361796Y-61582900D01*
X116276982Y-61455966D01*
X116169034Y-61348018D01*
X116042100Y-61263204D01*
X115901059Y-61204783D01*
X115751331Y-61175000D01*
X115598669Y-61175000D01*
X115448941Y-61204783D01*
X115307900Y-61263204D01*
X115180966Y-61348018D01*
X115073018Y-61455966D01*
X114988204Y-61582900D01*
X114929783Y-61723941D01*
X114900000Y-61873669D01*
X111950000Y-61873669D01*
X111950000Y-57307106D01*
X112082106Y-57175000D01*
X112878984Y-57175000D01*
X112980966Y-57276982D01*
X113107900Y-57361796D01*
X113248941Y-57420217D01*
X113398669Y-57450000D01*
X113551331Y-57450000D01*
X113701059Y-57420217D01*
X113842100Y-57361796D01*
X113969034Y-57276982D01*
X114076982Y-57169034D01*
X114161796Y-57042100D01*
X114220217Y-56901059D01*
X114250000Y-56751331D01*
X114250000Y-56598669D01*
X114220217Y-56448941D01*
X114161796Y-56307900D01*
X114076982Y-56180966D01*
X113969034Y-56073018D01*
X113842100Y-55988204D01*
X113701059Y-55929783D01*
X113551331Y-55900000D01*
X113398669Y-55900000D01*
X113248941Y-55929783D01*
X113107900Y-55988204D01*
X112980966Y-56073018D01*
X112878984Y-56175000D01*
X111899560Y-56175000D01*
X111875000Y-56172581D01*
X111850440Y-56175000D01*
X111776983Y-56182235D01*
X111682733Y-56210825D01*
X111595871Y-56257254D01*
X111519736Y-56319736D01*
X111504079Y-56338814D01*
X111113819Y-56729076D01*
X111094737Y-56744736D01*
X111032255Y-56820871D01*
X110992773Y-56894736D01*
X110985826Y-56907733D01*
X110957235Y-57001983D01*
X110947581Y-57100000D01*
X110516934Y-57100000D01*
X110618317Y-56855242D01*
X110675000Y-56570275D01*
X110675000Y-56279725D01*
X110618317Y-55994758D01*
X110507128Y-55726325D01*
X110345707Y-55484742D01*
X110140258Y-55279293D01*
X109898675Y-55117872D01*
X109630242Y-55006683D01*
X109345275Y-54950000D01*
X109054725Y-54950000D01*
X108769758Y-55006683D01*
X108501325Y-55117872D01*
X108259742Y-55279293D01*
X108054293Y-55484742D01*
X107892872Y-55726325D01*
X107781683Y-55994758D01*
X107725000Y-56279725D01*
X107400000Y-56279725D01*
X107400000Y-54600000D01*
X150180000Y-54600000D01*
X150180001Y-86700000D01*
X150180001Y-86700000D01*
G37*
X150180001Y-86700000D02*
X107400000Y-86700000D01*
X107400000Y-84729725D01*
X107750000Y-84729725D01*
X107750000Y-85020275D01*
X107806683Y-85305242D01*
X107917872Y-85573675D01*
X108079293Y-85815258D01*
X108284742Y-86020707D01*
X108526325Y-86182128D01*
X108794758Y-86293317D01*
X109079725Y-86350000D01*
X109370275Y-86350000D01*
X109655242Y-86293317D01*
X109923675Y-86182128D01*
X110165258Y-86020707D01*
X110370707Y-85815258D01*
X110532128Y-85573675D01*
X110643317Y-85305242D01*
X110700000Y-85020275D01*
X110700000Y-84802013D01*
X110704783Y-84826059D01*
X110763204Y-84967100D01*
X110848018Y-85094034D01*
X110955966Y-85201982D01*
X111082900Y-85286796D01*
X111223941Y-85345217D01*
X111373669Y-85375000D01*
X111526331Y-85375000D01*
X111676059Y-85345217D01*
X111817100Y-85286796D01*
X111944034Y-85201982D01*
X112051982Y-85094034D01*
X112064700Y-85075000D01*
X116448186Y-85075000D01*
X116448186Y-86075000D01*
X116455426Y-86148513D01*
X116476869Y-86219200D01*
X116511691Y-86284347D01*
X116558552Y-86341448D01*
X116615653Y-86388309D01*
X116680800Y-86423131D01*
X116751487Y-86444574D01*
X116825000Y-86451814D01*
X117825000Y-86451814D01*
X117898513Y-86444574D01*
X117969200Y-86423131D01*
X118034347Y-86388309D01*
X118091448Y-86341448D01*
X118116234Y-86311246D01*
X118258532Y-86387305D01*
X118423470Y-86437339D01*
X118552021Y-86450000D01*
X118637979Y-86450000D01*
X118766530Y-86437339D01*
X118931468Y-86387305D01*
X119083476Y-86306056D01*
X119216712Y-86196712D01*
X119326056Y-86063476D01*
X119407305Y-85911468D01*
X119457339Y-85746530D01*
X119474233Y-85575000D01*
X119457339Y-85403470D01*
X119407305Y-85238532D01*
X119326056Y-85086524D01*
X119216712Y-84953288D01*
X119083476Y-84843944D01*
X118931468Y-84762695D01*
X118766530Y-84712661D01*
X118637979Y-84700000D01*
X118552021Y-84700000D01*
X118423470Y-84712661D01*
X118258532Y-84762695D01*
X118116234Y-84838754D01*
X118091448Y-84808552D01*
X118034347Y-84761691D01*
X117969200Y-84726869D01*
X117898513Y-84705426D01*
X117825000Y-84698186D01*
X116825000Y-84698186D01*
X116751487Y-84705426D01*
X116680800Y-84726869D01*
X116615653Y-84761691D01*
X116558552Y-84808552D01*
X116511691Y-84865653D01*
X116476869Y-84930800D01*
X116455426Y-85001487D01*
X116448186Y-85075000D01*
X112064700Y-85075000D01*
X112136796Y-84967100D01*
X112195217Y-84826059D01*
X112225000Y-84676331D01*
X112225000Y-84523669D01*
X112195217Y-84373941D01*
X112136796Y-84232900D01*
X112051982Y-84105966D01*
X111944034Y-83998018D01*
X111817100Y-83913204D01*
X111676059Y-83854783D01*
X111526331Y-83825000D01*
X111373669Y-83825000D01*
X111223941Y-83854783D01*
X111082900Y-83913204D01*
X110955966Y-83998018D01*
X110848018Y-84105966D01*
X110763204Y-84232900D01*
X110704783Y-84373941D01*
X110675000Y-84523669D01*
X110675000Y-84604040D01*
X110643317Y-84444758D01*
X110532128Y-84176325D01*
X110370707Y-83934742D01*
X110165258Y-83729293D01*
X109923675Y-83567872D01*
X109655242Y-83456683D01*
X109370275Y-83400000D01*
X109079725Y-83400000D01*
X108794758Y-83456683D01*
X108526325Y-83567872D01*
X108284742Y-83729293D01*
X108079293Y-83934742D01*
X107917872Y-84176325D01*
X107806683Y-84444758D01*
X107750000Y-84729725D01*
X107400000Y-84729725D01*
X107400000Y-80573669D01*
X109400000Y-80573669D01*
X109400000Y-80726331D01*
X109429783Y-80876059D01*
X109488204Y-81017100D01*
X109573018Y-81144034D01*
X109680966Y-81251982D01*
X109807900Y-81336796D01*
X109948941Y-81395217D01*
X110098669Y-81425000D01*
X110251331Y-81425000D01*
X110401059Y-81395217D01*
X110542100Y-81336796D01*
X110669034Y-81251982D01*
X110776982Y-81144034D01*
X110861796Y-81017100D01*
X110920217Y-80876059D01*
X110950000Y-80726331D01*
X110950000Y-80573669D01*
X110920217Y-80423941D01*
X110861796Y-80282900D01*
X110776982Y-80155966D01*
X110669034Y-80048018D01*
X110542100Y-79963204D01*
X110401059Y-79904783D01*
X110251331Y-79875000D01*
X110098669Y-79875000D01*
X109948941Y-79904783D01*
X109807900Y-79963204D01*
X109680966Y-80048018D01*
X109573018Y-80155966D01*
X109488204Y-80282900D01*
X109429783Y-80423941D01*
X109400000Y-80573669D01*
X107400000Y-80573669D01*
X107400000Y-77273669D01*
X108825000Y-77273669D01*
X108825000Y-77426331D01*
X108854783Y-77576059D01*
X108913204Y-77717100D01*
X108998018Y-77844034D01*
X109105966Y-77951982D01*
X109232900Y-78036796D01*
X109373941Y-78095217D01*
X109523669Y-78125000D01*
X109676331Y-78125000D01*
X109826059Y-78095217D01*
X109967100Y-78036796D01*
X110094034Y-77951982D01*
X110201982Y-77844034D01*
X110286796Y-77717100D01*
X110345217Y-77576059D01*
X110375000Y-77426331D01*
X110375000Y-77273669D01*
X110345217Y-77123941D01*
X110286796Y-76982900D01*
X110201982Y-76855966D01*
X110094034Y-76748018D01*
X109967100Y-76663204D01*
X109826059Y-76604783D01*
X109676331Y-76575000D01*
X109523669Y-76575000D01*
X109373941Y-76604783D01*
X109232900Y-76663204D01*
X109105966Y-76748018D01*
X108998018Y-76855966D01*
X108913204Y-76982900D01*
X108854783Y-77123941D01*
X108825000Y-77273669D01*
X107400000Y-77273669D01*
X107400000Y-69582034D01*
X107408018Y-69594034D01*
X107515966Y-69701982D01*
X107642900Y-69786796D01*
X107783941Y-69845217D01*
X107933669Y-69875000D01*
X108086331Y-69875000D01*
X108236059Y-69845217D01*
X108377100Y-69786796D01*
X108504034Y-69701982D01*
X108611982Y-69594034D01*
X108636728Y-69556998D01*
X109567581Y-69556998D01*
X109570001Y-69581568D01*
X109570000Y-70845440D01*
X109567581Y-70870000D01*
X109570000Y-70894559D01*
X109577235Y-70968016D01*
X109605825Y-71062266D01*
X109652254Y-71149129D01*
X109714736Y-71225264D01*
X109733824Y-71240929D01*
X112480001Y-73987108D01*
X112480000Y-79605440D01*
X112477581Y-79630000D01*
X112487042Y-79726059D01*
X112487235Y-79728016D01*
X112515825Y-79822266D01*
X112562254Y-79909129D01*
X112624736Y-79985264D01*
X112643824Y-80000929D01*
X115804080Y-83161187D01*
X115819736Y-83180264D01*
X115895871Y-83242746D01*
X115982733Y-83289175D01*
X116076983Y-83317765D01*
X116150440Y-83325000D01*
X116150449Y-83325000D01*
X116174999Y-83327418D01*
X116199549Y-83325000D01*
X116316484Y-83325000D01*
X116418466Y-83426982D01*
X116545400Y-83511796D01*
X116686441Y-83570217D01*
X116836169Y-83600000D01*
X116988831Y-83600000D01*
X117138559Y-83570217D01*
X117279600Y-83511796D01*
X117406534Y-83426982D01*
X117514482Y-83319034D01*
X117599296Y-83192100D01*
X117657717Y-83051059D01*
X117687500Y-82901331D01*
X117687500Y-82748669D01*
X117661651Y-82618717D01*
X117754135Y-82711201D01*
X117769786Y-82730272D01*
X117788857Y-82745923D01*
X117788862Y-82745928D01*
X117845920Y-82792754D01*
X117932781Y-82839183D01*
X118027032Y-82867773D01*
X118125049Y-82877427D01*
X118149608Y-82875008D01*
X119068600Y-82875010D01*
X120635001Y-84441412D01*
X120635001Y-84853401D01*
X120513288Y-84953288D01*
X120403944Y-85086524D01*
X120322695Y-85238532D01*
X120272661Y-85403470D01*
X120255767Y-85575000D01*
X120272661Y-85746530D01*
X120322695Y-85911468D01*
X120403944Y-86063476D01*
X120513288Y-86196712D01*
X120646524Y-86306056D01*
X120798532Y-86387305D01*
X120963470Y-86437339D01*
X121092021Y-86450000D01*
X121177979Y-86450000D01*
X121306530Y-86437339D01*
X121471468Y-86387305D01*
X121623476Y-86306056D01*
X121756712Y-86196712D01*
X121770000Y-86180521D01*
X121783288Y-86196712D01*
X121916524Y-86306056D01*
X122068532Y-86387305D01*
X122233470Y-86437339D01*
X122362021Y-86450000D01*
X122447979Y-86450000D01*
X122576530Y-86437339D01*
X122741468Y-86387305D01*
X122893476Y-86306056D01*
X123026712Y-86196712D01*
X123136056Y-86063476D01*
X123217305Y-85911468D01*
X123267339Y-85746530D01*
X123284233Y-85575000D01*
X123267339Y-85403470D01*
X123217305Y-85238532D01*
X123136056Y-85086524D01*
X123026712Y-84953288D01*
X122906079Y-84854287D01*
X122903064Y-84823669D01*
X143175000Y-84823669D01*
X143175000Y-84976331D01*
X143204783Y-85126059D01*
X143263204Y-85267100D01*
X143348018Y-85394034D01*
X143455966Y-85501982D01*
X143582900Y-85586796D01*
X143723941Y-85645217D01*
X143873669Y-85675000D01*
X144026331Y-85675000D01*
X144176059Y-85645217D01*
X144317100Y-85586796D01*
X144444034Y-85501982D01*
X144546016Y-85400000D01*
X144750440Y-85400000D01*
X144775000Y-85402419D01*
X144799560Y-85400000D01*
X144873017Y-85392765D01*
X144967267Y-85364175D01*
X145054129Y-85317746D01*
X145130264Y-85255264D01*
X145145929Y-85236176D01*
X145652381Y-84729725D01*
X146875000Y-84729725D01*
X146875000Y-85020275D01*
X146931683Y-85305242D01*
X147042872Y-85573675D01*
X147204293Y-85815258D01*
X147409742Y-86020707D01*
X147651325Y-86182128D01*
X147919758Y-86293317D01*
X148204725Y-86350000D01*
X148495275Y-86350000D01*
X148780242Y-86293317D01*
X149048675Y-86182128D01*
X149290258Y-86020707D01*
X149495707Y-85815258D01*
X149657128Y-85573675D01*
X149768317Y-85305242D01*
X149825000Y-85020275D01*
X149825000Y-84729725D01*
X149768317Y-84444758D01*
X149657128Y-84176325D01*
X149495707Y-83934742D01*
X149290258Y-83729293D01*
X149048675Y-83567872D01*
X148780242Y-83456683D01*
X148495275Y-83400000D01*
X148204725Y-83400000D01*
X147919758Y-83456683D01*
X147651325Y-83567872D01*
X147409742Y-83729293D01*
X147204293Y-83934742D01*
X147042872Y-84176325D01*
X146931683Y-84444758D01*
X146875000Y-84729725D01*
X145652381Y-84729725D01*
X145811187Y-84570920D01*
X145830264Y-84555264D01*
X145892746Y-84479129D01*
X145939175Y-84392267D01*
X145967765Y-84298017D01*
X145975000Y-84224560D01*
X145975000Y-84224551D01*
X145977418Y-84200001D01*
X145975000Y-84175451D01*
X145975000Y-77774557D01*
X145977419Y-77749999D01*
X145975000Y-77725440D01*
X145967765Y-77651983D01*
X145939175Y-77557733D01*
X145892746Y-77470871D01*
X145830264Y-77394736D01*
X145811187Y-77379080D01*
X145275000Y-76842894D01*
X145275000Y-76698669D01*
X145245217Y-76548941D01*
X145186796Y-76407900D01*
X145101982Y-76280966D01*
X144994034Y-76173018D01*
X144867100Y-76088204D01*
X144726059Y-76029783D01*
X144576331Y-76000000D01*
X144423669Y-76000000D01*
X144273941Y-76029783D01*
X144132900Y-76088204D01*
X144005966Y-76173018D01*
X143898018Y-76280966D01*
X143813204Y-76407900D01*
X143754783Y-76548941D01*
X143725000Y-76698669D01*
X143725000Y-76851331D01*
X143754783Y-77001059D01*
X143813204Y-77142100D01*
X143898018Y-77269034D01*
X144005966Y-77376982D01*
X144132900Y-77461796D01*
X144273941Y-77520217D01*
X144423669Y-77550000D01*
X144567894Y-77550000D01*
X144975001Y-77957108D01*
X144975000Y-83992893D01*
X144567895Y-84400000D01*
X144546016Y-84400000D01*
X144444034Y-84298018D01*
X144317100Y-84213204D01*
X144176059Y-84154783D01*
X144026331Y-84125000D01*
X143873669Y-84125000D01*
X143723941Y-84154783D01*
X143582900Y-84213204D01*
X143455966Y-84298018D01*
X143348018Y-84405966D01*
X143263204Y-84532900D01*
X143204783Y-84673941D01*
X143175000Y-84823669D01*
X122903064Y-84823669D01*
X122897765Y-84769877D01*
X122885585Y-84729725D01*
X122869175Y-84675627D01*
X122822746Y-84588765D01*
X122760264Y-84512630D01*
X122741187Y-84496974D01*
X119833035Y-81588824D01*
X119817370Y-81569736D01*
X119741235Y-81507254D01*
X119654373Y-81460825D01*
X119560123Y-81432235D01*
X119486666Y-81425000D01*
X119462106Y-81422581D01*
X119437546Y-81425000D01*
X119310733Y-81425000D01*
X119337936Y-81359325D01*
X119367719Y-81209597D01*
X119367719Y-81056935D01*
X119341211Y-80923669D01*
X120200000Y-80923669D01*
X120200000Y-81076331D01*
X120229783Y-81226059D01*
X120288204Y-81367100D01*
X120373018Y-81494034D01*
X120480966Y-81601982D01*
X120607900Y-81686796D01*
X120748941Y-81745217D01*
X120898669Y-81775000D01*
X121051331Y-81775000D01*
X121201059Y-81745217D01*
X121342100Y-81686796D01*
X121469034Y-81601982D01*
X121576982Y-81494034D01*
X121661796Y-81367100D01*
X121720217Y-81226059D01*
X121750000Y-81076331D01*
X121750000Y-80923669D01*
X121720217Y-80773941D01*
X121661796Y-80632900D01*
X121576982Y-80505966D01*
X121469034Y-80398018D01*
X121342100Y-80313204D01*
X121201059Y-80254783D01*
X121051331Y-80225000D01*
X120898669Y-80225000D01*
X120748941Y-80254783D01*
X120607900Y-80313204D01*
X120480966Y-80398018D01*
X120373018Y-80505966D01*
X120288204Y-80632900D01*
X120229783Y-80773941D01*
X120200000Y-80923669D01*
X119341211Y-80923669D01*
X119337936Y-80907207D01*
X119279515Y-80766166D01*
X119226338Y-80686581D01*
X119281819Y-80631100D01*
X119366633Y-80504166D01*
X119425054Y-80363125D01*
X119454837Y-80213397D01*
X119454837Y-80060735D01*
X119425054Y-79911007D01*
X119366633Y-79769966D01*
X119281819Y-79643032D01*
X119259332Y-79620545D01*
X119336796Y-79504610D01*
X119395217Y-79363569D01*
X119425000Y-79213841D01*
X119425000Y-79061179D01*
X119400964Y-78940344D01*
X119507900Y-79011796D01*
X119648941Y-79070217D01*
X119798669Y-79100000D01*
X119951331Y-79100000D01*
X120101059Y-79070217D01*
X120242100Y-79011796D01*
X120369034Y-78926982D01*
X120476982Y-78819034D01*
X120561796Y-78692100D01*
X120620217Y-78551059D01*
X120650000Y-78401331D01*
X120650000Y-78248669D01*
X120620217Y-78098941D01*
X120561796Y-77957900D01*
X120476982Y-77830966D01*
X120369034Y-77723018D01*
X120242100Y-77638204D01*
X120101059Y-77579783D01*
X119951331Y-77550000D01*
X119798669Y-77550000D01*
X119648941Y-77579783D01*
X119507900Y-77638204D01*
X119380966Y-77723018D01*
X119273018Y-77830966D01*
X119188204Y-77957900D01*
X119129783Y-78098941D01*
X119100000Y-78248669D01*
X119100000Y-78401331D01*
X119124036Y-78522166D01*
X119017100Y-78450714D01*
X118876059Y-78392293D01*
X118726331Y-78362510D01*
X118573669Y-78362510D01*
X118423941Y-78392293D01*
X118282900Y-78450714D01*
X118155966Y-78535528D01*
X118065437Y-78626057D01*
X117050018Y-77610640D01*
X117050018Y-76431416D01*
X117132900Y-76486796D01*
X117273941Y-76545217D01*
X117423669Y-76575000D01*
X117576331Y-76575000D01*
X117726059Y-76545217D01*
X117867100Y-76486796D01*
X117994034Y-76401982D01*
X118101982Y-76294034D01*
X118186796Y-76167100D01*
X118245217Y-76026059D01*
X118275000Y-75876331D01*
X118275000Y-75723669D01*
X118245217Y-75573941D01*
X118186796Y-75432900D01*
X118101982Y-75305966D01*
X117994034Y-75198018D01*
X117867100Y-75113204D01*
X117726059Y-75054783D01*
X117576331Y-75025000D01*
X117423669Y-75025000D01*
X117273941Y-75054783D01*
X117132900Y-75113204D01*
X117050018Y-75168584D01*
X117050018Y-74351747D01*
X117052436Y-74327197D01*
X117050018Y-74302647D01*
X117050018Y-74302638D01*
X117042783Y-74229181D01*
X117014193Y-74134931D01*
X116967764Y-74048069D01*
X116905282Y-73971934D01*
X116886205Y-73956278D01*
X116279927Y-73350000D01*
X120447581Y-73350000D01*
X120450001Y-73374570D01*
X120450000Y-77500440D01*
X120447581Y-77525000D01*
X120450000Y-77549559D01*
X120457235Y-77623016D01*
X120485825Y-77717266D01*
X120532254Y-77804129D01*
X120594736Y-77880264D01*
X120613824Y-77895929D01*
X124700000Y-81982107D01*
X124700000Y-82126331D01*
X124729783Y-82276059D01*
X124788204Y-82417100D01*
X124873018Y-82544034D01*
X124980966Y-82651982D01*
X125107900Y-82736796D01*
X125248941Y-82795217D01*
X125398669Y-82825000D01*
X125551331Y-82825000D01*
X125701059Y-82795217D01*
X125842100Y-82736796D01*
X125969034Y-82651982D01*
X126076982Y-82544034D01*
X126161796Y-82417100D01*
X126220217Y-82276059D01*
X126250000Y-82126331D01*
X126250000Y-81973669D01*
X126220217Y-81823941D01*
X126161796Y-81682900D01*
X126076982Y-81555966D01*
X125969034Y-81448018D01*
X125842100Y-81363204D01*
X125701059Y-81304783D01*
X125551331Y-81275000D01*
X125407107Y-81275000D01*
X122205775Y-78073669D01*
X133575000Y-78073669D01*
X133575000Y-78226331D01*
X133604783Y-78376059D01*
X133663204Y-78517100D01*
X133748018Y-78644034D01*
X133753984Y-78650000D01*
X133748018Y-78655966D01*
X133663204Y-78782900D01*
X133604783Y-78923941D01*
X133575000Y-79073669D01*
X133575000Y-79226331D01*
X133604783Y-79376059D01*
X133663204Y-79517100D01*
X133748018Y-79644034D01*
X133855966Y-79751982D01*
X133982900Y-79836796D01*
X134123941Y-79895217D01*
X134273669Y-79925000D01*
X134426331Y-79925000D01*
X134576059Y-79895217D01*
X134717100Y-79836796D01*
X134844034Y-79751982D01*
X134850000Y-79746016D01*
X134855966Y-79751982D01*
X134982900Y-79836796D01*
X135123941Y-79895217D01*
X135273669Y-79925000D01*
X135426331Y-79925000D01*
X135576059Y-79895217D01*
X135717100Y-79836796D01*
X135844034Y-79751982D01*
X135951982Y-79644034D01*
X136036796Y-79517100D01*
X136095217Y-79376059D01*
X136125000Y-79226331D01*
X136125000Y-79073669D01*
X136095217Y-78923941D01*
X136036796Y-78782900D01*
X135951982Y-78655966D01*
X135946016Y-78650000D01*
X135951982Y-78644034D01*
X136036796Y-78517100D01*
X136095217Y-78376059D01*
X136125000Y-78226331D01*
X136125000Y-78073669D01*
X136095217Y-77923941D01*
X136036796Y-77782900D01*
X135951982Y-77655966D01*
X135844034Y-77548018D01*
X135717100Y-77463204D01*
X135576059Y-77404783D01*
X135426331Y-77375000D01*
X135273669Y-77375000D01*
X135123941Y-77404783D01*
X134982900Y-77463204D01*
X134855966Y-77548018D01*
X134850000Y-77553984D01*
X134844034Y-77548018D01*
X134717100Y-77463204D01*
X134576059Y-77404783D01*
X134426331Y-77375000D01*
X134273669Y-77375000D01*
X134123941Y-77404783D01*
X133982900Y-77463204D01*
X133855966Y-77548018D01*
X133748018Y-77655966D01*
X133663204Y-77782900D01*
X133604783Y-77923941D01*
X133575000Y-78073669D01*
X122205775Y-78073669D01*
X121450000Y-77317895D01*
X121450000Y-73557105D01*
X122107106Y-72900000D01*
X122251331Y-72900000D01*
X122401059Y-72870217D01*
X122542100Y-72811796D01*
X122669034Y-72726982D01*
X122776982Y-72619034D01*
X122861796Y-72492100D01*
X122920217Y-72351059D01*
X122950000Y-72201331D01*
X122950000Y-72048669D01*
X122920217Y-71898941D01*
X122861796Y-71757900D01*
X122776982Y-71630966D01*
X122669034Y-71523018D01*
X122542100Y-71438204D01*
X122401059Y-71379783D01*
X122251331Y-71350000D01*
X122098669Y-71350000D01*
X121948941Y-71379783D01*
X121807900Y-71438204D01*
X121680966Y-71523018D01*
X121573018Y-71630966D01*
X121488204Y-71757900D01*
X121429783Y-71898941D01*
X121400000Y-72048669D01*
X121400000Y-72192894D01*
X120613819Y-72979076D01*
X120594737Y-72994736D01*
X120532255Y-73070871D01*
X120485826Y-73157733D01*
X120457235Y-73251983D01*
X120447581Y-73350000D01*
X116279927Y-73350000D01*
X113600000Y-70670075D01*
X113600000Y-70471016D01*
X113701982Y-70369034D01*
X113786796Y-70242100D01*
X113845217Y-70101059D01*
X113875000Y-69951331D01*
X113875000Y-69798669D01*
X113845217Y-69648941D01*
X113786796Y-69507900D01*
X113701982Y-69380966D01*
X113594034Y-69273018D01*
X113467100Y-69188204D01*
X113326059Y-69129783D01*
X113176331Y-69100000D01*
X113023669Y-69100000D01*
X112873941Y-69129783D01*
X112732900Y-69188204D01*
X112605966Y-69273018D01*
X112512500Y-69366484D01*
X112419034Y-69273018D01*
X112292100Y-69188204D01*
X112151059Y-69129783D01*
X112001331Y-69100000D01*
X111848669Y-69100000D01*
X111698941Y-69129783D01*
X111557900Y-69188204D01*
X111430966Y-69273018D01*
X111375000Y-69328984D01*
X111319034Y-69273018D01*
X111192100Y-69188204D01*
X111159431Y-69174672D01*
X114514105Y-65820000D01*
X120375440Y-65820000D01*
X120400000Y-65822419D01*
X120424560Y-65820000D01*
X132935440Y-65820000D01*
X132960000Y-65822419D01*
X132984560Y-65820000D01*
X135792895Y-65820000D01*
X136165000Y-66192106D01*
X136165001Y-66670432D01*
X136162581Y-66695002D01*
X136172235Y-66793019D01*
X136175000Y-66802134D01*
X136175000Y-68503984D01*
X136094034Y-68423018D01*
X135967100Y-68338204D01*
X135826059Y-68279783D01*
X135676331Y-68250000D01*
X135523669Y-68250000D01*
X135373941Y-68279783D01*
X135232900Y-68338204D01*
X135105966Y-68423018D01*
X135100000Y-68428984D01*
X135094034Y-68423018D01*
X134967100Y-68338204D01*
X134826059Y-68279783D01*
X134676331Y-68250000D01*
X134523669Y-68250000D01*
X134373941Y-68279783D01*
X134232900Y-68338204D01*
X134105966Y-68423018D01*
X134100000Y-68428984D01*
X134094034Y-68423018D01*
X133967100Y-68338204D01*
X133826059Y-68279783D01*
X133676331Y-68250000D01*
X133523669Y-68250000D01*
X133373941Y-68279783D01*
X133232900Y-68338204D01*
X133105966Y-68423018D01*
X132998018Y-68530966D01*
X132913204Y-68657900D01*
X132854783Y-68798941D01*
X132825000Y-68948669D01*
X132825000Y-69101331D01*
X132854783Y-69251059D01*
X132913204Y-69392100D01*
X132998018Y-69519034D01*
X133003984Y-69525000D01*
X132998018Y-69530966D01*
X132913204Y-69657900D01*
X132854783Y-69798941D01*
X132825000Y-69948669D01*
X132825000Y-70101331D01*
X132854783Y-70251059D01*
X132913204Y-70392100D01*
X132998018Y-70519034D01*
X133016484Y-70537500D01*
X132998018Y-70555966D01*
X132913204Y-70682900D01*
X132854783Y-70823941D01*
X132825000Y-70973669D01*
X132825000Y-71126331D01*
X132854783Y-71276059D01*
X132913204Y-71417100D01*
X132998018Y-71544034D01*
X133105966Y-71651982D01*
X133232900Y-71736796D01*
X133373941Y-71795217D01*
X133523669Y-71825000D01*
X133676331Y-71825000D01*
X133826059Y-71795217D01*
X133967100Y-71736796D01*
X134094034Y-71651982D01*
X134100000Y-71646016D01*
X134105966Y-71651982D01*
X134232900Y-71736796D01*
X134373941Y-71795217D01*
X134523669Y-71825000D01*
X134676331Y-71825000D01*
X134826059Y-71795217D01*
X134967100Y-71736796D01*
X135094034Y-71651982D01*
X135100000Y-71646016D01*
X135105966Y-71651982D01*
X135232900Y-71736796D01*
X135373941Y-71795217D01*
X135523669Y-71825000D01*
X135676331Y-71825000D01*
X135826059Y-71795217D01*
X135967100Y-71736796D01*
X136094034Y-71651982D01*
X136175000Y-71571016D01*
X136174999Y-81379708D01*
X136048941Y-81404783D01*
X135907900Y-81463204D01*
X135780966Y-81548018D01*
X135673018Y-81655966D01*
X135588204Y-81782900D01*
X135529783Y-81923941D01*
X135500000Y-82073669D01*
X135500000Y-82226331D01*
X135529783Y-82376059D01*
X135588204Y-82517100D01*
X135673018Y-82644034D01*
X135780966Y-82751982D01*
X135907900Y-82836796D01*
X136048941Y-82895217D01*
X136198669Y-82925000D01*
X136351331Y-82925000D01*
X136501059Y-82895217D01*
X136642100Y-82836796D01*
X136769034Y-82751982D01*
X136876982Y-82644034D01*
X136961796Y-82517100D01*
X137020217Y-82376059D01*
X137050000Y-82226331D01*
X137050000Y-82081215D01*
X137092745Y-82029130D01*
X137139174Y-81942268D01*
X137159576Y-81875011D01*
X137167764Y-81848019D01*
X137177418Y-81750002D01*
X137174999Y-81725442D01*
X137174999Y-79423669D01*
X140375000Y-79423669D01*
X140375000Y-79576331D01*
X140404783Y-79726059D01*
X140463204Y-79867100D01*
X140548018Y-79994034D01*
X140655966Y-80101982D01*
X140782900Y-80186796D01*
X140923941Y-80245217D01*
X141073669Y-80275000D01*
X141226331Y-80275000D01*
X141376059Y-80245217D01*
X141517100Y-80186796D01*
X141644034Y-80101982D01*
X141751982Y-79994034D01*
X141836796Y-79867100D01*
X141895217Y-79726059D01*
X141925000Y-79576331D01*
X141925000Y-79423669D01*
X141895217Y-79273941D01*
X141836796Y-79132900D01*
X141751982Y-79005966D01*
X141644034Y-78898018D01*
X141517100Y-78813204D01*
X141376059Y-78754783D01*
X141226331Y-78725000D01*
X141073669Y-78725000D01*
X140923941Y-78754783D01*
X140782900Y-78813204D01*
X140655966Y-78898018D01*
X140548018Y-79005966D01*
X140463204Y-79132900D01*
X140404783Y-79273941D01*
X140375000Y-79423669D01*
X137174999Y-79423669D01*
X137174999Y-66729561D01*
X137177418Y-66705001D01*
X137167764Y-66606985D01*
X137165000Y-66597873D01*
X137165000Y-66525000D01*
X141828984Y-66525000D01*
X141930966Y-66626982D01*
X142057900Y-66711796D01*
X142198941Y-66770217D01*
X142348669Y-66800000D01*
X142501331Y-66800000D01*
X142651059Y-66770217D01*
X142792100Y-66711796D01*
X142919034Y-66626982D01*
X142987500Y-66558516D01*
X143055966Y-66626982D01*
X143182900Y-66711796D01*
X143323941Y-66770217D01*
X143473669Y-66800000D01*
X143617895Y-66800000D01*
X146630000Y-69812107D01*
X146630000Y-70123984D01*
X146528018Y-70225966D01*
X146443204Y-70352900D01*
X146384783Y-70493941D01*
X146355000Y-70643669D01*
X146355000Y-70796331D01*
X146384783Y-70946059D01*
X146443204Y-71087100D01*
X146528018Y-71214034D01*
X146635966Y-71321982D01*
X146762900Y-71406796D01*
X146903941Y-71465217D01*
X147053669Y-71495000D01*
X147206331Y-71495000D01*
X147356059Y-71465217D01*
X147497100Y-71406796D01*
X147624034Y-71321982D01*
X147731982Y-71214034D01*
X147816796Y-71087100D01*
X147875217Y-70946059D01*
X147905000Y-70796331D01*
X147905000Y-70643669D01*
X147875217Y-70493941D01*
X147816796Y-70352900D01*
X147731982Y-70225966D01*
X147630000Y-70123984D01*
X147630000Y-69629560D01*
X147632419Y-69605000D01*
X147622765Y-69506983D01*
X147607680Y-69457254D01*
X147594175Y-69412733D01*
X147547746Y-69325871D01*
X147485264Y-69249736D01*
X147466187Y-69234080D01*
X144325000Y-66092895D01*
X144325000Y-65948669D01*
X144295217Y-65798941D01*
X144236796Y-65657900D01*
X144151982Y-65530966D01*
X144044034Y-65423018D01*
X143917100Y-65338204D01*
X143847663Y-65309442D01*
X145750000Y-63407106D01*
X145750000Y-63476331D01*
X145779783Y-63626059D01*
X145838204Y-63767100D01*
X145923018Y-63894034D01*
X146030966Y-64001982D01*
X146157900Y-64086796D01*
X146298941Y-64145217D01*
X146448669Y-64175000D01*
X146601331Y-64175000D01*
X146751059Y-64145217D01*
X146892100Y-64086796D01*
X147019034Y-64001982D01*
X147025000Y-63996016D01*
X147030966Y-64001982D01*
X147157900Y-64086796D01*
X147298941Y-64145217D01*
X147448669Y-64175000D01*
X147601331Y-64175000D01*
X147751059Y-64145217D01*
X147892100Y-64086796D01*
X148019034Y-64001982D01*
X148126982Y-63894034D01*
X148211796Y-63767100D01*
X148270217Y-63626059D01*
X148300000Y-63476331D01*
X148300000Y-63323669D01*
X148270217Y-63173941D01*
X148211796Y-63032900D01*
X148126982Y-62905966D01*
X148121016Y-62900000D01*
X148126982Y-62894034D01*
X148211796Y-62767100D01*
X148270217Y-62626059D01*
X148300000Y-62476331D01*
X148300000Y-62323669D01*
X148270217Y-62173941D01*
X148211796Y-62032900D01*
X148126982Y-61905966D01*
X148019034Y-61798018D01*
X147892100Y-61713204D01*
X147751059Y-61654783D01*
X147601331Y-61625000D01*
X147448669Y-61625000D01*
X147298941Y-61654783D01*
X147157900Y-61713204D01*
X147030966Y-61798018D01*
X147025000Y-61803984D01*
X147019034Y-61798018D01*
X146892100Y-61713204D01*
X146751059Y-61654783D01*
X146601331Y-61625000D01*
X146448669Y-61625000D01*
X146298941Y-61654783D01*
X146157900Y-61713204D01*
X146030966Y-61798018D01*
X146025000Y-61803984D01*
X146025000Y-59871016D01*
X146126982Y-59769034D01*
X146211796Y-59642100D01*
X146270217Y-59501059D01*
X146300000Y-59351331D01*
X146300000Y-59198669D01*
X146270217Y-59048941D01*
X146211796Y-58907900D01*
X146126982Y-58780966D01*
X146019034Y-58673018D01*
X145892100Y-58588204D01*
X145751059Y-58529783D01*
X145601331Y-58500000D01*
X145448669Y-58500000D01*
X145298941Y-58529783D01*
X145157900Y-58588204D01*
X145030966Y-58673018D01*
X144923018Y-58780966D01*
X144838204Y-58907900D01*
X144779783Y-59048941D01*
X144750000Y-59198669D01*
X144750000Y-59351331D01*
X144779783Y-59501059D01*
X144838204Y-59642100D01*
X144923018Y-59769034D01*
X145025000Y-59871016D01*
X145025001Y-62717893D01*
X142492895Y-65250000D01*
X142348669Y-65250000D01*
X142198941Y-65279783D01*
X142057900Y-65338204D01*
X141930966Y-65423018D01*
X141828984Y-65525000D01*
X136912106Y-65525000D01*
X136777894Y-65390788D01*
X136848941Y-65420217D01*
X136998669Y-65450000D01*
X137151331Y-65450000D01*
X137301059Y-65420217D01*
X137442100Y-65361796D01*
X137569034Y-65276982D01*
X137676982Y-65169034D01*
X137761796Y-65042100D01*
X137820217Y-64901059D01*
X137850000Y-64751331D01*
X137850000Y-64598669D01*
X137820217Y-64448941D01*
X137761796Y-64307900D01*
X137676982Y-64180966D01*
X137569034Y-64073018D01*
X137442100Y-63988204D01*
X137301059Y-63929783D01*
X137175001Y-63904708D01*
X137175001Y-61973669D01*
X139975000Y-61973669D01*
X139975000Y-62126331D01*
X140004783Y-62276059D01*
X140063204Y-62417100D01*
X140148018Y-62544034D01*
X140255966Y-62651982D01*
X140382900Y-62736796D01*
X140523941Y-62795217D01*
X140673669Y-62825000D01*
X140826331Y-62825000D01*
X140976059Y-62795217D01*
X141117100Y-62736796D01*
X141244034Y-62651982D01*
X141351982Y-62544034D01*
X141436796Y-62417100D01*
X141495217Y-62276059D01*
X141525000Y-62126331D01*
X141525000Y-61973669D01*
X141495217Y-61823941D01*
X141436796Y-61682900D01*
X141351982Y-61555966D01*
X141244034Y-61448018D01*
X141117100Y-61363204D01*
X140976059Y-61304783D01*
X140826331Y-61275000D01*
X140673669Y-61275000D01*
X140523941Y-61304783D01*
X140382900Y-61363204D01*
X140255966Y-61448018D01*
X140148018Y-61555966D01*
X140063204Y-61682900D01*
X140004783Y-61823941D01*
X139975000Y-61973669D01*
X137175001Y-61973669D01*
X137175001Y-57282105D01*
X137332106Y-57125000D01*
X137603984Y-57125000D01*
X137705966Y-57226982D01*
X137832900Y-57311796D01*
X137973941Y-57370217D01*
X138123669Y-57400000D01*
X138276331Y-57400000D01*
X138426059Y-57370217D01*
X138567100Y-57311796D01*
X138694034Y-57226982D01*
X138801982Y-57119034D01*
X138886796Y-56992100D01*
X138945217Y-56851059D01*
X138975000Y-56701331D01*
X138975000Y-56548669D01*
X138945217Y-56398941D01*
X138895837Y-56279725D01*
X146875000Y-56279725D01*
X146875000Y-56570275D01*
X146931683Y-56855242D01*
X147042872Y-57123675D01*
X147204293Y-57365258D01*
X147409742Y-57570707D01*
X147651325Y-57732128D01*
X147919758Y-57843317D01*
X148204725Y-57900000D01*
X148495275Y-57900000D01*
X148780242Y-57843317D01*
X149048675Y-57732128D01*
X149290258Y-57570707D01*
X149495707Y-57365258D01*
X149657128Y-57123675D01*
X149768317Y-56855242D01*
X149825000Y-56570275D01*
X149825000Y-56279725D01*
X149768317Y-55994758D01*
X149657128Y-55726325D01*
X149495707Y-55484742D01*
X149290258Y-55279293D01*
X149048675Y-55117872D01*
X148780242Y-55006683D01*
X148495275Y-54950000D01*
X148204725Y-54950000D01*
X147919758Y-55006683D01*
X147651325Y-55117872D01*
X147409742Y-55279293D01*
X147204293Y-55484742D01*
X147042872Y-55726325D01*
X146931683Y-55994758D01*
X146875000Y-56279725D01*
X138895837Y-56279725D01*
X138886796Y-56257900D01*
X138801982Y-56130966D01*
X138694034Y-56023018D01*
X138567100Y-55938204D01*
X138426059Y-55879783D01*
X138276331Y-55850000D01*
X138123669Y-55850000D01*
X137973941Y-55879783D01*
X137832900Y-55938204D01*
X137705966Y-56023018D01*
X137603984Y-56125000D01*
X137149560Y-56125000D01*
X137125000Y-56122581D01*
X137100440Y-56125000D01*
X137026983Y-56132235D01*
X136932733Y-56160825D01*
X136845871Y-56207254D01*
X136769736Y-56269736D01*
X136754079Y-56288814D01*
X136338820Y-56704075D01*
X136319738Y-56719735D01*
X136257256Y-56795870D01*
X136227757Y-56851059D01*
X136210827Y-56882732D01*
X136182236Y-56976982D01*
X136172582Y-57074999D01*
X136175002Y-57099569D01*
X136175001Y-64250441D01*
X136172582Y-64275001D01*
X136182236Y-64373018D01*
X136189169Y-64395871D01*
X136210826Y-64467267D01*
X136257255Y-64554130D01*
X136300000Y-64606215D01*
X136300000Y-64751331D01*
X136329783Y-64901059D01*
X136357071Y-64966938D01*
X136355264Y-64964736D01*
X136279129Y-64902254D01*
X136192267Y-64855825D01*
X136098017Y-64827235D01*
X136024560Y-64820000D01*
X136000000Y-64817581D01*
X135975440Y-64820000D01*
X133550000Y-64820000D01*
X133550000Y-63921016D01*
X133605966Y-63976982D01*
X133732900Y-64061796D01*
X133873941Y-64120217D01*
X134023669Y-64150000D01*
X134176331Y-64150000D01*
X134326059Y-64120217D01*
X134467100Y-64061796D01*
X134594034Y-63976982D01*
X134600000Y-63971016D01*
X134605966Y-63976982D01*
X134732900Y-64061796D01*
X134873941Y-64120217D01*
X135023669Y-64150000D01*
X135176331Y-64150000D01*
X135326059Y-64120217D01*
X135467100Y-64061796D01*
X135594034Y-63976982D01*
X135701982Y-63869034D01*
X135786796Y-63742100D01*
X135845217Y-63601059D01*
X135875000Y-63451331D01*
X135875000Y-63298669D01*
X135845217Y-63148941D01*
X135786796Y-63007900D01*
X135701982Y-62880966D01*
X135696016Y-62875000D01*
X135701982Y-62869034D01*
X135786796Y-62742100D01*
X135845217Y-62601059D01*
X135875000Y-62451331D01*
X135875000Y-62298669D01*
X135845217Y-62148941D01*
X135786796Y-62007900D01*
X135701982Y-61880966D01*
X135594034Y-61773018D01*
X135467100Y-61688204D01*
X135326059Y-61629783D01*
X135176331Y-61600000D01*
X135023669Y-61600000D01*
X134873941Y-61629783D01*
X134732900Y-61688204D01*
X134605966Y-61773018D01*
X134600000Y-61778984D01*
X134594034Y-61773018D01*
X134467100Y-61688204D01*
X134326059Y-61629783D01*
X134176331Y-61600000D01*
X134023669Y-61600000D01*
X133873941Y-61629783D01*
X133732900Y-61688204D01*
X133605966Y-61773018D01*
X133550000Y-61828984D01*
X133550000Y-59946016D01*
X133651982Y-59844034D01*
X133736796Y-59717100D01*
X133795217Y-59576059D01*
X133825000Y-59426331D01*
X133825000Y-59273669D01*
X133795217Y-59123941D01*
X133736796Y-58982900D01*
X133651982Y-58855966D01*
X133544034Y-58748018D01*
X133417100Y-58663204D01*
X133276059Y-58604783D01*
X133126331Y-58575000D01*
X132973669Y-58575000D01*
X132823941Y-58604783D01*
X132682900Y-58663204D01*
X132555966Y-58748018D01*
X132448018Y-58855966D01*
X132363204Y-58982900D01*
X132304783Y-59123941D01*
X132275000Y-59273669D01*
X132275000Y-59426331D01*
X132304783Y-59576059D01*
X132363204Y-59717100D01*
X132448018Y-59844034D01*
X132550001Y-59946017D01*
X132550000Y-64820000D01*
X125420950Y-64820000D01*
X125470217Y-64701059D01*
X125500000Y-64551331D01*
X125500000Y-64398669D01*
X125470217Y-64248941D01*
X125411796Y-64107900D01*
X125326982Y-63980966D01*
X125219034Y-63873018D01*
X125092100Y-63788204D01*
X124951059Y-63729783D01*
X124801331Y-63700000D01*
X124657105Y-63700000D01*
X124550000Y-63592895D01*
X124550000Y-61948669D01*
X127550000Y-61948669D01*
X127550000Y-62101331D01*
X127579783Y-62251059D01*
X127638204Y-62392100D01*
X127723018Y-62519034D01*
X127830966Y-62626982D01*
X127957900Y-62711796D01*
X128098941Y-62770217D01*
X128248669Y-62800000D01*
X128401331Y-62800000D01*
X128551059Y-62770217D01*
X128692100Y-62711796D01*
X128819034Y-62626982D01*
X128926982Y-62519034D01*
X129011796Y-62392100D01*
X129070217Y-62251059D01*
X129100000Y-62101331D01*
X129100000Y-61948669D01*
X129070217Y-61798941D01*
X129011796Y-61657900D01*
X128926982Y-61530966D01*
X128819034Y-61423018D01*
X128692100Y-61338204D01*
X128551059Y-61279783D01*
X128401331Y-61250000D01*
X128248669Y-61250000D01*
X128098941Y-61279783D01*
X127957900Y-61338204D01*
X127830966Y-61423018D01*
X127723018Y-61530966D01*
X127638204Y-61657900D01*
X127579783Y-61798941D01*
X127550000Y-61948669D01*
X124550000Y-61948669D01*
X124550000Y-57457105D01*
X124882107Y-57125000D01*
X125178984Y-57125000D01*
X125280966Y-57226982D01*
X125407900Y-57311796D01*
X125548941Y-57370217D01*
X125698669Y-57400000D01*
X125851331Y-57400000D01*
X126001059Y-57370217D01*
X126142100Y-57311796D01*
X126269034Y-57226982D01*
X126376982Y-57119034D01*
X126461796Y-56992100D01*
X126520217Y-56851059D01*
X126550000Y-56701331D01*
X126550000Y-56548669D01*
X126520217Y-56398941D01*
X126461796Y-56257900D01*
X126376982Y-56130966D01*
X126269034Y-56023018D01*
X126142100Y-55938204D01*
X126001059Y-55879783D01*
X125851331Y-55850000D01*
X125698669Y-55850000D01*
X125548941Y-55879783D01*
X125407900Y-55938204D01*
X125280966Y-56023018D01*
X125178984Y-56125000D01*
X124699549Y-56125000D01*
X124674999Y-56122582D01*
X124650449Y-56125000D01*
X124650440Y-56125000D01*
X124576983Y-56132235D01*
X124482733Y-56160825D01*
X124395871Y-56207254D01*
X124319736Y-56269736D01*
X124304080Y-56288814D01*
X123713819Y-56879076D01*
X123694737Y-56894736D01*
X123632255Y-56970871D01*
X123615625Y-57001984D01*
X123585826Y-57057733D01*
X123557235Y-57151983D01*
X123547581Y-57250000D01*
X123550001Y-57274570D01*
X123550000Y-63775440D01*
X123547581Y-63800000D01*
X123550000Y-63824559D01*
X123557235Y-63898016D01*
X123585825Y-63992266D01*
X123632254Y-64079129D01*
X123694736Y-64155264D01*
X123713824Y-64170929D01*
X123950000Y-64407105D01*
X123950000Y-64551331D01*
X123979783Y-64701059D01*
X124029050Y-64820000D01*
X120925000Y-64820000D01*
X120925000Y-63759585D01*
X120948018Y-63794034D01*
X121055966Y-63901982D01*
X121182900Y-63986796D01*
X121323941Y-64045217D01*
X121473669Y-64075000D01*
X121626331Y-64075000D01*
X121776059Y-64045217D01*
X121917100Y-63986796D01*
X122044034Y-63901982D01*
X122050000Y-63896016D01*
X122055966Y-63901982D01*
X122182900Y-63986796D01*
X122323941Y-64045217D01*
X122473669Y-64075000D01*
X122626331Y-64075000D01*
X122776059Y-64045217D01*
X122917100Y-63986796D01*
X123044034Y-63901982D01*
X123151982Y-63794034D01*
X123236796Y-63667100D01*
X123295217Y-63526059D01*
X123325000Y-63376331D01*
X123325000Y-63223669D01*
X123295217Y-63073941D01*
X123236796Y-62932900D01*
X123151982Y-62805966D01*
X123146016Y-62800000D01*
X123151982Y-62794034D01*
X123236796Y-62667100D01*
X123295217Y-62526059D01*
X123325000Y-62376331D01*
X123325000Y-62223669D01*
X123295217Y-62073941D01*
X123236796Y-61932900D01*
X123151982Y-61805966D01*
X123044034Y-61698018D01*
X122917100Y-61613204D01*
X122776059Y-61554783D01*
X122626331Y-61525000D01*
X122473669Y-61525000D01*
X122323941Y-61554783D01*
X122182900Y-61613204D01*
X122055966Y-61698018D01*
X122050000Y-61703984D01*
X122044034Y-61698018D01*
X121917100Y-61613204D01*
X121776059Y-61554783D01*
X121626331Y-61525000D01*
X121473669Y-61525000D01*
X121323941Y-61554783D01*
X121182900Y-61613204D01*
X121055966Y-61698018D01*
X120948018Y-61805966D01*
X120925000Y-61840415D01*
X120925000Y-59921016D01*
X121026982Y-59819034D01*
X121111796Y-59692100D01*
X121170217Y-59551059D01*
X121200000Y-59401331D01*
X121200000Y-59248669D01*
X121170217Y-59098941D01*
X121111796Y-58957900D01*
X121026982Y-58830966D01*
X120919034Y-58723018D01*
X120792100Y-58638204D01*
X120651059Y-58579783D01*
X120501331Y-58550000D01*
X120348669Y-58550000D01*
X120198941Y-58579783D01*
X120057900Y-58638204D01*
X119930966Y-58723018D01*
X119823018Y-58830966D01*
X119738204Y-58957900D01*
X119679783Y-59098941D01*
X119650000Y-59248669D01*
X119650000Y-59401331D01*
X119679783Y-59551059D01*
X119738204Y-59692100D01*
X119823018Y-59819034D01*
X119925000Y-59921016D01*
X119925001Y-64820000D01*
X114404064Y-64820000D01*
X114313499Y-64811080D01*
X114215482Y-64820734D01*
X114121231Y-64849325D01*
X114034370Y-64895753D01*
X113977312Y-64942579D01*
X113977302Y-64942589D01*
X113958236Y-64958236D01*
X113942589Y-64977302D01*
X109733819Y-69186074D01*
X109714737Y-69201734D01*
X109652255Y-69277869D01*
X109651232Y-69279783D01*
X109605826Y-69364731D01*
X109577235Y-69458981D01*
X109567581Y-69556998D01*
X108636728Y-69556998D01*
X108696796Y-69467100D01*
X108755217Y-69326059D01*
X108785000Y-69176331D01*
X108785000Y-69023669D01*
X108755217Y-68873941D01*
X108696796Y-68732900D01*
X108611982Y-68605966D01*
X108504034Y-68498018D01*
X108377100Y-68413204D01*
X108236059Y-68354783D01*
X108086331Y-68325000D01*
X107933669Y-68325000D01*
X107783941Y-68354783D01*
X107642900Y-68413204D01*
X107515966Y-68498018D01*
X107408018Y-68605966D01*
X107400000Y-68617966D01*
X107400000Y-56279725D01*
X107725000Y-56279725D01*
X107725000Y-56570275D01*
X107781683Y-56855242D01*
X107892872Y-57123675D01*
X108054293Y-57365258D01*
X108259742Y-57570707D01*
X108501325Y-57732128D01*
X108769758Y-57843317D01*
X109054725Y-57900000D01*
X109345275Y-57900000D01*
X109630242Y-57843317D01*
X109898675Y-57732128D01*
X110140258Y-57570707D01*
X110345707Y-57365258D01*
X110507128Y-57123675D01*
X110516934Y-57100000D01*
X110947581Y-57100000D01*
X110950000Y-57124560D01*
X110950000Y-57424559D01*
X110950001Y-57424569D01*
X110950000Y-63084755D01*
X110947581Y-63109315D01*
X110950000Y-63133874D01*
X110957235Y-63207331D01*
X110985825Y-63301581D01*
X111032254Y-63388444D01*
X111094736Y-63464579D01*
X111113824Y-63480244D01*
X111634611Y-64001032D01*
X111563204Y-64107900D01*
X111504783Y-64248941D01*
X111475000Y-64398669D01*
X111475000Y-64551331D01*
X111504783Y-64701059D01*
X111563204Y-64842100D01*
X111648018Y-64969034D01*
X111755966Y-65076982D01*
X111882900Y-65161796D01*
X112023941Y-65220217D01*
X112173669Y-65250000D01*
X112326331Y-65250000D01*
X112476059Y-65220217D01*
X112617100Y-65161796D01*
X112744034Y-65076982D01*
X112851982Y-64969034D01*
X112936796Y-64842100D01*
X112995217Y-64701059D01*
X113025000Y-64551331D01*
X113025000Y-64398669D01*
X112995217Y-64248941D01*
X112936796Y-64107900D01*
X112851982Y-63980966D01*
X112749370Y-63878354D01*
X112742765Y-63811298D01*
X112737528Y-63794034D01*
X112714175Y-63717048D01*
X112667746Y-63630186D01*
X112605264Y-63554051D01*
X112586187Y-63538395D01*
X111950000Y-62902210D01*
X111950000Y-61873669D01*
X114900000Y-61873669D01*
X114900000Y-62026331D01*
X114929783Y-62176059D01*
X114988204Y-62317100D01*
X115073018Y-62444034D01*
X115180966Y-62551982D01*
X115307900Y-62636796D01*
X115448941Y-62695217D01*
X115598669Y-62725000D01*
X115751331Y-62725000D01*
X115901059Y-62695217D01*
X116042100Y-62636796D01*
X116169034Y-62551982D01*
X116276982Y-62444034D01*
X116361796Y-62317100D01*
X116420217Y-62176059D01*
X116450000Y-62026331D01*
X116450000Y-61873669D01*
X116420217Y-61723941D01*
X116361796Y-61582900D01*
X116276982Y-61455966D01*
X116169034Y-61348018D01*
X116042100Y-61263204D01*
X115901059Y-61204783D01*
X115751331Y-61175000D01*
X115598669Y-61175000D01*
X115448941Y-61204783D01*
X115307900Y-61263204D01*
X115180966Y-61348018D01*
X115073018Y-61455966D01*
X114988204Y-61582900D01*
X114929783Y-61723941D01*
X114900000Y-61873669D01*
X111950000Y-61873669D01*
X111950000Y-57307106D01*
X112082106Y-57175000D01*
X112878984Y-57175000D01*
X112980966Y-57276982D01*
X113107900Y-57361796D01*
X113248941Y-57420217D01*
X113398669Y-57450000D01*
X113551331Y-57450000D01*
X113701059Y-57420217D01*
X113842100Y-57361796D01*
X113969034Y-57276982D01*
X114076982Y-57169034D01*
X114161796Y-57042100D01*
X114220217Y-56901059D01*
X114250000Y-56751331D01*
X114250000Y-56598669D01*
X114220217Y-56448941D01*
X114161796Y-56307900D01*
X114076982Y-56180966D01*
X113969034Y-56073018D01*
X113842100Y-55988204D01*
X113701059Y-55929783D01*
X113551331Y-55900000D01*
X113398669Y-55900000D01*
X113248941Y-55929783D01*
X113107900Y-55988204D01*
X112980966Y-56073018D01*
X112878984Y-56175000D01*
X111899560Y-56175000D01*
X111875000Y-56172581D01*
X111850440Y-56175000D01*
X111776983Y-56182235D01*
X111682733Y-56210825D01*
X111595871Y-56257254D01*
X111519736Y-56319736D01*
X111504079Y-56338814D01*
X111113819Y-56729076D01*
X111094737Y-56744736D01*
X111032255Y-56820871D01*
X110992773Y-56894736D01*
X110985826Y-56907733D01*
X110957235Y-57001983D01*
X110947581Y-57100000D01*
X110516934Y-57100000D01*
X110618317Y-56855242D01*
X110675000Y-56570275D01*
X110675000Y-56279725D01*
X110618317Y-55994758D01*
X110507128Y-55726325D01*
X110345707Y-55484742D01*
X110140258Y-55279293D01*
X109898675Y-55117872D01*
X109630242Y-55006683D01*
X109345275Y-54950000D01*
X109054725Y-54950000D01*
X108769758Y-55006683D01*
X108501325Y-55117872D01*
X108259742Y-55279293D01*
X108054293Y-55484742D01*
X107892872Y-55726325D01*
X107781683Y-55994758D01*
X107725000Y-56279725D01*
X107400000Y-56279725D01*
X107400000Y-54600000D01*
X150180000Y-54600000D01*
X150180001Y-86700000D01*
G36*
X117118784Y-82075849D02*
G01*
X116988831Y-82050000D01*
X116836169Y-82050000D01*
X116686441Y-82079783D01*
X116545400Y-82138204D01*
X116418466Y-82223018D01*
X116349295Y-82292189D01*
X113480000Y-79422895D01*
X113480000Y-78437064D01*
X117118784Y-82075849D01*
X117118784Y-82075849D01*
G37*
X117118784Y-82075849D02*
X116988831Y-82050000D01*
X116836169Y-82050000D01*
X116686441Y-82079783D01*
X116545400Y-82138204D01*
X116418466Y-82223018D01*
X116349295Y-82292189D01*
X113480000Y-79422895D01*
X113480000Y-78437064D01*
X117118784Y-82075849D01*
M02*
