G04 #@! TF.GenerationSoftware,KiCad,Pcbnew,(5.1.4)-1*
G04 #@! TF.CreationDate,2020-09-18T11:06:02-04:00*
G04 #@! TF.ProjectId,RVL-PMS HW2,52564c2d-504d-4532-9048-57322e6b6963,rev?*
G04 #@! TF.SameCoordinates,Original*
G04 #@! TF.FileFunction,Copper,L2,Inr*
G04 #@! TF.FilePolarity,Positive*
%FSLAX46Y46*%
G04 Gerber Fmt 4.6, Leading zero omitted, Abs format (unit mm)*
G04 Created by KiCad (PCBNEW (5.1.4)-1) date 2020-09-18 11:06:02*
%MOMM*%
%LPD*%
G04 APERTURE LIST*
%ADD10R,1.000000X1.000000*%
%ADD11O,1.000000X1.000000*%
%ADD12C,0.500000*%
%ADD13C,0.600000*%
%ADD14C,0.800000*%
%ADD15C,0.254000*%
G04 APERTURE END LIST*
D10*
X117325000Y-85575000D03*
D11*
X118595000Y-85575000D03*
X119865000Y-85575000D03*
X121135000Y-85575000D03*
X122405000Y-85575000D03*
D12*
X119240000Y-62040000D03*
X118060000Y-62040000D03*
X119240000Y-60860000D03*
X118060000Y-60860000D03*
X130610000Y-60885000D03*
X131790000Y-60885000D03*
X130610000Y-62065000D03*
X131790000Y-62065000D03*
X144240000Y-62115000D03*
X143060000Y-62115000D03*
X144240000Y-60935000D03*
X143060000Y-60935000D03*
X138840000Y-80590000D03*
X137660000Y-80590000D03*
X138840000Y-79410000D03*
X137660000Y-79410000D03*
D13*
X142040000Y-69155000D03*
X143760000Y-69155000D03*
X142040000Y-68195000D03*
X143760000Y-68195000D03*
X142900000Y-68675000D03*
D12*
X121925000Y-74375000D03*
X123025000Y-74375000D03*
X124125000Y-74375000D03*
X121925000Y-75475000D03*
X123025000Y-75475000D03*
X124125000Y-75475000D03*
X121925000Y-76575000D03*
X123025000Y-76575000D03*
X124125000Y-76575000D03*
D14*
X109700000Y-59900000D03*
X121700000Y-57975000D03*
X120700000Y-56975000D03*
X120700000Y-57975000D03*
X121700000Y-56975000D03*
X134000000Y-58200000D03*
X133000000Y-57200000D03*
X133000000Y-58200000D03*
X134000000Y-57200000D03*
X147000000Y-67375000D03*
X146000000Y-66375000D03*
X146000000Y-67375000D03*
X147000000Y-66375000D03*
X147100000Y-77325000D03*
X146100000Y-76325000D03*
X146100000Y-77325000D03*
X147100000Y-76325000D03*
X130025000Y-79950000D03*
X132050000Y-80950000D03*
X131050000Y-80950000D03*
X131050000Y-79950000D03*
X130025000Y-80950000D03*
X132075000Y-79950000D03*
X111825000Y-82875000D03*
X122150000Y-82775000D03*
X114824868Y-80100132D03*
X111325000Y-77725000D03*
X118575000Y-69650000D03*
X117575000Y-69650000D03*
X116550000Y-69650000D03*
X118600000Y-68650000D03*
X117575000Y-68650000D03*
X116550000Y-68650000D03*
X130300000Y-72775000D03*
X128050000Y-72750000D03*
X125825000Y-72775000D03*
X140175000Y-76775000D03*
X129090000Y-64430000D03*
X141510000Y-64670000D03*
X134100000Y-63375000D03*
X135100000Y-63375000D03*
X146525000Y-62400000D03*
X146525000Y-63400000D03*
X147525000Y-63400000D03*
X135350000Y-79150000D03*
X135350000Y-78150000D03*
X134350000Y-78150000D03*
X134350000Y-79150000D03*
X133600000Y-70025000D03*
X134600000Y-70025000D03*
X133600000Y-69025000D03*
X135600000Y-70025000D03*
X133600000Y-71050000D03*
X134600000Y-71050000D03*
X135600000Y-71050000D03*
X110175000Y-80650000D03*
X111450000Y-84600000D03*
X117500000Y-75800000D03*
X120975000Y-81000000D03*
X121550000Y-62300000D03*
X122550000Y-62300000D03*
X122550000Y-63300000D03*
X121550000Y-63300000D03*
X134600000Y-69025000D03*
X135600000Y-69025000D03*
X140750000Y-62050000D03*
X128325000Y-62025000D03*
X115675000Y-61950000D03*
X141150000Y-79500000D03*
X134100000Y-62375000D03*
X135100000Y-62375000D03*
X147525000Y-62400000D03*
X108010000Y-69100000D03*
X112250000Y-64475000D03*
X113475000Y-56675000D03*
X124725000Y-64475000D03*
X125775000Y-56625000D03*
X137075000Y-64675000D03*
X138200000Y-56625000D03*
X143550000Y-66025000D03*
X147130000Y-70720000D03*
X125475000Y-82050000D03*
X122175000Y-72125000D03*
X113800000Y-76775000D03*
X114900000Y-76750000D03*
X118592719Y-81133266D03*
X110825000Y-69875000D03*
X118679837Y-80137066D03*
X111925000Y-69875000D03*
X118650000Y-79137510D03*
X113100000Y-69875000D03*
X116912500Y-82825000D03*
X120425000Y-59325000D03*
X133050000Y-59350000D03*
X145525000Y-59275000D03*
X136275000Y-82150000D03*
X142425000Y-66025000D03*
X109600000Y-77350000D03*
X119875000Y-78325000D03*
X143950000Y-84900000D03*
X144500000Y-76775000D03*
D15*
G36*
X150028001Y-86548000D02*
G01*
X122735354Y-86548000D01*
X122799917Y-86528415D01*
X122978331Y-86433051D01*
X123134712Y-86304712D01*
X123263051Y-86148331D01*
X123358415Y-85969917D01*
X123417140Y-85776327D01*
X123436969Y-85575000D01*
X123417140Y-85373673D01*
X123358415Y-85180083D01*
X123263051Y-85001669D01*
X123134712Y-84845288D01*
X123090129Y-84808699D01*
X143023000Y-84808699D01*
X143023000Y-84991301D01*
X143058624Y-85170396D01*
X143128504Y-85339099D01*
X143229952Y-85490928D01*
X143359072Y-85620048D01*
X143510901Y-85721496D01*
X143679604Y-85791376D01*
X143858699Y-85827000D01*
X144041301Y-85827000D01*
X144220396Y-85791376D01*
X144389099Y-85721496D01*
X144540928Y-85620048D01*
X144670048Y-85490928D01*
X144771496Y-85339099D01*
X144841376Y-85170396D01*
X144877000Y-84991301D01*
X144877000Y-84808699D01*
X144858314Y-84714755D01*
X146723000Y-84714755D01*
X146723000Y-85035245D01*
X146785525Y-85349578D01*
X146908172Y-85645673D01*
X147086227Y-85912152D01*
X147312848Y-86138773D01*
X147579327Y-86316828D01*
X147875422Y-86439475D01*
X148189755Y-86502000D01*
X148510245Y-86502000D01*
X148824578Y-86439475D01*
X149120673Y-86316828D01*
X149387152Y-86138773D01*
X149613773Y-85912152D01*
X149791828Y-85645673D01*
X149914475Y-85349578D01*
X149977000Y-85035245D01*
X149977000Y-84714755D01*
X149914475Y-84400422D01*
X149791828Y-84104327D01*
X149613773Y-83837848D01*
X149387152Y-83611227D01*
X149120673Y-83433172D01*
X148824578Y-83310525D01*
X148510245Y-83248000D01*
X148189755Y-83248000D01*
X147875422Y-83310525D01*
X147579327Y-83433172D01*
X147312848Y-83611227D01*
X147086227Y-83837848D01*
X146908172Y-84104327D01*
X146785525Y-84400422D01*
X146723000Y-84714755D01*
X144858314Y-84714755D01*
X144841376Y-84629604D01*
X144771496Y-84460901D01*
X144670048Y-84309072D01*
X144540928Y-84179952D01*
X144389099Y-84078504D01*
X144220396Y-84008624D01*
X144041301Y-83973000D01*
X143858699Y-83973000D01*
X143679604Y-84008624D01*
X143510901Y-84078504D01*
X143359072Y-84179952D01*
X143229952Y-84309072D01*
X143128504Y-84460901D01*
X143058624Y-84629604D01*
X143023000Y-84808699D01*
X123090129Y-84808699D01*
X122978331Y-84716949D01*
X122799917Y-84621585D01*
X122606327Y-84562860D01*
X122455451Y-84548000D01*
X122354549Y-84548000D01*
X122203673Y-84562860D01*
X122010083Y-84621585D01*
X121831669Y-84716949D01*
X121770000Y-84767560D01*
X121708331Y-84716949D01*
X121529917Y-84621585D01*
X121336327Y-84562860D01*
X121185451Y-84548000D01*
X121084549Y-84548000D01*
X120933673Y-84562860D01*
X120740083Y-84621585D01*
X120561669Y-84716949D01*
X120500000Y-84767560D01*
X120438331Y-84716949D01*
X120259917Y-84621585D01*
X120066327Y-84562860D01*
X119915451Y-84548000D01*
X119814549Y-84548000D01*
X119663673Y-84562860D01*
X119470083Y-84621585D01*
X119291669Y-84716949D01*
X119135288Y-84845288D01*
X119006949Y-85001669D01*
X118911585Y-85180083D01*
X118852860Y-85373673D01*
X118833031Y-85575000D01*
X118852860Y-85776327D01*
X118911585Y-85969917D01*
X119006949Y-86148331D01*
X119135288Y-86304712D01*
X119291669Y-86433051D01*
X119470083Y-86528415D01*
X119534646Y-86548000D01*
X118058031Y-86548000D01*
X118119202Y-86515304D01*
X118199448Y-86449448D01*
X118265304Y-86369202D01*
X118314239Y-86277650D01*
X118344374Y-86178310D01*
X118354549Y-86075000D01*
X118354549Y-85075000D01*
X118344374Y-84971690D01*
X118314239Y-84872350D01*
X118265304Y-84780798D01*
X118199448Y-84700552D01*
X118119202Y-84634696D01*
X118027650Y-84585761D01*
X117928310Y-84555626D01*
X117825000Y-84545451D01*
X116825000Y-84545451D01*
X116721690Y-84555626D01*
X116622350Y-84585761D01*
X116530798Y-84634696D01*
X116450552Y-84700552D01*
X116384696Y-84780798D01*
X116335761Y-84872350D01*
X116305626Y-84971690D01*
X116295451Y-85075000D01*
X116295451Y-86075000D01*
X116305626Y-86178310D01*
X116335761Y-86277650D01*
X116384696Y-86369202D01*
X116450552Y-86449448D01*
X116530798Y-86515304D01*
X116591969Y-86548000D01*
X107552000Y-86548000D01*
X107552000Y-84714755D01*
X107598000Y-84714755D01*
X107598000Y-85035245D01*
X107660525Y-85349578D01*
X107783172Y-85645673D01*
X107961227Y-85912152D01*
X108187848Y-86138773D01*
X108454327Y-86316828D01*
X108750422Y-86439475D01*
X109064755Y-86502000D01*
X109385245Y-86502000D01*
X109699578Y-86439475D01*
X109995673Y-86316828D01*
X110262152Y-86138773D01*
X110488773Y-85912152D01*
X110666828Y-85645673D01*
X110789475Y-85349578D01*
X110852000Y-85035245D01*
X110852000Y-84714755D01*
X110789475Y-84400422D01*
X110666828Y-84104327D01*
X110488773Y-83837848D01*
X110262152Y-83611227D01*
X109995673Y-83433172D01*
X109699578Y-83310525D01*
X109385245Y-83248000D01*
X109064755Y-83248000D01*
X108750422Y-83310525D01*
X108454327Y-83433172D01*
X108187848Y-83611227D01*
X107961227Y-83837848D01*
X107783172Y-84104327D01*
X107660525Y-84400422D01*
X107598000Y-84714755D01*
X107552000Y-84714755D01*
X107552000Y-82783699D01*
X110898000Y-82783699D01*
X110898000Y-82966301D01*
X110933624Y-83145396D01*
X111003504Y-83314099D01*
X111104952Y-83465928D01*
X111234072Y-83595048D01*
X111385901Y-83696496D01*
X111554604Y-83766376D01*
X111733699Y-83802000D01*
X111916301Y-83802000D01*
X112095396Y-83766376D01*
X112264099Y-83696496D01*
X112415928Y-83595048D01*
X112545048Y-83465928D01*
X112646496Y-83314099D01*
X112716376Y-83145396D01*
X112752000Y-82966301D01*
X112752000Y-82783699D01*
X112742055Y-82733699D01*
X115985500Y-82733699D01*
X115985500Y-82916301D01*
X116021124Y-83095396D01*
X116091004Y-83264099D01*
X116192452Y-83415928D01*
X116321572Y-83545048D01*
X116473401Y-83646496D01*
X116642104Y-83716376D01*
X116821199Y-83752000D01*
X117003801Y-83752000D01*
X117182896Y-83716376D01*
X117351599Y-83646496D01*
X117503428Y-83545048D01*
X117632548Y-83415928D01*
X117733996Y-83264099D01*
X117803876Y-83095396D01*
X117839500Y-82916301D01*
X117839500Y-82733699D01*
X117829555Y-82683699D01*
X121223000Y-82683699D01*
X121223000Y-82866301D01*
X121258624Y-83045396D01*
X121328504Y-83214099D01*
X121429952Y-83365928D01*
X121559072Y-83495048D01*
X121710901Y-83596496D01*
X121879604Y-83666376D01*
X122058699Y-83702000D01*
X122241301Y-83702000D01*
X122420396Y-83666376D01*
X122589099Y-83596496D01*
X122740928Y-83495048D01*
X122870048Y-83365928D01*
X122971496Y-83214099D01*
X123041376Y-83045396D01*
X123077000Y-82866301D01*
X123077000Y-82683699D01*
X123041376Y-82504604D01*
X122971496Y-82335901D01*
X122870048Y-82184072D01*
X122740928Y-82054952D01*
X122596874Y-81958699D01*
X124548000Y-81958699D01*
X124548000Y-82141301D01*
X124583624Y-82320396D01*
X124653504Y-82489099D01*
X124754952Y-82640928D01*
X124884072Y-82770048D01*
X125035901Y-82871496D01*
X125204604Y-82941376D01*
X125383699Y-82977000D01*
X125566301Y-82977000D01*
X125745396Y-82941376D01*
X125914099Y-82871496D01*
X126065928Y-82770048D01*
X126195048Y-82640928D01*
X126296496Y-82489099D01*
X126366376Y-82320396D01*
X126402000Y-82141301D01*
X126402000Y-82058699D01*
X135348000Y-82058699D01*
X135348000Y-82241301D01*
X135383624Y-82420396D01*
X135453504Y-82589099D01*
X135554952Y-82740928D01*
X135684072Y-82870048D01*
X135835901Y-82971496D01*
X136004604Y-83041376D01*
X136183699Y-83077000D01*
X136366301Y-83077000D01*
X136545396Y-83041376D01*
X136714099Y-82971496D01*
X136865928Y-82870048D01*
X136995048Y-82740928D01*
X137096496Y-82589099D01*
X137166376Y-82420396D01*
X137202000Y-82241301D01*
X137202000Y-82058699D01*
X137166376Y-81879604D01*
X137096496Y-81710901D01*
X136995048Y-81559072D01*
X136865928Y-81429952D01*
X136714099Y-81328504D01*
X136545396Y-81258624D01*
X136366301Y-81223000D01*
X136183699Y-81223000D01*
X136004604Y-81258624D01*
X135835901Y-81328504D01*
X135684072Y-81429952D01*
X135554952Y-81559072D01*
X135453504Y-81710901D01*
X135383624Y-81879604D01*
X135348000Y-82058699D01*
X126402000Y-82058699D01*
X126402000Y-81958699D01*
X126366376Y-81779604D01*
X126296496Y-81610901D01*
X126195048Y-81459072D01*
X126065928Y-81329952D01*
X125914099Y-81228504D01*
X125745396Y-81158624D01*
X125566301Y-81123000D01*
X125383699Y-81123000D01*
X125204604Y-81158624D01*
X125035901Y-81228504D01*
X124884072Y-81329952D01*
X124754952Y-81459072D01*
X124653504Y-81610901D01*
X124583624Y-81779604D01*
X124548000Y-81958699D01*
X122596874Y-81958699D01*
X122589099Y-81953504D01*
X122420396Y-81883624D01*
X122241301Y-81848000D01*
X122058699Y-81848000D01*
X121879604Y-81883624D01*
X121710901Y-81953504D01*
X121559072Y-82054952D01*
X121429952Y-82184072D01*
X121328504Y-82335901D01*
X121258624Y-82504604D01*
X121223000Y-82683699D01*
X117829555Y-82683699D01*
X117803876Y-82554604D01*
X117733996Y-82385901D01*
X117632548Y-82234072D01*
X117503428Y-82104952D01*
X117351599Y-82003504D01*
X117182896Y-81933624D01*
X117003801Y-81898000D01*
X116821199Y-81898000D01*
X116642104Y-81933624D01*
X116473401Y-82003504D01*
X116321572Y-82104952D01*
X116192452Y-82234072D01*
X116091004Y-82385901D01*
X116021124Y-82554604D01*
X115985500Y-82733699D01*
X112742055Y-82733699D01*
X112716376Y-82604604D01*
X112646496Y-82435901D01*
X112545048Y-82284072D01*
X112415928Y-82154952D01*
X112264099Y-82053504D01*
X112095396Y-81983624D01*
X111916301Y-81948000D01*
X111733699Y-81948000D01*
X111554604Y-81983624D01*
X111385901Y-82053504D01*
X111234072Y-82154952D01*
X111104952Y-82284072D01*
X111003504Y-82435901D01*
X110933624Y-82604604D01*
X110898000Y-82783699D01*
X107552000Y-82783699D01*
X107552000Y-81041965D01*
X117665719Y-81041965D01*
X117665719Y-81224567D01*
X117701343Y-81403662D01*
X117771223Y-81572365D01*
X117872671Y-81724194D01*
X118001791Y-81853314D01*
X118153620Y-81954762D01*
X118322323Y-82024642D01*
X118501418Y-82060266D01*
X118684020Y-82060266D01*
X118863115Y-82024642D01*
X119031818Y-81954762D01*
X119183647Y-81853314D01*
X119312767Y-81724194D01*
X119414215Y-81572365D01*
X119484095Y-81403662D01*
X119519719Y-81224567D01*
X119519719Y-81041965D01*
X119484095Y-80862870D01*
X119417381Y-80701810D01*
X119501333Y-80576165D01*
X119571213Y-80407462D01*
X119606837Y-80228367D01*
X119606837Y-80045765D01*
X119571213Y-79866670D01*
X119567912Y-79858699D01*
X129098000Y-79858699D01*
X129098000Y-80041301D01*
X129133624Y-80220396D01*
X129203504Y-80389099D01*
X129244196Y-80450000D01*
X129203504Y-80510901D01*
X129133624Y-80679604D01*
X129098000Y-80858699D01*
X129098000Y-81041301D01*
X129133624Y-81220396D01*
X129203504Y-81389099D01*
X129304952Y-81540928D01*
X129434072Y-81670048D01*
X129585901Y-81771496D01*
X129754604Y-81841376D01*
X129933699Y-81877000D01*
X130116301Y-81877000D01*
X130295396Y-81841376D01*
X130464099Y-81771496D01*
X130537500Y-81722451D01*
X130610901Y-81771496D01*
X130779604Y-81841376D01*
X130958699Y-81877000D01*
X131141301Y-81877000D01*
X131320396Y-81841376D01*
X131489099Y-81771496D01*
X131550000Y-81730804D01*
X131610901Y-81771496D01*
X131779604Y-81841376D01*
X131958699Y-81877000D01*
X132141301Y-81877000D01*
X132320396Y-81841376D01*
X132489099Y-81771496D01*
X132640928Y-81670048D01*
X132770048Y-81540928D01*
X132871496Y-81389099D01*
X132941376Y-81220396D01*
X132977000Y-81041301D01*
X132977000Y-80858699D01*
X132941376Y-80679604D01*
X132871496Y-80510901D01*
X132843304Y-80468708D01*
X132896496Y-80389099D01*
X132966376Y-80220396D01*
X133002000Y-80041301D01*
X133002000Y-79858699D01*
X132966376Y-79679604D01*
X132896496Y-79510901D01*
X132795048Y-79359072D01*
X132769448Y-79333472D01*
X136883000Y-79333472D01*
X136883000Y-79486528D01*
X136912859Y-79636643D01*
X136971431Y-79778048D01*
X137056464Y-79905309D01*
X137151155Y-80000000D01*
X137056464Y-80094691D01*
X136971431Y-80221952D01*
X136912859Y-80363357D01*
X136883000Y-80513472D01*
X136883000Y-80666528D01*
X136912859Y-80816643D01*
X136971431Y-80958048D01*
X137056464Y-81085309D01*
X137164691Y-81193536D01*
X137291952Y-81278569D01*
X137433357Y-81337141D01*
X137583472Y-81367000D01*
X137736528Y-81367000D01*
X137886643Y-81337141D01*
X138028048Y-81278569D01*
X138155309Y-81193536D01*
X138250000Y-81098845D01*
X138344691Y-81193536D01*
X138471952Y-81278569D01*
X138613357Y-81337141D01*
X138763472Y-81367000D01*
X138916528Y-81367000D01*
X139066643Y-81337141D01*
X139208048Y-81278569D01*
X139335309Y-81193536D01*
X139443536Y-81085309D01*
X139528569Y-80958048D01*
X139587141Y-80816643D01*
X139617000Y-80666528D01*
X139617000Y-80513472D01*
X139587141Y-80363357D01*
X139528569Y-80221952D01*
X139443536Y-80094691D01*
X139348845Y-80000000D01*
X139443536Y-79905309D01*
X139528569Y-79778048D01*
X139587141Y-79636643D01*
X139617000Y-79486528D01*
X139617000Y-79333472D01*
X139587141Y-79183357D01*
X139528569Y-79041952D01*
X139443536Y-78914691D01*
X139335309Y-78806464D01*
X139208048Y-78721431D01*
X139066643Y-78662859D01*
X138916528Y-78633000D01*
X138763472Y-78633000D01*
X138613357Y-78662859D01*
X138471952Y-78721431D01*
X138344691Y-78806464D01*
X138250000Y-78901155D01*
X138155309Y-78806464D01*
X138028048Y-78721431D01*
X137886643Y-78662859D01*
X137736528Y-78633000D01*
X137583472Y-78633000D01*
X137433357Y-78662859D01*
X137291952Y-78721431D01*
X137164691Y-78806464D01*
X137056464Y-78914691D01*
X136971431Y-79041952D01*
X136912859Y-79183357D01*
X136883000Y-79333472D01*
X132769448Y-79333472D01*
X132665928Y-79229952D01*
X132514099Y-79128504D01*
X132345396Y-79058624D01*
X132166301Y-79023000D01*
X131983699Y-79023000D01*
X131804604Y-79058624D01*
X131635901Y-79128504D01*
X131562500Y-79177549D01*
X131489099Y-79128504D01*
X131320396Y-79058624D01*
X131141301Y-79023000D01*
X130958699Y-79023000D01*
X130779604Y-79058624D01*
X130610901Y-79128504D01*
X130537500Y-79177549D01*
X130464099Y-79128504D01*
X130295396Y-79058624D01*
X130116301Y-79023000D01*
X129933699Y-79023000D01*
X129754604Y-79058624D01*
X129585901Y-79128504D01*
X129434072Y-79229952D01*
X129304952Y-79359072D01*
X129203504Y-79510901D01*
X129133624Y-79679604D01*
X129098000Y-79858699D01*
X119567912Y-79858699D01*
X119501333Y-79697967D01*
X119445870Y-79614961D01*
X119471496Y-79576609D01*
X119541376Y-79407906D01*
X119577000Y-79228811D01*
X119577000Y-79204942D01*
X119604604Y-79216376D01*
X119783699Y-79252000D01*
X119966301Y-79252000D01*
X120145396Y-79216376D01*
X120314099Y-79146496D01*
X120465928Y-79045048D01*
X120595048Y-78915928D01*
X120696496Y-78764099D01*
X120766376Y-78595396D01*
X120802000Y-78416301D01*
X120802000Y-78233699D01*
X120766376Y-78054604D01*
X120696496Y-77885901D01*
X120595048Y-77734072D01*
X120465928Y-77604952D01*
X120314099Y-77503504D01*
X120145396Y-77433624D01*
X119966301Y-77398000D01*
X119783699Y-77398000D01*
X119604604Y-77433624D01*
X119435901Y-77503504D01*
X119284072Y-77604952D01*
X119154952Y-77734072D01*
X119053504Y-77885901D01*
X118983624Y-78054604D01*
X118948000Y-78233699D01*
X118948000Y-78257568D01*
X118920396Y-78246134D01*
X118741301Y-78210510D01*
X118558699Y-78210510D01*
X118379604Y-78246134D01*
X118210901Y-78316014D01*
X118059072Y-78417462D01*
X117929952Y-78546582D01*
X117828504Y-78698411D01*
X117758624Y-78867114D01*
X117723000Y-79046209D01*
X117723000Y-79228811D01*
X117758624Y-79407906D01*
X117828504Y-79576609D01*
X117883967Y-79659615D01*
X117858341Y-79697967D01*
X117788461Y-79866670D01*
X117752837Y-80045765D01*
X117752837Y-80228367D01*
X117788461Y-80407462D01*
X117855175Y-80568522D01*
X117771223Y-80694167D01*
X117701343Y-80862870D01*
X117665719Y-81041965D01*
X107552000Y-81041965D01*
X107552000Y-80008831D01*
X113897868Y-80008831D01*
X113897868Y-80191433D01*
X113933492Y-80370528D01*
X114003372Y-80539231D01*
X114104820Y-80691060D01*
X114233940Y-80820180D01*
X114385769Y-80921628D01*
X114554472Y-80991508D01*
X114733567Y-81027132D01*
X114916169Y-81027132D01*
X115095264Y-80991508D01*
X115263967Y-80921628D01*
X115415796Y-80820180D01*
X115544916Y-80691060D01*
X115646364Y-80539231D01*
X115716244Y-80370528D01*
X115751868Y-80191433D01*
X115751868Y-80008831D01*
X115716244Y-79829736D01*
X115646364Y-79661033D01*
X115544916Y-79509204D01*
X115415796Y-79380084D01*
X115263967Y-79278636D01*
X115095264Y-79208756D01*
X114916169Y-79173132D01*
X114733567Y-79173132D01*
X114554472Y-79208756D01*
X114385769Y-79278636D01*
X114233940Y-79380084D01*
X114104820Y-79509204D01*
X114003372Y-79661033D01*
X113933492Y-79829736D01*
X113897868Y-80008831D01*
X107552000Y-80008831D01*
X107552000Y-77258699D01*
X108673000Y-77258699D01*
X108673000Y-77441301D01*
X108708624Y-77620396D01*
X108778504Y-77789099D01*
X108879952Y-77940928D01*
X109009072Y-78070048D01*
X109160901Y-78171496D01*
X109329604Y-78241376D01*
X109508699Y-78277000D01*
X109691301Y-78277000D01*
X109870396Y-78241376D01*
X110039099Y-78171496D01*
X110190928Y-78070048D01*
X110320048Y-77940928D01*
X110399221Y-77822437D01*
X110433624Y-77995396D01*
X110503504Y-78164099D01*
X110604952Y-78315928D01*
X110734072Y-78445048D01*
X110885901Y-78546496D01*
X111054604Y-78616376D01*
X111233699Y-78652000D01*
X111416301Y-78652000D01*
X111595396Y-78616376D01*
X111764099Y-78546496D01*
X111915928Y-78445048D01*
X112045048Y-78315928D01*
X112146496Y-78164099D01*
X112216376Y-77995396D01*
X112252000Y-77816301D01*
X112252000Y-77633699D01*
X112216376Y-77454604D01*
X112146496Y-77285901D01*
X112045048Y-77134072D01*
X111915928Y-77004952D01*
X111764099Y-76903504D01*
X111595396Y-76833624D01*
X111416301Y-76798000D01*
X111233699Y-76798000D01*
X111054604Y-76833624D01*
X110885901Y-76903504D01*
X110734072Y-77004952D01*
X110604952Y-77134072D01*
X110525779Y-77252563D01*
X110491376Y-77079604D01*
X110421496Y-76910901D01*
X110320048Y-76759072D01*
X110244675Y-76683699D01*
X112873000Y-76683699D01*
X112873000Y-76866301D01*
X112908624Y-77045396D01*
X112978504Y-77214099D01*
X113079952Y-77365928D01*
X113209072Y-77495048D01*
X113360901Y-77596496D01*
X113529604Y-77666376D01*
X113708699Y-77702000D01*
X113891301Y-77702000D01*
X114070396Y-77666376D01*
X114239099Y-77596496D01*
X114368708Y-77509895D01*
X114460901Y-77571496D01*
X114629604Y-77641376D01*
X114808699Y-77677000D01*
X114991301Y-77677000D01*
X115170396Y-77641376D01*
X115339099Y-77571496D01*
X115490928Y-77470048D01*
X115620048Y-77340928D01*
X115721496Y-77189099D01*
X115791376Y-77020396D01*
X115827000Y-76841301D01*
X115827000Y-76658699D01*
X115791376Y-76479604D01*
X115721496Y-76310901D01*
X115620048Y-76159072D01*
X115490928Y-76029952D01*
X115339099Y-75928504D01*
X115170396Y-75858624D01*
X114991301Y-75823000D01*
X114808699Y-75823000D01*
X114629604Y-75858624D01*
X114460901Y-75928504D01*
X114331292Y-76015105D01*
X114239099Y-75953504D01*
X114070396Y-75883624D01*
X113891301Y-75848000D01*
X113708699Y-75848000D01*
X113529604Y-75883624D01*
X113360901Y-75953504D01*
X113209072Y-76054952D01*
X113079952Y-76184072D01*
X112978504Y-76335901D01*
X112908624Y-76504604D01*
X112873000Y-76683699D01*
X110244675Y-76683699D01*
X110190928Y-76629952D01*
X110039099Y-76528504D01*
X109870396Y-76458624D01*
X109691301Y-76423000D01*
X109508699Y-76423000D01*
X109329604Y-76458624D01*
X109160901Y-76528504D01*
X109009072Y-76629952D01*
X108879952Y-76759072D01*
X108778504Y-76910901D01*
X108708624Y-77079604D01*
X108673000Y-77258699D01*
X107552000Y-77258699D01*
X107552000Y-74298472D01*
X121148000Y-74298472D01*
X121148000Y-74451528D01*
X121177859Y-74601643D01*
X121236431Y-74743048D01*
X121321464Y-74870309D01*
X121376155Y-74925000D01*
X121321464Y-74979691D01*
X121236431Y-75106952D01*
X121177859Y-75248357D01*
X121148000Y-75398472D01*
X121148000Y-75551528D01*
X121177859Y-75701643D01*
X121236431Y-75843048D01*
X121321464Y-75970309D01*
X121376155Y-76025000D01*
X121321464Y-76079691D01*
X121236431Y-76206952D01*
X121177859Y-76348357D01*
X121148000Y-76498472D01*
X121148000Y-76651528D01*
X121177859Y-76801643D01*
X121236431Y-76943048D01*
X121321464Y-77070309D01*
X121429691Y-77178536D01*
X121556952Y-77263569D01*
X121698357Y-77322141D01*
X121848472Y-77352000D01*
X122001528Y-77352000D01*
X122151643Y-77322141D01*
X122293048Y-77263569D01*
X122420309Y-77178536D01*
X122475000Y-77123845D01*
X122529691Y-77178536D01*
X122656952Y-77263569D01*
X122798357Y-77322141D01*
X122948472Y-77352000D01*
X123101528Y-77352000D01*
X123251643Y-77322141D01*
X123393048Y-77263569D01*
X123520309Y-77178536D01*
X123575000Y-77123845D01*
X123629691Y-77178536D01*
X123756952Y-77263569D01*
X123898357Y-77322141D01*
X124048472Y-77352000D01*
X124201528Y-77352000D01*
X124351643Y-77322141D01*
X124493048Y-77263569D01*
X124620309Y-77178536D01*
X124728536Y-77070309D01*
X124813569Y-76943048D01*
X124872141Y-76801643D01*
X124895600Y-76683699D01*
X139248000Y-76683699D01*
X139248000Y-76866301D01*
X139283624Y-77045396D01*
X139353504Y-77214099D01*
X139454952Y-77365928D01*
X139584072Y-77495048D01*
X139735901Y-77596496D01*
X139904604Y-77666376D01*
X140083699Y-77702000D01*
X140266301Y-77702000D01*
X140445396Y-77666376D01*
X140614099Y-77596496D01*
X140765928Y-77495048D01*
X140895048Y-77365928D01*
X140996496Y-77214099D01*
X141066376Y-77045396D01*
X141102000Y-76866301D01*
X141102000Y-76683699D01*
X143573000Y-76683699D01*
X143573000Y-76866301D01*
X143608624Y-77045396D01*
X143678504Y-77214099D01*
X143779952Y-77365928D01*
X143909072Y-77495048D01*
X144060901Y-77596496D01*
X144229604Y-77666376D01*
X144408699Y-77702000D01*
X144591301Y-77702000D01*
X144770396Y-77666376D01*
X144939099Y-77596496D01*
X145090928Y-77495048D01*
X145173000Y-77412976D01*
X145173000Y-77416301D01*
X145208624Y-77595396D01*
X145278504Y-77764099D01*
X145379952Y-77915928D01*
X145509072Y-78045048D01*
X145660901Y-78146496D01*
X145829604Y-78216376D01*
X146008699Y-78252000D01*
X146191301Y-78252000D01*
X146370396Y-78216376D01*
X146539099Y-78146496D01*
X146600000Y-78105804D01*
X146660901Y-78146496D01*
X146829604Y-78216376D01*
X147008699Y-78252000D01*
X147191301Y-78252000D01*
X147370396Y-78216376D01*
X147539099Y-78146496D01*
X147690928Y-78045048D01*
X147820048Y-77915928D01*
X147921496Y-77764099D01*
X147991376Y-77595396D01*
X148027000Y-77416301D01*
X148027000Y-77233699D01*
X147991376Y-77054604D01*
X147921496Y-76885901D01*
X147880804Y-76825000D01*
X147921496Y-76764099D01*
X147991376Y-76595396D01*
X148027000Y-76416301D01*
X148027000Y-76233699D01*
X147991376Y-76054604D01*
X147921496Y-75885901D01*
X147820048Y-75734072D01*
X147690928Y-75604952D01*
X147539099Y-75503504D01*
X147370396Y-75433624D01*
X147191301Y-75398000D01*
X147008699Y-75398000D01*
X146829604Y-75433624D01*
X146660901Y-75503504D01*
X146600000Y-75544196D01*
X146539099Y-75503504D01*
X146370396Y-75433624D01*
X146191301Y-75398000D01*
X146008699Y-75398000D01*
X145829604Y-75433624D01*
X145660901Y-75503504D01*
X145509072Y-75604952D01*
X145379952Y-75734072D01*
X145278504Y-75885901D01*
X145208624Y-76054604D01*
X145189039Y-76153063D01*
X145090928Y-76054952D01*
X144939099Y-75953504D01*
X144770396Y-75883624D01*
X144591301Y-75848000D01*
X144408699Y-75848000D01*
X144229604Y-75883624D01*
X144060901Y-75953504D01*
X143909072Y-76054952D01*
X143779952Y-76184072D01*
X143678504Y-76335901D01*
X143608624Y-76504604D01*
X143573000Y-76683699D01*
X141102000Y-76683699D01*
X141066376Y-76504604D01*
X140996496Y-76335901D01*
X140895048Y-76184072D01*
X140765928Y-76054952D01*
X140614099Y-75953504D01*
X140445396Y-75883624D01*
X140266301Y-75848000D01*
X140083699Y-75848000D01*
X139904604Y-75883624D01*
X139735901Y-75953504D01*
X139584072Y-76054952D01*
X139454952Y-76184072D01*
X139353504Y-76335901D01*
X139283624Y-76504604D01*
X139248000Y-76683699D01*
X124895600Y-76683699D01*
X124902000Y-76651528D01*
X124902000Y-76498472D01*
X124872141Y-76348357D01*
X124813569Y-76206952D01*
X124728536Y-76079691D01*
X124673845Y-76025000D01*
X124728536Y-75970309D01*
X124813569Y-75843048D01*
X124872141Y-75701643D01*
X124902000Y-75551528D01*
X124902000Y-75398472D01*
X124872141Y-75248357D01*
X124813569Y-75106952D01*
X124728536Y-74979691D01*
X124673845Y-74925000D01*
X124728536Y-74870309D01*
X124813569Y-74743048D01*
X124872141Y-74601643D01*
X124902000Y-74451528D01*
X124902000Y-74298472D01*
X124872141Y-74148357D01*
X124813569Y-74006952D01*
X124728536Y-73879691D01*
X124620309Y-73771464D01*
X124493048Y-73686431D01*
X124351643Y-73627859D01*
X124201528Y-73598000D01*
X124048472Y-73598000D01*
X123898357Y-73627859D01*
X123756952Y-73686431D01*
X123629691Y-73771464D01*
X123575000Y-73826155D01*
X123520309Y-73771464D01*
X123393048Y-73686431D01*
X123251643Y-73627859D01*
X123101528Y-73598000D01*
X122948472Y-73598000D01*
X122798357Y-73627859D01*
X122656952Y-73686431D01*
X122529691Y-73771464D01*
X122475000Y-73826155D01*
X122420309Y-73771464D01*
X122293048Y-73686431D01*
X122151643Y-73627859D01*
X122001528Y-73598000D01*
X121848472Y-73598000D01*
X121698357Y-73627859D01*
X121556952Y-73686431D01*
X121429691Y-73771464D01*
X121321464Y-73879691D01*
X121236431Y-74006952D01*
X121177859Y-74148357D01*
X121148000Y-74298472D01*
X107552000Y-74298472D01*
X107552000Y-72033699D01*
X121248000Y-72033699D01*
X121248000Y-72216301D01*
X121283624Y-72395396D01*
X121353504Y-72564099D01*
X121454952Y-72715928D01*
X121584072Y-72845048D01*
X121735901Y-72946496D01*
X121904604Y-73016376D01*
X122083699Y-73052000D01*
X122266301Y-73052000D01*
X122445396Y-73016376D01*
X122614099Y-72946496D01*
X122765928Y-72845048D01*
X122895048Y-72715928D01*
X122916582Y-72683699D01*
X124898000Y-72683699D01*
X124898000Y-72866301D01*
X124933624Y-73045396D01*
X125003504Y-73214099D01*
X125104952Y-73365928D01*
X125234072Y-73495048D01*
X125385901Y-73596496D01*
X125554604Y-73666376D01*
X125733699Y-73702000D01*
X125916301Y-73702000D01*
X126095396Y-73666376D01*
X126264099Y-73596496D01*
X126415928Y-73495048D01*
X126545048Y-73365928D01*
X126646496Y-73214099D01*
X126716376Y-73045396D01*
X126752000Y-72866301D01*
X126752000Y-72683699D01*
X126747028Y-72658699D01*
X127123000Y-72658699D01*
X127123000Y-72841301D01*
X127158624Y-73020396D01*
X127228504Y-73189099D01*
X127329952Y-73340928D01*
X127459072Y-73470048D01*
X127610901Y-73571496D01*
X127779604Y-73641376D01*
X127958699Y-73677000D01*
X128141301Y-73677000D01*
X128320396Y-73641376D01*
X128489099Y-73571496D01*
X128640928Y-73470048D01*
X128770048Y-73340928D01*
X128871496Y-73189099D01*
X128941376Y-73020396D01*
X128977000Y-72841301D01*
X128977000Y-72683699D01*
X129373000Y-72683699D01*
X129373000Y-72866301D01*
X129408624Y-73045396D01*
X129478504Y-73214099D01*
X129579952Y-73365928D01*
X129709072Y-73495048D01*
X129860901Y-73596496D01*
X130029604Y-73666376D01*
X130208699Y-73702000D01*
X130391301Y-73702000D01*
X130570396Y-73666376D01*
X130739099Y-73596496D01*
X130890928Y-73495048D01*
X131020048Y-73365928D01*
X131121496Y-73214099D01*
X131191376Y-73045396D01*
X131227000Y-72866301D01*
X131227000Y-72683699D01*
X131191376Y-72504604D01*
X131121496Y-72335901D01*
X131020048Y-72184072D01*
X130890928Y-72054952D01*
X130739099Y-71953504D01*
X130570396Y-71883624D01*
X130391301Y-71848000D01*
X130208699Y-71848000D01*
X130029604Y-71883624D01*
X129860901Y-71953504D01*
X129709072Y-72054952D01*
X129579952Y-72184072D01*
X129478504Y-72335901D01*
X129408624Y-72504604D01*
X129373000Y-72683699D01*
X128977000Y-72683699D01*
X128977000Y-72658699D01*
X128941376Y-72479604D01*
X128871496Y-72310901D01*
X128770048Y-72159072D01*
X128640928Y-72029952D01*
X128489099Y-71928504D01*
X128320396Y-71858624D01*
X128141301Y-71823000D01*
X127958699Y-71823000D01*
X127779604Y-71858624D01*
X127610901Y-71928504D01*
X127459072Y-72029952D01*
X127329952Y-72159072D01*
X127228504Y-72310901D01*
X127158624Y-72479604D01*
X127123000Y-72658699D01*
X126747028Y-72658699D01*
X126716376Y-72504604D01*
X126646496Y-72335901D01*
X126545048Y-72184072D01*
X126415928Y-72054952D01*
X126264099Y-71953504D01*
X126095396Y-71883624D01*
X125916301Y-71848000D01*
X125733699Y-71848000D01*
X125554604Y-71883624D01*
X125385901Y-71953504D01*
X125234072Y-72054952D01*
X125104952Y-72184072D01*
X125003504Y-72335901D01*
X124933624Y-72504604D01*
X124898000Y-72683699D01*
X122916582Y-72683699D01*
X122996496Y-72564099D01*
X123066376Y-72395396D01*
X123102000Y-72216301D01*
X123102000Y-72033699D01*
X123066376Y-71854604D01*
X122996496Y-71685901D01*
X122895048Y-71534072D01*
X122765928Y-71404952D01*
X122614099Y-71303504D01*
X122445396Y-71233624D01*
X122266301Y-71198000D01*
X122083699Y-71198000D01*
X121904604Y-71233624D01*
X121735901Y-71303504D01*
X121584072Y-71404952D01*
X121454952Y-71534072D01*
X121353504Y-71685901D01*
X121283624Y-71854604D01*
X121248000Y-72033699D01*
X107552000Y-72033699D01*
X107552000Y-69783699D01*
X109898000Y-69783699D01*
X109898000Y-69966301D01*
X109933624Y-70145396D01*
X110003504Y-70314099D01*
X110104952Y-70465928D01*
X110234072Y-70595048D01*
X110385901Y-70696496D01*
X110554604Y-70766376D01*
X110733699Y-70802000D01*
X110916301Y-70802000D01*
X111095396Y-70766376D01*
X111264099Y-70696496D01*
X111375000Y-70622395D01*
X111485901Y-70696496D01*
X111654604Y-70766376D01*
X111833699Y-70802000D01*
X112016301Y-70802000D01*
X112195396Y-70766376D01*
X112364099Y-70696496D01*
X112512500Y-70597338D01*
X112660901Y-70696496D01*
X112829604Y-70766376D01*
X113008699Y-70802000D01*
X113191301Y-70802000D01*
X113370396Y-70766376D01*
X113539099Y-70696496D01*
X113640565Y-70628699D01*
X146203000Y-70628699D01*
X146203000Y-70811301D01*
X146238624Y-70990396D01*
X146308504Y-71159099D01*
X146409952Y-71310928D01*
X146539072Y-71440048D01*
X146690901Y-71541496D01*
X146859604Y-71611376D01*
X147038699Y-71647000D01*
X147221301Y-71647000D01*
X147400396Y-71611376D01*
X147569099Y-71541496D01*
X147720928Y-71440048D01*
X147850048Y-71310928D01*
X147951496Y-71159099D01*
X148021376Y-70990396D01*
X148057000Y-70811301D01*
X148057000Y-70628699D01*
X148021376Y-70449604D01*
X147951496Y-70280901D01*
X147850048Y-70129072D01*
X147720928Y-69999952D01*
X147569099Y-69898504D01*
X147400396Y-69828624D01*
X147221301Y-69793000D01*
X147038699Y-69793000D01*
X146859604Y-69828624D01*
X146690901Y-69898504D01*
X146539072Y-69999952D01*
X146409952Y-70129072D01*
X146308504Y-70280901D01*
X146238624Y-70449604D01*
X146203000Y-70628699D01*
X113640565Y-70628699D01*
X113690928Y-70595048D01*
X113820048Y-70465928D01*
X113921496Y-70314099D01*
X113991376Y-70145396D01*
X114027000Y-69966301D01*
X114027000Y-69783699D01*
X113991376Y-69604604D01*
X113921496Y-69435901D01*
X113820048Y-69284072D01*
X113690928Y-69154952D01*
X113539099Y-69053504D01*
X113370396Y-68983624D01*
X113191301Y-68948000D01*
X113008699Y-68948000D01*
X112829604Y-68983624D01*
X112660901Y-69053504D01*
X112512500Y-69152662D01*
X112364099Y-69053504D01*
X112195396Y-68983624D01*
X112016301Y-68948000D01*
X111833699Y-68948000D01*
X111654604Y-68983624D01*
X111485901Y-69053504D01*
X111375000Y-69127605D01*
X111264099Y-69053504D01*
X111095396Y-68983624D01*
X110916301Y-68948000D01*
X110733699Y-68948000D01*
X110554604Y-68983624D01*
X110385901Y-69053504D01*
X110234072Y-69154952D01*
X110104952Y-69284072D01*
X110003504Y-69435901D01*
X109933624Y-69604604D01*
X109898000Y-69783699D01*
X107552000Y-69783699D01*
X107552000Y-68558699D01*
X115623000Y-68558699D01*
X115623000Y-68741301D01*
X115658624Y-68920396D01*
X115728504Y-69089099D01*
X115769196Y-69150000D01*
X115728504Y-69210901D01*
X115658624Y-69379604D01*
X115623000Y-69558699D01*
X115623000Y-69741301D01*
X115658624Y-69920396D01*
X115728504Y-70089099D01*
X115829952Y-70240928D01*
X115959072Y-70370048D01*
X116110901Y-70471496D01*
X116279604Y-70541376D01*
X116458699Y-70577000D01*
X116641301Y-70577000D01*
X116820396Y-70541376D01*
X116989099Y-70471496D01*
X117062500Y-70422451D01*
X117135901Y-70471496D01*
X117304604Y-70541376D01*
X117483699Y-70577000D01*
X117666301Y-70577000D01*
X117845396Y-70541376D01*
X118014099Y-70471496D01*
X118075000Y-70430804D01*
X118135901Y-70471496D01*
X118304604Y-70541376D01*
X118483699Y-70577000D01*
X118666301Y-70577000D01*
X118845396Y-70541376D01*
X119014099Y-70471496D01*
X119165928Y-70370048D01*
X119295048Y-70240928D01*
X119396496Y-70089099D01*
X119466376Y-69920396D01*
X119502000Y-69741301D01*
X119502000Y-69558699D01*
X119466376Y-69379604D01*
X119396496Y-69210901D01*
X119368304Y-69168708D01*
X119421496Y-69089099D01*
X119491376Y-68920396D01*
X119527000Y-68741301D01*
X119527000Y-68558699D01*
X119491376Y-68379604D01*
X119421496Y-68210901D01*
X119356448Y-68113548D01*
X141213000Y-68113548D01*
X141213000Y-68276452D01*
X141244782Y-68436227D01*
X141307123Y-68586731D01*
X141366103Y-68675000D01*
X141307123Y-68763269D01*
X141244782Y-68913773D01*
X141213000Y-69073548D01*
X141213000Y-69236452D01*
X141244782Y-69396227D01*
X141307123Y-69546731D01*
X141397628Y-69682181D01*
X141512819Y-69797372D01*
X141648269Y-69887877D01*
X141798773Y-69950218D01*
X141958548Y-69982000D01*
X142121452Y-69982000D01*
X142281227Y-69950218D01*
X142431731Y-69887877D01*
X142567181Y-69797372D01*
X142682372Y-69682181D01*
X142772877Y-69546731D01*
X142793471Y-69497012D01*
X142818548Y-69502000D01*
X142981452Y-69502000D01*
X143006529Y-69497012D01*
X143027123Y-69546731D01*
X143117628Y-69682181D01*
X143232819Y-69797372D01*
X143368269Y-69887877D01*
X143518773Y-69950218D01*
X143678548Y-69982000D01*
X143841452Y-69982000D01*
X144001227Y-69950218D01*
X144151731Y-69887877D01*
X144287181Y-69797372D01*
X144402372Y-69682181D01*
X144492877Y-69546731D01*
X144555218Y-69396227D01*
X144587000Y-69236452D01*
X144587000Y-69073548D01*
X144555218Y-68913773D01*
X144492877Y-68763269D01*
X144433897Y-68675000D01*
X144492877Y-68586731D01*
X144555218Y-68436227D01*
X144587000Y-68276452D01*
X144587000Y-68113548D01*
X144555218Y-67953773D01*
X144492877Y-67803269D01*
X144402372Y-67667819D01*
X144287181Y-67552628D01*
X144151731Y-67462123D01*
X144001227Y-67399782D01*
X143841452Y-67368000D01*
X143678548Y-67368000D01*
X143518773Y-67399782D01*
X143368269Y-67462123D01*
X143232819Y-67552628D01*
X143117628Y-67667819D01*
X143027123Y-67803269D01*
X143006529Y-67852988D01*
X142981452Y-67848000D01*
X142818548Y-67848000D01*
X142793471Y-67852988D01*
X142772877Y-67803269D01*
X142682372Y-67667819D01*
X142567181Y-67552628D01*
X142431731Y-67462123D01*
X142281227Y-67399782D01*
X142121452Y-67368000D01*
X141958548Y-67368000D01*
X141798773Y-67399782D01*
X141648269Y-67462123D01*
X141512819Y-67552628D01*
X141397628Y-67667819D01*
X141307123Y-67803269D01*
X141244782Y-67953773D01*
X141213000Y-68113548D01*
X119356448Y-68113548D01*
X119320048Y-68059072D01*
X119190928Y-67929952D01*
X119039099Y-67828504D01*
X118870396Y-67758624D01*
X118691301Y-67723000D01*
X118508699Y-67723000D01*
X118329604Y-67758624D01*
X118160901Y-67828504D01*
X118087500Y-67877549D01*
X118014099Y-67828504D01*
X117845396Y-67758624D01*
X117666301Y-67723000D01*
X117483699Y-67723000D01*
X117304604Y-67758624D01*
X117135901Y-67828504D01*
X117062500Y-67877549D01*
X116989099Y-67828504D01*
X116820396Y-67758624D01*
X116641301Y-67723000D01*
X116458699Y-67723000D01*
X116279604Y-67758624D01*
X116110901Y-67828504D01*
X115959072Y-67929952D01*
X115829952Y-68059072D01*
X115728504Y-68210901D01*
X115658624Y-68379604D01*
X115623000Y-68558699D01*
X107552000Y-68558699D01*
X107552000Y-64383699D01*
X111323000Y-64383699D01*
X111323000Y-64566301D01*
X111358624Y-64745396D01*
X111428504Y-64914099D01*
X111529952Y-65065928D01*
X111659072Y-65195048D01*
X111810901Y-65296496D01*
X111979604Y-65366376D01*
X112158699Y-65402000D01*
X112341301Y-65402000D01*
X112520396Y-65366376D01*
X112689099Y-65296496D01*
X112840928Y-65195048D01*
X112970048Y-65065928D01*
X113071496Y-64914099D01*
X113141376Y-64745396D01*
X113177000Y-64566301D01*
X113177000Y-64383699D01*
X123798000Y-64383699D01*
X123798000Y-64566301D01*
X123833624Y-64745396D01*
X123903504Y-64914099D01*
X124004952Y-65065928D01*
X124134072Y-65195048D01*
X124285901Y-65296496D01*
X124454604Y-65366376D01*
X124633699Y-65402000D01*
X124816301Y-65402000D01*
X124995396Y-65366376D01*
X125164099Y-65296496D01*
X125315928Y-65195048D01*
X125445048Y-65065928D01*
X125546496Y-64914099D01*
X125616376Y-64745396D01*
X125652000Y-64566301D01*
X125652000Y-64383699D01*
X125643049Y-64338699D01*
X128163000Y-64338699D01*
X128163000Y-64521301D01*
X128198624Y-64700396D01*
X128268504Y-64869099D01*
X128369952Y-65020928D01*
X128499072Y-65150048D01*
X128650901Y-65251496D01*
X128819604Y-65321376D01*
X128998699Y-65357000D01*
X129181301Y-65357000D01*
X129360396Y-65321376D01*
X129529099Y-65251496D01*
X129680928Y-65150048D01*
X129810048Y-65020928D01*
X129911496Y-64869099D01*
X129981376Y-64700396D01*
X130004588Y-64583699D01*
X136148000Y-64583699D01*
X136148000Y-64766301D01*
X136183624Y-64945396D01*
X136253504Y-65114099D01*
X136354952Y-65265928D01*
X136484072Y-65395048D01*
X136635901Y-65496496D01*
X136804604Y-65566376D01*
X136983699Y-65602000D01*
X137166301Y-65602000D01*
X137345396Y-65566376D01*
X137514099Y-65496496D01*
X137665928Y-65395048D01*
X137795048Y-65265928D01*
X137896496Y-65114099D01*
X137966376Y-64945396D01*
X138002000Y-64766301D01*
X138002000Y-64583699D01*
X138001006Y-64578699D01*
X140583000Y-64578699D01*
X140583000Y-64761301D01*
X140618624Y-64940396D01*
X140688504Y-65109099D01*
X140789952Y-65260928D01*
X140919072Y-65390048D01*
X141070901Y-65491496D01*
X141239604Y-65561376D01*
X141418699Y-65597000D01*
X141598907Y-65597000D01*
X141533624Y-65754604D01*
X141498000Y-65933699D01*
X141498000Y-66116301D01*
X141533624Y-66295396D01*
X141603504Y-66464099D01*
X141704952Y-66615928D01*
X141834072Y-66745048D01*
X141985901Y-66846496D01*
X142154604Y-66916376D01*
X142333699Y-66952000D01*
X142516301Y-66952000D01*
X142695396Y-66916376D01*
X142864099Y-66846496D01*
X142987500Y-66764043D01*
X143110901Y-66846496D01*
X143279604Y-66916376D01*
X143458699Y-66952000D01*
X143641301Y-66952000D01*
X143820396Y-66916376D01*
X143989099Y-66846496D01*
X144140928Y-66745048D01*
X144270048Y-66615928D01*
X144371496Y-66464099D01*
X144441376Y-66295396D01*
X144443702Y-66283699D01*
X145073000Y-66283699D01*
X145073000Y-66466301D01*
X145108624Y-66645396D01*
X145178504Y-66814099D01*
X145219196Y-66875000D01*
X145178504Y-66935901D01*
X145108624Y-67104604D01*
X145073000Y-67283699D01*
X145073000Y-67466301D01*
X145108624Y-67645396D01*
X145178504Y-67814099D01*
X145279952Y-67965928D01*
X145409072Y-68095048D01*
X145560901Y-68196496D01*
X145729604Y-68266376D01*
X145908699Y-68302000D01*
X146091301Y-68302000D01*
X146270396Y-68266376D01*
X146439099Y-68196496D01*
X146500000Y-68155804D01*
X146560901Y-68196496D01*
X146729604Y-68266376D01*
X146908699Y-68302000D01*
X147091301Y-68302000D01*
X147270396Y-68266376D01*
X147439099Y-68196496D01*
X147590928Y-68095048D01*
X147720048Y-67965928D01*
X147821496Y-67814099D01*
X147891376Y-67645396D01*
X147927000Y-67466301D01*
X147927000Y-67283699D01*
X147891376Y-67104604D01*
X147821496Y-66935901D01*
X147780804Y-66875000D01*
X147821496Y-66814099D01*
X147891376Y-66645396D01*
X147927000Y-66466301D01*
X147927000Y-66283699D01*
X147891376Y-66104604D01*
X147821496Y-65935901D01*
X147720048Y-65784072D01*
X147590928Y-65654952D01*
X147439099Y-65553504D01*
X147270396Y-65483624D01*
X147091301Y-65448000D01*
X146908699Y-65448000D01*
X146729604Y-65483624D01*
X146560901Y-65553504D01*
X146500000Y-65594196D01*
X146439099Y-65553504D01*
X146270396Y-65483624D01*
X146091301Y-65448000D01*
X145908699Y-65448000D01*
X145729604Y-65483624D01*
X145560901Y-65553504D01*
X145409072Y-65654952D01*
X145279952Y-65784072D01*
X145178504Y-65935901D01*
X145108624Y-66104604D01*
X145073000Y-66283699D01*
X144443702Y-66283699D01*
X144477000Y-66116301D01*
X144477000Y-65933699D01*
X144441376Y-65754604D01*
X144371496Y-65585901D01*
X144270048Y-65434072D01*
X144140928Y-65304952D01*
X143989099Y-65203504D01*
X143820396Y-65133624D01*
X143641301Y-65098000D01*
X143458699Y-65098000D01*
X143279604Y-65133624D01*
X143110901Y-65203504D01*
X142987500Y-65285957D01*
X142864099Y-65203504D01*
X142695396Y-65133624D01*
X142516301Y-65098000D01*
X142336093Y-65098000D01*
X142401376Y-64940396D01*
X142437000Y-64761301D01*
X142437000Y-64578699D01*
X142401376Y-64399604D01*
X142331496Y-64230901D01*
X142230048Y-64079072D01*
X142100928Y-63949952D01*
X141949099Y-63848504D01*
X141780396Y-63778624D01*
X141601301Y-63743000D01*
X141418699Y-63743000D01*
X141239604Y-63778624D01*
X141070901Y-63848504D01*
X140919072Y-63949952D01*
X140789952Y-64079072D01*
X140688504Y-64230901D01*
X140618624Y-64399604D01*
X140583000Y-64578699D01*
X138001006Y-64578699D01*
X137966376Y-64404604D01*
X137896496Y-64235901D01*
X137795048Y-64084072D01*
X137665928Y-63954952D01*
X137514099Y-63853504D01*
X137345396Y-63783624D01*
X137166301Y-63748000D01*
X136983699Y-63748000D01*
X136804604Y-63783624D01*
X136635901Y-63853504D01*
X136484072Y-63954952D01*
X136354952Y-64084072D01*
X136253504Y-64235901D01*
X136183624Y-64404604D01*
X136148000Y-64583699D01*
X130004588Y-64583699D01*
X130017000Y-64521301D01*
X130017000Y-64338699D01*
X129981376Y-64159604D01*
X129911496Y-63990901D01*
X129810048Y-63839072D01*
X129680928Y-63709952D01*
X129529099Y-63608504D01*
X129360396Y-63538624D01*
X129181301Y-63503000D01*
X128998699Y-63503000D01*
X128819604Y-63538624D01*
X128650901Y-63608504D01*
X128499072Y-63709952D01*
X128369952Y-63839072D01*
X128268504Y-63990901D01*
X128198624Y-64159604D01*
X128163000Y-64338699D01*
X125643049Y-64338699D01*
X125616376Y-64204604D01*
X125546496Y-64035901D01*
X125445048Y-63884072D01*
X125315928Y-63754952D01*
X125164099Y-63653504D01*
X124995396Y-63583624D01*
X124816301Y-63548000D01*
X124633699Y-63548000D01*
X124454604Y-63583624D01*
X124285901Y-63653504D01*
X124134072Y-63754952D01*
X124004952Y-63884072D01*
X123903504Y-64035901D01*
X123833624Y-64204604D01*
X123798000Y-64383699D01*
X113177000Y-64383699D01*
X113141376Y-64204604D01*
X113071496Y-64035901D01*
X112970048Y-63884072D01*
X112840928Y-63754952D01*
X112689099Y-63653504D01*
X112520396Y-63583624D01*
X112341301Y-63548000D01*
X112158699Y-63548000D01*
X111979604Y-63583624D01*
X111810901Y-63653504D01*
X111659072Y-63754952D01*
X111529952Y-63884072D01*
X111428504Y-64035901D01*
X111358624Y-64204604D01*
X111323000Y-64383699D01*
X107552000Y-64383699D01*
X107552000Y-59808699D01*
X108773000Y-59808699D01*
X108773000Y-59991301D01*
X108808624Y-60170396D01*
X108878504Y-60339099D01*
X108979952Y-60490928D01*
X109109072Y-60620048D01*
X109260901Y-60721496D01*
X109429604Y-60791376D01*
X109608699Y-60827000D01*
X109791301Y-60827000D01*
X109970396Y-60791376D01*
X109989477Y-60783472D01*
X117283000Y-60783472D01*
X117283000Y-60936528D01*
X117312859Y-61086643D01*
X117371431Y-61228048D01*
X117456464Y-61355309D01*
X117551155Y-61450000D01*
X117456464Y-61544691D01*
X117371431Y-61671952D01*
X117312859Y-61813357D01*
X117283000Y-61963472D01*
X117283000Y-62116528D01*
X117312859Y-62266643D01*
X117371431Y-62408048D01*
X117456464Y-62535309D01*
X117564691Y-62643536D01*
X117691952Y-62728569D01*
X117833357Y-62787141D01*
X117983472Y-62817000D01*
X118136528Y-62817000D01*
X118286643Y-62787141D01*
X118428048Y-62728569D01*
X118555309Y-62643536D01*
X118650000Y-62548845D01*
X118744691Y-62643536D01*
X118871952Y-62728569D01*
X119013357Y-62787141D01*
X119163472Y-62817000D01*
X119316528Y-62817000D01*
X119466643Y-62787141D01*
X119608048Y-62728569D01*
X119735309Y-62643536D01*
X119843536Y-62535309D01*
X119928569Y-62408048D01*
X119987141Y-62266643D01*
X120017000Y-62116528D01*
X120017000Y-61963472D01*
X119987141Y-61813357D01*
X119928569Y-61671952D01*
X119843536Y-61544691D01*
X119748845Y-61450000D01*
X119843536Y-61355309D01*
X119928569Y-61228048D01*
X119987141Y-61086643D01*
X120017000Y-60936528D01*
X120017000Y-60808472D01*
X129833000Y-60808472D01*
X129833000Y-60961528D01*
X129862859Y-61111643D01*
X129921431Y-61253048D01*
X130006464Y-61380309D01*
X130101155Y-61475000D01*
X130006464Y-61569691D01*
X129921431Y-61696952D01*
X129862859Y-61838357D01*
X129833000Y-61988472D01*
X129833000Y-62141528D01*
X129862859Y-62291643D01*
X129921431Y-62433048D01*
X130006464Y-62560309D01*
X130114691Y-62668536D01*
X130241952Y-62753569D01*
X130383357Y-62812141D01*
X130533472Y-62842000D01*
X130686528Y-62842000D01*
X130836643Y-62812141D01*
X130978048Y-62753569D01*
X131105309Y-62668536D01*
X131200000Y-62573845D01*
X131294691Y-62668536D01*
X131421952Y-62753569D01*
X131563357Y-62812141D01*
X131713472Y-62842000D01*
X131866528Y-62842000D01*
X132016643Y-62812141D01*
X132158048Y-62753569D01*
X132285309Y-62668536D01*
X132393536Y-62560309D01*
X132478569Y-62433048D01*
X132537141Y-62291643D01*
X132567000Y-62141528D01*
X132567000Y-61988472D01*
X132537141Y-61838357D01*
X132478569Y-61696952D01*
X132393536Y-61569691D01*
X132298845Y-61475000D01*
X132393536Y-61380309D01*
X132478569Y-61253048D01*
X132537141Y-61111643D01*
X132567000Y-60961528D01*
X132567000Y-60858472D01*
X142283000Y-60858472D01*
X142283000Y-61011528D01*
X142312859Y-61161643D01*
X142371431Y-61303048D01*
X142456464Y-61430309D01*
X142551155Y-61525000D01*
X142456464Y-61619691D01*
X142371431Y-61746952D01*
X142312859Y-61888357D01*
X142283000Y-62038472D01*
X142283000Y-62191528D01*
X142312859Y-62341643D01*
X142371431Y-62483048D01*
X142456464Y-62610309D01*
X142564691Y-62718536D01*
X142691952Y-62803569D01*
X142833357Y-62862141D01*
X142983472Y-62892000D01*
X143136528Y-62892000D01*
X143286643Y-62862141D01*
X143428048Y-62803569D01*
X143555309Y-62718536D01*
X143650000Y-62623845D01*
X143744691Y-62718536D01*
X143871952Y-62803569D01*
X144013357Y-62862141D01*
X144163472Y-62892000D01*
X144316528Y-62892000D01*
X144466643Y-62862141D01*
X144608048Y-62803569D01*
X144735309Y-62718536D01*
X144843536Y-62610309D01*
X144928569Y-62483048D01*
X144987141Y-62341643D01*
X145017000Y-62191528D01*
X145017000Y-62038472D01*
X144987141Y-61888357D01*
X144928569Y-61746952D01*
X144843536Y-61619691D01*
X144748845Y-61525000D01*
X144843536Y-61430309D01*
X144928569Y-61303048D01*
X144987141Y-61161643D01*
X145017000Y-61011528D01*
X145017000Y-60858472D01*
X144987141Y-60708357D01*
X144928569Y-60566952D01*
X144843536Y-60439691D01*
X144735309Y-60331464D01*
X144608048Y-60246431D01*
X144466643Y-60187859D01*
X144316528Y-60158000D01*
X144163472Y-60158000D01*
X144013357Y-60187859D01*
X143871952Y-60246431D01*
X143744691Y-60331464D01*
X143650000Y-60426155D01*
X143555309Y-60331464D01*
X143428048Y-60246431D01*
X143286643Y-60187859D01*
X143136528Y-60158000D01*
X142983472Y-60158000D01*
X142833357Y-60187859D01*
X142691952Y-60246431D01*
X142564691Y-60331464D01*
X142456464Y-60439691D01*
X142371431Y-60566952D01*
X142312859Y-60708357D01*
X142283000Y-60858472D01*
X132567000Y-60858472D01*
X132567000Y-60808472D01*
X132537141Y-60658357D01*
X132478569Y-60516952D01*
X132393536Y-60389691D01*
X132285309Y-60281464D01*
X132158048Y-60196431D01*
X132016643Y-60137859D01*
X131866528Y-60108000D01*
X131713472Y-60108000D01*
X131563357Y-60137859D01*
X131421952Y-60196431D01*
X131294691Y-60281464D01*
X131200000Y-60376155D01*
X131105309Y-60281464D01*
X130978048Y-60196431D01*
X130836643Y-60137859D01*
X130686528Y-60108000D01*
X130533472Y-60108000D01*
X130383357Y-60137859D01*
X130241952Y-60196431D01*
X130114691Y-60281464D01*
X130006464Y-60389691D01*
X129921431Y-60516952D01*
X129862859Y-60658357D01*
X129833000Y-60808472D01*
X120017000Y-60808472D01*
X120017000Y-60783472D01*
X119987141Y-60633357D01*
X119928569Y-60491952D01*
X119843536Y-60364691D01*
X119735309Y-60256464D01*
X119608048Y-60171431D01*
X119466643Y-60112859D01*
X119316528Y-60083000D01*
X119163472Y-60083000D01*
X119013357Y-60112859D01*
X118871952Y-60171431D01*
X118744691Y-60256464D01*
X118650000Y-60351155D01*
X118555309Y-60256464D01*
X118428048Y-60171431D01*
X118286643Y-60112859D01*
X118136528Y-60083000D01*
X117983472Y-60083000D01*
X117833357Y-60112859D01*
X117691952Y-60171431D01*
X117564691Y-60256464D01*
X117456464Y-60364691D01*
X117371431Y-60491952D01*
X117312859Y-60633357D01*
X117283000Y-60783472D01*
X109989477Y-60783472D01*
X110139099Y-60721496D01*
X110290928Y-60620048D01*
X110420048Y-60490928D01*
X110521496Y-60339099D01*
X110591376Y-60170396D01*
X110627000Y-59991301D01*
X110627000Y-59808699D01*
X110591376Y-59629604D01*
X110521496Y-59460901D01*
X110420048Y-59309072D01*
X110344675Y-59233699D01*
X119498000Y-59233699D01*
X119498000Y-59416301D01*
X119533624Y-59595396D01*
X119603504Y-59764099D01*
X119704952Y-59915928D01*
X119834072Y-60045048D01*
X119985901Y-60146496D01*
X120154604Y-60216376D01*
X120333699Y-60252000D01*
X120516301Y-60252000D01*
X120695396Y-60216376D01*
X120864099Y-60146496D01*
X121015928Y-60045048D01*
X121145048Y-59915928D01*
X121246496Y-59764099D01*
X121316376Y-59595396D01*
X121352000Y-59416301D01*
X121352000Y-59233699D01*
X121316376Y-59054604D01*
X121246496Y-58885901D01*
X121172048Y-58774480D01*
X121200000Y-58755804D01*
X121260901Y-58796496D01*
X121429604Y-58866376D01*
X121608699Y-58902000D01*
X121791301Y-58902000D01*
X121970396Y-58866376D01*
X122139099Y-58796496D01*
X122290928Y-58695048D01*
X122420048Y-58565928D01*
X122521496Y-58414099D01*
X122591376Y-58245396D01*
X122627000Y-58066301D01*
X122627000Y-57883699D01*
X122591376Y-57704604D01*
X122521496Y-57535901D01*
X122480804Y-57475000D01*
X122521496Y-57414099D01*
X122591376Y-57245396D01*
X122627000Y-57066301D01*
X122627000Y-56883699D01*
X122591376Y-56704604D01*
X122521496Y-56535901D01*
X122520025Y-56533699D01*
X124848000Y-56533699D01*
X124848000Y-56716301D01*
X124883624Y-56895396D01*
X124953504Y-57064099D01*
X125054952Y-57215928D01*
X125184072Y-57345048D01*
X125335901Y-57446496D01*
X125504604Y-57516376D01*
X125683699Y-57552000D01*
X125866301Y-57552000D01*
X126045396Y-57516376D01*
X126214099Y-57446496D01*
X126365928Y-57345048D01*
X126495048Y-57215928D01*
X126566695Y-57108699D01*
X132073000Y-57108699D01*
X132073000Y-57291301D01*
X132108624Y-57470396D01*
X132178504Y-57639099D01*
X132219196Y-57700000D01*
X132178504Y-57760901D01*
X132108624Y-57929604D01*
X132073000Y-58108699D01*
X132073000Y-58291301D01*
X132108624Y-58470396D01*
X132178504Y-58639099D01*
X132279952Y-58790928D01*
X132297165Y-58808141D01*
X132228504Y-58910901D01*
X132158624Y-59079604D01*
X132123000Y-59258699D01*
X132123000Y-59441301D01*
X132158624Y-59620396D01*
X132228504Y-59789099D01*
X132329952Y-59940928D01*
X132459072Y-60070048D01*
X132610901Y-60171496D01*
X132779604Y-60241376D01*
X132958699Y-60277000D01*
X133141301Y-60277000D01*
X133320396Y-60241376D01*
X133489099Y-60171496D01*
X133640928Y-60070048D01*
X133770048Y-59940928D01*
X133871496Y-59789099D01*
X133941376Y-59620396D01*
X133977000Y-59441301D01*
X133977000Y-59258699D01*
X133962082Y-59183699D01*
X144598000Y-59183699D01*
X144598000Y-59366301D01*
X144633624Y-59545396D01*
X144703504Y-59714099D01*
X144804952Y-59865928D01*
X144934072Y-59995048D01*
X145085901Y-60096496D01*
X145254604Y-60166376D01*
X145433699Y-60202000D01*
X145616301Y-60202000D01*
X145795396Y-60166376D01*
X145964099Y-60096496D01*
X146115928Y-59995048D01*
X146245048Y-59865928D01*
X146346496Y-59714099D01*
X146416376Y-59545396D01*
X146452000Y-59366301D01*
X146452000Y-59183699D01*
X146416376Y-59004604D01*
X146346496Y-58835901D01*
X146245048Y-58684072D01*
X146115928Y-58554952D01*
X145964099Y-58453504D01*
X145795396Y-58383624D01*
X145616301Y-58348000D01*
X145433699Y-58348000D01*
X145254604Y-58383624D01*
X145085901Y-58453504D01*
X144934072Y-58554952D01*
X144804952Y-58684072D01*
X144703504Y-58835901D01*
X144633624Y-59004604D01*
X144598000Y-59183699D01*
X133962082Y-59183699D01*
X133950804Y-59127000D01*
X134091301Y-59127000D01*
X134270396Y-59091376D01*
X134439099Y-59021496D01*
X134590928Y-58920048D01*
X134720048Y-58790928D01*
X134821496Y-58639099D01*
X134891376Y-58470396D01*
X134927000Y-58291301D01*
X134927000Y-58108699D01*
X134891376Y-57929604D01*
X134821496Y-57760901D01*
X134780804Y-57700000D01*
X134821496Y-57639099D01*
X134891376Y-57470396D01*
X134927000Y-57291301D01*
X134927000Y-57108699D01*
X134891376Y-56929604D01*
X134821496Y-56760901D01*
X134720048Y-56609072D01*
X134644675Y-56533699D01*
X137273000Y-56533699D01*
X137273000Y-56716301D01*
X137308624Y-56895396D01*
X137378504Y-57064099D01*
X137479952Y-57215928D01*
X137609072Y-57345048D01*
X137760901Y-57446496D01*
X137929604Y-57516376D01*
X138108699Y-57552000D01*
X138291301Y-57552000D01*
X138470396Y-57516376D01*
X138639099Y-57446496D01*
X138790928Y-57345048D01*
X138920048Y-57215928D01*
X139021496Y-57064099D01*
X139091376Y-56895396D01*
X139127000Y-56716301D01*
X139127000Y-56533699D01*
X139091376Y-56354604D01*
X139054159Y-56264755D01*
X146723000Y-56264755D01*
X146723000Y-56585245D01*
X146785525Y-56899578D01*
X146908172Y-57195673D01*
X147086227Y-57462152D01*
X147312848Y-57688773D01*
X147579327Y-57866828D01*
X147875422Y-57989475D01*
X148189755Y-58052000D01*
X148510245Y-58052000D01*
X148824578Y-57989475D01*
X149120673Y-57866828D01*
X149387152Y-57688773D01*
X149613773Y-57462152D01*
X149791828Y-57195673D01*
X149914475Y-56899578D01*
X149977000Y-56585245D01*
X149977000Y-56264755D01*
X149914475Y-55950422D01*
X149791828Y-55654327D01*
X149613773Y-55387848D01*
X149387152Y-55161227D01*
X149120673Y-54983172D01*
X148824578Y-54860525D01*
X148510245Y-54798000D01*
X148189755Y-54798000D01*
X147875422Y-54860525D01*
X147579327Y-54983172D01*
X147312848Y-55161227D01*
X147086227Y-55387848D01*
X146908172Y-55654327D01*
X146785525Y-55950422D01*
X146723000Y-56264755D01*
X139054159Y-56264755D01*
X139021496Y-56185901D01*
X138920048Y-56034072D01*
X138790928Y-55904952D01*
X138639099Y-55803504D01*
X138470396Y-55733624D01*
X138291301Y-55698000D01*
X138108699Y-55698000D01*
X137929604Y-55733624D01*
X137760901Y-55803504D01*
X137609072Y-55904952D01*
X137479952Y-56034072D01*
X137378504Y-56185901D01*
X137308624Y-56354604D01*
X137273000Y-56533699D01*
X134644675Y-56533699D01*
X134590928Y-56479952D01*
X134439099Y-56378504D01*
X134270396Y-56308624D01*
X134091301Y-56273000D01*
X133908699Y-56273000D01*
X133729604Y-56308624D01*
X133560901Y-56378504D01*
X133500000Y-56419196D01*
X133439099Y-56378504D01*
X133270396Y-56308624D01*
X133091301Y-56273000D01*
X132908699Y-56273000D01*
X132729604Y-56308624D01*
X132560901Y-56378504D01*
X132409072Y-56479952D01*
X132279952Y-56609072D01*
X132178504Y-56760901D01*
X132108624Y-56929604D01*
X132073000Y-57108699D01*
X126566695Y-57108699D01*
X126596496Y-57064099D01*
X126666376Y-56895396D01*
X126702000Y-56716301D01*
X126702000Y-56533699D01*
X126666376Y-56354604D01*
X126596496Y-56185901D01*
X126495048Y-56034072D01*
X126365928Y-55904952D01*
X126214099Y-55803504D01*
X126045396Y-55733624D01*
X125866301Y-55698000D01*
X125683699Y-55698000D01*
X125504604Y-55733624D01*
X125335901Y-55803504D01*
X125184072Y-55904952D01*
X125054952Y-56034072D01*
X124953504Y-56185901D01*
X124883624Y-56354604D01*
X124848000Y-56533699D01*
X122520025Y-56533699D01*
X122420048Y-56384072D01*
X122290928Y-56254952D01*
X122139099Y-56153504D01*
X121970396Y-56083624D01*
X121791301Y-56048000D01*
X121608699Y-56048000D01*
X121429604Y-56083624D01*
X121260901Y-56153504D01*
X121200000Y-56194196D01*
X121139099Y-56153504D01*
X120970396Y-56083624D01*
X120791301Y-56048000D01*
X120608699Y-56048000D01*
X120429604Y-56083624D01*
X120260901Y-56153504D01*
X120109072Y-56254952D01*
X119979952Y-56384072D01*
X119878504Y-56535901D01*
X119808624Y-56704604D01*
X119773000Y-56883699D01*
X119773000Y-57066301D01*
X119808624Y-57245396D01*
X119878504Y-57414099D01*
X119919196Y-57475000D01*
X119878504Y-57535901D01*
X119808624Y-57704604D01*
X119773000Y-57883699D01*
X119773000Y-58066301D01*
X119808624Y-58245396D01*
X119878504Y-58414099D01*
X119952952Y-58525520D01*
X119834072Y-58604952D01*
X119704952Y-58734072D01*
X119603504Y-58885901D01*
X119533624Y-59054604D01*
X119498000Y-59233699D01*
X110344675Y-59233699D01*
X110290928Y-59179952D01*
X110139099Y-59078504D01*
X109970396Y-59008624D01*
X109791301Y-58973000D01*
X109608699Y-58973000D01*
X109429604Y-59008624D01*
X109260901Y-59078504D01*
X109109072Y-59179952D01*
X108979952Y-59309072D01*
X108878504Y-59460901D01*
X108808624Y-59629604D01*
X108773000Y-59808699D01*
X107552000Y-59808699D01*
X107552000Y-56264755D01*
X107573000Y-56264755D01*
X107573000Y-56585245D01*
X107635525Y-56899578D01*
X107758172Y-57195673D01*
X107936227Y-57462152D01*
X108162848Y-57688773D01*
X108429327Y-57866828D01*
X108725422Y-57989475D01*
X109039755Y-58052000D01*
X109360245Y-58052000D01*
X109674578Y-57989475D01*
X109970673Y-57866828D01*
X110237152Y-57688773D01*
X110463773Y-57462152D01*
X110641828Y-57195673D01*
X110764475Y-56899578D01*
X110827000Y-56585245D01*
X110827000Y-56583699D01*
X112548000Y-56583699D01*
X112548000Y-56766301D01*
X112583624Y-56945396D01*
X112653504Y-57114099D01*
X112754952Y-57265928D01*
X112884072Y-57395048D01*
X113035901Y-57496496D01*
X113204604Y-57566376D01*
X113383699Y-57602000D01*
X113566301Y-57602000D01*
X113745396Y-57566376D01*
X113914099Y-57496496D01*
X114065928Y-57395048D01*
X114195048Y-57265928D01*
X114296496Y-57114099D01*
X114366376Y-56945396D01*
X114402000Y-56766301D01*
X114402000Y-56583699D01*
X114366376Y-56404604D01*
X114296496Y-56235901D01*
X114195048Y-56084072D01*
X114065928Y-55954952D01*
X113914099Y-55853504D01*
X113745396Y-55783624D01*
X113566301Y-55748000D01*
X113383699Y-55748000D01*
X113204604Y-55783624D01*
X113035901Y-55853504D01*
X112884072Y-55954952D01*
X112754952Y-56084072D01*
X112653504Y-56235901D01*
X112583624Y-56404604D01*
X112548000Y-56583699D01*
X110827000Y-56583699D01*
X110827000Y-56264755D01*
X110764475Y-55950422D01*
X110641828Y-55654327D01*
X110463773Y-55387848D01*
X110237152Y-55161227D01*
X109970673Y-54983172D01*
X109674578Y-54860525D01*
X109360245Y-54798000D01*
X109039755Y-54798000D01*
X108725422Y-54860525D01*
X108429327Y-54983172D01*
X108162848Y-55161227D01*
X107936227Y-55387848D01*
X107758172Y-55654327D01*
X107635525Y-55950422D01*
X107573000Y-56264755D01*
X107552000Y-56264755D01*
X107552000Y-54752000D01*
X150028000Y-54752000D01*
X150028001Y-86548000D01*
X150028001Y-86548000D01*
G37*
X150028001Y-86548000D02*
X122735354Y-86548000D01*
X122799917Y-86528415D01*
X122978331Y-86433051D01*
X123134712Y-86304712D01*
X123263051Y-86148331D01*
X123358415Y-85969917D01*
X123417140Y-85776327D01*
X123436969Y-85575000D01*
X123417140Y-85373673D01*
X123358415Y-85180083D01*
X123263051Y-85001669D01*
X123134712Y-84845288D01*
X123090129Y-84808699D01*
X143023000Y-84808699D01*
X143023000Y-84991301D01*
X143058624Y-85170396D01*
X143128504Y-85339099D01*
X143229952Y-85490928D01*
X143359072Y-85620048D01*
X143510901Y-85721496D01*
X143679604Y-85791376D01*
X143858699Y-85827000D01*
X144041301Y-85827000D01*
X144220396Y-85791376D01*
X144389099Y-85721496D01*
X144540928Y-85620048D01*
X144670048Y-85490928D01*
X144771496Y-85339099D01*
X144841376Y-85170396D01*
X144877000Y-84991301D01*
X144877000Y-84808699D01*
X144858314Y-84714755D01*
X146723000Y-84714755D01*
X146723000Y-85035245D01*
X146785525Y-85349578D01*
X146908172Y-85645673D01*
X147086227Y-85912152D01*
X147312848Y-86138773D01*
X147579327Y-86316828D01*
X147875422Y-86439475D01*
X148189755Y-86502000D01*
X148510245Y-86502000D01*
X148824578Y-86439475D01*
X149120673Y-86316828D01*
X149387152Y-86138773D01*
X149613773Y-85912152D01*
X149791828Y-85645673D01*
X149914475Y-85349578D01*
X149977000Y-85035245D01*
X149977000Y-84714755D01*
X149914475Y-84400422D01*
X149791828Y-84104327D01*
X149613773Y-83837848D01*
X149387152Y-83611227D01*
X149120673Y-83433172D01*
X148824578Y-83310525D01*
X148510245Y-83248000D01*
X148189755Y-83248000D01*
X147875422Y-83310525D01*
X147579327Y-83433172D01*
X147312848Y-83611227D01*
X147086227Y-83837848D01*
X146908172Y-84104327D01*
X146785525Y-84400422D01*
X146723000Y-84714755D01*
X144858314Y-84714755D01*
X144841376Y-84629604D01*
X144771496Y-84460901D01*
X144670048Y-84309072D01*
X144540928Y-84179952D01*
X144389099Y-84078504D01*
X144220396Y-84008624D01*
X144041301Y-83973000D01*
X143858699Y-83973000D01*
X143679604Y-84008624D01*
X143510901Y-84078504D01*
X143359072Y-84179952D01*
X143229952Y-84309072D01*
X143128504Y-84460901D01*
X143058624Y-84629604D01*
X143023000Y-84808699D01*
X123090129Y-84808699D01*
X122978331Y-84716949D01*
X122799917Y-84621585D01*
X122606327Y-84562860D01*
X122455451Y-84548000D01*
X122354549Y-84548000D01*
X122203673Y-84562860D01*
X122010083Y-84621585D01*
X121831669Y-84716949D01*
X121770000Y-84767560D01*
X121708331Y-84716949D01*
X121529917Y-84621585D01*
X121336327Y-84562860D01*
X121185451Y-84548000D01*
X121084549Y-84548000D01*
X120933673Y-84562860D01*
X120740083Y-84621585D01*
X120561669Y-84716949D01*
X120500000Y-84767560D01*
X120438331Y-84716949D01*
X120259917Y-84621585D01*
X120066327Y-84562860D01*
X119915451Y-84548000D01*
X119814549Y-84548000D01*
X119663673Y-84562860D01*
X119470083Y-84621585D01*
X119291669Y-84716949D01*
X119135288Y-84845288D01*
X119006949Y-85001669D01*
X118911585Y-85180083D01*
X118852860Y-85373673D01*
X118833031Y-85575000D01*
X118852860Y-85776327D01*
X118911585Y-85969917D01*
X119006949Y-86148331D01*
X119135288Y-86304712D01*
X119291669Y-86433051D01*
X119470083Y-86528415D01*
X119534646Y-86548000D01*
X118058031Y-86548000D01*
X118119202Y-86515304D01*
X118199448Y-86449448D01*
X118265304Y-86369202D01*
X118314239Y-86277650D01*
X118344374Y-86178310D01*
X118354549Y-86075000D01*
X118354549Y-85075000D01*
X118344374Y-84971690D01*
X118314239Y-84872350D01*
X118265304Y-84780798D01*
X118199448Y-84700552D01*
X118119202Y-84634696D01*
X118027650Y-84585761D01*
X117928310Y-84555626D01*
X117825000Y-84545451D01*
X116825000Y-84545451D01*
X116721690Y-84555626D01*
X116622350Y-84585761D01*
X116530798Y-84634696D01*
X116450552Y-84700552D01*
X116384696Y-84780798D01*
X116335761Y-84872350D01*
X116305626Y-84971690D01*
X116295451Y-85075000D01*
X116295451Y-86075000D01*
X116305626Y-86178310D01*
X116335761Y-86277650D01*
X116384696Y-86369202D01*
X116450552Y-86449448D01*
X116530798Y-86515304D01*
X116591969Y-86548000D01*
X107552000Y-86548000D01*
X107552000Y-84714755D01*
X107598000Y-84714755D01*
X107598000Y-85035245D01*
X107660525Y-85349578D01*
X107783172Y-85645673D01*
X107961227Y-85912152D01*
X108187848Y-86138773D01*
X108454327Y-86316828D01*
X108750422Y-86439475D01*
X109064755Y-86502000D01*
X109385245Y-86502000D01*
X109699578Y-86439475D01*
X109995673Y-86316828D01*
X110262152Y-86138773D01*
X110488773Y-85912152D01*
X110666828Y-85645673D01*
X110789475Y-85349578D01*
X110852000Y-85035245D01*
X110852000Y-84714755D01*
X110789475Y-84400422D01*
X110666828Y-84104327D01*
X110488773Y-83837848D01*
X110262152Y-83611227D01*
X109995673Y-83433172D01*
X109699578Y-83310525D01*
X109385245Y-83248000D01*
X109064755Y-83248000D01*
X108750422Y-83310525D01*
X108454327Y-83433172D01*
X108187848Y-83611227D01*
X107961227Y-83837848D01*
X107783172Y-84104327D01*
X107660525Y-84400422D01*
X107598000Y-84714755D01*
X107552000Y-84714755D01*
X107552000Y-82783699D01*
X110898000Y-82783699D01*
X110898000Y-82966301D01*
X110933624Y-83145396D01*
X111003504Y-83314099D01*
X111104952Y-83465928D01*
X111234072Y-83595048D01*
X111385901Y-83696496D01*
X111554604Y-83766376D01*
X111733699Y-83802000D01*
X111916301Y-83802000D01*
X112095396Y-83766376D01*
X112264099Y-83696496D01*
X112415928Y-83595048D01*
X112545048Y-83465928D01*
X112646496Y-83314099D01*
X112716376Y-83145396D01*
X112752000Y-82966301D01*
X112752000Y-82783699D01*
X112742055Y-82733699D01*
X115985500Y-82733699D01*
X115985500Y-82916301D01*
X116021124Y-83095396D01*
X116091004Y-83264099D01*
X116192452Y-83415928D01*
X116321572Y-83545048D01*
X116473401Y-83646496D01*
X116642104Y-83716376D01*
X116821199Y-83752000D01*
X117003801Y-83752000D01*
X117182896Y-83716376D01*
X117351599Y-83646496D01*
X117503428Y-83545048D01*
X117632548Y-83415928D01*
X117733996Y-83264099D01*
X117803876Y-83095396D01*
X117839500Y-82916301D01*
X117839500Y-82733699D01*
X117829555Y-82683699D01*
X121223000Y-82683699D01*
X121223000Y-82866301D01*
X121258624Y-83045396D01*
X121328504Y-83214099D01*
X121429952Y-83365928D01*
X121559072Y-83495048D01*
X121710901Y-83596496D01*
X121879604Y-83666376D01*
X122058699Y-83702000D01*
X122241301Y-83702000D01*
X122420396Y-83666376D01*
X122589099Y-83596496D01*
X122740928Y-83495048D01*
X122870048Y-83365928D01*
X122971496Y-83214099D01*
X123041376Y-83045396D01*
X123077000Y-82866301D01*
X123077000Y-82683699D01*
X123041376Y-82504604D01*
X122971496Y-82335901D01*
X122870048Y-82184072D01*
X122740928Y-82054952D01*
X122596874Y-81958699D01*
X124548000Y-81958699D01*
X124548000Y-82141301D01*
X124583624Y-82320396D01*
X124653504Y-82489099D01*
X124754952Y-82640928D01*
X124884072Y-82770048D01*
X125035901Y-82871496D01*
X125204604Y-82941376D01*
X125383699Y-82977000D01*
X125566301Y-82977000D01*
X125745396Y-82941376D01*
X125914099Y-82871496D01*
X126065928Y-82770048D01*
X126195048Y-82640928D01*
X126296496Y-82489099D01*
X126366376Y-82320396D01*
X126402000Y-82141301D01*
X126402000Y-82058699D01*
X135348000Y-82058699D01*
X135348000Y-82241301D01*
X135383624Y-82420396D01*
X135453504Y-82589099D01*
X135554952Y-82740928D01*
X135684072Y-82870048D01*
X135835901Y-82971496D01*
X136004604Y-83041376D01*
X136183699Y-83077000D01*
X136366301Y-83077000D01*
X136545396Y-83041376D01*
X136714099Y-82971496D01*
X136865928Y-82870048D01*
X136995048Y-82740928D01*
X137096496Y-82589099D01*
X137166376Y-82420396D01*
X137202000Y-82241301D01*
X137202000Y-82058699D01*
X137166376Y-81879604D01*
X137096496Y-81710901D01*
X136995048Y-81559072D01*
X136865928Y-81429952D01*
X136714099Y-81328504D01*
X136545396Y-81258624D01*
X136366301Y-81223000D01*
X136183699Y-81223000D01*
X136004604Y-81258624D01*
X135835901Y-81328504D01*
X135684072Y-81429952D01*
X135554952Y-81559072D01*
X135453504Y-81710901D01*
X135383624Y-81879604D01*
X135348000Y-82058699D01*
X126402000Y-82058699D01*
X126402000Y-81958699D01*
X126366376Y-81779604D01*
X126296496Y-81610901D01*
X126195048Y-81459072D01*
X126065928Y-81329952D01*
X125914099Y-81228504D01*
X125745396Y-81158624D01*
X125566301Y-81123000D01*
X125383699Y-81123000D01*
X125204604Y-81158624D01*
X125035901Y-81228504D01*
X124884072Y-81329952D01*
X124754952Y-81459072D01*
X124653504Y-81610901D01*
X124583624Y-81779604D01*
X124548000Y-81958699D01*
X122596874Y-81958699D01*
X122589099Y-81953504D01*
X122420396Y-81883624D01*
X122241301Y-81848000D01*
X122058699Y-81848000D01*
X121879604Y-81883624D01*
X121710901Y-81953504D01*
X121559072Y-82054952D01*
X121429952Y-82184072D01*
X121328504Y-82335901D01*
X121258624Y-82504604D01*
X121223000Y-82683699D01*
X117829555Y-82683699D01*
X117803876Y-82554604D01*
X117733996Y-82385901D01*
X117632548Y-82234072D01*
X117503428Y-82104952D01*
X117351599Y-82003504D01*
X117182896Y-81933624D01*
X117003801Y-81898000D01*
X116821199Y-81898000D01*
X116642104Y-81933624D01*
X116473401Y-82003504D01*
X116321572Y-82104952D01*
X116192452Y-82234072D01*
X116091004Y-82385901D01*
X116021124Y-82554604D01*
X115985500Y-82733699D01*
X112742055Y-82733699D01*
X112716376Y-82604604D01*
X112646496Y-82435901D01*
X112545048Y-82284072D01*
X112415928Y-82154952D01*
X112264099Y-82053504D01*
X112095396Y-81983624D01*
X111916301Y-81948000D01*
X111733699Y-81948000D01*
X111554604Y-81983624D01*
X111385901Y-82053504D01*
X111234072Y-82154952D01*
X111104952Y-82284072D01*
X111003504Y-82435901D01*
X110933624Y-82604604D01*
X110898000Y-82783699D01*
X107552000Y-82783699D01*
X107552000Y-81041965D01*
X117665719Y-81041965D01*
X117665719Y-81224567D01*
X117701343Y-81403662D01*
X117771223Y-81572365D01*
X117872671Y-81724194D01*
X118001791Y-81853314D01*
X118153620Y-81954762D01*
X118322323Y-82024642D01*
X118501418Y-82060266D01*
X118684020Y-82060266D01*
X118863115Y-82024642D01*
X119031818Y-81954762D01*
X119183647Y-81853314D01*
X119312767Y-81724194D01*
X119414215Y-81572365D01*
X119484095Y-81403662D01*
X119519719Y-81224567D01*
X119519719Y-81041965D01*
X119484095Y-80862870D01*
X119417381Y-80701810D01*
X119501333Y-80576165D01*
X119571213Y-80407462D01*
X119606837Y-80228367D01*
X119606837Y-80045765D01*
X119571213Y-79866670D01*
X119567912Y-79858699D01*
X129098000Y-79858699D01*
X129098000Y-80041301D01*
X129133624Y-80220396D01*
X129203504Y-80389099D01*
X129244196Y-80450000D01*
X129203504Y-80510901D01*
X129133624Y-80679604D01*
X129098000Y-80858699D01*
X129098000Y-81041301D01*
X129133624Y-81220396D01*
X129203504Y-81389099D01*
X129304952Y-81540928D01*
X129434072Y-81670048D01*
X129585901Y-81771496D01*
X129754604Y-81841376D01*
X129933699Y-81877000D01*
X130116301Y-81877000D01*
X130295396Y-81841376D01*
X130464099Y-81771496D01*
X130537500Y-81722451D01*
X130610901Y-81771496D01*
X130779604Y-81841376D01*
X130958699Y-81877000D01*
X131141301Y-81877000D01*
X131320396Y-81841376D01*
X131489099Y-81771496D01*
X131550000Y-81730804D01*
X131610901Y-81771496D01*
X131779604Y-81841376D01*
X131958699Y-81877000D01*
X132141301Y-81877000D01*
X132320396Y-81841376D01*
X132489099Y-81771496D01*
X132640928Y-81670048D01*
X132770048Y-81540928D01*
X132871496Y-81389099D01*
X132941376Y-81220396D01*
X132977000Y-81041301D01*
X132977000Y-80858699D01*
X132941376Y-80679604D01*
X132871496Y-80510901D01*
X132843304Y-80468708D01*
X132896496Y-80389099D01*
X132966376Y-80220396D01*
X133002000Y-80041301D01*
X133002000Y-79858699D01*
X132966376Y-79679604D01*
X132896496Y-79510901D01*
X132795048Y-79359072D01*
X132769448Y-79333472D01*
X136883000Y-79333472D01*
X136883000Y-79486528D01*
X136912859Y-79636643D01*
X136971431Y-79778048D01*
X137056464Y-79905309D01*
X137151155Y-80000000D01*
X137056464Y-80094691D01*
X136971431Y-80221952D01*
X136912859Y-80363357D01*
X136883000Y-80513472D01*
X136883000Y-80666528D01*
X136912859Y-80816643D01*
X136971431Y-80958048D01*
X137056464Y-81085309D01*
X137164691Y-81193536D01*
X137291952Y-81278569D01*
X137433357Y-81337141D01*
X137583472Y-81367000D01*
X137736528Y-81367000D01*
X137886643Y-81337141D01*
X138028048Y-81278569D01*
X138155309Y-81193536D01*
X138250000Y-81098845D01*
X138344691Y-81193536D01*
X138471952Y-81278569D01*
X138613357Y-81337141D01*
X138763472Y-81367000D01*
X138916528Y-81367000D01*
X139066643Y-81337141D01*
X139208048Y-81278569D01*
X139335309Y-81193536D01*
X139443536Y-81085309D01*
X139528569Y-80958048D01*
X139587141Y-80816643D01*
X139617000Y-80666528D01*
X139617000Y-80513472D01*
X139587141Y-80363357D01*
X139528569Y-80221952D01*
X139443536Y-80094691D01*
X139348845Y-80000000D01*
X139443536Y-79905309D01*
X139528569Y-79778048D01*
X139587141Y-79636643D01*
X139617000Y-79486528D01*
X139617000Y-79333472D01*
X139587141Y-79183357D01*
X139528569Y-79041952D01*
X139443536Y-78914691D01*
X139335309Y-78806464D01*
X139208048Y-78721431D01*
X139066643Y-78662859D01*
X138916528Y-78633000D01*
X138763472Y-78633000D01*
X138613357Y-78662859D01*
X138471952Y-78721431D01*
X138344691Y-78806464D01*
X138250000Y-78901155D01*
X138155309Y-78806464D01*
X138028048Y-78721431D01*
X137886643Y-78662859D01*
X137736528Y-78633000D01*
X137583472Y-78633000D01*
X137433357Y-78662859D01*
X137291952Y-78721431D01*
X137164691Y-78806464D01*
X137056464Y-78914691D01*
X136971431Y-79041952D01*
X136912859Y-79183357D01*
X136883000Y-79333472D01*
X132769448Y-79333472D01*
X132665928Y-79229952D01*
X132514099Y-79128504D01*
X132345396Y-79058624D01*
X132166301Y-79023000D01*
X131983699Y-79023000D01*
X131804604Y-79058624D01*
X131635901Y-79128504D01*
X131562500Y-79177549D01*
X131489099Y-79128504D01*
X131320396Y-79058624D01*
X131141301Y-79023000D01*
X130958699Y-79023000D01*
X130779604Y-79058624D01*
X130610901Y-79128504D01*
X130537500Y-79177549D01*
X130464099Y-79128504D01*
X130295396Y-79058624D01*
X130116301Y-79023000D01*
X129933699Y-79023000D01*
X129754604Y-79058624D01*
X129585901Y-79128504D01*
X129434072Y-79229952D01*
X129304952Y-79359072D01*
X129203504Y-79510901D01*
X129133624Y-79679604D01*
X129098000Y-79858699D01*
X119567912Y-79858699D01*
X119501333Y-79697967D01*
X119445870Y-79614961D01*
X119471496Y-79576609D01*
X119541376Y-79407906D01*
X119577000Y-79228811D01*
X119577000Y-79204942D01*
X119604604Y-79216376D01*
X119783699Y-79252000D01*
X119966301Y-79252000D01*
X120145396Y-79216376D01*
X120314099Y-79146496D01*
X120465928Y-79045048D01*
X120595048Y-78915928D01*
X120696496Y-78764099D01*
X120766376Y-78595396D01*
X120802000Y-78416301D01*
X120802000Y-78233699D01*
X120766376Y-78054604D01*
X120696496Y-77885901D01*
X120595048Y-77734072D01*
X120465928Y-77604952D01*
X120314099Y-77503504D01*
X120145396Y-77433624D01*
X119966301Y-77398000D01*
X119783699Y-77398000D01*
X119604604Y-77433624D01*
X119435901Y-77503504D01*
X119284072Y-77604952D01*
X119154952Y-77734072D01*
X119053504Y-77885901D01*
X118983624Y-78054604D01*
X118948000Y-78233699D01*
X118948000Y-78257568D01*
X118920396Y-78246134D01*
X118741301Y-78210510D01*
X118558699Y-78210510D01*
X118379604Y-78246134D01*
X118210901Y-78316014D01*
X118059072Y-78417462D01*
X117929952Y-78546582D01*
X117828504Y-78698411D01*
X117758624Y-78867114D01*
X117723000Y-79046209D01*
X117723000Y-79228811D01*
X117758624Y-79407906D01*
X117828504Y-79576609D01*
X117883967Y-79659615D01*
X117858341Y-79697967D01*
X117788461Y-79866670D01*
X117752837Y-80045765D01*
X117752837Y-80228367D01*
X117788461Y-80407462D01*
X117855175Y-80568522D01*
X117771223Y-80694167D01*
X117701343Y-80862870D01*
X117665719Y-81041965D01*
X107552000Y-81041965D01*
X107552000Y-80008831D01*
X113897868Y-80008831D01*
X113897868Y-80191433D01*
X113933492Y-80370528D01*
X114003372Y-80539231D01*
X114104820Y-80691060D01*
X114233940Y-80820180D01*
X114385769Y-80921628D01*
X114554472Y-80991508D01*
X114733567Y-81027132D01*
X114916169Y-81027132D01*
X115095264Y-80991508D01*
X115263967Y-80921628D01*
X115415796Y-80820180D01*
X115544916Y-80691060D01*
X115646364Y-80539231D01*
X115716244Y-80370528D01*
X115751868Y-80191433D01*
X115751868Y-80008831D01*
X115716244Y-79829736D01*
X115646364Y-79661033D01*
X115544916Y-79509204D01*
X115415796Y-79380084D01*
X115263967Y-79278636D01*
X115095264Y-79208756D01*
X114916169Y-79173132D01*
X114733567Y-79173132D01*
X114554472Y-79208756D01*
X114385769Y-79278636D01*
X114233940Y-79380084D01*
X114104820Y-79509204D01*
X114003372Y-79661033D01*
X113933492Y-79829736D01*
X113897868Y-80008831D01*
X107552000Y-80008831D01*
X107552000Y-77258699D01*
X108673000Y-77258699D01*
X108673000Y-77441301D01*
X108708624Y-77620396D01*
X108778504Y-77789099D01*
X108879952Y-77940928D01*
X109009072Y-78070048D01*
X109160901Y-78171496D01*
X109329604Y-78241376D01*
X109508699Y-78277000D01*
X109691301Y-78277000D01*
X109870396Y-78241376D01*
X110039099Y-78171496D01*
X110190928Y-78070048D01*
X110320048Y-77940928D01*
X110399221Y-77822437D01*
X110433624Y-77995396D01*
X110503504Y-78164099D01*
X110604952Y-78315928D01*
X110734072Y-78445048D01*
X110885901Y-78546496D01*
X111054604Y-78616376D01*
X111233699Y-78652000D01*
X111416301Y-78652000D01*
X111595396Y-78616376D01*
X111764099Y-78546496D01*
X111915928Y-78445048D01*
X112045048Y-78315928D01*
X112146496Y-78164099D01*
X112216376Y-77995396D01*
X112252000Y-77816301D01*
X112252000Y-77633699D01*
X112216376Y-77454604D01*
X112146496Y-77285901D01*
X112045048Y-77134072D01*
X111915928Y-77004952D01*
X111764099Y-76903504D01*
X111595396Y-76833624D01*
X111416301Y-76798000D01*
X111233699Y-76798000D01*
X111054604Y-76833624D01*
X110885901Y-76903504D01*
X110734072Y-77004952D01*
X110604952Y-77134072D01*
X110525779Y-77252563D01*
X110491376Y-77079604D01*
X110421496Y-76910901D01*
X110320048Y-76759072D01*
X110244675Y-76683699D01*
X112873000Y-76683699D01*
X112873000Y-76866301D01*
X112908624Y-77045396D01*
X112978504Y-77214099D01*
X113079952Y-77365928D01*
X113209072Y-77495048D01*
X113360901Y-77596496D01*
X113529604Y-77666376D01*
X113708699Y-77702000D01*
X113891301Y-77702000D01*
X114070396Y-77666376D01*
X114239099Y-77596496D01*
X114368708Y-77509895D01*
X114460901Y-77571496D01*
X114629604Y-77641376D01*
X114808699Y-77677000D01*
X114991301Y-77677000D01*
X115170396Y-77641376D01*
X115339099Y-77571496D01*
X115490928Y-77470048D01*
X115620048Y-77340928D01*
X115721496Y-77189099D01*
X115791376Y-77020396D01*
X115827000Y-76841301D01*
X115827000Y-76658699D01*
X115791376Y-76479604D01*
X115721496Y-76310901D01*
X115620048Y-76159072D01*
X115490928Y-76029952D01*
X115339099Y-75928504D01*
X115170396Y-75858624D01*
X114991301Y-75823000D01*
X114808699Y-75823000D01*
X114629604Y-75858624D01*
X114460901Y-75928504D01*
X114331292Y-76015105D01*
X114239099Y-75953504D01*
X114070396Y-75883624D01*
X113891301Y-75848000D01*
X113708699Y-75848000D01*
X113529604Y-75883624D01*
X113360901Y-75953504D01*
X113209072Y-76054952D01*
X113079952Y-76184072D01*
X112978504Y-76335901D01*
X112908624Y-76504604D01*
X112873000Y-76683699D01*
X110244675Y-76683699D01*
X110190928Y-76629952D01*
X110039099Y-76528504D01*
X109870396Y-76458624D01*
X109691301Y-76423000D01*
X109508699Y-76423000D01*
X109329604Y-76458624D01*
X109160901Y-76528504D01*
X109009072Y-76629952D01*
X108879952Y-76759072D01*
X108778504Y-76910901D01*
X108708624Y-77079604D01*
X108673000Y-77258699D01*
X107552000Y-77258699D01*
X107552000Y-74298472D01*
X121148000Y-74298472D01*
X121148000Y-74451528D01*
X121177859Y-74601643D01*
X121236431Y-74743048D01*
X121321464Y-74870309D01*
X121376155Y-74925000D01*
X121321464Y-74979691D01*
X121236431Y-75106952D01*
X121177859Y-75248357D01*
X121148000Y-75398472D01*
X121148000Y-75551528D01*
X121177859Y-75701643D01*
X121236431Y-75843048D01*
X121321464Y-75970309D01*
X121376155Y-76025000D01*
X121321464Y-76079691D01*
X121236431Y-76206952D01*
X121177859Y-76348357D01*
X121148000Y-76498472D01*
X121148000Y-76651528D01*
X121177859Y-76801643D01*
X121236431Y-76943048D01*
X121321464Y-77070309D01*
X121429691Y-77178536D01*
X121556952Y-77263569D01*
X121698357Y-77322141D01*
X121848472Y-77352000D01*
X122001528Y-77352000D01*
X122151643Y-77322141D01*
X122293048Y-77263569D01*
X122420309Y-77178536D01*
X122475000Y-77123845D01*
X122529691Y-77178536D01*
X122656952Y-77263569D01*
X122798357Y-77322141D01*
X122948472Y-77352000D01*
X123101528Y-77352000D01*
X123251643Y-77322141D01*
X123393048Y-77263569D01*
X123520309Y-77178536D01*
X123575000Y-77123845D01*
X123629691Y-77178536D01*
X123756952Y-77263569D01*
X123898357Y-77322141D01*
X124048472Y-77352000D01*
X124201528Y-77352000D01*
X124351643Y-77322141D01*
X124493048Y-77263569D01*
X124620309Y-77178536D01*
X124728536Y-77070309D01*
X124813569Y-76943048D01*
X124872141Y-76801643D01*
X124895600Y-76683699D01*
X139248000Y-76683699D01*
X139248000Y-76866301D01*
X139283624Y-77045396D01*
X139353504Y-77214099D01*
X139454952Y-77365928D01*
X139584072Y-77495048D01*
X139735901Y-77596496D01*
X139904604Y-77666376D01*
X140083699Y-77702000D01*
X140266301Y-77702000D01*
X140445396Y-77666376D01*
X140614099Y-77596496D01*
X140765928Y-77495048D01*
X140895048Y-77365928D01*
X140996496Y-77214099D01*
X141066376Y-77045396D01*
X141102000Y-76866301D01*
X141102000Y-76683699D01*
X143573000Y-76683699D01*
X143573000Y-76866301D01*
X143608624Y-77045396D01*
X143678504Y-77214099D01*
X143779952Y-77365928D01*
X143909072Y-77495048D01*
X144060901Y-77596496D01*
X144229604Y-77666376D01*
X144408699Y-77702000D01*
X144591301Y-77702000D01*
X144770396Y-77666376D01*
X144939099Y-77596496D01*
X145090928Y-77495048D01*
X145173000Y-77412976D01*
X145173000Y-77416301D01*
X145208624Y-77595396D01*
X145278504Y-77764099D01*
X145379952Y-77915928D01*
X145509072Y-78045048D01*
X145660901Y-78146496D01*
X145829604Y-78216376D01*
X146008699Y-78252000D01*
X146191301Y-78252000D01*
X146370396Y-78216376D01*
X146539099Y-78146496D01*
X146600000Y-78105804D01*
X146660901Y-78146496D01*
X146829604Y-78216376D01*
X147008699Y-78252000D01*
X147191301Y-78252000D01*
X147370396Y-78216376D01*
X147539099Y-78146496D01*
X147690928Y-78045048D01*
X147820048Y-77915928D01*
X147921496Y-77764099D01*
X147991376Y-77595396D01*
X148027000Y-77416301D01*
X148027000Y-77233699D01*
X147991376Y-77054604D01*
X147921496Y-76885901D01*
X147880804Y-76825000D01*
X147921496Y-76764099D01*
X147991376Y-76595396D01*
X148027000Y-76416301D01*
X148027000Y-76233699D01*
X147991376Y-76054604D01*
X147921496Y-75885901D01*
X147820048Y-75734072D01*
X147690928Y-75604952D01*
X147539099Y-75503504D01*
X147370396Y-75433624D01*
X147191301Y-75398000D01*
X147008699Y-75398000D01*
X146829604Y-75433624D01*
X146660901Y-75503504D01*
X146600000Y-75544196D01*
X146539099Y-75503504D01*
X146370396Y-75433624D01*
X146191301Y-75398000D01*
X146008699Y-75398000D01*
X145829604Y-75433624D01*
X145660901Y-75503504D01*
X145509072Y-75604952D01*
X145379952Y-75734072D01*
X145278504Y-75885901D01*
X145208624Y-76054604D01*
X145189039Y-76153063D01*
X145090928Y-76054952D01*
X144939099Y-75953504D01*
X144770396Y-75883624D01*
X144591301Y-75848000D01*
X144408699Y-75848000D01*
X144229604Y-75883624D01*
X144060901Y-75953504D01*
X143909072Y-76054952D01*
X143779952Y-76184072D01*
X143678504Y-76335901D01*
X143608624Y-76504604D01*
X143573000Y-76683699D01*
X141102000Y-76683699D01*
X141066376Y-76504604D01*
X140996496Y-76335901D01*
X140895048Y-76184072D01*
X140765928Y-76054952D01*
X140614099Y-75953504D01*
X140445396Y-75883624D01*
X140266301Y-75848000D01*
X140083699Y-75848000D01*
X139904604Y-75883624D01*
X139735901Y-75953504D01*
X139584072Y-76054952D01*
X139454952Y-76184072D01*
X139353504Y-76335901D01*
X139283624Y-76504604D01*
X139248000Y-76683699D01*
X124895600Y-76683699D01*
X124902000Y-76651528D01*
X124902000Y-76498472D01*
X124872141Y-76348357D01*
X124813569Y-76206952D01*
X124728536Y-76079691D01*
X124673845Y-76025000D01*
X124728536Y-75970309D01*
X124813569Y-75843048D01*
X124872141Y-75701643D01*
X124902000Y-75551528D01*
X124902000Y-75398472D01*
X124872141Y-75248357D01*
X124813569Y-75106952D01*
X124728536Y-74979691D01*
X124673845Y-74925000D01*
X124728536Y-74870309D01*
X124813569Y-74743048D01*
X124872141Y-74601643D01*
X124902000Y-74451528D01*
X124902000Y-74298472D01*
X124872141Y-74148357D01*
X124813569Y-74006952D01*
X124728536Y-73879691D01*
X124620309Y-73771464D01*
X124493048Y-73686431D01*
X124351643Y-73627859D01*
X124201528Y-73598000D01*
X124048472Y-73598000D01*
X123898357Y-73627859D01*
X123756952Y-73686431D01*
X123629691Y-73771464D01*
X123575000Y-73826155D01*
X123520309Y-73771464D01*
X123393048Y-73686431D01*
X123251643Y-73627859D01*
X123101528Y-73598000D01*
X122948472Y-73598000D01*
X122798357Y-73627859D01*
X122656952Y-73686431D01*
X122529691Y-73771464D01*
X122475000Y-73826155D01*
X122420309Y-73771464D01*
X122293048Y-73686431D01*
X122151643Y-73627859D01*
X122001528Y-73598000D01*
X121848472Y-73598000D01*
X121698357Y-73627859D01*
X121556952Y-73686431D01*
X121429691Y-73771464D01*
X121321464Y-73879691D01*
X121236431Y-74006952D01*
X121177859Y-74148357D01*
X121148000Y-74298472D01*
X107552000Y-74298472D01*
X107552000Y-72033699D01*
X121248000Y-72033699D01*
X121248000Y-72216301D01*
X121283624Y-72395396D01*
X121353504Y-72564099D01*
X121454952Y-72715928D01*
X121584072Y-72845048D01*
X121735901Y-72946496D01*
X121904604Y-73016376D01*
X122083699Y-73052000D01*
X122266301Y-73052000D01*
X122445396Y-73016376D01*
X122614099Y-72946496D01*
X122765928Y-72845048D01*
X122895048Y-72715928D01*
X122916582Y-72683699D01*
X124898000Y-72683699D01*
X124898000Y-72866301D01*
X124933624Y-73045396D01*
X125003504Y-73214099D01*
X125104952Y-73365928D01*
X125234072Y-73495048D01*
X125385901Y-73596496D01*
X125554604Y-73666376D01*
X125733699Y-73702000D01*
X125916301Y-73702000D01*
X126095396Y-73666376D01*
X126264099Y-73596496D01*
X126415928Y-73495048D01*
X126545048Y-73365928D01*
X126646496Y-73214099D01*
X126716376Y-73045396D01*
X126752000Y-72866301D01*
X126752000Y-72683699D01*
X126747028Y-72658699D01*
X127123000Y-72658699D01*
X127123000Y-72841301D01*
X127158624Y-73020396D01*
X127228504Y-73189099D01*
X127329952Y-73340928D01*
X127459072Y-73470048D01*
X127610901Y-73571496D01*
X127779604Y-73641376D01*
X127958699Y-73677000D01*
X128141301Y-73677000D01*
X128320396Y-73641376D01*
X128489099Y-73571496D01*
X128640928Y-73470048D01*
X128770048Y-73340928D01*
X128871496Y-73189099D01*
X128941376Y-73020396D01*
X128977000Y-72841301D01*
X128977000Y-72683699D01*
X129373000Y-72683699D01*
X129373000Y-72866301D01*
X129408624Y-73045396D01*
X129478504Y-73214099D01*
X129579952Y-73365928D01*
X129709072Y-73495048D01*
X129860901Y-73596496D01*
X130029604Y-73666376D01*
X130208699Y-73702000D01*
X130391301Y-73702000D01*
X130570396Y-73666376D01*
X130739099Y-73596496D01*
X130890928Y-73495048D01*
X131020048Y-73365928D01*
X131121496Y-73214099D01*
X131191376Y-73045396D01*
X131227000Y-72866301D01*
X131227000Y-72683699D01*
X131191376Y-72504604D01*
X131121496Y-72335901D01*
X131020048Y-72184072D01*
X130890928Y-72054952D01*
X130739099Y-71953504D01*
X130570396Y-71883624D01*
X130391301Y-71848000D01*
X130208699Y-71848000D01*
X130029604Y-71883624D01*
X129860901Y-71953504D01*
X129709072Y-72054952D01*
X129579952Y-72184072D01*
X129478504Y-72335901D01*
X129408624Y-72504604D01*
X129373000Y-72683699D01*
X128977000Y-72683699D01*
X128977000Y-72658699D01*
X128941376Y-72479604D01*
X128871496Y-72310901D01*
X128770048Y-72159072D01*
X128640928Y-72029952D01*
X128489099Y-71928504D01*
X128320396Y-71858624D01*
X128141301Y-71823000D01*
X127958699Y-71823000D01*
X127779604Y-71858624D01*
X127610901Y-71928504D01*
X127459072Y-72029952D01*
X127329952Y-72159072D01*
X127228504Y-72310901D01*
X127158624Y-72479604D01*
X127123000Y-72658699D01*
X126747028Y-72658699D01*
X126716376Y-72504604D01*
X126646496Y-72335901D01*
X126545048Y-72184072D01*
X126415928Y-72054952D01*
X126264099Y-71953504D01*
X126095396Y-71883624D01*
X125916301Y-71848000D01*
X125733699Y-71848000D01*
X125554604Y-71883624D01*
X125385901Y-71953504D01*
X125234072Y-72054952D01*
X125104952Y-72184072D01*
X125003504Y-72335901D01*
X124933624Y-72504604D01*
X124898000Y-72683699D01*
X122916582Y-72683699D01*
X122996496Y-72564099D01*
X123066376Y-72395396D01*
X123102000Y-72216301D01*
X123102000Y-72033699D01*
X123066376Y-71854604D01*
X122996496Y-71685901D01*
X122895048Y-71534072D01*
X122765928Y-71404952D01*
X122614099Y-71303504D01*
X122445396Y-71233624D01*
X122266301Y-71198000D01*
X122083699Y-71198000D01*
X121904604Y-71233624D01*
X121735901Y-71303504D01*
X121584072Y-71404952D01*
X121454952Y-71534072D01*
X121353504Y-71685901D01*
X121283624Y-71854604D01*
X121248000Y-72033699D01*
X107552000Y-72033699D01*
X107552000Y-69783699D01*
X109898000Y-69783699D01*
X109898000Y-69966301D01*
X109933624Y-70145396D01*
X110003504Y-70314099D01*
X110104952Y-70465928D01*
X110234072Y-70595048D01*
X110385901Y-70696496D01*
X110554604Y-70766376D01*
X110733699Y-70802000D01*
X110916301Y-70802000D01*
X111095396Y-70766376D01*
X111264099Y-70696496D01*
X111375000Y-70622395D01*
X111485901Y-70696496D01*
X111654604Y-70766376D01*
X111833699Y-70802000D01*
X112016301Y-70802000D01*
X112195396Y-70766376D01*
X112364099Y-70696496D01*
X112512500Y-70597338D01*
X112660901Y-70696496D01*
X112829604Y-70766376D01*
X113008699Y-70802000D01*
X113191301Y-70802000D01*
X113370396Y-70766376D01*
X113539099Y-70696496D01*
X113640565Y-70628699D01*
X146203000Y-70628699D01*
X146203000Y-70811301D01*
X146238624Y-70990396D01*
X146308504Y-71159099D01*
X146409952Y-71310928D01*
X146539072Y-71440048D01*
X146690901Y-71541496D01*
X146859604Y-71611376D01*
X147038699Y-71647000D01*
X147221301Y-71647000D01*
X147400396Y-71611376D01*
X147569099Y-71541496D01*
X147720928Y-71440048D01*
X147850048Y-71310928D01*
X147951496Y-71159099D01*
X148021376Y-70990396D01*
X148057000Y-70811301D01*
X148057000Y-70628699D01*
X148021376Y-70449604D01*
X147951496Y-70280901D01*
X147850048Y-70129072D01*
X147720928Y-69999952D01*
X147569099Y-69898504D01*
X147400396Y-69828624D01*
X147221301Y-69793000D01*
X147038699Y-69793000D01*
X146859604Y-69828624D01*
X146690901Y-69898504D01*
X146539072Y-69999952D01*
X146409952Y-70129072D01*
X146308504Y-70280901D01*
X146238624Y-70449604D01*
X146203000Y-70628699D01*
X113640565Y-70628699D01*
X113690928Y-70595048D01*
X113820048Y-70465928D01*
X113921496Y-70314099D01*
X113991376Y-70145396D01*
X114027000Y-69966301D01*
X114027000Y-69783699D01*
X113991376Y-69604604D01*
X113921496Y-69435901D01*
X113820048Y-69284072D01*
X113690928Y-69154952D01*
X113539099Y-69053504D01*
X113370396Y-68983624D01*
X113191301Y-68948000D01*
X113008699Y-68948000D01*
X112829604Y-68983624D01*
X112660901Y-69053504D01*
X112512500Y-69152662D01*
X112364099Y-69053504D01*
X112195396Y-68983624D01*
X112016301Y-68948000D01*
X111833699Y-68948000D01*
X111654604Y-68983624D01*
X111485901Y-69053504D01*
X111375000Y-69127605D01*
X111264099Y-69053504D01*
X111095396Y-68983624D01*
X110916301Y-68948000D01*
X110733699Y-68948000D01*
X110554604Y-68983624D01*
X110385901Y-69053504D01*
X110234072Y-69154952D01*
X110104952Y-69284072D01*
X110003504Y-69435901D01*
X109933624Y-69604604D01*
X109898000Y-69783699D01*
X107552000Y-69783699D01*
X107552000Y-68558699D01*
X115623000Y-68558699D01*
X115623000Y-68741301D01*
X115658624Y-68920396D01*
X115728504Y-69089099D01*
X115769196Y-69150000D01*
X115728504Y-69210901D01*
X115658624Y-69379604D01*
X115623000Y-69558699D01*
X115623000Y-69741301D01*
X115658624Y-69920396D01*
X115728504Y-70089099D01*
X115829952Y-70240928D01*
X115959072Y-70370048D01*
X116110901Y-70471496D01*
X116279604Y-70541376D01*
X116458699Y-70577000D01*
X116641301Y-70577000D01*
X116820396Y-70541376D01*
X116989099Y-70471496D01*
X117062500Y-70422451D01*
X117135901Y-70471496D01*
X117304604Y-70541376D01*
X117483699Y-70577000D01*
X117666301Y-70577000D01*
X117845396Y-70541376D01*
X118014099Y-70471496D01*
X118075000Y-70430804D01*
X118135901Y-70471496D01*
X118304604Y-70541376D01*
X118483699Y-70577000D01*
X118666301Y-70577000D01*
X118845396Y-70541376D01*
X119014099Y-70471496D01*
X119165928Y-70370048D01*
X119295048Y-70240928D01*
X119396496Y-70089099D01*
X119466376Y-69920396D01*
X119502000Y-69741301D01*
X119502000Y-69558699D01*
X119466376Y-69379604D01*
X119396496Y-69210901D01*
X119368304Y-69168708D01*
X119421496Y-69089099D01*
X119491376Y-68920396D01*
X119527000Y-68741301D01*
X119527000Y-68558699D01*
X119491376Y-68379604D01*
X119421496Y-68210901D01*
X119356448Y-68113548D01*
X141213000Y-68113548D01*
X141213000Y-68276452D01*
X141244782Y-68436227D01*
X141307123Y-68586731D01*
X141366103Y-68675000D01*
X141307123Y-68763269D01*
X141244782Y-68913773D01*
X141213000Y-69073548D01*
X141213000Y-69236452D01*
X141244782Y-69396227D01*
X141307123Y-69546731D01*
X141397628Y-69682181D01*
X141512819Y-69797372D01*
X141648269Y-69887877D01*
X141798773Y-69950218D01*
X141958548Y-69982000D01*
X142121452Y-69982000D01*
X142281227Y-69950218D01*
X142431731Y-69887877D01*
X142567181Y-69797372D01*
X142682372Y-69682181D01*
X142772877Y-69546731D01*
X142793471Y-69497012D01*
X142818548Y-69502000D01*
X142981452Y-69502000D01*
X143006529Y-69497012D01*
X143027123Y-69546731D01*
X143117628Y-69682181D01*
X143232819Y-69797372D01*
X143368269Y-69887877D01*
X143518773Y-69950218D01*
X143678548Y-69982000D01*
X143841452Y-69982000D01*
X144001227Y-69950218D01*
X144151731Y-69887877D01*
X144287181Y-69797372D01*
X144402372Y-69682181D01*
X144492877Y-69546731D01*
X144555218Y-69396227D01*
X144587000Y-69236452D01*
X144587000Y-69073548D01*
X144555218Y-68913773D01*
X144492877Y-68763269D01*
X144433897Y-68675000D01*
X144492877Y-68586731D01*
X144555218Y-68436227D01*
X144587000Y-68276452D01*
X144587000Y-68113548D01*
X144555218Y-67953773D01*
X144492877Y-67803269D01*
X144402372Y-67667819D01*
X144287181Y-67552628D01*
X144151731Y-67462123D01*
X144001227Y-67399782D01*
X143841452Y-67368000D01*
X143678548Y-67368000D01*
X143518773Y-67399782D01*
X143368269Y-67462123D01*
X143232819Y-67552628D01*
X143117628Y-67667819D01*
X143027123Y-67803269D01*
X143006529Y-67852988D01*
X142981452Y-67848000D01*
X142818548Y-67848000D01*
X142793471Y-67852988D01*
X142772877Y-67803269D01*
X142682372Y-67667819D01*
X142567181Y-67552628D01*
X142431731Y-67462123D01*
X142281227Y-67399782D01*
X142121452Y-67368000D01*
X141958548Y-67368000D01*
X141798773Y-67399782D01*
X141648269Y-67462123D01*
X141512819Y-67552628D01*
X141397628Y-67667819D01*
X141307123Y-67803269D01*
X141244782Y-67953773D01*
X141213000Y-68113548D01*
X119356448Y-68113548D01*
X119320048Y-68059072D01*
X119190928Y-67929952D01*
X119039099Y-67828504D01*
X118870396Y-67758624D01*
X118691301Y-67723000D01*
X118508699Y-67723000D01*
X118329604Y-67758624D01*
X118160901Y-67828504D01*
X118087500Y-67877549D01*
X118014099Y-67828504D01*
X117845396Y-67758624D01*
X117666301Y-67723000D01*
X117483699Y-67723000D01*
X117304604Y-67758624D01*
X117135901Y-67828504D01*
X117062500Y-67877549D01*
X116989099Y-67828504D01*
X116820396Y-67758624D01*
X116641301Y-67723000D01*
X116458699Y-67723000D01*
X116279604Y-67758624D01*
X116110901Y-67828504D01*
X115959072Y-67929952D01*
X115829952Y-68059072D01*
X115728504Y-68210901D01*
X115658624Y-68379604D01*
X115623000Y-68558699D01*
X107552000Y-68558699D01*
X107552000Y-64383699D01*
X111323000Y-64383699D01*
X111323000Y-64566301D01*
X111358624Y-64745396D01*
X111428504Y-64914099D01*
X111529952Y-65065928D01*
X111659072Y-65195048D01*
X111810901Y-65296496D01*
X111979604Y-65366376D01*
X112158699Y-65402000D01*
X112341301Y-65402000D01*
X112520396Y-65366376D01*
X112689099Y-65296496D01*
X112840928Y-65195048D01*
X112970048Y-65065928D01*
X113071496Y-64914099D01*
X113141376Y-64745396D01*
X113177000Y-64566301D01*
X113177000Y-64383699D01*
X123798000Y-64383699D01*
X123798000Y-64566301D01*
X123833624Y-64745396D01*
X123903504Y-64914099D01*
X124004952Y-65065928D01*
X124134072Y-65195048D01*
X124285901Y-65296496D01*
X124454604Y-65366376D01*
X124633699Y-65402000D01*
X124816301Y-65402000D01*
X124995396Y-65366376D01*
X125164099Y-65296496D01*
X125315928Y-65195048D01*
X125445048Y-65065928D01*
X125546496Y-64914099D01*
X125616376Y-64745396D01*
X125652000Y-64566301D01*
X125652000Y-64383699D01*
X125643049Y-64338699D01*
X128163000Y-64338699D01*
X128163000Y-64521301D01*
X128198624Y-64700396D01*
X128268504Y-64869099D01*
X128369952Y-65020928D01*
X128499072Y-65150048D01*
X128650901Y-65251496D01*
X128819604Y-65321376D01*
X128998699Y-65357000D01*
X129181301Y-65357000D01*
X129360396Y-65321376D01*
X129529099Y-65251496D01*
X129680928Y-65150048D01*
X129810048Y-65020928D01*
X129911496Y-64869099D01*
X129981376Y-64700396D01*
X130004588Y-64583699D01*
X136148000Y-64583699D01*
X136148000Y-64766301D01*
X136183624Y-64945396D01*
X136253504Y-65114099D01*
X136354952Y-65265928D01*
X136484072Y-65395048D01*
X136635901Y-65496496D01*
X136804604Y-65566376D01*
X136983699Y-65602000D01*
X137166301Y-65602000D01*
X137345396Y-65566376D01*
X137514099Y-65496496D01*
X137665928Y-65395048D01*
X137795048Y-65265928D01*
X137896496Y-65114099D01*
X137966376Y-64945396D01*
X138002000Y-64766301D01*
X138002000Y-64583699D01*
X138001006Y-64578699D01*
X140583000Y-64578699D01*
X140583000Y-64761301D01*
X140618624Y-64940396D01*
X140688504Y-65109099D01*
X140789952Y-65260928D01*
X140919072Y-65390048D01*
X141070901Y-65491496D01*
X141239604Y-65561376D01*
X141418699Y-65597000D01*
X141598907Y-65597000D01*
X141533624Y-65754604D01*
X141498000Y-65933699D01*
X141498000Y-66116301D01*
X141533624Y-66295396D01*
X141603504Y-66464099D01*
X141704952Y-66615928D01*
X141834072Y-66745048D01*
X141985901Y-66846496D01*
X142154604Y-66916376D01*
X142333699Y-66952000D01*
X142516301Y-66952000D01*
X142695396Y-66916376D01*
X142864099Y-66846496D01*
X142987500Y-66764043D01*
X143110901Y-66846496D01*
X143279604Y-66916376D01*
X143458699Y-66952000D01*
X143641301Y-66952000D01*
X143820396Y-66916376D01*
X143989099Y-66846496D01*
X144140928Y-66745048D01*
X144270048Y-66615928D01*
X144371496Y-66464099D01*
X144441376Y-66295396D01*
X144443702Y-66283699D01*
X145073000Y-66283699D01*
X145073000Y-66466301D01*
X145108624Y-66645396D01*
X145178504Y-66814099D01*
X145219196Y-66875000D01*
X145178504Y-66935901D01*
X145108624Y-67104604D01*
X145073000Y-67283699D01*
X145073000Y-67466301D01*
X145108624Y-67645396D01*
X145178504Y-67814099D01*
X145279952Y-67965928D01*
X145409072Y-68095048D01*
X145560901Y-68196496D01*
X145729604Y-68266376D01*
X145908699Y-68302000D01*
X146091301Y-68302000D01*
X146270396Y-68266376D01*
X146439099Y-68196496D01*
X146500000Y-68155804D01*
X146560901Y-68196496D01*
X146729604Y-68266376D01*
X146908699Y-68302000D01*
X147091301Y-68302000D01*
X147270396Y-68266376D01*
X147439099Y-68196496D01*
X147590928Y-68095048D01*
X147720048Y-67965928D01*
X147821496Y-67814099D01*
X147891376Y-67645396D01*
X147927000Y-67466301D01*
X147927000Y-67283699D01*
X147891376Y-67104604D01*
X147821496Y-66935901D01*
X147780804Y-66875000D01*
X147821496Y-66814099D01*
X147891376Y-66645396D01*
X147927000Y-66466301D01*
X147927000Y-66283699D01*
X147891376Y-66104604D01*
X147821496Y-65935901D01*
X147720048Y-65784072D01*
X147590928Y-65654952D01*
X147439099Y-65553504D01*
X147270396Y-65483624D01*
X147091301Y-65448000D01*
X146908699Y-65448000D01*
X146729604Y-65483624D01*
X146560901Y-65553504D01*
X146500000Y-65594196D01*
X146439099Y-65553504D01*
X146270396Y-65483624D01*
X146091301Y-65448000D01*
X145908699Y-65448000D01*
X145729604Y-65483624D01*
X145560901Y-65553504D01*
X145409072Y-65654952D01*
X145279952Y-65784072D01*
X145178504Y-65935901D01*
X145108624Y-66104604D01*
X145073000Y-66283699D01*
X144443702Y-66283699D01*
X144477000Y-66116301D01*
X144477000Y-65933699D01*
X144441376Y-65754604D01*
X144371496Y-65585901D01*
X144270048Y-65434072D01*
X144140928Y-65304952D01*
X143989099Y-65203504D01*
X143820396Y-65133624D01*
X143641301Y-65098000D01*
X143458699Y-65098000D01*
X143279604Y-65133624D01*
X143110901Y-65203504D01*
X142987500Y-65285957D01*
X142864099Y-65203504D01*
X142695396Y-65133624D01*
X142516301Y-65098000D01*
X142336093Y-65098000D01*
X142401376Y-64940396D01*
X142437000Y-64761301D01*
X142437000Y-64578699D01*
X142401376Y-64399604D01*
X142331496Y-64230901D01*
X142230048Y-64079072D01*
X142100928Y-63949952D01*
X141949099Y-63848504D01*
X141780396Y-63778624D01*
X141601301Y-63743000D01*
X141418699Y-63743000D01*
X141239604Y-63778624D01*
X141070901Y-63848504D01*
X140919072Y-63949952D01*
X140789952Y-64079072D01*
X140688504Y-64230901D01*
X140618624Y-64399604D01*
X140583000Y-64578699D01*
X138001006Y-64578699D01*
X137966376Y-64404604D01*
X137896496Y-64235901D01*
X137795048Y-64084072D01*
X137665928Y-63954952D01*
X137514099Y-63853504D01*
X137345396Y-63783624D01*
X137166301Y-63748000D01*
X136983699Y-63748000D01*
X136804604Y-63783624D01*
X136635901Y-63853504D01*
X136484072Y-63954952D01*
X136354952Y-64084072D01*
X136253504Y-64235901D01*
X136183624Y-64404604D01*
X136148000Y-64583699D01*
X130004588Y-64583699D01*
X130017000Y-64521301D01*
X130017000Y-64338699D01*
X129981376Y-64159604D01*
X129911496Y-63990901D01*
X129810048Y-63839072D01*
X129680928Y-63709952D01*
X129529099Y-63608504D01*
X129360396Y-63538624D01*
X129181301Y-63503000D01*
X128998699Y-63503000D01*
X128819604Y-63538624D01*
X128650901Y-63608504D01*
X128499072Y-63709952D01*
X128369952Y-63839072D01*
X128268504Y-63990901D01*
X128198624Y-64159604D01*
X128163000Y-64338699D01*
X125643049Y-64338699D01*
X125616376Y-64204604D01*
X125546496Y-64035901D01*
X125445048Y-63884072D01*
X125315928Y-63754952D01*
X125164099Y-63653504D01*
X124995396Y-63583624D01*
X124816301Y-63548000D01*
X124633699Y-63548000D01*
X124454604Y-63583624D01*
X124285901Y-63653504D01*
X124134072Y-63754952D01*
X124004952Y-63884072D01*
X123903504Y-64035901D01*
X123833624Y-64204604D01*
X123798000Y-64383699D01*
X113177000Y-64383699D01*
X113141376Y-64204604D01*
X113071496Y-64035901D01*
X112970048Y-63884072D01*
X112840928Y-63754952D01*
X112689099Y-63653504D01*
X112520396Y-63583624D01*
X112341301Y-63548000D01*
X112158699Y-63548000D01*
X111979604Y-63583624D01*
X111810901Y-63653504D01*
X111659072Y-63754952D01*
X111529952Y-63884072D01*
X111428504Y-64035901D01*
X111358624Y-64204604D01*
X111323000Y-64383699D01*
X107552000Y-64383699D01*
X107552000Y-59808699D01*
X108773000Y-59808699D01*
X108773000Y-59991301D01*
X108808624Y-60170396D01*
X108878504Y-60339099D01*
X108979952Y-60490928D01*
X109109072Y-60620048D01*
X109260901Y-60721496D01*
X109429604Y-60791376D01*
X109608699Y-60827000D01*
X109791301Y-60827000D01*
X109970396Y-60791376D01*
X109989477Y-60783472D01*
X117283000Y-60783472D01*
X117283000Y-60936528D01*
X117312859Y-61086643D01*
X117371431Y-61228048D01*
X117456464Y-61355309D01*
X117551155Y-61450000D01*
X117456464Y-61544691D01*
X117371431Y-61671952D01*
X117312859Y-61813357D01*
X117283000Y-61963472D01*
X117283000Y-62116528D01*
X117312859Y-62266643D01*
X117371431Y-62408048D01*
X117456464Y-62535309D01*
X117564691Y-62643536D01*
X117691952Y-62728569D01*
X117833357Y-62787141D01*
X117983472Y-62817000D01*
X118136528Y-62817000D01*
X118286643Y-62787141D01*
X118428048Y-62728569D01*
X118555309Y-62643536D01*
X118650000Y-62548845D01*
X118744691Y-62643536D01*
X118871952Y-62728569D01*
X119013357Y-62787141D01*
X119163472Y-62817000D01*
X119316528Y-62817000D01*
X119466643Y-62787141D01*
X119608048Y-62728569D01*
X119735309Y-62643536D01*
X119843536Y-62535309D01*
X119928569Y-62408048D01*
X119987141Y-62266643D01*
X120017000Y-62116528D01*
X120017000Y-61963472D01*
X119987141Y-61813357D01*
X119928569Y-61671952D01*
X119843536Y-61544691D01*
X119748845Y-61450000D01*
X119843536Y-61355309D01*
X119928569Y-61228048D01*
X119987141Y-61086643D01*
X120017000Y-60936528D01*
X120017000Y-60808472D01*
X129833000Y-60808472D01*
X129833000Y-60961528D01*
X129862859Y-61111643D01*
X129921431Y-61253048D01*
X130006464Y-61380309D01*
X130101155Y-61475000D01*
X130006464Y-61569691D01*
X129921431Y-61696952D01*
X129862859Y-61838357D01*
X129833000Y-61988472D01*
X129833000Y-62141528D01*
X129862859Y-62291643D01*
X129921431Y-62433048D01*
X130006464Y-62560309D01*
X130114691Y-62668536D01*
X130241952Y-62753569D01*
X130383357Y-62812141D01*
X130533472Y-62842000D01*
X130686528Y-62842000D01*
X130836643Y-62812141D01*
X130978048Y-62753569D01*
X131105309Y-62668536D01*
X131200000Y-62573845D01*
X131294691Y-62668536D01*
X131421952Y-62753569D01*
X131563357Y-62812141D01*
X131713472Y-62842000D01*
X131866528Y-62842000D01*
X132016643Y-62812141D01*
X132158048Y-62753569D01*
X132285309Y-62668536D01*
X132393536Y-62560309D01*
X132478569Y-62433048D01*
X132537141Y-62291643D01*
X132567000Y-62141528D01*
X132567000Y-61988472D01*
X132537141Y-61838357D01*
X132478569Y-61696952D01*
X132393536Y-61569691D01*
X132298845Y-61475000D01*
X132393536Y-61380309D01*
X132478569Y-61253048D01*
X132537141Y-61111643D01*
X132567000Y-60961528D01*
X132567000Y-60858472D01*
X142283000Y-60858472D01*
X142283000Y-61011528D01*
X142312859Y-61161643D01*
X142371431Y-61303048D01*
X142456464Y-61430309D01*
X142551155Y-61525000D01*
X142456464Y-61619691D01*
X142371431Y-61746952D01*
X142312859Y-61888357D01*
X142283000Y-62038472D01*
X142283000Y-62191528D01*
X142312859Y-62341643D01*
X142371431Y-62483048D01*
X142456464Y-62610309D01*
X142564691Y-62718536D01*
X142691952Y-62803569D01*
X142833357Y-62862141D01*
X142983472Y-62892000D01*
X143136528Y-62892000D01*
X143286643Y-62862141D01*
X143428048Y-62803569D01*
X143555309Y-62718536D01*
X143650000Y-62623845D01*
X143744691Y-62718536D01*
X143871952Y-62803569D01*
X144013357Y-62862141D01*
X144163472Y-62892000D01*
X144316528Y-62892000D01*
X144466643Y-62862141D01*
X144608048Y-62803569D01*
X144735309Y-62718536D01*
X144843536Y-62610309D01*
X144928569Y-62483048D01*
X144987141Y-62341643D01*
X145017000Y-62191528D01*
X145017000Y-62038472D01*
X144987141Y-61888357D01*
X144928569Y-61746952D01*
X144843536Y-61619691D01*
X144748845Y-61525000D01*
X144843536Y-61430309D01*
X144928569Y-61303048D01*
X144987141Y-61161643D01*
X145017000Y-61011528D01*
X145017000Y-60858472D01*
X144987141Y-60708357D01*
X144928569Y-60566952D01*
X144843536Y-60439691D01*
X144735309Y-60331464D01*
X144608048Y-60246431D01*
X144466643Y-60187859D01*
X144316528Y-60158000D01*
X144163472Y-60158000D01*
X144013357Y-60187859D01*
X143871952Y-60246431D01*
X143744691Y-60331464D01*
X143650000Y-60426155D01*
X143555309Y-60331464D01*
X143428048Y-60246431D01*
X143286643Y-60187859D01*
X143136528Y-60158000D01*
X142983472Y-60158000D01*
X142833357Y-60187859D01*
X142691952Y-60246431D01*
X142564691Y-60331464D01*
X142456464Y-60439691D01*
X142371431Y-60566952D01*
X142312859Y-60708357D01*
X142283000Y-60858472D01*
X132567000Y-60858472D01*
X132567000Y-60808472D01*
X132537141Y-60658357D01*
X132478569Y-60516952D01*
X132393536Y-60389691D01*
X132285309Y-60281464D01*
X132158048Y-60196431D01*
X132016643Y-60137859D01*
X131866528Y-60108000D01*
X131713472Y-60108000D01*
X131563357Y-60137859D01*
X131421952Y-60196431D01*
X131294691Y-60281464D01*
X131200000Y-60376155D01*
X131105309Y-60281464D01*
X130978048Y-60196431D01*
X130836643Y-60137859D01*
X130686528Y-60108000D01*
X130533472Y-60108000D01*
X130383357Y-60137859D01*
X130241952Y-60196431D01*
X130114691Y-60281464D01*
X130006464Y-60389691D01*
X129921431Y-60516952D01*
X129862859Y-60658357D01*
X129833000Y-60808472D01*
X120017000Y-60808472D01*
X120017000Y-60783472D01*
X119987141Y-60633357D01*
X119928569Y-60491952D01*
X119843536Y-60364691D01*
X119735309Y-60256464D01*
X119608048Y-60171431D01*
X119466643Y-60112859D01*
X119316528Y-60083000D01*
X119163472Y-60083000D01*
X119013357Y-60112859D01*
X118871952Y-60171431D01*
X118744691Y-60256464D01*
X118650000Y-60351155D01*
X118555309Y-60256464D01*
X118428048Y-60171431D01*
X118286643Y-60112859D01*
X118136528Y-60083000D01*
X117983472Y-60083000D01*
X117833357Y-60112859D01*
X117691952Y-60171431D01*
X117564691Y-60256464D01*
X117456464Y-60364691D01*
X117371431Y-60491952D01*
X117312859Y-60633357D01*
X117283000Y-60783472D01*
X109989477Y-60783472D01*
X110139099Y-60721496D01*
X110290928Y-60620048D01*
X110420048Y-60490928D01*
X110521496Y-60339099D01*
X110591376Y-60170396D01*
X110627000Y-59991301D01*
X110627000Y-59808699D01*
X110591376Y-59629604D01*
X110521496Y-59460901D01*
X110420048Y-59309072D01*
X110344675Y-59233699D01*
X119498000Y-59233699D01*
X119498000Y-59416301D01*
X119533624Y-59595396D01*
X119603504Y-59764099D01*
X119704952Y-59915928D01*
X119834072Y-60045048D01*
X119985901Y-60146496D01*
X120154604Y-60216376D01*
X120333699Y-60252000D01*
X120516301Y-60252000D01*
X120695396Y-60216376D01*
X120864099Y-60146496D01*
X121015928Y-60045048D01*
X121145048Y-59915928D01*
X121246496Y-59764099D01*
X121316376Y-59595396D01*
X121352000Y-59416301D01*
X121352000Y-59233699D01*
X121316376Y-59054604D01*
X121246496Y-58885901D01*
X121172048Y-58774480D01*
X121200000Y-58755804D01*
X121260901Y-58796496D01*
X121429604Y-58866376D01*
X121608699Y-58902000D01*
X121791301Y-58902000D01*
X121970396Y-58866376D01*
X122139099Y-58796496D01*
X122290928Y-58695048D01*
X122420048Y-58565928D01*
X122521496Y-58414099D01*
X122591376Y-58245396D01*
X122627000Y-58066301D01*
X122627000Y-57883699D01*
X122591376Y-57704604D01*
X122521496Y-57535901D01*
X122480804Y-57475000D01*
X122521496Y-57414099D01*
X122591376Y-57245396D01*
X122627000Y-57066301D01*
X122627000Y-56883699D01*
X122591376Y-56704604D01*
X122521496Y-56535901D01*
X122520025Y-56533699D01*
X124848000Y-56533699D01*
X124848000Y-56716301D01*
X124883624Y-56895396D01*
X124953504Y-57064099D01*
X125054952Y-57215928D01*
X125184072Y-57345048D01*
X125335901Y-57446496D01*
X125504604Y-57516376D01*
X125683699Y-57552000D01*
X125866301Y-57552000D01*
X126045396Y-57516376D01*
X126214099Y-57446496D01*
X126365928Y-57345048D01*
X126495048Y-57215928D01*
X126566695Y-57108699D01*
X132073000Y-57108699D01*
X132073000Y-57291301D01*
X132108624Y-57470396D01*
X132178504Y-57639099D01*
X132219196Y-57700000D01*
X132178504Y-57760901D01*
X132108624Y-57929604D01*
X132073000Y-58108699D01*
X132073000Y-58291301D01*
X132108624Y-58470396D01*
X132178504Y-58639099D01*
X132279952Y-58790928D01*
X132297165Y-58808141D01*
X132228504Y-58910901D01*
X132158624Y-59079604D01*
X132123000Y-59258699D01*
X132123000Y-59441301D01*
X132158624Y-59620396D01*
X132228504Y-59789099D01*
X132329952Y-59940928D01*
X132459072Y-60070048D01*
X132610901Y-60171496D01*
X132779604Y-60241376D01*
X132958699Y-60277000D01*
X133141301Y-60277000D01*
X133320396Y-60241376D01*
X133489099Y-60171496D01*
X133640928Y-60070048D01*
X133770048Y-59940928D01*
X133871496Y-59789099D01*
X133941376Y-59620396D01*
X133977000Y-59441301D01*
X133977000Y-59258699D01*
X133962082Y-59183699D01*
X144598000Y-59183699D01*
X144598000Y-59366301D01*
X144633624Y-59545396D01*
X144703504Y-59714099D01*
X144804952Y-59865928D01*
X144934072Y-59995048D01*
X145085901Y-60096496D01*
X145254604Y-60166376D01*
X145433699Y-60202000D01*
X145616301Y-60202000D01*
X145795396Y-60166376D01*
X145964099Y-60096496D01*
X146115928Y-59995048D01*
X146245048Y-59865928D01*
X146346496Y-59714099D01*
X146416376Y-59545396D01*
X146452000Y-59366301D01*
X146452000Y-59183699D01*
X146416376Y-59004604D01*
X146346496Y-58835901D01*
X146245048Y-58684072D01*
X146115928Y-58554952D01*
X145964099Y-58453504D01*
X145795396Y-58383624D01*
X145616301Y-58348000D01*
X145433699Y-58348000D01*
X145254604Y-58383624D01*
X145085901Y-58453504D01*
X144934072Y-58554952D01*
X144804952Y-58684072D01*
X144703504Y-58835901D01*
X144633624Y-59004604D01*
X144598000Y-59183699D01*
X133962082Y-59183699D01*
X133950804Y-59127000D01*
X134091301Y-59127000D01*
X134270396Y-59091376D01*
X134439099Y-59021496D01*
X134590928Y-58920048D01*
X134720048Y-58790928D01*
X134821496Y-58639099D01*
X134891376Y-58470396D01*
X134927000Y-58291301D01*
X134927000Y-58108699D01*
X134891376Y-57929604D01*
X134821496Y-57760901D01*
X134780804Y-57700000D01*
X134821496Y-57639099D01*
X134891376Y-57470396D01*
X134927000Y-57291301D01*
X134927000Y-57108699D01*
X134891376Y-56929604D01*
X134821496Y-56760901D01*
X134720048Y-56609072D01*
X134644675Y-56533699D01*
X137273000Y-56533699D01*
X137273000Y-56716301D01*
X137308624Y-56895396D01*
X137378504Y-57064099D01*
X137479952Y-57215928D01*
X137609072Y-57345048D01*
X137760901Y-57446496D01*
X137929604Y-57516376D01*
X138108699Y-57552000D01*
X138291301Y-57552000D01*
X138470396Y-57516376D01*
X138639099Y-57446496D01*
X138790928Y-57345048D01*
X138920048Y-57215928D01*
X139021496Y-57064099D01*
X139091376Y-56895396D01*
X139127000Y-56716301D01*
X139127000Y-56533699D01*
X139091376Y-56354604D01*
X139054159Y-56264755D01*
X146723000Y-56264755D01*
X146723000Y-56585245D01*
X146785525Y-56899578D01*
X146908172Y-57195673D01*
X147086227Y-57462152D01*
X147312848Y-57688773D01*
X147579327Y-57866828D01*
X147875422Y-57989475D01*
X148189755Y-58052000D01*
X148510245Y-58052000D01*
X148824578Y-57989475D01*
X149120673Y-57866828D01*
X149387152Y-57688773D01*
X149613773Y-57462152D01*
X149791828Y-57195673D01*
X149914475Y-56899578D01*
X149977000Y-56585245D01*
X149977000Y-56264755D01*
X149914475Y-55950422D01*
X149791828Y-55654327D01*
X149613773Y-55387848D01*
X149387152Y-55161227D01*
X149120673Y-54983172D01*
X148824578Y-54860525D01*
X148510245Y-54798000D01*
X148189755Y-54798000D01*
X147875422Y-54860525D01*
X147579327Y-54983172D01*
X147312848Y-55161227D01*
X147086227Y-55387848D01*
X146908172Y-55654327D01*
X146785525Y-55950422D01*
X146723000Y-56264755D01*
X139054159Y-56264755D01*
X139021496Y-56185901D01*
X138920048Y-56034072D01*
X138790928Y-55904952D01*
X138639099Y-55803504D01*
X138470396Y-55733624D01*
X138291301Y-55698000D01*
X138108699Y-55698000D01*
X137929604Y-55733624D01*
X137760901Y-55803504D01*
X137609072Y-55904952D01*
X137479952Y-56034072D01*
X137378504Y-56185901D01*
X137308624Y-56354604D01*
X137273000Y-56533699D01*
X134644675Y-56533699D01*
X134590928Y-56479952D01*
X134439099Y-56378504D01*
X134270396Y-56308624D01*
X134091301Y-56273000D01*
X133908699Y-56273000D01*
X133729604Y-56308624D01*
X133560901Y-56378504D01*
X133500000Y-56419196D01*
X133439099Y-56378504D01*
X133270396Y-56308624D01*
X133091301Y-56273000D01*
X132908699Y-56273000D01*
X132729604Y-56308624D01*
X132560901Y-56378504D01*
X132409072Y-56479952D01*
X132279952Y-56609072D01*
X132178504Y-56760901D01*
X132108624Y-56929604D01*
X132073000Y-57108699D01*
X126566695Y-57108699D01*
X126596496Y-57064099D01*
X126666376Y-56895396D01*
X126702000Y-56716301D01*
X126702000Y-56533699D01*
X126666376Y-56354604D01*
X126596496Y-56185901D01*
X126495048Y-56034072D01*
X126365928Y-55904952D01*
X126214099Y-55803504D01*
X126045396Y-55733624D01*
X125866301Y-55698000D01*
X125683699Y-55698000D01*
X125504604Y-55733624D01*
X125335901Y-55803504D01*
X125184072Y-55904952D01*
X125054952Y-56034072D01*
X124953504Y-56185901D01*
X124883624Y-56354604D01*
X124848000Y-56533699D01*
X122520025Y-56533699D01*
X122420048Y-56384072D01*
X122290928Y-56254952D01*
X122139099Y-56153504D01*
X121970396Y-56083624D01*
X121791301Y-56048000D01*
X121608699Y-56048000D01*
X121429604Y-56083624D01*
X121260901Y-56153504D01*
X121200000Y-56194196D01*
X121139099Y-56153504D01*
X120970396Y-56083624D01*
X120791301Y-56048000D01*
X120608699Y-56048000D01*
X120429604Y-56083624D01*
X120260901Y-56153504D01*
X120109072Y-56254952D01*
X119979952Y-56384072D01*
X119878504Y-56535901D01*
X119808624Y-56704604D01*
X119773000Y-56883699D01*
X119773000Y-57066301D01*
X119808624Y-57245396D01*
X119878504Y-57414099D01*
X119919196Y-57475000D01*
X119878504Y-57535901D01*
X119808624Y-57704604D01*
X119773000Y-57883699D01*
X119773000Y-58066301D01*
X119808624Y-58245396D01*
X119878504Y-58414099D01*
X119952952Y-58525520D01*
X119834072Y-58604952D01*
X119704952Y-58734072D01*
X119603504Y-58885901D01*
X119533624Y-59054604D01*
X119498000Y-59233699D01*
X110344675Y-59233699D01*
X110290928Y-59179952D01*
X110139099Y-59078504D01*
X109970396Y-59008624D01*
X109791301Y-58973000D01*
X109608699Y-58973000D01*
X109429604Y-59008624D01*
X109260901Y-59078504D01*
X109109072Y-59179952D01*
X108979952Y-59309072D01*
X108878504Y-59460901D01*
X108808624Y-59629604D01*
X108773000Y-59808699D01*
X107552000Y-59808699D01*
X107552000Y-56264755D01*
X107573000Y-56264755D01*
X107573000Y-56585245D01*
X107635525Y-56899578D01*
X107758172Y-57195673D01*
X107936227Y-57462152D01*
X108162848Y-57688773D01*
X108429327Y-57866828D01*
X108725422Y-57989475D01*
X109039755Y-58052000D01*
X109360245Y-58052000D01*
X109674578Y-57989475D01*
X109970673Y-57866828D01*
X110237152Y-57688773D01*
X110463773Y-57462152D01*
X110641828Y-57195673D01*
X110764475Y-56899578D01*
X110827000Y-56585245D01*
X110827000Y-56583699D01*
X112548000Y-56583699D01*
X112548000Y-56766301D01*
X112583624Y-56945396D01*
X112653504Y-57114099D01*
X112754952Y-57265928D01*
X112884072Y-57395048D01*
X113035901Y-57496496D01*
X113204604Y-57566376D01*
X113383699Y-57602000D01*
X113566301Y-57602000D01*
X113745396Y-57566376D01*
X113914099Y-57496496D01*
X114065928Y-57395048D01*
X114195048Y-57265928D01*
X114296496Y-57114099D01*
X114366376Y-56945396D01*
X114402000Y-56766301D01*
X114402000Y-56583699D01*
X114366376Y-56404604D01*
X114296496Y-56235901D01*
X114195048Y-56084072D01*
X114065928Y-55954952D01*
X113914099Y-55853504D01*
X113745396Y-55783624D01*
X113566301Y-55748000D01*
X113383699Y-55748000D01*
X113204604Y-55783624D01*
X113035901Y-55853504D01*
X112884072Y-55954952D01*
X112754952Y-56084072D01*
X112653504Y-56235901D01*
X112583624Y-56404604D01*
X112548000Y-56583699D01*
X110827000Y-56583699D01*
X110827000Y-56264755D01*
X110764475Y-55950422D01*
X110641828Y-55654327D01*
X110463773Y-55387848D01*
X110237152Y-55161227D01*
X109970673Y-54983172D01*
X109674578Y-54860525D01*
X109360245Y-54798000D01*
X109039755Y-54798000D01*
X108725422Y-54860525D01*
X108429327Y-54983172D01*
X108162848Y-55161227D01*
X107936227Y-55387848D01*
X107758172Y-55654327D01*
X107635525Y-55950422D01*
X107573000Y-56264755D01*
X107552000Y-56264755D01*
X107552000Y-54752000D01*
X150028000Y-54752000D01*
X150028001Y-86548000D01*
M02*
