G04 #@! TF.GenerationSoftware,KiCad,Pcbnew,(5.1.4)-1*
G04 #@! TF.CreationDate,2020-09-18T11:06:02-04:00*
G04 #@! TF.ProjectId,RVL-PMS HW2,52564c2d-504d-4532-9048-57322e6b6963,rev?*
G04 #@! TF.SameCoordinates,Original*
G04 #@! TF.FileFunction,Copper,L3,Inr*
G04 #@! TF.FilePolarity,Positive*
%FSLAX46Y46*%
G04 Gerber Fmt 4.6, Leading zero omitted, Abs format (unit mm)*
G04 Created by KiCad (PCBNEW (5.1.4)-1) date 2020-09-18 11:06:02*
%MOMM*%
%LPD*%
G04 APERTURE LIST*
%ADD10R,1.000000X1.000000*%
%ADD11O,1.000000X1.000000*%
%ADD12C,0.500000*%
%ADD13C,0.600000*%
%ADD14C,0.800000*%
%ADD15C,0.250000*%
%ADD16C,0.254000*%
G04 APERTURE END LIST*
D10*
X117325000Y-85575000D03*
D11*
X118595000Y-85575000D03*
X119865000Y-85575000D03*
X121135000Y-85575000D03*
X122405000Y-85575000D03*
D12*
X119240000Y-62040000D03*
X118060000Y-62040000D03*
X119240000Y-60860000D03*
X118060000Y-60860000D03*
X130610000Y-60885000D03*
X131790000Y-60885000D03*
X130610000Y-62065000D03*
X131790000Y-62065000D03*
X144240000Y-62115000D03*
X143060000Y-62115000D03*
X144240000Y-60935000D03*
X143060000Y-60935000D03*
X138840000Y-80590000D03*
X137660000Y-80590000D03*
X138840000Y-79410000D03*
X137660000Y-79410000D03*
D13*
X142040000Y-69155000D03*
X143760000Y-69155000D03*
X142040000Y-68195000D03*
X143760000Y-68195000D03*
X142900000Y-68675000D03*
D12*
X121925000Y-74375000D03*
X123025000Y-74375000D03*
X124125000Y-74375000D03*
X121925000Y-75475000D03*
X123025000Y-75475000D03*
X124125000Y-75475000D03*
X121925000Y-76575000D03*
X123025000Y-76575000D03*
X124125000Y-76575000D03*
D14*
X109700000Y-59900000D03*
X121700000Y-57975000D03*
X120700000Y-56975000D03*
X120700000Y-57975000D03*
X121700000Y-56975000D03*
X134000000Y-58200000D03*
X133000000Y-57200000D03*
X133000000Y-58200000D03*
X134000000Y-57200000D03*
X147000000Y-67375000D03*
X146000000Y-66375000D03*
X146000000Y-67375000D03*
X147000000Y-66375000D03*
X147100000Y-77325000D03*
X146100000Y-76325000D03*
X146100000Y-77325000D03*
X147100000Y-76325000D03*
X130025000Y-79950000D03*
X132050000Y-80950000D03*
X131050000Y-80950000D03*
X131050000Y-79950000D03*
X130025000Y-80950000D03*
X132075000Y-79950000D03*
X111825000Y-82875000D03*
X122150000Y-82775000D03*
X114824868Y-80100132D03*
X111325000Y-77725000D03*
X118575000Y-69650000D03*
X117575000Y-69650000D03*
X116550000Y-69650000D03*
X118600000Y-68650000D03*
X117575000Y-68650000D03*
X116550000Y-68650000D03*
X130300000Y-72775000D03*
X128050000Y-72750000D03*
X125825000Y-72775000D03*
X140175000Y-76775000D03*
X129090000Y-64430000D03*
X141510000Y-64670000D03*
X134100000Y-63375000D03*
X135100000Y-63375000D03*
X146525000Y-62400000D03*
X146525000Y-63400000D03*
X147525000Y-63400000D03*
X135350000Y-79150000D03*
X135350000Y-78150000D03*
X134350000Y-78150000D03*
X134350000Y-79150000D03*
X133600000Y-70025000D03*
X134600000Y-70025000D03*
X133600000Y-69025000D03*
X135600000Y-70025000D03*
X133600000Y-71050000D03*
X134600000Y-71050000D03*
X135600000Y-71050000D03*
X110175000Y-80650000D03*
X111450000Y-84600000D03*
X117500000Y-75800000D03*
X120975000Y-81000000D03*
X121550000Y-62300000D03*
X122550000Y-62300000D03*
X122550000Y-63300000D03*
X121550000Y-63300000D03*
X134600000Y-69025000D03*
X135600000Y-69025000D03*
X140750000Y-62050000D03*
X128325000Y-62025000D03*
X115675000Y-61950000D03*
X141150000Y-79500000D03*
X134100000Y-62375000D03*
X135100000Y-62375000D03*
X147525000Y-62400000D03*
X108010000Y-69100000D03*
X112250000Y-64475000D03*
X113475000Y-56675000D03*
X124725000Y-64475000D03*
X125775000Y-56625000D03*
X137075000Y-64675000D03*
X138200000Y-56625000D03*
X143550000Y-66025000D03*
X147130000Y-70720000D03*
X125475000Y-82050000D03*
X122175000Y-72125000D03*
X113800000Y-76775000D03*
X114900000Y-76750000D03*
X118592719Y-81133266D03*
X110825000Y-69875000D03*
X118679837Y-80137066D03*
X111925000Y-69875000D03*
X118650000Y-79137510D03*
X113100000Y-69875000D03*
X116912500Y-82825000D03*
X120425000Y-59325000D03*
X133050000Y-59350000D03*
X145525000Y-59275000D03*
X136275000Y-82150000D03*
X142425000Y-66025000D03*
X109600000Y-77350000D03*
X119875000Y-78325000D03*
X143950000Y-84900000D03*
X144500000Y-76775000D03*
D15*
X114276998Y-78325000D02*
X113771998Y-78830000D01*
X119875000Y-78325000D02*
X114276998Y-78325000D01*
X113771998Y-78830000D02*
X110450000Y-78830000D01*
X109600000Y-77980000D02*
X109600000Y-77350000D01*
X110450000Y-78830000D02*
X109600000Y-77980000D01*
D16*
G36*
X150128001Y-86648000D02*
G01*
X107452000Y-86648000D01*
X107452000Y-84724604D01*
X107698000Y-84724604D01*
X107698000Y-85025396D01*
X107756681Y-85320410D01*
X107871790Y-85598306D01*
X108038901Y-85848406D01*
X108251594Y-86061099D01*
X108501694Y-86228210D01*
X108779590Y-86343319D01*
X109074604Y-86402000D01*
X109375396Y-86402000D01*
X109670410Y-86343319D01*
X109948306Y-86228210D01*
X110198406Y-86061099D01*
X110411099Y-85848406D01*
X110578210Y-85598306D01*
X110693319Y-85320410D01*
X110749159Y-85039677D01*
X110807628Y-85127181D01*
X110922819Y-85242372D01*
X111058269Y-85332877D01*
X111208773Y-85395218D01*
X111368548Y-85427000D01*
X111531452Y-85427000D01*
X111691227Y-85395218D01*
X111841731Y-85332877D01*
X111977181Y-85242372D01*
X112092372Y-85127181D01*
X112127238Y-85075000D01*
X116395934Y-85075000D01*
X116395934Y-86075000D01*
X116404178Y-86158707D01*
X116428595Y-86239196D01*
X116468245Y-86313376D01*
X116521605Y-86378395D01*
X116586624Y-86431755D01*
X116660804Y-86471405D01*
X116741293Y-86495822D01*
X116825000Y-86504066D01*
X117825000Y-86504066D01*
X117908707Y-86495822D01*
X117989196Y-86471405D01*
X118063376Y-86431755D01*
X118128395Y-86378395D01*
X118129357Y-86377222D01*
X118238536Y-86435580D01*
X118413276Y-86488587D01*
X118549462Y-86502000D01*
X118640538Y-86502000D01*
X118776724Y-86488587D01*
X118951464Y-86435580D01*
X119112505Y-86349501D01*
X119253659Y-86233659D01*
X119369501Y-86092505D01*
X119455580Y-85931464D01*
X119508587Y-85756724D01*
X119526485Y-85575000D01*
X120203515Y-85575000D01*
X120221413Y-85756724D01*
X120274420Y-85931464D01*
X120360499Y-86092505D01*
X120476341Y-86233659D01*
X120617495Y-86349501D01*
X120778536Y-86435580D01*
X120953276Y-86488587D01*
X121089462Y-86502000D01*
X121180538Y-86502000D01*
X121316724Y-86488587D01*
X121491464Y-86435580D01*
X121652505Y-86349501D01*
X121770000Y-86253075D01*
X121887495Y-86349501D01*
X122048536Y-86435580D01*
X122223276Y-86488587D01*
X122359462Y-86502000D01*
X122450538Y-86502000D01*
X122586724Y-86488587D01*
X122761464Y-86435580D01*
X122922505Y-86349501D01*
X123063659Y-86233659D01*
X123179501Y-86092505D01*
X123265580Y-85931464D01*
X123318587Y-85756724D01*
X123336485Y-85575000D01*
X123318587Y-85393276D01*
X123265580Y-85218536D01*
X123179501Y-85057495D01*
X123063659Y-84916341D01*
X122944498Y-84818548D01*
X143123000Y-84818548D01*
X143123000Y-84981452D01*
X143154782Y-85141227D01*
X143217123Y-85291731D01*
X143307628Y-85427181D01*
X143422819Y-85542372D01*
X143558269Y-85632877D01*
X143708773Y-85695218D01*
X143868548Y-85727000D01*
X144031452Y-85727000D01*
X144191227Y-85695218D01*
X144341731Y-85632877D01*
X144477181Y-85542372D01*
X144592372Y-85427181D01*
X144682877Y-85291731D01*
X144745218Y-85141227D01*
X144777000Y-84981452D01*
X144777000Y-84818548D01*
X144758313Y-84724604D01*
X146823000Y-84724604D01*
X146823000Y-85025396D01*
X146881681Y-85320410D01*
X146996790Y-85598306D01*
X147163901Y-85848406D01*
X147376594Y-86061099D01*
X147626694Y-86228210D01*
X147904590Y-86343319D01*
X148199604Y-86402000D01*
X148500396Y-86402000D01*
X148795410Y-86343319D01*
X149073306Y-86228210D01*
X149323406Y-86061099D01*
X149536099Y-85848406D01*
X149703210Y-85598306D01*
X149818319Y-85320410D01*
X149877000Y-85025396D01*
X149877000Y-84724604D01*
X149818319Y-84429590D01*
X149703210Y-84151694D01*
X149536099Y-83901594D01*
X149323406Y-83688901D01*
X149073306Y-83521790D01*
X148795410Y-83406681D01*
X148500396Y-83348000D01*
X148199604Y-83348000D01*
X147904590Y-83406681D01*
X147626694Y-83521790D01*
X147376594Y-83688901D01*
X147163901Y-83901594D01*
X146996790Y-84151694D01*
X146881681Y-84429590D01*
X146823000Y-84724604D01*
X144758313Y-84724604D01*
X144745218Y-84658773D01*
X144682877Y-84508269D01*
X144592372Y-84372819D01*
X144477181Y-84257628D01*
X144341731Y-84167123D01*
X144191227Y-84104782D01*
X144031452Y-84073000D01*
X143868548Y-84073000D01*
X143708773Y-84104782D01*
X143558269Y-84167123D01*
X143422819Y-84257628D01*
X143307628Y-84372819D01*
X143217123Y-84508269D01*
X143154782Y-84658773D01*
X143123000Y-84818548D01*
X122944498Y-84818548D01*
X122922505Y-84800499D01*
X122761464Y-84714420D01*
X122586724Y-84661413D01*
X122450538Y-84648000D01*
X122359462Y-84648000D01*
X122223276Y-84661413D01*
X122048536Y-84714420D01*
X121887495Y-84800499D01*
X121770000Y-84896925D01*
X121652505Y-84800499D01*
X121491464Y-84714420D01*
X121316724Y-84661413D01*
X121180538Y-84648000D01*
X121089462Y-84648000D01*
X120953276Y-84661413D01*
X120778536Y-84714420D01*
X120617495Y-84800499D01*
X120476341Y-84916341D01*
X120360499Y-85057495D01*
X120274420Y-85218536D01*
X120221413Y-85393276D01*
X120203515Y-85575000D01*
X119526485Y-85575000D01*
X119508587Y-85393276D01*
X119455580Y-85218536D01*
X119369501Y-85057495D01*
X119253659Y-84916341D01*
X119112505Y-84800499D01*
X118951464Y-84714420D01*
X118776724Y-84661413D01*
X118640538Y-84648000D01*
X118549462Y-84648000D01*
X118413276Y-84661413D01*
X118238536Y-84714420D01*
X118129357Y-84772778D01*
X118128395Y-84771605D01*
X118063376Y-84718245D01*
X117989196Y-84678595D01*
X117908707Y-84654178D01*
X117825000Y-84645934D01*
X116825000Y-84645934D01*
X116741293Y-84654178D01*
X116660804Y-84678595D01*
X116586624Y-84718245D01*
X116521605Y-84771605D01*
X116468245Y-84836624D01*
X116428595Y-84910804D01*
X116404178Y-84991293D01*
X116395934Y-85075000D01*
X112127238Y-85075000D01*
X112182877Y-84991731D01*
X112245218Y-84841227D01*
X112277000Y-84681452D01*
X112277000Y-84518548D01*
X112245218Y-84358773D01*
X112182877Y-84208269D01*
X112092372Y-84072819D01*
X111977181Y-83957628D01*
X111841731Y-83867123D01*
X111691227Y-83804782D01*
X111531452Y-83773000D01*
X111368548Y-83773000D01*
X111208773Y-83804782D01*
X111058269Y-83867123D01*
X110922819Y-83957628D01*
X110807628Y-84072819D01*
X110717123Y-84208269D01*
X110659384Y-84347663D01*
X110578210Y-84151694D01*
X110411099Y-83901594D01*
X110198406Y-83688901D01*
X109948306Y-83521790D01*
X109670410Y-83406681D01*
X109375396Y-83348000D01*
X109074604Y-83348000D01*
X108779590Y-83406681D01*
X108501694Y-83521790D01*
X108251594Y-83688901D01*
X108038901Y-83901594D01*
X107871790Y-84151694D01*
X107756681Y-84429590D01*
X107698000Y-84724604D01*
X107452000Y-84724604D01*
X107452000Y-82743548D01*
X116085500Y-82743548D01*
X116085500Y-82906452D01*
X116117282Y-83066227D01*
X116179623Y-83216731D01*
X116270128Y-83352181D01*
X116385319Y-83467372D01*
X116520769Y-83557877D01*
X116671273Y-83620218D01*
X116831048Y-83652000D01*
X116993952Y-83652000D01*
X117153727Y-83620218D01*
X117304231Y-83557877D01*
X117439681Y-83467372D01*
X117554872Y-83352181D01*
X117645377Y-83216731D01*
X117707718Y-83066227D01*
X117739500Y-82906452D01*
X117739500Y-82743548D01*
X117707718Y-82583773D01*
X117645377Y-82433269D01*
X117554872Y-82297819D01*
X117439681Y-82182628D01*
X117304231Y-82092123D01*
X117153727Y-82029782D01*
X116993952Y-81998000D01*
X116831048Y-81998000D01*
X116671273Y-82029782D01*
X116520769Y-82092123D01*
X116385319Y-82182628D01*
X116270128Y-82297819D01*
X116179623Y-82433269D01*
X116117282Y-82583773D01*
X116085500Y-82743548D01*
X107452000Y-82743548D01*
X107452000Y-81968548D01*
X124648000Y-81968548D01*
X124648000Y-82131452D01*
X124679782Y-82291227D01*
X124742123Y-82441731D01*
X124832628Y-82577181D01*
X124947819Y-82692372D01*
X125083269Y-82782877D01*
X125233773Y-82845218D01*
X125393548Y-82877000D01*
X125556452Y-82877000D01*
X125716227Y-82845218D01*
X125866731Y-82782877D01*
X126002181Y-82692372D01*
X126117372Y-82577181D01*
X126207877Y-82441731D01*
X126270218Y-82291227D01*
X126302000Y-82131452D01*
X126302000Y-82068548D01*
X135448000Y-82068548D01*
X135448000Y-82231452D01*
X135479782Y-82391227D01*
X135542123Y-82541731D01*
X135632628Y-82677181D01*
X135747819Y-82792372D01*
X135883269Y-82882877D01*
X136033773Y-82945218D01*
X136193548Y-82977000D01*
X136356452Y-82977000D01*
X136516227Y-82945218D01*
X136666731Y-82882877D01*
X136802181Y-82792372D01*
X136917372Y-82677181D01*
X137007877Y-82541731D01*
X137070218Y-82391227D01*
X137102000Y-82231452D01*
X137102000Y-82068548D01*
X137070218Y-81908773D01*
X137007877Y-81758269D01*
X136917372Y-81622819D01*
X136802181Y-81507628D01*
X136666731Y-81417123D01*
X136516227Y-81354782D01*
X136356452Y-81323000D01*
X136193548Y-81323000D01*
X136033773Y-81354782D01*
X135883269Y-81417123D01*
X135747819Y-81507628D01*
X135632628Y-81622819D01*
X135542123Y-81758269D01*
X135479782Y-81908773D01*
X135448000Y-82068548D01*
X126302000Y-82068548D01*
X126302000Y-81968548D01*
X126270218Y-81808773D01*
X126207877Y-81658269D01*
X126117372Y-81522819D01*
X126002181Y-81407628D01*
X125866731Y-81317123D01*
X125716227Y-81254782D01*
X125556452Y-81223000D01*
X125393548Y-81223000D01*
X125233773Y-81254782D01*
X125083269Y-81317123D01*
X124947819Y-81407628D01*
X124832628Y-81522819D01*
X124742123Y-81658269D01*
X124679782Y-81808773D01*
X124648000Y-81968548D01*
X107452000Y-81968548D01*
X107452000Y-80568548D01*
X109348000Y-80568548D01*
X109348000Y-80731452D01*
X109379782Y-80891227D01*
X109442123Y-81041731D01*
X109532628Y-81177181D01*
X109647819Y-81292372D01*
X109783269Y-81382877D01*
X109933773Y-81445218D01*
X110093548Y-81477000D01*
X110256452Y-81477000D01*
X110416227Y-81445218D01*
X110566731Y-81382877D01*
X110702181Y-81292372D01*
X110817372Y-81177181D01*
X110907877Y-81041731D01*
X110970218Y-80891227D01*
X111002000Y-80731452D01*
X111002000Y-80568548D01*
X110970218Y-80408773D01*
X110907877Y-80258269D01*
X110817372Y-80122819D01*
X110702181Y-80007628D01*
X110566731Y-79917123D01*
X110416227Y-79854782D01*
X110256452Y-79823000D01*
X110093548Y-79823000D01*
X109933773Y-79854782D01*
X109783269Y-79917123D01*
X109647819Y-80007628D01*
X109532628Y-80122819D01*
X109442123Y-80258269D01*
X109379782Y-80408773D01*
X109348000Y-80568548D01*
X107452000Y-80568548D01*
X107452000Y-77268548D01*
X108773000Y-77268548D01*
X108773000Y-77431452D01*
X108804782Y-77591227D01*
X108867123Y-77741731D01*
X108957628Y-77877181D01*
X109046686Y-77966239D01*
X109045330Y-77980000D01*
X109048000Y-78007106D01*
X109048000Y-78007108D01*
X109055988Y-78088210D01*
X109087552Y-78192262D01*
X109138809Y-78288158D01*
X109207789Y-78372211D01*
X109228856Y-78389500D01*
X110040508Y-79201154D01*
X110057789Y-79222211D01*
X110078845Y-79239491D01*
X110078846Y-79239492D01*
X110141842Y-79291191D01*
X110237737Y-79342448D01*
X110341789Y-79374012D01*
X110450000Y-79384670D01*
X110477109Y-79382000D01*
X113744892Y-79382000D01*
X113771998Y-79384670D01*
X113799104Y-79382000D01*
X113799107Y-79382000D01*
X113880209Y-79374012D01*
X113984261Y-79342448D01*
X114080156Y-79291191D01*
X114164209Y-79222211D01*
X114181498Y-79201144D01*
X114505643Y-78877000D01*
X117862769Y-78877000D01*
X117854782Y-78896283D01*
X117823000Y-79056058D01*
X117823000Y-79218962D01*
X117854782Y-79378737D01*
X117917123Y-79529241D01*
X118004236Y-79659615D01*
X117946960Y-79745335D01*
X117884619Y-79895839D01*
X117852837Y-80055614D01*
X117852837Y-80218518D01*
X117884619Y-80378293D01*
X117946960Y-80528797D01*
X117979274Y-80577158D01*
X117950347Y-80606085D01*
X117859842Y-80741535D01*
X117797501Y-80892039D01*
X117765719Y-81051814D01*
X117765719Y-81214718D01*
X117797501Y-81374493D01*
X117859842Y-81524997D01*
X117950347Y-81660447D01*
X118065538Y-81775638D01*
X118200988Y-81866143D01*
X118351492Y-81928484D01*
X118511267Y-81960266D01*
X118674171Y-81960266D01*
X118833946Y-81928484D01*
X118984450Y-81866143D01*
X119119900Y-81775638D01*
X119235091Y-81660447D01*
X119325596Y-81524997D01*
X119387937Y-81374493D01*
X119419719Y-81214718D01*
X119419719Y-81051814D01*
X119393211Y-80918548D01*
X120148000Y-80918548D01*
X120148000Y-81081452D01*
X120179782Y-81241227D01*
X120242123Y-81391731D01*
X120332628Y-81527181D01*
X120447819Y-81642372D01*
X120583269Y-81732877D01*
X120733773Y-81795218D01*
X120893548Y-81827000D01*
X121056452Y-81827000D01*
X121216227Y-81795218D01*
X121366731Y-81732877D01*
X121502181Y-81642372D01*
X121617372Y-81527181D01*
X121707877Y-81391731D01*
X121770218Y-81241227D01*
X121802000Y-81081452D01*
X121802000Y-80918548D01*
X121770218Y-80758773D01*
X121707877Y-80608269D01*
X121617372Y-80472819D01*
X121502181Y-80357628D01*
X121366731Y-80267123D01*
X121216227Y-80204782D01*
X121056452Y-80173000D01*
X120893548Y-80173000D01*
X120733773Y-80204782D01*
X120583269Y-80267123D01*
X120447819Y-80357628D01*
X120332628Y-80472819D01*
X120242123Y-80608269D01*
X120179782Y-80758773D01*
X120148000Y-80918548D01*
X119393211Y-80918548D01*
X119387937Y-80892039D01*
X119325596Y-80741535D01*
X119293282Y-80693174D01*
X119322209Y-80664247D01*
X119412714Y-80528797D01*
X119475055Y-80378293D01*
X119506837Y-80218518D01*
X119506837Y-80055614D01*
X119475055Y-79895839D01*
X119412714Y-79745335D01*
X119325601Y-79614961D01*
X119382877Y-79529241D01*
X119445218Y-79378737D01*
X119477000Y-79218962D01*
X119477000Y-79056058D01*
X119476456Y-79053325D01*
X119483269Y-79057877D01*
X119633773Y-79120218D01*
X119793548Y-79152000D01*
X119956452Y-79152000D01*
X120116227Y-79120218D01*
X120266731Y-79057877D01*
X120402181Y-78967372D01*
X120517372Y-78852181D01*
X120607877Y-78716731D01*
X120670218Y-78566227D01*
X120702000Y-78406452D01*
X120702000Y-78243548D01*
X120670218Y-78083773D01*
X120663912Y-78068548D01*
X133523000Y-78068548D01*
X133523000Y-78231452D01*
X133554782Y-78391227D01*
X133617123Y-78541731D01*
X133689466Y-78650000D01*
X133617123Y-78758269D01*
X133554782Y-78908773D01*
X133523000Y-79068548D01*
X133523000Y-79231452D01*
X133554782Y-79391227D01*
X133617123Y-79541731D01*
X133707628Y-79677181D01*
X133822819Y-79792372D01*
X133958269Y-79882877D01*
X134108773Y-79945218D01*
X134268548Y-79977000D01*
X134431452Y-79977000D01*
X134591227Y-79945218D01*
X134741731Y-79882877D01*
X134850000Y-79810534D01*
X134958269Y-79882877D01*
X135108773Y-79945218D01*
X135268548Y-79977000D01*
X135431452Y-79977000D01*
X135591227Y-79945218D01*
X135741731Y-79882877D01*
X135877181Y-79792372D01*
X135992372Y-79677181D01*
X136082877Y-79541731D01*
X136133901Y-79418548D01*
X140323000Y-79418548D01*
X140323000Y-79581452D01*
X140354782Y-79741227D01*
X140417123Y-79891731D01*
X140507628Y-80027181D01*
X140622819Y-80142372D01*
X140758269Y-80232877D01*
X140908773Y-80295218D01*
X141068548Y-80327000D01*
X141231452Y-80327000D01*
X141391227Y-80295218D01*
X141541731Y-80232877D01*
X141677181Y-80142372D01*
X141792372Y-80027181D01*
X141882877Y-79891731D01*
X141945218Y-79741227D01*
X141977000Y-79581452D01*
X141977000Y-79418548D01*
X141945218Y-79258773D01*
X141882877Y-79108269D01*
X141792372Y-78972819D01*
X141677181Y-78857628D01*
X141541731Y-78767123D01*
X141391227Y-78704782D01*
X141231452Y-78673000D01*
X141068548Y-78673000D01*
X140908773Y-78704782D01*
X140758269Y-78767123D01*
X140622819Y-78857628D01*
X140507628Y-78972819D01*
X140417123Y-79108269D01*
X140354782Y-79258773D01*
X140323000Y-79418548D01*
X136133901Y-79418548D01*
X136145218Y-79391227D01*
X136177000Y-79231452D01*
X136177000Y-79068548D01*
X136145218Y-78908773D01*
X136082877Y-78758269D01*
X136010534Y-78650000D01*
X136082877Y-78541731D01*
X136145218Y-78391227D01*
X136177000Y-78231452D01*
X136177000Y-78068548D01*
X136145218Y-77908773D01*
X136082877Y-77758269D01*
X135992372Y-77622819D01*
X135877181Y-77507628D01*
X135741731Y-77417123D01*
X135591227Y-77354782D01*
X135431452Y-77323000D01*
X135268548Y-77323000D01*
X135108773Y-77354782D01*
X134958269Y-77417123D01*
X134850000Y-77489466D01*
X134741731Y-77417123D01*
X134591227Y-77354782D01*
X134431452Y-77323000D01*
X134268548Y-77323000D01*
X134108773Y-77354782D01*
X133958269Y-77417123D01*
X133822819Y-77507628D01*
X133707628Y-77622819D01*
X133617123Y-77758269D01*
X133554782Y-77908773D01*
X133523000Y-78068548D01*
X120663912Y-78068548D01*
X120607877Y-77933269D01*
X120517372Y-77797819D01*
X120402181Y-77682628D01*
X120266731Y-77592123D01*
X120116227Y-77529782D01*
X119956452Y-77498000D01*
X119793548Y-77498000D01*
X119633773Y-77529782D01*
X119483269Y-77592123D01*
X119347819Y-77682628D01*
X119257447Y-77773000D01*
X114304106Y-77773000D01*
X114276998Y-77770330D01*
X114249889Y-77773000D01*
X114168787Y-77780988D01*
X114064735Y-77812552D01*
X113968840Y-77863809D01*
X113884787Y-77932789D01*
X113867506Y-77953846D01*
X113543353Y-78278000D01*
X110678646Y-78278000D01*
X110256573Y-77855928D01*
X110332877Y-77741731D01*
X110395218Y-77591227D01*
X110427000Y-77431452D01*
X110427000Y-77268548D01*
X110395218Y-77108773D01*
X110332877Y-76958269D01*
X110242372Y-76822819D01*
X110127181Y-76707628D01*
X110106109Y-76693548D01*
X112973000Y-76693548D01*
X112973000Y-76856452D01*
X113004782Y-77016227D01*
X113067123Y-77166731D01*
X113157628Y-77302181D01*
X113272819Y-77417372D01*
X113408269Y-77507877D01*
X113558773Y-77570218D01*
X113718548Y-77602000D01*
X113881452Y-77602000D01*
X114041227Y-77570218D01*
X114191731Y-77507877D01*
X114327181Y-77417372D01*
X114362500Y-77382053D01*
X114372819Y-77392372D01*
X114508269Y-77482877D01*
X114658773Y-77545218D01*
X114818548Y-77577000D01*
X114981452Y-77577000D01*
X115141227Y-77545218D01*
X115291731Y-77482877D01*
X115427181Y-77392372D01*
X115542372Y-77277181D01*
X115632877Y-77141731D01*
X115695218Y-76991227D01*
X115727000Y-76831452D01*
X115727000Y-76693548D01*
X143673000Y-76693548D01*
X143673000Y-76856452D01*
X143704782Y-77016227D01*
X143767123Y-77166731D01*
X143857628Y-77302181D01*
X143972819Y-77417372D01*
X144108269Y-77507877D01*
X144258773Y-77570218D01*
X144418548Y-77602000D01*
X144581452Y-77602000D01*
X144741227Y-77570218D01*
X144891731Y-77507877D01*
X145027181Y-77417372D01*
X145142372Y-77302181D01*
X145232877Y-77166731D01*
X145295218Y-77016227D01*
X145327000Y-76856452D01*
X145327000Y-76693548D01*
X145295218Y-76533773D01*
X145232877Y-76383269D01*
X145142372Y-76247819D01*
X145027181Y-76132628D01*
X144891731Y-76042123D01*
X144741227Y-75979782D01*
X144581452Y-75948000D01*
X144418548Y-75948000D01*
X144258773Y-75979782D01*
X144108269Y-76042123D01*
X143972819Y-76132628D01*
X143857628Y-76247819D01*
X143767123Y-76383269D01*
X143704782Y-76533773D01*
X143673000Y-76693548D01*
X115727000Y-76693548D01*
X115727000Y-76668548D01*
X115695218Y-76508773D01*
X115632877Y-76358269D01*
X115542372Y-76222819D01*
X115427181Y-76107628D01*
X115291731Y-76017123D01*
X115141227Y-75954782D01*
X114981452Y-75923000D01*
X114818548Y-75923000D01*
X114658773Y-75954782D01*
X114508269Y-76017123D01*
X114372819Y-76107628D01*
X114337500Y-76142947D01*
X114327181Y-76132628D01*
X114191731Y-76042123D01*
X114041227Y-75979782D01*
X113881452Y-75948000D01*
X113718548Y-75948000D01*
X113558773Y-75979782D01*
X113408269Y-76042123D01*
X113272819Y-76132628D01*
X113157628Y-76247819D01*
X113067123Y-76383269D01*
X113004782Y-76533773D01*
X112973000Y-76693548D01*
X110106109Y-76693548D01*
X109991731Y-76617123D01*
X109841227Y-76554782D01*
X109681452Y-76523000D01*
X109518548Y-76523000D01*
X109358773Y-76554782D01*
X109208269Y-76617123D01*
X109072819Y-76707628D01*
X108957628Y-76822819D01*
X108867123Y-76958269D01*
X108804782Y-77108773D01*
X108773000Y-77268548D01*
X107452000Y-77268548D01*
X107452000Y-75718548D01*
X116673000Y-75718548D01*
X116673000Y-75881452D01*
X116704782Y-76041227D01*
X116767123Y-76191731D01*
X116857628Y-76327181D01*
X116972819Y-76442372D01*
X117108269Y-76532877D01*
X117258773Y-76595218D01*
X117418548Y-76627000D01*
X117581452Y-76627000D01*
X117741227Y-76595218D01*
X117891731Y-76532877D01*
X118027181Y-76442372D01*
X118142372Y-76327181D01*
X118232877Y-76191731D01*
X118295218Y-76041227D01*
X118327000Y-75881452D01*
X118327000Y-75718548D01*
X118295218Y-75558773D01*
X118232877Y-75408269D01*
X118142372Y-75272819D01*
X118027181Y-75157628D01*
X117891731Y-75067123D01*
X117741227Y-75004782D01*
X117581452Y-74973000D01*
X117418548Y-74973000D01*
X117258773Y-75004782D01*
X117108269Y-75067123D01*
X116972819Y-75157628D01*
X116857628Y-75272819D01*
X116767123Y-75408269D01*
X116704782Y-75558773D01*
X116673000Y-75718548D01*
X107452000Y-75718548D01*
X107452000Y-72043548D01*
X121348000Y-72043548D01*
X121348000Y-72206452D01*
X121379782Y-72366227D01*
X121442123Y-72516731D01*
X121532628Y-72652181D01*
X121647819Y-72767372D01*
X121783269Y-72857877D01*
X121933773Y-72920218D01*
X122093548Y-72952000D01*
X122256452Y-72952000D01*
X122416227Y-72920218D01*
X122566731Y-72857877D01*
X122702181Y-72767372D01*
X122817372Y-72652181D01*
X122907877Y-72516731D01*
X122970218Y-72366227D01*
X123002000Y-72206452D01*
X123002000Y-72043548D01*
X122970218Y-71883773D01*
X122907877Y-71733269D01*
X122817372Y-71597819D01*
X122702181Y-71482628D01*
X122566731Y-71392123D01*
X122416227Y-71329782D01*
X122256452Y-71298000D01*
X122093548Y-71298000D01*
X121933773Y-71329782D01*
X121783269Y-71392123D01*
X121647819Y-71482628D01*
X121532628Y-71597819D01*
X121442123Y-71733269D01*
X121379782Y-71883773D01*
X121348000Y-72043548D01*
X107452000Y-72043548D01*
X107452000Y-69711553D01*
X107482819Y-69742372D01*
X107618269Y-69832877D01*
X107768773Y-69895218D01*
X107928548Y-69927000D01*
X108091452Y-69927000D01*
X108251227Y-69895218D01*
X108401731Y-69832877D01*
X108460590Y-69793548D01*
X109998000Y-69793548D01*
X109998000Y-69956452D01*
X110029782Y-70116227D01*
X110092123Y-70266731D01*
X110182628Y-70402181D01*
X110297819Y-70517372D01*
X110433269Y-70607877D01*
X110583773Y-70670218D01*
X110743548Y-70702000D01*
X110906452Y-70702000D01*
X111066227Y-70670218D01*
X111216731Y-70607877D01*
X111352181Y-70517372D01*
X111375000Y-70494553D01*
X111397819Y-70517372D01*
X111533269Y-70607877D01*
X111683773Y-70670218D01*
X111843548Y-70702000D01*
X112006452Y-70702000D01*
X112166227Y-70670218D01*
X112316731Y-70607877D01*
X112452181Y-70517372D01*
X112512500Y-70457053D01*
X112572819Y-70517372D01*
X112708269Y-70607877D01*
X112858773Y-70670218D01*
X113018548Y-70702000D01*
X113181452Y-70702000D01*
X113341227Y-70670218D01*
X113491731Y-70607877D01*
X113627181Y-70517372D01*
X113742372Y-70402181D01*
X113832877Y-70266731D01*
X113895218Y-70116227D01*
X113927000Y-69956452D01*
X113927000Y-69793548D01*
X113895218Y-69633773D01*
X113832877Y-69483269D01*
X113742372Y-69347819D01*
X113627181Y-69232628D01*
X113491731Y-69142123D01*
X113341227Y-69079782D01*
X113181452Y-69048000D01*
X113018548Y-69048000D01*
X112858773Y-69079782D01*
X112708269Y-69142123D01*
X112572819Y-69232628D01*
X112512500Y-69292947D01*
X112452181Y-69232628D01*
X112316731Y-69142123D01*
X112166227Y-69079782D01*
X112006452Y-69048000D01*
X111843548Y-69048000D01*
X111683773Y-69079782D01*
X111533269Y-69142123D01*
X111397819Y-69232628D01*
X111375000Y-69255447D01*
X111352181Y-69232628D01*
X111216731Y-69142123D01*
X111066227Y-69079782D01*
X110906452Y-69048000D01*
X110743548Y-69048000D01*
X110583773Y-69079782D01*
X110433269Y-69142123D01*
X110297819Y-69232628D01*
X110182628Y-69347819D01*
X110092123Y-69483269D01*
X110029782Y-69633773D01*
X109998000Y-69793548D01*
X108460590Y-69793548D01*
X108537181Y-69742372D01*
X108652372Y-69627181D01*
X108742877Y-69491731D01*
X108805218Y-69341227D01*
X108837000Y-69181452D01*
X108837000Y-69018548D01*
X108822082Y-68943548D01*
X132773000Y-68943548D01*
X132773000Y-69106452D01*
X132804782Y-69266227D01*
X132867123Y-69416731D01*
X132939466Y-69525000D01*
X132867123Y-69633269D01*
X132804782Y-69783773D01*
X132773000Y-69943548D01*
X132773000Y-70106452D01*
X132804782Y-70266227D01*
X132867123Y-70416731D01*
X132947818Y-70537500D01*
X132867123Y-70658269D01*
X132804782Y-70808773D01*
X132773000Y-70968548D01*
X132773000Y-71131452D01*
X132804782Y-71291227D01*
X132867123Y-71441731D01*
X132957628Y-71577181D01*
X133072819Y-71692372D01*
X133208269Y-71782877D01*
X133358773Y-71845218D01*
X133518548Y-71877000D01*
X133681452Y-71877000D01*
X133841227Y-71845218D01*
X133991731Y-71782877D01*
X134100000Y-71710534D01*
X134208269Y-71782877D01*
X134358773Y-71845218D01*
X134518548Y-71877000D01*
X134681452Y-71877000D01*
X134841227Y-71845218D01*
X134991731Y-71782877D01*
X135100000Y-71710534D01*
X135208269Y-71782877D01*
X135358773Y-71845218D01*
X135518548Y-71877000D01*
X135681452Y-71877000D01*
X135841227Y-71845218D01*
X135991731Y-71782877D01*
X136127181Y-71692372D01*
X136242372Y-71577181D01*
X136332877Y-71441731D01*
X136395218Y-71291227D01*
X136427000Y-71131452D01*
X136427000Y-70968548D01*
X136395218Y-70808773D01*
X136332877Y-70658269D01*
X136319700Y-70638548D01*
X146303000Y-70638548D01*
X146303000Y-70801452D01*
X146334782Y-70961227D01*
X146397123Y-71111731D01*
X146487628Y-71247181D01*
X146602819Y-71362372D01*
X146738269Y-71452877D01*
X146888773Y-71515218D01*
X147048548Y-71547000D01*
X147211452Y-71547000D01*
X147371227Y-71515218D01*
X147521731Y-71452877D01*
X147657181Y-71362372D01*
X147772372Y-71247181D01*
X147862877Y-71111731D01*
X147925218Y-70961227D01*
X147957000Y-70801452D01*
X147957000Y-70638548D01*
X147925218Y-70478773D01*
X147862877Y-70328269D01*
X147772372Y-70192819D01*
X147657181Y-70077628D01*
X147521731Y-69987123D01*
X147371227Y-69924782D01*
X147211452Y-69893000D01*
X147048548Y-69893000D01*
X146888773Y-69924782D01*
X146738269Y-69987123D01*
X146602819Y-70077628D01*
X146487628Y-70192819D01*
X146397123Y-70328269D01*
X146334782Y-70478773D01*
X146303000Y-70638548D01*
X136319700Y-70638548D01*
X136252182Y-70537500D01*
X136332877Y-70416731D01*
X136395218Y-70266227D01*
X136427000Y-70106452D01*
X136427000Y-69943548D01*
X136395218Y-69783773D01*
X136332877Y-69633269D01*
X136260534Y-69525000D01*
X136332877Y-69416731D01*
X136395218Y-69266227D01*
X136427000Y-69106452D01*
X136427000Y-68943548D01*
X136395218Y-68783773D01*
X136332877Y-68633269D01*
X136242372Y-68497819D01*
X136127181Y-68382628D01*
X135991731Y-68292123D01*
X135841227Y-68229782D01*
X135681452Y-68198000D01*
X135518548Y-68198000D01*
X135358773Y-68229782D01*
X135208269Y-68292123D01*
X135100000Y-68364466D01*
X134991731Y-68292123D01*
X134841227Y-68229782D01*
X134681452Y-68198000D01*
X134518548Y-68198000D01*
X134358773Y-68229782D01*
X134208269Y-68292123D01*
X134100000Y-68364466D01*
X133991731Y-68292123D01*
X133841227Y-68229782D01*
X133681452Y-68198000D01*
X133518548Y-68198000D01*
X133358773Y-68229782D01*
X133208269Y-68292123D01*
X133072819Y-68382628D01*
X132957628Y-68497819D01*
X132867123Y-68633269D01*
X132804782Y-68783773D01*
X132773000Y-68943548D01*
X108822082Y-68943548D01*
X108805218Y-68858773D01*
X108742877Y-68708269D01*
X108652372Y-68572819D01*
X108537181Y-68457628D01*
X108401731Y-68367123D01*
X108251227Y-68304782D01*
X108091452Y-68273000D01*
X107928548Y-68273000D01*
X107768773Y-68304782D01*
X107618269Y-68367123D01*
X107482819Y-68457628D01*
X107452000Y-68488447D01*
X107452000Y-65943548D01*
X141598000Y-65943548D01*
X141598000Y-66106452D01*
X141629782Y-66266227D01*
X141692123Y-66416731D01*
X141782628Y-66552181D01*
X141897819Y-66667372D01*
X142033269Y-66757877D01*
X142183773Y-66820218D01*
X142343548Y-66852000D01*
X142506452Y-66852000D01*
X142666227Y-66820218D01*
X142816731Y-66757877D01*
X142952181Y-66667372D01*
X142987500Y-66632053D01*
X143022819Y-66667372D01*
X143158269Y-66757877D01*
X143308773Y-66820218D01*
X143468548Y-66852000D01*
X143631452Y-66852000D01*
X143791227Y-66820218D01*
X143941731Y-66757877D01*
X144077181Y-66667372D01*
X144192372Y-66552181D01*
X144282877Y-66416731D01*
X144345218Y-66266227D01*
X144377000Y-66106452D01*
X144377000Y-65943548D01*
X144345218Y-65783773D01*
X144282877Y-65633269D01*
X144192372Y-65497819D01*
X144077181Y-65382628D01*
X143941731Y-65292123D01*
X143791227Y-65229782D01*
X143631452Y-65198000D01*
X143468548Y-65198000D01*
X143308773Y-65229782D01*
X143158269Y-65292123D01*
X143022819Y-65382628D01*
X142987500Y-65417947D01*
X142952181Y-65382628D01*
X142816731Y-65292123D01*
X142666227Y-65229782D01*
X142506452Y-65198000D01*
X142343548Y-65198000D01*
X142183773Y-65229782D01*
X142033269Y-65292123D01*
X141897819Y-65382628D01*
X141782628Y-65497819D01*
X141692123Y-65633269D01*
X141629782Y-65783773D01*
X141598000Y-65943548D01*
X107452000Y-65943548D01*
X107452000Y-64393548D01*
X111423000Y-64393548D01*
X111423000Y-64556452D01*
X111454782Y-64716227D01*
X111517123Y-64866731D01*
X111607628Y-65002181D01*
X111722819Y-65117372D01*
X111858269Y-65207877D01*
X112008773Y-65270218D01*
X112168548Y-65302000D01*
X112331452Y-65302000D01*
X112491227Y-65270218D01*
X112641731Y-65207877D01*
X112777181Y-65117372D01*
X112892372Y-65002181D01*
X112982877Y-64866731D01*
X113045218Y-64716227D01*
X113077000Y-64556452D01*
X113077000Y-64393548D01*
X123898000Y-64393548D01*
X123898000Y-64556452D01*
X123929782Y-64716227D01*
X123992123Y-64866731D01*
X124082628Y-65002181D01*
X124197819Y-65117372D01*
X124333269Y-65207877D01*
X124483773Y-65270218D01*
X124643548Y-65302000D01*
X124806452Y-65302000D01*
X124966227Y-65270218D01*
X125116731Y-65207877D01*
X125252181Y-65117372D01*
X125367372Y-65002181D01*
X125457877Y-64866731D01*
X125520218Y-64716227D01*
X125544620Y-64593548D01*
X136248000Y-64593548D01*
X136248000Y-64756452D01*
X136279782Y-64916227D01*
X136342123Y-65066731D01*
X136432628Y-65202181D01*
X136547819Y-65317372D01*
X136683269Y-65407877D01*
X136833773Y-65470218D01*
X136993548Y-65502000D01*
X137156452Y-65502000D01*
X137316227Y-65470218D01*
X137466731Y-65407877D01*
X137602181Y-65317372D01*
X137717372Y-65202181D01*
X137807877Y-65066731D01*
X137870218Y-64916227D01*
X137902000Y-64756452D01*
X137902000Y-64593548D01*
X137870218Y-64433773D01*
X137807877Y-64283269D01*
X137717372Y-64147819D01*
X137602181Y-64032628D01*
X137466731Y-63942123D01*
X137316227Y-63879782D01*
X137156452Y-63848000D01*
X136993548Y-63848000D01*
X136833773Y-63879782D01*
X136683269Y-63942123D01*
X136547819Y-64032628D01*
X136432628Y-64147819D01*
X136342123Y-64283269D01*
X136279782Y-64433773D01*
X136248000Y-64593548D01*
X125544620Y-64593548D01*
X125552000Y-64556452D01*
X125552000Y-64393548D01*
X125520218Y-64233773D01*
X125457877Y-64083269D01*
X125367372Y-63947819D01*
X125252181Y-63832628D01*
X125116731Y-63742123D01*
X124966227Y-63679782D01*
X124806452Y-63648000D01*
X124643548Y-63648000D01*
X124483773Y-63679782D01*
X124333269Y-63742123D01*
X124197819Y-63832628D01*
X124082628Y-63947819D01*
X123992123Y-64083269D01*
X123929782Y-64233773D01*
X123898000Y-64393548D01*
X113077000Y-64393548D01*
X113045218Y-64233773D01*
X112982877Y-64083269D01*
X112892372Y-63947819D01*
X112777181Y-63832628D01*
X112641731Y-63742123D01*
X112491227Y-63679782D01*
X112331452Y-63648000D01*
X112168548Y-63648000D01*
X112008773Y-63679782D01*
X111858269Y-63742123D01*
X111722819Y-63832628D01*
X111607628Y-63947819D01*
X111517123Y-64083269D01*
X111454782Y-64233773D01*
X111423000Y-64393548D01*
X107452000Y-64393548D01*
X107452000Y-61868548D01*
X114848000Y-61868548D01*
X114848000Y-62031452D01*
X114879782Y-62191227D01*
X114942123Y-62341731D01*
X115032628Y-62477181D01*
X115147819Y-62592372D01*
X115283269Y-62682877D01*
X115433773Y-62745218D01*
X115593548Y-62777000D01*
X115756452Y-62777000D01*
X115916227Y-62745218D01*
X116066731Y-62682877D01*
X116202181Y-62592372D01*
X116317372Y-62477181D01*
X116407877Y-62341731D01*
X116458901Y-62218548D01*
X120723000Y-62218548D01*
X120723000Y-62381452D01*
X120754782Y-62541227D01*
X120817123Y-62691731D01*
X120889466Y-62800000D01*
X120817123Y-62908269D01*
X120754782Y-63058773D01*
X120723000Y-63218548D01*
X120723000Y-63381452D01*
X120754782Y-63541227D01*
X120817123Y-63691731D01*
X120907628Y-63827181D01*
X121022819Y-63942372D01*
X121158269Y-64032877D01*
X121308773Y-64095218D01*
X121468548Y-64127000D01*
X121631452Y-64127000D01*
X121791227Y-64095218D01*
X121941731Y-64032877D01*
X122050000Y-63960534D01*
X122158269Y-64032877D01*
X122308773Y-64095218D01*
X122468548Y-64127000D01*
X122631452Y-64127000D01*
X122791227Y-64095218D01*
X122941731Y-64032877D01*
X123077181Y-63942372D01*
X123192372Y-63827181D01*
X123282877Y-63691731D01*
X123345218Y-63541227D01*
X123377000Y-63381452D01*
X123377000Y-63218548D01*
X123345218Y-63058773D01*
X123282877Y-62908269D01*
X123210534Y-62800000D01*
X123282877Y-62691731D01*
X123345218Y-62541227D01*
X123377000Y-62381452D01*
X123377000Y-62218548D01*
X123345218Y-62058773D01*
X123297491Y-61943548D01*
X127498000Y-61943548D01*
X127498000Y-62106452D01*
X127529782Y-62266227D01*
X127592123Y-62416731D01*
X127682628Y-62552181D01*
X127797819Y-62667372D01*
X127933269Y-62757877D01*
X128083773Y-62820218D01*
X128243548Y-62852000D01*
X128406452Y-62852000D01*
X128566227Y-62820218D01*
X128716731Y-62757877D01*
X128852181Y-62667372D01*
X128967372Y-62552181D01*
X129057877Y-62416731D01*
X129108901Y-62293548D01*
X133273000Y-62293548D01*
X133273000Y-62456452D01*
X133304782Y-62616227D01*
X133367123Y-62766731D01*
X133439466Y-62875000D01*
X133367123Y-62983269D01*
X133304782Y-63133773D01*
X133273000Y-63293548D01*
X133273000Y-63456452D01*
X133304782Y-63616227D01*
X133367123Y-63766731D01*
X133457628Y-63902181D01*
X133572819Y-64017372D01*
X133708269Y-64107877D01*
X133858773Y-64170218D01*
X134018548Y-64202000D01*
X134181452Y-64202000D01*
X134341227Y-64170218D01*
X134491731Y-64107877D01*
X134600000Y-64035534D01*
X134708269Y-64107877D01*
X134858773Y-64170218D01*
X135018548Y-64202000D01*
X135181452Y-64202000D01*
X135341227Y-64170218D01*
X135491731Y-64107877D01*
X135627181Y-64017372D01*
X135742372Y-63902181D01*
X135832877Y-63766731D01*
X135895218Y-63616227D01*
X135927000Y-63456452D01*
X135927000Y-63293548D01*
X135895218Y-63133773D01*
X135832877Y-62983269D01*
X135760534Y-62875000D01*
X135832877Y-62766731D01*
X135895218Y-62616227D01*
X135927000Y-62456452D01*
X135927000Y-62293548D01*
X135895218Y-62133773D01*
X135832877Y-61983269D01*
X135823041Y-61968548D01*
X139923000Y-61968548D01*
X139923000Y-62131452D01*
X139954782Y-62291227D01*
X140017123Y-62441731D01*
X140107628Y-62577181D01*
X140222819Y-62692372D01*
X140358269Y-62782877D01*
X140508773Y-62845218D01*
X140668548Y-62877000D01*
X140831452Y-62877000D01*
X140991227Y-62845218D01*
X141141731Y-62782877D01*
X141277181Y-62692372D01*
X141392372Y-62577181D01*
X141482877Y-62441731D01*
X141533901Y-62318548D01*
X145698000Y-62318548D01*
X145698000Y-62481452D01*
X145729782Y-62641227D01*
X145792123Y-62791731D01*
X145864466Y-62900000D01*
X145792123Y-63008269D01*
X145729782Y-63158773D01*
X145698000Y-63318548D01*
X145698000Y-63481452D01*
X145729782Y-63641227D01*
X145792123Y-63791731D01*
X145882628Y-63927181D01*
X145997819Y-64042372D01*
X146133269Y-64132877D01*
X146283773Y-64195218D01*
X146443548Y-64227000D01*
X146606452Y-64227000D01*
X146766227Y-64195218D01*
X146916731Y-64132877D01*
X147025000Y-64060534D01*
X147133269Y-64132877D01*
X147283773Y-64195218D01*
X147443548Y-64227000D01*
X147606452Y-64227000D01*
X147766227Y-64195218D01*
X147916731Y-64132877D01*
X148052181Y-64042372D01*
X148167372Y-63927181D01*
X148257877Y-63791731D01*
X148320218Y-63641227D01*
X148352000Y-63481452D01*
X148352000Y-63318548D01*
X148320218Y-63158773D01*
X148257877Y-63008269D01*
X148185534Y-62900000D01*
X148257877Y-62791731D01*
X148320218Y-62641227D01*
X148352000Y-62481452D01*
X148352000Y-62318548D01*
X148320218Y-62158773D01*
X148257877Y-62008269D01*
X148167372Y-61872819D01*
X148052181Y-61757628D01*
X147916731Y-61667123D01*
X147766227Y-61604782D01*
X147606452Y-61573000D01*
X147443548Y-61573000D01*
X147283773Y-61604782D01*
X147133269Y-61667123D01*
X147025000Y-61739466D01*
X146916731Y-61667123D01*
X146766227Y-61604782D01*
X146606452Y-61573000D01*
X146443548Y-61573000D01*
X146283773Y-61604782D01*
X146133269Y-61667123D01*
X145997819Y-61757628D01*
X145882628Y-61872819D01*
X145792123Y-62008269D01*
X145729782Y-62158773D01*
X145698000Y-62318548D01*
X141533901Y-62318548D01*
X141545218Y-62291227D01*
X141577000Y-62131452D01*
X141577000Y-61968548D01*
X141545218Y-61808773D01*
X141482877Y-61658269D01*
X141392372Y-61522819D01*
X141277181Y-61407628D01*
X141141731Y-61317123D01*
X140991227Y-61254782D01*
X140831452Y-61223000D01*
X140668548Y-61223000D01*
X140508773Y-61254782D01*
X140358269Y-61317123D01*
X140222819Y-61407628D01*
X140107628Y-61522819D01*
X140017123Y-61658269D01*
X139954782Y-61808773D01*
X139923000Y-61968548D01*
X135823041Y-61968548D01*
X135742372Y-61847819D01*
X135627181Y-61732628D01*
X135491731Y-61642123D01*
X135341227Y-61579782D01*
X135181452Y-61548000D01*
X135018548Y-61548000D01*
X134858773Y-61579782D01*
X134708269Y-61642123D01*
X134600000Y-61714466D01*
X134491731Y-61642123D01*
X134341227Y-61579782D01*
X134181452Y-61548000D01*
X134018548Y-61548000D01*
X133858773Y-61579782D01*
X133708269Y-61642123D01*
X133572819Y-61732628D01*
X133457628Y-61847819D01*
X133367123Y-61983269D01*
X133304782Y-62133773D01*
X133273000Y-62293548D01*
X129108901Y-62293548D01*
X129120218Y-62266227D01*
X129152000Y-62106452D01*
X129152000Y-61943548D01*
X129120218Y-61783773D01*
X129057877Y-61633269D01*
X128967372Y-61497819D01*
X128852181Y-61382628D01*
X128716731Y-61292123D01*
X128566227Y-61229782D01*
X128406452Y-61198000D01*
X128243548Y-61198000D01*
X128083773Y-61229782D01*
X127933269Y-61292123D01*
X127797819Y-61382628D01*
X127682628Y-61497819D01*
X127592123Y-61633269D01*
X127529782Y-61783773D01*
X127498000Y-61943548D01*
X123297491Y-61943548D01*
X123282877Y-61908269D01*
X123192372Y-61772819D01*
X123077181Y-61657628D01*
X122941731Y-61567123D01*
X122791227Y-61504782D01*
X122631452Y-61473000D01*
X122468548Y-61473000D01*
X122308773Y-61504782D01*
X122158269Y-61567123D01*
X122050000Y-61639466D01*
X121941731Y-61567123D01*
X121791227Y-61504782D01*
X121631452Y-61473000D01*
X121468548Y-61473000D01*
X121308773Y-61504782D01*
X121158269Y-61567123D01*
X121022819Y-61657628D01*
X120907628Y-61772819D01*
X120817123Y-61908269D01*
X120754782Y-62058773D01*
X120723000Y-62218548D01*
X116458901Y-62218548D01*
X116470218Y-62191227D01*
X116502000Y-62031452D01*
X116502000Y-61868548D01*
X116470218Y-61708773D01*
X116407877Y-61558269D01*
X116317372Y-61422819D01*
X116202181Y-61307628D01*
X116066731Y-61217123D01*
X115916227Y-61154782D01*
X115756452Y-61123000D01*
X115593548Y-61123000D01*
X115433773Y-61154782D01*
X115283269Y-61217123D01*
X115147819Y-61307628D01*
X115032628Y-61422819D01*
X114942123Y-61558269D01*
X114879782Y-61708773D01*
X114848000Y-61868548D01*
X107452000Y-61868548D01*
X107452000Y-59243548D01*
X119598000Y-59243548D01*
X119598000Y-59406452D01*
X119629782Y-59566227D01*
X119692123Y-59716731D01*
X119782628Y-59852181D01*
X119897819Y-59967372D01*
X120033269Y-60057877D01*
X120183773Y-60120218D01*
X120343548Y-60152000D01*
X120506452Y-60152000D01*
X120666227Y-60120218D01*
X120816731Y-60057877D01*
X120952181Y-59967372D01*
X121067372Y-59852181D01*
X121157877Y-59716731D01*
X121220218Y-59566227D01*
X121252000Y-59406452D01*
X121252000Y-59268548D01*
X132223000Y-59268548D01*
X132223000Y-59431452D01*
X132254782Y-59591227D01*
X132317123Y-59741731D01*
X132407628Y-59877181D01*
X132522819Y-59992372D01*
X132658269Y-60082877D01*
X132808773Y-60145218D01*
X132968548Y-60177000D01*
X133131452Y-60177000D01*
X133291227Y-60145218D01*
X133441731Y-60082877D01*
X133577181Y-59992372D01*
X133692372Y-59877181D01*
X133782877Y-59741731D01*
X133845218Y-59591227D01*
X133877000Y-59431452D01*
X133877000Y-59268548D01*
X133862082Y-59193548D01*
X144698000Y-59193548D01*
X144698000Y-59356452D01*
X144729782Y-59516227D01*
X144792123Y-59666731D01*
X144882628Y-59802181D01*
X144997819Y-59917372D01*
X145133269Y-60007877D01*
X145283773Y-60070218D01*
X145443548Y-60102000D01*
X145606452Y-60102000D01*
X145766227Y-60070218D01*
X145916731Y-60007877D01*
X146052181Y-59917372D01*
X146167372Y-59802181D01*
X146257877Y-59666731D01*
X146320218Y-59516227D01*
X146352000Y-59356452D01*
X146352000Y-59193548D01*
X146320218Y-59033773D01*
X146257877Y-58883269D01*
X146167372Y-58747819D01*
X146052181Y-58632628D01*
X145916731Y-58542123D01*
X145766227Y-58479782D01*
X145606452Y-58448000D01*
X145443548Y-58448000D01*
X145283773Y-58479782D01*
X145133269Y-58542123D01*
X144997819Y-58632628D01*
X144882628Y-58747819D01*
X144792123Y-58883269D01*
X144729782Y-59033773D01*
X144698000Y-59193548D01*
X133862082Y-59193548D01*
X133845218Y-59108773D01*
X133782877Y-58958269D01*
X133692372Y-58822819D01*
X133577181Y-58707628D01*
X133441731Y-58617123D01*
X133291227Y-58554782D01*
X133131452Y-58523000D01*
X132968548Y-58523000D01*
X132808773Y-58554782D01*
X132658269Y-58617123D01*
X132522819Y-58707628D01*
X132407628Y-58822819D01*
X132317123Y-58958269D01*
X132254782Y-59108773D01*
X132223000Y-59268548D01*
X121252000Y-59268548D01*
X121252000Y-59243548D01*
X121220218Y-59083773D01*
X121157877Y-58933269D01*
X121067372Y-58797819D01*
X120952181Y-58682628D01*
X120816731Y-58592123D01*
X120666227Y-58529782D01*
X120506452Y-58498000D01*
X120343548Y-58498000D01*
X120183773Y-58529782D01*
X120033269Y-58592123D01*
X119897819Y-58682628D01*
X119782628Y-58797819D01*
X119692123Y-58933269D01*
X119629782Y-59083773D01*
X119598000Y-59243548D01*
X107452000Y-59243548D01*
X107452000Y-56274604D01*
X107673000Y-56274604D01*
X107673000Y-56575396D01*
X107731681Y-56870410D01*
X107846790Y-57148306D01*
X108013901Y-57398406D01*
X108226594Y-57611099D01*
X108476694Y-57778210D01*
X108754590Y-57893319D01*
X109049604Y-57952000D01*
X109350396Y-57952000D01*
X109645410Y-57893319D01*
X109923306Y-57778210D01*
X110173406Y-57611099D01*
X110386099Y-57398406D01*
X110553210Y-57148306D01*
X110668319Y-56870410D01*
X110723389Y-56593548D01*
X112648000Y-56593548D01*
X112648000Y-56756452D01*
X112679782Y-56916227D01*
X112742123Y-57066731D01*
X112832628Y-57202181D01*
X112947819Y-57317372D01*
X113083269Y-57407877D01*
X113233773Y-57470218D01*
X113393548Y-57502000D01*
X113556452Y-57502000D01*
X113716227Y-57470218D01*
X113866731Y-57407877D01*
X114002181Y-57317372D01*
X114117372Y-57202181D01*
X114207877Y-57066731D01*
X114270218Y-56916227D01*
X114302000Y-56756452D01*
X114302000Y-56593548D01*
X114292055Y-56543548D01*
X124948000Y-56543548D01*
X124948000Y-56706452D01*
X124979782Y-56866227D01*
X125042123Y-57016731D01*
X125132628Y-57152181D01*
X125247819Y-57267372D01*
X125383269Y-57357877D01*
X125533773Y-57420218D01*
X125693548Y-57452000D01*
X125856452Y-57452000D01*
X126016227Y-57420218D01*
X126166731Y-57357877D01*
X126302181Y-57267372D01*
X126417372Y-57152181D01*
X126507877Y-57016731D01*
X126570218Y-56866227D01*
X126602000Y-56706452D01*
X126602000Y-56543548D01*
X137373000Y-56543548D01*
X137373000Y-56706452D01*
X137404782Y-56866227D01*
X137467123Y-57016731D01*
X137557628Y-57152181D01*
X137672819Y-57267372D01*
X137808269Y-57357877D01*
X137958773Y-57420218D01*
X138118548Y-57452000D01*
X138281452Y-57452000D01*
X138441227Y-57420218D01*
X138591731Y-57357877D01*
X138727181Y-57267372D01*
X138842372Y-57152181D01*
X138932877Y-57016731D01*
X138995218Y-56866227D01*
X139027000Y-56706452D01*
X139027000Y-56543548D01*
X138995218Y-56383773D01*
X138949999Y-56274604D01*
X146823000Y-56274604D01*
X146823000Y-56575396D01*
X146881681Y-56870410D01*
X146996790Y-57148306D01*
X147163901Y-57398406D01*
X147376594Y-57611099D01*
X147626694Y-57778210D01*
X147904590Y-57893319D01*
X148199604Y-57952000D01*
X148500396Y-57952000D01*
X148795410Y-57893319D01*
X149073306Y-57778210D01*
X149323406Y-57611099D01*
X149536099Y-57398406D01*
X149703210Y-57148306D01*
X149818319Y-56870410D01*
X149877000Y-56575396D01*
X149877000Y-56274604D01*
X149818319Y-55979590D01*
X149703210Y-55701694D01*
X149536099Y-55451594D01*
X149323406Y-55238901D01*
X149073306Y-55071790D01*
X148795410Y-54956681D01*
X148500396Y-54898000D01*
X148199604Y-54898000D01*
X147904590Y-54956681D01*
X147626694Y-55071790D01*
X147376594Y-55238901D01*
X147163901Y-55451594D01*
X146996790Y-55701694D01*
X146881681Y-55979590D01*
X146823000Y-56274604D01*
X138949999Y-56274604D01*
X138932877Y-56233269D01*
X138842372Y-56097819D01*
X138727181Y-55982628D01*
X138591731Y-55892123D01*
X138441227Y-55829782D01*
X138281452Y-55798000D01*
X138118548Y-55798000D01*
X137958773Y-55829782D01*
X137808269Y-55892123D01*
X137672819Y-55982628D01*
X137557628Y-56097819D01*
X137467123Y-56233269D01*
X137404782Y-56383773D01*
X137373000Y-56543548D01*
X126602000Y-56543548D01*
X126570218Y-56383773D01*
X126507877Y-56233269D01*
X126417372Y-56097819D01*
X126302181Y-55982628D01*
X126166731Y-55892123D01*
X126016227Y-55829782D01*
X125856452Y-55798000D01*
X125693548Y-55798000D01*
X125533773Y-55829782D01*
X125383269Y-55892123D01*
X125247819Y-55982628D01*
X125132628Y-56097819D01*
X125042123Y-56233269D01*
X124979782Y-56383773D01*
X124948000Y-56543548D01*
X114292055Y-56543548D01*
X114270218Y-56433773D01*
X114207877Y-56283269D01*
X114117372Y-56147819D01*
X114002181Y-56032628D01*
X113866731Y-55942123D01*
X113716227Y-55879782D01*
X113556452Y-55848000D01*
X113393548Y-55848000D01*
X113233773Y-55879782D01*
X113083269Y-55942123D01*
X112947819Y-56032628D01*
X112832628Y-56147819D01*
X112742123Y-56283269D01*
X112679782Y-56433773D01*
X112648000Y-56593548D01*
X110723389Y-56593548D01*
X110727000Y-56575396D01*
X110727000Y-56274604D01*
X110668319Y-55979590D01*
X110553210Y-55701694D01*
X110386099Y-55451594D01*
X110173406Y-55238901D01*
X109923306Y-55071790D01*
X109645410Y-54956681D01*
X109350396Y-54898000D01*
X109049604Y-54898000D01*
X108754590Y-54956681D01*
X108476694Y-55071790D01*
X108226594Y-55238901D01*
X108013901Y-55451594D01*
X107846790Y-55701694D01*
X107731681Y-55979590D01*
X107673000Y-56274604D01*
X107452000Y-56274604D01*
X107452000Y-54652000D01*
X150128000Y-54652000D01*
X150128001Y-86648000D01*
X150128001Y-86648000D01*
G37*
X150128001Y-86648000D02*
X107452000Y-86648000D01*
X107452000Y-84724604D01*
X107698000Y-84724604D01*
X107698000Y-85025396D01*
X107756681Y-85320410D01*
X107871790Y-85598306D01*
X108038901Y-85848406D01*
X108251594Y-86061099D01*
X108501694Y-86228210D01*
X108779590Y-86343319D01*
X109074604Y-86402000D01*
X109375396Y-86402000D01*
X109670410Y-86343319D01*
X109948306Y-86228210D01*
X110198406Y-86061099D01*
X110411099Y-85848406D01*
X110578210Y-85598306D01*
X110693319Y-85320410D01*
X110749159Y-85039677D01*
X110807628Y-85127181D01*
X110922819Y-85242372D01*
X111058269Y-85332877D01*
X111208773Y-85395218D01*
X111368548Y-85427000D01*
X111531452Y-85427000D01*
X111691227Y-85395218D01*
X111841731Y-85332877D01*
X111977181Y-85242372D01*
X112092372Y-85127181D01*
X112127238Y-85075000D01*
X116395934Y-85075000D01*
X116395934Y-86075000D01*
X116404178Y-86158707D01*
X116428595Y-86239196D01*
X116468245Y-86313376D01*
X116521605Y-86378395D01*
X116586624Y-86431755D01*
X116660804Y-86471405D01*
X116741293Y-86495822D01*
X116825000Y-86504066D01*
X117825000Y-86504066D01*
X117908707Y-86495822D01*
X117989196Y-86471405D01*
X118063376Y-86431755D01*
X118128395Y-86378395D01*
X118129357Y-86377222D01*
X118238536Y-86435580D01*
X118413276Y-86488587D01*
X118549462Y-86502000D01*
X118640538Y-86502000D01*
X118776724Y-86488587D01*
X118951464Y-86435580D01*
X119112505Y-86349501D01*
X119253659Y-86233659D01*
X119369501Y-86092505D01*
X119455580Y-85931464D01*
X119508587Y-85756724D01*
X119526485Y-85575000D01*
X120203515Y-85575000D01*
X120221413Y-85756724D01*
X120274420Y-85931464D01*
X120360499Y-86092505D01*
X120476341Y-86233659D01*
X120617495Y-86349501D01*
X120778536Y-86435580D01*
X120953276Y-86488587D01*
X121089462Y-86502000D01*
X121180538Y-86502000D01*
X121316724Y-86488587D01*
X121491464Y-86435580D01*
X121652505Y-86349501D01*
X121770000Y-86253075D01*
X121887495Y-86349501D01*
X122048536Y-86435580D01*
X122223276Y-86488587D01*
X122359462Y-86502000D01*
X122450538Y-86502000D01*
X122586724Y-86488587D01*
X122761464Y-86435580D01*
X122922505Y-86349501D01*
X123063659Y-86233659D01*
X123179501Y-86092505D01*
X123265580Y-85931464D01*
X123318587Y-85756724D01*
X123336485Y-85575000D01*
X123318587Y-85393276D01*
X123265580Y-85218536D01*
X123179501Y-85057495D01*
X123063659Y-84916341D01*
X122944498Y-84818548D01*
X143123000Y-84818548D01*
X143123000Y-84981452D01*
X143154782Y-85141227D01*
X143217123Y-85291731D01*
X143307628Y-85427181D01*
X143422819Y-85542372D01*
X143558269Y-85632877D01*
X143708773Y-85695218D01*
X143868548Y-85727000D01*
X144031452Y-85727000D01*
X144191227Y-85695218D01*
X144341731Y-85632877D01*
X144477181Y-85542372D01*
X144592372Y-85427181D01*
X144682877Y-85291731D01*
X144745218Y-85141227D01*
X144777000Y-84981452D01*
X144777000Y-84818548D01*
X144758313Y-84724604D01*
X146823000Y-84724604D01*
X146823000Y-85025396D01*
X146881681Y-85320410D01*
X146996790Y-85598306D01*
X147163901Y-85848406D01*
X147376594Y-86061099D01*
X147626694Y-86228210D01*
X147904590Y-86343319D01*
X148199604Y-86402000D01*
X148500396Y-86402000D01*
X148795410Y-86343319D01*
X149073306Y-86228210D01*
X149323406Y-86061099D01*
X149536099Y-85848406D01*
X149703210Y-85598306D01*
X149818319Y-85320410D01*
X149877000Y-85025396D01*
X149877000Y-84724604D01*
X149818319Y-84429590D01*
X149703210Y-84151694D01*
X149536099Y-83901594D01*
X149323406Y-83688901D01*
X149073306Y-83521790D01*
X148795410Y-83406681D01*
X148500396Y-83348000D01*
X148199604Y-83348000D01*
X147904590Y-83406681D01*
X147626694Y-83521790D01*
X147376594Y-83688901D01*
X147163901Y-83901594D01*
X146996790Y-84151694D01*
X146881681Y-84429590D01*
X146823000Y-84724604D01*
X144758313Y-84724604D01*
X144745218Y-84658773D01*
X144682877Y-84508269D01*
X144592372Y-84372819D01*
X144477181Y-84257628D01*
X144341731Y-84167123D01*
X144191227Y-84104782D01*
X144031452Y-84073000D01*
X143868548Y-84073000D01*
X143708773Y-84104782D01*
X143558269Y-84167123D01*
X143422819Y-84257628D01*
X143307628Y-84372819D01*
X143217123Y-84508269D01*
X143154782Y-84658773D01*
X143123000Y-84818548D01*
X122944498Y-84818548D01*
X122922505Y-84800499D01*
X122761464Y-84714420D01*
X122586724Y-84661413D01*
X122450538Y-84648000D01*
X122359462Y-84648000D01*
X122223276Y-84661413D01*
X122048536Y-84714420D01*
X121887495Y-84800499D01*
X121770000Y-84896925D01*
X121652505Y-84800499D01*
X121491464Y-84714420D01*
X121316724Y-84661413D01*
X121180538Y-84648000D01*
X121089462Y-84648000D01*
X120953276Y-84661413D01*
X120778536Y-84714420D01*
X120617495Y-84800499D01*
X120476341Y-84916341D01*
X120360499Y-85057495D01*
X120274420Y-85218536D01*
X120221413Y-85393276D01*
X120203515Y-85575000D01*
X119526485Y-85575000D01*
X119508587Y-85393276D01*
X119455580Y-85218536D01*
X119369501Y-85057495D01*
X119253659Y-84916341D01*
X119112505Y-84800499D01*
X118951464Y-84714420D01*
X118776724Y-84661413D01*
X118640538Y-84648000D01*
X118549462Y-84648000D01*
X118413276Y-84661413D01*
X118238536Y-84714420D01*
X118129357Y-84772778D01*
X118128395Y-84771605D01*
X118063376Y-84718245D01*
X117989196Y-84678595D01*
X117908707Y-84654178D01*
X117825000Y-84645934D01*
X116825000Y-84645934D01*
X116741293Y-84654178D01*
X116660804Y-84678595D01*
X116586624Y-84718245D01*
X116521605Y-84771605D01*
X116468245Y-84836624D01*
X116428595Y-84910804D01*
X116404178Y-84991293D01*
X116395934Y-85075000D01*
X112127238Y-85075000D01*
X112182877Y-84991731D01*
X112245218Y-84841227D01*
X112277000Y-84681452D01*
X112277000Y-84518548D01*
X112245218Y-84358773D01*
X112182877Y-84208269D01*
X112092372Y-84072819D01*
X111977181Y-83957628D01*
X111841731Y-83867123D01*
X111691227Y-83804782D01*
X111531452Y-83773000D01*
X111368548Y-83773000D01*
X111208773Y-83804782D01*
X111058269Y-83867123D01*
X110922819Y-83957628D01*
X110807628Y-84072819D01*
X110717123Y-84208269D01*
X110659384Y-84347663D01*
X110578210Y-84151694D01*
X110411099Y-83901594D01*
X110198406Y-83688901D01*
X109948306Y-83521790D01*
X109670410Y-83406681D01*
X109375396Y-83348000D01*
X109074604Y-83348000D01*
X108779590Y-83406681D01*
X108501694Y-83521790D01*
X108251594Y-83688901D01*
X108038901Y-83901594D01*
X107871790Y-84151694D01*
X107756681Y-84429590D01*
X107698000Y-84724604D01*
X107452000Y-84724604D01*
X107452000Y-82743548D01*
X116085500Y-82743548D01*
X116085500Y-82906452D01*
X116117282Y-83066227D01*
X116179623Y-83216731D01*
X116270128Y-83352181D01*
X116385319Y-83467372D01*
X116520769Y-83557877D01*
X116671273Y-83620218D01*
X116831048Y-83652000D01*
X116993952Y-83652000D01*
X117153727Y-83620218D01*
X117304231Y-83557877D01*
X117439681Y-83467372D01*
X117554872Y-83352181D01*
X117645377Y-83216731D01*
X117707718Y-83066227D01*
X117739500Y-82906452D01*
X117739500Y-82743548D01*
X117707718Y-82583773D01*
X117645377Y-82433269D01*
X117554872Y-82297819D01*
X117439681Y-82182628D01*
X117304231Y-82092123D01*
X117153727Y-82029782D01*
X116993952Y-81998000D01*
X116831048Y-81998000D01*
X116671273Y-82029782D01*
X116520769Y-82092123D01*
X116385319Y-82182628D01*
X116270128Y-82297819D01*
X116179623Y-82433269D01*
X116117282Y-82583773D01*
X116085500Y-82743548D01*
X107452000Y-82743548D01*
X107452000Y-81968548D01*
X124648000Y-81968548D01*
X124648000Y-82131452D01*
X124679782Y-82291227D01*
X124742123Y-82441731D01*
X124832628Y-82577181D01*
X124947819Y-82692372D01*
X125083269Y-82782877D01*
X125233773Y-82845218D01*
X125393548Y-82877000D01*
X125556452Y-82877000D01*
X125716227Y-82845218D01*
X125866731Y-82782877D01*
X126002181Y-82692372D01*
X126117372Y-82577181D01*
X126207877Y-82441731D01*
X126270218Y-82291227D01*
X126302000Y-82131452D01*
X126302000Y-82068548D01*
X135448000Y-82068548D01*
X135448000Y-82231452D01*
X135479782Y-82391227D01*
X135542123Y-82541731D01*
X135632628Y-82677181D01*
X135747819Y-82792372D01*
X135883269Y-82882877D01*
X136033773Y-82945218D01*
X136193548Y-82977000D01*
X136356452Y-82977000D01*
X136516227Y-82945218D01*
X136666731Y-82882877D01*
X136802181Y-82792372D01*
X136917372Y-82677181D01*
X137007877Y-82541731D01*
X137070218Y-82391227D01*
X137102000Y-82231452D01*
X137102000Y-82068548D01*
X137070218Y-81908773D01*
X137007877Y-81758269D01*
X136917372Y-81622819D01*
X136802181Y-81507628D01*
X136666731Y-81417123D01*
X136516227Y-81354782D01*
X136356452Y-81323000D01*
X136193548Y-81323000D01*
X136033773Y-81354782D01*
X135883269Y-81417123D01*
X135747819Y-81507628D01*
X135632628Y-81622819D01*
X135542123Y-81758269D01*
X135479782Y-81908773D01*
X135448000Y-82068548D01*
X126302000Y-82068548D01*
X126302000Y-81968548D01*
X126270218Y-81808773D01*
X126207877Y-81658269D01*
X126117372Y-81522819D01*
X126002181Y-81407628D01*
X125866731Y-81317123D01*
X125716227Y-81254782D01*
X125556452Y-81223000D01*
X125393548Y-81223000D01*
X125233773Y-81254782D01*
X125083269Y-81317123D01*
X124947819Y-81407628D01*
X124832628Y-81522819D01*
X124742123Y-81658269D01*
X124679782Y-81808773D01*
X124648000Y-81968548D01*
X107452000Y-81968548D01*
X107452000Y-80568548D01*
X109348000Y-80568548D01*
X109348000Y-80731452D01*
X109379782Y-80891227D01*
X109442123Y-81041731D01*
X109532628Y-81177181D01*
X109647819Y-81292372D01*
X109783269Y-81382877D01*
X109933773Y-81445218D01*
X110093548Y-81477000D01*
X110256452Y-81477000D01*
X110416227Y-81445218D01*
X110566731Y-81382877D01*
X110702181Y-81292372D01*
X110817372Y-81177181D01*
X110907877Y-81041731D01*
X110970218Y-80891227D01*
X111002000Y-80731452D01*
X111002000Y-80568548D01*
X110970218Y-80408773D01*
X110907877Y-80258269D01*
X110817372Y-80122819D01*
X110702181Y-80007628D01*
X110566731Y-79917123D01*
X110416227Y-79854782D01*
X110256452Y-79823000D01*
X110093548Y-79823000D01*
X109933773Y-79854782D01*
X109783269Y-79917123D01*
X109647819Y-80007628D01*
X109532628Y-80122819D01*
X109442123Y-80258269D01*
X109379782Y-80408773D01*
X109348000Y-80568548D01*
X107452000Y-80568548D01*
X107452000Y-77268548D01*
X108773000Y-77268548D01*
X108773000Y-77431452D01*
X108804782Y-77591227D01*
X108867123Y-77741731D01*
X108957628Y-77877181D01*
X109046686Y-77966239D01*
X109045330Y-77980000D01*
X109048000Y-78007106D01*
X109048000Y-78007108D01*
X109055988Y-78088210D01*
X109087552Y-78192262D01*
X109138809Y-78288158D01*
X109207789Y-78372211D01*
X109228856Y-78389500D01*
X110040508Y-79201154D01*
X110057789Y-79222211D01*
X110078845Y-79239491D01*
X110078846Y-79239492D01*
X110141842Y-79291191D01*
X110237737Y-79342448D01*
X110341789Y-79374012D01*
X110450000Y-79384670D01*
X110477109Y-79382000D01*
X113744892Y-79382000D01*
X113771998Y-79384670D01*
X113799104Y-79382000D01*
X113799107Y-79382000D01*
X113880209Y-79374012D01*
X113984261Y-79342448D01*
X114080156Y-79291191D01*
X114164209Y-79222211D01*
X114181498Y-79201144D01*
X114505643Y-78877000D01*
X117862769Y-78877000D01*
X117854782Y-78896283D01*
X117823000Y-79056058D01*
X117823000Y-79218962D01*
X117854782Y-79378737D01*
X117917123Y-79529241D01*
X118004236Y-79659615D01*
X117946960Y-79745335D01*
X117884619Y-79895839D01*
X117852837Y-80055614D01*
X117852837Y-80218518D01*
X117884619Y-80378293D01*
X117946960Y-80528797D01*
X117979274Y-80577158D01*
X117950347Y-80606085D01*
X117859842Y-80741535D01*
X117797501Y-80892039D01*
X117765719Y-81051814D01*
X117765719Y-81214718D01*
X117797501Y-81374493D01*
X117859842Y-81524997D01*
X117950347Y-81660447D01*
X118065538Y-81775638D01*
X118200988Y-81866143D01*
X118351492Y-81928484D01*
X118511267Y-81960266D01*
X118674171Y-81960266D01*
X118833946Y-81928484D01*
X118984450Y-81866143D01*
X119119900Y-81775638D01*
X119235091Y-81660447D01*
X119325596Y-81524997D01*
X119387937Y-81374493D01*
X119419719Y-81214718D01*
X119419719Y-81051814D01*
X119393211Y-80918548D01*
X120148000Y-80918548D01*
X120148000Y-81081452D01*
X120179782Y-81241227D01*
X120242123Y-81391731D01*
X120332628Y-81527181D01*
X120447819Y-81642372D01*
X120583269Y-81732877D01*
X120733773Y-81795218D01*
X120893548Y-81827000D01*
X121056452Y-81827000D01*
X121216227Y-81795218D01*
X121366731Y-81732877D01*
X121502181Y-81642372D01*
X121617372Y-81527181D01*
X121707877Y-81391731D01*
X121770218Y-81241227D01*
X121802000Y-81081452D01*
X121802000Y-80918548D01*
X121770218Y-80758773D01*
X121707877Y-80608269D01*
X121617372Y-80472819D01*
X121502181Y-80357628D01*
X121366731Y-80267123D01*
X121216227Y-80204782D01*
X121056452Y-80173000D01*
X120893548Y-80173000D01*
X120733773Y-80204782D01*
X120583269Y-80267123D01*
X120447819Y-80357628D01*
X120332628Y-80472819D01*
X120242123Y-80608269D01*
X120179782Y-80758773D01*
X120148000Y-80918548D01*
X119393211Y-80918548D01*
X119387937Y-80892039D01*
X119325596Y-80741535D01*
X119293282Y-80693174D01*
X119322209Y-80664247D01*
X119412714Y-80528797D01*
X119475055Y-80378293D01*
X119506837Y-80218518D01*
X119506837Y-80055614D01*
X119475055Y-79895839D01*
X119412714Y-79745335D01*
X119325601Y-79614961D01*
X119382877Y-79529241D01*
X119445218Y-79378737D01*
X119477000Y-79218962D01*
X119477000Y-79056058D01*
X119476456Y-79053325D01*
X119483269Y-79057877D01*
X119633773Y-79120218D01*
X119793548Y-79152000D01*
X119956452Y-79152000D01*
X120116227Y-79120218D01*
X120266731Y-79057877D01*
X120402181Y-78967372D01*
X120517372Y-78852181D01*
X120607877Y-78716731D01*
X120670218Y-78566227D01*
X120702000Y-78406452D01*
X120702000Y-78243548D01*
X120670218Y-78083773D01*
X120663912Y-78068548D01*
X133523000Y-78068548D01*
X133523000Y-78231452D01*
X133554782Y-78391227D01*
X133617123Y-78541731D01*
X133689466Y-78650000D01*
X133617123Y-78758269D01*
X133554782Y-78908773D01*
X133523000Y-79068548D01*
X133523000Y-79231452D01*
X133554782Y-79391227D01*
X133617123Y-79541731D01*
X133707628Y-79677181D01*
X133822819Y-79792372D01*
X133958269Y-79882877D01*
X134108773Y-79945218D01*
X134268548Y-79977000D01*
X134431452Y-79977000D01*
X134591227Y-79945218D01*
X134741731Y-79882877D01*
X134850000Y-79810534D01*
X134958269Y-79882877D01*
X135108773Y-79945218D01*
X135268548Y-79977000D01*
X135431452Y-79977000D01*
X135591227Y-79945218D01*
X135741731Y-79882877D01*
X135877181Y-79792372D01*
X135992372Y-79677181D01*
X136082877Y-79541731D01*
X136133901Y-79418548D01*
X140323000Y-79418548D01*
X140323000Y-79581452D01*
X140354782Y-79741227D01*
X140417123Y-79891731D01*
X140507628Y-80027181D01*
X140622819Y-80142372D01*
X140758269Y-80232877D01*
X140908773Y-80295218D01*
X141068548Y-80327000D01*
X141231452Y-80327000D01*
X141391227Y-80295218D01*
X141541731Y-80232877D01*
X141677181Y-80142372D01*
X141792372Y-80027181D01*
X141882877Y-79891731D01*
X141945218Y-79741227D01*
X141977000Y-79581452D01*
X141977000Y-79418548D01*
X141945218Y-79258773D01*
X141882877Y-79108269D01*
X141792372Y-78972819D01*
X141677181Y-78857628D01*
X141541731Y-78767123D01*
X141391227Y-78704782D01*
X141231452Y-78673000D01*
X141068548Y-78673000D01*
X140908773Y-78704782D01*
X140758269Y-78767123D01*
X140622819Y-78857628D01*
X140507628Y-78972819D01*
X140417123Y-79108269D01*
X140354782Y-79258773D01*
X140323000Y-79418548D01*
X136133901Y-79418548D01*
X136145218Y-79391227D01*
X136177000Y-79231452D01*
X136177000Y-79068548D01*
X136145218Y-78908773D01*
X136082877Y-78758269D01*
X136010534Y-78650000D01*
X136082877Y-78541731D01*
X136145218Y-78391227D01*
X136177000Y-78231452D01*
X136177000Y-78068548D01*
X136145218Y-77908773D01*
X136082877Y-77758269D01*
X135992372Y-77622819D01*
X135877181Y-77507628D01*
X135741731Y-77417123D01*
X135591227Y-77354782D01*
X135431452Y-77323000D01*
X135268548Y-77323000D01*
X135108773Y-77354782D01*
X134958269Y-77417123D01*
X134850000Y-77489466D01*
X134741731Y-77417123D01*
X134591227Y-77354782D01*
X134431452Y-77323000D01*
X134268548Y-77323000D01*
X134108773Y-77354782D01*
X133958269Y-77417123D01*
X133822819Y-77507628D01*
X133707628Y-77622819D01*
X133617123Y-77758269D01*
X133554782Y-77908773D01*
X133523000Y-78068548D01*
X120663912Y-78068548D01*
X120607877Y-77933269D01*
X120517372Y-77797819D01*
X120402181Y-77682628D01*
X120266731Y-77592123D01*
X120116227Y-77529782D01*
X119956452Y-77498000D01*
X119793548Y-77498000D01*
X119633773Y-77529782D01*
X119483269Y-77592123D01*
X119347819Y-77682628D01*
X119257447Y-77773000D01*
X114304106Y-77773000D01*
X114276998Y-77770330D01*
X114249889Y-77773000D01*
X114168787Y-77780988D01*
X114064735Y-77812552D01*
X113968840Y-77863809D01*
X113884787Y-77932789D01*
X113867506Y-77953846D01*
X113543353Y-78278000D01*
X110678646Y-78278000D01*
X110256573Y-77855928D01*
X110332877Y-77741731D01*
X110395218Y-77591227D01*
X110427000Y-77431452D01*
X110427000Y-77268548D01*
X110395218Y-77108773D01*
X110332877Y-76958269D01*
X110242372Y-76822819D01*
X110127181Y-76707628D01*
X110106109Y-76693548D01*
X112973000Y-76693548D01*
X112973000Y-76856452D01*
X113004782Y-77016227D01*
X113067123Y-77166731D01*
X113157628Y-77302181D01*
X113272819Y-77417372D01*
X113408269Y-77507877D01*
X113558773Y-77570218D01*
X113718548Y-77602000D01*
X113881452Y-77602000D01*
X114041227Y-77570218D01*
X114191731Y-77507877D01*
X114327181Y-77417372D01*
X114362500Y-77382053D01*
X114372819Y-77392372D01*
X114508269Y-77482877D01*
X114658773Y-77545218D01*
X114818548Y-77577000D01*
X114981452Y-77577000D01*
X115141227Y-77545218D01*
X115291731Y-77482877D01*
X115427181Y-77392372D01*
X115542372Y-77277181D01*
X115632877Y-77141731D01*
X115695218Y-76991227D01*
X115727000Y-76831452D01*
X115727000Y-76693548D01*
X143673000Y-76693548D01*
X143673000Y-76856452D01*
X143704782Y-77016227D01*
X143767123Y-77166731D01*
X143857628Y-77302181D01*
X143972819Y-77417372D01*
X144108269Y-77507877D01*
X144258773Y-77570218D01*
X144418548Y-77602000D01*
X144581452Y-77602000D01*
X144741227Y-77570218D01*
X144891731Y-77507877D01*
X145027181Y-77417372D01*
X145142372Y-77302181D01*
X145232877Y-77166731D01*
X145295218Y-77016227D01*
X145327000Y-76856452D01*
X145327000Y-76693548D01*
X145295218Y-76533773D01*
X145232877Y-76383269D01*
X145142372Y-76247819D01*
X145027181Y-76132628D01*
X144891731Y-76042123D01*
X144741227Y-75979782D01*
X144581452Y-75948000D01*
X144418548Y-75948000D01*
X144258773Y-75979782D01*
X144108269Y-76042123D01*
X143972819Y-76132628D01*
X143857628Y-76247819D01*
X143767123Y-76383269D01*
X143704782Y-76533773D01*
X143673000Y-76693548D01*
X115727000Y-76693548D01*
X115727000Y-76668548D01*
X115695218Y-76508773D01*
X115632877Y-76358269D01*
X115542372Y-76222819D01*
X115427181Y-76107628D01*
X115291731Y-76017123D01*
X115141227Y-75954782D01*
X114981452Y-75923000D01*
X114818548Y-75923000D01*
X114658773Y-75954782D01*
X114508269Y-76017123D01*
X114372819Y-76107628D01*
X114337500Y-76142947D01*
X114327181Y-76132628D01*
X114191731Y-76042123D01*
X114041227Y-75979782D01*
X113881452Y-75948000D01*
X113718548Y-75948000D01*
X113558773Y-75979782D01*
X113408269Y-76042123D01*
X113272819Y-76132628D01*
X113157628Y-76247819D01*
X113067123Y-76383269D01*
X113004782Y-76533773D01*
X112973000Y-76693548D01*
X110106109Y-76693548D01*
X109991731Y-76617123D01*
X109841227Y-76554782D01*
X109681452Y-76523000D01*
X109518548Y-76523000D01*
X109358773Y-76554782D01*
X109208269Y-76617123D01*
X109072819Y-76707628D01*
X108957628Y-76822819D01*
X108867123Y-76958269D01*
X108804782Y-77108773D01*
X108773000Y-77268548D01*
X107452000Y-77268548D01*
X107452000Y-75718548D01*
X116673000Y-75718548D01*
X116673000Y-75881452D01*
X116704782Y-76041227D01*
X116767123Y-76191731D01*
X116857628Y-76327181D01*
X116972819Y-76442372D01*
X117108269Y-76532877D01*
X117258773Y-76595218D01*
X117418548Y-76627000D01*
X117581452Y-76627000D01*
X117741227Y-76595218D01*
X117891731Y-76532877D01*
X118027181Y-76442372D01*
X118142372Y-76327181D01*
X118232877Y-76191731D01*
X118295218Y-76041227D01*
X118327000Y-75881452D01*
X118327000Y-75718548D01*
X118295218Y-75558773D01*
X118232877Y-75408269D01*
X118142372Y-75272819D01*
X118027181Y-75157628D01*
X117891731Y-75067123D01*
X117741227Y-75004782D01*
X117581452Y-74973000D01*
X117418548Y-74973000D01*
X117258773Y-75004782D01*
X117108269Y-75067123D01*
X116972819Y-75157628D01*
X116857628Y-75272819D01*
X116767123Y-75408269D01*
X116704782Y-75558773D01*
X116673000Y-75718548D01*
X107452000Y-75718548D01*
X107452000Y-72043548D01*
X121348000Y-72043548D01*
X121348000Y-72206452D01*
X121379782Y-72366227D01*
X121442123Y-72516731D01*
X121532628Y-72652181D01*
X121647819Y-72767372D01*
X121783269Y-72857877D01*
X121933773Y-72920218D01*
X122093548Y-72952000D01*
X122256452Y-72952000D01*
X122416227Y-72920218D01*
X122566731Y-72857877D01*
X122702181Y-72767372D01*
X122817372Y-72652181D01*
X122907877Y-72516731D01*
X122970218Y-72366227D01*
X123002000Y-72206452D01*
X123002000Y-72043548D01*
X122970218Y-71883773D01*
X122907877Y-71733269D01*
X122817372Y-71597819D01*
X122702181Y-71482628D01*
X122566731Y-71392123D01*
X122416227Y-71329782D01*
X122256452Y-71298000D01*
X122093548Y-71298000D01*
X121933773Y-71329782D01*
X121783269Y-71392123D01*
X121647819Y-71482628D01*
X121532628Y-71597819D01*
X121442123Y-71733269D01*
X121379782Y-71883773D01*
X121348000Y-72043548D01*
X107452000Y-72043548D01*
X107452000Y-69711553D01*
X107482819Y-69742372D01*
X107618269Y-69832877D01*
X107768773Y-69895218D01*
X107928548Y-69927000D01*
X108091452Y-69927000D01*
X108251227Y-69895218D01*
X108401731Y-69832877D01*
X108460590Y-69793548D01*
X109998000Y-69793548D01*
X109998000Y-69956452D01*
X110029782Y-70116227D01*
X110092123Y-70266731D01*
X110182628Y-70402181D01*
X110297819Y-70517372D01*
X110433269Y-70607877D01*
X110583773Y-70670218D01*
X110743548Y-70702000D01*
X110906452Y-70702000D01*
X111066227Y-70670218D01*
X111216731Y-70607877D01*
X111352181Y-70517372D01*
X111375000Y-70494553D01*
X111397819Y-70517372D01*
X111533269Y-70607877D01*
X111683773Y-70670218D01*
X111843548Y-70702000D01*
X112006452Y-70702000D01*
X112166227Y-70670218D01*
X112316731Y-70607877D01*
X112452181Y-70517372D01*
X112512500Y-70457053D01*
X112572819Y-70517372D01*
X112708269Y-70607877D01*
X112858773Y-70670218D01*
X113018548Y-70702000D01*
X113181452Y-70702000D01*
X113341227Y-70670218D01*
X113491731Y-70607877D01*
X113627181Y-70517372D01*
X113742372Y-70402181D01*
X113832877Y-70266731D01*
X113895218Y-70116227D01*
X113927000Y-69956452D01*
X113927000Y-69793548D01*
X113895218Y-69633773D01*
X113832877Y-69483269D01*
X113742372Y-69347819D01*
X113627181Y-69232628D01*
X113491731Y-69142123D01*
X113341227Y-69079782D01*
X113181452Y-69048000D01*
X113018548Y-69048000D01*
X112858773Y-69079782D01*
X112708269Y-69142123D01*
X112572819Y-69232628D01*
X112512500Y-69292947D01*
X112452181Y-69232628D01*
X112316731Y-69142123D01*
X112166227Y-69079782D01*
X112006452Y-69048000D01*
X111843548Y-69048000D01*
X111683773Y-69079782D01*
X111533269Y-69142123D01*
X111397819Y-69232628D01*
X111375000Y-69255447D01*
X111352181Y-69232628D01*
X111216731Y-69142123D01*
X111066227Y-69079782D01*
X110906452Y-69048000D01*
X110743548Y-69048000D01*
X110583773Y-69079782D01*
X110433269Y-69142123D01*
X110297819Y-69232628D01*
X110182628Y-69347819D01*
X110092123Y-69483269D01*
X110029782Y-69633773D01*
X109998000Y-69793548D01*
X108460590Y-69793548D01*
X108537181Y-69742372D01*
X108652372Y-69627181D01*
X108742877Y-69491731D01*
X108805218Y-69341227D01*
X108837000Y-69181452D01*
X108837000Y-69018548D01*
X108822082Y-68943548D01*
X132773000Y-68943548D01*
X132773000Y-69106452D01*
X132804782Y-69266227D01*
X132867123Y-69416731D01*
X132939466Y-69525000D01*
X132867123Y-69633269D01*
X132804782Y-69783773D01*
X132773000Y-69943548D01*
X132773000Y-70106452D01*
X132804782Y-70266227D01*
X132867123Y-70416731D01*
X132947818Y-70537500D01*
X132867123Y-70658269D01*
X132804782Y-70808773D01*
X132773000Y-70968548D01*
X132773000Y-71131452D01*
X132804782Y-71291227D01*
X132867123Y-71441731D01*
X132957628Y-71577181D01*
X133072819Y-71692372D01*
X133208269Y-71782877D01*
X133358773Y-71845218D01*
X133518548Y-71877000D01*
X133681452Y-71877000D01*
X133841227Y-71845218D01*
X133991731Y-71782877D01*
X134100000Y-71710534D01*
X134208269Y-71782877D01*
X134358773Y-71845218D01*
X134518548Y-71877000D01*
X134681452Y-71877000D01*
X134841227Y-71845218D01*
X134991731Y-71782877D01*
X135100000Y-71710534D01*
X135208269Y-71782877D01*
X135358773Y-71845218D01*
X135518548Y-71877000D01*
X135681452Y-71877000D01*
X135841227Y-71845218D01*
X135991731Y-71782877D01*
X136127181Y-71692372D01*
X136242372Y-71577181D01*
X136332877Y-71441731D01*
X136395218Y-71291227D01*
X136427000Y-71131452D01*
X136427000Y-70968548D01*
X136395218Y-70808773D01*
X136332877Y-70658269D01*
X136319700Y-70638548D01*
X146303000Y-70638548D01*
X146303000Y-70801452D01*
X146334782Y-70961227D01*
X146397123Y-71111731D01*
X146487628Y-71247181D01*
X146602819Y-71362372D01*
X146738269Y-71452877D01*
X146888773Y-71515218D01*
X147048548Y-71547000D01*
X147211452Y-71547000D01*
X147371227Y-71515218D01*
X147521731Y-71452877D01*
X147657181Y-71362372D01*
X147772372Y-71247181D01*
X147862877Y-71111731D01*
X147925218Y-70961227D01*
X147957000Y-70801452D01*
X147957000Y-70638548D01*
X147925218Y-70478773D01*
X147862877Y-70328269D01*
X147772372Y-70192819D01*
X147657181Y-70077628D01*
X147521731Y-69987123D01*
X147371227Y-69924782D01*
X147211452Y-69893000D01*
X147048548Y-69893000D01*
X146888773Y-69924782D01*
X146738269Y-69987123D01*
X146602819Y-70077628D01*
X146487628Y-70192819D01*
X146397123Y-70328269D01*
X146334782Y-70478773D01*
X146303000Y-70638548D01*
X136319700Y-70638548D01*
X136252182Y-70537500D01*
X136332877Y-70416731D01*
X136395218Y-70266227D01*
X136427000Y-70106452D01*
X136427000Y-69943548D01*
X136395218Y-69783773D01*
X136332877Y-69633269D01*
X136260534Y-69525000D01*
X136332877Y-69416731D01*
X136395218Y-69266227D01*
X136427000Y-69106452D01*
X136427000Y-68943548D01*
X136395218Y-68783773D01*
X136332877Y-68633269D01*
X136242372Y-68497819D01*
X136127181Y-68382628D01*
X135991731Y-68292123D01*
X135841227Y-68229782D01*
X135681452Y-68198000D01*
X135518548Y-68198000D01*
X135358773Y-68229782D01*
X135208269Y-68292123D01*
X135100000Y-68364466D01*
X134991731Y-68292123D01*
X134841227Y-68229782D01*
X134681452Y-68198000D01*
X134518548Y-68198000D01*
X134358773Y-68229782D01*
X134208269Y-68292123D01*
X134100000Y-68364466D01*
X133991731Y-68292123D01*
X133841227Y-68229782D01*
X133681452Y-68198000D01*
X133518548Y-68198000D01*
X133358773Y-68229782D01*
X133208269Y-68292123D01*
X133072819Y-68382628D01*
X132957628Y-68497819D01*
X132867123Y-68633269D01*
X132804782Y-68783773D01*
X132773000Y-68943548D01*
X108822082Y-68943548D01*
X108805218Y-68858773D01*
X108742877Y-68708269D01*
X108652372Y-68572819D01*
X108537181Y-68457628D01*
X108401731Y-68367123D01*
X108251227Y-68304782D01*
X108091452Y-68273000D01*
X107928548Y-68273000D01*
X107768773Y-68304782D01*
X107618269Y-68367123D01*
X107482819Y-68457628D01*
X107452000Y-68488447D01*
X107452000Y-65943548D01*
X141598000Y-65943548D01*
X141598000Y-66106452D01*
X141629782Y-66266227D01*
X141692123Y-66416731D01*
X141782628Y-66552181D01*
X141897819Y-66667372D01*
X142033269Y-66757877D01*
X142183773Y-66820218D01*
X142343548Y-66852000D01*
X142506452Y-66852000D01*
X142666227Y-66820218D01*
X142816731Y-66757877D01*
X142952181Y-66667372D01*
X142987500Y-66632053D01*
X143022819Y-66667372D01*
X143158269Y-66757877D01*
X143308773Y-66820218D01*
X143468548Y-66852000D01*
X143631452Y-66852000D01*
X143791227Y-66820218D01*
X143941731Y-66757877D01*
X144077181Y-66667372D01*
X144192372Y-66552181D01*
X144282877Y-66416731D01*
X144345218Y-66266227D01*
X144377000Y-66106452D01*
X144377000Y-65943548D01*
X144345218Y-65783773D01*
X144282877Y-65633269D01*
X144192372Y-65497819D01*
X144077181Y-65382628D01*
X143941731Y-65292123D01*
X143791227Y-65229782D01*
X143631452Y-65198000D01*
X143468548Y-65198000D01*
X143308773Y-65229782D01*
X143158269Y-65292123D01*
X143022819Y-65382628D01*
X142987500Y-65417947D01*
X142952181Y-65382628D01*
X142816731Y-65292123D01*
X142666227Y-65229782D01*
X142506452Y-65198000D01*
X142343548Y-65198000D01*
X142183773Y-65229782D01*
X142033269Y-65292123D01*
X141897819Y-65382628D01*
X141782628Y-65497819D01*
X141692123Y-65633269D01*
X141629782Y-65783773D01*
X141598000Y-65943548D01*
X107452000Y-65943548D01*
X107452000Y-64393548D01*
X111423000Y-64393548D01*
X111423000Y-64556452D01*
X111454782Y-64716227D01*
X111517123Y-64866731D01*
X111607628Y-65002181D01*
X111722819Y-65117372D01*
X111858269Y-65207877D01*
X112008773Y-65270218D01*
X112168548Y-65302000D01*
X112331452Y-65302000D01*
X112491227Y-65270218D01*
X112641731Y-65207877D01*
X112777181Y-65117372D01*
X112892372Y-65002181D01*
X112982877Y-64866731D01*
X113045218Y-64716227D01*
X113077000Y-64556452D01*
X113077000Y-64393548D01*
X123898000Y-64393548D01*
X123898000Y-64556452D01*
X123929782Y-64716227D01*
X123992123Y-64866731D01*
X124082628Y-65002181D01*
X124197819Y-65117372D01*
X124333269Y-65207877D01*
X124483773Y-65270218D01*
X124643548Y-65302000D01*
X124806452Y-65302000D01*
X124966227Y-65270218D01*
X125116731Y-65207877D01*
X125252181Y-65117372D01*
X125367372Y-65002181D01*
X125457877Y-64866731D01*
X125520218Y-64716227D01*
X125544620Y-64593548D01*
X136248000Y-64593548D01*
X136248000Y-64756452D01*
X136279782Y-64916227D01*
X136342123Y-65066731D01*
X136432628Y-65202181D01*
X136547819Y-65317372D01*
X136683269Y-65407877D01*
X136833773Y-65470218D01*
X136993548Y-65502000D01*
X137156452Y-65502000D01*
X137316227Y-65470218D01*
X137466731Y-65407877D01*
X137602181Y-65317372D01*
X137717372Y-65202181D01*
X137807877Y-65066731D01*
X137870218Y-64916227D01*
X137902000Y-64756452D01*
X137902000Y-64593548D01*
X137870218Y-64433773D01*
X137807877Y-64283269D01*
X137717372Y-64147819D01*
X137602181Y-64032628D01*
X137466731Y-63942123D01*
X137316227Y-63879782D01*
X137156452Y-63848000D01*
X136993548Y-63848000D01*
X136833773Y-63879782D01*
X136683269Y-63942123D01*
X136547819Y-64032628D01*
X136432628Y-64147819D01*
X136342123Y-64283269D01*
X136279782Y-64433773D01*
X136248000Y-64593548D01*
X125544620Y-64593548D01*
X125552000Y-64556452D01*
X125552000Y-64393548D01*
X125520218Y-64233773D01*
X125457877Y-64083269D01*
X125367372Y-63947819D01*
X125252181Y-63832628D01*
X125116731Y-63742123D01*
X124966227Y-63679782D01*
X124806452Y-63648000D01*
X124643548Y-63648000D01*
X124483773Y-63679782D01*
X124333269Y-63742123D01*
X124197819Y-63832628D01*
X124082628Y-63947819D01*
X123992123Y-64083269D01*
X123929782Y-64233773D01*
X123898000Y-64393548D01*
X113077000Y-64393548D01*
X113045218Y-64233773D01*
X112982877Y-64083269D01*
X112892372Y-63947819D01*
X112777181Y-63832628D01*
X112641731Y-63742123D01*
X112491227Y-63679782D01*
X112331452Y-63648000D01*
X112168548Y-63648000D01*
X112008773Y-63679782D01*
X111858269Y-63742123D01*
X111722819Y-63832628D01*
X111607628Y-63947819D01*
X111517123Y-64083269D01*
X111454782Y-64233773D01*
X111423000Y-64393548D01*
X107452000Y-64393548D01*
X107452000Y-61868548D01*
X114848000Y-61868548D01*
X114848000Y-62031452D01*
X114879782Y-62191227D01*
X114942123Y-62341731D01*
X115032628Y-62477181D01*
X115147819Y-62592372D01*
X115283269Y-62682877D01*
X115433773Y-62745218D01*
X115593548Y-62777000D01*
X115756452Y-62777000D01*
X115916227Y-62745218D01*
X116066731Y-62682877D01*
X116202181Y-62592372D01*
X116317372Y-62477181D01*
X116407877Y-62341731D01*
X116458901Y-62218548D01*
X120723000Y-62218548D01*
X120723000Y-62381452D01*
X120754782Y-62541227D01*
X120817123Y-62691731D01*
X120889466Y-62800000D01*
X120817123Y-62908269D01*
X120754782Y-63058773D01*
X120723000Y-63218548D01*
X120723000Y-63381452D01*
X120754782Y-63541227D01*
X120817123Y-63691731D01*
X120907628Y-63827181D01*
X121022819Y-63942372D01*
X121158269Y-64032877D01*
X121308773Y-64095218D01*
X121468548Y-64127000D01*
X121631452Y-64127000D01*
X121791227Y-64095218D01*
X121941731Y-64032877D01*
X122050000Y-63960534D01*
X122158269Y-64032877D01*
X122308773Y-64095218D01*
X122468548Y-64127000D01*
X122631452Y-64127000D01*
X122791227Y-64095218D01*
X122941731Y-64032877D01*
X123077181Y-63942372D01*
X123192372Y-63827181D01*
X123282877Y-63691731D01*
X123345218Y-63541227D01*
X123377000Y-63381452D01*
X123377000Y-63218548D01*
X123345218Y-63058773D01*
X123282877Y-62908269D01*
X123210534Y-62800000D01*
X123282877Y-62691731D01*
X123345218Y-62541227D01*
X123377000Y-62381452D01*
X123377000Y-62218548D01*
X123345218Y-62058773D01*
X123297491Y-61943548D01*
X127498000Y-61943548D01*
X127498000Y-62106452D01*
X127529782Y-62266227D01*
X127592123Y-62416731D01*
X127682628Y-62552181D01*
X127797819Y-62667372D01*
X127933269Y-62757877D01*
X128083773Y-62820218D01*
X128243548Y-62852000D01*
X128406452Y-62852000D01*
X128566227Y-62820218D01*
X128716731Y-62757877D01*
X128852181Y-62667372D01*
X128967372Y-62552181D01*
X129057877Y-62416731D01*
X129108901Y-62293548D01*
X133273000Y-62293548D01*
X133273000Y-62456452D01*
X133304782Y-62616227D01*
X133367123Y-62766731D01*
X133439466Y-62875000D01*
X133367123Y-62983269D01*
X133304782Y-63133773D01*
X133273000Y-63293548D01*
X133273000Y-63456452D01*
X133304782Y-63616227D01*
X133367123Y-63766731D01*
X133457628Y-63902181D01*
X133572819Y-64017372D01*
X133708269Y-64107877D01*
X133858773Y-64170218D01*
X134018548Y-64202000D01*
X134181452Y-64202000D01*
X134341227Y-64170218D01*
X134491731Y-64107877D01*
X134600000Y-64035534D01*
X134708269Y-64107877D01*
X134858773Y-64170218D01*
X135018548Y-64202000D01*
X135181452Y-64202000D01*
X135341227Y-64170218D01*
X135491731Y-64107877D01*
X135627181Y-64017372D01*
X135742372Y-63902181D01*
X135832877Y-63766731D01*
X135895218Y-63616227D01*
X135927000Y-63456452D01*
X135927000Y-63293548D01*
X135895218Y-63133773D01*
X135832877Y-62983269D01*
X135760534Y-62875000D01*
X135832877Y-62766731D01*
X135895218Y-62616227D01*
X135927000Y-62456452D01*
X135927000Y-62293548D01*
X135895218Y-62133773D01*
X135832877Y-61983269D01*
X135823041Y-61968548D01*
X139923000Y-61968548D01*
X139923000Y-62131452D01*
X139954782Y-62291227D01*
X140017123Y-62441731D01*
X140107628Y-62577181D01*
X140222819Y-62692372D01*
X140358269Y-62782877D01*
X140508773Y-62845218D01*
X140668548Y-62877000D01*
X140831452Y-62877000D01*
X140991227Y-62845218D01*
X141141731Y-62782877D01*
X141277181Y-62692372D01*
X141392372Y-62577181D01*
X141482877Y-62441731D01*
X141533901Y-62318548D01*
X145698000Y-62318548D01*
X145698000Y-62481452D01*
X145729782Y-62641227D01*
X145792123Y-62791731D01*
X145864466Y-62900000D01*
X145792123Y-63008269D01*
X145729782Y-63158773D01*
X145698000Y-63318548D01*
X145698000Y-63481452D01*
X145729782Y-63641227D01*
X145792123Y-63791731D01*
X145882628Y-63927181D01*
X145997819Y-64042372D01*
X146133269Y-64132877D01*
X146283773Y-64195218D01*
X146443548Y-64227000D01*
X146606452Y-64227000D01*
X146766227Y-64195218D01*
X146916731Y-64132877D01*
X147025000Y-64060534D01*
X147133269Y-64132877D01*
X147283773Y-64195218D01*
X147443548Y-64227000D01*
X147606452Y-64227000D01*
X147766227Y-64195218D01*
X147916731Y-64132877D01*
X148052181Y-64042372D01*
X148167372Y-63927181D01*
X148257877Y-63791731D01*
X148320218Y-63641227D01*
X148352000Y-63481452D01*
X148352000Y-63318548D01*
X148320218Y-63158773D01*
X148257877Y-63008269D01*
X148185534Y-62900000D01*
X148257877Y-62791731D01*
X148320218Y-62641227D01*
X148352000Y-62481452D01*
X148352000Y-62318548D01*
X148320218Y-62158773D01*
X148257877Y-62008269D01*
X148167372Y-61872819D01*
X148052181Y-61757628D01*
X147916731Y-61667123D01*
X147766227Y-61604782D01*
X147606452Y-61573000D01*
X147443548Y-61573000D01*
X147283773Y-61604782D01*
X147133269Y-61667123D01*
X147025000Y-61739466D01*
X146916731Y-61667123D01*
X146766227Y-61604782D01*
X146606452Y-61573000D01*
X146443548Y-61573000D01*
X146283773Y-61604782D01*
X146133269Y-61667123D01*
X145997819Y-61757628D01*
X145882628Y-61872819D01*
X145792123Y-62008269D01*
X145729782Y-62158773D01*
X145698000Y-62318548D01*
X141533901Y-62318548D01*
X141545218Y-62291227D01*
X141577000Y-62131452D01*
X141577000Y-61968548D01*
X141545218Y-61808773D01*
X141482877Y-61658269D01*
X141392372Y-61522819D01*
X141277181Y-61407628D01*
X141141731Y-61317123D01*
X140991227Y-61254782D01*
X140831452Y-61223000D01*
X140668548Y-61223000D01*
X140508773Y-61254782D01*
X140358269Y-61317123D01*
X140222819Y-61407628D01*
X140107628Y-61522819D01*
X140017123Y-61658269D01*
X139954782Y-61808773D01*
X139923000Y-61968548D01*
X135823041Y-61968548D01*
X135742372Y-61847819D01*
X135627181Y-61732628D01*
X135491731Y-61642123D01*
X135341227Y-61579782D01*
X135181452Y-61548000D01*
X135018548Y-61548000D01*
X134858773Y-61579782D01*
X134708269Y-61642123D01*
X134600000Y-61714466D01*
X134491731Y-61642123D01*
X134341227Y-61579782D01*
X134181452Y-61548000D01*
X134018548Y-61548000D01*
X133858773Y-61579782D01*
X133708269Y-61642123D01*
X133572819Y-61732628D01*
X133457628Y-61847819D01*
X133367123Y-61983269D01*
X133304782Y-62133773D01*
X133273000Y-62293548D01*
X129108901Y-62293548D01*
X129120218Y-62266227D01*
X129152000Y-62106452D01*
X129152000Y-61943548D01*
X129120218Y-61783773D01*
X129057877Y-61633269D01*
X128967372Y-61497819D01*
X128852181Y-61382628D01*
X128716731Y-61292123D01*
X128566227Y-61229782D01*
X128406452Y-61198000D01*
X128243548Y-61198000D01*
X128083773Y-61229782D01*
X127933269Y-61292123D01*
X127797819Y-61382628D01*
X127682628Y-61497819D01*
X127592123Y-61633269D01*
X127529782Y-61783773D01*
X127498000Y-61943548D01*
X123297491Y-61943548D01*
X123282877Y-61908269D01*
X123192372Y-61772819D01*
X123077181Y-61657628D01*
X122941731Y-61567123D01*
X122791227Y-61504782D01*
X122631452Y-61473000D01*
X122468548Y-61473000D01*
X122308773Y-61504782D01*
X122158269Y-61567123D01*
X122050000Y-61639466D01*
X121941731Y-61567123D01*
X121791227Y-61504782D01*
X121631452Y-61473000D01*
X121468548Y-61473000D01*
X121308773Y-61504782D01*
X121158269Y-61567123D01*
X121022819Y-61657628D01*
X120907628Y-61772819D01*
X120817123Y-61908269D01*
X120754782Y-62058773D01*
X120723000Y-62218548D01*
X116458901Y-62218548D01*
X116470218Y-62191227D01*
X116502000Y-62031452D01*
X116502000Y-61868548D01*
X116470218Y-61708773D01*
X116407877Y-61558269D01*
X116317372Y-61422819D01*
X116202181Y-61307628D01*
X116066731Y-61217123D01*
X115916227Y-61154782D01*
X115756452Y-61123000D01*
X115593548Y-61123000D01*
X115433773Y-61154782D01*
X115283269Y-61217123D01*
X115147819Y-61307628D01*
X115032628Y-61422819D01*
X114942123Y-61558269D01*
X114879782Y-61708773D01*
X114848000Y-61868548D01*
X107452000Y-61868548D01*
X107452000Y-59243548D01*
X119598000Y-59243548D01*
X119598000Y-59406452D01*
X119629782Y-59566227D01*
X119692123Y-59716731D01*
X119782628Y-59852181D01*
X119897819Y-59967372D01*
X120033269Y-60057877D01*
X120183773Y-60120218D01*
X120343548Y-60152000D01*
X120506452Y-60152000D01*
X120666227Y-60120218D01*
X120816731Y-60057877D01*
X120952181Y-59967372D01*
X121067372Y-59852181D01*
X121157877Y-59716731D01*
X121220218Y-59566227D01*
X121252000Y-59406452D01*
X121252000Y-59268548D01*
X132223000Y-59268548D01*
X132223000Y-59431452D01*
X132254782Y-59591227D01*
X132317123Y-59741731D01*
X132407628Y-59877181D01*
X132522819Y-59992372D01*
X132658269Y-60082877D01*
X132808773Y-60145218D01*
X132968548Y-60177000D01*
X133131452Y-60177000D01*
X133291227Y-60145218D01*
X133441731Y-60082877D01*
X133577181Y-59992372D01*
X133692372Y-59877181D01*
X133782877Y-59741731D01*
X133845218Y-59591227D01*
X133877000Y-59431452D01*
X133877000Y-59268548D01*
X133862082Y-59193548D01*
X144698000Y-59193548D01*
X144698000Y-59356452D01*
X144729782Y-59516227D01*
X144792123Y-59666731D01*
X144882628Y-59802181D01*
X144997819Y-59917372D01*
X145133269Y-60007877D01*
X145283773Y-60070218D01*
X145443548Y-60102000D01*
X145606452Y-60102000D01*
X145766227Y-60070218D01*
X145916731Y-60007877D01*
X146052181Y-59917372D01*
X146167372Y-59802181D01*
X146257877Y-59666731D01*
X146320218Y-59516227D01*
X146352000Y-59356452D01*
X146352000Y-59193548D01*
X146320218Y-59033773D01*
X146257877Y-58883269D01*
X146167372Y-58747819D01*
X146052181Y-58632628D01*
X145916731Y-58542123D01*
X145766227Y-58479782D01*
X145606452Y-58448000D01*
X145443548Y-58448000D01*
X145283773Y-58479782D01*
X145133269Y-58542123D01*
X144997819Y-58632628D01*
X144882628Y-58747819D01*
X144792123Y-58883269D01*
X144729782Y-59033773D01*
X144698000Y-59193548D01*
X133862082Y-59193548D01*
X133845218Y-59108773D01*
X133782877Y-58958269D01*
X133692372Y-58822819D01*
X133577181Y-58707628D01*
X133441731Y-58617123D01*
X133291227Y-58554782D01*
X133131452Y-58523000D01*
X132968548Y-58523000D01*
X132808773Y-58554782D01*
X132658269Y-58617123D01*
X132522819Y-58707628D01*
X132407628Y-58822819D01*
X132317123Y-58958269D01*
X132254782Y-59108773D01*
X132223000Y-59268548D01*
X121252000Y-59268548D01*
X121252000Y-59243548D01*
X121220218Y-59083773D01*
X121157877Y-58933269D01*
X121067372Y-58797819D01*
X120952181Y-58682628D01*
X120816731Y-58592123D01*
X120666227Y-58529782D01*
X120506452Y-58498000D01*
X120343548Y-58498000D01*
X120183773Y-58529782D01*
X120033269Y-58592123D01*
X119897819Y-58682628D01*
X119782628Y-58797819D01*
X119692123Y-58933269D01*
X119629782Y-59083773D01*
X119598000Y-59243548D01*
X107452000Y-59243548D01*
X107452000Y-56274604D01*
X107673000Y-56274604D01*
X107673000Y-56575396D01*
X107731681Y-56870410D01*
X107846790Y-57148306D01*
X108013901Y-57398406D01*
X108226594Y-57611099D01*
X108476694Y-57778210D01*
X108754590Y-57893319D01*
X109049604Y-57952000D01*
X109350396Y-57952000D01*
X109645410Y-57893319D01*
X109923306Y-57778210D01*
X110173406Y-57611099D01*
X110386099Y-57398406D01*
X110553210Y-57148306D01*
X110668319Y-56870410D01*
X110723389Y-56593548D01*
X112648000Y-56593548D01*
X112648000Y-56756452D01*
X112679782Y-56916227D01*
X112742123Y-57066731D01*
X112832628Y-57202181D01*
X112947819Y-57317372D01*
X113083269Y-57407877D01*
X113233773Y-57470218D01*
X113393548Y-57502000D01*
X113556452Y-57502000D01*
X113716227Y-57470218D01*
X113866731Y-57407877D01*
X114002181Y-57317372D01*
X114117372Y-57202181D01*
X114207877Y-57066731D01*
X114270218Y-56916227D01*
X114302000Y-56756452D01*
X114302000Y-56593548D01*
X114292055Y-56543548D01*
X124948000Y-56543548D01*
X124948000Y-56706452D01*
X124979782Y-56866227D01*
X125042123Y-57016731D01*
X125132628Y-57152181D01*
X125247819Y-57267372D01*
X125383269Y-57357877D01*
X125533773Y-57420218D01*
X125693548Y-57452000D01*
X125856452Y-57452000D01*
X126016227Y-57420218D01*
X126166731Y-57357877D01*
X126302181Y-57267372D01*
X126417372Y-57152181D01*
X126507877Y-57016731D01*
X126570218Y-56866227D01*
X126602000Y-56706452D01*
X126602000Y-56543548D01*
X137373000Y-56543548D01*
X137373000Y-56706452D01*
X137404782Y-56866227D01*
X137467123Y-57016731D01*
X137557628Y-57152181D01*
X137672819Y-57267372D01*
X137808269Y-57357877D01*
X137958773Y-57420218D01*
X138118548Y-57452000D01*
X138281452Y-57452000D01*
X138441227Y-57420218D01*
X138591731Y-57357877D01*
X138727181Y-57267372D01*
X138842372Y-57152181D01*
X138932877Y-57016731D01*
X138995218Y-56866227D01*
X139027000Y-56706452D01*
X139027000Y-56543548D01*
X138995218Y-56383773D01*
X138949999Y-56274604D01*
X146823000Y-56274604D01*
X146823000Y-56575396D01*
X146881681Y-56870410D01*
X146996790Y-57148306D01*
X147163901Y-57398406D01*
X147376594Y-57611099D01*
X147626694Y-57778210D01*
X147904590Y-57893319D01*
X148199604Y-57952000D01*
X148500396Y-57952000D01*
X148795410Y-57893319D01*
X149073306Y-57778210D01*
X149323406Y-57611099D01*
X149536099Y-57398406D01*
X149703210Y-57148306D01*
X149818319Y-56870410D01*
X149877000Y-56575396D01*
X149877000Y-56274604D01*
X149818319Y-55979590D01*
X149703210Y-55701694D01*
X149536099Y-55451594D01*
X149323406Y-55238901D01*
X149073306Y-55071790D01*
X148795410Y-54956681D01*
X148500396Y-54898000D01*
X148199604Y-54898000D01*
X147904590Y-54956681D01*
X147626694Y-55071790D01*
X147376594Y-55238901D01*
X147163901Y-55451594D01*
X146996790Y-55701694D01*
X146881681Y-55979590D01*
X146823000Y-56274604D01*
X138949999Y-56274604D01*
X138932877Y-56233269D01*
X138842372Y-56097819D01*
X138727181Y-55982628D01*
X138591731Y-55892123D01*
X138441227Y-55829782D01*
X138281452Y-55798000D01*
X138118548Y-55798000D01*
X137958773Y-55829782D01*
X137808269Y-55892123D01*
X137672819Y-55982628D01*
X137557628Y-56097819D01*
X137467123Y-56233269D01*
X137404782Y-56383773D01*
X137373000Y-56543548D01*
X126602000Y-56543548D01*
X126570218Y-56383773D01*
X126507877Y-56233269D01*
X126417372Y-56097819D01*
X126302181Y-55982628D01*
X126166731Y-55892123D01*
X126016227Y-55829782D01*
X125856452Y-55798000D01*
X125693548Y-55798000D01*
X125533773Y-55829782D01*
X125383269Y-55892123D01*
X125247819Y-55982628D01*
X125132628Y-56097819D01*
X125042123Y-56233269D01*
X124979782Y-56383773D01*
X124948000Y-56543548D01*
X114292055Y-56543548D01*
X114270218Y-56433773D01*
X114207877Y-56283269D01*
X114117372Y-56147819D01*
X114002181Y-56032628D01*
X113866731Y-55942123D01*
X113716227Y-55879782D01*
X113556452Y-55848000D01*
X113393548Y-55848000D01*
X113233773Y-55879782D01*
X113083269Y-55942123D01*
X112947819Y-56032628D01*
X112832628Y-56147819D01*
X112742123Y-56283269D01*
X112679782Y-56433773D01*
X112648000Y-56593548D01*
X110723389Y-56593548D01*
X110727000Y-56575396D01*
X110727000Y-56274604D01*
X110668319Y-55979590D01*
X110553210Y-55701694D01*
X110386099Y-55451594D01*
X110173406Y-55238901D01*
X109923306Y-55071790D01*
X109645410Y-54956681D01*
X109350396Y-54898000D01*
X109049604Y-54898000D01*
X108754590Y-54956681D01*
X108476694Y-55071790D01*
X108226594Y-55238901D01*
X108013901Y-55451594D01*
X107846790Y-55701694D01*
X107731681Y-55979590D01*
X107673000Y-56274604D01*
X107452000Y-56274604D01*
X107452000Y-54652000D01*
X150128000Y-54652000D01*
X150128001Y-86648000D01*
M02*
